<svg xmlns="http://www.w3.org/2000/svg" width="24" height="24" viewBox="0 0 24 24">
  <path fill="currentColor" d="M9.75 12.25c.4141 0 .7499.3359.75.75v4c-.0002.414-.3359.75-.75.75-.41407 0-.74977-.336-.75-.75v-4c.00012-.4141.33586-.75.75-.75m4.4004 0c.414.0002.7499.336.75.75v4c-.0002.4139-.3361.7498-.75.75-.4141 0-.7498-.336-.75-.75v-4c.0001-.4141.3358-.75.75-.75M12 7.25c.9507 0 1.7885.42967 2.4785 1.02832.6891.59789 1.2746 1.40084 1.7481 2.25288.9386 1.6896 1.5234 3.7401 1.5234 5.1729 0 2.8895-2.6852 5.0459-5.75 5.0459-3.06478 0-5.75-2.1564-5.75-5.0459.00001-1.4174.58466-3.4679 1.52246-5.1602.47316-.8537 1.05931-1.65929 1.74805-2.25972C10.21 7.68314 11.0479 7.25 12 7.25m0 1.5c-.4765 0-.9783.21532-1.4941.66504-.51643.45026-1.00139 1.09856-1.42094 1.85546-.84776 1.5297-1.33495 3.331-1.33496 4.4336 0 1.6475 1.41285 3.1639 3.4502 3.4834V10.75c0-.4142.3358-.75.75-.75.4141.0001.75.3359.75.75v8.4521c2.0908-.2848 3.5498-1.8237 3.5498-3.498 0-1.119-.4871-2.92-1.334-4.4443-.4194-.7549-.9047-1.4008-1.4209-1.84867C12.9798 8.96408 12.4778 8.75 12 8.75m4.5-7.5c1.2426 0 2.25 1.00736 2.25 2.25 0 .38218-.0965.74143-.2646 1.05664C19.8174 5.13202 20.75 6.45673 20.75 8v11c0 2.0711-1.6789 3.75-3.75 3.75H7c-2.07107 0-3.75-1.6789-3.75-3.75V8c0-1.54295.93205-2.86779 2.26367-3.44336C5.3457 4.24153 5.25 3.88201 5.25 3.5c0-1.24264 1.00736-2.25 2.25-2.25zM7 5.75C5.75736 5.75 4.75 6.75736 4.75 8v11c0 1.2426 1.00736 2.25 2.25 2.25h10c1.2426 0 2.25-1.0074 2.25-2.25V8c0-1.24264-1.0074-2.25-2.25-2.25zm.5-3c-.41421 0-.75.33579-.75.75s.33579.75.75.75H8v-1.5zm2 1.5H11v-1.5H9.5zm3 0H14v-1.5h-1.5zm3 0h1c.4142 0 .75-.33579.75-.75s-.3358-.75-.75-.75h-1z"/>
</svg>
