<svg xmlns="http://www.w3.org/2000/svg" width="24" height="24" viewBox="0 0 24 24">
  <path fill="currentColor" d="M12 7.0498c.4141 0 .7499.33588.75.75v11.5996c0 .4142-.3358.75-.75.75s-.75-.3358-.75-.75V7.7998c.0001-.41412.3359-.75.75-.75m3 2.10059c.4142 0 .75.33579.75.75v7.39941c-.0001.4142-.3358.75-.75.75s-.7499-.3358-.75-.75V9.90039c0-.41421.3358-.75.75-.75M9 10.3496c.41408 0 .74979.336.75.75v5c0 .4142-.33579.75-.75.75s-.75-.3358-.75-.75v-5c.00021-.414.33592-.75.75-.75M12 2.25c1.154 0 2.143.64927 2.9355 1.50879.7989.86642 1.4811 2.03255 2.0352 3.2793C18.076 9.52488 18.75 12.5181 18.75 14.5566 18.7498 18.4782 15.7773 21.75 12 21.75c-3.77729 0-6.74977-3.2718-6.75-7.1934 0-2.0151.67361-5.00829 1.77832-7.49996C7.58228 5.80722 8.265 4.63668 9.06348 3.7666 9.85519 2.90395 10.8444 2.25 12 2.25m0 1.5c-.5586 0-1.1764.31794-1.8311 1.03125-.6478.70594-1.2511 1.71594-1.76851 2.88281C7.3623 10.0054 6.75 12.7916 6.75 14.5566 6.75022 17.7523 9.15014 20.25 12 20.25c2.8499 0 5.2498-2.4977 5.25-5.6934 0-1.7894-.6119-4.57488-1.6494-6.90914-.5173-1.16374-1.1201-2.16984-1.7676-2.87207C13.1791 4.06625 12.5603 3.75 12 3.75"/>
</svg>
