<svg xmlns="http://www.w3.org/2000/svg" width="24" height="24" viewBox="0 0 24 24">
  <path fill="currentColor" d="M10 1.25c.4142 0 .75.33579.75.75v2c0 .0744-.015.14504-.0352.21289.0218.09233.0352.18815.0352.28711v.75H19c.2841 0 .5439.16095.6709.41504l1 2a.7498.7498 0 0 1 0 .66992L19.8379 10l.833 1.665a.75.75 0 0 1 0 .67L19.8379 14l.833 1.665a.75.75 0 0 1 0 .67L19.8379 18l.833 1.665c.116.2324.1034.5085-.0332.7295A.7498.7498 0 0 1 20 20.75h-9.25v.75c0 .6904-.5596 1.25-1.25 1.25h-5c-.69036 0-1.25-.5596-1.25-1.25v-17c0-.09888.01248-.19485.03418-.28711C3.26405 4.14512 3.25 4.0743 3.25 4V2c0-.41421.33579-.75.75-.75zm-5.25 20h4.5V4.75h-4.5zm6-2h.8789l3.7803-3.7803c.2929-.2927.7677-.2928 1.0605 0 .2928.2929.2927.7677 0 1.0606L13.75 19.25h5.0361l-.457-.915a.75.75 0 0 1 0-.67l.832-1.665-.832-1.665a.75.75 0 0 1 0-.67l.832-1.665-.832-1.665a.7499.7499 0 0 1 0-.66996L19.1611 8l-.3877-.77441-3.2431 3.24411c-.2929.2928-.7677.2928-1.0606 0-.2928-.2928-.2928-.76762 0-1.06052L17.1289 6.75H16.25l-3.7197 3.7197c-.2929.2928-.7677.2928-1.0606 0-.2928-.2928-.2928-.76762 0-1.06052L14.1289 6.75H10.75zm-6-16h4.5v-.5h-4.5z"/>
</svg>
