<svg xmlns="http://www.w3.org/2000/svg" width="24" height="24" viewBox="0 0 24 24">
  <path fill="currentColor" d="M12.5 8c.2761 0 .5.22386.5.5s-.2239.5-.5.5-.5-.22386-.5-.5.2239-.5.5-.5m-.501-4.75c.221 0 .4308.09774.5733.2666C13.924 5.11847 14.7499 7.68302 14.75 10.5c0 2.5168-.6621 4.8302-1.7666 6.4375l2.5449 2.5303c.2155.2141.2809.5375.1651.8183-.1159.2808-.3897.4639-.6934.4639H9c-.30291 0-.57602-.1822-.69238-.4619-.1163-.2796-.05313-.6016.16015-.8164l2.53423-2.5508C9.90508 15.314 9.25 13.0071 9.25 10.5c.00006-2.81612.8243-5.38127 2.1758-6.9834l.0566-.06055A.7504.7504 0 0 1 11.999 3.25m-1.1963 16h2.3789l-1.1972-1.1895zM11.999 5.30469C11.2462 6.59562 10.75 8.4244 10.75 10.5c0 2.0751.4964 3.9034 1.249 5.1943.7534-1.2909 1.251-3.1189 1.251-5.1943 0-2.0759-.4974-3.90441-1.251-5.19531M18.5 1.25c.6904 0 1.25.55964 1.25 1.25v19c0 .6904-.5596 1.25-1.25 1.25h-13c-.69036 0-1.25-.5596-1.25-1.25v-19c0-.69036.55965-1.25 1.25-1.25zm-12.75 20h12.5V2.75H5.75z"/>
</svg>
