<svg xmlns="http://www.w3.org/2000/svg" width="24" height="24" viewBox="0 0 24 24">
  <path fill="currentColor" d="M15.8184 2.27246c.4015-.10007.8086.14437.9091.5459.1002.40159-.1444.80861-.5459.90918-1.6655.41662-2.5231 1.65677-2.9765 2.90332-.1272.34981-.2168.69327-.2832 1.00586-.0033.10665-.0102.21317-.0215.31933.1436-.07175.2948-.14823.458-.23632.1936-.1045.407-.22041.627-.32715.8947-.43422 2.0669-.80543 3.3896-.04199C19.7336 8.71265 20.4052 11.4216 20.4053 14c-.0002 1.4418-.7367 3.4538-1.6797 5.0664-.4789.8189-1.0398 1.5844-1.6358 2.1553-.5721.5479-1.2944 1.0281-2.0898 1.0283-.5608 0-.9962-.0699-1.3574-.2012-.3692-.1342-.6156-.3171-.7979-.4629-.1916-.1533-.2509-.2059-.3486-.2529-.0745-.0358-.2099-.083-.4961-.083-.2857 0-.4205.0473-.4951.083-.0979.047-.1569.0995-.3487.2529-.1822.1458-.4286.3286-.7978.4629-.36135.1314-.79745.2012-1.3584.2012-.75556-.0001-1.46535-.3917-2.05566-.8916-.60474-.5123-1.17228-1.2113-1.65821-1.9922C4.32085 17.8148 3.59581 15.8028 3.5957 14c.00006-2.5185.56273-5.46604 3.08008-6.67578.43938-.21103.87626-.28984 1.2959-.28711-.62171-.92913-.83777-2.04821-.64941-3.10742l.02929-.11231c.08744-.2546.30725-.44683.57813-.49511C9.24804 3.0879 10.661 3.47835 11.6826 4.5c.2052.20522.3838.42738.5381.66016.6498-1.22551 1.7501-2.42569 3.5977-2.8877m.8066 6.37793c-.6768-.39072-1.2545-.26238-1.9844.0918-.1859.09026-.3716.18963-.5703.29687-.1933.10434-.4024.21749-.6123.31836-.4118.19789-.9114.39249-1.458.39258l-.1924-.00684c-.4469-.03195-.8754-.16922-1.2529-.3164-.3923-.153-.91528-.39844-1.26271-.54297-.83271-.34631-1.42858-.46552-1.96679-.20703C5.681 9.46704 5.09577 11.5189 5.0957 14c.00011 1.4486.60197 3.1879 1.46387 4.5732.42763.6872.89919 1.255 1.35449 1.6407.46925.3973.84194.5359 1.08594.5361.43842 0 .69155-.0543.8457-.1104.14582-.053.244-.1206.374-.2246.1206-.0965.3434-.2942.6358-.4345.3159-.1516.6813-.2305 1.1445-.2305.4633 0 .8295.0788 1.1455.2305.2923.1404.5153.3382.6357.4345.13.1039.2282.1716.3741.2246.1542.056.4068.1104.8447.1104.2043-.0002.5651-.1443 1.0527-.6113.4641-.4446.9433-1.0859 1.378-1.8291.8841-1.512 1.4744-3.2515 1.4746-4.3096-.0001-2.4209-.6399-4.40219-2.2803-5.34961M8.75879 4.75781c.0195.67739.28618 1.34757.80176 1.86328.51545.51533 1.18525.78202 1.86235.80176-.0197-.67715-.2864-1.34677-.8018-1.8623-.5156-.51544-1.18511-.7831-1.86231-.80274"/>
</svg>
