<svg xmlns="http://www.w3.org/2000/svg" width="24" height="24" viewBox="0 0 24 24">
  <path fill="currentColor" d="M13.5654 8.25c.4139.00038.75.33602.75.75s-.3361.74962-.75.75c-.4552 0-.752.2999-.958.9141.4638-.1952 1.1035-.3343 1.8096.0732 1.314.7586 1.6425 2.2424 1.6426 3.5147-.0001.7885-.3899 1.8199-.8555 2.6162-.2401.4106-.5288.8087-.8477 1.1142-.2952.2828-.7351.6006-1.2695.6006-.2998 0-.5556-.0377-.7822-.1201-.2347-.0854-.3915-.2027-.4922-.2832-.0522-.0418-.0756-.062-.0859-.0703-.0119-.0019-.0351-.0039-.0723-.0039-.0359 0-.0583.002-.0703.0039-.01.008-.0342.0273-.0879.0703-.1007.0805-.2567.1979-.4912.2832-.2266.0824-.4825.1201-.7822.1201-.4946-.0001-.92195-.254-1.2354-.5195-.32768-.2777-.62392-.6457-.87109-1.043-.48776-.7841-.86617-1.8154-.86621-2.7685.00003-1.2122.26247-2.8538 1.69238-3.5411.09926-.0477.19837-.0832.2959-.1103-.12961-.3587-.16641-.74266-.10742-1.11427l.02734-.11719c.08667-.26321.31461-.4611.59473-.50586.62997-.10027 1.29697.07474 1.81447.51172.3807-.5954 1.0036-1.125 1.998-1.125m.1016 3.7861c-.1543-.0889-.2758-.0905-.5811.0577-.0798.0387-.1607.0828-.2568.1347-.0908.049-.1987.1074-.3086.1602-.2084.1001-.5052.2206-.8486.2246-.0056.0001-.0111.0019-.0166.0019-.0183 0-.0368-.0016-.0547-.0029-.299-.0099-.5711-.0979-.7783-.1787-.1808-.0705-.4856-.2104-.6114-.2627-.38932-.1619-.52826-.1511-.6191-.1074-.55665.2679-.84176 1.014-.8418 2.1885.00004.5991.25514 1.3584.63965 1.9765.18883.3035.38912.5394.56738.6904.19147.1622.28117.1641.26567.1641.1769 0 .2499-.0222.2695-.0293.0113-.0041.0191-.0063.0674-.0449.0389-.0311.1884-.1634.3789-.2549.2138-.1027.4485-.1484.7158-.1484.2675 0 .5028.0458.7168.1484.1901.0913.3397.2234.3789.2549.0479.0383.0562.0409.0674.0449.019.0069.0885.0261.2549.0274.0172-.0075.0993-.0411.2461-.1817.1871-.1793.3948-.4529.5908-.7881.4067-.6955.6503-1.4544.6504-1.8593-.0001-1.1149-.2969-1.8719-.8926-2.2159M16.5 1.25c1.2426 0 2.25 1.00736 2.25 2.25 0 .38218-.0965.74143-.2646 1.05664C19.8174 5.13202 20.75 6.45673 20.75 8v11c0 2.0711-1.6789 3.75-3.75 3.75H7c-2.07107 0-3.75-1.6789-3.75-3.75V8c0-1.54295.93205-2.86779 2.26367-3.44336C5.3457 4.24153 5.25 3.88201 5.25 3.5c0-1.24264 1.00736-2.25 2.25-2.25zM7 5.75C5.75736 5.75 4.75 6.75736 4.75 8v11c0 1.2426 1.00736 2.25 2.25 2.25h10c1.2426 0 2.25-1.0074 2.25-2.25V8c0-1.24264-1.0074-2.25-2.25-2.25zm.5-3c-.41421 0-.75.33579-.75.75s.33579.75.75.75H8v-1.5zm2 1.5H11v-1.5H9.5zm3 0H14v-1.5h-1.5zm3 0h1c.4142 0 .75-.33579.75-.75s-.3358-.75-.75-.75h-1z"/>
</svg>
