<svg xmlns="http://www.w3.org/2000/svg" width="24" height="24" viewBox="0 0 24 24">
  <path fill="currentColor" d="M12.5654 10.25c.4139.0004.75.336.75.75s-.3361.7496-.75.75c-.4552 0-.752.2999-.958.9141.4638-.1952 1.1035-.3343 1.8096.0732 1.314.7586 1.6425 2.2424 1.6426 3.5147-.0001.7885-.3899 1.8199-.8555 2.6162-.2401.4106-.5288.8087-.8477 1.1142-.2952.2828-.7351.6006-1.2695.6006-.2998 0-.5556-.0377-.7822-.1201-.2347-.0854-.3915-.2027-.4922-.2832-.0522-.0418-.0756-.062-.0859-.0703-.0119-.0019-.0351-.0039-.0723-.0039-.0359 0-.0583.002-.0703.0039-.01.008-.0342.0273-.0879.0703-.1007.0805-.2567.1979-.4912.2832-.22664.0824-.48252.1201-.78224.1201-.49456-.0001-.92191-.254-1.23536-.5195-.32768-.2777-.62392-.6457-.87109-1.043-.48776-.7841-.86617-1.8154-.86621-2.7685.00003-1.2122.26247-2.8538 1.69238-3.5411.09926-.0477.19837-.0832.2959-.1103-.12961-.3587-.16641-.7427-.10742-1.1143l.02734-.1172c.08667-.2632.31461-.4611.59473-.5058.62998-.1003 1.29697.0747 1.81447.5117.3807-.5954 1.0036-1.125 1.998-1.125m.1016 3.7861c-.1543-.0889-.2758-.0905-.5811.0577-.0798.0387-.1607.0828-.2568.1347-.0908.049-.1987.1074-.3086.1602-.2084.1001-.5052.2206-.8486.2246-.0056.0001-.0111.0019-.0166.0019-.0183 0-.0368-.0016-.0547-.0029-.299-.0099-.5711-.0979-.77833-.1787-.18076-.0705-.48559-.2104-.61133-.2627-.38936-.1619-.5283-.1511-.61914-.1074-.55665.2679-.84176 1.014-.8418 2.1885.00004.5991.25514 1.3584.63965 1.9765.18883.3035.38912.5394.56738.6904.19143.1622.28122.1641.26563.1641.17698 0 .24993-.0222.26953-.0293.01127-.0041.01914-.0063.06738-.0449.03889-.0311.18839-.1634.37891-.2549.21382-.1027.44852-.1484.71582-.1484.2675 0 .5028.0458.7168.1484.1901.0913.3397.2234.3789.2549.0479.0383.0562.0409.0674.0449.019.0069.0885.0261.2549.0274.0172-.0075.0993-.0411.2461-.1817.1871-.1793.3948-.4529.5908-.7881.4067-.6955.6503-1.4544.6504-1.8593-.0001-1.1149-.2969-1.8719-.8926-2.2159M17 1.25c.6904 0 1.25.55964 1.25 1.25v1.79102l1.3223 2.2041c.1165.19427.1777.417.1777.64355V21.5c0 .6904-.5596 1.25-1.25 1.25h-13c-.69036 0-1.25-.5596-1.25-1.25V7.13867c0-.22655.06117-.44928.17773-.64355L5.75 4.29102V2.5c0-.69036.55964-1.25 1.25-1.25zm-11.25 20h9.5V9h-9.5zm11-12.80957V21.25h1.5V7.20801l-.4336-.72266zm-11-1.23242V7.5h9.8047L16.373 6H6.47461zm1.5-2.84668c0 .04653-.00465.09267-.00977.13867h9.51957c-.0051-.046-.0098-.09214-.0098-.13867V2.75h-9.5z"/>
</svg>
