<svg xmlns="http://www.w3.org/2000/svg" width="24" height="24" viewBox="0 0 24 24">
  <path fill="currentColor" d="M7.70898 1.24219c.20482.00364.41885.04647.61231.09766.3943.10441.85638.28724 1.30566.49609.88075.40943 1.88605.99933 2.39455 1.48047.1433.13566.2657.28211.3701.43457.5327-.65744 1.3133-1.23177 2.4453-1.4834.4043-.08983.8055.16517.8955.56934.0899.40424-.1651.80551-.5693.8955-.5951.13224-1.0407.39065-1.376.71192 3.4178.76297 5.9627 3.70175 5.9629 7.67476 0 2.3447-1.089 4.4921-2.5576 6.0411C15.7372 19.6948 13.8036 20.75 12 20.75s-3.73715-1.0552-5.19238-2.5898C5.33904 16.6112 4.25 14.4638 4.25 12.1191c.00018-3.05638 1.50992-5.51707 3.78906-6.83101-.24318-.35868-.48502-.74637-.69336-1.11719-.23612-.42031-.45021-.85417-.58008-1.22754-.06365-.18308-.12131-.38902-.13671-.58984-.01103-.14478-.0121-.44142.17675-.70508l.09278-.11035c.27771-.28108.64418-.29877.81054-.2959m5.25582 4.57715c-.0918.28233-.1452.54625-.1757.75683-.0202.13899-.0304.25224-.0352.32715a2.6 2.6 0 0 0-.0039.08106v.0166L12.749 7c0 .00457-.0009.00912-.001.01367a.76.76 0 0 1-.0019.04004.75.75 0 0 1-.0147.10352c-.0072.03399-.0183.06674-.0302.09961-.0053.01439-.0096.02901-.0157.04297-.0122.02815-.028.05433-.0439.08105-.009.01516-.0173.03048-.0273.04492-.024.03449-.0498.06783-.0801.09864a.6.6 0 0 1-.0098.00976c-.007.00686-.0132.01485-.0205.02149-2.0712 1.87985-2.366 4.07703-2.1406 5.85153.1137.8949.3609 1.6754.581 2.2334.1096.2778.2113.4978.2842.6455.0364.0737.0658.1294.085.1651.0095.0178.0163.0315.0205.039a.3.3 0 0 0 .0039.0069l.0351.0674c.1559.3467.0268.7628-.3095.957-.3585.2069-.8172.0838-1.0244-.2744l.6494-.375c-.6217.3589-.6504.374-.6504.374l-.0147-.0254c-.0079-.0142-.0179-.0347-.03121-.0596a6.6 6.6 0 0 1-.1084-.2099c-.08891-.1801-.20821-.4385-.33496-.7598-.25264-.6403-.54038-1.545-.67383-2.5957-.23728-1.8688.01677-4.22144 1.8184-6.32617-.5602-.06721-1.20651-.28628-1.71488-.78418C7.06617 7.4986 5.75018 9.50469 5.75 12.1191c0 1.88.87995 3.6739 2.14551 5.0088C9.17461 18.477 10.7412 19.25 12 19.25s2.8254-.773 4.1045-2.1221c1.2656-1.3349 2.1455-3.1288 2.1455-5.0088-.0002-3.44695-2.2909-5.87024-5.2852-6.29976M8.39941 2.92969c.07802.16175.1707.33903.27539.52539.43977.78274 1.00774 1.59154 1.3447 1.9502.2283.24272.5747.37342.9346.40136.1737.01345.3257-.00175.4326-.02441.0204-.10777.0296-.26068.0117-.43652-.0371-.36466-.1788-.72365-.4316-.96289-.3283-.31041-1.15342-.81656-1.99121-1.20606-.20447-.09504-.39893-.17884-.57618-.24707"/>
</svg>
