<svg xmlns="http://www.w3.org/2000/svg" width="24" height="24" viewBox="0 0 24 24">
  <path fill="currentColor" d="M11.8955 1.25781c.43.00003.749.26369.9229.43848.1976.19893.3765.45516.5351.7207.3209.53715.6368 1.24561.9131 1.98535.2977.79697.5674 1.68661.7578 2.50098.0596-.07737.1187-.15391.1777-.22754.3357-.41836.6845-.80008 1.0147-1.07031.164-.13419.3519-.26507.5547-.35156.1961-.0836.4928-.16214.8154-.06055.2744.08651.4596.27048.5752.4248.1175.15698.2021.33618.2666.50489.1291.338.2194.75497.2822 1.19043.0917.63591.1356 1.38642.1407 2.14355.1647-.0305.3368-.04809.5048-.04101.1882.00801.4553.0518.6885.22558l.0967.08203c.317.30427.3465.71867.3408.95507-.0068.2741-.0693.576-.1523.8701-.1683.5954-.4664 1.3092-.8155 2.0186-.6894 1.401-1.6616 2.9576-2.4179 3.7158-.8295.831-1.9341 1.182-2.8653 1.2676-.0466.0043-.0934.0048-.1396.0078v2.9404c0 .6903-.5597 1.25-1.25 1.25h-1.6836c-.6904 0-1.25-.5596-1.25-1.25v-3.0322c-.93245-.0897-2.01866-.439-2.82031-1.2676-.71607-.7403-1.75147-2.1961-2.52148-3.5303-.38646-.6696-.72687-1.3438-.92774-1.9091-.09904-.2789-.17766-.5683-.19726-.835-.0169-.2323-.00436-.6424.31835-.95214.25444-.24371.57994-.30666.79688-.32227.23133-.01658.47442.01047.70117.05176.1272.02318.26104.05296.39942.08887-.04709-.76049-.06134-1.52608-.02051-2.18457.02952-.47564.08795-.93259.19629-1.30079.05396-.18321.13027-.37777.24316-.54882.09718-.14709.25353-.32404.49219-.42774l.10742-.04004c.45147-.13878.87531.06256 1.10352.19434.2711.15665.54877.3822.81152.6289.19622.18428.39664.39785.60254.62598.14582-.75498.34418-1.57123.56738-2.31738.22026-.73621.47656-1.44532.75196-1.9834.1362-.26599.2959-.52567.4795-.72852.1427-.15765.3936-.38533.7471-.43945zm.1504 16.90819c-.2039.1056-.4287.1747-.6377.2217v2.8613h1.1836v-2.833c-.1892-.0576-.379-.138-.5459-.25m6.8691-7.1943c-.2694.0764-.6183.2086-1.0234.3945-.8391.3852-1.8248.9452-2.6787 1.4971.0477.3062.0795.5877.085.831.0258 1.1645-.5037 2.1685-1.0987 2.8604-.1531.178-.316.3406-.4814.4853.0239.014.0472.0285.0693.045.0972-.0009.1989-.0031.3037-.0127.6901-.0635 1.4153-.3189 1.9229-.8272.5808-.5822 1.4667-1.9636 2.1357-3.3232.3301-.671.5875-1.2948.7217-1.7696.0184-.0652.0313-.126.0439-.1806m-13.80953.3271c.15963.4491.45107 1.0387.81933 1.6768.74002 1.2821 1.70879 2.6259 2.3086 3.2461.48973.506 1.20392.7514 1.8926.8066.0552.0044.1097.0049.1631.0069.0577-.0329.1196-.0586.1855-.0752-.141-.1264-.2812-.2635-.4131-.4131-.61593-.699-1.16556-1.7181-1.12009-2.8985.00877-.226.03383-.4886.07031-.7754-.87408-.5087-1.90648-1.0138-2.7959-1.3584-.45855-.1776-.85433-.3005-1.15625-.3652.01395.0454.02709.0964.0459.1494m6.74703-3.14743c-.2169.42365-.4448 1.03703-.6543 1.7373-.4208 1.40693-.7241 3.01033-.7568 3.85063-.0259.6737.2901 1.3246.7363 1.831.2198.2493.4538.4428.6543.5684.2269.1421.3234.1435.2881.1435-.0335 0 .0638-.0023.2861-.1445.1979-.1267.4292-.3225.6465-.5752.4413-.5133.7603-1.1789.7452-1.8682-.0181-.7981-.4072-2.3713-.9356-3.7861-.2605-.69738-.5382-1.31146-.792-1.73632-.0429-.07176-.0849-.13385-.1221-.18848-.0288.04954-.0631.10443-.0957.16797M7.25586 6.90332c-.04637.21092-.08406.49324-.10547.83789-.04645.74919-.01462 1.68809.06445 2.59379.67631.2825 1.39434.6319 2.06348.9961.10979-.5179.2416-1.0526.38574-1.5645-.19973-.2985-.41164-.60215-.63086-.89453-.50978-.67986-1.03595-1.2913-1.47656-1.70508-.11329-.10637-.21313-.19488-.30078-.26367m9.83394-.06543c-.1996.17733-.4456.4418-.7187.78223-.6061.75555-1.2713 1.77402-1.792 2.69728.1065.3299.206.6648.2949.9941.7771-.4782 1.6209-.9434 2.376-1.29.0327-.015.066-.02927.0986-.04396.0161-.8801-.0216-1.76394-.1211-2.4541-.0402-.27892-.0875-.50883-.1377-.68555m-5.2373-3.69434c-.2169.42365-.4448 1.03619-.6543 1.73633-.231.77227-.4255 1.6042-.5605 2.33594.106-.1827.2244-.35526.3545-.49902.1428-.15765.3938-.38536.7471-.43946l.1562-.01172c.4299.00003.749.26369.9229.43848.1976.19891.3765.4552.5351.7207.1351.22616.2669.48432.3975.76075-.1181-.85838-.4553-2.12574-.8887-3.28614-.2604-.69719-.5382-1.3105-.792-1.73535-.0428-.07163-.085-.13391-.1221-.18847-.0288.0495-.0631.10448-.0957.16796"/>
</svg>
