<svg xmlns="http://www.w3.org/2000/svg" width="24" height="24" viewBox="0 0 24 24">
  <path fill="currentColor" d="M16.9971 1.70313c1.4429-.31828 3.0784.39484 4.1748 1.49121 1.0961 1.09649 1.8087 2.73112 1.4902 4.17383-.1661.75222-.6117 1.41932-1.3652 1.86328-.7349.43271-1.7091.62351-2.9053.56152-.0904-.00469-.1739-.00693-.25-.00879.0693.07039.1435.14738.2246.22852.4532.4532 1.093 1.0847 1.4551 1.7637.1873.3515.334.775.3076 1.2383-.0276.484-.2386.9268-.6143 1.3027-.6359.6359-1.322.9303-2.0468.8476-.6628-.0757-1.2092-.4574-1.6143-.7841-.2078-.1677-.4165-.3532-.5947-.5079-.1873-.1625-.3509-.3003-.5068-.4101-.3257-.2292-.4867-.2444-.5821-.2236-.0653.0143-.1095.0293-.1377.041.0076.0855.0423.2245.128.4316.0851.2057.2009.4356.3378.6953.2562.4857.6097 1.1125.795 1.6895.1824.5682.2971 1.3911-.333 2.0215-.4087.4086-.9512.5902-1.4932.6718-.5435.0818-1.1727.0749-1.8428.0323-.6739-.0429-1.4404-.1261-2.25877-.21-.72844-.0747-1.51099-.1507-2.34472-.208l-2.53809 2.5391c-.29284.2924-.76775.2925-1.06055 0-.29271-.2928-.29251-.7677 0-1.0606l2.53809-2.539c-.05742-.8338-.13331-1.6164-.20801-2.3448-.08389-.8181-.16611-1.5831-.20898-2.2568-.04262-.6703-.0505-1.3001.03125-1.8438.08159-.5421.26417-1.08438.67285-1.49312.63029-.6301 1.45327-.51538 2.02148-.33301.57688.18533 1.20389.5398 1.68946.7959.25939.13683.48979.25193.69529.33693.2062.0852.3451.1211.4307.1289.0118-.0282.0284-.0722.043-.1387.0208-.0953.0047-.25608-.2247-.58202-.1097-.15587-.2477-.31964-.4101-.50683-.1546-.17817-.3401-.38692-.50782-.59473-.32678-.40503-.70834-.95143-.78418-1.61426-.0827-.72492.21262-1.40985.8486-2.04589.3758-.37562.8179-.58759 1.3018-.61524.4628-.02619.886.11951 1.2373.30664.679.36202 1.3105 1.00285 1.7637 1.45606.0815.08155.1597.15603.2304.22558a9 9 0 0 0-.0097-.25097c-.0621-1.19638.1287-2.17038.5615-2.90528.4439-.75353 1.1111-1.19906 1.8633-1.36523m3.1142 2.55176c-.8677-.86776-2.0081-1.25957-2.791-1.08692-.3603.07964-.6686.27955-.8935.66113-.2361.4007-.409 1.05361-.3565 2.06641.0293.56424.0164 1.03581-.0752 1.3877-.0462.17717-.1311.397-.3047.5791-.2003.20986-.4668.3131-.7422.30469-.2376-.00748-.4359-.09614-.5683-.16993-.1397-.07795-.2703-.17633-.3848-.27148-.2264-.18824-.4742-.43618-.7041-.66602-.499-.49898-.9662-.95666-1.4082-1.19238-.2087-.11123-.3532-.13807-.4473-.13281-.0731.00424-.1788.03051-.3261.17773-.4113.41133-.4359.66718-.419.81543.0242.21024.1612.47018.461.8418.1453.18017.3006.3533.4746.55371.166.19127.346.40503.5029.62793.3043.43242.6211 1.04216.4629 1.76462-.0841.3839-.2522.7558-.5732 1.0147-.3323.2676-.7168.3252-1.045.2998-.3147-.0245-.6244-.127-.8935-.2383-.27484-.1137-.55753-.2583-.82131-.3975-.56176-.2962-1.03275-.5595-1.44922-.6933-.42167-.1353-.49315-.0443-.50195-.0352-.08987.09-.19223.2722-.25.6563-.05749.3826-.05832.8837-.01758 1.5244.04054.6372.11849 1.3653.2041 2.2002.03613.3523.07196.7214.10742 1.1055l2.93654-2.9356c.2929-.2925.7678-.2927 1.0605 0 .2926.2928.2925.7677 0 1.0606l-2.93649 2.9355c.3843.0355.75392.0722 1.10644.1084.83465.0856 1.56305.1636 2.20025.2041.6405.0407 1.1418.0399 1.5244-.0176.3838-.0578.5663-.1611.6562-.251.0113-.0104.0982-.0854-.0351-.5009-.1338-.4165-.3971-.8866-.6934-1.4483-.1391-.2637-.2827-.5464-.3965-.8213-.1114-.2693-.2148-.5803-.2392-.8955-.0254-.328.0323-.7118.2998-1.0439.2588-.3211.6307-.4891 1.0146-.5733.7223-.158 1.3323.1578 1.7647.462.2229.1569.4366.3378.6279.5039.2004.1739.3735.3292.5537.4746.3717.2998.6325.4379.8428.4619.1484.0167.4051-.0096.8154-.4199.1469-.1472.1725-.2531.1768-.3262.0053-.0939-.0218-.2377-.1329-.4463-.2356-.4422-.6932-.911-1.1923-1.4102-.2298-.2297-.4778-.4768-.6661-.7031-.0952-.1145-.1944-.245-.2724-.38475-.0739-.13245-.1626-.33139-.1699-.56933-.0084-.27532.0949-.54195.3047-.74219.182-.17356.4029-.25754.58-.30371.3519-.09148.8235-.10446 1.3877-.0752 1.0125.05245 1.6657-.11954 2.0664-.35546.3816-.22493.5815-.53417.6612-.89454.1727-.78271-.2186-1.92225-1.086-2.79003"/>
</svg>
