<svg xmlns="http://www.w3.org/2000/svg" width="24" height="24" viewBox="0 0 24 24">
  <path fill="currentColor" d="M20.5234 2.09278c.3898-.11027.9903-.18357 1.4395.26562l.0723.0791c.3386.40372.3194.91714.2373 1.27637-.0892.38915-.2887.79902-.5225 1.19141-.2628.44104-.6114.92688-1.0098 1.43554.1007.00434.1972.01031.2871.01954.1566.0161.3344.04434.4942.09961.0797.02765.1887.07326.2939.15136.1056.07847.2549.22549.3184.46192.0625.2344.009.43823-.0391.55859-.0486.12177-.1151.21951-.1679.28711-.1061.13563-.2412.25938-.3663.3623-.2576.21194-.6004.44019-.9541.65235-.4707.28239-1.0244.57152-1.5078.78125.0728.02823.163.06917.25.13379.1049.07805.2532.22436.3164.45996.0625.2337.0097.437-.038.5566-.0484.1211-.1159.2176-.168.2842-.1046.1338-.2372.2559-.3594.3565-.2518.2071-.5862.4301-.9307.6367-.6776.4065-1.5306.8322-2.083.9931-.5491.1599-1.1194.2022-1.6113.0899-.0396-.0091-.0798-.0214-.1201-.0332l-.2705.2773-.084.083-8.68164 8.6582c-.21594.2153-.52757.3669-.87793.3438-1.72814-.1145-2.50742-1.5672-2.75-2.4395-.13575-.4885.04665-.9534.33105-1.2373l8.76272-8.7402c-.0111-.0234-.0231-.0469-.0332-.0703-.2208-.51245-.2881-1.13992-.21-1.76954.0737-.59241.318-1.57983.5879-2.4043.1354-.4136.2872-.82008.4424-1.13086.0753-.1508.1685-.3157.2812-.45117.0563-.06761.1404-.15517.253-.22754.1128-.07243.305-.16019.5507-.13574.2434.02443.4171.14712.5147.23632.0986.09026.1684.19026.2148.26661.0931.15317.1651.33221.2207.49609.0307.09026.0596.18813.0879.29004.0071-.01188.0143-.02431.0215-.03613.2718-.44511.8157-1.13665 1.3203-1.68848.2533-.27692.52-.54448.7569-.73731.1145-.09323.2527-.19535.3994-.2666.0731-.0355.1799-.07874.3076-.09765.128-.01889.335-.02017.5459.10156.2085.12057.3139.29996.3643.41699.0507.11845.0719.23255.082.31445.0201.16423.0127.33828-.002.48926-.0074.07627-.0177.15717-.0302.24024.5912-.4688 1.1615-.88577 1.6787-1.20996.4793-.30044.9552-.5493 1.3847-.6709m-4.7529 5.75683c-.0829.06892-.1676.13306-.2559.18848-.363.22793-.8803.39065-1.3925.18066.0032.17239.0019.33162-.0088.46973-.0487.62281-.2252 1.21709-.5254 1.66992-.2931.4417-.8013.8713-1.4932.8027-.0632-.0063-.1246-.0177-.1836-.0312l-8.75973 8.7344c.1886.5083.58353 1.0354 1.26074 1.1357l8.59079-8.5664.0567-.0576.209-.2139c-.1671-.6385.1531-1.1957.5156-1.5459.3731-.3603.8937-.62109 1.459-.7578.2267-.05481.5248-.10394.8525-.14746-.2227-.17199-.407-.41115-.4941-.73535-.1129-.42107-.0144-.80814.1689-1.12598m1.1572 3.28219c-.5464.0471-1.0662.1209-1.3623.1924-.3634.0879-.6242.2413-.7617.374-.0129.0126-.0216.0267-.0312.0372.0161.005.0348.0126.0566.0175.1927.0439.5007.0406.8682-.0664.2722-.0793.7426-.2918 1.2304-.5547m-4.458-4.47262c-.2156.70417-.3925 1.44679-.4433 1.85547-.0526.42358.0044.76969.0957.98145.0357.0826.0692.12712.0908.15137.0267-.02021.0701-.05996.123-.13965.1307-.19719.2512-.53349.2852-.96778.03-.38544-.0324-1.1393-.1514-1.88086m6.9629 1.22754c-.5961.0478-1.1748.12718-1.4971.20508-.3761.09097-.6464.24911-.791.38867-.0244.02361-.0406.0463-.0547.06348.0227.00838.0516.01978.0889.02832.2021.04605.5224.04217.9024-.06836.297-.08649.8204-.32611 1.3515-.61719m1.3262-4.25781c-.2255.08418-.5209.23433-.8809.45996-.8668.54345-1.9497 1.41308-3.0654 2.39063l-.0469-.05957c-.0715.17304-.1421.33007-.2129.45898-.0627.11425-.1322.2243-.205.33008.3531-.26978.7937-.47062 1.2666-.58496.2858-.06907.6819-.13266 1.1103-.18262.7717-.89395 1.4088-1.70992 1.793-2.35449.1071-.1798.1857-.33301.2412-.45801m-5.1104 1.48145c-.2867.34972-.5367.6839-.6689.90039-.1794.29408-.2494.56157-.2549.73632.1535-.09646.3557-.30206.5293-.61816.1131-.20603.2578-.58651.3945-1.01855"/>
</svg>
