<svg xmlns="http://www.w3.org/2000/svg" width="24" height="24" viewBox="0 0 24 24">
  <path fill="currentColor" d="M12.001 10.2119c2.1329.0005 3.8621 1.7303 3.8623 3.8633-.0002 2.133-1.7294 3.8618-3.8623 3.8623-2.13339 0-3.86315-1.729-3.8633-3.8623.00023-2.1333 1.72995-3.8633 3.8633-3.8633m0 1.5c-1.3049 0-2.36307 1.0585-2.3633 2.3633.00015 1.3049 1.0583 2.3623 2.3633 2.3623 1.3045-.0005 2.3621-1.0577 2.3623-2.3623-.0002-1.3045-1.0579-2.3628-2.3623-2.3633M12 1.91113c1.4452.00011 2.7247.51669 3.624 1.62989.8807 1.09051 1.3232 2.66134 1.3233 4.63574 0 .84969.1383 1.45226.331 1.93554.1973.4947.4607.8922.7725 1.3604.305.4579.6564.984.9199 1.6562.2673.682.4355 1.4876.4355 2.5303.0001 2.1182-.7914 3.765-2.1738 4.8633-1.3581 1.0787-3.2072 1.5663-5.2324 1.5664-2.02504-.0001-3.87339-.4879-5.23145-1.5664-1.38257-1.0983-2.17382-2.7449-2.17382-4.8633.00006-1.0427.1682-1.8482.43554-2.5303.26356-.6721.61496-1.1983.91993-1.6562.3117-.4681.57519-.8658.77246-1.3604.19267-.48324.33105-1.08599.33105-1.93554.00006-1.97447.44154-3.54522 1.32227-4.63574C9.27526 2.42774 10.5547 1.91124 12 1.91113m0 1.5c-1.0665.00011-1.8863.36575-2.45703 1.07227-.58939.72976-.9892 1.91769-.98926 3.69336 0 1.02548-.16921 1.81833-.4375 2.49124-.26364.661-.61519 1.182-.91797 1.6367-.30961.4649-.57403.8676-.77148 1.3711-.19353.4936-.33197 1.112-.33203 1.9834 0 1.7111.62049 2.9045 1.60742 3.6885C8.7135 20.1508 10.1927 20.5888 12 20.5889c1.8074-.0001 3.2875-.4379 4.2988-1.2412.9868-.784 1.6075-1.9775 1.6074-3.6885 0-.8713-.1385-1.4898-.332-1.9834-.1974-.5036-.4619-.9062-.7715-1.3711-.3028-.4547-.6542-.9756-.9179-1.6367-.2684-.67296-.4375-1.46564-.4375-2.49124-.0001-1.77553-.4-2.96359-.9893-3.69336-.5708-.70672-1.3913-1.07216-2.458-1.07227"/>
</svg>
