<svg xmlns="http://www.w3.org/2000/svg" width="24" height="24" viewBox="0 0 24 24">
  <path fill="currentColor" d="M17.2412 1.93946c.2567-.24343.6416-.27026.9268-.08301l.1152.09277c.0112.01103.0212.02444.0322.03614l.002-.00098 3.0566 3.43457c.2358.25009.4336.64789.4297 1.13379-.0045.52972-.2452 1.07225-.748 1.5752-.503.50284-1.0455.7435-1.5752.74804-.509.00411-.9218-.21248-1.169-.46289l-.0029-.00293c-.0373-.03788-.1376-.10258-.2539-.11328-.0785-.00708-.2543-.00057-.5117.25684-.2574.25751-.264.43331-.2569.51172.0108.11583.0754.21542.1133.25293l.0029.00293c.2505.24702.4679.65986.4639 1.1689-.0045.5297-.2453 1.0723-.748 1.5752-.503.503-1.0455.7436-1.5752.7481-.5094.0042-.9228-.2123-1.1699-.4629l-.003-.0029-.0381-.0313c-.0491-.0349-.1274-.074-.2148-.082-.0785-.0071-.2543-.0004-.5117.2568-.2573.2575-.264.4333-.2569.5117.0107.1159.0754.2155.1133.253l.0029.0029c.2506.2471.4672.6605.4629 1.1699-.0044.5298-.245 1.0722-.748 1.5752-.5029.5027-1.0456.7436-1.5752.7481-.509.004-.9219-.2134-1.1689-.4639l-.003-.0029c-.0375-.0379-.1371-.1026-.2529-.1133-.0785-.0071-.25434-.0004-.51173.2568-.25748.2576-.26394.4333-.25683.5117.01068.1164.07539.2167.11328.2539l.00293.002c.25054.2471.46705.6606.46289 1.1699-.0045.5298-.24508 1.0722-.74805 1.5752-.50294.5028-1.04547.7436-1.57519.7481-.50892.004-.92189-.2126-1.16895-.4629l-.00293-.003-.03808-.0322c-.04923-.0349-.12819-.074-.21582-.082-.07856-.0071-.25363-.0001-.51075.2568-.25722.2573-.26487.4331-.25781.5117.008.0869.04731.1647.08203.2139l.06836.0781c.26851.3018.24925.7621-.04297 1.041-.29228.2785-.75316.2764-1.04199-.0058-.01201-.0118-.02308-.0255-.03516-.0381l-.01171-.0137c-.02261-.024-.04593-.0493-.06836-.0761l-2.97657-3.3448c-.23653-.2465-.47838-.6483-.52441-1.1523-.05166-.5687.15326-1.1707.69043-1.708.53751-.5375 1.14014-.7422 1.70898-.6905.5279.0483.94494.3098 1.1875.5567-.01634-.0166.01484.017.08887.0166.05474-.0005.23903-.0204.52734-.3086.28766-.2877.30806-.4712.3086-.5264.00059-.0746-.03237-.1054-.01563-.0888v-.002c-.2469-.2426-.50938-.6585-.55761-1.1865-.05175-.5687.15232-1.1706.68945-1.708.53751-.5375 1.14014-.7422 1.70898-.6905.52797.0483.94492.3098 1.1875.5567-.01637-.0166.01543.0171.08985.0166.05506-.0005.23867-.0211.52636-.3086.28818-.2883.30813-.4726.3086-.5273.00044-.0736-.03119-.1053-.01563-.0899-.24688-.2425-.50935-.6586-.55761-1.18652-.05175-.56885.15293-1.17145.69043-1.70898.53741-.53731 1.13921-.74116 1.70801-.68945.528.04817.9449.30969 1.1875.55664l.001.00097c-.0165-.01672.0144.01615.0888.01563.055-.0005.2385-.02081.5264-.30859.2884-.28844.3081-.47259.3086-.52735.0005-.07431-.0322-.10524-.0156-.08887-.247-.24265-.5086-.66027-.5567-1.18847-.0517-.56881.1521-1.17052.6895-1.70801.5373-.53725 1.1393-.74203 1.708-.69043.528.04818.9459.3097 1.1885.55664-.0164-.01655.0147.01801.0888.01758.0551-.00052.2387-.02113.5264-.30859.2882-.28817.3081-.4724.3086-.52735.0003-.04222-.0083-.07141-.0147-.08496l-.0351-.03906c-.2687-.30228-.2483-.7643.0449-1.04297m1.1084 2.33594c-.0984.14116-.2151.28246-.3515.41894-.5029.50264-1.0456.74358-1.5752.74805-.509.00391-.922-.21345-1.169-.46387l-.0019-.00293c-.0373-.03788-.1377-.10258-.2539-.11328-.0785-.00709-.2543-.00051-.5118.25684-.2574.25753-.2639.43328-.2568.51172.0107.1163.0764.21564.1143.25293l.0019.00292c.2506.24711.4671.6606.4629 1.16993-.0045.52979-.245 1.07219-.748 1.57519-.5028.50263-1.0447.74345-1.5743.74805-.5091.00412-.9228-.21244-1.1699-.46289l-.0029-.00293-.0381-.03223c-.0492-.03494-.1282-.07405-.2158-.08203-.0787-.00703-.2538.00003-.5108.25684-.2572.25722-.2648.4331-.2578.51172.0107.11626.0764.21661.1143.2539l.0029.00293c.2505.2471.467.6599.4629 1.1689-.0045.5297-.2444 1.0724-.7471 1.5752-.50287.5029-1.04548.7435-1.57517.7481-.44585.0037-.81874-.1617-1.07031-.3711l-.09961-.0918-.00293-.0029-.03906-.0323c-.04922-.0348-.12762-.074-.21485-.082-.07871-.007-.25466.0008-.51171.2578-.25679.2571-.2639.4322-.25684.5108.01063.1163.07633.2166.11426.2539l.00293.0029c.25042.2471.46697.6599.46289 1.1689-.00447.5298-.24518 1.0723-.74805 1.5752-.50296.5029-1.04545.7436-1.57519.7481-.50905.0041-.92187-.2125-1.16895-.4629l-.00293-.0029c-.03722-.0379-.13688-.1034-.25293-.1143-.07847-.0071-.25427.0005-.51172.2578-.25727.2573-.26391.4322-.25683.5108.01056.1159.07432.2162.1123.2539.01236.012.0256.0252.03711.0381l1.76367 1.9804c.09347-.1395.2067-.277.33985-.4101.53726-.5371 1.13845-.741 1.70703-.6895.52697.048.94363.3082 1.18652.5547-.01036-.0105.02166.0191.0918.0186.05516-.0006.23871-.0211.52636-.3086.2884-.2885.30814-.4726.3086-.5274.0005-.0744-.03234-.1053-.01563-.0888-.24701-.2427-.50952-.6603-.55761-1.1885-.05173-.5688.15301-1.1705.69043-1.708.53739-.5373 1.1393-.7421 1.70797-.6905.5285.0483.946.3105 1.1885.5577l-.0039-.0039c-.0048-.0053.0272.0209.0928.0205.0553-.0006.2389-.0214.5263-.3086.2882-.2882.3081-.4724.3086-.5274.0006-.0744-.0323-.1053-.0156-.0888-.247-.2427-.5094-.6604-.5576-1.1885-.0517-.5687.1532-1.1706.6904-1.708.5374-.5373 1.1393-.7421 1.708-.6905.528.0482.9449.3098 1.1875.5567-.0143-.0145.017.0171.0899.0166.0548-.0005.2391-.0204.5273-.3086.2874-.2876.3081-.4712.3086-.5264.0005-.0737-.0322-.1053-.0166-.0898-.2469-.2426-.5094-.65952-.5576-1.18752-.0517-.56872.1532-1.1706.6904-1.70801.5375-.53747 1.1402-.74214 1.709-.69043.5276.0483.944.30985 1.1865.55664h.002c-.0165-.01674.0135.01707.0879.0166.0548-.00046.239-.02034.5273-.30859.2876-.28769.3081-.47122.3086-.52637.0006-.0739-.0323-.10533-.0166-.08984a.8.8 0 0 1-.0332-.03516z"/>
</svg>
