<svg xmlns="http://www.w3.org/2000/svg" width="24" height="24" viewBox="0 0 24 24">
  <path fill="currentColor" d="M12.5 1.25c.6047.00001 1.1087.42948 1.2246 1h4.6621c.661.00022 1.2073.51501 1.2471 1.1748l1.083 18c.0432.7186-.5282 1.3252-1.2481 1.3252H4.53123c-.71987 0-1.29127-.6066-1.24805-1.3252l1.08301-18 .0127-.12207c.09527-.60017.61474-1.05253 1.23437-1.05273h4.66214c.1158-.57052.6199-1 1.2246-1zm-7.70412 20H19.2041l-1.0528-17.5H13.75v.75c0 .69035-.5597 1.24999-1.25 1.25h-1c-.6904 0-1.25-.55964-1.25-1.25v-.75H5.84861zm6.95412-17h.5v-.5h-.5z"/>
</svg>
