<svg xmlns="http://www.w3.org/2000/svg" width="24" height="24" viewBox="0 0 24 24">
  <path fill="currentColor" d="M16.5 1.25c.2696 0 .5185.08633.7227.23145l1.7431.69726.9756-.4873.1572-.06641c.7921-.27233 1.6511.31278 1.6514 1.18359V21.5c0 .6904-.5596 1.25-1.25 1.25h-16c-.69036 0-1.25-.5596-1.25-1.25V2.80859c.0003-.92892.97763-1.53252 1.80859-1.11718l.94043.46972 1.66602-.83203.08008-.03418a.7497.7497 0 0 1 .58984.03418L10 2.16113l1.665-.83203.0801-.03418a.7498.7498 0 0 1 .5899.03418L14 2.16113l1.665-.83203.0791-.03418A.75.75 0 0 1 16 1.25zm-2.165 2.4209a.75.75 0 0 1-.67 0L12 2.83789l-1.665.83301a.7499.7499 0 0 1-.66996 0L8 2.83789l-1.66504.83301a.7498.7498 0 0 1-.66992 0L4.75 3.21289V21.25h11.5V2.75h-.0732zm5 0a.7498.7498 0 0 1-.6133.02539l-.9717-.38867V21.25h2.5V3.21289z"/>
</svg>
