<svg xmlns="http://www.w3.org/2000/svg" width="24" height="24" viewBox="0 0 24 24">
  <path fill="currentColor" d="M19.3838 1.56151c1.031-.00245 1.9918.27914 2.6924.97949.7301.73043.9002 1.64195.6904 2.58301-.1989.89113-.738 1.8338-1.4404 2.78906-1.4094 1.9165-3.7025 4.18193-6.1436 6.62303s-4.7065 4.7342-6.62303 6.1436c-.95516.7023-1.89703 1.2415-2.78809 1.4404-.9413.21-1.85336.0399-2.58398-.6904-.70047-.7007-.98203-1.6622-.97949-2.6934.00268-1.0273.28402-2.1831.77344-3.3838.98032-2.4049 2.85459-5.1348 5.36914-7.64939C10.8649 5.18888 13.5943 3.31524 15.999 2.33495c1.2008-.48944 2.3574-.77085 3.3848-.77344m.0029 1.5c-.7615.00199-1.7042.21224-2.7763.64453-.0039 1.15645-.0315 2.23027-.1319 3.14844-.0796.72755-.2124 1.45282-.4639 2.09082-.2721.69004-.7133 1.3397-1.3369 1.6924-.5817.3286-1.07.2551-1.4433.0068-.3721-.2481-.6796-.69693-.9248-1.26366-.2956-.68337-.5186-1.5834-.6543-2.63867-.1816.14672-.3625.29857-.544.45313.0002.02914.0008.05871.001.08789.0135 1.96225.0363 3.82441-.124 5.29001-.0796.7275-.2135 1.4519-.4649 2.0899-.2722.6902-.71311 1.3406-1.33688 1.6933-.58169.3287-1.06908.2551-1.44238.0069-.37231-.248-.68046-.6968-.92578-1.2637-.28011-.6477-.49563-1.49-.63281-2.4746-.78254 1.1463-1.39441 2.2635-1.81446 3.2939-.44462 1.0909-.6611 2.0492-.66308 2.8213-.0019.7677.20529 1.2928.54004 1.6279.30507.305.66395.4071 1.19726.2881.58367-.1304 1.32331-.5213 2.22657-1.1855 1.80146-1.3248 3.96872-3.5146 6.45022-5.9961s4.6714-4.64875 5.9961-6.4502c.664-.90305 1.0541-1.64202 1.1845-2.22559.1191-.53336.0169-.89217-.2881-1.19726-.335-.33472-.8603-.54191-1.6279-.54004M9.41113 8.76463c-.73414.73417-1.40651 1.48327-2.01172 2.23147.11055 1.1992.33447 2.1816.63086 2.8672.20927.4836.44124.7904.66309.9384.22095.1468.386.1103.48437.0547.05624-.0318.11946-.074.21778-.3232.11949-.3036.22592-.7745.29883-1.4404.13631-1.2464.12734-2.8536.11425-4.71879-.13284.12795-.26548.25865-.39746.39062m5.89357-4.4541c-.7629.39774-1.5566.88662-2.3623 1.45703.1226.97803.3251 1.78728.5801 2.37696.2093.48373.4402.79049.6621.93847.2209.14682.3849.1112.4834.05567.0565-.03195.1198-.07342.2187-.32422.1196-.30363.2269-.77419.2998-1.44043.0941-.86057.1165-1.89297.1182-3.06348"/>
</svg>
