<svg xmlns="http://www.w3.org/2000/svg" width="24" height="24" viewBox="0 0 24 24">
  <path fill="currentColor" d="M8.66699 12.25c.41407.0002.75.3359.75.75s-.33593.7498-.75.75c-2.21635 0-3.91685 1.6555-3.91699 3.583 0 .4142-.33579.75-.75.75s-.75-.3358-.75-.75c.00014-2.8587 2.47886-5.083 5.41699-5.083M20.5 2.25c.6902.00015 1.25.55974 1.25 1.25v15c0 .6903-.5598 1.2498-1.25 1.25h-4.9277c-.0448.0795-.0916.1574-.1426.2324-.4492.661-1.0867 1.0687-1.7988 1.3203-.7006.2476-1.5003.3541-2.3243.4034-.8254.0493-1.72995.0439-2.63961.0439-.90963 0-1.8142.0054-2.63965-.0439-.82401-.0493-1.62365-.1559-2.32422-.4034-.71227-.2516-1.35054-.6592-1.7998-1.3203-.44557-.6558-.6533-1.4839-.65332-2.4824 0-3.8838 3.11376-7.0271 7-7.2383V3.5c0-.69036.55964-1.25 1.25-1.25zm-11.83301 9.5C5.38128 11.75 2.75 14.3422 2.75 17.5c.00002.796.16559 1.3028.39453 1.6396.22539.3316.56375.5745 1.05762.7491.50576.1787 1.14307.2742 1.91406.3203.76963.046 1.6196.041 2.55078.041.93102 0 1.78031.005 2.54981-.041.7711-.0461 1.4082-.1416 1.9141-.3203.4941-.1746.8331-.4173 1.0586-.7491.2288-.3368.3935-.8437.3935-1.6396 0-3.1577-2.6304-5.7498-5.91601-5.75M9.75 10.3271c3.5697.5118 6.333 3.5138 6.333 7.1729 0 .2618-.0149.5117-.0439.75h1.3877V3.75H9.75zm9.1768 7.9229H20.25V3.75h-1.3232z"/>
</svg>
