<svg xmlns="http://www.w3.org/2000/svg" width="24" height="24" viewBox="0 0 24 24">
  <path fill="currentColor" d="M10 1.25c.4142 0 .75.33579.75.75v2c0 .0744-.015.14504-.0352.21289.0218.09233.0352.18815.0352.28711v.75H20c.2598 0 .501.13453.6377.35547.1366.22099.1492.49708.0332.72949L19.8379 8l.833 1.66504a.7499.7499 0 0 1 0 .66996L19.8379 12l.833 1.665a.75.75 0 0 1 0 .67L19.8379 16l.833 1.665a.75.75 0 0 1 0 .67l-1 2c-.127.254-.3868.415-.6709.415h-8.25v.75c0 .6904-.5596 1.25-1.25 1.25h-5c-.69036 0-1.25-.5596-1.25-1.25v-17c0-.09888.01248-.19485.03418-.28711C3.26405 4.14512 3.25 4.0743 3.25 4V2c0-.41421.33579-.75.75-.75zm-5.25 20h4.5V4.75h-4.5zm6-2h7.7861l.625-1.25-.832-1.665a.75.75 0 0 1 0-.67l.832-1.665-.832-1.665a.75.75 0 0 1 0-.67l.832-1.665-.832-1.66504a.7498.7498 0 0 1 0-.66992l.457-.91504H10.75zm-6-16h4.5v-.5h-4.5z"/>
</svg>
