<svg xmlns="http://www.w3.org/2000/svg" width="24" height="24" viewBox="0 0 24 24">
  <path fill="currentColor" d="M11.8828 12.9131c.3968 0 .668.2503.7852.373.1437.1507.2671.3358.3691.5137.2076.3621.4056.8309.5772 1.3096.3363.9382.6309 2.0951.6464 2.8105.0155.7177-.1612 1.4081-.5224 1.9395-.3659.5379-.9477.9393-1.6856.9394-.7369 0-1.3397-.4012-1.7236-.9492-.37906-.5413-.56618-1.2438-.53906-1.9736.02518-.6751.23936-1.8028.51076-2.7481.1365-.4755.2982-.9446.4765-1.3076.0876-.1781.197-.367.3311-.5215.097-.1116.3074-.3227.6289-.374zm.0635 2.0283c-.0676.1857-.136.3977-.2022.6279-.2546.887-.4361 1.887-.455 2.3946-.0169.4526.1035.8156.2627 1.0429.1542.2203.3216.292.4687.292.146 0 .3143-.0709.4707-.3008.1613-.2372.2795-.6132.2695-1.0781-.0102-.4672-.2361-1.438-.5566-2.332-.0851-.2374-.173-.4559-.2578-.6465M14 1.25c.9665 0 1.75.7835 1.75 1.75 0 .69772-.4093 1.29804-1 1.5791V6.75l1.8213.8418c1.328.6129 2.1786 1.94173 2.1787 3.4043V19c0 2.0711-1.6789 3.75-3.75 3.75H9c-2.07107 0-3.75-1.6789-3.75-3.75v-8.0039c.00013-1.46257.85075-2.7914 2.17871-3.4043L9.25 6.75V4.5791c-.59072-.28106-1-.88138-1-1.5791 0-.9665.7835-1.75 1.75-1.75zm1.8398 10.2988c-.9623-.4382-2.0737-.6477-3.0859-.1142-1.3856.7306-2.78759 1.1521-4.04785 1.2187-.68658.0363-1.35379-.0338-1.95605-.2314V19c0 1.2426 1.00736 2.25 2.25 2.25h6c1.2426 0 2.25-1.0074 2.25-2.25v-6.5869c-.067-.0525-.1506-.1186-.25-.1895-.2859-.2037-.689-.4601-1.1602-.6748M10.75 7.23047c0 .29254-.1699.55905-.4355.68164L8.05664 8.95312c-.73343.33862-1.22361 1.04178-1.29687 1.83598.44895.2646 1.07318.4081 1.86718.3662.99839-.0528 2.18885-.3942 3.42675-1.0469 1.611-.84951 3.2635-.44518 4.4082.0762.2711.1235.5215.2579.7461.3896-.1345-.70439-.5982-1.3134-1.2646-1.62108l-2.2579-1.04101c-.2656-.12259-.4355-.3891-.4355-.68164V4.75h-2.5zM10 2.75c-.13807 0-.25.11193-.25.25s.11193.25.25.25h4c.1381 0 .25-.11193.25-.25s-.1119-.25-.25-.25z"/>
</svg>
