<svg xmlns="http://www.w3.org/2000/svg" width="24" height="24" viewBox="0 0 24 24">
  <path fill="currentColor" d="M20 9.40234c.4142.00006.75.33582.75.74996-.0002 5.8169-5.1262 10.0156-10.77539 10.0157-.41403 0-.7497-.3361-.75-.75 0-.4142.33579-.75.75-.75 4.97989-.0001 9.27519-3.6779 9.27539-8.5157 0-.41414.3358-.7499.75-.74996m-.9131-7.33007c.3027.00578.4822.03111.7041.11035.5584.2018.9511.61197 1.1113 1.17578.0409.14495.0397.20689.0411.83496.0013.54581.0071.67993.0224.7959.0571.40163.125.69085.2227.96191l.1152.27637c.1311.27812.3066.55757.4727.74902l.0009-.00097c.6358.7313 1.0036 1.48072 1.2041 2.44238.2016.96573.1335 2.10213-.1855 3.25783-.1724.625-.503 1.4791-.8125 2.0996-.712 1.4198-1.7463 2.7919-2.8848 3.8232-1.6968 1.5376-3.7846 2.6085-5.9775 3.0703l-.4395.084-.5937.0909c-.5637.0732-1.066.0961-1.749.0878-.94163-.0111-1.71401-.0891-2.67972-.2675-.40724-.0753-.69137-.1981-.95801-.4297l-.00195-.001-.1084-.1006-.00195-.0019c-.25597-.2547-.42399-.5554-.51563-.9131l-.03515-.1563c-.02117-.1096-.0276-.2531-.02637-.3847.00127-.1321.01121-.2742.0332-.3809l.00391-.0234.00293-.003c.05937-.2646.15216-.4746.29297-.6787-.68041-.1863-1.39752-.4453-2.13575-.7715-.24289-.1075-.62026-.2888-.95703-.458-.32984-.1657-.64381-.3303-.74804-.3994-.292-.1943-.54729-.4803-.68457-.7832-.25555-.5588-.25589-1.2138 0-1.7705.21238-.4623.65266-.8438 1.14746-1.0049.22094-.0712.34448-.0854.70605-.0869-.19702-.1244-.39475-.2523-.57422-.3769l-.00097-.001-.30371-.2188-.00098-.0009c-.38205-.2856-.80004-.6185-1.08203-.8594l-.23047-.2051c-.31723-.305-.49743-.6651-.55469-1.1006l-.00098-.0029-.0166-.1836v-.0029c-.01684-.3446.0434-.65003.19141-.95707l.00586-.01172.00195-.00196c.20019-.40568.50033-.70293.90821-.89941.26305-.12671.62507-.19483.92285-.1748l.27539.03418c.09711.01663.19222.03702.25976.05761l-.00097.00098.39453.11328-.00098.00098c.48512.13426 1.1822.31337 1.52637.39258l-.00098.00097.44727.09766.74121.14453c.719.12774 1.38023.20622 2.04297.24512.30008.01724 1.02367.0169 1.26855 0 .8116-.05714 1.4046-.18613 2.291-.50391.7248-.25928 1.6381-.75279 2.4932-1.35156.2865-.20101 1.0241-.73166 1.1855-.85156l.2266-.1836c.4978-.43765.784-.93863.9101-1.57129.0433-.21794.054-.36182.0567-.83593.0026-.42323.004-.50286.04-.64161.0867-.33109.2451-.60915.4864-.85547l.1132-.10742c.2725-.23534.5978-.36844 1-.42383.037-.00511.1013-.00761.169-.00878zm-.1943 1.42871c-.1104.01805-.1874.04964-.2461.09082l-.0537.04394c-.0434.04402-.056.06468-.0606.07422-.0029.00617-.0081.01798-.0088.05274 0 .02086.0006.02822.001.03222 0 0 .0004.0024.0029.00977.0099.02853.0321.07596.0918.20117.1528.31656.1872.39646.2979.69629.1886.50852.3344 1.05592.3906 1.47754.0596.44569.0678 1.04268.0225 1.47558l-.001.00196-.0215.17187-.001.00195-.041.23536c-.1083.5487-.2978 1.11111-.5976 1.79687-.0568.12986-.1388.32312-.1817.42772l-.0058.0147-.002.0019c-.4324 1.0371-1.0334 2.2065-1.4941 2.8985-.4407.6609-.9187 1.2514-1.46 1.7968l-.2363.2315c-1.0259.9799-2.0929 1.715-3.5147 2.4238-.7963.3968-1.548.7134-2.47945 1.0469-.44624.1596-1.04236.3578-1.22657.4072l-.21875.0615c-.05222.0168-.09076.0327-.12109.0469-.05157.0242-.08244.0482-.12695.0957-.09445.1013-.14451.2237-.14454.374.00003.2261.07938.3727.21583.4658l.00097-.0009c.05598.0375.09441.0569.50391.1299l.50293.081c.476.0688.8963.1046 1.46391.1299.7679.0333 1.7037-.0417 2.5009-.2022 1.8003-.3632 3.5211-1.165 4.9483-2.3105.5178-.4151 1.1427-1.03 1.5761-1.5488 1.0128-1.2143 1.7487-2.554 2.167-3.9395.1088-.3595.173-.6389.2412-1.0644.0805-.5011.0874-1.0329.0254-1.46879l-.0302-.18164c-.0558-.27298-.0982-.438-.1621-.61328l-.0752-.18847c-.1613-.38433-.3208-.64619-.6231-1.00879l-.0019-.00098-.2471-.31055-.001-.00195c-.167-.22376-.2913-.42675-.4101-.66895l-.1182-.25781c-.1361-.31136-.261-.74124-.3369-1.13769v-.00293l-.0576-.37598-.001-.00293c-.0342-.31659-.0452-.76135-.0283-1.12402.0084-.1901.0109-.27711.0068-.33008-.0013-.01671-.0033-.02577-.0049-.03223l-.0176-.04004c-.0227-.0434-.0766-.09578-.1582-.13281l-.0908-.03027c-.0346-.00759-.1046-.01655-.1836-.02051-.084-.00417-.1479-.00234-.1689.00098m-1.7403 5.9375c-.3184.38233-.5156.61002-.7421.84962l-.2422.249c-.7489.7634-1.4766 1.3765-2.2774 1.9111h-.0019l-.3457.2237-.3008.1816c-1.5199.8876-3.2896 1.4527-5.33595 1.711-.64568.0812-1.00451.1161-1.70215.1601-.27641.0183-.64194.0246-1.55957.0274-.5198.002-.81748.0039-.99414.0078l-.22168.0136c-.20384.0621-.35045.2538-.35156.5088-.00052.1193.02161.2113.05957.2842.03763.0722.0982.1391.19141.2012l.01171.0088c.02482.0139.08052.0431.16602.0879.09925.0519.22708.1168.36133.1845.27014.1363.56335.2813.71386.3496 1.24975.5696 2.35829.9099 3.50098 1.0772.17872.0259.23643.0317.28516.0273.04527-.0041.09266-.0179.24511-.0742 1.07923-.3974 1.6519-.6357 2.3643-.9824l.4589-.2315c.4349-.2273.8097-.4496 1.2178-.7207 1.5628-1.0357 2.6719-2.2246 3.5655-3.8173.2211-.3941.5732-1.1084.7978-1.6211.1598-.36504.2888-.67259.3955-.93754-.0772.09664-.1623.20319-.2598.32032m-.7812-1.33008c-.2674.19761-.5882.4299-.9668.6914-1.1065.7635-1.9411 1.201-2.9619 1.5469h-.002l-.4941.1572-.002.001-.458.1181c-.5498.1277-1.0122.1912-1.64157.2247-.79121.0418-1.80183-.0147-2.73047-.1475-.74194-.1066-1.61694-.276-2.36914-.457l-.00098-.001-.70019-.1817-.00098-.0009c-.07724-.0211-.22142-.06024-.32422-.08694l-.00098-.00098-.48828-.13379c-.25149-.07141-.36434-.08737-.43359-.08301l-.06445.01074-.08985.03321a.468.468 0 0 0-.1416.10351l-.05664.07227-.0459.08199c-.08674.1888-.05402.394.09082.5489.10161.1087.39505.355.75488.6347.35408.2753.75414.5698 1.05567.7715l.29101.1836-.00097.001c.31236.1906.67996.3932.99609.5488.24664.1207.53671.2467.7793.3418.12078.0474.22929.0864.3125.1133.04247.0137.07511.0235.09863.0293.00858.0021.0155.0032.01953.0039l.00293.001c.21142-.0015 1.01-.0933 1.5-.1758 1.04264-.1756 1.82125-.3811 2.66305-.7041 1.7819-.6845 3.4037-1.869 4.8399-3.54493.2409-.28087.4248-.50735.5703-.70117"/>
</svg>
