<svg xmlns="http://www.w3.org/2000/svg" width="24" height="24" viewBox="0 0 24 24">
  <path fill="currentColor" d="M11.8164 13.3018 11.1006 14l-.7158-.6973.7158-.6982zm2.4492-.4034-.7168.6983-.7148-.6973.7158-.6982zm-4.48825-.9052-.71582.6982-.71582-.6973.71679-.6982zm1.98045-.8604-.7168.6983-.7148-.6973.7158-.6982zm2.084-.3115-.7158.6982-.7158-.6972.7168-.6983zm-.6621-1.77149-.7168.69727-.7149-.69727.7159-.69726zm1.1055-6.24804c1.9087-1.90876 5.0041-1.90938 6.913-.00098 1.9089 1.90895 1.909 5.00514 0 6.91406L9.71387 21.1992c-1.90897 1.9083-5.00435 1.9077-6.91309-.001-1.90819-1.9087-1.90814-5.0032 0-6.9121zM3.86133 15.3467c-1.32235 1.323-1.3224 3.468 0 4.791 1.32302 1.323 3.46882 1.3227 4.79199 0l1.74418-1.7441-4.79203-4.792zm2.80566-2.8057 4.79101 4.791 5.874-5.873-4.791-4.792zM20.1377 3.86134c-1.3232-1.32262-3.469-1.322-4.792.00097l-1.7451 1.74414 4.792 4.79195 1.7451-1.7441c1.3231-1.32313 1.3231-3.4698 0-4.79296"/>
</svg>
