<svg xmlns="http://www.w3.org/2000/svg" width="24" height="24" viewBox="0 0 24 24">
  <path fill="currentColor" d="M19.5801.99805c.2345.00832.547.06103.8135.26367l.1103.0957c.2824.27924.3646.65128.3887.92188.0257.2892-.0015.60666-.0528.91699-.1033.6251-.3288 1.36149-.6054 2.08594-.2787.72993-.6218 1.47802-.9766 2.13086-.3481.64048-.7327 1.23634-1.1045 1.6289-.4887.51587-1.1023.80878-1.7178.95801 1.0079.6069 1.9637 1.5093 2.3291 2.7285.2054.6854.2875 1.623.2872 2.6035-.0004.9962-.0855 2.0967-.2432 3.1328-.1569 1.0309-.3912 2.0293-.7002 2.8106-.1539.3891-.3377.7524-.5596 1.0439-.2141.2813-.5222.5729-.9511.6758l-.1631.0283c-.3773.0447-.7422-.0635-1.0391-.1992-.3486-.1594-.6989-.3995-1.0332-.6728-.6713-.5491-1.3882-1.322-2.0615-2.1504-1.3385-1.6468-2.62613-3.6696-3.11135-4.917-.46801-1.2039-.20113-2.4097.29883-3.3848-.79227.1528-1.6765.131-2.49219-.2676-.52769-.2578-1.14722-.7191-1.75-1.2441-.61323-.53417-1.24996-1.17018-1.8125-1.8125-.55881-.63811-1.06555-1.30593-1.40332-1.90332-.16772-.2967-.31129-.60519-.38964-.90332-.07357-.28022-.12168-.67163.05859-1.04102.18315-.37471.52633-.57295.79687-.68164.28485-.11434.61495-.17983.94727-.21777.66933-.0764 1.4939-.05755 2.32519.01562 1.65208.14547 3.51411.52008 4.52055.92383.8696.34896 1.4613 1.02251 1.8437 1.73926.0875-.78682.383-1.62484 1.0615-2.24414.7309-.66674 2.1916-1.57151 3.5401-2.21191.6788-.32237 1.3711-.59905 1.9638-.74317.2941-.07147.5987-.11938.8819-.10937M13.625 10.4687l2.3711 7.9102c.1189.3968-.1119.797-.5147.8936-.4026.0962-.8254-.1473-.9443-.544l-2.3701-7.9101-.001-.003c-.0295.0232-.0611.0458-.0918.0713-.3286.2741-.6698.6443-.9531 1.0703-.5832.8773-.8321 1.8424-.5127 2.6641.4021 1.0337 1.5764 2.9109 2.8672 4.499.6409.7886 1.2804 1.4678 1.832 1.919.2768.2263.5058.3735.6797.4531.0969.0442.1542.0566.1797.0605.0219-.0151.0717-.055.1435-.1494.1173-.154.2464-.3917.375-.7168.2561-.6475.4689-1.5326.6172-2.5068.1476-.9694.2272-1.9981.2276-2.919.0003-.936-.0815-1.7059-.2246-2.1836-.2587-.8618-1.0798-1.5929-2.1055-2.0908-.4988-.242-1.009-.4088-1.4512-.499-.0427-.0087-.0848-.0144-.125-.0215zM5.63672 5.13769c-.78565-.06915-1.49713-.08058-2.02344-.0205-.23071.02634-.39899.06503-.51172.10351.03698.12323.11127.29492.23438.5127.26786.47376.70283 1.05527 1.22656 1.65332.51988.59359 1.10792 1.18206 1.66797 1.66992.57032.49676 1.07322.85593 1.42383 1.02736.62194.3038 1.42527.2482 2.1875-.0361.2688-.10038.5152-.22525.7256-.35454L4.85547 6.90332c-.37191-.18195-.5265-.63088-.34473-1.00293.18181-.37185.63093-.52611 1.00293-.34473l5.70803 2.78907c-.0285-.23867-.0818-.5001-.168-.76172-.248-.75284-.6988-1.37247-1.32323-1.62305-.81338-.32633-2.51175-.68299-4.09375-.82227M19.418 2.51758c-.0943.00772-.2194.02638-.376.06445-.4543.11049-1.0439.34073-1.6816.64356-1.2852.61032-2.5991 1.4409-3.1768 1.96777-.4273.39006-.6159 1.03844-.5957 1.75098.0056.19566.0281.38539.0605.55957l2.4629-2.59864c.2848-.30043.7544-.30839 1.0489-.01758.2944.29122.3023.77154.0175 1.07227l-2.4648 2.60156c.1778.03031.3716.05065.5732.05274.7175.00728 1.3886-.19193 1.8008-.62696.2364-.24965.5465-.7089.874-1.31152.3211-.59069.6362-1.2762.8916-1.94531.2575-.67446.4435-1.30439.5235-1.78809.0294-.17823.0415-.31939.042-.4248"/>
</svg>
