<svg xmlns="http://www.w3.org/2000/svg" width="24" height="24" viewBox="0 0 24 24">
  <path fill="currentColor" d="M14 8h-1V7h1zm-4-1H9V6h1zm6-1h-1V5h1zm-4.1455-3.75c5.4078 0 8.0248 3.56441 8.7373 6H22c.4142 0 .75.33579.75.75 0 1.3926-.268 2.7221-.75 3.9434V13h-.0225c-1.2593 3.1383-3.9531 5.5448-7.2724 6.4053.6464.6737 1.0449 1.5872 1.0449 2.5947 0 .4142-.3358.75-.75.75H9c-.41421 0-.75-.3358-.75-.75 0-1.0072.39778-1.921 1.04395-2.5947C5.97502 18.5446 3.28165 16.138 2.02246 13H2v-.0566C1.51801 11.7221 1.25 10.3926 1.25 9c0-.41421.33579-.75.75-.75h1.32227c.46887-2.54409 3.23326-5.99998 8.53223-6M12 19.75c-.9793 0-1.81.6266-2.11914 1.5h4.23824c-.3091-.8734-1.1398-1.5-2.1191-1.5M3.66211 13C5.15324 16.1054 8.32452 18.25 12 18.25c3.6755 0 6.8468-2.1446 8.3379-5.25zM2.7832 9.75c.04828.6015.15475 1.1865.3125 1.75h17.8086c.1577-.5635.2642-1.1485.3125-1.75zm9.0713-6c-4.39569.00002-6.51104 2.6962-6.99415 4.5H19.0107c-.7235-1.89438-2.8599-4.5-7.1562-4.5"/>
</svg>
