<svg xmlns="http://www.w3.org/2000/svg" width="24" height="24" viewBox="0 0 24 24">
  <path fill="currentColor" d="M13.583 1.25c2.584 0 4.1416.91904 5.041 2.19238.8587 1.21573 1.032 2.64478 1.1221 3.47657a.7515.7515 0 0 1-.1875.58203C19.4163 7.65947 19.213 7.75 19 7.75h-2.1738c.6975 1.2976 1.3603 2.9394 1.8955 4.6484.7151 2.2841 1.2259 4.7683 1.2646 6.8194.0358 1.8948-1.6402 3.0252-3.2842 3.0068l-6.74409-.0752c-2.05453-.023-3.70797-1.6953-3.70801-3.75v-2.1103c.00013-1.494.90491-2.731 2.11719-3.4092.46703-.2613.91601-.5613 1.2666-.8945.35351-.3362.56381-.6646.63571-.9776.1756-.7643.1806-1.72262.1319-2.52733-.0166-.27363-.0404-.52234-.0625-.73047h-.6641c-.34746 1.71166-1.86059 3-3.6748 3-.41421 0-.75-.3358-.75-.75 0-.41421.33579-.75.75-.75.97933 0 1.81001-.62657 2.11914-1.5H6c-.41421 0-.75-.33579-.75-.75V2c0-.41421.33579-.75.75-.75zm-1.6846 7.13965c.0513.84798.0564 1.97775-.1679 2.95415-.1618.7039-.589 1.2782-1.0625 1.7285-.4764.4529-1.0439.8237-1.56839 1.1172-.83336.4662-1.34948 1.2496-1.34961 2.0996v2.1103c.00004 1.2327.992 2.2361 2.22461 2.25l6.74419.0752c1.0596.0118 1.7828-.67 1.7675-1.4785-.0351-1.8587-.5056-4.1937-1.1963-6.3994-.6331-2.0221-1.4315-3.86948-2.1972-5.0967h-3.2451c.0185.19146.0367.40727.0507.63965M6.75 6.25h11.3887c-.1153-.64791-.3174-1.34374-.7403-1.94238C16.8263 3.49772 15.7655 2.75 13.583 2.75H6.75z"/>
</svg>
