<svg xmlns="http://www.w3.org/2000/svg" width="24" height="24" viewBox="0 0 24 24">
  <path fill="currentColor" d="M13 19h-3v-1h3zM12 9h1v1h-1v1h-1v-1h-1V9h1V8h1zm-.5-7.75c.4521 0 .8845.03988 1.2236.11523.1634.03631.3462.09045.5069.17481.0796.04182.1913.10953.291.21777.1033.11225.2284.30784.2285.5752v.22851c.4272.13071.8168.30347 1.1357.52051.428.29135.8641.76281.8643 1.41797v16c0 .4606-.2211.8366-.4912 1.1104-.267.2705-.6161.4801-.9883.6396-.7472.3202-1.7274.5-2.7705.5s-2.0233-.1798-2.77051-.5c-.3722-.1595-.72132-.3691-.98828-.6396-.2701-.2738-.49121-.6498-.49121-1.1104v-16l.00586-.12598c.05354-.61614.4934-1.05743.91602-1.33105.30635-.19829.67451-.35815 1.07812-.48145v-.22851c.0001-.26736.12515-.46295.22852-.5752.09968-.10824.21141-.17595.29101-.21777.16064-.08436.34347-.1385.50687-.17481.3391-.07535.7715-.11523 1.2236-.11523m2.75 13.5078c-.7446.3149-1.7162.4922-2.75.4922s-2.00537-.1773-2.75-.4922v5.7236c.00555.0112.02032.0364.05859.0752.08719.0884.25078.2026.51172.3145.51955.2227 1.28979.3789 2.17969.3789s1.6601-.1562 2.1797-.3789c.2609-.1119.4245-.2261.5117-.3145.0383-.0388.053-.064.0586-.0752zm0-8.49999c-.7446.31489-1.7162.49219-2.75.49219s-2.00535-.1773-2.75-.49219v6.72359c.00558.0112.02034.0364.05859.0752.08719.0884.25078.2026.51172.3145.51955.2227 1.28979.3789 2.17969.3789s1.6601-.1562 2.1797-.3789c.2609-.1119.4245-.2261.5117-.3145.0383-.0388.053-.064.0586-.0752zM9.38867 4.10059c-.15969.06422-.29417.13276-.40137.20214-.14119.09142-.20167.158-.22558.19336.00913.01353.02182.03511.04687.06055.08719.08834.25078.20259.51172.31445C9.83986 5.09376 10.6101 5.25 11.5 5.25s1.6601-.15624 2.1797-.37891c.2609-.11186.4245-.22611.5117-.31445.0248-.02516.0367-.04704.0459-.06055-.0225-.03291-.0756-.09329-.1953-.1748-.1109-.07543-.2559-.14935-.4316-.21973-.0018.00246-.0031.00532-.0049.00782-.0151.02088-.032.04287-.0508.06445-.0379.04344-.0829.08743-.1358.12988-.1057.08497-.2395.16205-.4062.22754-.3284.12895-.8046.21875-1.5127.21875s-1.1843-.0898-1.5127-.21875c-.16672-.06549-.30054-.14257-.40625-.22754-.0528-.04245-.09786-.08644-.13574-.12988-.0188-.02158-.03568-.04357-.05078-.06445-.00207-.00288-.0038-.00597-.00586-.00879M11.5 2.75c-.2948 0-.5537.02083-.75.05176v.38867c.1568.03003.3965.05957.75.05957s.5932-.02954.75-.05957v-.38867c-.1963-.03093-.4552-.05176-.75-.05176"/>
</svg>
