<svg xmlns="http://www.w3.org/2000/svg" width="24" height="24" viewBox="0 0 24 24">
  <path fill="currentColor" d="M14 10.25c2.0711 0 3.75 1.6789 3.75 3.75v2c0 2.0711-1.6789 3.75-3.75 3.75h-4c-2.07107 0-3.75-1.6789-3.75-3.75v-2c0-2.0711 1.67893-3.75 3.75-3.75zm-4 1.5c-1.24264 0-2.25 1.0074-2.25 2.25v2c0 1.2426 1.00736 2.25 2.25 2.25h4c1.2426 0 2.25-1.0074 2.25-2.25v-2c0-1.2426-1.0074-2.25-2.25-2.25zm4-10.5c.9665 0 1.75.7835 1.75 1.75 0 .69772-.4093 1.29804-1 1.5791v2.09668l3.3525 1.03223C19.676 8.19215 20.75 9.6467 20.75 11.293V19c0 2.0711-1.6789 3.75-3.75 3.75H7c-2.07107 0-3.75-1.6789-3.75-3.75v-7.707c0-1.6463 1.07399-3.10085 2.64746-3.58499L9.25 6.67578V4.5791c-.59072-.28106-1-.88138-1-1.5791 0-.9665.7835-1.75 1.75-1.75zm-3.25 5.98047c0 .32918-.2147.6199-.5293.7168L6.33789 9.14258C5.39408 9.43322 4.75 10.3054 4.75 11.293V19c0 1.2426 1.00736 2.25 2.25 2.25h10c1.2426 0 2.25-1.0074 2.25-2.25v-7.707c0-.9876-.6441-1.85978-1.5879-2.15042l-3.8828-1.19531c-.3146-.0969-.5293-.38762-.5293-.7168V4.75h-2.5zM10 2.75c-.13807 0-.25.11193-.25.25s.11193.25.25.25h4c.1381 0 .25-.11193.25-.25s-.1119-.25-.25-.25z"/>
</svg>
