<svg xmlns="http://www.w3.org/2000/svg" width="24" height="24" viewBox="0 0 24 24">
  <path fill="currentColor" d="M4.32031 3.0752c1.27834-.31245 2.70259-.09945 3.56934.84863.91762 1.00407.94807 2.52138.05664 4.2373-.10399.20016-.1255.31208-.12793.36621-.00158.03726.00435.07391.04394.13965.0496.08215.14703.19878.33692.36524.18812.16485.43089.34921.74414.58105.73086.54092 1.21954 1.16392 1.48344 1.82322.3704-.1049.7693-.1909 1.1972-.2519.3367-.0481.5262-.1246.6377-.1973.0975-.0636.1706-.1471.2334-.293.0702-.1631.1261-.402.1621-.76461.0358-.36034.0478-.79568.0567-1.33789.042-2.56794 1.3121-4.12587 2.956-4.70215 1.5626-.54764 3.3958-.1705 4.4961.92969 1.4533 1.45356 2.0145 3.31088 1.8047 5.24806-.2077 1.9171-1.1644 3.8893-2.6973 5.6719-1.5183 1.7654-3.3306 3.1489-5.1318 3.8105-1.8098.6645-3.7093.6239-5.19238-.6514-.91525-.7872-1.5958-1.8231-1.82617-2.914-2.72822-.0033-4.69091-2.3076-5.42383-5.3057-.40267-1.64768-.45796-3.32139-.08008-4.69335.38048-1.38086 1.23905-2.5525 2.70117-2.91015M19.1055 5.88086c-.6598-.65977-1.8755-.94811-2.9395-.5752-.9404.32972-1.8359 1.21407-1.9404 3.05567a.748.748 0 0 1 .2754.04394c.3267.11778.6359.29467.9111.53125 1.3768 1.18418 1.3251 3.28198.1416 4.65818-1.1836 1.3761-3.2501 1.7408-4.6269.5567-.2751-.2367-.4959-.516-.6612-.8213-.0397-.0736-.0626-.1514-.0761-.2295-1.0449.4417-1.48387 1.0827-1.60747 1.6631-.01672.0786-.02736.1597-.03418.2422.00386.0163.00891.0329.01172.0498.01702.1029.01152.2044-.01172.2998.06118.7823.52325 1.6695 1.37988 2.4062.93837.8066 2.21027.926 3.69727.3799 1.4963-.5496 3.1075-1.7483 4.5107-3.3799 1.3885-1.6144 2.1766-3.3129 2.3438-4.85643.1649-1.52323-.2682-2.91817-1.374-4.02441M6.7832 4.93555c-.37467-.4097-1.15773-.63516-2.10644-.40332-.76435.18702-1.32214.80214-1.61133 1.85156-.29164 1.05896-.26996 2.46216.09082 3.93851.65131 2.6645 2.21138 4.143 3.95215 4.1621.00214-.0107.0036-.0216.00586-.0323.2162-1.0163.86744-1.8588 1.9209-2.4501-.11842-.2997-.33365-.6248-.7002-.9512-.01141.0089-.02213.019-.03418.0273a2.304 2.304 0 0 1-.76172.3418c-1.40164.3425-2.70272-.6615-3.03418-2.01756-.3313-1.35604.36008-2.84783 1.76172-3.19043.26962-.06586.54179-.0807.80567-.05078.08702-.6139-.08437-1.00141-.28907-1.22558m7.3662 5.14255c-.0424.4273-.1177.8416-.2764 1.21-.1662.3857-.4208.7134-.7929.956-.3581.2334-.781.3597-1.2442.4258-.0679.0097-.1348.0215-.2002.0322.0731.1151.1627.2206.2696.3125.6281.5399 1.7574.4775 2.5107-.3984.7533-.876.6465-2.0028.0186-2.543-.084-.0721-.1753-.13132-.2705-.18062-.005.06296-.0087.12502-.0147.18552M6.5 7.71192c-.38816.17141-.6962.68604-.53809 1.33398.15406.63028.64137.94534 1.05762.9375-.16714-.1631-.32204-.34168-.44238-.54102-.17447-.28933-.27248-.61517-.25684-.97949.01127-.2597.07811-.5103.17969-.75097"/>
</svg>
