<svg xmlns="http://www.w3.org/2000/svg" width="24" height="24" viewBox="0 0 24 24">
  <path fill="currentColor" d="M8.5 7.25c1.7949 0 3.25 1.45507 3.25 3.25 0 1.7949-1.4551 3.25-3.25 3.25-1.79493 0-3.25-1.4551-3.25-3.25 0-1.79493 1.45507-3.25 3.25-3.25m0 1.5c-.9665 0-1.75.7835-1.75 1.75s.7835 1.75 1.75 1.75 1.75-.7835 1.75-1.75-.7835-1.75-1.75-1.75m9.0928-4.99414c.7374.09218 1.8751.36913 2.8476 1.07422C21.4474 5.56017 22.25 6.73497 22.25 8.5V12c0 1.6703-.5587 3.048-1.3594 4.0186-.7838.9499-1.8533 1.5643-2.8906 1.5644-1.6172 0-2.6209-.1009-3.584.541-.2997.1998-.5632.4589-.873.7842-.2962.311-.6467.6956-1.0635 1.043-.8854.7377-2.0554 1.2988-3.9795 1.2988-1.92741-.0001-4.44787-.9466-5.66895-3.3477-.61071-1.201-.86989-2.7024-.98632-4.1015C1.72749 12.3918 1.75 10.9967 1.75 10c0-2.25288 1.00027-3.84615 2.36719-4.85352C5.4556 4.16028 7.11961 3.75 8.5 3.75h9c.031 0 .062.00202.0928.00586m3.1269 8.82614c-.7715.8113-1.7184 1.2972-2.5566 1.4834s-1.6622.1537-2.2471.1758c-.621.0235-1.0754.0998-1.5.3828-.2997.1999-.5632.4588-.873.7842-.2962.3109-.6458.6956-1.0625 1.043-.8855.7379-2.0559 1.2988-3.9805 1.2988-2.03001 0-3.72902-.8799-4.91504-2.3027.1367.6612.32439 1.2668.58301 1.7754C5.06653 18.9896 6.97326 19.7499 8.5 19.75c1.5751 0 2.405-.4392 3.0195-.9512.333-.2775.6088-.5806.9375-.9258.315-.3307.677-.697 1.127-.997 1.4367-.9577 3.0336-.793 4.416-.793.4625-.0001 1.1424-.3025 1.7334-1.0185.4876-.591.8789-1.4292.9863-2.4825M8.5 5.25c-1.11946 0-2.45566.33992-3.49219 1.10352C3.99993 7.09616 3.25 8.2531 3.25 10c0 3.7047 2.27388 6.25 5.25 6.25 1.5753 0 2.405-.4391 3.0195-.9512.3331-.2775.6088-.5805.9375-.9258.3151-.3308.6768-.6969 1.127-.997.7754-.517 1.5713-.6072 2.2754-.6338.7398-.028 1.316.0052 1.9775-.1416 1.2068-.268 2.9131-1.5009 2.9131-4.1006 0-1.23495-.5308-1.97683-1.1904-2.45508-.679-.49224-1.5193-.71567-2.1133-.79492z"/>
</svg>
