<svg xmlns="http://www.w3.org/2000/svg" width="24" height="24" viewBox="0 0 24 24">
  <path fill="currentColor" d="M8 1.99805c1.66835 0 2.7934.82408 3.4189 1.79883.521-.37662 1.1888-.54682 1.8233-.54688 1.2371 0 2.1372.87336 2.416 2H16.5c.6903 0 1.25.55965 1.25 1.25v2.26172c.5052-.32355 1.1055-.51172 1.75-.51172 1.7949 0 3.25 1.45508 3.25 3.25v5c0 1.7949-1.4551 3.25-3.25 3.25-.6447 0-1.2447-.189-1.75-.5127V21.5c0 .6903-.5597 1.25-1.25 1.25h-13c-.69035 0-1.24999-.5597-1.25-1.25v-15c.00001-.69035.55965-1.25 1.25-1.25h.83691c.12291-.57611.37831-1.20221.77637-1.74707C5.7113 2.68444 6.66839 1.99805 8 1.99805M3.75 21.25h1.5V12c.00001-.4142.33579-.75.75-.75s.74999.3358.75.75v9.25h2.5V12c.00001-.4142.33579-.75.75-.75.4142 0 .75.3358.75.75v9.25h2.5V12c0-.4142.3358-.75.75-.75s.75.3358.75.75v9.25h1.5V6.75H3.75zM19.5 9.75c-.9665 0-1.75.7835-1.75 1.75v5c0 .9665.7835 1.75 1.75 1.75s1.75-.7835 1.75-1.75v-5c0-.9665-.7835-1.75-1.75-1.75M8 3.49805c-.75162 0-1.29462.36796-1.67578.88965-.20017.27399-.34375.57699-.4375.8623h4.56348C10.233 4.44856 9.46556 3.49805 8 3.49805M13.2422 4.75c-.6144.00007-.9837.20753-1.1514.5h1.9756c-.1926-.33035-.5104-.5-.8242-.5"/>
</svg>
