<svg xmlns="http://www.w3.org/2000/svg" width="24" height="24" viewBox="0 0 24 24">
  <path fill="currentColor" d="M11.6611.25c.408.00018.6918.25783.8213.39356.1563.16388.2918.36805.4072.56933.2345.40891.4615.94154.6583 1.49023.15.41846.2914.87415.4101 1.32129.5405-.36783 1.15-.73948 1.7139-1.03515.4271-.22394.8593-.42104 1.2314-.53321.1832-.05516.3894-.10135.5918-.10546.182-.00363.5114.02412.7744.28418.2899.28698.31.66986.3067.85742-.0042.22637-.0509.4672-.1104.6914-.1208.45565-.3341.994-.5801 1.52246-.4836 1.03909-1.175 2.21344-1.7295 2.79883-.2312.24402-.4917.43495-.7636.58399 1.9973 1.08003 3.3572 3.13213 3.3574 5.73823-.0001 1.1014-.4833 2.0048-1.1191 2.7432-.6269.7279-1.4437 1.3434-2.1954 1.8799-.7837.5594-1.4747 1.0193-1.9941 1.4912-.5305.4821-.6913.8139-.6914 1.0586-.0001.4141-.3358.75-.75.75s-.7499-.3359-.75-.75c-.0001-.2447-.1609-.5765-.6914-1.0586-.5194-.4719-1.21042-.9318-1.99415-1.4912-.75163-.5365-1.56842-1.152-2.19531-1.8799-.63588-.7384-1.11909-1.6418-1.11914-2.7432.00021-2.6061 1.36009-4.6582 3.35742-5.73823-.27125-.14863-.532-.33948-.76367-.58399-.55442-.58539-1.24588-1.75974-1.72949-2.79883-.24595-.52846-.45921-1.06681-.58008-1.52246-.05945-.2242-.10623-.46503-.11035-.6914-.00335-.18756.01674-.57044.30664-.85742.24763-.24482.55419-.28262.7334-.28418.19414-.00163.38971.03663.56054.08398.34631.09602.74517.2694 1.13965.46875.48861.24693 1.01636.56136 1.51074.88184.08011-.35945.17149-.72197.26954-1.06348.15666-.54563.34156-1.07844.54296-1.48828.0991-.20157.2187-.4095.3643-.57715.1222-.14075.394-.40617.8095-.40625M12 9.75c-2.94085 0-5.24969 2.0739-5.25 5.0771.00005.6275.26705 1.196.75586 1.7637.498.5782 1.18155 1.1047 1.92969 1.6387.71605.5111 1.52535 1.0515 2.13085 1.6016.1475.134.2957.2787.4336.4345.1379-.1558.2861-.3005.4336-.4345.6055-.5501 1.4148-1.0905 2.1309-1.6016.6785-.4844 1.3031-.9633 1.7851-1.4795H15c-.4142 0-.7499-.3359-.75-.75.0001-.4141.3358-.75.75-.75h2c.0699 0 .137.0114.2012.0293.0315-.1478.0488-.2981.0488-.4522 0-.3795-.038-.7442-.1084-1.0917-.0459.0087-.0931.0146-.1416.0146h-5c-.4142 0-.7499-.3359-.75-.75.0001-.4141.3358-.75.75-.75h4.585c-.8909-1.5478-2.5926-2.5-4.585-2.5m4.9551-5.7002c-.1788.07606-.3837.1718-.6055.28809-.7038.36909-1.495.87569-2.0801 1.3125.008.09121.0149.1783.0166.25977.0179.84301-.3234 1.57252-.7246 2.10058.4861.01762 1.1253-.13534 1.5283-.56054.3836-.40506.9914-1.39922 1.4551-2.39551.1719-.36941.3138-.71488.4102-1.00489m-9.91018-.00195c.09643.2903.23796.63683.41016 1.00684.46374.99629 1.07152 1.99045 1.45508 2.39551.30821.32518.75826.49528 1.18454.54589-.41475-.53507-.76684-1.27597-.73532-2.12988.00506-.13602.01827-.28898.03613-.4541-.58167-.40792-1.28026-.84095-1.89063-1.14941-.1672-.08449-.32196-.15615-.45996-.21485m4.67578-1.86914c-.1109.27059-.2257.60817-.334.98535-.295 1.02758-.5051 2.19198-.5273 2.79004-.0161.43903.1822.87222.4736 1.2168.1431.16919.2928.2968.4141.37598.0283.01847.0541.02871.0732.03906.019-.01046.0445-.0215.0723-.04004.1203-.0803.2678-.21042.4101-.38281.2901-.35152.493-.79911.4834-1.25293-.012-.55772-.2785-1.69288-.6494-2.72754-.1377-.38424-.2804-.72968-.416-1.00391"/>
</svg>
