<svg xmlns="http://www.w3.org/2000/svg" width="24" height="24" viewBox="0 0 24 24">
  <path fill="currentColor" d="M14.877 1.25977c.4084-.06785.7952.20875.8632.61718.0679.40843-.2087.79517-.6172.86329-1.7644.29418-2.5714 1.14785-2.9648 1.86914-.1233.22619-.208.44758-.2686.6455 1.7823.04122 3.1092.57037 4.0381 1.50196.5267-.29558 1.1169-.45415 1.7432-.40235 1.2907.10702 2.279 1.04367 2.8867 2.22071.6143 1.18995.9115 2.7409.794 4.3769-.1176 1.6369-.3386 3.765-.9522 5.4659-.3073.8516-.7345 1.6599-1.3515 2.2431-.6405.6052-1.4655.9461-2.4668.8633-.6382-.0529-1.184-.2672-1.6397-.6025-.1933.2388-.3948.463-.6094.664-.7347.6881-1.6337 1.164-2.6689 1.1641-1.0332-.0001-1.93148-.4717-2.66701-1.1562-.10172-.0947-.19993-.1953-.29687-.2989-.10475.1302-.25008.229-.42578.2666-.9825.2103-1.84633-.0222-2.5625-.54-.68997-.4991-1.22204-1.2453-1.64063-2.0498-.83602-1.607-1.34038-3.688-1.67578-5.2949-.33508-1.606-.2481-3.181.20215-4.43852.44547-1.24386 1.30204-2.29725 2.56836-2.56836.71251-.15249 1.41046-.02306 2.04199.28809.74162-.83861 1.76903-1.39031 3.11427-1.60547.0016-.0087.0032-.01753.0049-.02637.0735-.37991.2205-.89453.5156-1.43554.6066-1.11188 1.8002-2.25835 4.0352-2.63086M11.6631 6.75c-1.91029.00011-2.95952.62386-3.57619 1.5166-.02159.04756-.04779.09402-.08007.1377-.01124.01517-.02402.02889-.03614.04297-.58753.9696-.81636 2.33953-.8164 3.99613 0 1.8007.49856 4.0791 1.36914 5.8886.43442.903.94336 1.6514 1.49416 2.1641.5467.5088 1.0975.7538 1.6455.7539.546-.0001 1.0961-.2461 1.6435-.7588.5513-.5164 1.0604-1.2695 1.4952-2.1758.8713-1.8168 1.3691-4.0959 1.3691-5.872 0-1.7388-.2508-3.16206-.9053-4.13773-.613-.91356-1.6644-1.5556-3.6025-1.55567M6.38672 8.23731c-.32758-.13148-.63631-.15922-.91504-.09961-.56606.1212-1.11768.63316-1.46484 1.60254-.34212.95586-.43332 2.24386-.14551 3.62306.33489 1.6045.8064 3.5037 1.53808 4.9101.36516.7018.76628 1.2211 1.19239 1.5293.35813.2589.74561.3776 1.20898.3174-.22832-.3599-.4386-.7421-.62891-1.1377-.96771-2.0114-1.51757-4.512-1.51757-6.539.00003-1.4941.16852-2.9737.73242-4.20609m11.17678-.38672c-.2399-.01984-.4896.02496-.7442.14062.6602 1.27886.8516 2.85709.8516 4.45219 0 2.004-.5496 4.5042-1.5166 6.5205-.1178.2456-.2436.4861-.376.7197.2439.1922.5375.3138.9102.3447.5489.0454.9674-.1267 1.3252-.4648.3808-.3602.7076-.9265.9756-1.669.5369-1.4884.7507-3.4321.8681-5.0664.1009-1.405-.162-2.6708-.6289-3.57517-.4734-.91697-1.0876-1.35434-1.665-1.40234"/>
</svg>
