<svg xmlns="http://www.w3.org/2000/svg" width="24" height="24" viewBox="0 0 24 24">
  <path fill="currentColor" d="M13.0391 12.5723c.4951-.5995 1.4267-.5996 1.9218 0l.0996.1386.1143.1827.2158.0078c.9234.0321 1.4945 1.0211 1.0606 1.8369l-.1016.1904.1016.1904c.4339.8158-.1372 1.8048-1.0606 1.837l-.2158.0068-.1143.1836c-.4895.7836-1.6316.7837-2.121 0l-.1143-.1836-.2158-.0068c-.9234-.0322-1.4944-1.0212-1.0606-1.837l.1016-.1904-.1016-.1904c-.434-.8158.1371-1.8048 1.0606-1.8369l.2158-.0078.1143-.1827zM14 13.8389a1.2468 1.2468 0 0 1-.9443.5449c.1672.3444.167.7444 0 1.0889.3819.0272.7294.228.9443.5449.2147-.3166.5618-.5174.9434-.5449-.1668-.3443-.167-.7447 0-1.0889A1.2467 1.2467 0 0 1 14 13.8389M7.70703 2.10742c.39637.0001.66726.24957.7832.3711.14274.14964.2643.33373.36524.50976.20542.3584.40265.82181.57226 1.29492.11312.31556.22017.65699.31446.99707.43531-.29054.91221-.58102 1.35741-.81445.3683-.19307.7452-.36496 1.0733-.46387.1612-.04857.3482-.09191.5351-.0957.1456-.00289.4065.0157.6406.18945l.0987.08496c.2817.27879.2989.64654.2959.81446-.0038.20659-.0467.42215-.0987.61816-.1059.39941-.2917.86834-.5039 1.32422-.2014.4327-.4466.89451-.7002 1.31445.6319.23354 1.1325.7327 1.3731 1.36133.6858-.23472 1.4212-.36325 2.1865-.36328 3.7278.00012 6.75 3.0222 6.75 6.75s-3.0222 6.7499-6.75 6.75c-2.584-.0001-4.8286-1.4524-5.9629-3.585-.31505.921-1.18516 1.5848-2.21288 1.585-1.29318 0-2.34154-1.0487-2.3418-2.3418.00001-.0161.00065-.0328.00098-.0488-.01553.0003-.03128.0029-.04688.0029-1.29327 0-2.34169-1.0485-2.34179-2.3418.00001-.3241.06457-.6334.18359-.9141-1.0194-.2534-1.77529-1.1717-1.77539-2.2695.00001-.4985.15762-.9601.42285-1.3398-.15832-.3155-.24897-.6709-.24902-1.0479.00004-1.11782.78343-2.05201 1.83105-2.28514-.23469-.39601-.45998-.82377-.64746-1.22656-.21222-.45598-.39796-.92473-.5039-1.32422-.05197-.19608-.09589-.41149-.09961-.61816-.00301-.16789.01424-.53568.29589-.81446l.09278-.08007c.2202-.16626.46494-.1941.60937-.19532.17968-.00142.35711.0354.50782.07715.30651.085.65559.23809.99609.41016.38045.19229.78851.4307 1.17773.67773.06065-.26095.12824-.52127.19922-.76855.13498-.4701.29515-.93366.47168-1.29297.0866-.17619.19405-.36325.32715-.5166.0962-.11073.30653-.32196.62793-.37305zM16 10.75c-2.8994.0001-5.25 2.3506-5.25 5.25s2.3506 5.2499 5.25 5.25c2.8994-.0001 5.25-2.3506 5.25-5.25s-2.3506-5.2499-5.25-5.25m-8.81836 7.1162c-.12376.1467-.19911.3357-.19922.542.00026.4647.37704.8418.8418.8418.46454-.0003.84154-.3773.8418-.8418-.00002-.016-.00401-.0321-.00489-.0478-.01362.0002-.02743.0019-.04101.0019-.54264 0-1.04141-.1863-1.43848-.4961m-1.74512-2.6875c-.46488 0-.84175.3769-.84179.8418.0001.4648.37694.8418.84179.8418.46462-.0003.8417-.3771.8418-.8418-.00004-.4647-.37715-.8415-.8418-.8418m3.1836 0c-.46489 0-.84176.3769-.8418.8418.00011.4648.37695.8418.8418.8418.09452-.0001.25662-.0316.43847-.1064a1.59 1.59 0 0 0 .22266-.1133C9.26127 16.4311 9.25 16.2167 9.25 16c0-.1725.0078-.3435.02051-.5127-.15514-.1892-.38885-.3084-.65039-.3086m-5.57617-2.6025c-.02676.082-.04102.1696-.04102.2607.00012.4648.37695.8418.8418.8418.06733 0 .13262-.0095.19531-.0244-.09506-.2547-.14938-.5295-.14942-.8174.00001-.0175.00157-.0353.00196-.0527-.30181-.016-.58777-.0884-.84863-.208m3.18847-.5811c-.46489 0-.84175.3769-.8418.8418.00014.4648.37697.8418.8418.8418.4646-.0003.84166-.3771.8418-.8418-.00005-.4647-.37714-.8415-.8418-.8418m3.1836 0c-.46489 0-.84176.3769-.8418.8418.00014.4648.37697.8418.8418.8418.09217 0 .17923-.0175.26074-.0439a6.725 6.725 0 0 1 .52534-1.0928c-.1199-.3196-.4265-.5467-.78608-.5469M4.01855 9.60742c-.46488.00002-.84175.37692-.84179.84178.00018.4648.37699.8418.84179.8418.46468-.0002.84162-.3771.8418-.8418-.00004-.46477-.37704-.8416-.8418-.84178m7.61035 0a.839.839 0 0 0-.3623.08203c-.0638.04661-.1292.08961-.1953.12989-.1739.1542-.2842.37916-.2842.62986.0001.3285.1897.6135.4658.752.3601-.3562.7609-.6711 1.1934-.9395-.0851-.37409-.4175-.65417-.8174-.65428m-3.80468-.39453c-.4648.00002-.84161.37704-.8418.84181 0 .4649.37688.8418.8418.8418.4647-.0003.8418-.377.8418-.8418-.00019-.46462-.37721-.84154-.8418-.84181m3.95308-3.39844c-.5801.30423-1.2296.7218-1.7216 1.08496.0041.05756.0096.11307.0107.16602.0125.58415-.1687 1.10491-.41503 1.52734.03417.04266.06648.08682.09765.13184.18399-.03503.37148-.09698.53908-.19434.039-.02734.0794-.05315.1201-.07812.0583-.04265.1142-.08897.1641-.1416.3166-.33444.8324-1.17436 1.2285-2.02539.1013-.21781.1884-.42509.2597-.61231a8.5 8.5 0 0 0-.2832.1416m-7.83785-.14062c.0713.18711.15946.39369.26075.61133.39613.85112.91092 1.69105 1.22753 2.02539.14389.15182.33032.26015.5293.33398.02491-.03292.0496-.06613.07617-.09765-.24662-.42457-.42483-.94462-.40332-1.5254.00376-.10079.01261-.21206.02442-.33105-.48392-.33559-1.05506-.68695-1.55469-.93945-.05503-.0278-.10895-.05274-.16016-.07715m3.83106-1.53125c-.06439.17864-.13033.38203-.19336.60156-.25157.87645-.4296 1.86467-.44824 2.36524-.00834.22631.05786.45404.17187.66406.16825-.03841.34355-.06055.52344-.06055.18879.00004.372.02516.54785.06738.12397-.22397.19954-.46979.19434-.71484-.00997-.46037-.23302-1.42-.54981-2.30371-.08118-.22645-.16506-.43568-.24609-.61914"/>
</svg>
