<svg xmlns="http://www.w3.org/2000/svg" width="24" height="24" viewBox="0 0 24 24">
  <path fill="currentColor" d="M12 7.75c.725.00013 1.3123.40789 1.7432.875.4371.47411.7987 1.09733 1.0849 1.7412.5696 1.2815.9219 2.8307.9219 3.9121-.0001 2.1421-1.6297 3.9715-3.75 3.9717-2.12033-.0002-3.74988-1.8296-3.75001-3.9717 0-1.07.35287-2.6189.92188-3.9023.28603-.64504.6473-1.27022 1.08403-1.74612.43-.46846 1.0174-.87975 1.7441-.87988m-.6846 1.94531c-.2705.31069-.5361.75609-.7724 1.28909-.5024 1.133-.79301 2.474-.79301 3.2939.0001 1.1075.64781 1.9911 1.50001 2.3252V10c0-.10857.0239-.21153.0654-.30469m1.3653-.00683c.0435.09505.0693.20011.0693.31152v6.6035c.8523-.334 1.4999-1.2176 1.5-2.3252 0-.8324-.2912-2.1737-.793-3.3027-.2374-.534-.5047-.97823-.7763-1.28712M12.5 1.25c.6045.00017 1.1088.42962 1.2246 1h4.6621c.6608.00039 1.2073.51513 1.2471 1.1748l1.083 18c.0432.7184-.5284 1.325-1.2481 1.3252H4.53124c-.71969-.0002-1.29125-.6067-1.24804-1.3252l1.083-18 .0127-.12207c.09528-.60004.61491-1.05236 1.23438-1.05273h4.66212c.1158-.57041.62-.99983 1.2246-1zm-7.70411 20H19.2041l-1.0527-17.5H13.75v.75c0 .69024-.5598 1.24981-1.25 1.25h-1c-.6902-.00019-1.25-.55976-1.25-1.25v-.75H5.84863zm6.95411-17h.5v-.5h-.5z"/>
</svg>
