<svg xmlns="http://www.w3.org/2000/svg" width="24" height="24" viewBox="0 0 24 24">
  <path fill="currentColor" d="M13.8926 8.2793c.377.00037.6826.32265.6826.7207s-.3056.72033-.6826.7207c-.3772-.0002-.6836-.32255-.6836-.7207 0-.39816.3064-.7205.6836-.7207M12.5 1.25c.6045.00017 1.1088.42962 1.2246 1h4.6621c.6608.00039 1.2073.51513 1.2471 1.1748l1.083 18c.0432.7185-.5284 1.325-1.248 1.3252H4.53125c-.7197-.0002-1.29125-.6067-1.24805-1.3252l1.08301-18 .0127-.12207c.09527-.60004.61491-1.05236 1.23437-1.05273h4.66212c.1158-.57041.62-.99983 1.2246-1zm-7.7041 20h9.7422c-.4796-.5193-.865-1.0689-1.168-1.6279-.9454-1.7445-1.0908-3.4992-1.0908-4.42 0-.5687.0096-1.0796.0176-1.5087v-.0079c.0024-.1282.005-.2493.0068-.3623.0084-.5235.0051-.8215-.0156-.956-.0054-.0351-.0088-.0709-.0088-.1065 0-.2093-.0428-.3228-.0752-.3808-.0326-.0582-.0753-.0982-.125-.1279-.0532-.0317-.113-.0506-.1631-.0606-.0235-.0047-.0431-.007-.0527-.0078h-.002c-.1152.0015-.1478.0317-.1533.0371-.0152.0146-.0534.0624-.0859.1895-.0606.2363-.0578.5154-.0547.8271.0007.07.0019.1416.0019.2148 0 .2357-.1188.4543-.3115.5733-.1927.1188-.4315.1203-.626.0049l-.0058-.003-.0039-.0029-.003-.0019c-.0056-.0035-.0135-.0076-.0214-.0127-.0161-.0104-.037-.0248-.0616-.042a2.74 2.74 0 0 1-.1943-.1504c-.1542-.1306-.35409-.327-.55274-.5957C9.38689 12.1775 9 11.3446 9 10.1826c.00003-.94506.54119-1.72762 1.292-1.98045.1428-.04799.2922-.07635.4434-.08203.0899-.40679.3115-.83381.6884-1.19434.5836-.55795 1.5015-.92571 2.8242-.92578 1.6103.00036 2.9114 1.07485 3.8311 2.24902.1302.16623.2545.33749.373.51075L18.1514 3.75H13.75v.75c0 .69024-.5598 1.24981-1.25 1.25h-1c-.6902-.00019-1.25-.55976-1.25-1.25v-.75H5.84863zM14.248 7.32715c-1.1089.00006-1.6917.30607-1.9804.58203-.2964.28371-.3308.5734-.3203.66602l-.0362.00488c.2043.19056.3789.43538.5186.72461l-1.1201.60254c-.1267-.26219-.2632-.37503-.3575-.42188-.0924-.04579-.1863-.05034-.2783-.01953-.1918.06475-.4169.3065-.417.71678 0 .4794.0907.8665.2159 1.1738.078-.2145.1998-.4364.3925-.6201.235-.2236.5295-.3468.8604-.374l.1445-.0059h.0137c.0058.0002.0138.0007.0215.001.0158.0007.0363.0019.0595.0039.0472.0041.1106.0119.1836.0264.1442.0287.3442.0873.5498.21.4439.2651.823.778.8379 1.6113.0349.2795.0315.6915.0244 1.1367-.0019.1208-.0043.2482-.0068.3818-.0079.4275-.0166.9202-.0166 1.4746 0 .7932.1282 2.2908.9248 3.7608.4312.7955 1.0678 1.6006 2.0147 2.2871h.2431c-.8705-1.3552-1.3731-2.7807-1.5068-4.0547-.1107-1.0551.0268-2.0689.4883-2.8437.4812-.8076 1.2756-1.2831 2.291-1.2832.2482 0 .4901.0334.7246.0937l-.0742-1.2373c-.2745-.7985-.8039-1.9-1.5322-2.83007-.8251-1.05345-1.806-1.76722-2.8624-1.76758m3.7442 7.06735c-.6008.0001-.9856.2572-1.2276.6631-.2615.4392-.3929 1.1216-.3017 1.9912.1326 1.2634.7292 2.7905 1.8301 4.2012h.9111l-.4014-6.6582c-.2775-.1322-.5483-.1972-.8105-.1973M11.75 4.25h.5v-.5h-.5z"/>
</svg>
