<svg xmlns="http://www.w3.org/2000/svg" width="24" height="24" viewBox="0 0 24 24">
  <path fill="currentColor" d="M11 17h-1v-1h1zm3 0h-1v-1h1zm3-1h-1v-1h1zM7 14H6v-1h1zm3-1H9v-1h1zm3 0h-1v-1h1zm3 0h-1v-1h1zM9 9H8V8h1zm7 0h-1V8h1zm-3-1h-1V7h1zM9.10449 3.58789c1.27481-2.2488 4.51641-2.24905 5.79101 0 .3758.66273 1.1235 1.02257 1.876.90332 2.5529-.4055 4.5737 2.12865 3.6103 4.52735-.2838.70725-.0989 1.51734.4639 2.03124 1.9088 1.743 1.1877 4.9019-1.2881 5.6445-.7299.219-1.2488.8686-1.2998 1.6289-.1729 2.5792-3.0916 3.985-5.2158 2.5118-.6263-.4344-1.4576-.4342-2.084 0-2.12414 1.4728-5.04299.0673-5.21581-2.5118-.051-.7604-.56978-1.41-1.29981-1.6289-2.47575-.7424-3.19638-3.9013-1.28808-5.6445.56257-.514.74781-1.32411.46386-2.03124-.96364-2.39883 1.05725-4.93298 3.61036-4.52735.75235.1193 1.50008-.24079 1.87597-.90332m4.48531.73926c-.7-1.23489-2.4794-1.23465-3.1796 0-.68444 1.20729-2.0474 1.86326-3.41801 1.64551-1.40183-.22232-2.51128 1.16913-1.98242 2.48633.5173 1.28775.18089 2.76231-.84375 3.69821-1.04795.9574-.65256 2.6928.70703 3.1006 1.32932.3985 2.27234 1.5803 2.36523 2.9649.09498 1.4163 1.69867 2.1885 2.86522 1.3798 1.1405-.7906 2.6526-.7908 3.793 0 1.1666.8092 2.7702.0366 2.8652-1.3798.0929-1.3845 1.0361-2.5664 2.3653-2.9649 1.3595-.408 1.7554-2.1434.707-3.1006-1.0249-.9358-1.361-2.41034-.8438-3.69821.5286-1.31707-.5807-2.70852-1.9824-2.48633-1.3707.21771-2.7336-.43803-3.418-1.64551"/>
</svg>
