<svg xmlns="http://www.w3.org/2000/svg" width="24" height="24" viewBox="0 0 24 24">
  <path fill="currentColor" d="M11.6611.25c.408.00028.6919.25788.8213.39356.1564.16393.2928.36798.4082.56933.2344.40887.4606.94168.6573 1.49023.15.41846.2914.87415.4101 1.32129.5405-.36783 1.15-.73948 1.7139-1.03515.4271-.22394.8593-.42104 1.2314-.53321.1832-.05516.3894-.10135.5918-.10546.182-.00363.5114.02408.7744.28418.29.28698.31.66985.3067.85742-.0042.22635-.05.46722-.1094.6914-.1209.45566-.3351.99396-.5811 1.52246-.2561.55028-.572 1.13776-.8935 1.65625 1.0698.3249 1.8485 1.31914 1.8486 2.49512-.0001.44568-.1134.86468-.3105 1.23148.3222.4335.5145.9717.5146 1.5537-.0001.846-.4056 1.5959-1.0303 2.0722.0647.2273.1016.4667.1016.7139-.0002 1.4396-1.1678 2.6063-2.6074 2.6065-.2476-.0001-.4874-.0359-.7149-.1006-.142.1861-.3079.3522-.4941.4941.0647.2272.1015.4665.1016.7139-.0001 1.4396-1.1669 2.6071-2.6065 2.6074-1.4398 0-2.6073-1.1676-2.6074-2.6074a2.65 2.65 0 0 1 .00684-.1885c-.06116.0043-.1233.0097-.18555.0098-1.43955-.0002-2.60717-1.1669-2.60742-2.6065.00002-.4147.09917-.8062.27148-1.1543-1.21072-.225-2.12775-1.2846-2.12793-2.5605.00014-.5811.19135-1.1184.5127-1.5518-.19768-.3671-.30949-.7872-.30957-1.23338.00008-1.30461.95882-2.38271 2.20996-2.57422-.30437-.49861-.60065-1.05482-.84375-1.57715-.24596-.52848-.45921-1.0668-.58008-1.52246-.05945-.22422-.10623-.46501-.11035-.6914-.00335-.18753.01685-.57045.30664-.85742.24779-.24489.55525-.28267.73437-.28418.19388-.00155.38896.0367.55957.08398.34628.09604.74523.26943 1.13965.46875.48881.24703 1.01716.56121 1.51172.88184.08009-.35938.17053-.72203.26856-1.06348.15666-.54559.34156-1.07845.54296-1.48828.099-.2015.2187-.40955.3643-.57715.1223-.14075.3943-.40607.8095-.40625m-.6289 18.0889c-.2126.2019-.3446.4881-.3447.8037.0001.6113.496 1.1074 1.1074 1.1074.6112-.0003 1.1064-.4962 1.1065-1.1074a1.133 1.133 0 0 0-.0157-.1875c-.0536.0033-.1076.0087-.1621.0088-.6458 0-1.2359-.2362-1.6914-.625M9.00879 15.25c-.61122.0002-1.10733.4962-1.10742 1.1074.00025.6111.4963 1.1063 1.10742 1.1065.61106-.0003 1.10621-.4954 1.10641-1.1065-.0001-.6112-.49524-1.1071-1.10641-1.1074m3.71481 0c-.6114 0-1.1073.496-1.1074 1.1074.0003.6113.4961 1.1065 1.1074 1.1065.611-.0004 1.1062-.4955 1.1065-1.1065-.0001-.6111-.4954-1.107-1.1065-1.1074m2.1787-.3213c.2695.4105.4277.901.4278 1.4287 0 .0541-.0055.1078-.0088.1612.0608.0102.1235.0165.1875.0166.6111-.0002 1.1072-.4954 1.1074-1.1065 0-.064-.0063-.1266-.0166-.1875-.0536.0033-.1077.0088-.1621.0088-.5131-.0001-.9913-.1505-1.3945-.4062-.0462.0292-.0926.0586-.1407.0849m2.5342-2.7607c-.3558.1854-.759.2924-1.1875.2949.0041.0594.0098.1193.0098.1797 0 .3674-.0777.7171-.2149 1.0342.1223.0464.255.0731.3936.0732.611-.0004 1.1072-.4964 1.1074-1.1074-.0001-.17-.0398-.3308-.1084-.4746m-11.28513 0c-.06848.1438-.10635.3047-.10645.4746.00021.6113.49609 1.1064 1.10742 1.1064.13808-.0001.26978-.0262.39161-.0722-.13717-.317-.21383-.6669-.21387-1.0342.00002-.0604.00473-.1203.00879-.1797-.42843-.0026-.83172-.1094-1.1875-.2949m3.78613-.6328c-.61115.0001-1.10712.4963-1.10742 1.1074.00015.6112.49617 1.1063 1.10742 1.1064.6111-.0003 1.1063-.4953 1.1064-1.1064-.0003-.6111-.4954-1.1072-1.1064-1.1074m3.7148 0c-.6112 0-1.1071.4962-1.1074 1.1074.0002.6113.4961 1.1064 1.1074 1.1064.611-.0004 1.1063-.4954 1.1065-1.1064-.0003-.611-.4956-1.107-1.1065-1.1074M7.35547 8.75c-.6114 0-1.10733.49604-1.10742 1.10742.00025.61128.49612 1.10648 1.10742 1.10648.61092-.0005 1.10619-.4955 1.10644-1.10648-.00009-.61111-.49542-1.10698-1.10644-1.10742m8.87893 0c-.1764 0-.3432.04183-.4912.11523-.0759.05556-.1537.10667-.2325.1543-.2348.20306-.3837.50318-.3837.83789.0002.61128.4961 1.10648 1.1074 1.10648.611-.0004 1.1062-.4954 1.1064-1.10648-.0001-.61118-.4953-1.1071-1.1064-1.10742m-4.4395-.45996c-.6113 0-1.1072.49612-1.1074 1.10742.0002.61134.4961 1.10644 1.1074 1.10644.6111-.0003 1.1063-.4953 1.1065-1.10644-.0002-.61112-.4954-1.10713-1.1065-1.10742m5.1602-4.24024c-.1788.07605-.3838.17184-.6055.28809-.7038.36909-1.4951.87571-2.0801 1.3125.008.09122.0149.17829.0166.25977.0147.68944-.211 1.30318-.5127 1.79296.0765.08925.146.18412.21.28321.2531-.03907.5161-.12237.75-.25879a2.62 2.62 0 0 1 .1572-.10254c.0707-.05243.1381-.11028.1992-.1748.3836-.40505.9914-1.39925 1.4551-2.39551.1719-.36934.3138-.71492.4102-1.00489m-9.9092-.00195c.09644.29032.23696.6368.40918 1.00684.46384.99651 1.0725 1.99058 1.45605 2.39551.20375.21486.46941.36192.74903.45214.06052-.08621.127-.16797.19726-.24609-.30228-.49209-.52332-1.10516-.49804-1.79004.00506-.13601.01827-.28899.03613-.4541-.58168-.40792-1.28027-.84096-1.89063-1.14941-.16705-.08442-.32108-.15618-.45898-.21485m4.6748-1.86914c-.1109.27051-.2247.60831-.333.98535-.295 1.02757-.5061 2.19198-.5283 2.79004-.0118.32278.0929.64212.2646.92578.2142-.05691.4389-.08984.6709-.08984.2438.00005.4794.03599.7031.09863.1809-.29694.2953-.63588.2881-.97851-.012-.55771-.2785-1.69288-.6494-2.72754-.1377-.38429-.2804-.72967-.416-1.00391"/>
</svg>
