<svg xmlns="http://www.w3.org/2000/svg" width="24" height="24" viewBox="0 0 24 24">
  <path fill="currentColor" d="M14.5391 4.14355c.4951-.59961 1.4267-.59961 1.9218 0l.0996.13868.1143.18261.2158.00782c.9236.032 1.4946 1.02106 1.0606 1.83691L17.8496 6.5l.1016.19043c.434.81585-.137 1.80491-1.0606 1.83691l-.2158.00684-.1143.18359c-.4895.78385-1.6315.78385-2.121 0l-.1143-.18359-.2158-.00684c-.9236-.032-1.4946-1.02106-1.0606-1.83691L13.1504 6.5l-.1016-.19043c-.434-.81585.137-1.80491 1.0606-1.83691l.2158-.00782.1143-.18261zM15.5 5.41016c-.2149.31734-.562.51766-.9443.54492.1673.34445.167.74433 0 1.08887.382.02721.7294.22794.9443.54492.2147-.31671.5617-.51744.9434-.54492-.1669-.34433-.1671-.74464 0-1.08887-.382-.02753-.7287-.22785-.9434-.54492m1-4.16016c3.4712 0 6.25 2.88713 6.25 6.4043-.0001 2.19414-1.0805 4.1348-2.7324 5.29.4669.9178.7324 1.9554.7324 3.0557 0 3.7279-3.0221 6.75-6.75 6.75-3.4764 0-6.33752-2.6282-6.70801-6.0059-.0497.0014-.09944.0059-.14941.0059C3.84154 16.7498 1.25 13.9035 1.25 10.5c0-3.40346 2.59154-6.24984 5.89258-6.25 1.30898 0 2.51172.45347 3.48342 1.20996C11.4977 3.01184 13.7881 1.25 16.5 1.25m-2.5 9.5c-2.1776 0-4.04667 1.3254-4.8418 3.2139.21465-.2828.54972-.4773.9512-.4912l.2158-.0079.1143-.1826.0996-.1386c.4951-.5997 1.4267-.5997 1.9218 0l.0996.1386.1143.1826.2158.0079c.9236.032 1.4946 1.021 1.0606 1.8369l-.1016.1904.1016.1904c.434.8159-.137 1.8049-1.0606 1.8369l-.2158.0069-.1143.1836c-.4895.7838-1.6315.7838-2.121 0l-.1143-.1836-.2158-.0069c-.92361-.032-1.49465-1.021-1.06057-1.8369l.10156-.1904-.10156-.1904c-.09873-.1856-.14408-.3801-.14649-.5703C8.80279 15.1431 8.75 15.5654 8.75 16c0 2.8995 2.3505 5.25 5.25 5.25s5.25-2.3505 5.25-5.25-2.3505-5.25-5.25-5.25m-2.5 3.6602c-.2149.3173-.562.5176-.9443.5449.1673.3444.167.7443 0 1.0888.382.0273.7294.228.9443.545.2147-.3167.5617-.5175.9434-.545-.1669-.3443-.1671-.7446 0-1.0888-.382-.0275-.7287-.2279-.9434-.5449M7.14258 5.75c-1.38049.00009-2.63692.70037-3.44922 1.80957.12787-.0502.26707-.08175.41602-.08691l.21582-.00782.11425-.18261.09961-.13868c.49515-.59961 1.42673-.59961 1.92188 0l.09961.13868.11425.18261.21582.00782c.92359.032 1.49463 1.02106 1.06055 1.83691L7.84961 9.5l.10156.19043c.43407.81587-.13696 1.80487-1.06055 1.83687l-.21582.0069-.11425.1836c-.48951.7838-1.63159.7838-2.1211 0l-.11425-.1836-.21582-.0069c-.92359-.032-1.49463-1.021-1.06055-1.83687L3.15039 9.5l-.10156-.19043c-.04248-.07983-.07284-.16205-.09668-.24414C2.82069 9.51601 2.75 9.99759 2.75 10.5c0 2.6715 2.01323 4.7498 4.39258 4.75.05038 0 .10044-.004.15039-.0059.24716-2.2178 1.56785-4.1111 3.43163-5.1474-.304-.75393-.4746-1.57829-.4746-2.4424 0-.16458.0076-.32767.0195-.48926C9.46591 6.28428 8.357 5.75 7.14258 5.75m9.35742-3c-2.604 0-4.75 2.17624-4.75 4.9043 0 .6622.1291 1.29157.3584 1.86621C12.7087 9.34554 13.3432 9.25 14 9.25c2.09 0 3.9581.9498 5.1963 2.4414 1.237-.8825 2.0536-2.35777 2.0537-4.0371 0-2.72806-2.146-4.9043-4.75-4.9043m-11 5.66016c-.21487.31734-.56204.51766-.94434.54492.16733.34445.16707.74433 0 1.08882.38205.0273.72942.228.94434.545.21474-.3167.56169-.5175.94336-.545-.16682-.34428-.16707-.74459 0-1.08882-.38191-.02753-.72867-.22785-.94336-.54492"/>
</svg>
