<svg xmlns="http://www.w3.org/2000/svg" width="24" height="24" viewBox="0 0 24 24">
  <path fill="currentColor" d="M21.4092 7.75c.2084 0 .4079.08661.5498.23926.1418.15263.2134.35765.1982.56543-.0848 1.15662-.242 3.04141-1.0078 4.64351-.3889.8136-.9487 1.585-1.7607 2.1514-.7674.5351-1.719.8582-2.878.8965l-.2343.0039H7.72362l-.23437-.0039c-1.15892-.0382-2.11053-.3614-2.87793-.8965-.81204-.5664-1.37182-1.3378-1.76074-2.1514-.76584-1.6021-.92301-3.48688-1.00782-4.64351-.01519-.20779.05645-.4128.19825-.56543.14187-.15266.3414-.23923.5498-.23926zM3.40819 9.25c.10427 1.0465.30144 2.2675.7959 3.3018.3082.6445.71783 1.1859 1.26465 1.5673.54054.377 1.26235.6309 2.25488.6309h8.55278c.9925 0 1.7143-.2539 2.2548-.6309.5469-.3814.9565-.9228 1.2647-1.5673.4945-1.0343.6916-2.2553.7959-3.3018z"/>
</svg>
