<svg xmlns="http://www.w3.org/2000/svg" width="24" height="24" viewBox="0 0 24 24">
  <path fill="currentColor" d="M22 8.25c.4142 0 .75.33579.75.75 0 5.0026-3.4175 9.2057-8.0449 10.4053.6464.6737 1.0449 1.5872 1.0449 2.5947 0 .4142-.3358.75-.75.75H9c-.41421 0-.75-.3358-.75-.75 0-1.0072.39778-1.921 1.04395-2.5947C4.66697 18.2054 1.25 14.0023 1.25 9c0-.41421.33579-.75.75-.75zm-10 11.5c-.9793 0-1.81.6266-2.11914 1.5h4.23824c-.3091-.8734-1.1398-1.5-2.1191-1.5m-9.2168-10c.38189 4.7578 4.36074 8.5 9.2168 8.5 4.8561 0 8.8349-3.7422 9.2168-8.5z"/>
</svg>
