<svg xmlns="http://www.w3.org/2000/svg" width="24" height="24" viewBox="0 0 24 24">
  <path fill="currentColor" d="M16.5713 1.79297c.2188-.15235.5022-.17659.7441-.06445l1.4014.65039.7412-.38965.0684-.03125c.1629-.06576.3451-.07351.5136-.01855.1927.06298.3524.20268.4414.38476l.4454.90918 1.1504-.09473c.3055-.02486.5957.13865.7324.41309.1365.27477.0912.60527-.1133.83399l-1.5166 1.69433c.3613.58361.5702 1.27084.5703 2.00781 0 7.33851-6.4715 12.66191-13.63867 12.66211-1.35355 0-2.54758-.694-3.23731-1.7461l-2.01855.4629c-.28826.0658-.58875-.0441-.7666-.2803-.17783-.2365-.20014-.5566-.05664-.8154l.44043-.793-.66699-.7265c-.1467-.1601-.21594-.3761-.19141-.5918.0216-.1888.11321-.3619.25586-.4844l.06445-.0498.53223-.3652-.10645-1.2989c-.0225-.2756.10853-.5414.34082-.6914.2324-.1498.52872-.1605.77051-.0263l1.78027.9882c.70722-.7738 1.72782-1.2587 2.85938-1.2588 3.61697-.0001 5.91597-2.5635 5.91597-4.98531.0002-1.60645.9917-2.9774 2.3946-3.55078l-.169-2.06738c-.0217-.266.0995-.52407.3184-.67676M17.8887 5.75c-1.309.00019-2.3612 1.052-2.3614 2.33789 0 3.37231-3.0981 6.48521-7.41597 6.48531C6.80215 14.5733 5.75 15.626 5.75 16.9121c.00019 1.286 1.05227 2.3378 2.36133 2.3379C14.6092 19.2498 20.25 14.4473 20.25 8.08789c-.0002-1.28596-1.0523-2.33782-2.3613-2.33789M3.99707 15.6738c.02172.268-.10245.5267-.32422.6787l-.17773.1211.44824.4883c.16985.1852.23019.4384.17578.6748l.19238-.0439c-.03976-.2209-.0615-.4483-.06152-.6807 0-.4551.07969-.8913.22559-1.2959l-.50684-.2803zM17.9033 4.25c.8388.00311 1.6151.27369 2.2481.7295l.1982-.22071c-.2333-.04035-.4395-.18696-.5469-.40625l-.33-.67578-.3848.20313c-.2068.10867-.4541.11493-.666.0166l-.5694-.26563z"/>
</svg>
