<svg xmlns="http://www.w3.org/2000/svg" width="24" height="24" viewBox="0 0 24 24">
  <path fill="currentColor" d="M12 5.25c5.8137 0 10.75 4.00583 10.75 9.2002-.0001 1.2888-.3108 2.3334-.9453 3.1426-.6304.8039-1.5166 1.2942-2.5137 1.5996-1.944.5953-4.5845.5576-7.291.5576-2.70646 0-5.347.0377-7.29102-.5576-.99709-.3054-1.88324-.7957-2.51367-1.5996-.63449-.8092-.94525-1.8538-.94531-3.1426C1.25 9.25583 6.18631 5.25 12 5.25m3.7832 2.17383c-.0182.00703-.0453.01829-.0811.03222-.0727.02839-.181.07067-.3164.125-.2709.10879-.6536.26595-1.0976.45801a41.8 41.8 0 0 0-1.1543.52051c.0463.02592.0929.05105.1387.07715 1.104.62945 2.1324 1.57568 2.8623 2.32808.3708.3823.676.7277.8896.9776.1069.125.1912.2269.249.2978.0289.0355.0521.0638.0674.083.0074.0092.0135.0164.0176.0215.002.0026.0049.0069.0049.0069l.001.0019c.2213.2826.0441.6276-.3965.7695-.4404.1417-.9759.0274-1.1973-.2548l-.0019-.001s-.0017-.0023-.003-.0039c-.0031-.0039-.0082-.0105-.0146-.0186-.0132-.0164-.0334-.0411-.0596-.0732-.0529-.0649-.1308-.1606-.2314-.2783-.2018-.2361-.492-.5632-.8418-.9239-.7126-.7345-1.63-1.5617-2.5323-2.07614-.1268-.0723-.2561-.14473-.3877-.21582-.1314.071-.261.14361-.3877.21582-.902.51444-1.81878 1.34174-2.5312 2.07614-.34994.3608-.63998.6877-.8418.9239-.1007.1178-.17854.2134-.23145.2783-.02627.0322-.04739.0568-.06054.0732-.00635.008-.01059.0147-.01367.0186l-.00489.0049c-.22142.2823-.75781.3966-1.19824.2548-.44039-.142-.61779-.4869-.39648-.7695l.00195-.0019s.00294-.0044.00488-.0069c.0041-.0051.01026-.0123.01758-.0215.01535-.0192.03754-.0476.06641-.083.05778-.0708.14212-.1727.24902-.2978.21361-.2499.51968-.5951.89063-.9776.72984-.7524 1.75824-1.69863 2.8623-2.32808.0453-.02582.0909-.0515.1367-.07715-.40451-.18988-.79703-.36639-1.1533-.52051-.44374-.19195-.82584-.34924-1.09668-.45801-.03633-.01458-.07126-.02821-.10352-.04101C4.81335 8.81474 2.75 11.4841 2.75 14.4502c.00006 1.0442.24852 1.7354.62598 2.2168.38157.4865.96014.8421 1.77246 1.0908 1.67527.513 4.03517.4922 6.85156.4922s5.1763.0208 6.8516-.4922c.8123-.2487 1.3908-.6043 1.7724-1.0908.3775-.4814.6259-1.1726.626-2.2168 0-3.0625-2.2003-5.807-5.4639-7.02832zM12 6.75c-.7562 0-1.4866.07606-2.18359.21582.09349.03972.19109.07982.29099.12305.477.20635 1.0268.4537 1.5908.72656.5642-.27296 1.1147-.52015 1.5918-.72656.1651-.07139.3222-.13764.4688-.19922C13.1915 6.79932 12.604 6.75 12 6.75"/>
</svg>
