<svg xmlns="http://www.w3.org/2000/svg" width="24" height="24" viewBox="0 0 24 24">
  <path fill="currentColor" d="M12 6.25c2.8998 0 5.5561.83965 7.5068 2.23438 1.9493 1.39369 3.243 3.38612 3.2432 5.66502 0 1.1396-.3283 2.0681-.9854 2.7774-.6409.6915-1.5272 1.1009-2.5058 1.3544-1.9256.4989-4.5448.4688-7.2588.4688-2.71401 0-5.3332.0301-7.25879-.4688-.9786-.2535-1.86496-.6629-2.50586-1.3544-.65707-.7093-.98535-1.6378-.98535-2.7774.00017-2.2789 1.29391-4.27133 3.24316-5.66502C6.44393 7.08965 9.10019 6.25 12 6.25m-.1318 2.61914C10.5995 10.1378 9.39751 11.3554 8.38965 12.123c-.4996.3805-1.02061.7047-1.5293.8467-.54897.1531-1.16524.1062-1.64941-.3779-.44726-.4473-.56543-1.0535-.53028-1.6201.01699-.2735.0701-.5595.15235-.8526-1.33673 1.1342-2.08286 2.5475-2.08301 4.0303 0 .8345.23127 1.375.58594 1.7578.37115.4005.9502.7066 1.78125.9219C6.81086 17.2679 9.1913 17.25 12 17.25s5.1891.0179 6.8828-.4209c.8311-.2153 1.4101-.5214 1.7813-.9219.3546-.3828.5859-.9233.5859-1.7578-.0002-1.6695-.9455-3.2514-2.6152-4.4453-.1201-.08586-.2442-.16873-.3711-.25-.6721.6518-1.3029 1.234-1.8741 1.6689-.4995.3805-1.0206.7047-1.5292.8467-.549.1531-1.1653.1062-1.6495-.3779-.4472-.4473-.5654-1.0535-.5302-1.62012.0352-.56809.2258-1.19062.5117-1.81738.0504-.11048.1046-.22209.1621-.33496-.1354-.01387-.2718-.02641-.4092-.03614-.3488.35389-.7096.71841-1.0771 1.08594m-1.0577-1.06445c-1.3378.11988-2.58041.43711-3.6689.90625-.23568.37265-.43109.73126-.58398 1.0664-.24227.53126-.35995.96716-.37989 1.28716-.01987.3211.0604.4334.09375.4667.01553.0156.02051.0157.02051.0157.01077.002.06062.0069.16602-.0225.22869-.064.56613-.2464 1.02344-.5947.90687-.6907 2.02158-1.81652 3.32615-3.12111zm4.1094.27441c-.1393.24123-.2604.47486-.3623.69824-.2422.53122-.3599.96717-.3799 1.28716-.0198.3211.0604.4334.0938.4667.0155.0156.0205.0157.0205.0157.0108.002.0606.0069.166-.0225.2287-.064.5661-.2464 1.0234-.59471.4193-.31929.8813-.73317 1.3868-1.21387-.6051-.26153-1.2578-.4765-1.9483-.63672"/>
</svg>
