<svg xmlns="http://www.w3.org/2000/svg" width="24" height="24" viewBox="0 0 24 24">
  <path fill="currentColor" d="M10 9.25c2.4703 0 4.75 1.6529 4.75 4 0 .5775-.147 1.0923-.4834 1.5049-.3297.4041-.7769.6303-1.2266.7627-.8537.2513-1.9886.2324-3.04.2324-1.05139 0-2.18633.0189-3.04004-.2324-.4497-.1324-.89683-.3586-1.22656-.7627-.33644-.4126-.48339-.9274-.4834-1.5049 0-2.3471 2.27969-4 4.75-4m1.2832 1.7852c.3072.2295.5742.4841.7725.6884.149.1537.2726.2922.3584.3926.0428.0502.0769.0921.1005.1211.0118.0145.0228.026.0293.0342.0031.0039.005.0074.0069.0097l.0039.004c.2212.2825.0431.6275-.3975.7695-.4403.1417-.9758.0273-1.1972-.2549l-.002-.001s-.0019-.0034-.0039-.0058a1.5 1.5 0 0 0-.0205-.0254c-.0188-.0231-.0483-.0577-.085-.1006a7.33 7.33 0 0 0-.3086-.3389c-.2024-.2086-.433-.4199-.65621-.581-.22317.1611-.4539.3724-.65625.581-.12792.1319-.23368.2524-.30762.3389-.03675.043-.06611.0775-.08496.1006a3 3 0 0 0-.02051.0254c-.00192.0024-.0039.0058-.0039.0058l-.00196.001c-.22134.2823-.75694.3964-1.19726.2549-.4406-.142-.61882-.4869-.39746-.7695l.00097-.001.00196-.003a1 1 0 0 0 .00781-.0097c.00651-.0082.01662-.0199.02832-.0342.02367-.029.05774-.0709.10059-.1211.08577-.1003.20931-.2389.35839-.3926.1961-.2021.45963-.454.7627-.6816C7.40283 11.4852 6.75 12.3705 6.75 13.25c.00001.3199.07714.4728.14551.5566.07507.0921.21425.1908.48828.2715.59397.1748 1.45871.1719 2.61621.1719s2.0222.0029 2.6162-.1719c.274-.0807.4132-.1794.4883-.2715.0684-.0838.1455-.2367.1455-.5566 0-.9155-.7074-1.837-1.8584-2.2598-.0343.0143-.0707.0289-.1084.045M19.5 1.25c.6904 0 1.25.55964 1.25 1.25v19c0 .6904-.5596 1.25-1.25 1.25h-16c-.69036 0-1.25-.5596-1.25-1.25v-19c0-.69036.55965-1.25 1.25-1.25zm-15.75 20h11.5V2.75H3.75zm13 0h2.5V2.75h-2.5z"/>
</svg>
