<svg xmlns="http://www.w3.org/2000/svg" width="24" height="24" viewBox="0 0 24 24">
  <path fill="currentColor" d="M8 8.25c.41407.00008.74988.33594.75.75-.00012.41405-.33593.74991-.75.75-.6902.00009-1.24988.5598-1.25 1.25-.00012.4141-.33593.7499-.75.75-.41406-.0001-.74988-.3359-.75-.75C5.25012 9.48137 6.48137 8.25009 8 8.25m7 0c1.5186.00008 2.7499 1.23137 2.75 2.75-.0001.4141-.3359.7499-.75.75-.4141-.0001-.7499-.3359-.75-.75-.0001-.6902-.5598-1.24992-1.25-1.25-.4141-.00009-.7499-.33595-.75-.75.0001-.41406.3359-.74991.75-.75M9.46973 6.59082c1.46447-1.46427 3.83927-1.46437 5.30367 0 .2926.29278.2925.76768 0 1.06054-.2928.29284-.7676.29272-1.0605 0-.8786-.87858-2.3039-.87847-3.1826 0-.2929.29281-.76771.29287-1.06057 0-.29275-.29287-.29277-.76768 0-1.06054m-.77539-2.90235c1.41916-1.65961 2.88126-2.16676 4.22656-1.8291 1.0859.27276 1.9107 1.0585 2.4307 1.79395.7724-.14179 1.4608-.1227 2.0673.04199.7512.20404 1.3289.6156 1.7549 1.12012.6351.75228.9275 1.70014 1.0303 2.50097.8887.17562 1.5125.67741 1.9131 1.25586.4712.68064.6336 1.45874.6338 1.92674 0 1.3263-.5465 2.415-1.4434 3.1572-.8826.7303-2.0626 1.0926-3.3066 1.0928-.1987 0-.3897-.0784-.5303-.2187-.077-.0771-.1648-.1485-.2598-.2139-.7032.6961-1.268 1.8218-1.6855 3.0811-.4586 1.3837-.6994 2.8021-.7783 3.6699-.0192.2111-.1275.4049-.2969.5322-1.9777 1.483-4.0969.6017-4.89942 0-.18885-.1416-.2998-.3645-.2998-.6006-.00031-3.4786-1.61912-5.4864-2.51953-6.2539-1.66166-.0377-2.89391-.427-3.73731-1.0957-.90762-.7197-1.27723-1.6932-1.29297-2.6377-.01519-.9228.30381-1.82523.77442-2.50291.31589-.45456.76499-.89369 1.30371-1.11329.06799-.73667.26129-1.36365.56543-1.88574.38603-.6622.92397-1.11503 1.50879-1.40625.94885-.47208 2.01776-.52036 2.84082-.41504M15.4082 13.7549c-1.8786 1.6475-4.6956 1.6485-6.57421.001-.31759.0232-.56131.1105-.74219.2099 1.12017 1.1239 2.5394 3.2893 2.6504 6.6153.5888.3113 1.5868.5526 2.5498-.0118.114-.9624.3686-2.313.8096-3.6435.3611-1.0894.8712-2.2382 1.583-3.1436a4.12 4.12 0 0 0-.2764-.0273M12.5557 3.31445c-.6557-.16457-1.6711-.0151-2.96293 1.64551-.17784.22865-.47209.33414-.75488.27148-.64726-.14382-1.58255-.14967-2.31543.21485-.35205.17526-.65867.43566-.88183.81836-.22494.38612-.38952.93965-.38965 1.73437 0 .41389-.33623.74948-.75.75-.13831 0-.46106.13715-.79395.61621-.31024.44695-.51631 1.04557-.50683 1.62207.00933.5554.21459 1.0821.72558 1.4873.48721.3863 1.32264.7153 2.69629.7666.43383-.4923 1.22516-.9922 2.37891-.9922.0273.0001.05451.001.08105.0039.20494-.0108.41377.0603.57032.2168 1.36385 1.3635 3.57465 1.3635 4.93845 0 .1599-.1597.374-.2295.583-.2148a.75.75 0 0 1 .0918-.0059c.3584.0001.9144.0599 1.4961.2305.486.1426 1.0357.3788 1.5088.7598.8475-.0477 1.5689-.3165 2.0801-.7393.5501-.4554.9004-1.1188.9004-2.001-.0003-.1993-.0893-.67072-.3672-1.07225-.2509-.36236-.6566-.67745-1.3828-.67773-.4142 0-.75-.33579-.75-.75-.0002-.68101-.2032-1.59935-.7237-2.21582-.2487-.29454-.5716-.52388-1.0009-.64063-.4353-.11818-1.0299-.13377-1.8321.08106-.3322.08888-.6825-.05968-.8496-.36035-.3672-.66072-1.0283-1.35762-1.789-1.54883"/>
</svg>
