<svg xmlns="http://www.w3.org/2000/svg" width="24" height="24" viewBox="0 0 24 24">
  <path fill="currentColor" d="M17.0908 9.95605c.414.00015.7499.33595.75.75005v1.4658c1.244.3224 2.1814 1.4248 2.1817 2.7695-.0004 1.3446-.9379 2.446-2.1817 2.7686v.5839c-.0002 2.0708-1.6792 3.7499-3.75 3.75H9.90918c-2.07086-.0001-3.74979-1.6791-3.75-3.75V17.71c-1.24364-.3227-2.18132-1.4241-2.18164-2.7686.00021-1.3447.93777-2.4471 2.18164-2.7695v-1.4658c.00011-.4141.33594-.74995.75-.75005zM7.65918 18.2939c.00021 1.2424 1.00757 2.2499 2.25 2.25h4.18162c1.2424-.0001 2.2498-1.0076 2.25-2.25v-6.8378H7.65918zm-1.5-4.5166c-.41346.2443-.68147.6819-.68164 1.1641.00025.4822.26808.9209.68164 1.165zm11.68162 2.3291c.4136-.2441.6814-.6828.6817-1.165-.0002-.4821-.2683-.9198-.6817-1.1641zM13.0762 6.07715c.2929-.29289.7686-.29289 1.0615 0 .8443.84521.8448 2.21563 0 3.06055-.2928.29267-.7686.29252-1.0615 0-.2929-.29286-.2928-.76863 0-1.06153.2591-.25925.2589-.67908 0-.93847-.2927-.29274-.2924-.76765 0-1.06055m-2.9991-2.24317c.293-.29258.7678-.29278 1.0606 0 .2922.29284.2924.76782 0 1.06055-.5436.54362-.5435 1.42509 0 1.96875.2922.29295.2927.76885 0 1.06153-.2926.2924-.7676.29186-1.0606 0-1.12938-1.12944-1.12934-2.96137 0-4.09083m1.5137-2.36425c.2928-.29275.7676-.29246 1.0606 0 1.1798 1.18022 1.1801 3.09433 0 4.27441-.2929.29234-.7678.29242-1.0606 0-.2926-.29275-.2924-.76765 0-1.06055.5943-.59429.5941-1.55888 0-2.15332-.2924-.29289-.2926-.76779 0-1.06054"/>
</svg>
