<svg xmlns="http://www.w3.org/2000/svg" width="24" height="24" viewBox="0 0 24 24">
  <path fill="currentColor" d="M14 1.25c.1615 0 .3188.05196.4482.14844l.8584.64062.7032-.60644c.1362-.11751.3103-.18262.4902-.18262h1c.6904 0 1.25.55964 1.25 1.25v8c0 .178-.0384.3467-.1055.5.0671.1533.1055.322.1055.5v2c0 .6904-.5596 1.25-1.25 1.25h-2.75v6.75c0 .6904-.5596 1.25-1.25 1.25h-3c-.69036 0-1.25-.5596-1.25-1.25v-6.75H6.5c-.69036 0-1.25-.5596-1.25-1.25v-2c0-.1778.03754-.3468.10449-.5a1.245 1.245 0 0 1-.10449-.5v-8c0-.69036.55964-1.25 1.25-1.25zm-3.25 20h2.5v-6.5h-2.5zm-4-8h10.5v-1.5H6.75zm0-3h1.5459c-.02787-.0785-.0459-.162-.0459-.25V5c0-.41421.33579-.75.75-.75s.75.33579.75.75v5c0 .088-.01803.1715-.0459.25h1.5918c-.0279-.0785-.0459-.162-.0459-.25V5c0-.41421.3358-.75.75-.75s.75.33579.75.75v5c0 .088-.018.1715-.0459.25h1.5918c-.0279-.0785-.0459-.162-.0459-.25V5c0-.41421.3358-.75.75-.75s.75.33579.75.75v5c0 .088-.018.1715-.0459.25H17.25v-7.5h-.4717l-.9472.81738c-.2663.22972-.6566.24435-.9385.03418L13.751 2.75H6.75z"/>
</svg>
