<svg xmlns="http://www.w3.org/2000/svg" width="24" height="24" viewBox="0 0 24 24">
  <path fill="currentColor" d="M12 7.25c.4142 0 .75.33579.75.75s-.3358.75-.75.75c-3.50511 0-6.25 2.6258-6.25 5.75-.00007.4142-.33583.75-.75.75s-.74993-.3358-.75-.75c0-4.0554 3.52312-7.25 7.75-7.25m0-3c5.919 0 10.75 4.68332 10.75 10.5 0 1.4474-.3016 2.6096-.916 3.5137-.6179.9089-1.4991 1.4797-2.5127 1.8379-1.0022.354-2.161.5109-3.3838.5839-1.2243.0732-2.5675.0645-3.9375.0645s-2.71316.0087-3.9375-.0645c-1.22277-.073-2.38165-.2299-3.38379-.5839-1.01363-.3582-1.89481-.929-2.51269-1.8379-.61441-.9041-.91599-2.0663-.91602-3.5137 0-5.81668 4.83097-10.5 10.75-10.5m0 1.5c-5.12666 0-9.25 4.04735-9.25 9 .00003 1.2446.2587 2.0849.65625 2.6699.39409.5799.97679.9855 1.77246 1.2666.80742.2853 1.80375.4311 2.97363.501 1.16842.0698 2.45626.0625 3.84766.0625s2.6792.0073 3.8477-.0625c1.1698-.0699 2.1662-.2157 2.9736-.501.7957-.2811 1.3784-.6867 1.7725-1.2666.3975-.585.6562-1.4253.6562-2.6699 0-4.95265-4.1233-9-9.25-9"/>
</svg>
