<svg xmlns="http://www.w3.org/2000/svg" width="24" height="24" viewBox="0 0 24 24">
  <path fill="currentColor" d="M18.3408 2.76758c.2023-.04391.4158-.00253.5879.11719.7903.55036 2.168 2.08842 2.374 4.3789.348.13397.6754.33947.9561.62012a.7516.7516 0 0 1 .2139.4375c.2631 2.12021.0601 5.31611-1.4532 8.01371-1.5179 2.7055-4.3165 4.8308-9.0185 4.9101v.0049c-.0456 0-.0916-.0025-.1367-.0029-.0453.0003-.0912.0029-.1368.0029v-.0049c-4.7021-.0792-7.50055-2.2046-9.01852-4.9101-1.5133-2.6976-1.71628-5.8934-1.45312-8.01371a.7504.7504 0 0 1 .21386-.4375c.38553-.38548.85777-.63054 1.35352-.73926.32293-1.0414.55209-2.62936 2.26074-3.76855l.06739-.04004a.751.751 0 0 1 .53027-.06348c.70747.17691 1.42416.55598 2.11816 1.04981C9.04718 3.63858 10.4795 3.25004 12 3.25c1.3699.00004 2.6689.31514 3.8252.87793.9166-.63155 1.7819-1.1127 2.4297-1.33691zM4.29785 8.94434c-.43087-.43055-1.09779-.481-1.58398-.15137-.18329 1.89903.05524 4.58483 1.30273 6.80863 1.26445 2.2536 3.60151 4.1063 7.8467 4.1455.4746-.0044.9254-.0304 1.3535-.0782l-.1992-.1992c.5091-.5096.5083-1.3362-.001-1.8457-.0865-.0864-.1826-.1577-.2842-.2148l-.0195.0205c-.0181-.0181-.0343-.0382-.0518-.0567-.4858-.2346-1.086-.1518-1.4892.251l-1.0606-1.0605c.5091-.5096.5084-1.3362-.001-1.8457-.50944-.5092-1.33511-.5091-1.84468 0l-1.06054-1.0606c.50911-.5096.50837-1.3362-.00098-1.8457-.50949-.5091-1.33519-.509-1.84473 0L4.29883 10.751c.00632-.0063.01316-.0123.01953-.0186l-.02051-.0205c.488-.4881.488-1.27943 0-1.76756m16.71675-.15137c-.4863-.32988-1.154-.27946-1.5849.15137-.488.48803-.4878 1.27946 0 1.76756l-1.0606 1.0615-.0947-.0859c-.4909-.4005-1.2151-.3716-1.6728.0859-.4879.4882-.4881 1.2796 0 1.7676l-1.0606 1.0606-.0947-.086c-.4909-.4005-1.2152-.3716-1.6729.086-.436.436-.4815 1.1128-.1386 1.6006.1564.103.3047.2237.4423.3613.7627.7627.9927 1.8551.6934 2.8183 2.4681-.6526 4.0016-2.1051 4.9414-3.7802 1.2474-2.2237 1.486-4.9096 1.3027-6.80863M5.63965 4.82715c-.82662.66583-.97898 1.42046-1.27539 2.42285.36247.1333.70408.34276.99511.63379.56382.56397.82819 1.31213.79981 2.05078.75794-.03291 1.52666.23783 2.10547.81643.57466.5747.84465 1.3369.8164 2.0898.75288-.0285 1.51505.2418 2.08985.8164.4072.4073.6621.909.7666 1.4346.0817-.5674.3389-1.1143.7754-1.5508.1093-.1093.2269-.2059.3486-.293-.2013-.3949-.4428-.7782-.7295-1.1992-.4015-.5895-.9202-1.2941-1.4638-2.1445-.7664-1.19884-1.7295-2.40068-2.73148-3.35547-.88757-.8457-1.75225-1.447-2.49707-1.72168m12.72945-.46289c-.7366.33946-1.8126 1.01909-2.9209 1.91895-1.1712.95105-2.304 2.08633-3.0566 3.20898.4259.64201.8085 1.16691 1.1797 1.71191.3383.4967.6499.9912.9131 1.5391a2.74 2.74 0 0 1 .2549-.0039c-.0218-.7311.2438-1.4694.8017-2.0274.5578-.5576 1.2957-.82242 2.0264-.80076-.0219-.73108.2438-1.46933.8017-2.02735.3993-.3992.8912-.64957 1.4063-.75195-.1952-1.32751-.895-2.28288-1.4063-2.76758M12 4.75c-1.0439.00003-2.03342.22383-2.92871.62012.03324.03111.06758.06133.10058.09277.83363.7944 1.63113 1.73213 2.32613 2.69922.8221-1.09365 1.8878-2.13083 2.9405-2.99219C13.6772 4.89819 12.8562 4.75003 12 4.75"/>
</svg>
