<svg xmlns="http://www.w3.org/2000/svg" width="24" height="24" viewBox="0 0 24 24">
  <path fill="currentColor" d="M12.5 6.25c.6904 0 1.25.55965 1.25 1.25v2.75h5.75c.6904 0 1.25.5596 1.25 1.25v6.75H22c.4142 0 .75.3358.75.75 0 1.5188-1.2312 2.75-2.75 2.75H4c-1.51878 0-2.75-1.2312-2.75-2.75 0-.4142.33579-.75.75-.75h1.25V11.5c0-.6904.55965-1.25 1.25-1.25h5.75V7.5c0-.69035.5596-1.25 1.25-1.25zm-9.49805 13.5c.2281.303.58954.5.99805.5h16c.4085 0 .77-.197.998-.5zM4.75 18.25h14.5v-6.5H4.75zm7-8h.5v-2.5h-.5zm.25-9c.4396 0 .7584.24722.9482.45312.1962.21275.3435.47351.4512.71583.2124.4779.3505 1.06335.3506 1.50683C13.75 4.88182 13.016 5.75 12 5.75s-1.75-.86818-1.75-1.82422c.0001-.43997.1378-1.02513.3496-1.50293.1075-.2425.2544-.50442.4502-.71777.1891-.20602.5088-.45508.9502-.45508m-.0283 1.78027c-.1452.32742-.2216.70548-.2217.89551 0 .23022.1614.32422.25.32422s.25-.094.25-.32422c-.0001-.19454-.0761-.5721-.2207-.89746-.0086-.01933-.0189-.03707-.0273-.05469-.0089.01848-.0213.03628-.0303.05664"/>
</svg>
