<svg xmlns="http://www.w3.org/2000/svg" width="24" height="24" viewBox="0 0 24 24">
  <path fill="currentColor" d="M16.5 6.25c.6904 0 1.25.55964 1.25 1.25v1.46387c1.5008.15622 2.5129.57291 3.1475 1.30073.618.7091.7578 1.592.8281 2.3438.1067.184.1689.397.1689.625V20.75c-.0002.69-.56 1.2497-1.25 1.25H3.30273c-.6902 0-1.24975-.5599-1.25-1.25v-7.5166c0-.6904.55965-1.25 1.25-1.25h.23145L14.25 8.99609V7.5c0-.69036.5596-1.25 1.25-1.25zM3.55273 13.5352V20.5H20.3945v-7.0166H3.74023zM17.75 10.5c0 .6904-.5596 1.25-1.25 1.25h-1c-.673 0-1.2209-.5319-1.248-1.1982l-5.13286 1.4316H20.1143c-.0731-.3031-.1778-.5385-.3477-.7334-.2676-.3067-.8054-.6313-2.0166-.7783zm-2-.25h.5v-2.5h-.5zm.25-9c.4396 0 .7584.24722.9482.45312.1962.21275.3435.4735.4512.71583.2124.4779.3505 1.06335.3506 1.50683C17.75 4.88182 17.016 5.75 16 5.75s-1.75-.86818-1.75-1.82422c.0001-.43997.1378-1.02513.3496-1.50293.1075-.24251.2544-.50442.4502-.71777.1891-.20602.5088-.45508.9502-.45508m-.0283 1.78027c-.1452.32743-.2216.70548-.2217.89551 0 .23022.1614.32422.25.32422s.25-.094.25-.32422c-.0001-.19454-.0761-.5721-.2207-.89746-.0086-.01933-.0189-.03707-.0273-.05469-.0089.01849-.0213.03628-.0303.05664"/>
</svg>
