<svg xmlns="http://www.w3.org/2000/svg" width="24" height="24" viewBox="0 0 24 24">
  <path fill="currentColor" d="M13.5 11.25c.6904 0 1.25.5596 1.25 1.25v7c0 .6904-.5596 1.25-1.25 1.25h-3c-.69035 0-1.25-.5596-1.25-1.25v-7c0-.6904.55965-1.25 1.25-1.25zm-2.75 8h2.5v-6.5h-2.5zm8.3096-5.8799c.6903 0 1.2499.5597 1.25 1.25v4.1201c-.0002.6903-.5598 1.25-1.25 1.25H17.5c-.6903 0-1.2499-.5597-1.25-1.25v-4.1201c.0001-.6903.5597-1.25 1.25-1.25zM17.75 18.4902h1.0596v-3.6201H17.75zM6.5 12.25c.69035 0 1.25.5596 1.25 1.25v5c0 .6904-.55965 1.25-1.25 1.25h-2c-.69035 0-1.25-.5596-1.25-1.25v-5c0-.6904.55965-1.25 1.25-1.25zm-1.75 6h1.5v-4.5h-1.5zm13.5293-11c.4795 0 .8369.26928 1.0605.51172.2299.24933.4064.56185.5391.86035.2623.59027.4306 1.31007.4307 1.84273 0 1.1222-.8597 2.125-2.0303 2.125-1.1703-.0004-2.0293-1.0031-2.0293-2.125.0001-.52818.1679-1.2483.4297-1.83882.1325-.29883.3096-.61125.5391-.86133.2227-.24266.5795-.51439 1.0605-.51465m.001 1.58203c-.0698.09017-.1507.2246-.2295.40235-.195.44001-.3007.95222-.3008 1.23042 0 .396.2862.6246.5293.625.2432 0 .5303-.2287.5303-.625-.0001-.2839-.1062-.79657-.3008-1.23433-.0784-.17634-.1592-.30916-.2285-.39844M5.60059 5.25c.52497.00022.92443.29493 1.18652.5791.26854.29123.4803.66152.6416 1.02442.31941.71875.52136 1.59278.52149 2.22753-.00001 1.31175-1.00254 2.46845-2.34961 2.46875-1.34738 0-2.35059-1.1568-2.35059-2.46875.00013-.62904.20254-1.50329.52148-2.22265.16109-.36325.37259-.73429.64063-1.02637.2614-.28467.66171-.58203 1.18848-.58203M5.5166 6.84668c-.1175.12812-.24952.33936-.37402.62012-.25216.56885-.39243 1.23526-.39258 1.61425 0 .58611.43065.96875.85059.96875.41974-.0004.8496-.38292.84961-.96875-.00015-.38589-.14098-1.05195-.39258-1.61816-.1244-.27985-.25591-.49015-.37305-.61719-.03497-.0379-.06327-.06104-.08301-.07617-.01983.01521-.04937.0384-.08496.07715M12 3.25c.5825 0 1.0353.32748 1.3457.66406.3167.34351.5715.7853.7686 1.22852.391.87975.6357 1.94746.6357 2.70996C14.7498 9.40152 13.5681 10.75 12 10.75S9.25025 9.40151 9.25 7.85254c0-.75509.24527-1.82243.63574-2.70313.19676-.4437.45046-.88682.76656-1.23144C10.9619 3.5806 11.4158 3.25 12 3.25m-.0088 1.50195c-.0073.00205-.0219.00692-.043.01856-.0442.02447-.1094.07291-.1904.16113-.1658.18067-.3406.46458-.501.82617-.3237.73025-.5068 1.58984-.5068 2.09473.0002.8231.6093 1.39746 1.25 1.39746s1.2498-.57436 1.25-1.39746c0-.51348-.1836-1.37331-.5068-2.10059-.1601-.36014-.3347-.64198-.5-.82129-.0808-.0876-.1462-.13585-.1905-.16015-.0209-.01149-.0354-.01646-.0429-.01856C12.0029 4.75007 12 4.75 12 4.75h-.002s-.0034.001-.0068.00195"/>
</svg>
