<svg xmlns="http://www.w3.org/2000/svg" width="24" height="24" viewBox="0 0 24 24">
  <path fill="currentColor" d="M11.6611.25c.408.00018.6918.25784.8213.39356.1563.16389.2918.36805.4073.56933.2344.40891.4614.94154.6582 1.49023.15.41846.2914.87415.4101 1.32129.5405-.36783 1.15-.73948 1.7139-1.03515.4271-.22394.8593-.42104 1.2314-.53321.1832-.05516.3894-.10135.5918-.10546.182-.00363.5114.02412.7744.28418.2899.28698.31.66986.3067.85742-.0041.22637-.0509.4672-.1104.6914-.1208.45565-.3341.994-.5801 1.52246-.4836 1.03909-1.175 2.21344-1.7294 2.79883-.6026.63598-1.3974.91939-2.1045.99805.5877.97527 1.071 2.27777 1.0693 3.70507-.0019 1.4116-.4328 3.8282-.9717 5.8555-.2711 1.0198-.5797 1.9801-.8926 2.6933-.1545.3522-.3254.6785-.5117.9258-.0928.1233-.2095.2537-.3535.3565-.1427.1017-.3647.2125-.6484.1963l-.1035-.0118c-.2363-.0389-.4229-.1576-.5489-.2646-.1437-.1223-.2584-.2684-.3476-.4033-.179-.2709-.3368-.6192-.4795-.9883-.2891-.7478-.56837-1.7411-.8135-2.7881-.48959-2.0912-.87663-4.5319-.9375-5.916-.05983-1.3631.34602-2.5629.87793-3.46291-.54079-.14394-1.09694-.42064-1.54688-.89551-.55442-.58538-1.24588-1.75974-1.72949-2.79883-.24594-.52846-.45921-1.06681-.58008-1.52246-.05944-.2242-.10623-.46503-.11035-.6914-.00335-.18756.01674-.57044.30664-.85742.24763-.24482.55419-.28262.7334-.28418.19414-.00163.38971.03663.56055.08398.34631.09602.74516.2694 1.13964.46875.48861.24693 1.01637.56136 1.51075.88184.0801-.35945.17149-.72196.26953-1.06348.15666-.54563.34156-1.07844.54296-1.48828.0991-.20157.2187-.4095.3643-.57715.1222-.14075.394-.40617.8095-.40625m-.1367 8.95605c-.2139.17063-.4672.44305-.707.80465-.4804.7247-.85842 1.7371-.8086 2.8711.0285.6471.1412 1.5831.3076 2.6182H12.25c.4142 0 .7499.3359.75.75-.0001.4141-.3358.75-.75.75h-1.667c.0996.5091.2086 1.0207.3242 1.5146.2387 1.0193.4977 1.9314.7481 2.5792.0359.093.0713.1775.1045.2539.0382-.077.0792-.1634.1211-.2588.271-.6179.5576-1.4994.8203-2.4873.4194-1.5781.7504-3.3347.8711-4.6016H11.75c-.4142 0-.7499-.3359-.75-.75.0001-.4141.3358-.75.75-.75h1.834c-.1123-.9026-.4553-1.7306-.8594-2.3721-.2472-.39232-.5053-.69492-.7217-.89157-.056-.05088-.1068-.09121-.1504-.12305l-.0009.00098c-.0591-.00002-.1173-.00692-.1748-.01563-.0441.02677-.0953.06194-.1524.10742m1.7012-.80957c.0053.00566.0103.01187.0156.01758l.0068-.03906c-.0072.00737-.0151.01421-.0224.02148m3.7295-4.34668c-.1788.07606-.3837.1718-.6055.28809-.7038.36909-1.495.87569-2.0801 1.3125.008.09121.0149.17829.0166.25977.0179.84301-.3234 1.57252-.7246 2.10058.4861.01762 1.1253-.13534 1.5283-.56054.3836-.40506.9914-1.39922 1.4551-2.39551.1719-.36941.3138-.71488.4102-1.00489m-9.91018-.00195c.09643.2903.23796.63683.41016 1.00684.46375.99629 1.07152 1.99045 1.45508 2.39551.30821.32518.75826.49528 1.18454.54589-.41475-.53507-.76684-1.27597-.73532-2.12988.00506-.13602.01827-.28898.03613-.4541-.58167-.40792-1.28026-.84095-1.89063-1.14941-.1672-.08449-.32195-.15615-.45996-.21485m4.67578-1.86914c-.1109.27059-.2257.60817-.334.98535-.295 1.02758-.5051 2.19199-.5273 2.79004-.0161.43903.1822.87222.4736 1.2168.1341.15855.2747.27951.3916.35937.0129.00031.0261-.00074.0391 0 .0428.00247.0846.00985.126.01661l.0029-.00098c.1203-.0803.2678-.21042.4101-.38281.2901-.35152.493-.79911.4834-1.25293-.012-.55771-.2785-1.69288-.6494-2.72754-.1377-.38424-.2804-.72968-.416-1.00391"/>
</svg>
