<svg xmlns="http://www.w3.org/2000/svg" width="24" height="24" viewBox="0 0 24 24">
  <path fill="currentColor" d="M20 12.25c.9665 0 1.75.7835 1.75 1.75 0 .085-.0078.1683-.0195.25H22c.4142 0 .75.3358.75.75v4c0 2.0711-1.6789 3.75-3.75 3.75H5c-2.07107 0-3.75-1.6789-3.75-3.75v-4c0-.4142.33579-.75.75-.75h.26953c-.0117-.0817-.01953-.165-.01953-.25 0-.9665.7835-1.75 1.75-1.75zM2.75 19c0 1.2426 1.00736 2.25 2.25 2.25h2.25V18c0-.4142.33579-.75.75-.75s.75.3358.75.75v3.25h2.5V18c0-.4142.3358-.75.75-.75s.75.3358.75.75v3.25h2.5V18c0-.4142.3358-.75.75-.75s.75.3358.75.75v3.25H19c1.2426 0 2.25-1.0074 2.25-2.25v-3.25H2.75zM4 13.75c-.13807 0-.25.1119-.25.25s.11193.25.25.25h16c.1381 0 .25-.1119.25-.25s-.1119-.25-.25-.25zm7.9434-4.89453c.4206.00001.7617.34105.7617.76172-.0001.25105-.1232.47161-.3106.61031.0179.0178.0356.036.0518.0557.0539.0655.2714.1725.5752.0596.241-.0897.4569-.3012.457-.72561 0-.41419.3358-.74997.75-.75.4142.00007.75.33584.75.75-.0001 1.09851-.6516 1.83961-1.4346 2.13091-.5076.1887-1.1358.2012-1.663-.0508-1.2227.643-2.97256-.2726-2.9727-2.08011.00001-.41419.33582-.74997.75-.75.4142 0 .75.33579.75.75.0001.46481.2184.65971.3994.73241.2318.0931.4136.0137.4795-.0664.0373-.0453.0791-.0863.125-.1211-.1419-.1383-.2304-.33112-.2305-.54491 0-.42067.3411-.76172.7618-.76172m4.0683-7.41308c.1846-.16619.4423-.23157.6875-.16895.2802.07161.4939.2983.5498.58203.6778 3.43997.6574 5.37141 0 8.66993-.081.4061-.4757.6697-.8818.5889-.4061-.081-.6697-.4757-.5889-.8819.5111-2.56447.6124-4.19317.2735-6.50779l-.8663 1.04102c-.1424.17086-.3537.26951-.5761.26953H9.6582a.75.75 0 0 1-.53027-.21973L7.89746 3.58497c-.2462 2.02861-.1921 3.72609.21875 6.69043.05685.4101-.22961.7886-.63965.8457-.41029.0569-.78981-.2294-.84668-.6396-.52239-3.76913-.49176-5.65374.00391-8.60552.0465-.27688.24333-.50529.51074-.59082.2674-.08551.56025-.01392.75879.18457l2.06543 2.06543h4.28905l1.6797-2.01562zm-5.5918 5.12793c.4207 0 .7617.34104.7617.76172 0 .4206-.3411.76171-.7617.76171-.42059-.00002-.76162-.34112-.7617-.76171.00001-.42066.34107-.7617.7617-.76172m3.0469 0c.4206.00003.7617.34106.7617.76172-.0001.42059-.3411.76169-.7617.76171-.4206 0-.7616-.34111-.7617-.76171 0-.42068.341-.76172.7617-.76172"/>
</svg>
