<svg xmlns="http://www.w3.org/2000/svg" width="24" height="24" viewBox="0 0 24 24">
  <path fill="currentColor" d="M11.9316 18.25c.5048 0 .9141.4107.9141.917-.0001.3585-.2057.6678-.5049.8184.028.0251.055.0515.0791.081.1165.1422.4511.2672.8565.1162.3427-.1278.6473-.4349.6474-1.0156 0-.4141.336-.7498.75-.75.4142.0001.75.3358.75.75-.0001 1.2521-.7369 2.0914-1.623 2.4219-.6031.2247-1.3451.2272-1.9483-.0909-1.3705.7856-3.41283-.2305-3.41305-2.331 0-.4141.336-.7498.75-.75.41422 0 .75.3358.75.75.0002 1.2469 1.08965 1.1797 1.32035.8994.0454-.0555.0992-.1029.1572-.1426-.2408-.165-.3993-.4423-.3994-.7568 0-.5061.4094-.9168.914-.917m4.9825-8.80664c.1845-.16651.4421-.23246.6875-.16992.2804.07156.4949.29803.5507.58203.8095 4.11993.785 6.42403 0 10.37403-.0807.4061-.4757.6702-.8818.5898-.4061-.0807-.6703-.4757-.5898-.8818.6408-3.2244.7478-5.2329.2793-8.2158l-1.252 1.5078c-.1425.1714-.3543.2705-.5771.2705H9.18945c-.19904-.0001-.38969-.0798-.53027-.2207L6.96777 11.583c-.34043 2.5955-.29243 4.6704.22266 8.3975.05668.4101-.22955.7888-.63965.8457-.41028.0566-.78899-.2304-.8457-.6407-.62504-4.5227-.58893-6.7749.00293-10.30952l.02441-.10157c.0726-.23033.25318-.41448.48731-.48925.26762-.08536.5604-.01334.75879.18554L9.50098 12h5.27832l2.0605-2.47949zM10.1035 15.5c.5048 0 .9141.4107.9141.917-.0002.5061-.4094.916-.9141.916-.50449-.0002-.91388-.41-.91405-.916 0-.5061.40946-.9168.91405-.917m3.6563 0c.5048 0 .914.4107.914.917-.0001.5061-.4093.916-.914.916-.5046-.0002-.9139-.41-.9141-.916 0-.5062.4094-.9168.9141-.917m.1631-14.25c.7578.00002 1.4797.31154 2.0078.85742.5271.54515.8192 1.27959.8193 2.04004 0 .84821-.3225 1.6216-.7461 2.27442-.4244.65399-.977 1.22933-1.5068 1.69824-.5326.47131-1.0618.85256-1.4561 1.11523a12.8 12.8 0 0 1-.4814.30567 9 9 0 0 1-.1387.08203 5 5 0 0 1-.0391.02246c-.0046.00262-.0089.00526-.0117.00683l-.0029.00196-.002.00097c-.1984.11045-.4347.1238-.6425.04102l-.0879-.04102-.002-.00097-.0029-.00196c-.0028-.00157-.0071-.00421-.0117-.00683a5 5 0 0 1-.0391-.02246 9 9 0 0 1-.1387-.08203 12.8 12.8 0 0 1-.4814-.30567c-.3943-.26267-.9235-.64392-1.45607-1.11523-.52987-.46891-1.08242-1.04425-1.50684-1.69824C7.57252 5.76906 7.25 4.99567 7.25 4.14746c.00007-.76045.29219-1.49489.81934-2.04004.52802-.54588 1.24995-.8574 2.00776-.85742.7325.00008 1.4125.26514 1.9229.73242.5104-.46728 1.1904-.73234 1.9229-.73242m0 1.5c-.577.00011-1.0347.31642-1.2256.79883-.1133.28597-.3897.4736-.6973.47363-.3076-.00003-.584-.18766-.6973-.47363-.1909-.48241-.6486-.79872-1.2256-.79883-.34355.00002-.67873.14096-.92964.40039-.25167.26028-.39739.61853-.39746.99707 0 .46426.1775.95495.50391 1.45801.32551.50163.77319.97573 1.24319 1.3916.4671.41336.9383.75237 1.2939.98926.0749.04989.1461.09273.209.13281.0629-.04008.1341-.08292.209-.13281.3556-.23689.8268-.5759 1.2939-.98926.47-.41587.9177-.88997 1.2432-1.3916.3264-.50306.5039-.99375.5039-1.45801-.0001-.37854-.1458-.73679-.3975-.99707-.2509-.25943-.5861-.40037-.9296-.40039"/>
</svg>
