<svg xmlns="http://www.w3.org/2000/svg" width="24" height="24" viewBox="0 0 24 24">
  <path fill="currentColor" d="M9.94336 17.7695c.42064 0 .76174.3411.76174.7617-.0001.2511-.1232.4717-.3106.6104.0179.0177.0356.036.0518.0557.0539.0654.2714.1724.5752.0595.2409-.0897.4569-.3012.457-.7256 0-.4141.3358-.7499.75-.75.4142.0001.75.3359.75.75-.0001 1.0985-.6516 1.8397-1.4346 2.1309-.5076.1887-1.1358.2013-1.66304-.0508-1.22263.643-2.9725-.2726-2.97266-2.0801 0-.4141.33582-.7499.75-.75.41422.0001.75.3358.75.75.00008.4648.21838.6597.39942.7325.23176.093.41353.0136.47949-.0664.03725-.0454.07913-.0863.125-.1211-.1419-.1383-.2304-.3312-.23047-.545 0-.4206.34105-.7617.76172-.7617m4.06834-7.4131c.1846-.1661.4423-.2315.6875-.1689.2802.0716.4939.2983.5498.582.6778 3.44.6574 5.3714 0 8.67-.081.406-.4757.6696-.8818.5888-.4061-.0809-.6696-.4757-.5889-.8818.5111-2.5645.6124-4.1932.2735-6.5078l-.8663 1.041c-.1424.1708-.3537.2695-.5761.2695H7.6582a.75.75 0 0 1-.53027-.2197L5.89746 12.499c-.24619 2.0286-.1921 3.7261.21875 6.6905.05683.4101-.22962.7886-.63965.8457-.41028.0568-.7898-.2294-.84668-.6397-.52239-3.7691-.49176-5.6537.00391-8.6055.04649-.2768.24333-.5052.51074-.5908.26741-.0855.56025-.0139.75879.1846l2.06543 2.0654h4.28905l1.6797-2.0156zm-5.59178 5.128c.42068 0 .76172.341.76172.7617-.00009.4206-.3411.7617-.76172.7617-.4206 0-.76162-.3411-.76172-.7617 0-.4207.34107-.7617.76172-.7617m3.04688 0c.4206 0 .7617.341.7617.7617-.0001.4206-.3411.7617-.7617.7617s-.7616-.3411-.7617-.7617c0-.4207.341-.7617.7617-.7617M18.5713 1.25c.6903 0 1.25.55964 1.25 1.25v1.74316l1.668 2.16407c.1687.21874.2607.4874.2607.76367V21.5c0 .6904-.5596 1.25-1.25 1.25h-17c-.69036 0-1.25-.5596-1.25-1.25V7.1709c0-.27627.092-.54493.26074-.76367l1.66797-2.16407V2.5c0-.69036.55965-1.25 1.25-1.25zM3.75 21.25h12.6426V9H3.75zM17.8926 8.48633V21.25H20.25V7.25586l-.7832-1.01465zM3.75 7.25586V7.5h13.002L17.8037 6H4.71875zM5.67871 4.3291c0 .05746-.00487.11448-.01269.1709H18.334c-.0078-.05642-.0127-.11344-.0127-.1709V2.75H5.67871z"/>
</svg>
