<svg xmlns="http://www.w3.org/2000/svg" width="24" height="24" viewBox="0 0 24 24">
  <path fill="currentColor" d="M10 11H9V9.99999h1zm3-1.00001h-1v-1h1zm4-1h-1v-1h1zm-8-1H8v-1h1zm6-2h-1v-1h1zm-4.5781-3.33886c.5081-.08572 1.0742-.06001 1.7597.11132.3838.0959.7499.09534 1.1543.05372.2071-.02133.4132-.05176.6446-.08497.225-.03228.4717-.06627.7275-.08691.5206-.04193 1.098-.03005 1.7393.15527.6397.18496 1.3041.53063 2.0214 1.1045 1.2822 1.02573 1.8806 1.73291 2.2022 2.37597.1593.31879.2376.59865.2998.81641.0057.02003.0121.03952.0176.05859.465.11732.9067.35495 1.2705.71875a.7516.7516 0 0 1 .2139.4375c.2631 2.12022.0601 5.31612-1.4532 8.01372-1.5179 2.7055-4.3165 4.8308-9.0185 4.9101v.0049c-.0456 0-.0916-.0026-.1367-.0029-.0453.0003-.0912.0029-.1368.0029v-.0049c-4.70211-.0792-7.50056-2.2046-9.01852-4.9101-1.5133-2.6977-1.71627-5.8934-1.45312-8.01372a.7504.7504 0 0 1 .21386-.4375c.40486-.40481.90474-.65724 1.42774-.75683.19149-.61373.55646-1.25862 1.0166-1.79981C4.61719 4.5003 5.68279 3.75007 7 3.74999c1.04632-.00004 1.54095-.31345 2.18554-.64453.33512-.1721.7331-.35931 1.23636-.44433m-6.12405 6.2832c-.43087-.43052-1.0978-.48099-1.58399-.15137-.18328 1.89904.05526 4.58484 1.30274 6.80864 1.26445 2.2536 3.60151 4.1063 7.8467 4.1455.4746-.0044.9254-.0304 1.3535-.0782l-.1992-.1992c.5091-.5096.5083-1.3362-.001-1.8457-.0865-.0864-.1826-.1577-.2842-.2148l-.0195.0205c-.0181-.0181-.0343-.0382-.0518-.0567-.4857-.2346-1.086-.1518-1.4892.251l-1.0606-1.0605c.5091-.5096.5084-1.3363-.001-1.8457-.50944-.5092-1.33511-.5091-1.84468 0l-1.06055-1.0606c.50911-.5096.50836-1.3362-.00097-1.8457-.5095-.5091-1.33519-.509-1.84473 0L4.29883 10.751c.00633-.0063.01315-.0123.01953-.0186l-.02051-.0205c.48801-.4881.48799-1.27944 0-1.76757m16.71675-.15137c-.4863-.32986-1.154-.27947-1.5849.15137-.488.48803-.4878 1.27937 0 1.76757l-1.0606 1.0615-.0947-.0859c-.4909-.4005-1.2152-.3717-1.6728.0859-.488.4882-.4881 1.2795 0 1.7676l-1.0606 1.0606-.0947-.086c-.4909-.4005-1.2152-.3716-1.6729.086-.436.4359-.4815 1.1128-.1386 1.6005.1564.1031.3047.2238.4423.3614.7627.7627.9927 1.8551.6934 2.8183 2.4682-.6527 4.0016-2.1051 4.9414-3.7802 1.2474-2.2237 1.486-4.9096 1.3027-6.80864M10.6719 4.13964c-.2703.04564-.5022.14648-.80081.29981-.62387.32043-1.41796.8105-2.87109.81054-.72213.00009-1.4065.41753-1.94336 1.04883-.27973.32902-.48363.67322-.61621.97754.33426.13423.64813.33661.91894.60742.56381.56396.82818 1.31214.79981 2.05078.75792-.0329 1.52666.23784 2.10547.81644.57463.5747.84463 1.3369.8164 2.0898.75287-.0285 1.51505.2418 2.08985.8164.4072.4073.6621.9091.7666 1.4346.0817-.5674.3389-1.1143.7754-1.5508.5579-.5578 1.2955-.8235 2.0264-.8017-.0218-.731.2438-1.4695.8017-2.0274.5578-.5576 1.2957-.82243 2.0264-.80077-.0219-.73108.2438-1.46934.8017-2.02735.311-.3109.679-.52928 1.0694-.66015-.0308-.08866-.0646-.17299-.1094-.2627-.1785-.35687-.5804-.90101-1.7979-1.875-.5918-.47341-1.0829-.71409-1.5009-.83496-.4162-.12022-.8006-.13394-1.2022-.10156-.2051.01655-.4109.04503-.6347.07715-.2174.03118-.4591.06664-.7032.09179-.4984.05131-1.056.06306-1.6718-.09082-.5266-.13161-.8806-.13272-1.1465-.08789"/>
</svg>
