<svg xmlns="http://www.w3.org/2000/svg" width="24" height="24" viewBox="0 0 24 24">
  <path fill="currentColor" d="M11.6611 1.25c.408.00018.6918.25784.8213.39355.1563.1639.2918.36806.4072.56934.2345.40891.4615.94154.6582 1.49023.1501.41846.2915.87415.4102 1.32129.5405-.36783 1.15-.73948 1.7139-1.03515.4271-.22394.8593-.42104 1.2314-.53321.1832-.05516.3894-.10135.5918-.10546.1819-.00363.5114.02412.7744.28418.2899.28698.31.66986.3067.85742-.0042.22637-.0509.4672-.1104.6914-.1209.45565-.3341.994-.5801 1.52246-.4836 1.03909-1.175 2.21344-1.7295 2.79883-.2218.23404-.5028.39153-.7812.50192-.0001.0119.0007.0242 0 .0362l-.626 11c-.0127.2204-.1223.424-.2988.5566-1.9779 1.4834-4.098.6017-4.9004 0a.7501.7501 0 0 1-.29883-.5654l-.5-11c-.30514-.09809-.64732-.25509-.90723-.52932-.55442-.58538-1.24588-1.75974-1.72949-2.79883-.24594-.52846-.45921-1.06681-.58008-1.52246-.05944-.2242-.10622-.46503-.11035-.6914-.00335-.18756.01675-.57044.30664-.85742.24764-.24482.55419-.28262.7334-.28418.19414-.00163.38971.03663.56055.08398.34631.09602.74516.2694 1.13965.46875.4886.24693 1.01636.56136 1.51074.88184.0801-.35945.17149-.72196.26953-1.06348.15667-.54563.34157-1.07844.54297-1.48828.0991-.20157.2187-.40951.3643-.57715.1222-.14075.394-.40617.8095-.40625m2.1905 9.0654c-.3807.0279-.7632.0284-1.1016.0147v10.4736c.1729-.0521.348-.124.5215-.2236l.5849-10.2656zm-3.1211 10.2598c.1487.0796.3246.154.5195.2129V10.2686c-.2658.0091-.6155.0122-.9883-.004zm6.2246-15.5254c-.1788.07606-.3837.1718-.6055.28809-.7038.36909-1.495.87569-2.0801 1.3125.008.09121.0149.17829.0166.25977.0157.73831-.2453 1.38909-.5791 1.89453.0123-.00083.0249-.00106.0371-.00196.3381-.02475.6531-.07175.9082-.1455.2698-.07809.3963-.1637.4375-.20703.3836-.40506.9914-1.39922 1.4551-2.39551.1719-.36941.3138-.71488.4102-1.00489m-9.91018-.00195c.09643.2903.23795.63683.41015 1.00684.46375.99629 1.07152 1.99045 1.45508 2.39551.01936.02016.10601.08523.32324.15039.18521.05553.41324.09387.66602.12011-.3231-.50259-.56645-1.13885-.54004-1.85449.00506-.13602.01828-.28898.03613-.4541-.58167-.40792-1.28026-.84095-1.89062-1.14941-.16721-.08449-.32196-.15615-.45996-.21485m4.67578-1.86914c-.1109.27059-.2257.60817-.334.98535-.295 1.02758-.5051 2.19199-.5273 2.79004-.0161.43903.1822.87222.4736 1.2168.1431.16919.2928.2968.4141.37598.0283.01848.0541.02871.0732.03906.019-.01046.0445-.0215.0723-.04004.1203-.0803.2678-.21042.4101-.38281.29-.35152.4929-.79911.4834-1.25293-.012-.55771-.2785-1.69288-.6494-2.72754-.1377-.38424-.2804-.72968-.416-1.00391"/>
</svg>
