<svg xmlns="http://www.w3.org/2000/svg" width="24" height="24" viewBox="0 0 24 24">
  <path fill="currentColor" d="M12 1.25c.8865 0 1.7203.1184 2.3584.33105.3151.10503.6244.2468.8701.44043.2068.16296.4489.43087.5078.80567h.0137c0 .04208-.0031.08499-.0039.12793.0006.01486.0039.02976.0039.04492 0 .03169-.0053.06239-.0078.09277-.0264.72645-.1565 1.56449-.3408 2.44629l.0459.0625-.003.00293s-.0037.00233-.0058.00391a2 2 0 0 1-.0176.01269c-.0113.00805-.0263.01804-.0439.03028-.0377.1767-.0738.35579-.1153.53515-.2864 1.23811-.6669 2.57754-1.042 3.86328-.3776 1.2944-.7476 2.5287-1.0254 3.5889-.2837 1.083-.4442 1.8914-.4443 2.3613v4.5h1.5c.4142 0 .75.3358.75.75s-.3358.75-.75.75h-4.5c-.41421 0-.75-.3358-.75-.75s.33579-.75.75-.75h1.5V16l-.0078-.1924c-.0347-.4842-.1883-1.2213-.4365-2.1689-.2778-1.0602-.6478-2.2945-1.02543-3.5889-.37511-1.28574-.75554-2.62517-1.04199-3.86328-.04151-.17942-.0785-.35839-.11621-.53515a3.4 3.4 0 0 1-.06055-.04297c-.00216-.00158-.00586-.00391-.00586-.00391l-.00293-.00293.04493-.0625c-.18432-.88174-.31442-1.71988-.34082-2.44629C8.25432 3.06242 8.25 3.03166 8.25 3c0-.01515.00234-.03007.00293-.04492-.00079-.04294-.00293-.08586-.00293-.12793h.01367c.05892-.3748.30104-.64271.50781-.80567.24574-.19363.55503-.3354.87012-.44043C10.2797 1.3684 11.1135 1.25 12 1.25m1.6445 5.23633C13.163 6.6374 12.6033 6.75 12 6.75c-.6037 0-1.1637-.11245-1.6455-.26367.0423.16964.0858.34102.1309.51367H11.5v1h-.7451c.1499.54003.3064 1.08676.4648 1.62988.2689.92162.5422 1.83822.7803 2.68552.2062-.734.4396-1.5194.6729-2.3154H12V9h.9619c.2452-.85126.4802-1.70181.6826-2.51367m.4317-1.98438c-.593.15932-1.315.24805-2.0762.24805-.7616 0-1.484-.08858-2.07715-.24805.01136.06567.02377.13202.03613.19922.07202.03733.14922.07843.23342.11719C10.6772 5.0416 11.3168 5.25 12 5.25s1.3228-.2084 1.8076-.43164c.0839-.03862.1606-.07998.2324-.11719.0124-.0672.0248-.13355.0362-.19922M12 2.75c-.7613 0-1.4207.10353-1.8682.25.4475.14647 1.1069.25 1.8682.25.7608 0 1.4197-.10368 1.8672-.25-.4475-.14632-1.1064-.25-1.8672-.25"/>
</svg>
