<svg xmlns="http://www.w3.org/2000/svg" width="24" height="24" viewBox="0 0 24 24">
  <path fill="currentColor" d="M10.0029 9.27637a.7499.7499 0 0 1 .6758.14648c.521.43246 1.2767 1.19085 1.9072 2.17575.6298.9839 1.1641 2.2403 1.1641 3.6514 0 1.1272-.4481 2.2079-1.2451 3.0049S10.6272 19.5 9.5 19.5c-1.12717 0-2.20785-.4481-3.00488-1.2451S5.25 16.3772 5.25 15.25c0-1.5921.80265-2.897 1.55371-3.8818l.09668-.1045c.24424-.2186.61011-.2568.89746-.0772l.96094.6006.73535-2.04101c.0828-.23.27295-.40541.50876-.46972m-.26071 7.44533c-.1262.162-.31418.2658-.51856.2861-.20423.0202-.40802-.0447-.56347-.1787l-.07032-.0605c-.05837.1463-.08982.2889-.08984.4257 0 .1832.08121.3794.26074.5391.1826.1623.44739.2666.73926.2666s.5567-.1043.7393-.2666c.1795-.1597.2607-.3559.2607-.5391 0-.3936-.1698-.6535-.4316-.8925zm.11328-3.5508a.7495.7495 0 0 1-.45996.4541c-.21415.0741-.45036.0477-.64258-.0723l-1.15137-.7197c-.49929.7542-.85156 1.5496-.85156 2.417 0 .4612.11635.9102.33203 1.3086.14821-.5733.4733-1.0538.77735-1.4082l.10644-.1025a.7513.7513 0 0 1 .40625-.1573c.19849-.0148.3951.0498.5459.1797l.12402.1084.30371-.3896.10254-.1084c.25989-.2238.64826-.2455.93456-.0342.3245.2394 1.2608.8041 1.5371 1.9072.2141-.3972.3301-.8442.3301-1.3037 0-1.0322-.3937-2.0085-.9277-2.8428-.2568-.401-.5394-.7584-.8106-1.0605zM15.5 1.25c.2696 0 .5185.08633.7227.23145l1.7431.69726.9756-.4873.1572-.06641c.7921-.27233 1.6511.31278 1.6514 1.18359V21.5c0 .6904-.5596 1.25-1.25 1.25h-16c-.69036 0-1.25-.5596-1.25-1.25V2.80859c.0003-.92892.97763-1.53252 1.80859-1.11718l.94043.46972 1.66602-.83203.08008-.03418a.7497.7497 0 0 1 .58984.03418L9 2.16113l1.665-.83203.0801-.03418a.7498.7498 0 0 1 .5899.03418L13 2.16113l1.665-.83203.0791-.03418A.75.75 0 0 1 15 1.25zm-2.165 2.4209a.75.75 0 0 1-.67 0L11 2.83789l-1.66504.83301a.7498.7498 0 0 1-.66992 0L7 2.83789l-1.66504.83301a.7498.7498 0 0 1-.66992 0L3.75 3.21289V21.25h11.5V2.75h-.0732zm5 0a.7498.7498 0 0 1-.6133.02539l-.9717-.38867V21.25h2.5V3.21289z"/>
</svg>
