<svg xmlns="http://www.w3.org/2000/svg" width="24" height="24" viewBox="0 0 24 24">
  <path fill="currentColor" d="M9.5 12.1035c1.2426 0 2.2499 1.0075 2.25 2.25 0 1.2426-1.0074 2.25-2.25 2.25-1.24262 0-2.24997-1.0074-2.25-2.25.00013-1.2425 1.00744-2.25 2.25-2.25m0 1.5c-.41414 0-.74987.3359-.75.75.00003.4142.33581.75.75.75s.75-.3358.75-.75c-.0001-.4141-.33586-.75-.75-.75m7-3.5c1.7948 0 3.2499 1.4552 3.25 3.25 0 1.7949-1.4551 3.25-3.25 3.25s-3.25-1.4551-3.25-3.25c.0001-1.7948 1.4552-3.25 3.25-3.25m0 1.5c-.9664 0-1.7499.7836-1.75 1.75 0 .9665.7835 1.75 1.75 1.75s1.75-.7835 1.75-1.75c-.0001-.9664-.7836-1.75-1.75-1.75m-2.0713-7.85056c3.0373-.29046 4.9279.09787 6.0361 1.19433 1.0036.99314 1.1786 2.4092 1.2627 3.68164.1053.18309.1669.39484.167.6211V20.2061c0 .6901-.5599 1.2497-1.25 1.25h-8.3164c-.6173-.0001-1.067-.4335-1.2275-.9073-.2989-.882-1.0933-1.4832-1.99318-1.4834-.98522.0002-1.84528.724-2.06347 1.7422-.07903.3682-.4054.6481-.80176.6485H3.30273c-.69033 0-1.24996-.5597-1.25-1.25v-3.7823c.00031-.7207.57132-1.1705 1.07813-1.2871l.125-.0342c.61483-.2016 1.08982-.8144 1.08984-1.5703-.00039-.806-.54076-1.4481-1.21484-1.6035-.50685-.1166-1.07794-.5662-1.07813-1.2871V9.25001c.00027-.69013.55981-1.25 1.25-1.25h.19532L14.2266 3.80176c.0647-.0253.133-.04221.2021-.04882M3.55273 9.58887v.90133c1.33543.3499 2.29259 1.5942 2.29297 3.042-.00002 1.4481-.95748 2.692-2.29297 3.042v3.3819h2.1836c.51898-1.384 1.81726-2.3905 3.37109-2.3907 1.55358.0002 2.85348 1.0085 3.37108 2.3907h7.916V9.50001H3.78027zM19.4102 6.01368c-.5934-.58704-1.8478-1.03986-4.7383-.77637l-7.0596 2.7627h12.5518c-.105-.89287-.2977-1.53465-.7539-1.98633"/>
</svg>
