<svg xmlns="http://www.w3.org/2000/svg" width="24" height="24" viewBox="0 0 24 24">
  <path fill="currentColor" d="M2.31054 1.27539C7.10638.02437 10.6344.96622 13.0791 2.74414c2.0875 1.51844 3.3296 3.60657 3.9189 5.31152.1152-.05605.2371-.11991.376-.19531.1382-.07498.2965-.16091.459-.24023.6662-.32504 1.5935-.62754 2.6357-.02246C22.264 8.64 22.7499 10.6978 22.75 12.5811c-.0001.6187-.212 1.2147-.4932 1.7373-.2838.5271-.6632 1.0254-1.0537 1.4619-.7738.8646-1.6686 1.5706-2.166 1.8652-.4427.2621-.7976.4383-1.2178.5264-.3913.0818-.809.0781-1.3193.0781-.5104 0-.9279.0038-1.3193-.0781-.4204-.0881-.7749-.2642-1.2178-.5264-.0946-.056-.2103-.126-.3418-.209-.0888.309-.2159.6061-.3643.8819-.2838.5271-.6632 1.0254-1.0537 1.4619-.7738.8646-1.6686 1.5706-2.166 1.8652-.44269.2621-.79757.4383-1.21777.5264-.39135.0818-.80907.0781-1.31933.0781-.51035 0-.92794.0038-1.31934-.0781-.42041-.0881-.77482-.2642-1.21777-.5264-.43647-.2584-1.34305-.8165-2.14453-1.6377-.79631-.816-1.56818-1.9746-1.56836-3.4267.00007-1.8231.40055-4.0776 2.33105-5.0108.93444-.4513 1.84494-.1392 2.46973.1221.30249.1265.48891.2142.7041.3056.00727-.3213.02334-.6751.0459-1.0517-.18428.071-.3804.135-.58301.1826-.70223.1648-1.65381.2005-2.41406-.3164-.33979-.2311-.69268-.6013-1.00781-.98926-.32478-.39987-.6477-.86735-.9209-1.33203-.27039-.45994-.50856-.94453-.64551-1.37793-.0679-.2151-.12064-.44732-.12793-.67285-.00677-.21289.02477-.5196.23144-.79004l.08301-.0957c.20116-.20735.4557-.30707.64942-.35742.2316-.06009.48195-.07781.71582-.07715.47088.00145 1.02139.08012 1.55468.1914 1.05383.21998 2.23256.60848 2.86231.9668.0792.04508.15207.09567.22168.14746.17117-.74441.38481-1.47526.64746-2.14453.25447-.64826.56661-1.26501.95215-1.78516-1.70639-.41545-3.79506-.43078-6.33008.23047-.4003.10417-.81007-.13612-.91504-.53613-.1045-.40058.13572-.81021.53613-.91504M10.7158 12.8945c-.394-.2287-.72464-.1711-1.22557.0733-.12857.0627-.25817.1332-.40137.2109-.13773.0748-.2926.1591-.44824.2344-.30397.1468-.69883.3056-1.14062.3057-.41149-.0001-.79981-.1246-1.11719-.2491-.27827-.1091-.68345-.2983-.91113-.3935-.59387-.2484-.94255-.298-1.23828-.1553-1.0587.5121-1.48333 1.8714-1.4834 3.6602.00018.8965.47811 1.698 1.14257 2.3789.65949.6757 1.42589 1.1529 1.83399 1.3945.40071.2372.58554.3117.76172.3486.20551.043.44509.0469 1.01172.0469.56644 0 .80625-.0039 1.01172-.0469.17606-.0369.36143-.1116.76171-.3486.34731-.2058 1.12597-.8071 1.81247-1.5742.3394-.3794.6386-.781.8496-1.1729.2133-.3963.3144-.7427.3145-1.0263-.0001-1.729-.4558-3.0604-1.5342-3.6866m9-3.99997c-.394-.22875-.7246-.17118-1.2256.07324-.1285.06277-.2581.13321-.4013.21094-.1378.07477-.2926.15913-.4483.23438-.2399.11589-.5369.23834-.8681.28515-.0293.0114-.0596.02246-.0909.03028-.1529.03807-.3071.0251-.4443-.02637-.3131-.03759-.6055-.1348-.8545-.23242-.2783-.10918-.6834-.29832-.9111-.39356-.5939-.24837-.9426-.29795-1.2383-.15527-.89.43052-1.3367 1.4569-1.4522 2.8779 1.2787.9058 1.7887 2.3854 1.9258 3.8741.4047.3081.7773.5382 1.0196.6816.4007.2372.5855.3117.7617.3486.2055.043.4451.0469 1.0117.0469.5664 0 .8062-.0039 1.0117-.0469.1761-.0369.3615-.1116.7617-.3486.3473-.2058 1.126-.8071 1.8125-1.5742.3394-.3794.6386-.781.8496-1.1729.2133-.3963.3144-.7427.3145-1.0263-.0001-1.729-.4558-3.0604-1.5342-3.68657m-9.1855-5.86328c-.3975.39767-.75734 1.0105-1.06644 1.79785-.30608.77995-.54558 1.68686-.72754 2.62695-.31051 1.60474-.44466 3.26015-.47753 4.46385.03644-.0195.07613-.0383.11523-.0595.13814-.075.2965-.161.45898-.2403.41084-.2004.92115-.3915 1.4961-.3672.1887-1.45919.7659-2.96419 2.252-3.68259.9344-.45129 1.8449-.13924 2.4697.12207.0848.0355.1598.06995.2295.10059-.5824-1.29468-1.58-2.742-3.084-3.83594-.4899-.35628-1.0383-.67825-1.6485-.94629-.0059.00643-.0113.01429-.0175.02051M2.68066 6.58301c.00728.02711.01444.05728.02441.08887.09367.29644.27506.68088.51661 1.09179.23906.40661.52241.81474.7998 1.15625.28686.35313.53388.59201.69434.70117.2405.16341.65314.20886 1.15625.09082.2363-.05549.45521-.13941.62402-.22753.16598-.08675.23258-.15151.24121-.15918.00479-.00989.04807-.08942.08203-.2627.03446-.17616.04842-.39309.02735-.61328-.04526-.47064-.22521-.78347-.45801-.91602-.43054-.24484-1.42873-.5914-2.4082-.7959-.48308-.10081-.91506-.15625-1.23145-.15722-.02395-.00002-.04724.0024-.06836.00293"/>
</svg>
