<svg xmlns="http://www.w3.org/2000/svg" width="24" height="24" viewBox="0 0 24 24">
  <path fill="currentColor" d="M16.4951 1.8457c.0855-.40488.4837-.66493.8887-.58008.4049.08547.6649.48371.5801.88868-.2083.98912-.5385 1.92068-.961 2.79687.0157.00032.0315.00043.0469.00098.1887.00683.3677.0304.4981.04687.1449.0183.2313.02827.3017.02832.2866-.00006 1.1239-.16374 1.916.25879.567.3027.8863.81534 1.0606 1.32422.1721.50336.2235 1.0607.2236 1.56641-.0001.75462-.2502 1.54594-.5967 2.16604-.1752.3135-.3897.6098-.6367.8457-.2388.2279-.5612.4504-.9531.5136-.7975.1285-1.3136.1687-2.2588-.0029-.4271-.0777-.7639-.3336-1.0059-.5888.0937.1619.1697.3308.2276.5.1721.5033.2235 1.0607.2236 1.5664-.0001.7546-.2502 1.5459-.5967 2.166-.1752.3135-.3897.6098-.6367.8457-.2388.2279-.5612.4504-.9531.5136-.7975.1285-1.3136.1687-2.2588-.0029-.4281-.0779-.7657-.335-1.0078-.5908-.2489-.2632-.4564-.5867-.62014-.9102-.32016-.633-.54383-1.4081-.54394-2.0214.00003-.1895.01155-.3886.03222-.5909-.89616.5383-1.79849 1.0132-2.67382 1.4248.30337.0264.64324.0987.97461.2754.56693.3027.88632.8154 1.06054 1.3243.17208.5033.22357 1.0607.22364 1.5664-.0001.7546-.25017 1.5459-.59668 2.166-.17527.3135-.38972.6098-.63672.8457-.23879.2279-.56117.4504-.95313.5136-.79751.1285-1.31362.1687-2.25879-.0029-.42806-.0779-.76569-.335-1.00781-.5908-.24889-.2632-.45642-.5867-.62012-.9102-.32016-.633-.54383-1.4081-.54394-2.0214.00007-.502.05915-1.0701.25195-1.5918-.17008.0496-.33436.0976-.49316.1396-.40012.1056-.80991-.1332-.91602-.5332-.1054-.4001.13315-.8101.5332-.916 2.13226-.5642 5.45523-1.8804 8.42771-3.9756C13.2153 8.2 15.75 5.38391 16.4951 1.8457M4.99512 15.4512c-.19433-.007-.35084.0191-.52051.1279-.32464.2083-.54184.721-.54199 1.5977.00012.3145.13483.8562.38183 1.3447.11986.2368.25012.4276.3711.5556.11029.1166.17611.1427.18652.1465.73371.1332 1.07179.1066 1.75195-.0029-.02048.0034.03571-.0022.15625-.1172.11389-.1088.24309-.2754.36426-.4922.2461-.4404.40517-.9822.40528-1.4345-.00007-.4221-.04506-.7958-.14258-1.0811-.09561-.279-.22073-.418-.34864-.4863-.15705-.0837-.27281-.1081-.41601-.1104-.00403.0112-.00679.0228-.01074.0332a1.67 1.67 0 0 1-.08789.1914 1.5 1.5 0 0 1-.03418.0606c-.0047.0078-.00899.0155-.0127.0215-.00176.0027-.00427.0055-.00586.0078l-.00293.0058-.00097.001-.0459.0625c-.2402.2943-.66905.3649-.99317.1514-.20267-.1339-.31739-.3493-.33301-.5742-.041-.0037-.08086-.0074-.12011-.0088m6.99998-4c-.1943-.007-.3508.0191-.5205.1279-.3246.2083-.5418.721-.542 1.5977.0001.3145.1349.8562.3819 1.3447.1198.2368.2501.4276.371.5556.1103.1166.1762.1427.1866.1465.7337.1333 1.0718.1066 1.7519-.0029-.0205.0034.0357-.0022.1563-.1172.1139-.1088.2431-.2754.3642-.4922.2461-.4404.4052-.9822.4053-1.4345-.0001-.4221-.0451-.7958-.1426-1.0811-.0956-.279-.2207-.418-.3486-.4863-.1571-.0837-.2728-.1081-.416-.1104-.0041.0112-.0068.0228-.0108.0332a1.65 1.65 0 0 1-.0879.1914 1.4 1.4 0 0 1-.0341.0606c-.0047.0078-.009.0155-.0127.0215-.0018.0027-.0043.0055-.0059.0078l-.0029.0058-.001.001-.0459.0625c-.2402.2943-.669.3649-.9932.1514-.2026-.1339-.3174-.3493-.333-.5742-.041-.0037-.0808-.0074-.1201-.0088m2.4707-2.83987c-.4586.49553-.9451.96313-1.4492 1.40527.3732-.02765 1.0774-.0887 1.749.2695.1747.0933.3245.2092.4551.336-.0892-.1377-.1717-.2808-.2441-.4239-.2483-.49084-.4379-1.06711-.5108-1.58687m2.5293-2.16016c-.1943-.00692-.3508.0191-.5205.12793-.3246.20831-.5418.72098-.542 1.59766.0001.31451.1349.85626.3819 1.34472.1198.23685.2501.42759.371.55562.1103.1166.1762.1427.1866.1465.7337.1333 1.0718.1066 1.7519-.0029-.0205.0034.0357-.0022.1563-.1172.1139-.10877.2431-.27541.3642-.49217.2461-.44044.4052-.98227.4053-1.43457-.0001-.42207-.0451-.7958-.1426-1.08106-.0956-.27904-.2207-.41804-.3486-.48633-.1571-.08366-.2728-.10809-.416-.11035-.0041.01121-.0068.02281-.0108.03321a1.66 1.66 0 0 1-.0879.1914 1.46 1.46 0 0 1-.0341.06055c-.0047.00781-.009.01555-.0127.02148-.0018.00279-.0043.0055-.0059.00782l-.0029.00585-.001.00098-.0459.0625c-.2402.2943-.669.36488-.9932.15137-.2026-.13384-.3174-.34928-.333-.57422-.041-.00371-.0808-.00737-.1201-.00879"/>
</svg>
