<svg xmlns="http://www.w3.org/2000/svg" width="24" height="24" viewBox="0 0 24 24">
  <path fill="currentColor" d="M16.0693 1.82323c.4882-.48765 1.2796-.48798 1.7676 0l4.3408 4.34082c.4873.48804.4875 1.27961 0 1.76758L15.8594 14.25h2.4843l.3057.0068c1.4945.0716 2.4544.6713 3.0264 1.5088.5679.8323.6774 1.8007.7324 2.3262a.76.76 0 0 1 .0039.0781v.1416c0 .0258-.0012.0525-.0039.0781-.055.5255-.1643 1.4938-.7324 2.3262-.572.8376-1.5317 1.4372-3.0264 1.5088l-.3057.0068h-5.5302c-1.6706-.0001-2.7221-.6223-3.33206-1.5156-.02358-.0346-.04536-.0705-.06738-.1055l-1.47168 1.5391c-.48469.5062-1.29142.5149-1.78711.0195l-4.33203-4.332c-.48804-.488-.48782-1.2794 0-1.7676zM3.06055 16.9531l3.9746 3.9746 1.50782-1.5761-3.94043-3.9405zM12.8135 15.75c-1.2485.0001-1.8023.4343-2.0938.8613-.3264.4785-.4187 1.0817-.4746 1.6055v.0469c.0559.5239.1481 1.1277.4746 1.6064.2916.427.8455.8612 2.0938.8613h5.5302l.2256-.0048c1.091-.0493 1.5948-.4561 1.8682-.8565.3265-.4785.4187-1.0816.4746-1.6055v-.0488c-.0559-.5235-.1484-1.1263-.4746-1.6045-.2734-.4003-.7775-.8072-1.8682-.8564l-.2256-.0049zm-7.15042-1.3994 3.16309 3.1631c.08685-.517.25808-1.1661.65527-1.7481.57186-.8376 1.53176-1.4371 3.02636-1.5088l.3057-.0068h.9248l2.7158-2.7158-3.9873-3.98734zm7.86422-7.86428 3.9873 3.98728 3.4258-3.42576-3.9873-3.9873z"/>
</svg>
