<svg xmlns="http://www.w3.org/2000/svg" width="24" height="24" viewBox="0 0 24 24">
  <path fill="currentColor" d="M16.9805 2.35839c.8588-.85822 1.9746-.75797 2.7617-.3418.5617.29714 1.1035.83251 1.3301 1.48047.6311.21412 1.1467.72376 1.4257 1.28125.3947.7886.411 1.85143-.4179 2.68066-.7088.70871-1.4852.93243-2.2002.80078-.3062-.0564-.5765-.1757-.8057-.31836l-1.0615 1.06153c.0048.04624.0078.09287.0107.13965 1.6191 1.25433 2.6905 3.05763 2.7578 5.10743h.628c.2084 0 .4079.0866.5498.2392.1417.1527.2134.3578.1982.5655-.0848 1.1566-.242 3.0415-1.0078 4.6435-.3889.8135-.9487 1.585-1.7607 2.1514-.7674.5351-1.719.8582-2.878.8965l-.2343.0039H7.72363l-.23437-.0039c-1.15892-.0383-2.11053-.3614-2.87793-.8965-.81201-.5664-1.37182-1.3379-1.76074-2.1514-.7658-1.602-.92301-3.4869-1.00782-4.6435-.01516-.2078.05647-.4128.19825-.5655.14188-.1526.34139-.2392.5498-.2392h1.15234c.02662-2.1766.48587-3.986 1.87012-5.22657 1.3591-1.2176 3.45155-1.74047 6.37112-1.77149.6211-.78199 1.58-1.28408 2.6562-1.28418.3727 0 .731.06178 1.0664.17285l.7852-.78418c-.1403-.22733-.2567-.49447-.3125-.79687-.1317-.7151.0919-1.49228.8008-2.20117M3.4082 15.75c.10427 1.0465.30147 2.2675.7959 3.3017.30819.6446.71785 1.186 1.26465 1.5674.54054.377 1.26235.6309 2.25488.6309h8.55277c.9925 0 1.7143-.2539 2.2548-.6309.5468-.3814.9565-.9228 1.2647-1.5674.4944-1.0342.6916-2.2552.7959-3.3017zm7.8936-6.9795c-2.38491.10212-3.82284.59547-4.68754 1.3701-.9183.8231-1.34325 2.1074-1.37012 4.1094H19.2812c-.0558-1.2738-.6284-2.4625-1.5898-3.4121-.5498 1.1315-1.7086 1.9121-3.0508 1.9121-1.8726-.0002-3.3905-1.519-3.3906-3.39161 0-.20053.0183-.39694.0518-.58789m3.3388-1.30274c-1.0439.00017-1.8902.84675-1.8906 1.89063.0001 1.04421.8465 1.89141 1.8906 1.89161 1.0443 0 1.8916-.8473 1.8916-1.89161-.0004-1.04398-.8475-1.89062-1.8916-1.89063m4.4004-4.125c-.3966-.20967-.7434-.17913-1 .07715-.4064.40648-.4166.69899-.3857.86719.0408.22141.1931.42277.3222.52636.1666.13324.2695.33199.2813.54493.0116.21276-.0681.42056-.2188.57129L17.0234 6.9453c.156.15395.297.32327.4209.50488l1.0586-1.05761c.2929-.29268.7677-.29266 1.0606 0l.0058.00586c.0196.01954.0384.04091.0557.0625.1034.12913.3048.28225.5264.32324.1682.0309.4616.02065.8681-.38574.2861-.28633.3009-.62116.1367-.94922-.19-.37917-.5247-.5601-.7187-.55957-.1999.00078-.3928-.07838-.5342-.21973-.1411-.14127-.2194-.33353-.2187-.5332.0005-.18002-.1995-.55896-.6436-.79395"/>
</svg>
