<svg xmlns="http://www.w3.org/2000/svg" width="24" height="24" viewBox="0 0 24 24">
  <path fill="currentColor" d="M16.54 1.83692c.9847-.9843 2.2669-.8765 3.1875-.38965.6871.36351 1.3322 1.02231 1.5743 1.80078.7591.2283 1.3906.83305 1.7294 1.50976.4577.91437.4749 2.13488-.4794 3.08985-.8344.8342-1.7316 1.08335-2.5459.93359-.4028-.07422-.7533-.24127-1.0401-.43848l-1.8877 1.88673c-.2547 3.2314-.5161 5.8052-1.0801 7.6904-.6129 2.0485-1.6384 3.4593-3.5244 3.9649-1.6212.4343-4.02251.6531-6.06637-.0899-1.03742-.3772-2.00259-1.0108-2.70411-2.0058-.70202-.996-1.09959-2.2962-1.0996-3.9356.00007-1.5904.25325-2.8762.80566-3.9209.55895-1.0566 1.39104-1.8036 2.43262-2.36912 1.02549-.55667 2.26847-.9454 3.67285-1.29199 1.36235-.33619 2.95395-.65097 4.69625-1.03028L16.04 5.41309c-.1945-.28517-.3591-.63172-.4326-1.03028-.1499-.81444.0984-1.71147.9326-2.54589m-2.0449 6.87695c-1.7695.38492-3.2892.68527-4.6201 1.01367-1.37163.33846-2.46445.69136-3.31738 1.15426-.83649.4543-1.42814 1.0071-1.82227 1.752-.40055.7575-.63176 1.7784-.63183 3.2197.00001 1.3928.33432 2.376.82519 3.0723.49154.6971 1.1817 1.1656 1.99121 1.4599 1.64996.5998 3.71208.4394 5.16598.0498 1.1884-.3187 1.9423-1.1664 2.4746-2.9453.5273-1.7625.7811-4.2659 1.0459-7.665zm4.5322-5.94141c-.5302-.28047-1.0444-.25701-1.4267.125-.5315.53175-.5676.94523-.5186 1.21289.0592.32146.2764.60271.458.74805.166.13319.2684.33143.2803.54395.0116.21255-.0693.42063-.2197.57128l-1.8623 1.86231.8066.80566 1.8623-1.8623c.2928-.29227.7678-.29229 1.0606 0l.0078.00781c.0193.01934.0376.04019.0547.06152.1453.18163.4257.39775.747.45704.2677.04916.6818.01343 1.2139-.51856.4115-.41202.4264-.90457.1992-1.3584-.253-.50523-.7141-.78135-1.0332-.78027-.1998.00081-.3918-.07748-.5332-.21875a.7506.7506 0 0 1-.2197-.5332c.001-.30511-.2997-.81846-.877-1.12403"/>
</svg>
