<svg xmlns="http://www.w3.org/2000/svg" width="24" height="24" viewBox="0 0 24 24">
  <path fill="currentColor" d="M16.3711 4.95802c.574-.51438 1.4446-.96793 2.3437-.36914.6811.45374 1.1275 1.30136 1.4405 2.15332.3265.88895.5695 1.95773.75 3.05274.3616 2.19476.4928 4.61406.5039 6.17476.0002.0264-.0005.053-.003.0791-.1106 1.1634-.4844 2.8729-1.2802 4.1905-.4007.6632-.9341 1.2701-1.6387 1.6328-.7236.3721-1.5782.4609-2.5371.164l-1.4023-.4335c-.1899-.0588-.3545-.1928-.4571-.3711-.1025-.1786-.1347-.3884-.0898-.5821.0996-.4298.0677-.6013.0537-.6465-.0006-.0048-.0003-.0298-.1094-.1035-.0655-.0441-.148-.0913-.2685-.1562-.1117-.0601-.2607-.1379-.4102-.2256-.3105-.1822-.6704-.4312-1.0146-.8223-.7531-.8557-.8581-1.8995-.7637-2.8222.0931-.9086.3975-1.8631.626-2.6407l.0087-.0263.2247-.6524c.5647-1.5952 1.4034-3.6501 2.3222-5.28318.5201-.92427 1.0979-1.77162 1.7012-2.3125m1.6045.90137c-.0055-.00362-.1419-.1326-.6035.28125-.4323.38776-.9192 1.07352-1.418 1.95996-.9826 1.74648-1.8904 4.0522-2.4277 5.6582-.2483.8451-.4991 1.6351-.5743 2.3682-.0736.7193.0407 1.2169.3584 1.5781.1909.2168.3966.3636.6192.4941.117.0687.2275.1278.3584.1983.1219.0656.2668.1445.4043.2373.2915.1967.609.4928.7617.9814.0718.2301.096.4733.0869.7276l.7481.2314c.6111.1892 1.0857.1222 1.4775-.0791.4103-.211.78-.5974 1.0986-1.125.6357-1.0526.9696-2.4971 1.0723-3.5293-.0128-1.5057-.1425-3.8119-.4834-5.88085-.1724-1.04627-.3939-2.00323-.6699-2.75488-.2897-.78852-.5848-1.1974-.8086-1.34668M5.4082 2.4131c.70609-.38595 1.54316-.48899 2.48242-.19824l1.34864.41797c.18997.05883.35445.19252.45703.37109.10247.17847.13559.38744.09082.58106-.10097.4356-.07446.61493-.05957.66699.00128.0044-.00555.02224.09473.0918.06001.04158.13663.08696.25193.15039.1064.05847.251.13485.3955.22168.3018.18136.6514.4312.9834.82422.7229.85568.8091 1.89994.71 2.81738-.0985.91028-.401 1.87046-.6299 2.65726l-.0078.0244-.2227.6592c-.5605 1.6097-1.3901 3.6842-2.29196 5.3359-.51043.9347-1.07515 1.7915-1.66113 2.3418-.2925.2746-.63513.5168-1.02441.6221-.41932.1133-.87389.0607-1.292-.2256-.66622-.4563-1.08836-1.3116-1.37988-2.1582-.30586-.8884-.53031-1.9582-.69336-3.0557-.32676-2.1997-.4288-4.62773-.42383-6.1953a.79.79 0 0 1 .00391-.07617c.11812-1.16747.49365-2.8846 1.27148-4.21387.39114-.66835.91098-1.2853 1.59668-1.66016m2.14356 1.26367c-.57145-.1769-1.01824-.10799-1.39453.09766-.39656.21687-.758.61085-1.07325 1.14942-.62853 1.07408-.96674 2.53988-1.07617 3.583-.00277 1.51505.09863 3.83465.40723 5.91215.1561 1.0507.36181 2.0106.62109 2.7636.27365.7946.55276 1.1932.75391 1.3311.0155.0106.02317.0208.08203.0049.08899-.0243.24187-.1044.45313-.3028.42292-.3972.90231-1.0955 1.39355-1.9951.97014-1.7767 1.8717-4.1186 2.40625-5.7422.2465-.84652.4952-1.64366.5752-2.38278.0795-.73537-.0298-1.23764-.3281-1.59082-.1784-.21103-.3705-.35354-.58011-.47949-.11108-.06672-.21626-.1228-.34277-.19239-.11695-.06432-.25735-.14323-.3916-.23632-.28905-.20051-.59518-.50026-.73731-.98828-.06588-.22658-.08715-.46595-.07617-.71778z"/>
</svg>
