<svg xmlns="http://www.w3.org/2000/svg" width="24" height="24" viewBox="0 0 24 24">
  <path fill="currentColor" d="M15.9844 10.8018c.4139.0002.7497.3361.75.75v6.5703c0 .4141-.336.7498-.75.75-.4142-.0001-.75-.3358-.75-.75v-6.5703c.0002-.414.336-.75.75-.75M8.22363 5.44043c.41401.00015.74987.33599.75.75v6.57027c-.00019.414-.33603.7499-.75.75-.41405 0-.7498-.3359-.75-.75V6.19043c.00013-.41407.33591-.74995.75-.75m-.10449-3.99316c.74469 0 1.45989.27281 1.98336.84179.4342.47195.6922 1.10055.7666 1.83496 1.3645.72372 2.3669 2.01225 2.8311 3.77149.0613-.08512.1264-.16714.1973-.24414.5233-.56891 1.2379-.84167 1.9824-.8418.7446.00002 1.4599.27284 1.9834.8418.434.47192.6922 1.10067.7666 1.83496C20.5411 10.5002 21.7498 12.62 21.75 15.5938c-.0001 3.3698-1.5534 5.6376-3.9004 6.4472-.3292.1136-.6365.0736-.8721.0029-.2233-.0671-.4275-.1768-.5713-.2558-.0765-.0421-.1399-.0778-.1962-.1084l-.4121-.1289c-.1486.0221-.3264.0994-.6807.2451-.3151.1296-.9213.3782-1.5518.1123-1.9056-.8042-3.2144-2.6174-3.497-5.2246-.32181.1053-.62074.0674-.8516-.002-.22343-.0671-.4275-.1768-.57129-.2558-.07663-.0421-.13992-.0777-.19629-.1084l-.41211-.1289c-.1486.0221-.3264.0993-.68066.2451-.31511.1296-.92117.3784-1.55176.1123C3.64368 15.6339 2.25 13.4251 2.25 10.2314c.00017-2.97482 1.20953-5.09497 3.12207-6.10835.07455-.73394.33073-1.36228.76465-1.83399.52338-.5689 1.23789-.84166 1.98242-.84179m7.76076 6.8623c-.3723.00013-.6692.13072-.8779.35742-.2114.2298-.3941.62788-.3946 1.26856v.03222c.0011.30253-.1802.57673-.459.69433-1.4812.6252-2.6375 2.1945-2.6377 4.9317.0001 2.7373 1.1565 4.3074 2.6377 4.9326h.003c.0065.0005.0241.0006.0566-.0049.0749-.0128.1763-.0454.3389-.1123.2549-.1049.7851-.368 1.333-.3682.2982 0 .558.0894.7519.1748.0466.0206.0929.0446.1387.0674l.8076.2539c1.5064-.6213 2.6718-2.1947 2.6719-4.9433-.0002-2.7371-1.1566-4.3065-2.6377-4.9317-.2787-.1177-.4601-.3918-.459-.69433V9.9375l-.0078-.22949c-.0379-.50922-.2017-.83974-.3867-1.04102-.2088-.22676-.5064-.3574-.8789-.35742m-7.76076-5.3623c-.37233.00012-.66922.13071-.87793.35742-.21137.22977-.3941.62773-.39453 1.26855v.03223c.00125.30266-.18013.57666-.45898.69433-1.48126.62514-2.63752 2.19445-2.6377 4.9316 0 2.7376 1.15637 4.3074 2.6377 4.9327h.00292c.0064.0005.0239.0006.05665-.0049.07492-.0128.17624-.0454.33886-.1123.2549-.1049.78509-.368 1.33301-.3682.29823 0 .55799.0894.75195.1748.04668.0206.09285.0445.13868.0674l.81152.2549c.0682-.0281.13492-.0592.20121-.0908.114-2.3658 1.027-4.1435 2.457-5.19145-.0916-2.529-1.2088-3.99479-2.62794-4.59375-.27878-.11771-.46025-.39171-.45898-.69433V4.5752l-.00781-.2295c-.03797-.50942-.20159-.83976-.38672-1.04101-.20881-.22679-.50636-.35742-.87891-.35742"/>
</svg>
