<svg xmlns="http://www.w3.org/2000/svg" width="24" height="24" viewBox="0 0 24 24">
  <path fill="currentColor" d="M17.6221 1.83786c.4133-.02428.7684.29079.7929.7041.0241.41331-.2917.76863-.705.79297-1.0757.06352-1.593.52886-1.8633.92578-.1427.20982-.2279.41912-.2764.57618.3737.17863.6962.44484.957.78515.4775.62306.7136 1.44702.7666 2.34082.1059 1.78868-.5042 4.08704-1.8437 6.40724-1.3455 2.3302-3.9893 4.4307-6.23536 5.832-1.1341.7075-2.20617 1.2615-3.0166 1.5928-.39682.1622-.77042.2871-1.07226.3389-.13958.0238-.34157.046-.54492.0019-.1079-.0235-.26343-.0756-.40625-.2002-.15763-.1376-.25575-.3247-.28223-.5254l-.00684-.084c-.0062-.1885.0517-.3396.09766-.4306.02471-.0488.05287-.0924.07617-.126l.05078-.0684.43946-.5781c2.1598-2.9338 3.78893-6.5375 5.20605-9.5537.74444-1.58439 1.44264-3.03263 2.12594-4.08007.3418-.52384.7063-.98839 1.1016-1.32617.3099-.26471.6773-.48146 1.0957-.55762.0144-.06024.0329-.12877.0557-.20312.0811-.26521.2234-.62264.4716-.98731.5158-.75712 1.4472-1.48464 3.0157-1.57715m-5.6875 7.66211c-.2609.52713-.5362 1.09813-.8223 1.70703-1.24876 2.6579-2.74095 5.9527-4.6748 8.832.58451-.2871 1.26546-.6624 1.9834-1.1103 2.1849-1.3632 4.5726-3.3034 5.7305-5.3086.8615-1.4923 1.3602-2.9162 1.5566-4.12013zm2.4717-3.4248c-.0694-.00154-.2126.02538-.4493.22754-.2386.20394-.5116.53526-.8193 1.00683-.1371.21027-.2753.4417-.417.69043h3.0713c-.0476-.6788-.2236-1.16359-.4551-1.46582-.219-.28547-.5133-.44868-.9306-.45898"/>
</svg>
