<svg xmlns="http://www.w3.org/2000/svg" width="24" height="24" viewBox="0 0 24 24">
  <path fill="currentColor" d="M8.65332 7.99998h-1v-1h1zm1.96878-.5H9.62207v-1h1.00003zm7.7256-5.30567c.1072-.40001.5188-.63746.9189-.53027.4.10729.6375.51891.5303.91895l-.8272 3.08203 2.3877-2.38672c.2929-.29283.7677-.29287 1.0606 0 .2924.2929.2927.76778 0 1.06055l-2.5303 2.52929c.3696.37952.6408.84676.7725 1.38184H22c.4141 0 .7498.33598.75.75-.0001 1.39232-.2682 2.72232-.75 3.94332V13h-.0225c-1.2592 3.138-3.9525 5.5456-7.2714 6.4062.6457.6736 1.0438 1.587 1.0439 2.5938-.0002.414-.3359.75-.75.75H9c-.41406 0-.74976-.336-.75-.75.00011-1.0066.39747-1.9202 1.04297-2.5938C5.97441 18.5454 3.28155 16.1377 2.02246 13H2v-.0567c-.48185-1.221-.74994-2.551-.75-3.94332.00023-.41402.33593-.75.75-.75h1.3418c.40516-1.75757 2.16943-3.99991 5.458-4 2.6585 0 4.4563 1.12467 5.3408 2.45117.1817-.15078.3826-.28002.5938-.38867.705-.36268 1.5735-.52246 2.4541-.52246.0651.00001.1299.0019.1943.00488zM12 19.75c-.9792 0-1.8099.6267-2.11914 1.5h4.23824c-.3092-.8733-1.1399-1.5-2.1191-1.5M3.66113 13C5.15219 16.1055 8.32438 18.25 12 18.25c3.6756 0 6.8478-2.1445 8.3389-5.25zM2.7832 9.74998c.04829.60112.15485 1.18672.3125 1.75002h17.8086c.1576-.5633.2642-1.1489.3125-1.75002zm6.0166-4c-2.29375.00008-3.49866 1.40742-3.89648 2.5h8.31938c-.2613-.98357-1.5457-2.5-4.4229-2.5m8.1807 1.54492c-.6297.02319-1.1687.15053-1.5596.35156-.3327.17122-.5284.37748-.625.60352h.5908V7.749h1v.50098h.3106c-.0003-.15719.0485-.31492.1465-.44727zm1.5263.95508h.5469c-.0624-.11304-.1379-.22093-.2285-.31934z"/>
</svg>
