<svg xmlns="http://www.w3.org/2000/svg" width="24" height="24" viewBox="0 0 24 24">
  <path fill="currentColor" d="M7.02832 8.33594c.41874-.19697.85062-.09693 1.15332.09082l.12988.09179.28028.2129c.3269.23447.78682.51651 1.30566.70117.63424.22564 1.28834.28355 1.90334.00879.2007-.24301.41-.4424.6269-.59668.4486-.31883.962-.45917 1.4737-.32911.4916.12516.8469.46574 1.0752.82813.2299.36526.3665.80355.415 1.24515.0952.8683-.1404 1.9364-.9795 2.6357-.857.714-2.1346.874-3.7598.3662-.98916.6857-2.28994 1.0413-3.62203.2725-1.28806-.7437-1.80144-1.8711-1.69433-2.9815.10109-1.04639.74646-1.9971 1.5957-2.49508zm.49023 1.46289c-.36721.28687-.64421.75007-.69043 1.22657-.04681.4852.13727 1.0686.95215 1.5391.74373.429 1.51867.2349 2.28223-.4083.3503-.2952.6571-.6597.9063-1.0302-.567.0062-1.10469-.1123-1.57427-.2793-.80893-.2879-1.47601-.7409-1.87598-1.04787m5.96485.17285c-.0326.00771-.0953.03082-.1865.09572-.0849.0604-.1855.1514-.2989.2822-.1838.6305-.5586 1.3523-1.0644 2.0029.8124.1145 1.2718-.0747 1.5185-.2802.3465-.289.5065-.7962.4493-1.3194-.0279-.254-.1055-.4666-.1953-.6093-.0916-.14532-.1636-.17101-.1749-.17387-.0051-.00131-.0185-.00493-.0478.00195M16.5 1.25c.2696 0 .5185.08633.7227.23145l1.7431.69726.9756-.4873.1572-.06641c.7921-.27233 1.6511.31278 1.6514 1.18359V21.5c0 .6904-.5596 1.25-1.25 1.25h-16c-.69036 0-1.25-.5596-1.25-1.25V2.80859c.0003-.92892.97763-1.53252 1.80859-1.11718l.94043.46972 1.66602-.83203.08008-.03418a.7497.7497 0 0 1 .58984.03418L10 2.16113l1.665-.83203.0801-.03418a.7498.7498 0 0 1 .5899.03418L14 2.16113l1.665-.83203.0791-.03418A.75.75 0 0 1 16 1.25zm-2.165 2.4209a.75.75 0 0 1-.67 0L12 2.83789l-1.665.83301a.7499.7499 0 0 1-.66996 0L8 2.83789l-1.66504.83301a.7498.7498 0 0 1-.66992 0L4.75 3.21289V21.25h11.5V2.75h-.0732zm5 0a.7498.7498 0 0 1-.6133.02539l-.9717-.38867V21.25h2.5V3.21289z"/>
</svg>
