<svg xmlns="http://www.w3.org/2000/svg" width="24" height="24" viewBox="0 0 24 24">
  <path fill="currentColor" d="M5.50195 1.58691c.62222.01059 1.0759.40891 1.37012.83008.31386.44954.54905 1.0568.73437 1.72656.37431 1.35283.60613 3.20026.73243 5.20899.1028 1.63526.13531 3.40666.11328 5.15236.16384.052.34559.1015.54785.1426V2.68164c.00006-.41405.33597-.74983.75-.75.414.00017.7499.33595.75.75V14.8096c.1596.0056.3264.0097.5.0097V2.68164c.0001-.41405.336-.74983.75-.75.414.00017.7499.33595.75.75V14.7334c.0317-.0038.0636-.0057.0947-.0098V2.68164c.0001-.41416.3359-.75.75-.75.4139.00034.75.33605.75.75v9.93066l.5323-9.93261c.0222-.41348.3752-.72275.788-.69043.4127.03257.7299.39429.708.80762l-.5293 9.86032c.118-.0772.2598-.122.4112-.122.4139.0003.7499.336.75.75 0 .8887-.5268 1.5929-1.3057 2.08l-.3281 6.1221c-.0223.4133-.3746.7224-.7871.6904-.1986-.0156-.3739-.1091-.501-.2461-.1314.1142-.3006.1864-.4883.1866-.414 0-.7497-.3361-.75-.75v-5.1368c-.0313.0036-.0631.0074-.0947.0108v5.126c-.0003.4138-.3361.7498-.75.75-.4139-.0002-.7497-.3362-.75-.75v-5.0489c-.1707 0-.3376-.0036-.5-.0088v5.0577c-.0003.4138-.3361.7498-.75.75-.4139-.0002-.74973-.3362-.75-.75v-5.1993c-.20308-.0336-.39749-.0701-.58203-.1152-.06372 2.0004-.19775 3.9005-.38672 5.4434-.05034.4109-.42501.7033-.83594.6533-.41109-.0504-.70368-.4248-.65332-.8359.20056-1.6376.33862-3.7029.39258-5.8604-.82753-.5284-1.26074-1.2915-1.26074-2.1689.0001-.4142.33584-.75.75-.75.20792.0001.39647.0848.53222.2216-.01106-1.1312-.04668-2.2501-.11328-3.30953-.12419-1.97541-.34899-3.70084-.68164-4.90332-.16807-.60744-.34918-1.02462-.51953-1.26856-.1489-.21303-.21228-.19474-.18457-.18945-.4058.01782-.75296-.28988-.78027-.69727-.02757-.41325.28498-.7712.69824-.79883z"/>
</svg>
