<svg xmlns="http://www.w3.org/2000/svg" width="24" height="24" viewBox="0 0 24 24">
  <path fill="currentColor" d="M16.917 1.25c.6901.00029 1.25.55982 1.25 1.25v5c0 .00587-.0009.01173-.001.01758v.96387c.0001.00617.001.01235.001.01855v3.0576c.0225-.0032.0452-.0046.0674-.0078l.1308-.0107c.2994-.0094.5597.0965.751.2197.2204.1421.3992.3366.5293.5371.1299.2003.234.4422.2734.7021.0392.2586.0205.5906-.1748.8936l-1.5117 2.3428-.2178 5.3027c-.0282.6842-.6016 1.2187-1.2861 1.1983l-10.72948-.3213c-.67528-.0205-1.21289-.5744-1.21289-1.25v-6.7246c.00008-.3857.17579-.743.46387-.9756V2.5c0-.69036.55964-1.25 1.25-1.25zm1.4209 11.7998c-3.2264.4606-9.7675 1.3118-11.96485 1.5967-.02835.0164-.05639.0333-.08692.0459v6.2285l10.23927.3066.1914-4.6416-3.5977-.8564c-.4026-.0961-.6515-.5006-.5556-.9033.096-.4027.5005-.6514.9033-.5557l3.6816.876 1.2715-1.9707c-.0084-.0196-.019-.0416-.0332-.0635-.0157-.0242-.0326-.0457-.0488-.0625M6.75 13.085l2.30566-.3018V8.75H6.75zm3.8057-.4981.9297-.1211c.4545-.0601.9157-.1233 1.3759-.1846V8.75h-2.3056zm3.8056-.5058c.8123-.1092 1.595-.2167 2.3047-.3145V8.75h-2.3047zM6.75 7.25h2.30566v-4.5H6.75zm3.8057 0h2.3056v-4.5h-2.3056zm3.8056 0h2.3047v-4.5h-2.3047z"/>
</svg>
