<svg xmlns="http://www.w3.org/2000/svg" width="24" height="24" viewBox="0 0 24 24">
  <path fill="currentColor" d="M5 1.9043c.61868 0 1.21241.09358 1.67871.26953.23024.08692.46901.2088.66309.38183.15323.13678.31812.34594.38086.62207H7.75V19.9062c-.00032 1.4397-1.41145 2.3184-2.75 2.3184-1.29666 0-2.66165-.8243-2.74609-2.1846L2.25 19.9062V3.17773h.02734c.06274-.27613.22763-.48529.38086-.62207.19408-.17303.43285-.29491.66309-.38183C3.78759 1.99788 4.38132 1.9043 5 1.9043m1.25 14.3135c-.39233.1671-.82475.2558-1.25.2558s-.85767-.0887-1.25-.2558v3.6884c.00042.2925.38005.8184 1.25.8184s1.24958-.5259 1.25-.8184zm0-11.44436c-.37913.09144-.80793.14062-1.25.14062s-.87087-.04918-1.25-.14062v9.38186c0 .2923.37956.8183 1.25.8183s1.25-.526 1.25-.8183zM4.87012 3.40918c.04264.0012.08588.00488.12988.00488.04366 0 .08658-.0037.12891-.00488C5.08659 3.408 5.04365 3.4043 5 3.4043c-.04399 0-.08725.00368-.12988.00488M11.6699 1.9043c.6187 0 1.2124.09359 1.6787.26953.2303.08692.469.20881.6631.38183.1532.13677.3181.34595.3809.62207h.0273V19.9062c-.0003 1.4397-1.4114 2.3184-2.75 2.3184-1.2966 0-2.66164-.8243-2.74607-2.1846l-.00391-.1338V3.17773h.02832c.06278-.27603.22669-.48533.37988-.62207.19409-.17305.43284-.2949.66309-.38183.46629-.17596 1.05999-.26953 1.67869-.26953m1.25 14.3135c-.3923.1671-.8247.2558-1.25.2558-.4252 0-.8576-.0887-1.25-.2558v3.6884c.0004.2925.3801.8184 1.25.8184.87 0 1.2496-.5259 1.25-.8184zm0-11.44436c-.3791.09143-.8079.14062-1.25.14062s-.8709-.04918-1.25-.14062v9.38186c0 .2923.3796.8183 1.25.8183.8705 0 1.25-.526 1.25-.8183zM11.54 3.40918c.0427.0012.0859.00488.1299.00488.0437 0 .0866-.0037.1289-.00488-.0423-.00118-.0852-.00488-.1289-.00488-.0439 0-.0872.00368-.1299.00488m5.8301-1.33008c.4776-.14225 1.0764-.19247 1.6934-.14844.617.04407 1.2027.17906 1.6553.3877.2234.10312.4534.24225.6347.42871.1427.14702.2907.36667.334.64551l.0283.00293L20.5244 20.082c-.1027 1.4362-1.573 2.2116-2.9082 2.1162-1.2935-.0924-2.596-1.0119-2.583-2.375l.0049-.1328 1.1924-16.68649.0273.00097c.0825-.27019.2616-.46651.4238-.59179.2059-.15877.4527-.26369.6885-.33399m-.8359 17.7178c-.0208.2915.3206.8431 1.1885.9052.8682.0621 1.2848-.4359 1.3056-.7275l.2617-3.6787c-.403.1386-.8407.1973-1.2646.167-.4243-.0304-.8491-.1509-1.2285-.3457zm.4092-5.7364c-.0209.2916.3212.8443 1.1894.9063.8681.0619 1.2838-.436 1.3047-.7275l.668-9.35746c-.3844.06407-.8154.08222-1.2559.05078-.441-.0315-.8656-.11126-1.2373-.2295zm2.0127-10.62398c.0434.00311.0866.00208.1289.00391-.0421-.00419-.0845-.01056-.128-.01367-.0438-.00313-.0873-.00305-.1299-.00488.0424.00423.0852.01151.129.01464"/>
</svg>
