<svg xmlns="http://www.w3.org/2000/svg" width="24" height="24" viewBox="0 0 24 24">
  <path fill="currentColor" d="M12.1367.25c.2663.00005.4875.10098.6445.20215.1589.1024.2962.2332.4122.36328.2316.25992.4505.6001.6494.96289.2387.43562.4697.94879.6836 1.48535.2434-.23014.5162-.47924.7949-.70605.3617-.29442.773-.58965 1.1826-.78418.3509-.16662.8696-.34158 1.3838-.16895l.1025.04004.1416.07422c.3062.19139.4458.50118.5108.71387.0798.26146.1053.55749.1074.84082.0043.5745-.0889 1.28281-.2266 1.99316-.2743 1.41527-.7621 3.0206-1.1953 3.89942-.8753 1.77528-2.559 2.76048-4.3144 3.00688v4.6425c.3121-.4009.6556-.7662 1.0107-1.0888.2298-.2088.4669-.4039.708-.5821-.2484-1.0001-.1421-2.1064.5-3.0693.3712-.5564 1.1354-1.3697 1.8516-1.9922.3601-.31299.7441-.6089 1.0908-.80566.1699-.09635.3697-.19213.5781-.24023.1665-.03838.4627-.07403.75.0791l.1221.07813.1377.12109c.2878.2983.3566.69637.3769.94627.0264.3245-.0084.6759-.0576.9834-.0176.1101-.0403.2215-.0625.3311.2502-.0277.4931-.048.7178-.0528.2777-.0059.5624.0058.8115.0577.1249.026.2681.0679.4053.1386.1183.061.2664.1622.3818.3252l.0479.0742c.1276.2212.1409.448.125.6123-.0159.1636-.0649.3127-.1152.4346-.1007.2436-.258.4941-.4258.7246-.1284.1764-.2786.3581-.4375.542.2532.0932.4964.1901.7148.291.2683.124.53.2646.7393.419.1045.0771.2182.1737.3144.291.0804.098.1811.2501.2246.4502l.0157.0889c.0473.3992-.1677.6901-.3008.833-.146.1566-.3286.2828-.4971.3818-.3437.2019-.791.3866-1.2422.542-.8973.3091-1.9848.5622-2.6523.6055-1.4931.0963-2.7441-.6964-3.4834-1.7803-.1111.0899-.2217.1838-.3301.2822-1.0638.9664-1.8688 2.2438-1.9277 3.5938-.0069.1554-.0612.297-.1475.4131-.1104.2766-.3784.4735-.6943.4736-.3983 0-.7236-.3111-.7481-.7031-.0177-.0586-.0304-.1197-.0332-.1836-.0589-1.35-.864-2.6274-1.92772-3.5938-.10887-.0989-.22044-.1929-.33203-.2832-.73942 1.084-1.98924 1.8778-3.48242 1.7813-.66755-.0433-1.75426-.2965-2.65137-.6055-.45106-.1554-.89846-.3402-1.24218-.542-.1685-.099-.35107-.2252-.49707-.3818-.13311-.1429-.34817-.4337-.30078-.833l.01562-.0889c.0435-.2001.14421-.3522.22461-.4502.09614-.1171.20909-.2139.31348-.291.20918-.1544.47099-.295.73925-.419.21843-.1009.46163-.1978.71485-.291-.1589-.1838-.30817-.3656-.43653-.542-.16778-.2305-.32612-.481-.42675-.7246-.05031-.1219-.09839-.2712-.11426-.4346-.01587-.1643-.00267-.3911.125-.6123l.04687-.0742c.11549-.1631.26446-.2642.38282-.3252.13724-.0707.28039-.1126.40527-.1386.24909-.0519.53392-.0636.81152-.0577.22472.0048.46757.0251.71778.0528-.02222-.1096-.04491-.221-.0625-.3311-.04914-.3075-.08397-.6589-.05762-.9834.0203-.2499.08915-.64797.37695-.94627l.1377-.12109.12207-.07813c.28731-.15307.58355-.11749.75-.0791.20851.04812.40826.14386.57812.24023.34666.19674.72973.49271 1.08985.80566.01503.0131.02984.0268.04492.04-.22906-.28875-.43308-.60735-.60547-.95698-.43321-.87882-.92094-2.48415-1.19531-3.89942-.1377-.71036-.23082-1.41865-.22657-1.99316.00211-.28334.0276-.57935.10743-.84082.07425-.24307.24566-.61314.65234-.78809l.09375-.03515c.21798-.0699.42804-.05917.58496-.03321.18597.03081.36802.09476.5332.16699.33076.14468.69355.36772 1.05469.62305.43364.30661.89965.68798 1.36035 1.09668.17018-.54939.35898-1.07947.56058-1.53418.1722-.38853.3675-.75817.5859-1.04297.1095-.14264.2439-.29007.4063-.40625.1628-.11643.3937-.2294.6767-.22949M5.98828 11.0088c.08468.5296.23681 1.0316.30371 1.3057.06083.2498-.01075.5142-.18945.6992-.17887.1849-.44051.2643-.69239.2119-.55437-.1155-1.12351-.1883-1.56445-.2002.27122.3691.67456.8117 1.0957 1.2168.19456.1871.27373.464.20703.7256-.06682.2616-.26877.4671-.52929.5381-.59246.1612-1.19267.3691-1.63867.5742.17258.0755.37427.1538.59668.2304.82979.2859 1.77609.496 2.25976.5274.85846.0556 1.63488-.392 2.12891-1.1025-.00679-.0034-.01374-.0065-.02051-.0098-.53373-.2625-.96066-.3659-1.2207-.3633-.41412.0043-.75343-.328-.75782-.7422-.00425-.4141.32809-.7534.74219-.7578.54993-.0057 1.16794.1772 1.76465.4551.03095-.4937-.08347-.9849-.36719-1.4102-.2691-.4032-.92456-1.1177-1.58691-1.6933-.20329-.1767-.39633-.3265-.56445-.4463.00793.0748.01954.1557.0332.2412m12.64352-.2412c-.168.1198-.3603.2697-.5634.4463-.6623.5756-1.3178 1.2901-1.587 1.6933-.2837.4253-.3991.9165-.3681 1.4102.597-.2781 1.2154-.4608 1.7656-.4551.4141.0044.7464.3437.7422.7578-.0044.4142-.3437.7465-.7578.7422-.2601-.0027-.6869.1007-1.2207.3633-.0072.0035-.0143.0072-.0215.0107.494.7104 1.2715 1.1572 2.1299 1.1016.4837-.0314 1.4301-.2416 2.2597-.5274.2222-.0765.4233-.1549.5957-.2304-.4459-.205-1.0454-.4131-1.6377-.5742-.2605-.071-.4624-.2765-.5292-.5381-.0667-.2615.0116-.5385.206-.7256.4212-.4051.8254-.8476 1.0967-1.2168-.4409.0119-1.0102.0847-1.5645.2002-.2518.0524-.5135-.0271-.6924-.2119-.1787-.185-.2502-.4494-.1894-.6992.0669-.2742.219-.7761.3037-1.3057.0137-.0855.0243-.1664.0322-.2412m-10.09762.3105c.33699.3597.63014.7121.82031.9971.64231.963.74851 2.0691.5 3.0693.24121.1783.47901.3732.70901.5821.3324.302.6542.6418.9502 1.0127v-4.5352c-1.0598-.1041-2.10608-.4746-2.97952-1.126m3.62602-9.15915c-.0958.1487-.2049.35465-.3213.61718-.3005.67792-.5913 1.59615-.8135 2.49707-.0647.2622-.2655.46991-.5254.54297-.2601.07288-.53983-.00007-.73145-.19043-.68529-.6814-1.44644-1.34138-2.08789-1.79492-.25521-.18042-.47632-.31706-.65527-.40918-.00128.03183-.00461.06591-.00489.10254-.00319.42975.06932 1.02609.19922 1.69629.26087 1.34577.71648 2.80875 1.06836 3.52246.6282 1.27409 1.86492 2.02097 3.22562 2.19437V7.45312c0-.4142.3358-.74998.75-.75.414.00016.75.33589.75.75v3.20408c1.2592-.2318 2.3821-.9646 2.9687-2.15427.3519-.71374.8075-2.17672 1.0684-3.52246.1299-.6702.2024-1.26654.1992-1.69629-.0006-.07479-.0064-.13918-.0107-.19434-.0271.01093-.0583.02216-.0918.03809-.2506.119-.5544.32784-.8799.59277-.6563.5342-1.2352 1.15266-1.5274 1.43262-.1859.17799-.4504.24772-.7002.18555-.2499-.06239-.4507-.24851-.5312-.49317-.283-.86079-.6371-1.71836-.9815-2.34668-.1354-.24719-.2603-.44077-.3671-.58007"/>
</svg>
