<svg xmlns="http://www.w3.org/2000/svg" width="24" height="24" viewBox="0 0 24 24">
  <path fill="currentColor" d="M18.3008 1.57715c.673.00008 1.5116.20957 2.0283.83301.5887.71095.5407 1.66564-.0244 2.64453-.0068.0118-.0151.02288-.0225.03418L13.3516 16.7988c-.0335.0564-.0757.1044-.1202.1485.0247.1746.0309.3528.0176.5322-.0541.7289-.4086 1.4206-.8769 1.9941-.9259 1.1336-2.51226 2.0624-4.09476 2.0625-1.58257-.0002-3.16999-.9288-4.0957-2.0625-.46815-.5734-.82185-1.2653-.87598-1.9941-.02768-.3741.02577-.7425.16602-1.0869.00378-.1222.03489-.2458.10156-.3584L10.5225 4.29395c.0414-.06994.0944-.1288.1523-.17969.7133-1.01298 1.6325-1.52582 2.6035-1.47364.642.03481 1.2153.3137 1.6729.72461.3895-.40579.8002-.76564 1.2256-1.05273.6442-.43467 1.3676-.73516 2.124-.73535M5.9541 16.2734c-.18809-.0308-.44169-.0039-.7832.2823-.30354.2546-.39044.5257-.36914.8134.02433.326.19723.734.54199 1.1563.70098.8582 1.88866 1.5105 2.93359 1.5107 1.04499-.0001 2.23256-.6524 2.93356-1.5107.345-.4224.5177-.8303.542-1.1563.0214-.2879-.066-.5586-.3701-.8134-.342-.2864-.5951-.3134-.7832-.2823-.2265.0377-.4847.1823-.75585.4317-.26514.244-.49177.542-.65625.79-.02705.0408-.05039.0808-.07324.1172.11157.2013.35343.3029.58105.2305.39429-.1255.81639.0922.94239.4863.1258.3946-.0928.8165-.4873.9424-.68002.2167-1.38884.0476-1.89552-.3828-.5068.4306-1.21628.5997-1.89648.3828-.39405-.1262-.61209-.5481-.48633-.9424.12597-.3942.54806-.6117.94238-.4863.2427.0774.49859-.0442.59863-.2725-.01514-.0237-.02913-.0499-.04589-.0752-.16453-.248-.39106-.546-.65625-.79-.27136-.2496-.53019-.3941-.75684-.4317m7.2432-12.13473c-.3372-.01789-.8462.14423-1.3711.9502-.0309.04735-.0677.08905-.1065.12695L6.05957 14.7783c.04638.0048.09341.008.13965.0156.58845.0975 1.07806.4139 1.45019.7403L14.0996 4.63574c-.2765-.31541-.6047-.48085-.9023-.49707m5.1035-1.06152c-.3579.00019-.7908.14591-1.2852.47949-.4352.29377-.8854.71082-1.3261 1.22461-.0135.09484-.044.18879-.0958.27637L9.71094 14.9961c.1986-.0923.41366-.164.64356-.2022.6681-.1106 1.3543.0771 1.9922.6114.0191.016.0372.0335.0556.0498l6.6075-11.16115c.002-.0035.0037-.0073.0058-.01075.1838-.32402.2324-.54329.2344-.67382.0017-.11847-.0315-.18816-.0762-.24219-.1184-.14267-.4319-.28995-.873-.29004"/>
</svg>
