<svg xmlns="http://www.w3.org/2000/svg" width="24" height="24" viewBox="0 0 24 24">
  <path fill="currentColor" d="M5.45996 20.0361h-1v-1h1zm3.03027-.5h-1v-1h1zm-2.20898-1.2666h-1v-1h1zM8 17.5H7v-1h1zm1.71191 0h-1v-1h1zm-4.25195-1.2686h-1v-1h1zm3.03027-1h-1v-1h1zM13.583 1.25c2.584 0 4.1416.91904 5.041 2.19238.8587 1.21573 1.032 2.64478 1.1221 3.47657a.7515.7515 0 0 1-.1875.58203C19.4163 7.65947 19.213 7.75 19 7.75h-2.1748c.6963 1.29496 1.359 2.9324 1.8936 4.6377.7147 2.28 1.2259 4.7602 1.2675 6.8105.0387 1.9065-1.6529 3.0386-3.3066 3.0079l-8.41603-.1573L8.26465 22H5c-1.60511 0-2.91579-1.2606-2.99609-2.8457L2 19v-4c0-1.6569 1.34315-3 3-3h4l.1543.0039c.13692.0069.27086.0261.40234.0508.39196-.3536.63456-.7059.71286-1.0469.1756-.7643.1806-1.72262.1319-2.52733-.0166-.27362-.0407-.52231-.0625-.73047h-.6641c-.34746 1.71166-1.86059 3-3.6748 3-.41421 0-.75-.3358-.75-.75 0-.41421.33579-.75.75-.75.97933 0 1.81001-.62657 2.11914-1.5H6c-.41421 0-.75-.33579-.75-.75V2c0-.41421.33579-.75.75-.75zm-1.6836 7.13965c.0513.84793.0564 1.97785-.168 2.95415-.1243.5412-.4083 1.0059-.7529 1.4013C11.6046 13.2949 12 14.1012 12 15v4l-.0039.1543c-.0271.5347-.1976 1.0302-.4688 1.4551l5.1797.0976c1.0659.0199 1.7956-.6644 1.7793-1.4775-.0377-1.8589-.5081-4.1909-1.1982-6.3926-.6326-2.0181-1.4299-3.86167-2.1943-5.0869h-3.2461c.0187.19146.0377.40726.0517.63965M5 13.5c-.82843 0-1.5.6716-1.5 1.5v4c0 .8284.67157 1.5 1.5 1.5h4c.82843 0 1.5-.6716 1.5-1.5v-4c0-.8284-.67157-1.5-1.5-1.5zm1.75-7.25h11.3887c-.1153-.64791-.3174-1.34374-.7403-1.94238C16.8263 3.49772 15.7655 2.75 13.583 2.75H6.75z"/>
</svg>
