<svg xmlns="http://www.w3.org/2000/svg" width="24" height="24" viewBox="0 0 24 24">
  <path fill="currentColor" d="M10 1.25c.4142 0 .75.33579.75.75v2c0 .0744-.015.14504-.0352.21289.0218.09233.0352.18815.0352.28711v.75H20c.304 0 .5777.18367.6934.46484.1156.28124.0501.6045-.1661.81836-.7139.70644-.9958 1.62169-1.0136 2.74414-.0181 1.14426.239 2.41936.5351 3.77056.2873 1.3106.6167 2.713.6612 3.9726.045 1.2742-.1936 2.5571-1.1885 3.5186-.1399.1351-.3271.2109-.5215.2109h-8.25v.75c0 .6904-.5596 1.25-1.25 1.25h-5c-.69036 0-1.25-.5596-1.25-1.25v-17c0-.09888.01248-.19485.03418-.28711C3.26405 4.14512 3.25 4.0743 3.25 4V2c0-.41421.33579-.75.75-.75zm-5.25 20h4.5V4.75h-4.5zm6-2h7.9199c.4151-.5235.5744-1.2336.541-2.1768-.0385-1.0909-.3267-2.3344-.6269-3.7041-.2913-1.3292-.5916-2.7699-.5703-4.11519.0136-.86378.1608-1.72002.54-2.50391H10.75zm-6-16h4.5v-.5h-4.5z"/>
</svg>
