<svg xmlns="http://www.w3.org/2000/svg" width="24" height="24" viewBox="0 0 24 24">
  <path fill="currentColor" d="M13.3486 4.82033c.316.03208.596.18334.7979.40625.0242.02673.0475.05426.0693.08301.1595.20984.2549.47104.2549.75489v6.16312c.055.0271.1073.0554.1543.0859.2196.1428.398.3365.5283.5371.1303.2007.2361.4438.2764.7041.0398.2582.0224.5919-.1738.8965l-.7413 1.1475-.0439 1.0722v2.3936c-.0002.6901-.5598 1.2499-1.25 1.25H6.22949c-.34306 0-.65401-.1386-.87988-.3623-.41202-.2049-.69418-.6289-.69434-1.1182v-4.4297c0-.3211.12158-.6173.32422-.8408V6.06448c0-.69036.55965-1.25001 1.25-1.25001h6.99121zm-2.292 9.47067c-.1529.0669-.3215.1054-.499.1055H8.89355c-.15105 0-.29564-.029-.42968-.0781-.08399.011-.16705.0225-.24903.0332-.10269.0273-.21001.0449-.32129.0449h-.01562c-.53505.0699-1.01357.1326-1.39844.1826v4.0205l6.40231.1924.0889-2.1377v-.54h-2.1846c-.4141 0-.7499-.3359-.75-.75.0001-.4142.3358-.75.75-.75h2.1846v-.2178h-1.4141c-.1778-.0001-.3468-.0384-.5-.1055m-4.57711-1.3945h1.16406v-2.3818H6.47949zm2.66406-.1777.20801-.0264c.31456-.0415.63456-.0854.95504-.1279v-2.0498H9.14355zm2.66405-.3545c.4046-.0545.7961-.1089 1.1631-.1592v-1.6904h-1.1631zM6.47949 9.01467h1.16406V6.31448H6.47949zm2.66406 0h1.16305V6.31448H9.14355zm2.66405 0h1.1631V6.31448h-1.1631zm4.4297-7.76465c.2702.0001.5201.08657.7246.23242l1.8477.70215 1.1015-.52246c.8293-.39354 1.7871.21089 1.7871 1.12891V21.5c0 .6901-.56 1.2496-1.25 1.25H3.55273c-.69034 0-1.24998-.5596-1.25-1.25V2.79104c.00005-.91815.95677-1.52277 1.78614-1.12891l1.06836.50684 1.78418-.84668.07812-.03125c.18429-.06334.3874-.05325.56543.03125l1.7832.84668 1.78414-.84668.0772-.03125c.1845-.06355.3882-.05341.5664.03125l1.7822.84668 1.7842-.84668.0772-.03125a.752.752 0 0 1 .2451-.04102zm-2.3369 2.42774c-.2035.09648-.4401.0966-.6436 0l-1.7832-.84766-1.78317.84766c-.20352.09666-.44.09657-.64355 0L7.2627 2.8301l-1.78321.84766c-.20352.09654-.44006.09662-.64355 0l-1.03321-.49121V21.25H15.9873V2.75002h-.1338zm5.2637 0c-.1845.08747-.3971.09582-.5879.02343l-1.0889-.41406V21.25h2.7109V3.18557z"/>
</svg>
