<svg xmlns="http://www.w3.org/2000/svg" width="24" height="24" viewBox="0 0 24 24">
  <path fill="currentColor" d="M10.2676 11.1934c1.2518 0 2.2764.4174 2.9863 1.163.703.7385 1.0313 1.7293 1.0313 2.7618-.0001 1.0323-.3283 2.0233-1.0313 2.7617-.7099.7455-1.7346 1.1631-2.9863 1.1631-1.25174 0-2.27646-.4176-2.98635-1.1631-.70301-.7384-1.0312-1.7294-1.03125-2.7617 0-1.0325.32825-2.0233 1.03125-2.7618.70989-.7456 1.73452-1.163 2.98635-1.163m0 1.5c-.90764 0-1.51638.2939-1.90041.6972-.39073.4106-.61719 1.0068-.61719 1.7276.00005.7207.22641 1.317.61719 1.7275.38403.4033.99284.6973 1.90041.6973.9075 0 1.5163-.294 1.9004-.6973.3907-.4105.6171-1.0068.6172-1.7275 0-.7208-.2265-1.317-.6172-1.7276-.3841-.4033-.9928-.6972-1.9004-.6972M17 1.25c.6904 0 1.25.55964 1.25 1.25v1.79102l1.3223 2.2041c.1165.19427.1777.417.1777.64355V21.5c0 .6904-.5596 1.25-1.25 1.25h-13c-.69036 0-1.25-.5596-1.25-1.25V7.13867c0-.22655.06117-.44928.17773-.64355L5.75 4.29102V2.5c0-.69036.55964-1.25 1.25-1.25zm-11.25 20h9.5V9h-9.5zm11-12.80957V21.25h1.5V7.20801l-.4336-.72266zm-11-1.23242V7.5h9.8047L16.373 6H6.47461zm1.5-2.84668c0 .04653-.00465.09267-.00977.13867h9.51957c-.0051-.046-.0098-.09214-.0098-.13867V2.75h-9.5z"/>
</svg>
