<svg xmlns="http://www.w3.org/2000/svg" width="24" height="24" viewBox="0 0 24 24">
  <path fill="currentColor" d="M13.7568 2.3369c1.063-.48096 2.0605-.53507 2.9649-.25488.8846.27427 1.614.84617 2.206 1.49902 1.1696 1.28989 1.9565 3.07292 2.4375 4.15332 1.0755 2.41594.0214 5.25194-2.3838 6.32324-.9135.4068-1.888.4961-2.8027.3203-.0075.1098-.0167.2196-.0293.3281-.2002 1.7295-1.0244 3.4958-1.5205 4.5694-1.1096 2.4005-3.9379 3.4754-6.32812 2.3711-2.39046-1.1047-3.40439-3.9556-2.29492-6.3565.17922-.3878.39998-.87.66699-1.3867-.08645.0055-.17399.0098-.26172.0098-2.30753 0-4.1608-1.8947-4.16113-4.20901 0-.99272-.00527-2.66183.46484-4.08985.23855-.72426.61594-1.44256 1.22754-1.98339.62643-.55368 1.44533-.87466 2.46387-.88086 1.01933-.00609 1.84141.30621 2.4707.85742.61389.53787.992 1.25708 1.23045 1.98242.47 1.42993.4639 3.10936.4639 4.11426 0 .02408-.0016.04827-.002.07226.0479-.0164.0957-.03517.1446-.0498.3659-.10959.747-.1651 1.1406-.16113-.3415-.96518-.6335-2.06622-.6465-3.13575-.0095-.78608.1289-1.5933.5371-2.32324.4132-.73865 1.0739-1.34496 2.0117-1.76953m-.0547 9.4043c-.0405.0926-.0995.1792-.1787.2519-.9005.8267-1.3014 1.5207-1.4961 2.1211-.2005.6192-.2045 1.1968-.2128 1.8985-.0081.68-.0221 1.4804-.3545 2.332-.2871.7349-.7919 1.4571-1.62797 2.2041 1.38377.1919 2.80447-.5377 3.43557-1.9033.5149-1.1142 1.2227-2.6621 1.3906-4.1123.0826-.7141.026-1.3456-.2051-1.8652-.1491-.3353-.3854-.6503-.751-.9268m-1.4238-.6318c-.4221-.0779-.7969-.0462-1.1338.0546-.5498.1649-1.0707.533-1.56052 1.0577-.99448 1.0656-1.7085 2.5973-2.21679 3.6972-.66234 1.4334-.22785 3.0751.93652 3.9834.03642-.0468.07833-.0914.12695-.1299.97353-.7687 1.41511-1.4161 1.63284-1.9736.2223-.5699.2438-1.1191.2519-1.8047.0079-.6644.002-1.4716.2842-2.3427.2665-.8221.7718-1.6563 1.6787-2.542m1.3955-6.98539c-.2772.21921-.476.46174-.6181.71582-.2462.44025-.354.96862-.3467 1.57129.014 1.1564.4474 2.44482.9062 3.55566.0213.00934.0432.01865.0645.02832 1.062.4831 1.7587 1.1984 2.1435 2.0635.1081.2429.1857.4932.2442.7461.512.1664 1.0623.2054 1.6035.1015-.0112-.0582-.0178-.1188-.0147-.1806.0628-1.239-.1331-1.9973-.4091-2.5283-.2824-.54286-.6818-.92026-1.1924-1.37798-.4949-.44361-1.1055-.97156-1.5752-1.75781-.4432-.74208-.7366-1.67134-.8057-2.9375m-8.13376.26953c-.24125.08881-.43881.21491-.60449.36133-.34696.30697-.60924.7585-.79688 1.32812C3.75648 7.244 3.75 8.66771 3.75 9.70409c.00027 1.25711.83843 2.30001 1.96387 2.61131.00818-.0204.01821-.0406.02832-.0605.47181-.93.57521-1.5688.5459-2.0537-.03026-.49851-.20232-.91437-.44141-1.44828-.23043-.51457-.53045-1.15274-.62598-1.94727-.0841-.70041-.00685-1.4813.31934-2.41211m1.60742-.05273c-.00934.05511-.02252.11125-.04492.16504-.3953.94749-.45406 1.60903-.39258 2.12109.06395.53142.26026.96426.50586 1.51269.23689.52899.52075 1.17007.56934 1.97067.03813.6303-.07126 1.3144-.38184 2.1036.03587-.0147.07334-.0268.1084-.043.07783-.036.15942-.0553.24023-.0635.22723-.3183.47312-.6261.73731-.9092.11534-.1235.23688-.2433.3623-.3593.00395-.0261.00878-.0522.01563-.0782l.10156-.3086c.06649-.2368.10248-.48787.10254-.74801 0-1.04978-.00642-2.48353-.38867-3.64649-.18764-.5706-.4493-1.01911-.79395-1.32129-.19505-.17084-.43582-.31022-.74121-.3955m9.12984-.82618c-.3505-.10857-.7435-.13986-1.1923-.04687.0434.09189.0706.19365.0732.30176.0288 1.22192.2858 1.9805.6094 2.52246.3338.55888.7664.94265 1.289 1.41113.5065.45405 1.0997.99235 1.5215 1.80371.3637.69978.5755 1.55438.5869 2.67478 1.055-.9149 1.4418-2.46402.8301-3.83786-.4993-1.12131-1.198-2.67328-2.1787-3.75489-.4829-.53252-.9958-.90581-1.5391-1.07422"/>
</svg>
