<svg xmlns="http://www.w3.org/2000/svg" width="24" height="24" viewBox="0 0 24 24">
  <path fill="currentColor" d="M17.542 13.0801a4.724 4.724 0 0 1-1.0674.6172l-.3828-.9239a3.723 3.723 0 0 0 .8408-.4863zm1.0264-2.1299.4619.1914c-.1593.384-.3678.7428-.6172 1.0674l-.793-.6094c.1969-.2562.361-.5395.4863-.8418zm.7802-2.23243c.0263.20169.0401.40783.0401.61621a4.77 4.77 0 0 1-.0401.61524l-.9912-.12891c.0207-.15887.0312-.32134.0313-.48633 0-.16512-.0106-.3283-.0313-.4873zm-.9355-2.25976a4.73 4.73 0 0 1 .6172 1.06738l-.4619.19238-.462.19141c-.1253-.30214-.2895-.58564-.4863-.8418zm-6.6445-.19434.3427.36328a3.75 3.75 0 0 0-.5215.61133l-.413-.28125-.4131-.28223c.1921-.28154.4142-.54119.6611-.77441zm4.706-1.29394c.3839.15924.7428.3678 1.0674.61718l-.6094.79297a3.725 3.725 0 0 0-.8408-.48633zm-2.9941.83496c-.256.08605-.5006.19893-.7285.33593l-.2579-.42773-.2578-.42871a4.71 4.71 0 0 1 .9258-.42773zm1.1865-1.19336c.2082.00003.4147.01376.6162.04004l-.0654.49609-.0645.49512c-.1587-.02067-.3215-.03122-.4863-.03125a3.79 3.79 0 0 0-.4024.02148l-.1074-.99414a4.8 4.8 0 0 1 .5098-.02734m0-2.36133c3.9116.00036 7.0828 3.17136 7.083 7.08301 0 3.91179-3.1713 7.08359-7.083 7.08399-.0245 0-.0498-.0006-.0742-.001-.3549.9658-.758 1.836-1.0635 2.4971-1.3072 2.8281-4.63735 4.092-7.44922 2.793-2.81185-1.2996-4.00899-4.6559-2.70215-7.4844.59498-1.2876 1.56254-3.393 2.97851-4.91018.4043-.43313.85912-.83004 1.36426-1.15136l-.03906-.00586C8.24356 4.80353 11.1565 2.25017 14.667 2.25m-2.2061 7.34961c-.0231.16675-.0988.32756-.2324.45019-1.1059 1.0152-1.61 1.8757-1.8555 2.6328-.2514.776-.2546 1.4993-.2646 2.3447-.0098.8239-.026 1.7661-.417 2.7676-.36351.9307-1.02526 1.855-2.17285 2.8233 1.84166.4134 3.80655-.5115 4.64945-2.335.6212-1.3443 1.4906-3.2406 1.6972-5.0254.102-.8814.0333-1.6765-.2617-2.3398-.2167-.4872-.5723-.93977-1.1426-1.31839m-1.3125-.59473c-.6542-.17633-1.22768-.14808-1.73825.00489-.70118.21017-1.35345.67655-1.958 1.32423-1.22424 1.3117-2.0986 3.1903-2.71192 4.5176-.85766 1.8566-.25099 3.9939 1.31934 5.1132.04785-.0986.11727-.1892.20898-.2617 1.19419-.9429 1.7492-1.7462 2.02539-2.4531.281-.7197.30561-1.4117.31543-2.2412.00956-.808.00399-1.7604.33692-2.7881.33325-1.0282.98417-2.0821 2.20211-3.21582M14.667 3.75c-2.4292.00015-4.4982 1.55219-5.26564 3.71875.94404-.18683 1.96894-.07313 3.05764.42187 1.2534.57011 2.0668 1.40929 2.5156 2.41798.4403.9901.5006 2.0793.3799 3.1221-.0205.1766-.0485.3534-.0791.5302l.0078.0547c-.0056.0007-.012.0003-.0176.001-.053.2961-.1184.5915-.1943.8838 2.8944-.2076 5.1787-2.62 5.1787-5.56739-.0002-3.08322-2.4998-5.58265-5.583-5.58301"/>
</svg>
