<svg xmlns="http://www.w3.org/2000/svg" width="24" height="24" viewBox="0 0 24 24">
  <path fill="currentColor" d="M10.9951 8.25c.9169-.00556 1.6618.2757 2.2334.77637.5564.48736.8965 1.13573 1.1094 1.78323.4189 1.2741.4121 2.7661.4121 3.6474 0 2.0847-1.6689 3.793-3.75 3.793-2.08107 0-3.75-1.7083-3.75-3.793 0-.8707-.00587-2.3536.41309-3.6259.21287-.6464.55166-1.29346 1.10546-1.78325.56872-.50283 1.31055-.79222 2.22655-.79785m-.9092 1.70117c-.12262.06283-.22945.13683-.3232.21973-.28961.256-.5137.6376-.67579 1.1299C8.756 12.306 8.75 13.5427 8.75 14.457c0 1.0379.67289 1.903 1.5869 2.1905.4046-.8012.4904-1.3433.4658-1.7481-.0256-.4202-.1703-.7731-.3808-1.2432-.2018-.4505-.4718-1.0237-.55764-1.7382-.06983-.5818-.01438-1.2211.22164-1.96683m1.6065-.03222c-.343.82185-.3907 1.38805-.3389 1.82035.0543.4517.2206.8202.4375 1.3046.2082.465.4649 1.0424.5088 1.7647.0312.5142-.0495 1.0644-.2686 1.6846.7206-.3798 1.2188-1.1437 1.2188-2.0362 0-.9262-.0068-2.1717-.3379-3.1787-.1621-.493-.3846-.8713-.6719-1.123-.1413-.1238-.3123-.2285-.5254-.30081-.0067.02152-.0136.04323-.0224.06446M16.5 1.25c.2696 0 .5185.08633.7227.23145l1.7431.69726.9756-.4873.1572-.06641c.7921-.27233 1.6511.31278 1.6514 1.18359V21.5c0 .6904-.5596 1.25-1.25 1.25h-16c-.69036 0-1.25-.5596-1.25-1.25V2.80859c.0003-.92892.97763-1.53252 1.80859-1.11718l.94043.46972 1.66602-.83203.08008-.03418a.7497.7497 0 0 1 .58984.03418L10 2.16113l1.665-.83203.0801-.03418a.7498.7498 0 0 1 .5899.03418L14 2.16113l1.665-.83203.0791-.03418A.75.75 0 0 1 16 1.25zm-2.165 2.4209a.75.75 0 0 1-.67 0L12 2.83789l-1.665.83301a.7499.7499 0 0 1-.66996 0L8 2.83789l-1.66504.83301a.7498.7498 0 0 1-.66992 0L4.75 3.21289V21.25h11.5V2.75h-.0732zm5 0a.7498.7498 0 0 1-.6133.02539l-.9717-.38867V21.25h2.5V3.21289z"/>
</svg>
