<svg xmlns="http://www.w3.org/2000/svg" width="24" height="24" viewBox="0 0 24 24">
  <path fill="currentColor" d="M11.9707 4.07422c1.0002.00004 2.1428.35956 3.0664.72754.9439.37608 1.7518.79929 2.1104.99512.2787.15224.4775.40075.5742.68554l.0351.12403L20.2617 17.585l-.2685.0605c.1064-.0185.207-.0341.2998-.0508.2571-.0461.4601-.0846.5976-.1113.0684-.0133.1213-.0233.1563-.0303.0171-.0034.0305-.007.039-.0088a.3.3 0 0 0 .0088-.0019h.003l.0761-.0117c.378-.0389.7318.2137.8106.5937.0784.3802-.1462.7531-.5088.8672l-.0742.0195-.0039.001c-.0027.0005-.0071.001-.0118.002-.01.002-.0252.005-.0439.0088-.0379.0076-.0935.0193-.165.0332-.144.0279-.3545.0677-.6192.1152-.5297.095-1.2818.2212-2.1738.3476-1.7805.2524-4.1395.5078-6.4131.5079-2.27368-.0001-4.63262-.2555-6.41308-.5079-.89233-.1264-1.64508-.2525-2.1748-.3476a45 45 0 0 1-.61817-.1152c-.07185-.014-.12809-.0256-.16601-.0332-.01855-.0038-.03311-.0068-.04297-.0088-.00486-.001-.00907-.0015-.01172-.002l-.00293-.001h-.00195c-.40508-.0841-.66555-.4815-.58204-.8867.08409-.4053.4813-.6658.88672-.582h.00196l.00976.0019c.00851.0018.0218.0053.03906.0088.03493.007.08776.017.15625.0303.13751.0267.34045.0652.59766.1113.0925.0166.19267.0324.29883.0508l-.26758-.0605L6.18457 6.60645l.03516-.12403c.09668-.28463.29568-.5333.57422-.68554.35862-.19583 1.1666-.61908 2.11035-.99512.92359-.36797 2.0662-.72746 3.0664-.72754m4.3721 3.53808-.0078.00782c-.0034.00306-.0081.00646-.0118.00976-.0075.00676-.0163.01482-.0253.02246a1.36 1.36 0 0 1-.0665.05176c-.0514.03782-.1177.08222-.2011.12891-.1677.0937-.4057.19974-.7344.2998-.6559.19961-1.6884.37791-3.291.37793-1.6035-.00003-2.65029-.1783-3.31935-.37597-.33498-.09902-.57752-.20362-.74805-.29395-.08499-.04504-.15243-.0867-.2041-.12207-.02564-.01757-.04813-.03368-.0664-.04785a1.1 1.1 0 0 1-.0254-.02051c-.00344-.00285-.0067-.00615-.00976-.00879a.2.2 0 0 0-.00488-.0039L7.625 7.63574l-.00195-.00097s.01707-.02108.49414-.56446l-.49512.56348c-.04084-.03589-.0763-.07617-.10742-.11817L5.15821 17.8408c.19462.0297.39828.0637.61035.0938 1.74678.2476 4.02801.4921 6.20214.4922 2.1742-.0001 4.4553-.2446 6.2022-.4922.2112-.03.4144-.0633.6084-.0928L16.4248 7.51758c-.0242.03237-.05.06483-.0801.09375l-.5205-.54102c.5144.5349.5186.54199.5186.54199m-4.3721-2.03808c-.7024.00009-1.6249.26778-2.51171.62109-.27558.10982-.53911.22586-.78125.33692.08202.04016.22043.10132.43261.16406.49952.14757 1.39795.31442 2.89455.31445 1.4974-.00002 2.3759-.16687 2.8545-.3125.2081-.06337.338-.12444.4101-.16211-.2442-.11212-.5097-.22991-.7881-.34082-.8867-.35327-1.8084-.62105-2.5107-.62109"/>
</svg>
