<svg xmlns="http://www.w3.org/2000/svg" width="24" height="24" viewBox="0 0 24 24">
  <path fill="currentColor" d="M17.5 1.25c.6903.00002 1.25.55966 1.25 1.25v1c0 .51037-.3067.94742-.7451 1.1416l.707 2.1211c.0255.07647.0381.15669.0381.2373v12c0 2.0711-1.679 3.75-3.75 3.75H9c-2.07105 0-3.75-1.6789-3.75-3.75V7c0-.08061.0126-.16083.03809-.2373l.70605-2.1211C5.55618 4.44723 5.25 4.01003 5.25 3.5v-1c0-.69034.55967-1.24997 1.25-1.25zm-2 12.3018c-.9095.0374-1.9525.3185-3.1357.6211-1.1352.2902-2.39525.5979-3.57914.5761-.70119-.0129-1.39437-.1429-2.03516-.459V19c0 1.2426 1.00738 2.25 2.25 2.25h6c1.2426 0 2.25-1.0074 2.25-2.25v-4.9414c-.4223-.3921-.9842-.5384-1.75-.5068m-8.75-1.083c.55765.5505 1.24104.7651 2.06348.7802.94988.0175 2.01752-.2321 3.17972-.5293 1.114-.2848 2.3392-.6213 3.4443-.667.6171-.0254 1.238.0389 1.8125.2647V7.75H6.75zM7.04102 6.25H16.959l-.5-1.5H7.54102zm-.29102-3h10.5v-.5H6.75z"/>
</svg>
