<svg xmlns="http://www.w3.org/2000/svg" width="24" height="24" viewBox="0 0 24 24">
  <path fill="currentColor" d="m16.1572 18.6113.0977.4903c-.1726.0341-.3515.0517-.5332.0517-.1815 0-.3599-.0177-.5322-.0517l.1933-.9815c.109.0216.2227.0332.3389.0332s.2299-.0117.3388-.0332zm-1.876-1.2285c.1266.189.2896.3529.4786.4795l-.5567.8301a2.749 2.749 0 0 1-.7529-.7529l.415-.2784zm3.712.5567a2.748 2.748 0 0 1-.753.7529l-.5566-.8301c.189-.1265.3529-.2905.4795-.4795zm-3.9707-1.8575a1.746 1.746 0 0 0 0 .6778l-.4903.0966-.4912.0977c-.0341-.1726-.0517-.3514-.0517-.5332 0-.1816.0177-.3598.0517-.5322zm4.3798-.1933c.0341.1725.0518.3506.0518.5322 0 .1818-.0176.3606-.0518.5332l-.4902-.0977-.4912-.0966a1.745 1.745 0 0 0 .0332-.3389c0-.1163-.0116-.2298-.0332-.3389zm-3.9209-1.3242.2784.416c-.189.1265-.352.2895-.4786.4785l-.416-.2783-.415-.2784c.1992-.2974.4555-.5536.7529-.7529zm2.7588-.4151c.2976.1992.5537.4554.753.7529l-.8301.5567c-.1266-.1891-.2904-.3519-.4795-.4785l.2783-.416zm-1.5185-.4609c.1817 0 .3606.0176.5332.0517l-.0977.4912-.0967.4903a1.743 1.743 0 0 0-.3388-.0332c-.1162 0-.2299.0116-.3389.0332l-.1933-.9815c.1723-.034.3507-.0517.5322-.0517m-1.2403-3.334.2784.416c-.1889.1266-.3521.2896-.4786.4785l-.416-.2783-.415-.2783c.1991-.2974.4556-.5537.7529-.75295zm2.7588-.41505c.2976.19925.5537.45535.753.75295l-.8301.5566c-.1266-.1891-.2904-.3519-.4795-.4785l.2783-.416zm-1.5185-.46093c.1817 0 .3606.01763.5332.05175l-.0977.49123-.0967.4902a1.75 1.75 0 0 0-.3388-.0332c-.1162 0-.2299.0117-.3389.0332l-.1933-.98143c.1723-.03407.3507-.05172.5322-.05175m3.6806-2.33399c.0341.17237.0518.35075.0518.53223a2.75 2.75 0 0 1-.0342.43066l-.9873-.15625a1.753 1.753 0 0 0-.0117-.61328zm-3.9209-1.32422.2784.41602a1.745 1.745 0 0 0-.4786.47851l-.416-.27832-.415-.27832a2.745 2.745 0 0 1 .7529-.75293zm2.7588-.41504c.2974.19916.5537.45557.753.75293l-.8301.55664c-.1266-.1889-.2906-.352-.4795-.47851l.2783-.41602zm-1.5185-.46093c.1816 0 .3606.01766.5332.05175l-.0977.49121-.0967.49024a1.75 1.75 0 0 0-.3388-.0332 1.75 1.75 0 0 0-.3389.0332l-.1933-.98145c.1723-.03407.3507-.05172.5322-.05175m.001-2.22754c2.7765.00027 5.0273 2.25168 5.0273 5.02832-.0001 1.22737-.4423 2.35208-1.1729 3.22458.1122.4173.1729.8559.1729 1.3086-.0001.75-.1683 1.4619-.4639 2.1026.2967.6413.4639 1.3554.4639 2.1084-.0006 2.7761-2.2511 5.027-5.0273 5.0273-2.7765 0-5.0278-2.251-5.0284-5.0273 0-.7528.1664-1.4672.4629-2.1084-.2954-.6406-.4628-1.3527-.4629-2.1026.0001-1.228.4405-2.35331 1.1719-3.22654-.1121-.41727-.1718-.85558-.1719-1.30664 0-2.7768 2.2516-5.02832 5.0284-5.02832m-1 10.2441c-1.2485 0-2.3455.6483-2.9727 1.627-.0318.1417-.1026.2732-.2109.3769-.2212.4613-.3448.9788-.3448 1.5245.0006 1.9478 1.5803 3.5273 3.5284 3.5273 1.9477-.0003 3.5267-1.5796 3.5273-3.5273 0-.5458-.1244-1.0631-.3457-1.5245-.1081-.1037-.1793-.2353-.2109-.3769-.627-.9783-1.7227-1.6268-2.9707-1.627m0-4.2109c-1.9484 0-3.5283 1.58-3.5284 3.5283.0001.1981.0185.3922.0498.5811.2294-.2199.4794-.4182.7471-.5918-.0004-.0188-.0019-.0378-.0019-.0567 0-.1814.0177-.3599.0517-.5322l.7813.1533c.5863-.2395 1.2279-.3711 1.9004-.3711.6718.0001 1.3126.1319 1.8984.3711l.7812-.1533c.0341.1724.0518.3507.0518.5322 0 .0186-.0025.0372-.0029.0557.2682.1738.5183.3726.748.5928.0314-.189.0508-.3829.0508-.5811-.0001-1.9481-1.5792-3.52803-3.5273-3.5283m1-4.5332c-1.9484 0-3.5284 1.57994-3.5284 3.52832.0001.06129.0048.12215.0078.18261.2515-.14602.5163-.27181.793-.37304.0061-.13921.0195-.27666.0459-.41016l.8692.1709a5.06 5.06 0 0 1 .8125-.06543c1.7033.00017 3.2078.84838 4.1171 2.14453.2612-.49232.4101-1.0531.4102-1.64941 0-1.94821-1.5792-3.52805-3.5273-3.52832M7.9541 2.76465c.26766.00009.51542.14331.64942.375.13383.23188.13369.51806 0 .75L7.45898 5.87012C8.80532 6.43922 9.75 7.77258 9.75 9.32617v5.39263c-.0001 1.5905-.99105 2.9481-2.38867 3.4931l1.24219 2.1524c.13358.2319.13384.5181 0 .75-.13403.2315-.38185.3749-.64942.375H3.6377c-.26762 0-.51533-.1435-.64942-.375-.13387-.2319-.13366-.5181 0-.75l1.24121-2.1524c-1.39717-.5453-2.38759-1.903-2.38769-3.4931V9.32617c0-1.55327.94414-2.88676 2.29004-3.45605L2.98828 3.88965c-.13378-.23197-.13386-.51807 0-.75.13406-.23168.38171-.375.64942-.375zM4.93652 19.9893h1.71875L5.7959 18.5zm-.40625-3.5196c-.05293.0529-.11408.0922-.17675.126.35534.2349.78045.373 1.23828.3731H6c.44433-.0001.85719-.1313 1.20605-.3536-.07608-.0358-.149-.0826-.21191-.1455l-1.23242-1.2324zm2.292-2.2929 1.23242 1.2324a.75.75 0 0 1 .06054.0683c.08517-.2373.13474-.4921.13477-.7587v-1.5577A.7445.7445 0 0 1 8 12.999zM3.52344 12.999c-.05493.0538-.11663.0954-.18164.1289v1.5909c.00002.246.04122.4824.11425.7041.00441-.0047.00913-.0092.01368-.0137l1.23144-1.2324zm1.06152-1.0595 1.17676 1.1767 1.17676-1.1777-1.17676-1.1768zM3.50098 8.49805c-.10162.25642-.15918.53553-.15918.82812v1.45313c.06279.0253.12233.0605.17773.1035l1.18164-1.18163-1.1709-1.1709c-.01026-.01027-.01975-.02151-.02929-.03222m4.49414.03222-1.17285 1.1709 1.18164 1.18163c.07475-.0582.15906-.0971.24609-.123V9.32617c0-.31417-.06533-.61315-.18164-.88476-.02238.03056-.04566.06124-.07324.08886M5.5918 7.07617c-.40687 0-.78787.10897-1.11719.29785.04109.02724.07999.05952.11621.09571l1.1709 1.17089 1.17187-1.17089c.04604-.046.09776-.0837.15137-.11524C6.76322 7.17706 6.39341 7.07617 6 7.07617zm.10156-1.5h.20898l-.00293-.00195.75586-1.30957H4.93652z"/>
</svg>
