<svg xmlns="http://www.w3.org/2000/svg" width="24" height="24" viewBox="0 0 24 24">
  <path fill="currentColor" d="M19.5 1.25c.6904 0 1.25.55964 1.25 1.25v19c0 .6904-.5596 1.25-1.25 1.25h-16c-.69036 0-1.25-.5596-1.25-1.25v-19c0-.69036.55965-1.25 1.25-1.25zM3.75 13.6689c2.19297-.3059 3.5-1.9309 3.5-3.4043.00003-1.68574 1.40156-3.01443 3.083-3.0146 1.6816 0 3.084 1.32875 3.084 3.0146 0 5.2719-4.52616 9.1134-9.667 9.4571V21.25h11.5V2.75H3.75zm13 7.5811h2.5V2.75h-2.5zm-6.417-12.5c-.89553.00017-1.58297.69917-1.583 1.5146 0 2.413-2.07843 4.5909-5 4.9131v3.0411c4.47631-.3384 8.167-3.6729 8.167-7.9542 0-.81553-.6883-1.5146-1.584-1.5146"/>
</svg>
