<svg xmlns="http://www.w3.org/2000/svg" width="24" height="24" viewBox="0 0 24 24">
  <path fill="currentColor" d="M12.25 10.25c2.5366 0 4.7124 1.519 5.8184 3.7031.174.3438.174.75 0 1.0938-1.106 2.1841-3.2818 3.7031-5.8184 3.7031-2.53663 0-4.71245-1.519-5.81836-3.7031a1.2109 1.2109 0 0 1 0-1.0938C7.53755 11.769 9.71337 10.25 12.25 10.25m1.6592 1.7998c.5149.4579.8408 1.1239.8408 1.8672-.0002 1.3806-1.1194 2.5-2.5 2.5s-2.49983-1.1194-2.5-2.5c0-.743.3253-1.4093.8398-1.8672-1.15525.4318-2.13086 1.3044-2.74898 2.4502.89749 1.6637 2.54908 2.75 4.40918 2.75 1.8599 0 3.5107-1.0866 4.4082-2.75-.6183-1.1459-1.5938-2.0184-2.749-2.4502m-1.6592.8672c-.5523 0-1 .4477-1 1 .0002.5521.4478 1 1 1s.9998-.4479 1-1c0-.5523-.4477-1-1-1M14 1.25c.9665 0 1.75.7835 1.75 1.75 0 .69772-.4093 1.29804-1 1.5791v2.09668l3.3525 1.03223C19.676 8.19215 20.75 9.6467 20.75 11.293V19c0 2.0711-1.6789 3.75-3.75 3.75H7c-2.07107 0-3.75-1.6789-3.75-3.75v-7.707c0-1.6463 1.07399-3.10085 2.64746-3.58499L9.25 6.67578V4.5791c-.59072-.28106-1-.88138-1-1.5791 0-.9665.7835-1.75 1.75-1.75zm-3.25 5.98047c0 .32918-.2147.6199-.5293.7168L6.33789 9.14258C5.39408 9.43322 4.75 10.3054 4.75 11.293V19c0 1.2426 1.00736 2.25 2.25 2.25h10c1.2426 0 2.25-1.0074 2.25-2.25v-7.707c0-.9876-.6441-1.85978-1.5879-2.15042l-3.8828-1.19531c-.3146-.0969-.5293-.38762-.5293-.7168V4.75h-2.5zM10 2.75c-.13807 0-.25.11193-.25.25s.11193.25.25.25h4c.1381 0 .25-.11193.25-.25s-.1119-.25-.25-.25z"/>
</svg>
