<svg xmlns="http://www.w3.org/2000/svg" width="24" height="24" viewBox="0 0 24 24">
  <path fill="currentColor" d="M11 17h-1v-1h1zm3 0h-1v-1h1zm3-1h-1v-1h1zM7 14H6v-1h1zm3-1H9v-1h1zm3 0h-1v-1h1zm3 0h-1v-1h1zM9 9H8V8h1zm.40527-6.40137c.82623-.22745 1.46213.25875 1.80373.72949.3436.47391.5409 1.10329.541 1.67188.0001.87202.4973 1.62653 1.2227 2H13v.01269c.3016.15017.6402.23731 1 .23731.3344 0 .6503-.07277.9336-.20215.415-.18937.8778-.21006 1.2832-.12891.4056.0812.8246.27863 1.1348.61231.2265.24383.3762.54629.4345.87012C17.9751 9.45224 18.895 10.25 20 10.25c.3898 0 .7953.1185 1.1221.3584.3363.2471.613.6476.625 1.168.0016.074.0029.1492.0029.2236-.0001 5.3847-4.3653 9.75-9.75 9.75-5.38472 0-9.7499-4.3653-9.75-9.75.00015-4.48703 3.03074-8.26525 7.15527-9.40137m.39844 1.44629C6.31313 5.00641 3.75015 8.20527 3.75 12c.0001 4.5563 3.69371 8.25 8.25 8.25s8.2499-3.6937 8.25-8.25c0-.0569-.0008-.1143-.002-.1709-.0033-.0031-.0077-.0074-.0136-.0117-.0469-.0344-.1349-.0674-.2344-.0674-1.8438 0-3.3752-1.3302-3.6904-3.08301-.0082-.04481-.0282-.08464-.0567-.11523-.0567-.06092-.1718-.13034-.33-.16211-.1584-.03168-.291-.01168-.3663.02246C15.0817 8.629 14.5537 8.75 14 8.75c-2.071 0-3.7499-1.67902-3.75-3.75-.0001-.25874-.1016-.5783-.25586-.79102-.07384-.10171-.13558-.14574-.16504-.16015-.01552-.00757-.01541-.00669-.02539-.00391M21 9h-1V8h1zm-7-4h-1V4h1zm4 0h-1V4h1z"/>
</svg>
