<svg xmlns="http://www.w3.org/2000/svg" width="24" height="24" viewBox="0 0 24 24">
  <path fill="currentColor" d="M9.5 11H8v-1h1.5zm1-2H9V8h1.5zm-1-3.74414c.7693-.06983 1.534.45937 2.0801 1.41016.4612.80312.8387 2.00387 1.042 3.74708.6346-.53716 1.3707-.95565 2.2138-1.14455.2778-.06221.5667.03787.7461.25879.1793.22092.2184.52426.1006.78316-.2085.4576-.5352 1.2068-.834 1.9571-.3057.7676-.5585 1.4793-.6455 1.8886-.0487.2297-.0721.6509-.1103 1.2774-.0359.5873-.0835 1.2957-.1953 1.9863-.1105.6824-.2924 1.4079-.627 2.0078-.3433.6156-.884 1.1565-1.7041 1.3096-.2167.0405-.4318-.0178-.5967-.1455-1.30449.2632-2.36209.1892-3.20212-.1943-.89446-.4086-1.43559-1.1156-1.75391-1.8692-.31244-.7396-.42265-1.5478-.46094-2.2353-.03756-.6751-.00685-1.3316-.00683-1.666 0-.4931-.18375-1.2978-.45313-2.17-.26161-.8469-.57635-1.6722-.78418-2.167-.1105-.2634-.06151-.56663.12598-.78219.18752-.21542.4807-.30536.75684-.23242.44367.11736.85818.36685 1.24316.6875.21303-1.50247.56494-2.56481.98535-3.29687C7.96603 5.71523 8.73073 5.18603 9.5 5.25586M6.7168 12.6904c.18442.6838.3291 1.3812.3291 1.9366-.00002.4365-.02986.9591.00488 1.583.03407.6118.1289 1.2233.34473 1.7343.21002.4972.52165.8727.99511 1.0889.358.1634.86469.26 1.58399.1943-.54142-1.4084-1.30347-3.2256-2.16602-4.8398-.3204-.5996-.65261-1.1606-.98437-1.6592-.03746-.009-.07247-.0237-.10742-.0381m6.7598-1.0312c-.4535.4066-.8692.9153-1.2403 1.4883-.7158 1.1052-1.2003 2.3411-1.4472 3.2089l1.0205 2.5694c.0513-.0652.1023-.1407.1513-.2285.2091-.375.3561-.9001.4561-1.5176.0986-.6091.1428-1.2504.1787-1.8379.0335-.5482.0609-1.1276.1397-1.498.117-.5506.4174-1.3721.7197-2.1309.0071-.0178.0143-.0359.0215-.0537M9.63477 6.74902a.751.751 0 0 1-.26954 0c.08476.01547-.21727-.07979-.64453.66407-.3855.6713-.78211 1.90993-.9375 4.05961.15792.2203.31389.4514.4668.6914V11.5h1.5v1H8.45898c.23114.3799.45594.7766.67188 1.1807.20253.379.39711.7688.58691 1.1601.30343-.7915.72193-1.6784 1.25973-2.5088.0852-.1315.1749-.2623.2676-.3925-.0175-.3328-.0405-.6456-.0683-.9395H10v-1h1.0557c-.1953-1.27192-.4892-2.08681-.7764-2.58691-.42725-.74385-.72928-.6486-.64453-.66407M20.5 1.25c.6903.00003 1.25.55966 1.25 1.25v19c0 .6903-.5597 1.25-1.25 1.25h-17c-.69036 0-1.25-.5596-1.25-1.25v-19c0-.69036.55965-1.25 1.25-1.25zm-16.75 20h12.2646V2.75H3.75zm13.7646 0H20.25V2.75h-2.7354z"/>
</svg>
