<svg xmlns="http://www.w3.org/2000/svg" width="24" height="24" viewBox="0 0 24 24">
  <path fill="currentColor" d="M12.5 13H11v-1h1.5zm2-2H13v-1h1.5zm-4-2H9V8h1.5zm2 0H11V8h1.5zm2 0H13V8h1.5zm-3-2H10V6h1.5zm2 0H12V6h1.5zM12 1.74804c.902-.08333 2.0017.38178 2.8926 1.59571.8062 1.09883 1.4663 2.82661 1.7558 5.43652.8506-.71289 1.8276-1.26305 2.9375-1.51172.2777-.06219.5667.03793.7461.25879.1793.22088.2184.52429.1006.7832-.2935.64425-.7534 1.69746-1.1738 2.75296-.4273 1.0727-.7901 2.091-.918 2.6924-.0742.3495-.1076.9705-.1601 1.832-.0502.8222-.1167 1.8013-.2705 2.7519-.1526.9424-.4005 1.918-.8438 2.7129-.452.8105-1.1444 1.4915-2.1787 1.6846-.0889.0166-.1776.0164-.2627.002-2.1816.4245-3.8648.3201-5.15137-.1954-1.31001-.5249-2.13175-1.4443-2.62988-2.4785-.48898-1.0153-.66493-2.1368-.72656-3.1074-.06061-.955-.01175-1.8719-.01172-2.3633-.00004-.7384-.30868-1.9131-.74707-3.1582-.42822-1.2161-.94407-2.39999-1.28516-3.11229-.12443-.25995-.08851-.56911.0918-.79394.18041-.22461.47422-.32585.75488-.26074.8579.19916 1.67829.71503 2.44532 1.39453.29602-2.54508.94795-4.23788 1.74218-5.32031C9.99829 2.12982 11.098 1.66471 12 1.74804m-5.67871 7.9961c.15281.38466.30873.78706.45215 1.19436.43864 1.2458.832 2.6363.83203 3.6562-.00002.6077-.04812 1.3721.00879 2.2686.05597.8813.2117 1.7836.58105 2.5508.3604.7482.92438 1.3717 1.83689 1.7373.7833.3137 1.8766.4567 3.4033.2607-.8883-2.0552-2.1959-4.8243-3.68745-7.2725-.85858-1.4092-1.76464-2.6893-2.6709-3.6621-.25745-.2763-.5111-.52003-.75586-.73336m11.99411-.33203c-1.0294.65389-1.9291 1.66419-2.6855 2.83199-1.0481 1.6184-1.7475 3.4285-2.0908 4.6719l1.6289 4.1055c.219-.158.4146-.3868.5888-.6992.3178-.5699.5308-1.3444.6729-2.2217.1407-.8691.2037-1.781.2539-2.6035.0478-.783.0853-1.5623.1894-2.0528.1579-.7425.5684-1.8713.9922-2.9355.1481-.3717.3015-.74302.4502-1.09669m-6.209-6.16993a.756.756 0 0 1-.2128 0c-.2463-.03495-.8944.06024-1.5762.98926-.68676.93596-1.37316 2.69257-1.56838 5.81546-.00122.0194-.00417.0386-.00683.0576.79852.9563 1.56961 2.0789 2.28611 3.2549.4602.7552.9013 1.5389 1.3194 2.3213.4226-1.2655 1.0953-2.8203 2.0224-4.252.2739-.4229.5748-.8415.9024-1.2422-.0115-.0449-.0185-.0917-.0215-.1396-.0757-1.21023-.2263-2.21538-.4209-3.0469H14V6h.5508c-.261-.78117-.5647-1.35494-.8682-1.76856a3.9 3.9 0 0 0-.1826-.23047V5H12V4h1.499c-.6121-.71374-1.1685-.78962-1.3926-.75782"/>
</svg>
