<svg xmlns="http://www.w3.org/2000/svg" width="24" height="24" viewBox="0 0 24 24">
  <path fill="currentColor" d="M10.6006 7.25391c.7197-.06147 1.3714.47404 1.8047 1.28222.3536.65976.6425 1.61987.8115 2.98047.4687-.3779 1.0036-.6722 1.6084-.8174.2752-.0658.5642.0292.7471.2451.1828.2163.2289.5178.1181.7784-.1663.3912-.4276 1.0315-.666 1.6728-.2445.6578-.4452 1.2627-.5137 1.6074-.0378.1911-.0561.546-.0869 1.086-.0286.5033-.0673 1.1137-.1572 1.709-.0886.5865-.2347 1.2185-.5088 1.7451-.2793.5364-.7392 1.0465-1.4678 1.1924-.1983.0395-.3951-.0058-.5546-.1094-1.0356.2112-1.90188.1465-2.60259-.1963-.7613-.3728-1.20856-1.0111-1.46679-1.666-.48958-1.2418-.37993-2.801-.37989-3.3692 0-.413-.1441-1.0949-.35937-1.8418-.20855-.7234-.45953-1.4285-.625-1.8506-.10381-.265-.04857-.5663.14258-.7773.19126-.2107.4859-.2951.75976-.2178.29651.0841.57366.2396.83203.4366.17344-1.16531.43934-2.00975.75977-2.60747.43344-.80826 1.08479-1.34402 1.8047-1.28222M8.67774 14.415c.06544.3508.10839.6874.10839.9795-.00002.754-.08023 1.9174.27539 2.8194.16433.4165.39915.7054.73145.8681.22343.1093.54233.1849.99803.1621-.4295-1.188-1.02048-2.688-1.68651-4.0234-.13974-.2802-.28414-.5491-.42675-.8057m4.72756-.9482c-.1661.2137-.3261.4476-.4776.6982-.5622.9302-.9459 1.9724-1.1435 2.71l.6924 1.8691c.1346-.3001.2366-.7.3076-1.1699.0784-.5189.1139-1.0666.1426-1.5703.0265-.4666.0492-.9697.1132-1.293.0665-.3346.2053-.7825.3653-1.2441m-2.877-4.71485c-.032.00989-.1895.0818-.4101.49317-.22332.41652-.45289 1.10368-.60843 2.18358h1.39063v.8574H9.41113c-.01117.1261-.02108.2563-.03027.3907.02316.0348.04631.07.06934.1054v-.0683h1.5v.8574H9.92383c.17937.317.35627.6454.52347.9805.1063.2132.2113.4298.3134.6484.2293-.5866.5229-1.215.8829-1.8106.0633-.1048.1321-.2088.2011-.3134-.014-.2798-.0328-.5428-.0547-.7901H11v-.8574h.6904c-.0459-.3189-.0962-.6039-.1533-.8574h-1.3369v-.85743h1.0869c-.0682-.18405-.1351-.33997-.2041-.46875-.2176-.40581-.3742-.48163-.4092-.49317a.75.75 0 0 1-.1455 0M11.5 1.25c.6045.00017 1.1088.42962 1.2246 1h4.6621c.6608.00039 1.2073.51513 1.2471 1.1748l1.083 18c.0432.7185-.5284 1.325-1.248 1.3252H3.53125c-.7197-.0002-1.29125-.6067-1.24805-1.3252l1.08301-18 .0127-.12207c.09527-.60004.61491-1.05236 1.23437-1.05273h4.66211c.11583-.57041.62005-.99983 1.22461-1zm-7.7041 20h14.4082l-1.0527-17.5H12.75v.75c0 .69024-.5598 1.24981-1.25 1.25h-1c-.69019-.00019-1.25-.55976-1.25-1.25v-.75H4.84863zm6.9541-17h.5v-.5h-.5z"/>
</svg>
