<svg xmlns="http://www.w3.org/2000/svg" width="24" height="24" viewBox="0 0 24 24">
  <path fill="currentColor" d="M5.5 2.25c1.34396 0 2.24988 1.1741 2.25 2.54297-.00003.71536-.27719 1.41455-.63965 1.93262-.18379.26263-.40715.50477-.66015.6875a2.08 2.08 0 0 1-.2002.12793V16.459c.0715.04.13848.0834.2002.1279.253.1827.47636.4249.66015.6875.36246.5181.63961 1.2173.63965 1.9326-.00011 1.3689-.90603 2.543-2.25 2.543s-2.24989-1.1741-2.25-2.543c.00004-.7153.27719-1.4145.63965-1.9326.18379-.2626.40715-.5048.66015-.6875.06172-.0445.1287-.0879.2002-.1279V7.54102a2.08 2.08 0 0 1-.2002-.12793c-.253-.18273-.47636-.42487-.66015-.6875-.36246-.51807-.63962-1.21726-.63965-1.93262C3.25012 3.4241 4.15604 2.25 5.5 2.25m-.07227 15.5537c-.08958.0648-.20061.1754-.30957.3311-.22322.3192-.36812.7238-.36816 1.0722.0001.7589.43723 1.043.75 1.043s.7499-.2841.75-1.043c-.00004-.3484-.14494-.753-.36816-1.0722-.10896-.1557-.21999-.2663-.30957-.3311-.03112-.0225-.05621-.034-.07227-.042-.01606.008-.04115.0195-.07227.042M5.5 3.75c-.31277 0-.7499.28408-.75 1.04297.00003.3484.14494.75304.36816 1.07226.10896.15571.21999.26628.30957.33106.03112.02246.05621.03399.07227.04199.01606-.008.04115-.01953.07227-.04199.08958-.06478.20061-.17535.30957-.33106.22322-.31922.36813-.72386.36816-1.07226C6.2499 4.03408 5.81277 3.75 5.5 3.75m5-1.5c1.344 0 2.2499 1.1741 2.25 2.54297 0 .71536-.2772 1.41455-.6396 1.93262-.1838.26263-.4072.50477-.6602.6875a2.07 2.07 0 0 1-.2002.12793V16.459c.0715.04.1385.0834.2002.1279.253.1827.4764.4249.6602.6875.3624.5181.6396 1.2173.6396 1.9326-.0001 1.3689-.906 2.543-2.25 2.543-1.34397 0-2.24989-1.1741-2.25-2.543.00004-.7153.27719-1.4145.63965-1.9326.18379-.2626.40715-.5048.66015-.6875.06172-.0445.1287-.0879.2002-.1279V7.54102a2.08 2.08 0 0 1-.2002-.12793c-.253-.18273-.47636-.42487-.66015-.6875-.36246-.51807-.63962-1.21726-.63965-1.93262C8.25012 3.4241 9.15604 2.25 10.5 2.25m-.0723 15.5537c-.0895.0648-.2006.1754-.3095.3311-.22326.3192-.36816.7238-.3682 1.0722.0001.7589.4372 1.043.75 1.043s.7499-.2841.75-1.043c0-.3484-.1449-.753-.3682-1.0722-.1089-.1557-.22-.2663-.3095-.3311-.0312-.0225-.0562-.034-.0723-.042-.0161.008-.0411.0195-.0723.042M10.5 3.75c-.3128 0-.7499.28408-.75 1.04297.00003.3484.14494.75304.3682 1.07226.1089.15571.22.26628.3095.33106.0312.02246.0562.03399.0723.04199.0161-.008.0411-.01953.0723-.04199.0895-.06478.2006-.17535.3095-.33106.2233-.31922.3682-.72386.3682-1.07226-.0001-.75889-.4372-1.04297-.75-1.04297m6.6924.70605c.3544-1.32203 1.533-2.22175 2.831-1.87402 1.2982.34787 1.8699 1.71678 1.5157 3.03906-.1852.69095-.634 1.29457-1.1182 1.70118-.2454.20604-.5239.38214-.8154.49316-.0713.02711-.148.0511-.2276.07129L17.0703 16.501c.0588.0572.1121.1167.1602.1758.1971.242.3504.5336.4599.8349.216.5943.3024 1.3413.1172 2.0322-.3544 1.3221-1.5329 2.2218-2.831 1.8741-1.2982-.3479-1.8698-1.7168-1.5157-3.0391.1852-.6909.634-1.2946 1.1182-1.7012.2454-.206.5238-.3821.8154-.4931.0711-.0271.1472-.0521.2266-.0723l2.3076-8.61425c-.0583-.05689-.1113-.11612-.1592-.17481-.197-.24196-.3504-.53373-.4599-.83496-.216-.59419-.3023-1.34132-.1172-2.03223M15.9277 17.5869c-.1033.0394-.2392.1181-.3847.2402-.2982.2506-.5427.604-.6328.9405-.1962.7325.1521 1.1199.4541 1.2012.3021.0809.7986-.0805.9951-.8135.09-.3365.0548-.7649-.0782-1.1309-.0649-.1785-.1441-.3137-.2138-.3994-.0243-.0298-.0452-.0477-.0586-.0596-.0176.0036-.0451.0078-.0811.0215m3.708-13.55565c-.3021-.08095-.7986.08036-.9951.81348-.09.33651-.0548.76481.0782 1.13086.0649.17855.1441.31365.2138.39941.0242.02971.0452.04769.0586.05957.0176-.00357.0451-.00782.0811-.02148.1032-.03941.2393-.11809.3847-.24024.2981-.25055.5427-.60403.6328-.94043.1961-.73252-.1521-1.11994-.4541-1.20117"/>
</svg>
