<svg xmlns="http://www.w3.org/2000/svg" width="24" height="24" viewBox="0 0 24 24">
  <path fill="currentColor" d="M15.5869 13.4619A4.53 4.53 0 0 1 15 13.5c-.1987 0-.3946-.013-.5869-.0381l.1289-.9912c.1496.0195.3026.0293.458.0293s.3084-.0098.458-.0293zm-2.7178-1.6846c.241.1852.5069.3392.7911.4571l-.3829.9238a4.498 4.498 0 0 1-1.0175-.5879zm4.8711.793a4.498 4.498 0 0 1-1.0175.5879l-.3829-.9238c.2842-.1179.5501-.2719.7911-.4571zm-5.9746-2.2305c.1179.2842.2719.5501.4571.7911l-.793.6093a4.498 4.498 0 0 1-.5879-1.0175zm7.3926.3829a4.498 4.498 0 0 1-.5879 1.0175l-.793-.6093c.1852-.241.3392-.5069.4571-.7911zm-7.6289-2.18071c-.0195.1496-.0293.30262-.0293.45801s.0098.30841.0293.45801l-.9912.1289A4.53 4.53 0 0 1 10.5 9c0-.19869.013-.3946.0381-.58691zm7.9326-.1289c.0251.19231.0381.38822.0381.58691s-.013.3946-.0381.58691l-.9912-.1289c.0195-.1496.0293-.30262.0293-.45801s-.0098-.30841-.0293-.45801zm-7.2392-1.54395c-.1852.24092-.3392.50685-.4571.79102l-.9238-.38282c.1518-.3661.3501-.70809.5879-1.01757zm6.3476-.60937c.2378.30948.4361.65147.5879 1.01757l-.9238.38282c-.1179-.28417-.2719-.5501-.4571-.79102zm-4.9101-.49415a3.5 3.5 0 0 0-.7911.45704l-.6093-.79297c.3095-.23783.6514-.43607 1.0175-.58789zm3.0625-.92382c.3661.15182.708.35006 1.0175.58789l-.6093.79297a3.5 3.5 0 0 0-.7911-.45704zM15 4.5c.1987 0 .3946.01301.5869.03809l-.1289.99121C15.3084 5.50978 15.1554 5.5 15 5.5s-.3084.00978-.458.0293l-.1289-.99121A4.54 4.54 0 0 1 15 4.5m0-2.25c3.7279.00007 6.75 3.02212 6.75 6.75 0 3.5507-2.7419 6.4578-6.2236 6.7266C14.763 18.6179 12.1313 20.75 9 20.75c-3.72792 0-6.75-3.0221-6.75-6.75 0-3.5507 2.74179-6.4589 6.22363-6.72754C9.23712 4.38156 11.869 2.25007 15 2.25M8.25391 8.80371C5.70786 9.16602 3.75 11.3538 3.75 14c0 2.8995 2.3505 5.25 5.25 5.25 2.3147 0 4.2786-1.4992 4.9766-3.5791C10.7344 15.1776 8.25 12.3799 8.25 9c0-.06565.00204-.13106.00391-.19629M15 3.75c-2.6007.00007-4.7615 1.89238-5.17773 4.375C9.77466 8.40907 9.75 8.70136 9.75 9c0 2.8752 2.3119 5.2102 5.1777 5.249L15 14.25c2.8994-.0001 5.25-2.3506 5.25-5.25 0-2.89945-2.3506-5.24993-5.25-5.25"/>
</svg>
