<svg xmlns="http://www.w3.org/2000/svg" width="24" height="24" viewBox="0 0 24 24">
  <path fill="currentColor" d="M4 18c1.10457 0 2 .8954 2 2s-.89543 2-2 2-2-.8954-2-2 .89543-2 2-2m0 1.5c-.27614 0-.5.2239-.5.5s.22386.5.5.5.5-.2239.5-.5-.22386-.5-.5-.5M12 4c1.1046 0 2 .89543 2 2 0 .47337-.1655.90747-.4404 1.25H22c.4142 0 .75.33579.75.75 0 5.0026-3.4175 9.2057-8.0449 10.4053.6464.6737 1.0449 1.5872 1.0449 2.5947 0 .4142-.3358.75-.75.75H9c-.41421 0-.75-.3358-.75-.75 0-1.0072.39778-1.921 1.04395-2.5947C4.66697 17.2054 1.25 13.0023 1.25 8c0-.41421.33579-.75.75-.75h8.4404C10.1655 6.90747 10 6.47337 10 6c0-1.10457.8954-2 2-2m0 14.75c-.9793 0-1.81.6266-2.11914 1.5h4.23824c-.3091-.8734-1.1398-1.5-2.1191-1.5m-9.2168-10c.38189 4.7578 4.36074 8.5 9.2168 8.5 4.8561 0 8.8349-3.7422 9.2168-8.5zM12 5.5c-.2761 0-.5.22386-.5.5s.2239.5.5.5.5-.22386.5-.5-.2239-.5-.5-.5M7 2c1.10457 0 2 .89543 2 2s-.89543 2-2 2-2-.89543-2-2 .89543-2 2-2m0 1.5c-.27614 0-.5.22386-.5.5s.22386.5.5.5.5-.22386.5-.5-.22386-.5-.5-.5M17 2c1.1046 0 2 .89543 2 2s-.8954 2-2 2-2-.89543-2-2 .8954-2 2-2m0 1.5c-.2761 0-.5.22386-.5.5s.2239.5.5.5.5-.22386.5-.5-.2239-.5-.5-.5"/>
</svg>
