<svg xmlns="http://www.w3.org/2000/svg" width="24" height="24" viewBox="0 0 24 24">
  <path fill="currentColor" d="M7.42188 9.93457c.31593-.20119.65042-.13602.77832-.10449.16539.04084.3241.11243.45605.18162.2703.1418.5687.3494.84863.5664.54432.4221 1.16462 1 1.45802 1.4395.0668.1001.1204.2039.167.3076.3216-.221.7111-.3505 1.1308-.3506 1.0062 0 1.8363.7436 1.9766 1.7109.4336-.1853 1.0103-.3744 1.5264-.5029.3336-.083.6811-.152.9765-.1719.144-.0096.3153-.0095.4805.0225.1304.0253.4594.1077.6504.4385.1873.3244.1074.6558.0703.7822-.048.1635-.1273.3184-.2021.4473-.1535.2639-.3726.5539-.6016.8242-.4453.5255-1.0502 1.1195-1.502 1.3935-.4651.2821-.9709.3411-1.3916.3038-.1221.9875-.9628 1.7519-1.9834 1.7519-.873-.0001-1.6139-.5599-1.8867-1.3398-.3183.2138-.7009.3398-1.11326.3398-1.10445-.0001-2-.8955-2-2 .00006-.7334.39571-1.3736.98438-1.7217-.10455-.11-.20053-.2348-.28321-.3759-.24679-.4214-.54488-1.1703-.73828-1.8243-.09749-.3297-.18025-.6743-.21289-.9687-.01587-.1434-.02376-.3142.00098-.4805.01958-.1312.08786-.4636.41016-.66893m4.83882 6.54003c-.2759.0001-.4999.224-.5.5 0 .2761.224.4999.5.5.2762 0 .5-.2238.5-.5 0-.2761-.2239-.5-.5-.5m-2.99996-1c-.27597.0001-.49992.224-.5.5 0 .2761.22398.4999.5.5.27614 0 .5-.2238.5-.5-.00008-.2761-.22391-.5-.5-.5m6.59866-.7539c-.523.1459-1.0321.3312-1.2774.4609-.1429.0757-.2651.2322-.3379.4346-.0084.0236-.0123.0475-.0185.0693.0243.006.0503.0129.0781.0176.2189.0368.4311.0085.582-.083.2099-.1272.6006-.484.9737-.8994m-3.5987-1.2461c-.2759.0001-.4999.224-.5.5 0 .2761.224.4999.5.5.2762 0 .5-.2238.5-.5 0-.2761-.2239-.5-.5-.5m-3.50386-1.585c.16845.5162.37636 1.0165.5166 1.2559.08175.1396.24284.2554.44824.3193.02396.0075.04825.0095.07031.0147.0049-.0245.0112-.0503.01465-.0781.02723-.2203-.01045-.4313-.1084-.5782-.13625-.204-.51016-.5789-.9414-.9336M14 1.25c.9665 0 1.75.7835 1.75 1.75 0 .69772-.4093 1.29804-1 1.5791v2.09668l3.3525 1.03223C19.676 8.19215 20.75 9.6467 20.75 11.293V19c0 2.0711-1.6789 3.75-3.75 3.75H7c-2.07107 0-3.75-1.6789-3.75-3.75v-7.707c0-1.6463 1.07399-3.10085 2.64746-3.58499L9.25 6.67578V4.5791c-.59072-.28106-1-.88138-1-1.5791 0-.9665.7835-1.75 1.75-1.75zm-3.25 5.98047c0 .32918-.2147.6199-.5293.7168L6.33789 9.14258C5.39408 9.43322 4.75 10.3054 4.75 11.293V19c0 1.2426 1.00736 2.25 2.25 2.25h10c1.2426 0 2.25-1.0074 2.25-2.25v-7.707c0-.9876-.6441-1.85978-1.5879-2.15042l-3.8828-1.19531c-.3146-.0969-.5293-.38762-.5293-.7168V4.75h-2.5zM10 2.75c-.13807 0-.25.11193-.25.25s.11193.25.25.25h4c.1381 0 .25-.11193.25-.25s-.1119-.25-.25-.25z"/>
</svg>
