<svg xmlns="http://www.w3.org/2000/svg" width="24" height="24" viewBox="0 0 24 24">
  <path fill="currentColor" d="M9.2002 3.25c2.3394.00006 3.9041 1.09647 4.7012 2.37012.7061-.5847 1.7088-.83 2.6377-.83008 1.4627 0 2.6553.90406 3.0615 2.20996H20.75v10.9717c-.0001.4873-.3697.7513-.5137.8418-.1895.1191-.4199.2075-.6465.2763-.4641.1411-1.0983.2576-1.8369.3526-1.4882.1913-3.5221.3076-5.7529.3076-2.23077 0-4.26467-.1163-5.75293-.3076-.73858-.095-1.37282-.2115-1.83691-.3526-.22654-.0688-.45697-.1572-.64649-.2763-.144-.0905-.51354-.3545-.51367-.8418V7h1.14062c.17725-.67016.52249-1.3856 1.03907-2.00684C6.23948 4.01939 7.49221 3.25 9.2002 3.25M19.25 11.6768c-.4093.179-.8882.3341-1.4111.4648-1.5228.3807-3.5869.6084-5.8389.6084s-4.31608-.2277-5.83887-.6084c-.52293-.1307-1.00178-.2858-1.41113-.4648v5.9433c.02878.0099.0603.0231.09668.0342.34541.105.883.2096 1.5918.3008C7.84564 18.136 9.81249 18.25 12 18.25s4.1544-.114 5.5615-.2949c.7088-.0912 1.2464-.1958 1.5918-.3008.0364-.0111.0679-.0243.0967-.0342zm0-3.00004c-.4094.17907-.8882.3341-1.4111.46484C16.3161 9.5223 14.252 9.75 12 9.75s-4.31608-.2277-5.83887-.6084C5.6382 9.01086 5.15935 8.85583 4.75 8.67676v1.25683c.02493.02989.09209.09951.26074.19921.31581.1866.8228.3808 1.51465.5537 1.37262.3431 3.30848.5635 5.47461.5635 2.1661 0 4.102-.2204 5.4746-.5635.6919-.1729 1.1989-.3671 1.5147-.5537.1686-.0997.2358-.16932.2607-.19921zM9.2002 4.75c-1.2085 0-2.05614.52751-2.61719 1.20215-.41201.49548-.656 1.05793-.76465 1.52637.20913.07025.44419.14229.70703.208C7.89801 8.02964 9.83387 8.25 12 8.25c2.1661 0 4.102-.22036 5.4746-.56348.2613-.06531.4949-.13722.7031-.20703-.2059-.712-.8348-1.18945-1.6386-1.18945-1.2795.00012-1.9474.51885-2.0489 1.12988-.0606.36553-.3795.63178-.75.62696-.3706-.00502-.6826-.28031-.7334-.64747-.1429-1.03114-1.2613-2.64933-3.8066-2.64941"/>
</svg>
