<svg xmlns="http://www.w3.org/2000/svg" width="24" height="24" viewBox="0 0 24 24">
  <path fill="currentColor" d="M16.4678 1.25c.7208.00025 1.293.60866 1.248 1.32812l-.9375 14.99998c-.0102.1633-.0528.3173-.1191.4571.0577.1438.0908.3004.0908.4648v3c0 .6902-.5599 1.2498-1.25 1.25h-7c-.69015-.0002-1.25-.5598-1.25-1.25v-3c0-.1642.0313-.3212.08887-.4648-.06621-.1397-.10698-.294-.11719-.4571l-.9375-14.99998c-.04495-.71945.52724-1.32787 1.24805-1.32812zm-7.7178 20h6.5v-2.5h-.5v.75c0 .6902-.5599 1.2498-1.25 1.25h-3c-.69015-.0002-1.25-.5598-1.25-1.25v-.75h-.5zm2-2h2.5v-.5h-2.5zm-2.04492-2h6.59082L15.374 16H8.62695zM8.5332 14.5h6.9346l.5937-9.5H7.93945zm-.6875-11h8.3096l.0468-.75H7.79883z"/>
</svg>
