<svg xmlns="http://www.w3.org/2000/svg" width="24" height="24" viewBox="0 0 24 24">
  <path fill="currentColor" d="M9.2002 1.25c2.3393.0001 3.9041 1.09651 4.7012 2.37012.706-.58463 1.7088-.82998 2.6377-.83008C18.3519 2.7901 19.75 4.17876 19.75 6h-.1562c.0826.18855.121.40012.0996.62109L18.3906 20.0205c-.015.1547-.0586.3003-.124.4326.0533.1389.084.2897.084.4473v.7998c-.0002.69-.5601 1.2497-1.25 1.25H6.90039c-.69022 0-1.24978-.5598-1.25-1.25v-.7998c0-.1575.02889-.3085.08203-.4473-.06528-.1322-.10802-.278-.12304-.4326L4.30664 6.62109c-.02148-.22096.01697-.43255.09961-.62109H4.25c0-.89163.39132-2.05871 1.17969-3.00684C6.23946 2.01944 7.49231 1.25004 9.2002 1.25M7.15039 21.4502h9.70021v-.2998H7.15039zm-.06934-1.7998h9.83785l1.0655-10.9502H6.01562zM5.87012 7.2002H18.1299l.0439-.4502H5.82617zM9.2002 2.75c-1.2084.00004-2.05616.52757-2.61719 1.20215-.34678.41705-.57351.88202-.70215 1.29785h7.09764c-.2249-1.03057-1.3533-2.49987-3.7783-2.5m7.3389 1.54004c-1.1583.00014-1.8137.42602-2.003.95996h3.5557c-.2643-.58281-.839-.95992-1.5527-.95996"/>
</svg>
