<svg xmlns="http://www.w3.org/2000/svg" width="24" height="24" viewBox="0 0 24 24">
  <path fill="currentColor" d="M10 20H9v-1h1zm6-1h-1v-1h1zm-5-2h-1v-1h1zm3 0h-1v-1h1zm3-1h-1v-1h1zm-7-3H9v-1h1zm3 0h-1v-1h1zm3 0h-1v-1h1zm-5-2h-1v-1h1zm3 0h-1v-1h1zm3-1h-1V9h1zM7 8H6V7h1zm3-1H9V6h1zm3 0h-1V6h1zm3 0h-1V6h1zm-4-3.75c2.2874 0 4.394.40417 5.957 1.08789.7803.34137 1.4592.76744 1.9532 1.27832.4975.5146.8398 1.15239.8398 1.88379 0 1.19583-.8866 2.11927-2 2.7627V21c0 .4142-.3358.75-.75.75H6c-.41421 0-.75-.3358-.75-.75V10.2627c-1.1134-.64343-2-1.56687-2-2.7627 0-.7314.34234-1.36919.83984-1.88379.494-.51088 1.17285-.93695 1.95313-1.27832C7.60597 3.65417 9.71264 3.25 12 3.25m0 1.5c-2.13072 0-4.02406.37899-5.35645.96191-.66728.29195-1.15996.6208-1.47558.94727C4.85589 6.98201 4.75 7.26492 4.75 7.5c0 .43322.39445 1.05441 1.58301 1.64355.2553.1266.41699.38691.41699.67188V20.25h10.5V9.81543c0-.28497.1617-.54528.417-.67188C18.8555 8.55441 19.25 7.93322 19.25 7.5c0-.23508-.1059-.51799-.418-.84082-.3156-.32647-.8083-.65532-1.4756-.94727C16.0241 5.12899 14.1307 4.75 12 4.75"/>
</svg>
