<svg xmlns="http://www.w3.org/2000/svg" width="24" height="24" viewBox="0 0 24 24">
  <path fill="currentColor" d="M10.9492 2.99316c.5512-.55117 1.467-.46872 1.9112.17187l.4746.68555c1.3945-.39049 2.86-.60056 4.3574-.60059 2.347.00013 4.2499 1.90297 4.25 4.25-.0001 1.99099-1.3696 3.66081-3.2178 4.12211l.3125.4502.0596.0957c.2751.4845.1973 1.1004-.2031 1.5009l-1.7872 1.7852.0997.168.0507.0927c.2292.4749.1352 1.0495-.2431 1.4278l-.3399.3398c-.3782.3782-.9519.4712-1.4267.2422l-.0938-.0498-.165-.0977-1.5059 1.503c-.3988.3976-1.0141.4788-1.5029.1992l-1.1826-.6777c-.4854 1.8129-2.13853 3.1483-4.10452 3.1484-2.34699-.0002-4.24986-1.903-4.25-4.25.00002-1.1918.15212-2.3404.4375-3.4326l-.49804-.2852c-.7098-.4065-.84533-1.3743-.27344-1.959l1.15625-1.1816-.2832-.167c-.70264-.4157-.82523-1.38362-.24805-1.96094l5.31152-5.31152c.57724-.57724 1.54518-.4554 1.96098.24707l.1806.30566zM4.23535 14.8437c-.19103.8497-.29295 1.7373-.29297 2.6563.00014 1.5186 1.23144 2.7498 2.75 2.75 1.41226-.0001 2.57434-1.0651 2.73047-2.4356zm-.82812-2.2021 9.15237 5.2422 1.0957-1.0947-9.06155-5.3614zm.61426-3.29493L15.75 16.2842l.0664-.0655L8.87793 4.49023zm6.95311-4.25879 5.3438 9.03322 1.3662-1.3652-5.8867-8.49028zm6.7178-.33789c-1.1787.00003-2.3356.14336-3.4473.41211l3.5254 5.084c1.4826-.0414 2.6718-1.25358 2.6719-2.74611-.0001-1.51861-1.2314-2.74987-2.75-2.75"/>
</svg>
