<svg xmlns="http://www.w3.org/2000/svg" width="24" height="24" viewBox="0 0 24 24">
  <path fill="currentColor" d="M10.4492 16.8769c.37-.1857.8208-.0367 1.0069.3331.1859.37.037.8208-.3331 1.0068-1.76075.8845-3.60122 1.3445-5.43062 1.4297-.41349.019-.76376-.3014-.7832-.7149-.0189-.4134.30036-.7649.71387-.7841 1.62299-.0756 3.25694-.4824 4.82615-1.2706m4.5303-4.5263c.4136.0222.7311.3755.709.789-.0772 1.4298-1.2988 2.526-2.7285 2.4493-.4136-.0224-.7313-.3755-.709-.7891.021-.3875.3333-.6899.7129-.708h.1894c.5528-.0269 1.0066-.4686 1.0371-1.0332.0225-.4133.3758-.7301.7891-.708M19 6.12206c.414.00006.7497.3361.75.75 0 1.97027-.4152 3.82134-1.1602 5.49414-.1684.3783-.6119.5482-.9902.3799-.3783-.1686-.5493-.6119-.3808-.9902.661-1.4844 1.0312-3.12764 1.0312-4.88384.0003-.4139.336-.74994.75-.75m-1.9238-5.0459c.2928-.29273.7676-.2927 1.0605 0 .2929.29286.2928.76765 0 1.06055-.0615.06158-.132.201-.0888.46387.0372.22595.1575.49596.374.75 1.9039.42111 3.328 2.11888 3.3281 4.14941C21.7499 15.7469 14.5268 21.75 6.5 21.75c-2.34716 0-4.24992-1.9029-4.25-4.25.00009-2.3471 1.90284-4.25 4.25-4.25 4.1076 0 6.7499-2.9369 6.75-5.75001.0001-2.072 1.483-3.79773 3.4453-4.17383-.0572-.15912-.1013-.32038-.1279-.48242-.0991-.60302.0182-1.2769.5088-1.76758M17.5 4.74999c-1.5187 0-2.7499 1.2313-2.75 2.75C14.7499 11.2536 11.3193 14.75 6.5 14.75c-1.51873 0-2.74991 1.2313-2.75 2.75.00008 1.5187 1.23127 2.75 2.75 2.75 7.3466 0 13.7499-5.4725 13.75-12.75001-.0001-1.51871-1.2313-2.75-2.75-2.75"/>
</svg>
