<svg xmlns="http://www.w3.org/2000/svg" width="24" height="24" viewBox="0 0 24 24">
  <path fill="currentColor" d="M19.4521 1.25c.7351.00001 1.3117.63127 1.2452 1.36328L19.1885 19.2129a1.248 1.248 0 0 1-.1231.4375c.0539.1395.0839.2907.084.4492v1.2002c-.0001.6903-.5597 1.25-1.25 1.25H6.09959c-.69011-.0002-1.24989-.5599-1.25-1.25v-1.2002c.00005-.1584.03021-.3098.08399-.4492-.06561-.1336-.10786-.2812-.12207-.4375L3.30272 2.61328C3.23617 1.88126 3.8128 1.25 4.54784 1.25zM6.34959 21.0498H17.6494v-.7002H6.34959zm-.06445-2.2002H17.7148l1.2324-13.5498H5.05272zM4.91698 3.7998H19.083l.0957-1.0498H4.82127z"/>
</svg>
