<svg xmlns="http://www.w3.org/2000/svg" width="24" height="24" viewBox="0 0 24 24">
  <path fill="currentColor" d="M18.3994 6.41407c.1252-.39447.5468-.61297.9414-.48828.3947.12505.6131.54665.4883.9414l-.0098.03028-.0586.44433c-.0405.30852-.0366.49838-.0214.59766l.0449.30078.0459.30078c.0503.33012.0144.66063-.1172.97266l-.1123.26758-.1123.26664c-.1317.3117-.3443.5673-.6065.7685l-.2578.1983-.2431.1855-.0118.2598-.0146.3037c-.0166.3288-.1152.6429-.3037.9209l-.1582.2344-.1592.2343c-.1295.191-.2749.37-.4346.5362l-.3906.4082c-.1872.1946-.4031.3557-.6426.4814l-.5078.2656c-.1171.0616-.2175.1316-.3027.208l-.0303.0264.1025.084-.4658.5781-.0625.0772c-.2595.3224-.732.3745-1.0547.1152-.1064-.0857-.1807-.1964-.2265-.3154l-.0157-.0127-.0546-.2598-.0157-.0781-.0156-.1309c-.0124-.2922.1381-.5048.1787-.5615.077-.1074.1723-.2013.2559-.2764l.2012-.1806.2021-.1807c.1831-.1643.3865-.3049.6074-.4209l.2539-.1328.2539-.1338c.0986-.0518.1833-.1159.2569-.1924l.3916-.4072c.1007-.1049.1923-.2179.2744-.3389l.3183-.4687c.0232-.0343.0421-.0796.0459-.1543l.0293-.6065c.0221-.4392.2343-.8045.5664-1.0595l.2588-.1973.2579-.19824c.0817-.06276.118-.11824.1367-.16211l.1123-.26758.1133-.2666c.0183-.04348.0272-.09262.0166-.16309l-.0469-.30078-.0449-.30176c-.046-.30161-.0298-.65139.0185-1.01855l.0674-.50781.0078-.06543.0195-.06348zm-1.2236-2.01172c.2082-.35798.6673-.47955 1.0254-.27148.3547.20654.4772.66001.2763 1.0166l-.1015.41601c-.0895.36889-.2064.72288-.3799.98926l-.1533.23535-.1524.23438c-.1385.2127-.3052.40712-.4951.58007l-.4355.39649c-.0217.01979-.0317.03597-.0381.07129l-.0528.29199-.0537.29395c-.0498.27487-.1423.53714-.2812.77832l-.1406.24218-.1397.24414c-.1771.3071-.44.532-.7383.6895l-.2988.1572-.1367.0713.0224.1699.043.3428c.0294.23.0066.4871-.1182.7324-.1253.246-.3209.4163-.5273.5273L14 12.7734l-.2998.1612c-.0958.0516-.1224.0925-.1299.1064l-.2646.4961c-.0003.0077-.0003.028.0078.0625l.1553.6602c.0275.1167.0609.2778.0576.4316-.0013.0588-.0069.2539-.1309.4463-.0741.1149-.1974.237-.3769.3057-.1749.0666-.3376.0577-.4512.0322l-.084-.0195-.2178-.0489-.0039-.0039c-.0401-.0122-.0804-.0275-.1191-.0468-.37-.1856-.5191-.6367-.334-1.0069l.0449-.0879.0498-.1025-.0498-.2149c-.0853-.3622-.0662-.7495.125-1.1074l.2695-.5029c.172-.3215.4369-.557.7413-.7207l.3007-.1611.1465-.0791-.0224-.1729-.044-.3428-.0117-.1767c-.0005-.1802.0343-.3715.1279-.5557.1259-.2472.3243-.41752.5323-.52734l.2988-.15722.2978-.15625c.0982-.05184.1288-.09527.1387-.11231l.1397-.24414.1406-.24219c.0477-.08289.0844-.18003.1054-.2959l.1055-.58691c.0644-.35517.2358-.6677.5039-.91211l.4365-.39746c.1002-.0912.1816-.18848.2471-.28906l.3067-.47071c.0309-.04767.1009-.19897.1796-.52343l.126-.52051.0254-.10645.0547-.09472zM13.9082 2.1504c1.5002-1.00624 3.2187-1.26129 4.9395-.23047 1.6771 1.00501 2.6579 2.81308 2.9462 4.83203.2881 2.01828-.1027 4.29494-1.2041 6.37204-1.1015 2.0773-2.732 3.6115-4.5058 4.3946-.5149.2272-1.0461.3901-1.5811.4853-.6881.915-1.5726 1.745-2.6211 2.4111-1.778 1.1296-3.72991 1.6051-5.46383 1.4288-1.73455-.1767-3.29689-1.0174-4.16699-2.5586-.89461-1.5854-.6713-3.2301.19531-4.6934.84306-1.4232 2.30597-2.7142 4.00684-3.7949.82456-.5239 1.65756-.9668 2.47168-1.29982.30234-.88267.70196-1.77763 1.16989-2.66016 1.0586-1.99631 2.3506-3.70506 3.8135-4.68652M8.34375 13.6543c-.11396.0559-.23197.1019-.35352.1348l-.27148.0732-.25488.0674-.1416.2295-.14844.2412c-.22548.3635-.57654.5686-.96289.6406l-.31446.0576-.30273.0567-.11914.1933-.14746.2373c-.09979.1612-.23813.3828-.41504.6622l-.2666.4179-.05664.0908-.08106.0713-.07519.0655c-.31083.2732-.78403.243-1.05762-.0674-.08047-.0915-.13269-.1982-.16113-.3086-.15026.6697-.05934 1.321.30273 1.9629.58937 1.0439 1.69022 1.6945 3.07813 1.8359 1.38873.1413 3.0222-.2375 4.54977-1.208.5093-.3236.9699-.6906 1.378-1.0859-.2715-.0458-.5402-.1116-.8047-.2002l-.083.0908c-.2285.2472-.4188.4458-.5655.5898l-.4023.3946c-.3183.3123-.72658.4164-1.12891.3701l-.63379-.0723c-.00569-.0006-.01072-.0007-.01465-.001l-.19824.1553-.22168.1709c-.30719.2385-.6769.337-1.0625.2822l-.27637-.038-.08398-.0127-.56641.2451-.09277.039c-.2328.1002-.4877.0724-.68848-.0507l-.32813-.0567-.03125-.5976-.00097-.0284c-.01684-.3249.17315-.5298.20605-.5654.06109-.066.12306-.1098.15528-.1318.06968-.0476.14626-.087.20605-.1162l.29785-.1475.11231-.0469c.2644-.0956.53682-.0848.74902-.0547l.27637.0381.2373.0352.19141-.1485.22168-.1709.12402-.0869c.2957-.1833.63051-.24.95996-.2021l.31739.0361.27734.0332.14648-.1435.20122-.1983c.0804-.079.1818-.1852.3066-.3174-.43569-.3096-.79232-.6686-1.08008-1.0644-.22111.1683-.37533.2958-.47168.3857l-.20117.1875-.20118.1885c-.29602.276-.66412.3886-1.03418.3877l-.58691-.002-.29492.3897c-.00857.0113-.01857.0222-.02735.0332l.24903.082-1.29395.8526-.083.0556c-.30108.1982-.69287.1499-.93946-.0937H4.3584l-.125-.124-.06152-.0625c-.15182-.1506-.29613-.4272-.20801-.7588.06655-.2491.23289-.3888.29297-.4356.13547-.1053.29631-.1667.39062-.2002l.26172-.0927.26172-.0938c.03113-.0111.05776-.0276.08789-.0674l.34668-.458.10937-.1269c.26694-.275.61881-.3994.98438-.3985l.64062.001c.01182 0 .02124-.0013.02735-.002l.18262-.1699.20019-.1875c.16262-.1518.38588-.3313.65527-.5342l.15723-.1191c-.10446-.3315-.17646-.6772-.21875-1.0332M18.1445 3.2461c-1.1441-.68544-2.2742-.56781-3.4209.20117-.7504.50348-1.4894 1.27863-2.1855 2.26172.102-.11732.2117-.22816.3271-.33301l.2149-.19629.2158-.19629c.1674-.1521.345-.29251.5303-.42187l.4765-.33399c.0987-.06885.2039-.13437.3106-.18652.0739-.03605.1752-.07917.2939-.10449l.125-.01856.1231-.00976.1445-.0127.0215.00684c.211-.04208.4378.00345.6182.14941.3215.26071.3708.73289.1103 1.05469l-.3809.46973-.4716-.14258c-.0107.00703-.0227.01471-.0352.02344l-.4785.33398c-.1325.09255-.2589.19375-.3789.30274l-.2158.19726-.2159.19531c-.11.10001-.2098.20937-.2998.32715l-.1767.23145-.1777.23144c-.0633.08299-.1089.17439-.1397.27539l-.1709.5586c-.0453.14858-.0791.29937-.1006.45215l-.04.28808-.041.28809c-.0305.21726-.072.43063-.1241.63769l-.1347.54003c-.0738.2928-.2126.558-.3994.792l-.1895.2373-.1748.2178.042.2734.0449.2979c.0622.413-.0651.8336-.2305 1.1982l-.1962.4317-.0147.0507c-.1209.3958-.5406.6204-.9365.5-.3958-.1206-.61894-.5397-.49904-.9355l.0293-.0967.01367-.0469.02051-.0439.21676-.4785c.057-.1256.088-.2198.1026-.2852.0147-.0665.0084-.085.0107-.0693l-.0898-.5977c-.0612-.4063.0445-.7943.2998-1.1142l.3789-.4746c.065-.0814.0993-.1549.1162-.22172l.0684-.27051.0673-.27051c.0385-.15287.0694-.313.0928-.47949l.041-.28906.0401-.28809c.0324-.23062.0833-.45846.1513-.68164l.1602-.52539c-.085.15063-.1699.30436-.2529.46094-1.0053 1.89576-1.59115 3.70687-1.61723 5.19437-.02497 1.4404.46543 2.5295 1.60933 3.2148.7454.4463 1.6013.6189 2.4952.5274.1226-.0557.2561-.0742.3877-.0567.4055-.0753.8173-.2017 1.2275-.3828 1.4561-.6429 2.8569-1.9363 3.8193-3.751.9624-1.8148 1.2775-3.75897 1.0411-5.41599-.2367-1.65604-1.0121-2.97997-2.1993-3.69141m-9.71384 8.1406c-.40717.2108-.82217.4512-1.24023.7168-.83287.5293-1.56615 1.0895-2.17187 1.6621.09324-.0364.19004-.0645.28906-.083l.31347-.0576.30274-.0566.12402-.1983.14844-.2412c.1985-.3202.49587-.5429.86133-.6416l.27051-.0732.01953-.0059.80078-.6689.07617-.0635a.744.744 0 0 1 .17773-.1104c.00918-.0592.018-.1191.02832-.1787"/>
</svg>
