<svg xmlns="http://www.w3.org/2000/svg" width="24" height="24" viewBox="0 0 24 24">
  <path fill="currentColor" d="M8 7.67871c.78899-.48586 1.84262-.53145 2.6982-.26758 1.0473.32311 2.0518 1.19251 2.0518 2.63677 0 .8604-.2071 1.6248-.6045 2.1855-.1963.277-.4469.5095-.7373.667.0394.2183.0621.441.0713.6562.0238.5576-.031 1.1618-.1455 1.7207-.1132.5522-.2937 1.1062-.5488 1.543-.2127.364-.6086.863-1.22954.9238l-.12695.0059-.16504-.0117c-.3698-.0548-.62784-.2889-.78222-.5147-.16311-.2385-.25593-.5239-.31641-.7724-.0995-.409-.15173-.911-.19434-1.3867-.04827.4748-.10168.9737-.19336 1.3759-.05512.2419-.13696.5177-.27734.7491-.12474.2055-.36695.4803-.75391.5459l-.1748.0146-.13086-.0078c-.29822-.0345-.53708-.1821-.70605-.332-.19236-.1708-.34394-.3864-.46387-.5987-.24129-.4273-.42555-.9728-.54785-1.5224-.12345-.5549-.19384-1.1573-.18262-1.7159.00437-.2178.02198-.4445.05859-.6679-.29356-.1575-.54614-.3925-.74414-.6719-.39735-.5607-.60449-1.3251-.60449-2.1855.00005-1.44426 1.00454-2.31366 2.05176-2.63677.85562-.26387 1.90925-.21828 2.69824.26758m2.2568 1.16602c-.65795-.20302-1.31754-.05963-1.61129.21484a.75.75 0 0 1-.51172.20215h-.26758a.75.75 0 0 1-.51172-.20215c-.29375-.27447-.95334-.41786-1.61133-.21484-.61189.18892-.99312.59963-.99316 1.20317 0 .6369.15613 1.0732.3291 1.3173.16666.2352.31371.2608.39942.252.281-.0288.55419.1032.70703.3408.15289.2377.15957.5413.0166.7852-.07738.132-.1532.4167-.16211.8603-.00846.4219.04502.9044.14648 1.3604.05765.2589.12902.4956.20508.6992.04413-.3085.08186-.6687.1211-1.0615.05642-.5649.12113-1.2051.24511-1.7041.06103-.2457.15161-.5253.30567-.7588.1615-.2448.46564-.5371.93652-.5371.47604 0 .77968.2982.93848.5498.14957.2369.23356.519.28808.7636.11072.4969.16073 1.1379.20801 1.6973.04154.4915.08312.9284.14551 1.2725.10931-.2375.21056-.5498.28418-.9092.0925-.4517.13432-.9328.11621-1.3555-.01899-.4425-.1-.736-.18262-.8769-.14297-.2439-.13629-.5475.0166-.7852.15284-.2376.42605-.3696.70705-.3408.0857.0088.2327-.0168.3994-.252.173-.2441.3291-.6804.3291-1.3173 0-.60354-.3813-1.01425-.9932-1.20317M17.5 1.25c.6903.00003 1.25.55966 1.25 1.25v9.0742c.3739.5678.7657 1.1164 1.1553 1.6416.4578.6172.9202 1.2196 1.2988 1.7549.3768.5328.7168 1.0607.9209 1.5527.1985.4787.335 1.084.0557 1.6582-.2801.5756-.8592.8763-1.4893 1.043-.4003.1057-.8111-.1329-.917-.5332-.1055-.4001.1333-.8098.5332-.916.2254-.0596.3628-.1246.4414-.1758.0373-.0243.0585-.044.0694-.0557.0097-.0105.0136-.0185.0136-.0185s.0033-.0057.0049-.0156c.0018-.0112.0029-.0324 0-.0664-.0061-.0724-.0312-.1846-.0976-.3448-.1361-.328-.3921-.7427-.7598-1.2627-.3538-.5001-.7686-1.0421-1.2295-1.6621V21.5c0 .6903-.5597 1.25-1.25 1.25h-15c-.69035 0-1.25-.5596-1.25-1.25v-19c0-.69036.55964-1.25 1.25-1.25zm-14.75 20h10.7354V2.75H2.75zm12.2354 0H17.25v-9.2285c-1.4293-2.25951-2.641-5.05618-1.9844-8.1758.0853-.40519.4835-.66514.8887-.58008.4052.08538.6643.48345.5791.88868-.3443 1.63553-.0695 3.18983.5166 4.6455V2.75h-2.2646z"/>
</svg>
