<svg xmlns="http://www.w3.org/2000/svg" width="24" height="24" viewBox="0 0 24 24">
  <path fill="currentColor" d="M11.0469 10.8525c.183.0057.3568.0249.4883.0391.1439.0156.2371.0244.3154.0244.3142-.0002 1.1054-.1373 1.875.2149 1.1364.5203 1.3251 1.7624 1.3252 2.5918 0 .695-.2669 1.4068-.6231 1.9531-.3331.5107-.8818 1.0809-1.58 1.1777-.7896.109-1.2932.1428-2.2237-.0019-.402-.0626-.73369-.2741-.98533-.502-.25505-.231-.46819-.5156-.63769-.8027-.32769-.5552-.56739-1.2514-.56739-1.8242.00013-.8887.2437-1.9986 1.27637-2.5665.48784-.268.95284-.3155 1.33694-.3037M11 12.3516c-.2127-.0066-.3873.0202-.5674.1191-.3038.1671-.49888.5496-.49901 1.252 0 .2227.11821.6557.35841 1.0625.1144.1938.2382.3486.3535.4531.1183.1071.1909.128.209.1308.7483.1165 1.0995.0931 1.7881-.0019.0039-.0008.0204-.0046.0488-.0186.0337-.0167.0793-.0451.1328-.0888.1096-.0898.2328-.2272.3477-.4034.2364-.3628.3789-.7943.3789-1.1337-.0001-.7614-.1964-1.1113-.4502-1.2276-.1794-.082-.3162-.1033-.4854-.1035-.0335.0747-.0678.1362-.0957.1807a1.3 1.3 0 0 1-.0381.0576 1.4 1.4 0 0 1-.0146.0205.4.4 0 0 1-.0059.0078l-.0029.0029-.0019.003c-.2524.328-.7235.3906-1.0518.1386-.1476-.1134-.239-.2715-.2744-.4404-.0444-.0034-.087-.0094-.1299-.0107M8.7998 4.25c2.6587 0 4.4564 1.12454 5.3408 2.45117.1818-.15089.3825-.27996.5938-.38867.7051-.36274 1.5734-.52246 2.4541-.52246 1.6527.00017 3.1045.9666 3.4717 2.45996H22c.4142 0 .75.33579.75.75 0 5.0026-3.4175 9.2057-8.0449 10.4053.6464.6737 1.0449 1.5872 1.0449 2.5947 0 .4142-.3358.75-.75.75H9c-.41421 0-.75-.3358-.75-.75 0-1.0072.39778-1.921 1.04395-2.5947C4.66697 18.2054 1.25 14.0023 1.25 9c0-.41421.33579-.75.75-.75h1.3418c.40498-1.75763 2.16918-3.99991 5.458-4M12 19.75c-.9793 0-1.81.6266-2.11914 1.5h4.23824c-.3091-.8734-1.1398-1.5-2.1191-1.5m-9.2168-10c.38189 4.7578 4.36074 8.5 9.2168 8.5 4.8561 0 8.8349-3.7422 9.2168-8.5zm6.0166-4c-2.29402.00008-3.4988 1.40737-3.89648 2.5h8.31938c-.2611-.98355-1.5453-2.5-4.4229-2.5m8.3887 1.54004c-.7192 0-1.3342.13355-1.7676.35644-.333.17133-.5284.3773-.625.60352h4.2578c-.306-.55437-.9582-.95983-1.8652-.95996"/>
</svg>
