<svg xmlns="http://www.w3.org/2000/svg" width="24" height="24" viewBox="0 0 24 24">
  <path fill="currentColor" d="M22 5.25c.4142 0 .75.33579.75.75 0 1.19881-.107 2.3659-.3037 3.48535l-.1777 1.19925c-.029.1938-.1029.3708-.2081.5234-.5287 1.9306-1.3412 3.6741-2.3789 5.127C17.7722 19.0081 15.0665 20.75 12 20.75c-.7572 0-1.4966-.1068-2.20898-.3096-1.14889-.3271-2.21885-.9005-3.18653-1.6699-.45372-.3393-.88306-.7343-1.27246-1.1875-1.20222-1.3044-2.18545-2.9433-2.88183-4.7891-.20423-.5413-.38419-1.1021-.53907-1.6796a1.249 1.249 0 0 1-.14746-.4297l-.07129-.4756C1.40451 8.87369 1.25 7.46072 1.25 6c0-.41421.33579-.75.75-.75zm-19.20508 2h3.82715c.69036 0 1.25.55964 1.25 1.25v2c0 .6904-.55964 1.25-1.25 1.25H3.67188c.05873.1735.11784.3455.18164.5146.1099.2913.22785.575.35156.8516 1.01662-.4243 2.12198-.4606 3.1084-.2412 1.03586.2306 2.02173.763 2.66211 1.5449.53331.6512.98541 1.3485 1.16801 2.2578.1515.7554.0969 1.5655-.128 2.4961.3236.0494.6519.0762.9844.0762.2327 0 .4639-.0125.6934-.0371-.2329-.947-.2904-1.7692-.1368-2.5352.1826-.9092.6347-1.6066 1.168-2.2578.6404-.7818 1.6254-1.3143 2.6611-1.5449 1.0457-.2327 2.2254-.1773 3.2911.3223.0221.0104.0417.0251.0625.0381.2173-.4746.4135-.9705.5878-1.4854h-2.9169c-.6904 0-1.25-.5596-1.25-1.25v-2c0-.69036.5596-1.25 1.25-1.25h3.7959c.0108-.1658.0217-.33239.0283-.5H2.76562c.00657.16761.01841.33416.0293.5m4.27832 7.2402c-.62954-.1401-1.29979-.1448-1.92871.0137.21985.5865.51669 1.1115.86719 1.5772.27439.3347.56166.6461.86035.9326.85101.7588 1.86749 1.2732 2.89258 1.539.14546-.6637.14661-1.1235.07422-1.4843-.09449-.4709-.33899-.9067-.81446-1.4873-.39038-.4767-1.0924-.8997-1.95117-1.0909m11.48146.0137c-.6287-.1584-1.2985-.1537-1.9277-.0137-.8589.1912-1.5618.6142-1.9522 1.0909-.4753.5804-.719 1.0165-.8135 1.4873-.0724.3608-.0722.8206.0733 1.4843 1.909-.495 3.7943-1.8459 4.6201-4.0488M3.16309 9.90039c.02528.11721.05064.23381.07812.34961h3.13086v-1.5H2.99219zM17.6602 10.25h3.0976c.0747-.3142.1429-.63341.2012-.95801L21.04 8.75h-3.3798z"/>
</svg>
