<svg xmlns="http://www.w3.org/2000/svg" width="24" height="24" viewBox="0 0 24 24">
  <path fill="currentColor" d="M14.1973 9.46973c.2928-.29283.7676-.29271 1.0605 0 2.1506 2.15057 2.1513 5.63727.001 7.78807-2.1508 2.1508-5.63832 2.1508-7.78907 0-.29271-.2929-.29283-.7677 0-1.0605zM11.791 17.3457c.7564-.0805 1.4939-.3738 2.1143-.8838l-1.6211-1.7549zm-2.68065-.668c.36593.2495.76483.4292 1.17775.544l.3955-2.1192zm4.58305-2.6562 1.1796 1.2773c.2626-.4757.4192-.993.4737-1.5195zm-.4825-1.4453 2.0088-.294c-.1149-.4107-.2937-.8077-.542-1.1718zM17.5 1.25c.6904 0 1.25.55964 1.25 1.25v1c0 .51037-.3067.94742-.7451 1.1416l.707 2.1211c.0255.07647.0381.15669.0381.2373v12c0 2.0711-1.6789 3.75-3.75 3.75H9c-2.07107 0-3.75-1.6789-3.75-3.75V7c0-.08061.01259-.16083.03809-.2373l.70605-2.1211C5.55616 4.44724 5.25 4.01005 5.25 3.5v-1c0-.69036.55964-1.25 1.25-1.25zM6.75 19c0 1.2426 1.00736 2.25 2.25 2.25h6c1.2426 0 2.25-1.0074 2.25-2.25V7.75H6.75zm.29102-12.75H16.959l-.5-1.5H7.54102zm-.29102-3h10.5v-.5H6.75z"/>
</svg>
