<svg xmlns="http://www.w3.org/2000/svg" width="24" height="24" viewBox="0 0 24 24">
  <path fill="currentColor" d="M12 14.25c1.5186 0 2.7498 1.2314 2.75 2.75-.0002 1.5186-1.2314 2.75-2.75 2.75S9.25023 18.5186 9.25 17c.00023-1.5186 1.2314-2.75 2.75-2.75m0 1.5c-.6902 0-1.2498.5598-1.25 1.25.0002.6902.5598 1.25 1.25 1.25s1.2498-.5598 1.25-1.25c-.0002-.6902-.5598-1.25-1.25-1.25m6.3477-13.55565c.1072-.40002.5188-.63747.9189-.53028.4.10729.6375.51891.5303.91895l-1.5264 5.6914c.6289.39099 1.1018.99536 1.3291 1.72558H20.75v10.9717c-.0003.4868-.3696.7512-.5137.8418-.1894.119-.42.2075-.6465.2764-.464.141-1.0984.2575-1.8369.3525-1.4882.1913-3.5222.3076-5.7529.3076-2.23074 0-4.26467-.1163-5.75293-.3076-.7385-.095-1.37284-.2115-1.83691-.3525-.22642-.0689-.45704-.1574-.64649-.2764-.1441-.0906-.51333-.355-.51367-.8418V10h1.14062c.17726-.66994.52271-1.38577 1.03907-2.00683.80979-.97365 2.06267-1.74316 3.77051-1.74316 2.3392.00006 3.9041 1.0966 4.7012 2.37012.706-.58457 1.7089-.83 2.6377-.83008.1029 0 .2045.00489.3047.01367zm.9023 9.48245c-.4093.179-.8882.3341-1.4111.4648-1.5228.3807-3.587.6084-5.8389.6084-2.25194 0-4.31608-.2277-5.83887-.6084-.52289-.1307-1.00181-.2858-1.41113-.4648v8.9433c.02872.0099.0604.0232.09668.0342.3454.105.8831.2097 1.5918.3008C7.84564 21.136 9.81252 21.25 12 21.25c2.1875 0 4.1544-.114 5.5615-.2949.7087-.0911 1.2464-.1958 1.5918-.3008.0363-.011.068-.0243.0967-.0342zM9.2002 7.75001c-1.20835 0-2.05614.52764-2.61719 1.20215-.41177.49528-.65597 1.05804-.76465 1.52634.2091.0703.44423.1423.70703.208 1.37262.3431 3.30853.5635 5.47461.5635 1.4787 0 2.8496-.1059 4.0078-.2803.0039-.0404.0107-.0815.0215-.122l.416-1.5557c-1.218.02487-1.8559.53218-1.9551 1.1279-.0608.3654-.3796.6318-.75.627-.3704-.005-.6824-.2805-.7334-.6475-.1431-1.03114-1.2617-2.64931-3.8066-2.64939m8.4365 2.89159c.1969-.0524.3771-.1071.541-.1621-.0678-.2342-.1824-.4424-.333-.61719z"/>
</svg>
