<svg xmlns="http://www.w3.org/2000/svg" width="24" height="24" viewBox="0 0 24 24">
  <path fill="currentColor" d="M10.4395 8.25c.3971 0 .6691.25047.7861.37305.1437.15069.2662.33582.3682.51367.2075.36207.4065.83087.5781 1.30958.3363.9383.631 2.0952.6465 2.8105.0154.7177-.1622 1.4081-.5235 1.9395-.366.5379-.9477.9385-1.6855.9385-.73693-.0001-1.33974-.4003-1.72366-.9483-.37906-.5413-.56521-1.2438-.53808-1.9736.02514-.675.23843-1.8027.50976-2.7481.13649-.47539.29829-.94464.47656-1.30757.08756-.17816.19689-.36702.33106-.52149.09694-.11157.30797-.32274.62986-.37402zm.0634 2.0283c-.0675.1856-.136.3978-.2021.6279-.2546.887-.43521 1.8872-.45412 2.3946-.01682.4527.10348.8156.26272 1.043.1542.22.3208.2919.4677.2919.1461 0 .3143-.071.4708-.3007.1613-.2373.2805-.6133.2705-1.0782-.0102-.4671-.2372-1.4379-.5577-2.332-.085-.2373-.1729-.4559-.2578-.6465M19.5 1.25c.6903.00003 1.25.55966 1.25 1.25v19c0 .6903-.5597 1.25-1.25 1.25h-15c-.69035 0-1.25-.5596-1.25-1.25v-19c0-.69036.55964-1.25 1.25-1.25zm-14.75 20h10.7354V2.75H4.75zm12.2354 0H19.25V2.75h-2.2646z"/>
</svg>
