<svg xmlns="http://www.w3.org/2000/svg" width="24" height="24" viewBox="0 0 24 24">
  <path fill="currentColor" d="M11.9375 11.2549c.3806.0001.6528.2247.7842.3525.153.149.285.3339.3955.5127.2243.3634.4397.8336.625 1.3135.3623.9386.6822 2.1023.6992 2.8271.0321 1.3877-.773 2.8788-2.3213 2.8789-1.5535-.0002-2.43594-1.5003-2.37889-2.9257.02732-.6814.25909-1.8139.55179-2.7608.1474-.4769.3235-.9477.5166-1.3125.095-.1794.2122-.3684.3554-.5215.1093-.1166.3223-.3082.6329-.3545zM12 13.165c-.0901.2143-.1835.473-.2725.7608-.2738.8857-.4662 1.8816-.4863 2.3828-.0375.9388.4928 1.3315.8438 1.332.3562 0 .879-.4026.8564-1.3799-.0108-.4578-.2518-1.422-.5967-2.3154-.114-.2954-.233-.5616-.3447-.7803M13.6152 1.25c.4142.00008.75.33584.75.75v1.59375c.1069.05343.2125.11204.3145.17969.4509.29929 1.0713.75473 1.5869 1.29883.4907.51791 1.0176 1.25235 1.0176 2.10449-.0001 1.03401-.5387 1.98811-.9873 2.61816-.2147.30138-.4304.55448-.5987.74118l2.5752 7.2022c.8725 2.442-.938 5.0114-3.5312 5.0117H9.25781c-2.59324-.0003-4.40371-2.5697-3.53125-5.0117l2.54883-7.1309c-.16416-.1481-.35489-.3417-.5459-.5801-.50029-.62437-1.01359-1.57843-1.01367-2.85054 0-1.06116.54673-1.88307 1.13379-2.45703.58618-.57294 1.27463-.96313 1.72363-1.18262.0202-.00987.04124-.01808.06153-.02734V2c0-.41421.33578-.75.75003-.75zm-2.7031 3.5c-.2689.00001-.4959.04507-.6797.13477-.37982.18568-.91027.49303-1.33494.9082-.42374.41438-.68164.87347-.68164 1.38379.00008.84498.33565 1.47878.68359 1.91308.17459.21788.35006.3814.47852.48828.06351.05282.11479.09095.14746.11426.0162.01155.02812.0194.03418.02344l.00293.00195c.29797.18703.42509.55623.30664.88773l-2.72949 7.6377c-.52343 1.4651.56232 3.0065 2.11816 3.0068h5.48439c1.5558-.0003 2.6416-1.5417 2.1182-3.0068l-2.7295-7.6377c-.1006-.2814-.0239-.5966.1943-.80081.0018-.00168.0053-.00448.0098-.00879.0093-.00904.0241-.0241.0439-.04395.0397-.03983.0984-.10061.1699-.17871.144-.15717.3353-.38156.5254-.64844.3995-.56094.7099-1.19435.71-1.74804 0-.25117-.1779-.62091-.6065-1.07324-.4037-.42606-.9181-.80859-1.3271-1.08008-.2723-.18068-.6166-.27343-.999-.27344zm.2227-1.5h1.7304v-.5h-1.7304z"/>
</svg>
