<svg xmlns="http://www.w3.org/2000/svg" width="24" height="24" viewBox="0 0 24 24">
  <path fill="currentColor" d="M13.5 13.25c.6904 0 1.25.5596 1.25 1.25v4c0 .6904-.5596 1.25-1.25 1.25h-6c-.69036 0-1.25-.5596-1.25-1.25v-4c0-.6904.55964-1.25 1.25-1.25zm-5.75 5h5.5v-.5h-5.5zm0-2h5.5v-1.5h-5.5zm2.6895-12c.3971 0 .6691.25047.7861.37305.1437.15069.2662.33582.3682.51367.2075.36207.4065.83087.5781 1.30957.3363.93832.631 2.0952.6465 2.81055.0154.71763-.1622 1.40806-.5235 1.93946-.366.5379-.9477.9385-1.6855.9385-.73693-.0001-1.33974-.4003-1.72366-.9483-.37906-.5413-.56521-1.2438-.53808-1.97361.02514-.67498.23843-1.80269.50976-2.74805.13649-.47543.29829-.94468.47656-1.30761.08756-.17816.19689-.36702.33106-.52149.09694-.11157.30797-.32274.62986-.37402zm.0634 2.02832c-.0675.18563-.136.39779-.2021.62793-.2546.88699-.43521 1.88711-.45412 2.39453-.01682.45272.10348.81562.26272 1.04302.1542.22.3208.2919.4677.2919.1461 0 .3143-.071.4708-.3007.1613-.2373.2805-.61327.2705-1.07816-.0102-.46716-.2372-1.43791-.5577-2.33204-.085-.23731-.1729-.45594-.2578-.64648M19.5 1.25c.6903.00003 1.25.55966 1.25 1.25v19c0 .6903-.5597 1.25-1.25 1.25h-15c-.69035 0-1.25-.5596-1.25-1.25v-19c0-.69036.55964-1.25 1.25-1.25zm-14.75 20h10.7354V2.75H4.75zm12.2354 0H19.25V2.75h-2.2646z"/>
</svg>
