<svg xmlns="http://www.w3.org/2000/svg" width="24" height="24" viewBox="0 0 24 24">
  <path fill="currentColor" d="M9.8457 13.9209c.4414.0004.7995.3334.7998.7432-.0002.4097-.3584.7418-.7998.7421-.44178 0-.80057-.3321-.80078-.7421.00027-.41.35903-.7432.80078-.7432m3.998 0c.4417.0002.8006.3333.8008.7432-.0002.4099-.3591.742-.8008.7421-.4416-.0001-.7995-.3322-.7998-.7421.0003-.4099.3582-.743.7998-.7432M11.998 9.45898c.4323.01046 1.0189.10162 1.6163.33399.1315.05117.2644.11159.3984.17871.6388-.26275 1.613-.43929 2.6182-.19531 1.2063.29293 2.3624 1.17053 3.0107 2.96293.3696 1.0221.5323 1.8261.4473 2.4336-.0453.3224-.1669.6313-.4034.872-.2379.2418-.5306.3526-.8007.3916-.3707.0534-.7606-.0196-1.0879-.1133.0362.1921.0683.3849.0879.5772.1215 1.1941-.1014 2.4698-1.1211 3.4267-.9931.9314-2.6001 1.4228-4.919 1.4229-2.3193 0-3.92681-.4913-4.9199-1.4229-1.0138-.9512-1.23877-2.2172-1.12207-3.4052-.35155.0407-.77694.0232-1.16699-.1778-.49541-.2554-.79355-.7319-.86719-1.3388-.06843-.5662.05139-1.2606.34082-2.0928.6051-1.7393 1.59279-2.7179 2.66504-3.1689 1.04322-.4385 2.07956-.3406 2.74512-.0977l-.00391.0088c.18712-.10345.37566-.19018.55958-.26173.5974-.2323 1.184-.3236 1.6162-.33399zm-.1757 1.50002c-.2483-.0072-.7159.042-1.2032.2314-.4816.1874-.93802.4939-1.24312.9668-.25414.3942-.72929 1.1423-1.16602 2.042-.44135.9095-.81833 1.924-.91309 2.8526-.0934.9174.09298 1.6549.6543 2.1816.51634.4843 1.46344.9 3.14353.9951v-1.5039c-.5066-.2-.8525-.5955-.8525-1.0517.0003-.6574.7179-.5958 1.6025-.5958.8844 0 1.6013-.0615 1.6016.5958-.0001.4561-.3452.8516-.8516 1.0517v1.5039c1.6794-.0952 2.6262-.511 3.1426-.9951.5611-.5266.7487-1.2644.6553-2.1816-.0948-.9286-.4718-1.9431-.9131-2.8526-.4367-.8998-.9119-1.6478-1.166-2.042-.3051-.4731-.7615-.7793-1.2432-.9668-.4876-.1896-.9558-.2386-1.2041-.2314a.8.8 0 0 1-.0439 0m-3.71.3877c-.2388.0175-.49701.0709-.75586.1797-.61939.2604-1.34133.8739-1.83007 2.2783-.25697.7388-.29719 1.1816-.26856 1.4199.01323.109.03941.1566.04785.1699.00564.0088.00837.0123.0166.0166.0358.0184.15212.0477.37598.0108.1541-.0255.3151-.0765.45703-.1358.19717-.6207.44907-1.2146.70508-1.7422.4761-.9808.98891-1.7892 1.25195-2.1972m7.3389-.1807c.0419.0574.0836.1166.123.1778.2624.4069.7774 1.2163 1.2549 2.2001.1519.3129.3008.6499.4395 1.001.0715.0289.1444.057.2128.085.1605.0655.3226.1299.4825.1855.3074.1069.5151.1416.6318.1397.001-.005.0031-.0108.0039-.0166.0319-.2292-.0182-.7409-.3711-1.7168-.4848-1.3403-1.2535-1.8284-1.9277-1.9922-.2915-.0707-.5827-.0836-.8496-.0635m2.5185-9.31444c1.1753.00032 1.9179.76567 2.1973 1.60449.1976.59363.1926 1.32151-.1035 1.9209.2993.62006.296 1.3845.1084 1.99414-.2631.85349-.9847 1.71548-2.2022 1.71582-1.0052-.0001-1.7134-.39224-2.1269-.99218-.1756-.25491-.2822-.52845-.3438-.79004H8.50293c-.06156.26149-.16834.5352-.34375.79004-.41342.60011-1.12267.99199-2.12793.99218-1.21787-.00005-1.93907-.86218-2.20215-1.71582-.18775-.60968-.191-1.37398.1084-1.99414-.29622-.59947-.30017-1.32717-.10254-1.9209.27955-.83879 1.02083-1.60444 2.19629-1.60449 1.00517.00019 1.71449.39313 2.12793.99317.17724.25747.28448.53388.3457.79785h6.99222c.0612-.26402.1683-.54037.3457-.79785.4135-.59983 1.1218-.99306 2.1269-.99317m0 1.5c-.5771.00009-.7933.20156-.8916.34375-.1289.1871-.1628.43975-.1445.60547.003.02734.0049.0555.0049.08301v.00879c-.0001.41376-.3364.74936-.75.75H7.81348c-.41418 0-.74994-.33584-.75-.75v-.00879a.76.76 0 0 1 .00488-.08301c.01825-.16563-.01586-.41846-.14453-.60547-.09802-.1422-.31493-.34358-.89258-.34375-.40774.00004-.65663.2281-.77344.57813-.13482.40502-.02582.77271.11328.91113.14178.1407.22254.33346.22266.5332-.00008.19962-.08108.39152-.22266.53223-.12919.12829-.25675.53994-.1084 1.02246.133.43156.4026.65816.76856.6582.57788-.00017.79461-.20154.89258-.34375.12843-.18715.1629-.44005.14453-.60546-.02334-.21181.0444-.42422.18652-.58301.14224-.1584.34567-.25.5586-.25h8.37502c.2128.00033.4166.09143.5586.25.1419.15873.2098.37135.1865.58301-.0184.16562.0157.41822.1445.60546.0981.14223.3138.34366.8916.34375.3657-.0003.6357-.22681.7686-.6582.1482-.48234.0207-.89408-.1084-1.02246a.7506.7506 0 0 1-.2217-.53223c.0001-.19984.0798-.39248.2217-.5332.1389-.13862.2479-.50642.1133-.91113-.1168-.34994-.366-.57785-.7735-.57813"/>
</svg>
