<svg xmlns="http://www.w3.org/2000/svg" width="24" height="24" viewBox="0 0 24 24">
  <path fill="currentColor" d="M9.67968 10c.55222 0 1.00002.4477 1.00002 1 0 .5522-.4478 1-1.00002 1-.55219-.0001-.99996-.4478-1-1 .00004-.5522.44781-.9999 1-1m4.99802 0c.5521.0002 1 .4479 1 1s-.4479.9998-1 1c-.5522 0-.9999-.4477-1-1 .0001-.5523.4478-1 1-1m-2.498-5.74805c.6131-.0145 1.6865.13772 2.7099.70703.7716-.35946 1.9953-.61665 3.2549-.28711 1.452.38002 2.8292 1.50682 3.6065 3.82227.4589 1.36745.6403 2.39016.5439 3.13086-.0503.3858-.1826.7468-.4404 1.0293-.2636.2886-.5966.428-.916.4775-.5451.0844-1.131-.0817-1.5782-.2431.0824.3846.1455.7707.1817 1.1533.146 1.544-.1203 3.1579-1.3233 4.374-1.1897 1.2026-3.1494 1.8652-6.04 1.8652-2.89048 0-4.85025-.6627-6.04003-1.8652-1.20296-1.2161-1.46828-2.83-1.32227-4.374a9 9 0 0 1 .03321-.2998c-.02251.0045-.04478.0106-.06739.0146-.45652.0813-1.03476.0876-1.54785-.1972-.55777-.3099-.88125-.8735-.96289-1.5977-.07812-.6938.05592-1.5763.41211-2.67968.73328-2.2715 1.92209-3.53633 3.21289-4.12109 1.26624-.57356 2.52587-.44385 3.3291-.12793l-.03711.09277c1.10333-.70804 2.32243-.89024 2.99123-.87402m-.1699 1.49902c-.7764.02336-2.27592.39995-3.06059 1.71094C8.292 8.5601 6.56019 11.5339 6.30957 14.1836c-.12291 1.2997.12192 2.3958.8955 3.1777.71095.7185 1.99024 1.2952 4.22363 1.4004v-2.2246c-.7339-.2379-1.2519-.8122-1.2519-1.4853 0-.6644.5039-.7839 1.2226-.8018h1.5586c.7185.0179 1.2226.1375 1.2227.8018-.0001.673-.5183 1.2474-1.252 1.4853v2.2246c2.2332-.1052 3.5127-.6819 4.2236-1.4004.7735-.7819 1.0184-1.878.8955-3.1777-.2506-2.6496-1.9823-5.62338-2.6396-6.72169-.7847-1.31096-2.2842-1.68759-3.0605-1.71094zm-4.06547.52149c-.42309-.03031-.92335.026-1.42871.25488-.82396.37325-1.77141 1.25227-2.40527 3.21582-.32729 1.01394-.39245 1.66154-.34863 2.05074.04036.358.15983.4312.20117.4541.08617.0479.26463.0833.55664.0313.23776-.0424.48452-.1336.69238-.2363.6747-2.35691 1.95516-4.5244 2.4502-5.3516.08863-.14808.18324-.28743.28222-.41894m9.82027-.14942c-.5295-.13847-1.0559-.12022-1.499-.03515.1533.18363.2983.3839.4297.60351.424.70854 1.424 2.40026 2.127 4.3516.1179.0503.243.1032.3613.1552.2006.0883.4053.1765.6094.253.4447.1666.7513.2227.916.1972.0216-.0033.0339-.0073.04-.0097.0101-.0152.0408-.0713.0586-.208.0501-.3857-.0349-1.1345-.4795-2.45902-.6387-1.90271-1.6653-2.6135-2.5635-2.84864"/>
</svg>
