<svg xmlns="http://www.w3.org/2000/svg" width="24" height="24" viewBox="0 0 24 24">
  <path fill="currentColor" d="M5.05469 14.0537c.19416.0081.37762.0361.50683.0547.14612.0211.22639.0313.28907.0313.09259-.0001.18772-.0071.32129-.0166.12389-.0089.28184-.0201.44824-.0166.355.0073.75858.0795 1.18359.3388.56643.3459.86926.9144 1.03223 1.459.16405.5487.21484 1.1613.21484 1.7275-.00014.8213-.2387 1.6958-.57715 2.3877-.17031.3481-.37946.6778-.62109.9414-.2296.2505-.5563.5152-.97168.5918-.80548.1483-1.33459.1952-2.29395-.0039-.45172-.0937-.79088-.3981-1.02246-.6777-.24263-.2931-.44405-.6517-.60351-1.0117-.31432-.7099-.52719-1.5667-.52735-2.2276 0-.575.05903-1.1712.22754-1.7109.16886-.5407.46361-1.0715.9668-1.4404.50456-.3698 1.00469-.4442 1.42676-.4268m-.0625 1.499c-.175-.0071-.31389.0178-.47754.1377-.16521.1212-.31421.333-.42188.6778-.10783.3455-.15918.778-.15918 1.2636.00018.4001.14511 1.048.39844 1.6202.12439.2808.26017.509.3877.663.13767.1661.20281.1716.17187.1651.71357.148 1.03935.1203 1.70117-.001.00774-.0045.06224-.0314.1543-.1318.11915-.1301.25285-.3293.37891-.5869.25442-.5202.42466-1.1702.4248-1.7286 0-.4941-.04599-.944-.15137-1.2968-.1066-.3564-.24859-.5308-.37695-.6094-.12324-.0752-.23337-.1054-.3584-.1152-.00751.0257-.01296.0507-.02051.0732-.02758.0821-.05656.1511-.08007.2012a1.6 1.6 0 0 1-.03125.0634c-.00425.0081-.00842.0155-.01172.0215-.00154.0028-.00356.0056-.00489.0078l-.00292.0059-.00098.001-.04199.0644c-.22201.3084-.64607.4045-.98243.211-.2552-.1472-.39109-.4219-.37402-.6973-.04185-.0046-.08175-.0081-.12109-.0098M18.4004 6.41407c.1252-.39451.5467-.61323.9414-.48828.3943.12522.6129.54685.4883.94141l-.0098.03027-.0586.44433c-.0405.30856-.0376.49837-.0224.59766l.0449.30078.0469.30078c.0502.3301.0144.66065-.1172.97266l-.1133.26758-.1123.26664c-.1316.3116-.3435.5673-.6055.7685l-.2588.1983-.2431.1855-.0118.2598-.0146.3037c-.0166.3288-.1143.6429-.3027.9209l-.1592.2344-.1582.2343c-.1296.1911-.2748.3699-.4346.5362l-.1953.2041-.1963.2041c-.1871.1946-.4032.3557-.6426.4814l-.2539.1328-.2529.1328c-.1173.0616-.2184.1315-.3037.208l-.0303.0264.1025.084-.4648.5781-.0625.0772c-.2595.3226-.7329.3744-1.0557.1152-.1063-.0857-.1807-.1965-.2265-.3154l-.0157-.0127-.0537-.2598-.0156-.0781-.0166-.1309c-.0125-.293.1396-.5055.1797-.5615.077-.1074.1713-.2013.2549-.2764l.2012-.1806.2021-.1807c.1831-.1644.3865-.3049.6074-.4209l.2539-.1328.2539-.1338c.0988-.0519.1842-.1158.2578-.1924l.3917-.4072c.1007-.1048.1923-.2179.2744-.3389l.1582-.2343.1591-.2344c.0233-.0343.0421-.0794.0459-.1543l.0303-.6065c.0221-.4393.2341-.8045.5664-1.0595l.2578-.1973.2579-.19824c.0819-.0629.119-.11819.1376-.16211l.1124-.26758.1132-.2666c.0184-.04346.0272-.09265.0166-.16308l-.0468-.30079-.0459-.30175c-.046-.30162-.0298-.65139.0185-1.01856l.0674-.50781.0078-.06543.0205-.06348zm-1.2236-2.01172c.2083-.35786.6674-.47965 1.0253-.27148.3544.20669.4762.6602.2754 1.0166l-.1005.41601c-.0895.36897-.2074.72283-.3809.98926l-.1533.23535-.1524.23438c-.1386.21286-.305.40702-.4951.58008l-.4355.39648c-.0217.01977-.0308.03599-.0371.07129l-.0538.29199-.0527.29395c-.0498.27491-.1433.5371-.2822.77832l-.2803.48633c-.1772.30729-.4399.53199-.7383.68949l-.2978.1572-.1377.0713.0224.1699.044.3428c.0293.2299.0065.4872-.1182.7324-.1252.246-.3209.4163-.5273.5273L14 12.7734l-.2998.1612c-.096.0516-.1224.0925-.1299.1064l-.2646.4961c-.0003.0077-.0003.0281.0078.0625l.1562.6602c.0275.1167.06.2779.0567.4316-.0013.0588-.0069.2539-.1309.4463-.0741.1148-.1966.237-.376.3057-.1748.0668-.3374.0577-.4511.0322l-.084-.0195-.2178-.0489-.0039-.0039c-.0401-.0121-.0814-.0275-.1201-.0468-.3698-.1857-.5192-.6368-.334-1.0069l.0449-.0879.0498-.1025-.0498-.2149c-.0853-.3622-.0662-.7495.125-1.1074l.2695-.5029c.172-.3215.4369-.557.7413-.7207l.3007-.1611.1465-.0791-.0215-.1729-.0439-.3428-.0117-.1767c-.0005-.1803.0342-.3714.1279-.5557.1259-.24717.3233-.41755.5313-.52734l.2988-.15722.2978-.15625c.0986-.05203.1299-.09541.1397-.11231l.1396-.24414.1397-.24219c.0477-.08289.0844-.18002.1054-.29589l.1065-.58692c.0644-.35539.2355-.66763.5039-.91211l.2178-.19922.2177-.19824c.1004-.09137.1825-.18828.2481-.28906l.1523-.23535.1534-.23535c.0308-.04745.1008-.19843.1796-.52344l.127-.52051.0244-.10644.0547-.09473zM13.9092 2.1504c1.5-1.00599 3.218-1.26097 4.9385-.23047 1.6769 1.00505 2.658 2.81322 2.9462 4.83203.2881 2.01833-.1026 4.29494-1.2041 6.37204-1.1014 2.0771-2.7312 3.6114-4.5048 4.3946-1.7741.7831-3.7369.8274-5.4141-.1768-1.7206-1.0308-2.40595-2.7254-2.37305-4.6103.00097-.055.00369-.1107.00586-.1661-.09368.0213-.19121.0441-.29394.0635-.45334.0856-.88342-.0662-1.20411-.2363-.33595-.1783-.6587-.4332-.94336-.7051-.56128-.5363-1.08569-1.2476-1.33789-1.85839-.2192-.53135-.39129-1.10499-.4414-1.66797-.0501-.56407.01949-1.16732.34375-1.70019.32539-.53435.75943-.79456 1.15625-.93946.18253-.06659.36268-.11053.48926-.14258.14319-.03625.22134-.05714.27929-.08105.08565-.03536.1711-.07791.29102-.1377.11106-.05537.25227-.12624.40722-.18652.33098-.12861.73182-.21531 1.22364-.13769.65545.10368 1.1524.51296 1.51074.9541.18017.22198.34042.47037.48242.72754 1.0254-1.85895 2.258-3.4384 3.6426-4.36719m4.2363 1.0957c-1.1441-.6854-2.2743-.56769-3.4209.20117-.7505.50343-1.4893 1.27853-2.1855 2.26172a3.97 3.97 0 0 1 .3261-.33301l.2149-.19628.2168-.19629c.1673-.15196.3442-.29262.5293-.42188l.4775-.33398c.0986-.06879.2029-.13443.3096-.18653.0738-.03604.1752-.07914.2939-.10449l.125-.01855.124-.00977.1446-.01269.0215.00683c.2108-.04182.438.00357.6181.14942.3211.26076.3707.73305.1104 1.05468l-.3809.46973-.4717-.14258c-.0108.00716-.0233.01454-.0361.02344l-.2383.16699-.2392.16699c-.1326.09255-.2589.19375-.3789.30274l-.2159.19726-.2168.19532c-.1101.1001-.2097.20922-.2998.32714l-.3535.4629c-.0634.08311-.1097.17419-.1406.27539l-.1709.55859c-.0453.14857-.0782.29939-.0996.45215l-.04.28808-.042.28809c-.0305.21727-.071.43063-.1231.63769l-.0683.26953-.0674.2705c-.0738.2928-.2116.558-.3985.792l-.1894.2373-.1758.2178.0879.5713c.0622.413-.0661.8336-.2315 1.1982l-.1953.4317-.0156.0507c-.1208.3959-.5406.6204-.9365.5-.3958-.1206-.61895-.5397-.49904-.9355l.03028-.0967.01269-.0469.02051-.0439.21776-.4785c.0569-.1255.087-.2198.1016-.2852.0147-.0665.0093-.085.0117-.0693l-.0449-.2988-.0459-.2989c-.0612-.4065.0452-.7942.3008-1.1142l.3789-.4746c.0649-.0814.0983-.155.1152-.22172l.1367-.54102c.0384-.15284.0684-.31303.0918-.47949l.082-.57715c.0324-.23064.0823-.45844.1504-.68164l.086-.27929.0742-.24707c-.0851.15083-.1688.30511-.252.46191-1.0053 1.89587-1.59107 3.70677-1.61715 5.19437-.02498 1.4404.46445 2.5295 1.60835 3.2148 1.1874.711 2.656.7304 4.1114.0879 1.4559-.6429 2.856-1.9365 3.8183-3.751.9624-1.8148 1.2785-3.75898 1.042-5.41599-.2365-1.65574-1.0124-2.97985-2.1992-3.69141M8.04004 6.31739c-.14244-.02248-.25583-.00917-.375.0293.00289.02677.00718.05238.00879.07617a1.89 1.89 0 0 1 .00195.2168 1.6 1.6 0 0 1-.00488.07031c-.00084.00908-.00118.01762-.00195.02441-.00041.00304-.00161.00624-.00196.00879v.00684l-.00097.00097-.01368.07618c-.08775.36961-.44341.62001-.82812.56933-.29192-.03873-.52201-.24099-.61133-.50195-.04054.01178-.07912.02358-.11621.03711-.16436.06009-.2832.13632-.38867.30957-.1064.17498-.16376.42759-.13184.78711.03211.36042.14985.77978.33496 1.22851.15273.3697.53404.91346.98633 1.34566.2221.2122.43469.3721.61133.4659.19097.1012.25316.081.22168.0869.34631-.0655.58463-.1365.78808-.2188.19811-.9091.52196-1.84662.93653-2.78415-.08363-.07345-.15476-.16468-.2002-.27441-.18843-.45671-.40184-.85564-.63379-1.1416-.23437-.28866-.43244-.39518-.58105-.41895"/>
</svg>
