<svg xmlns="http://www.w3.org/2000/svg" width="24" height="24" viewBox="0 0 24 24">
  <path fill="currentColor" d="M12.2588 5.68164c2.7034.00029 5.1233 1.75653 5.416 4.21582 2.8018.42724 5.0751 2.51344 5.0752 5.21974 0 .7506-.182 1.3948-.583 1.9062-.397.5062-.9457.802-1.5254.9795-1.109.3395-2.5961.3155-4.0283.3155s-2.9193.024-4.0283-.3155c-.4691-.1436-.9159-.3666-1.2803-.7138-.505.2614-1.09.3816-1.6631.4433-.76352.0822-1.64571.0742-2.51758.0742-1.26637 0-2.60312.023-3.60351-.2832-.52532-.1608-1.02987-.4311-1.39649-.8984-.37072-.4728-.53612-1.0655-.53613-1.7461.00027-2.6666 2.42717-4.6542 5.23633-4.7871.18494-2.56078 2.66019-4.41016 5.43458-4.41016m5.8174 6.20116a24 24 0 0 0-.2071.0908c.5213.3472.9867.7811 1.3213 1.126.2047.211.3734.4022.4912.54.0589.069.1055.1256.1377.1651.0161.0197.0294.0359.0381.0469l.0127.0166.002.0009c.2209.2825.0427.6276-.3975.7696-.4403.1417-.9767.0273-1.1982-.2549l-.002-.002c-.0014-.0018-.0038-.005-.0068-.0088-.0066-.0082-.0167-.0214-.0303-.038-.0274-.0336-.0695-.0831-.1221-.1446-.1059-.1239-.257-.2962-.4404-.4853-.361-.3722-.8034-.768-1.2236-1.0215-.4203.2535-.8626.6492-1.2237 1.0215-.1834.1891-.3344.3614-.4404.4853-.0525.0615-.0947.111-.1221.1446-.0135.0166-.0236.0298-.0302.038-.003.0038-.0054.007-.0069.0088l-.0019.002c-.2214.2822-.758.3965-1.1983.2549-.4404-.142-.6187-.487-.3974-.7696l.0019-.0009.0127-.0166c.0088-.011.0221-.0273.0381-.0469a9 9 0 0 1 .1377-.1651c.1178-.1378.2866-.329.4912-.54.3345-.3448.7993-.7789 1.3203-1.126-.0705-.0313-.1394-.062-.206-.0908-.1253-.0542-.242-.1021-.3448-.1445-1.5251.6511-2.5048 1.9722-2.5048 3.3789 0 .506.1196.7967.2636.9805.1481.1887.3887.3498.7832.4707.8404.2572 2.0477.25 3.5899.25s2.7494.0073 3.5898-.25c.3947-.121.6352-.2819.7832-.4707.144-.1838.2637-.4744.2637-.9805 0-1.4568-1.0508-2.8212-2.6699-3.4453a23 23 0 0 0-.5039.2109m-9.59671.1758c-.02854.0123-.05751.0262-.08691.0391.43756.3034.82478.6666 1.10547.956.18298.1887.33418.3593.43945.4824.05262.0616.0942.1121.123.1475.0143.0175.0263.0311.0342.041.0039.0049.0066.0099.0088.0127l.0039.0029v.002c.2211.2824.0437.6265-.39646.7685-.44027.1417-.97675.0283-1.19824-.2539v-.0019s-.00415-.0045-.00684-.0078c-.00571-.0072-.01554-.0188-.02734-.0332-.02396-.0294-.06028-.073-.10645-.127-.09345-.1093-.22778-.2618-.38965-.4287-.30039-.3097-.66057-.6326-1.0039-.8525-.34272.2198-.70116.5434-1.00098.8525-.16186.1669-.29617.3193-.38965.4287-.04615.054-.08246.0976-.10644.127-.01178.0144-.0216.026-.02735.0332a.17.17 0 0 1-.00683.0078v.0019c-.22138.2822-.75795.3955-1.19825.2539-.44044-.142-.6178-.486-.39648-.7685v-.002l.00391-.0029c.00222-.0029.00489-.0078.00878-.0127.00792-.0099.01994-.0235.03418-.041a8.5 8.5 0 0 1 .12305-.1475c.1053-.1232.25648-.2937.43945-.4824.28058-.2892.66719-.6527 1.1045-.956-.02913-.0128-.05767-.0269-.08594-.0391-.08296-.0359-.16205-.0684-.23438-.0986-1.3199.5698-2.15799 1.7153-2.1582 2.9189.00001.4361.10313.6754.2168.8203.11776.15.31417.2855.65429.3897.73174.2239 1.78866.2177 3.16504.2177.90788 0 1.69344.0061 2.35743-.0654.48965-.0527.84165-.1437 1.08985-.2627-.0628-.2684-.0947-.5559-.0947-.8613 0-.5798.1053-1.1308.2968-1.6436-.3921-.6721-1.06919-1.2378-1.92379-1.5703-.10574.0434-.23191.0955-.37012.1553m5.11821-4.41798c-.0231.00999-.0467.02091-.0704.03126.4255.29684.8013.64928 1.0743.93066.1797.18535.3282.3526.4316.47363.0514.06018.0927.10973.1211.14453.0142.01738.0264.03226.0342.042.0035.00441.0066.00807.0088.01074l.0029.0039.001.00196c.2206.28232.0432.6265-.3965.7686-.4402.1418-.9765.028-1.1983-.25395l-.0009-.00196s-.0041-.00442-.0069-.00781c-.0056-.00701-.0148-.01805-.0263-.03223a8 8 0 0 0-.1045-.125 9.2 9.2 0 0 0-.3819-.41894c-.291-.30005-.638-.61347-.9697-.82813-.3313.21458-.677.52838-.9678.82813-.1586.16353-.2912.31177-.3828.41894a7.7 7.7 0 0 0-.1045.125c-.0116.01429-.0207.02619-.0263.03321-.0024.00294-.0059.00683-.0059.00683l-.001.00196c-.2214.28215-.75795.39545-1.19821.25395-.44028-.1421-.61771-.4861-.39649-.7686l.00098-.00098.00195-.00488c.00213-.00267.00526-.00633.00879-.01074.0078-.00977.02003-.02464.03418-.042.02841-.03483.07058-.08428.12207-.14453.10343-.12099.25113-.28853.43067-.47363.27278-.28121.64816-.63397 1.07326-.93066-.0233-.01018-.0466-.02141-.0694-.03126-.076-.0329-.1488-.06277-.2158-.09082-1.21576.52556-2.01111 1.54975-2.09861 2.6484 1.32243.2526 2.48641.9168 3.27731 1.8565 1.0432-1.2674 2.7082-2.09846 4.541-2.22169-.2247-.9978-1.0292-1.89104-2.1855-2.3418-.1023.04195-.2236.09196-.3564.14941"/>
</svg>
