<svg xmlns="http://www.w3.org/2000/svg" width="24" height="24" viewBox="0 0 24 24">
  <path fill="currentColor" d="M9.51953 13.3848c.39542-.1225.81567.0987.93847.4941.9858 3.1741 4.1646 5.1471 7.1992 4.2051.3954-.1226.8156.0988.9385.4941.1227.3955-.0986.8157-.4941.9385-3.9697 1.2323-7.892-1.3801-9.07621-5.1934-.12252-.3953.09899-.8155.49414-.9384M3.57813 1.8867c.09003-.40396.49045-.65893.89453-.56933 1.40018.31126 2.26226 1.11616 2.78515 1.96094.70935-.10769 1.48008-.05452 2.3125.09668a.752.752 0 0 1 .2754.10937l3.39649 2.21875c.2455.16054.3748.45014.331.74024-.0427.28109-.2417.5112-.5107.59863.1665 3.41712 2.6463 5.57072 4.9941 5.57132 1.2159.0001 2.1879.8382 2.8086 1.7412.6326.9203 1.039 2.0968 1.0391 3.1328-.0004 3.2498-2.8449 4.874-4.8516 4.874-6.6285-.0007-11.61809-5.2664-12.54391-11.5644-.20114.0805-.43167.0727-.62988-.0323-.26851-.1426-.42525-.4337-.39551-.7363l.37305-3.7705c.0092-.09292.03574-.18438.07812-.26758.50042-.97982 1.09383-1.72138 1.86328-2.19043-.35615-.45848-.87624-.84538-1.65039-1.01758-.40399-.08997-.65885-.49143-.56933-.89551m6.70707 5.95411-.63969 1.54785-.07031.13183c-.08248.12288-.20077.22056-.33985.27735-.18544.07538-.39405.07288-.57812-.00586l-1.90332-.81445-.8584.71386C6.36275 15.774 11.0044 20.8606 17.0527 20.8613c1.415 0 3.3512-1.1711 3.3516-3.374-.0001-.6874-.287-1.5727-.7754-2.2832-.5004-.7279-1.0774-1.0907-1.5723-1.0908-3.1713-.0005-6.1156-2.7343-6.4687-6.64652zM7.8711 4.72655c.06884.26009.11483.49744.14355.69531a5.6 5.6 0 0 1 .04688.44824c.00346.05473.00586.09946.00683.13184a3 3 0 0 1 .00098.04004v.01953c-.00028.41387-.33611.7508-.75.75098-.41385-.00024-.74875-.33617-.74903-.75l-.00097.00097v-.0166a2.5 2.5 0 0 0-.00391-.08203c-.00476-.07505-.015-.18809-.03515-.32715-.01972-.13579-.05001-.29399-.09278-.46484-.38239.27491-.74343.70909-1.10254 1.38379l-.13672 1.38086a.745.745 0 0 1 .31739.11718l.62988-.52441c.21652-.18017.51739-.22407.77637-.11328l1.62695.69726.48633-1.18066c.08723-.21167.26728-.37236.4873-.43555l1.52634-.43652-1.88864-1.2334c-.49851-.08353-.92261-.11597-1.28906-.10156"/>
</svg>
