<svg xmlns="http://www.w3.org/2000/svg" width="24" height="24" viewBox="0 0 24 24">
  <path fill="currentColor" d="M17.5938 3.40136c.7547.06541 1.427.56723 1.9609 1.13965.5554.5957 1.0706 1.38461 1.501 2.25098.8539 1.71923 1.4519 3.89591 1.2939 5.72661-.1341 1.5525-.7019 2.7881-1.5703 3.6718-.6887.7007-1.5411 1.1526-2.4531 1.378-.2169 1.3518-.8068 2.442-1.6592 3.2373-1.0789 1.0061-2.5158 1.4853-3.9766 1.4853-1.455-.0001-2.85488-.4581-3.89548-1.457-.47771-.4588-.86285-1.0168-1.1416-1.667-.14137.0094-.28345.0166-.42578.0166-1.40113-.0001-2.75156-.441-3.75586-1.4053-1.01133-.9712-1.59566-2.3996-1.5957-4.2197.00011-1.8257.73116-3.95431 1.68554-5.61231.4804-.83448 1.0391-1.58749 1.62793-2.14258.56613-.53351 1.27214-.98818 2.03809-.98828.87025.00011 1.69157.5821 2.34375 1.24609.52111.53066 1.02071 1.20398 1.46291 1.94629.4946-.37274 1.0586-.64249 1.6562-.64258.0835.00001.1667.00563.2491.01563.5577-1.00433 1.2328-1.92905 1.9345-2.62989.4039-.40334.8351-.74969 1.2754-.99121.4351-.23861.932-.40257 1.4444-.3584m-4.9034 5.46387c-.2075.00014-.5777.1445-1.0752.61328-.4747.44747-.9698 1.10209-1.4209 1.88579-.90907 1.5793-1.55454 3.5353-1.55465 5.0908.0001 1.5604.49189 2.6231 1.19336 3.2968.70889.6807 1.71029 1.039 2.85739 1.0391 1.1414 0 2.1941-.3731 2.9541-1.082.7499-.6996 1.2753-1.7818 1.2754-3.3252-.0001-1.5438-.6825-3.4759-1.6347-5.0391-.472-.7746-.9888-1.42246-1.4805-1.86619-.5151-.46473-.8986-.61323-1.1143-.61328m-5.46286-2.5498c-.18685.00012-.534.13173-1.00879.5791-.4522.42621-.92504 1.05138-1.35645 1.80078-.86957 1.51069-1.48621 3.37949-1.48632 4.86329.00004 1.489.4695 2.4988 1.13476 3.1377.67261.6457 1.62379.9872 2.7168.9873l.00586-.001c-.06099-.3873-.09373-.7969-.09375-1.2275.00011-1.8974.761-4.1122 1.75488-5.8389.31731-.5512.66691-1.06813 1.03613-1.51952-.43839-.79179-.93813-1.48281-1.42968-1.9834-.59034-.60107-1.03751-.79771-1.27344-.79785M17.4648 4.8955c-.114-.00977-.3101.02269-.5947.17871-.2796.15344-.5987.40092-.9365.73829-.5581.55744-1.1217 1.31506-1.6065 2.16308.1681.12029.3298.25188.4825.38965.628.56678 1.2326 1.33886 1.7568 2.19917.9668 1.5871 1.736 3.6027 1.8398 5.4122.4915-.184.9353-.463 1.3038-.8379.594-.6048 1.0366-1.4994 1.1445-2.7491.1266-1.4666-.3637-3.36153-1.1426-4.92964-.3857-.77654-.8236-1.43503-1.2539-1.89649-.4515-.48412-.7987-.65084-.9932-.66797"/>
</svg>
