<svg xmlns="http://www.w3.org/2000/svg" width="24" height="24" viewBox="0 0 24 24">
  <path fill="currentColor" d="M12.8789 9.83008c.3282-.25225.7992-.19039 1.0518.13769.2523.32823.1904.79923-.1377 1.05173l-2.5879 1.9912h2.3486c1.1871 0 1.7059 1.5.7725 2.2334l-3.5264 2.7705c-.3257.2559-.7978.1988-1.05371-.1269-.25546-.3257-.19861-.797.12696-1.0527l2.95805-2.3243h-2.3614c-1.1934-.0001-1.70759-1.5124-.76169-2.2402zM17.5 1.25c.6904 0 1.25.55964 1.25 1.25v1c0 .51037-.3067.94742-.7451 1.1416l.707 2.1211c.0255.07647.0381.15669.0381.2373v12c0 2.0711-1.6789 3.75-3.75 3.75H9c-2.07107 0-3.75-1.6789-3.75-3.75V7c0-.08061.01259-.16083.03809-.2373l.70605-2.1211C5.55616 4.44724 5.25 4.01005 5.25 3.5v-1c0-.69036.55964-1.25 1.25-1.25zM6.75 19c0 1.2426 1.00736 2.25 2.25 2.25h6c1.2426 0 2.25-1.0074 2.25-2.25V7.75H6.75zm.29102-12.75H16.959l-.5-1.5H7.54102zm-.29102-3h10.5v-.5H6.75z"/>
</svg>
