<svg xmlns="http://www.w3.org/2000/svg" width="24" height="24" viewBox="0 0 24 24">
  <path fill="currentColor" d="M11.8828 10.0576c.3972 0 .6682.2505.7852.3731.1437.1507.2671.3357.3691.5136.2075.362.4066.8301.5781 1.3086.3364.9384.6301 2.0961.6455 2.8116.0154.7174-.1613 1.4072-.5224 1.9384-.3659.5381-.9476.9394-1.6856.9395-.737-.0001-1.3397-.4012-1.7236-.9492-.37898-.5412-.56609-1.243-.53906-1.9727.02515-.6751.23936-1.8036.51076-2.749.1364-.4753.2983-.9438.4765-1.3067.0876-.1781.1969-.367.3311-.5214.0969-.1115.3072-.3227.6289-.3741zm.0635 2.0274c-.0676.1856-.1361.3977-.2022.6279-.2546.8871-.4361 1.888-.455 2.3955-.0168.4523.1036.8147.2627 1.042.1542.2203.3216.2919.4687.292.146-.0001.3143-.0709.4707-.3008.1612-.2372.2795-.6125.2695-1.0771-.0101-.4673-.236-1.4388-.5566-2.3331-.0851-.2373-.1729-.4559-.2578-.6464M14 1.25c.9665 0 1.75.7835 1.75 1.75 0 .69772-.4093 1.29804-1 1.5791V6.75l1.8213.8418c1.328.6129 2.1786 1.94173 2.1787 3.4043V19c0 2.0711-1.6789 3.75-3.75 3.75H9c-2.07107 0-3.75-1.6789-3.75-3.75v-8.0039c.00013-1.46257.85075-2.7914 2.17871-3.4043L9.25 6.75V4.5791c-.59072-.28106-1-.88138-1-1.5791 0-.9665.7835-1.75 1.75-1.75zm-3.25 5.98047c0 .29254-.1699.55905-.4355.68164L8.05664 8.95312C7.26004 9.3209 6.75013 10.1187 6.75 10.9961V19c0 1.2426 1.00736 2.25 2.25 2.25h6c1.2426 0 2.25-1.0074 2.25-2.25v-8.0039c-.0001-.8774-.51-1.6752-1.3066-2.04298l-2.2579-1.04101c-.2656-.12259-.4355-.3891-.4355-.68164V4.75h-2.5zM10 2.75c-.13807 0-.25.11193-.25.25s.11193.25.25.25h4c.1381 0 .25-.11193.25-.25s-.1119-.25-.25-.25z"/>
</svg>
