<svg xmlns="http://www.w3.org/2000/svg" width="24" height="24" viewBox="0 0 24 24">
  <path fill="currentColor" d="M11.8828 10.0576c.3972 0 .6682.2505.7852.3731.1437.1506.2671.3348.3691.5127.2076.362.4065.8308.5781 1.3095.3364.9384.6301 2.0961.6455 2.8116.0154.7174-.1613 1.4072-.5224 1.9384-.3659.5381-.9476.9394-1.6856.9395-.737-.0001-1.3397-.4012-1.7236-.9492-.37898-.5412-.56608-1.243-.53906-1.9727.02515-.6751.23936-1.8036.51076-2.749.1365-.4755.2983-.9447.4765-1.3076.0876-.1781.197-.3662.3311-.5205.0969-.1115.3072-.3227.6289-.3741zm.0635 2.0274c-.0676.1856-.1361.3977-.2022.6279-.2546.8871-.4361 1.888-.455 2.3955-.0167.4523.1036.8147.2627 1.042.1542.2203.3216.2919.4687.292.146-.0001.3143-.0709.4707-.3008.1612-.2372.2795-.6125.2695-1.0771-.0101-.4673-.236-1.4388-.5566-2.3331-.0851-.2373-.1729-.4559-.2578-.6464M9.2002 3.25c2.3394.00006 3.9041 1.09647 4.7012 2.37012.7061-.5847 1.7088-.83 2.6377-.83008 1.4627 0 2.6553.90406 3.0615 2.20996H20.75v10.9717c-.0001.4873-.3697.7513-.5137.8418-.1895.1191-.4199.2075-.6465.2763-.4641.1411-1.0983.2576-1.8369.3526-1.4882.1913-3.5221.3076-5.7529.3076-2.23077 0-4.26467-.1163-5.75293-.3076-.73858-.095-1.37282-.2115-1.83691-.3526-.22654-.0688-.45697-.1572-.64649-.2763-.144-.0905-.51354-.3545-.51367-.8418V7h1.14062c.17725-.67016.52249-1.3856 1.03907-2.00684C6.23948 4.01939 7.49221 3.25 9.2002 3.25M19.25 8.67676c-.4094.17907-.8882.3341-1.4111.46484C16.3161 9.5223 14.252 9.75 12 9.75s-4.31608-.2277-5.83887-.6084C5.6382 9.01086 5.15935 8.85583 4.75 8.67676v8.94334c.02878.0099.0603.0231.09668.0342.34541.105.883.2096 1.5918.3008C7.84564 18.136 9.81249 18.25 12 18.25s4.1544-.114 5.5615-.2949c.7088-.0912 1.2464-.1958 1.5918-.3008.0364-.0111.0679-.0243.0967-.0342zM9.2002 4.75c-1.2085 0-2.05614.52751-2.61719 1.20215-.41201.49548-.656 1.05793-.76465 1.52637.20913.07025.44419.14229.70703.208C7.89801 8.02964 9.83387 8.25 12 8.25c2.1661 0 4.102-.22036 5.4746-.56348.2613-.06531.4949-.13722.7031-.20703-.2059-.712-.8348-1.18945-1.6386-1.18945-1.2795.00012-1.9474.51885-2.0489 1.12988-.0606.36553-.3795.63178-.75.62696-.3706-.00502-.6826-.28031-.7334-.64747-.1429-1.03114-1.2613-2.64933-3.8066-2.64941"/>
</svg>
