<svg xmlns="http://www.w3.org/2000/svg" width="24" height="24" viewBox="0 0 24 24">
  <path fill="currentColor" d="M7.39453 15.2764c.39542-.1228.81642.0988.93945.4941.65343 2.1042 2.74492 3.3757 4.70702 2.7666.3953-.1225.8155.099.9385.4941.1224.3955-.0988.8157-.4941.9385-2.897.8993-5.73199-1.0108-6.58403-3.7539-.12245-.3952.09812-.8164.49316-.9394M15.5537 1.45702c.4137-.02843.703.21653.835.34863.1567.15706.2906.35667.4033.55078.2292.39502.4515.91463.6455 1.44824.1212.33348.2362.68846.3408 1.04102.4711-.35386.9768-.70331 1.4473-.9834.3796-.22601.7657-.4262 1.1045-.5459.167-.05897.3591-.11122.5527-.12304.1788-.01085.4879.00638.752.23339.3086.26618.3556.64661.3652.83399.0115.22608-.0187.46952-.0625.69726-.0891.46281-.2648 1.01451-.4736 1.5586-.4108 1.07007-1.0205 2.28991-1.5332 2.91211-.5022.609-1.1778.9418-1.8077 1.0957.2426 1.4628.3707 3.2586.1436 4.9814-.2604 1.9737-1.0061 3.9834-2.7295 5.1993-.0251.0177-.0518.0326-.0781.0468-.7836 1.4121-2.5401 2.0647-5.2744 1.7832-1.53529-.1582-2.69997-.8163-3.53519-1.7939-.8197-.9598-1.2899-2.188-1.54101-3.4522-.44618-2.2474-.23283-4.7809.13379-6.6347-.62439-.175-1.28899-.5307-1.77051-1.15627-.49149-.63911-1.05994-1.87801-1.43457-2.96093-.19049-.55076-.34733-1.10869-.4209-1.57422-.03616-.22908-.05815-.47367-.03906-.69922.01589-.18697.07591-.56557.39355-.82129.27131-.21801.58038-.22478.75879-.20801.1929.01827.38303.07715.54785.1416.33453.13093.71408.34443 1.08594.58301.46065.2956.95421.66193 1.41309 1.03125.1164-.34908.24359-.69986.37597-1.0293.21177-.52693.45098-1.03859.69336-1.42578.11919-.19036.25892-.38526.4209-.53711.13597-.12744.43439-.36263.84766-.32031.40523.04204.66132.32626.77637.47461.13865.17894.25249.39644.34668.6084.19136.4308.36243.98478.50195 1.55078.27424 1.11269.47144 2.46109.40624 3.26465-.0517.6346-.30206 1.18304-.61523 1.62304.02352.06312.04011.12979.0459.19825l.27442 3.28415c.89601-.1931 1.83881-.2154 2.58891-.1885.3727.0135.7108.0415.9882.0694l.4053-3.43947c.0081-.0681.0263-.13408.0518-.19629-.298-.45007-.5293-1.00706-.5596-1.64257-.0382-.80538.2033-2.14709.5146-3.25.1584-.56091.3481-1.10811.5538-1.53223.1012-.20878.2235-.42141.3681-.5957.1198-.14426.3851-.42072.792-.44922M6.74512 10.791c-.36096 1.741-.57443 4.1487-.16602 6.2061.22093 1.1121.61461 2.0701 1.21192 2.7695.582.6811 1.39077 1.1571 2.54688 1.2764 2.5438.2618 3.4865-.4121 3.8232-1.0401.385-.719.2566-1.8343-.2568-2.9473-.4148-.8982-1.5138-1.5784-2.7031-2.0419-.5679-.2213-1.108-.3747-1.50686-.4727-.19863-.0488-.36204-.0843-.47266-.1064-.05486-.011-.09751-.0195-.125-.0245-.01327-.0023-.02417-.0038-.03027-.0048a.1.1 0 0 0-.00586-.001l-.12403-.0313c-.27637-.0957-.47683-.3472-.50195-.6465l-.27832-3.3115zm8.08398 2.6973c-.0241.2046-.1308.3914-.2959.5146-.1651.1231-.3743.1729-.5771.1377l-.0235-.0049c-.0184-.0029-.0477-.0071-.0849-.0127-.0754-.0111-.1876-.0273-.3282-.0439-.2305-.0273-.5377-.0543-.8886-.0733 1.0342.5146 2.1117 1.2858 2.6357 2.4209.2508.5436.4591 1.1682.5576 1.8106.5051-.8115.8097-1.8176.9561-2.9277.2109-1.5997.0789-3.3105-.1641-4.6983l-1.3974-.4228zM3.13281 4.98241c.06616.29844.1714.65757.30469 1.04297.35923 1.03838.86303 2.0898 1.20313 2.53222.27324.35496.70326.57102 1.12207.66504-.35781-.57471-.63243-1.34816-.51368-2.19433.01897-.13478.04737-.28584.08204-.44825-.53677-.46519-1.18734-.96773-1.7627-1.33691-.15751-.10104-.3044-.1883-.43555-.26074m17.28809-.05469a7.7 7.7 0 0 0-.4443.24512c-.5879.34997-1.2554.83015-1.8077 1.27734.0292.16343.054.31489.0684.4502.0905.84986-.21 1.61329-.5869 2.17578.4217-.07986.8585-.28048 1.1435-.62598.3548-.43045.8932-1.46501 1.2872-2.49121.1461-.38071.2637-.73516.3398-1.03125M7.97559 3.60155c-.13805.25779-.28627.58215-.43262.94629-.39852.99165-.72705 2.12791-.81055 2.7207-.06101.43495.09132.88719.34571 1.25977.12491.18276.26153.3258.37402.41699.02589.02091.05054.03381.06836.0459.01987-.00848.04661-.01668.07617-.03223.12794-.06753.28893-.18184.44824-.33887.32446-.31997.5714-.74488.6084-1.19726.04507-.55607-.10423-1.71224-.36719-2.7793-.09771-.39642-.20373-.7553-.31054-1.04199m7.65141-.2168c-.1164.28291-.2348.63747-.3457 1.03027-.2986 1.05764-.4854 2.20833-.459 2.76563.0217.45315.2541.88616.5673 1.2168.1538.16202.3111.28169.4366.35351.0289.01654.0556.02605.0752.03516.0183-.01158.0434-.02369.0703-.04395.1154-.08732.2557-.22487.3867-.40332.2669-.36388.435-.81015.3887-1.24707-.0636-.59517-.3536-1.74244-.7188-2.74707-.134-.36871-.272-.69774-.4013-.95996"/>
</svg>
