<svg xmlns="http://www.w3.org/2000/svg" width="24" height="24" viewBox="0 0 24 24">
  <path fill="currentColor" d="M19.5 1.25c.6903.00003 1.25.55966 1.25 1.25v19c0 .6903-.5597 1.25-1.25 1.25h-15c-.69035 0-1.25-.5596-1.25-1.25v-19c0-.69036.55964-1.25 1.25-1.25zm-14.75 20h10.7354v-4.7246H4.75zm12.2354 0H19.25V2.75h-2.2646zM4.75 15.0254h1.96289c-.3544-.4739-.73226-1.1421-1.00977-1.7383-.17919-.385-.33926-.7843-.43066-1.1289-.04478-.1689-.08354-.3611-.08691-.5488-.00267-.1488.01149-.5027.28515-.7735.23408-.2311.51867-.2633.66992-.2646.16627-.0014.32738.0319.45899.0683.26784.0743.56842.207.85644.3526.27581.1394.56854.3064.85352.4824.04037-.1648.08299-.3278.12793-.4844.11391-.3968.2509-.7932.40332-1.10348.07458-.15171.17082-.31948.29199-.45899.09833-.11304.34569-.36132.73731-.36132.38488.00021.64248.24199.74508.34961.1295.13574.2374.29877.3243.45019.1773.30929.3449.70559.4882 1.10549.0772.2153.1515.4456.2198.6787.3298-.2147.6813-.4234 1.0117-.5967.3112-.1631.6345-.3114.9199-.3975.14-.0421.3086-.0804.4805-.0839.1513-.003.4566.0183.705.2636.2737.2708.2879.6247.2852.7735-.0034.1877-.0421.3799-.0869.5488-.0914.3446-.2515.7439-.4307 1.1289-.2775.5962-.6553 1.2644-1.0097 1.7383h1.9629V2.75H4.75zm8.5342-2.5928c-.4454.2377-.9347.549-1.3194.8281.0015.0276.0053.0548.0059.0811.0101.4732-.1241.8971-.3125 1.249.2124-.0549.3958-.1532.5273-.292.2514-.2653.6766-.9535 1.0069-1.6631.0322-.0692.0631-.1373.0918-.2031m-6.24123.2031c.33028.7096.75549 1.3978 1.00683 1.6631.06347.067.13902.1231.22168.17-.16594-.3378-.27689-.7341-.26074-1.1709.00245-.0659.00625-.1371.0127-.212-.33707-.2295-.71983-.4627-1.07129-.6504.0283.065.05905.132.09082.2002m2.83789-1.2031c-.20946.7297-.35602 1.5474-.37109 1.9531-.00902.2469.10343.507.28906.7266.06295.0744.12885.1323.18457.1768.0564-.0458.1233-.1059.1875-.1836.187-.2267.3053-.5019.2998-.7637-.0079-.3654-.19-1.1539-.4541-1.8906-.02587-.0722-.05115-.1428-.07715-.21-.01913.0616-.03967.1255-.05859.1914"/>
</svg>
