<svg xmlns="http://www.w3.org/2000/svg" width="24" height="24" viewBox="0 0 24 24">
  <path fill="currentColor" d="M6 11.5H5v-1h1zm3 0H8v-1h1zm4 0h-1v-1h1zm4.6797 0h-1v-1h1zM16 10.2666h-1v-1h1zm-5.7715-.5h-.99998v-1h.99998zm8.2578 0h-1v-1h1zM7 9.5H6v-1h1zm7 0h-1v-1h1zm5.5-3.25c.6904 0 1.25.55964 1.25 1.25v4.8613H22c.4142 0 .75.3358.75.75V18c0 .4142-.3358.75-.75.75H2c-.41421 0-.75-.3358-.75-.75v-4.8887c0-.4142.33579-.75.75-.75h1.25V7.5c0-.69036.55964-1.25 1.25-1.25zm-16.75 11h18.5v-3.3887H2.75zm2-4.8887h14.5V7.75H4.75z"/>
</svg>
