<svg xmlns="http://www.w3.org/2000/svg" width="24" height="24" viewBox="0 0 24 24">
  <path fill="currentColor" d="M14.3604 16.1133h-1v-1h1zm-2.3604-.5h-1v-1h1zm-2-1.5303H9v-1h1zm4 0h-1v-1h1zm2 0h-1v-1h1zm-4-.5h-1v-1h1zm3-1h-1v-1h1zm-5-.1162H9v-1h1zm3-1h-1v-1h1zm-1-5.47754c.388.00012.7074.29509.7461.67285l.0039.07715.0059.07422c.03.18389.1763.44464.5908.82129.4626.42027 1.0782.82966 1.7861 1.33496.6759.4824 1.4163 1.04127 1.9863 1.70317.5791.6724 1.0253 1.5006 1.0254 2.5146 0 3.5635-2.7928 5.9891-6.1445 5.9893-3.35172-.0002-6.14452-2.4258-6.14453-5.9893.00012-1.0138.44546-1.8423 1.02441-2.5146.57014-.662 1.31133-1.22068 1.98731-1.70317.70798-.50534 1.32251-.91467 1.78511-1.33496.474-.43066.5976-.70934.5977-.89551.0002-.41395.336-.74987.75-.75m-.001 2.41894c-.1101.11971-.2235.23305-.3379.33692-.5487.49856-1.2824.98818-1.92282 1.44528-.67251.4801-1.28041.9486-1.72168 1.461-.4321.5017-.66102.996-.66113 1.5361C7.35548 15.8418 9.3936 17.6766 12 17.6768c2.6064-.0002 4.6445-1.835 4.6445-4.4893-.0001-.5402-.2299-1.0343-.6621-1.5361-.4412-.5122-1.0493-.9811-1.7217-1.461-.6403-.45699-1.3742-.94686-1.9228-1.44528a5.36 5.36 0 0 1-.3389-.33692M12 1.5c.3882 0 .7075.29489.7461.67285L12.75 2.25l.0039.10059c.0411.50862.3949 1.07281 1.1563 1.76464.8006.72747 1.8665 1.43753 3.0253 2.26465 1.1267.80421 2.3184 1.70524 3.2266 2.75977.9172 1.06495 1.5879 2.33545 1.5879 3.86915C21.7499 18.6505 17.3432 22.5 12 22.5c-5.34316 0-9.74992-3.8495-9.75-9.4912 0-1.5337.67074-2.8042 1.58789-3.86915.90817-1.05453 2.09986-1.95556 3.22656-2.75977 1.15881-.82712 2.22471-1.53718 3.02535-2.26465C10.9017 3.37748 11.25 2.78487 11.25 2.25c0-.41421.3358-.75.75-.75m0 2.76074c-.2635.34839-.5765.6688-.9023.96485-.8868.80566-2.07103 1.59618-3.16215 2.375-1.12314.80167-2.18169 1.61278-2.96094 2.51761-.77029.8944-1.22461 1.8307-1.22461 2.8906C3.75008 17.7413 7.40215 21 12 21c4.5979 0 8.2499-3.2587 8.25-7.9912 0-1.0599-.4543-1.9962-1.2246-2.8906-.7793-.90483-1.8378-1.71594-2.9609-2.51761-1.0912-.77882-2.2754-1.56934-3.1622-2.375-.3258-.29605-.6388-.61646-.9023-.96485"/>
</svg>
