<svg xmlns="http://www.w3.org/2000/svg" width="24" height="24" viewBox="0 0 24 24">
  <path fill="currentColor" d="M14.71 8.41406c.2978-.2977.7803-.29793 1.0781 0 .2976.298.2976.7811 0 1.0791-.2978.29795-.7803.29774-1.0781 0-.2979-.29805-.2979-.78104 0-1.0791m2.0195-2.0039c.3455.02465.7951.11637 1.1113.43261.3121.31269.413.77272.4502 1.12403.0418.39518.022.85911-.0498 1.35058-.1439.98522-.5136 2.17162-1.1582 3.29492-.0313.0545-.067.1069-.0996.1611.1813.378.1827.8062.1426 1.1328-.0624.5079-.2532 1.0643-.4922 1.585-.4701 1.024-1.2373 2.1392-1.9834 2.6973-.2296.1716-.4923.2961-.7832.331-.2978.0355-.5714-.0301-.8018-.1513-.4245-.2239-.6973-.6317-.8662-.9414-.1812-.3324-.3142-.6887-.4033-.9493-.0048-.0139-.01-.028-.0147-.042-.5259.0865-1.0877.1222-1.6865.0977.0874.7654.0902 1.4843.0186 2.1563-.11808 1.1033-1.40065 1.3634-2.06155.7031l-2.47949-2.4815c-.60908-.6095-.43876-1.7247.43848-2.0166l.18457-.0468c.6522-.1183 1.34698-.1751 2.08203-.1612.03114-.5239.10411-1.0208.21289-1.4912-.25605-.0888-.59372-.2165-.90918-.3887-.30963-.169-.71765-.443-.94141-.8681-.12119-.2306-.18577-.5039-.15039-.8018.03483-.2911.15958-.5545.33106-.7842.55771-.74631 1.67131-1.51399 2.69433-1.98434.52056-.23928 1.07826-.42978 1.58596-.49218.2994-.0367.6842-.03928 1.0371.10058.0854-.05859.171-.11683.2568-.17187 1.051-.6741 2.1439-1.09718 3.0606-1.28614.4563-.094.8939-.13542 1.2744-.10839M8.5332 16.1963c-.53219-.025-1.03614-.0077-1.50977.0459l1.63867 1.6387c.01052-.5201-.02895-1.0811-.1289-1.6846m6.7666-1.4014c-.5903.508-1.2773.939-2.0674 1.2461.0778.2233.171.4639.2822.668.0591.1083.1163.1919.167.2519.0157.0185.03.0332.042.045.0084-.0055.0187-.0117.0293-.0196.465-.3479 1.1-1.2116 1.5176-2.1211.0106-.0232.0191-.0473.0293-.0703m-2.6602-5.32908c-1.5133 1.15548-2.79729 2.96098-2.87691 5.54398 2.88141.2594 4.71011-1.1092 5.79591-2.7803-.7518-.2519-1.3859-.5743-1.8936-1.0664-.4712-.457-.7909-1.0189-1.0254-1.69728m-2.498.2666c-.90882.41778-1.77225 1.05318-2.12012 1.51858-.00786.0105-.01409.0209-.01953.0293.01174.012.02634.0272.04492.0429.05994.0507.14402.1071.25195.1661.20122.1098.43862.202.65918.2793.33836-.7853.78076-1.4774 1.2852-2.08012-.0333.01461-.0678.02842-.1016.04394M16.624 7.9082c-.205-.0146-.4999.00465-.8662.08008-.5279.10882-1.1565.32307-1.8057.65234.1979.71091.4418 1.14067.7559 1.44528.3295.3194.7987.5631 1.5527.792.257-.6307.4205-1.24634.4981-1.77731.0591-.40457.0662-.73864.041-.97657-.0101-.0948-.0254-.15876-.0361-.19922-.0319-.00647-.0778-.01216-.1397-.0166M12.5 1.25c.6045.00017 1.1088.42962 1.2246 1h4.6621c.6608.00039 1.2073.51513 1.2471 1.1748l1.083 18c.0432.7184-.5284 1.325-1.2481 1.3252H4.53124c-.71969-.0002-1.29125-.6067-1.24804-1.3252l1.083-18 .0127-.12207c.09528-.60004.61491-1.05236 1.23438-1.05273h4.66212c.1158-.57041.62-.99983 1.2246-1zm-7.70411 20H19.2041l-1.0527-17.5H13.75v.75c0 .69024-.5598 1.24981-1.25 1.25h-1c-.6902-.00019-1.25-.55976-1.25-1.25v-.75H5.84863zm6.95411-17h.5v-.5h-.5z"/>
</svg>
