<svg xmlns="http://www.w3.org/2000/svg" width="24" height="24" viewBox="0 0 24 24">
  <path fill="currentColor" d="M16.209 4.58595c.4843-.469 1.2695-.4689 1.7539 0 .4843.46903.4843 1.22918 0 1.69824-.4844.46887-1.2696.46899-1.7539 0-.484-.469-.4841-1.22926 0-1.69824m1.2724-2.54297c.7224-.14635 1.3969-.20665 1.9678-.16895.5346.03536 1.1306.16754 1.5283.55274.3935.38122.5442.9766.6016 1.51367.062.58088.0331 1.27904-.083 2.03418-.2327 1.51246-.8281 3.34219-1.8662 5.06938-.0805.1339-.165.2668-.251.3994.3508.5198.3753 1.1815.3047 1.7383-.0936.737-.3836 1.5661-.7617 2.3632-.7484 1.5775-1.9545 3.2566-3.0801 4.0713-.3245.2348-.6764.3923-1.0508.4356-.3815.0439-.7327-.0368-1.0361-.1914-.5699-.2906-.9619-.8367-1.2256-1.3047-.2763-.4905-.4816-1.0246-.624-1.4278-.0555-.157-.1067-.3095-.1455-.4238-1.0901.2098-2.2819.2834-3.58207.1856.23833 1.5945.23492 3.0541.02832 4.3798-.16112 1.0326-1.42701 1.3199-2.1123.6563L1.30566 17.29c-.62844-.6085-.4333-1.6818.42383-1.9892l.17969-.0508c1.30924-.2771 2.7367-.4012 4.27734-.3369.03445-1.1061.19252-2.1358.45313-3.0908-.10018-.0318-.21692-.068-.33594-.1074-.41596-.1379-.96588-.336-1.4707-.6026-.48219-.2547-1.04295-.6321-1.34082-1.17967-.15846-.29155-.24204-.63225-.19629-1.00391.04509-.36514.20886-.70882.45312-1.02539.8444-1.09376 2.5816-2.26244 4.21094-2.9873.82407-.36657 1.68106-.6477 2.44234-.73829.5363-.06373 1.1602-.04651 1.6719.22559.1795-.12343.36-.24262.541-.35644 1.6753-1.05304 3.4176-1.71038 4.8662-2.00391M6.50781 16.4092c-1.36228-.0863-2.6175-.0136-3.76465.1855l4.02735 3.8995c.12601-1.201.07251-2.5426-.20997-4.0323a1.26 1.26 0 0 1-.05273-.0527M18.1641 13.04c-1.2515 1.4051-2.8807 2.5997-4.9356 3.2823.034.1011.0706.2114.1152.3379.1341.3794.307.8169.5196 1.1943.2253.3999.4347.6201.5898.6992.0588.03.1015.0353.1455.0303.0515-.006.1588-.0343.3262-.1553.844-.6108 1.9189-2.046 2.6143-3.5117.3323-.7006.5502-1.3557.625-1.877M13.085 5.51954c-2.8427 1.90813-5.37329 5.09606-5.38285 9.82226.00684.0072.01286.0151.01953.0225 5.42172.6241 8.73552-2.0001 10.56832-5.0254-1.4416-.4115-2.5842-.92256-3.4609-1.74514-.8304-.77932-1.3642-1.77997-1.7441-3.07422m-2.5987.13867c-.53246.07668-1.19587.28589-1.90329.60059-1.51258.67302-2.99124 1.71106-3.61914 2.52441-.12331.15989-.15142.26239-.15723.30957-.00482.04043.0011.08256.0332.14161.08432.15456.31554.35942.72949.57812.39148.20679.84512.37399 1.23731.50389.11442.0379.2161.0691.30957.0986.78464-1.93085 1.99418-3.50888 3.37009-4.75679m8.8594-2.31152c-.3924-.0259-.9214.01391-1.5518.1416-.9848.19956-2.1583.604-3.3525 1.22852.348 1.36549.8035 2.21418 1.4473 2.81836.6702.62877 1.6214 1.06589 3.1074 1.46582.5217-1.1428.8442-2.27567.9932-3.24414.1028-.66889.1196-1.23813.0742-1.66407-.0227-.21266-.0596-.37454-.0996-.4873-.031-.08699-.0565-.12594-.0635-.13574-.0023-.00163-.1351-.09525-.5547-.12305"/>
</svg>
