<svg xmlns="http://www.w3.org/2000/svg" width="24" height="24" viewBox="0 0 24 24">
  <path fill="currentColor" d="M4.3545 18.9707h-1v-1h1zm2-.5h-1v-1h1zm3-1h-1v-1h1zm-5-.1172h-1v-1h1zM16.3828 17h-1v-1h1zm-2.6689-.3965h-1v-1h1zM20 16.5h-1v-1h1zm-12.6455-.1465h-1v-1h1zm4-.25h-1v-1h1zm4.0078-.5h-1v-1h1zM19.2998 15h-1v-1h1zm2.2139-3.1309c.4108-.0525.7863.2386.8388.6495l.6211 4.8486c.0524.4107-.2386.7873-.6494.8398L2.48634 20.7441c-.41066.0526-.78603-.2379-.83887-.6484l-.6211-4.8496c-.05238-.4107.23867-.7863.64942-.8389zM2.60938 15.7998l.43067 3.3613L12.1162 18h-.7451v-1h1v.9668l9.0195-1.1533-.4306-3.3614zm9.37402-7.07617h-1v-1h1zm8.6504 0h-1v-1h1zM5.00001 8.57715h-1v-1h1zM19 8.5h-1v-1h1zm-4-.30664h-1v-1h1zM7.00001 8h-1V7h1zm3.63969-.67285H9.63966v-1h1.00004zm-6.2852-.10352h-1v-1h1zM17 7.07715h-1v-1h1zm3.6338 0h-1v-1h1zM9.00001 7h-1V6h1zM13 6.82715h-1v-1h1zm9-2.85352c.4142.00001.75.33579.75.75V9.6123c-.0002.4141-.3359.75-.75.75H2.00001c-.4141 0-.74982-.3359-.75-.75V4.72363c0-.41421.33578-.75.75-.75zM2.75001 8.8623H21.25V5.47363H2.75001z"/>
</svg>
