<svg xmlns="http://www.w3.org/2000/svg" width="24" height="24" viewBox="0 0 24 24">
  <path fill="currentColor" d="M10.6885 5.87012c.3849.00014.6434.24197.7461.34961.1296.13588.2373.29961.3242.45117.1773.30929.3439.70561.4873 1.10547.2799.78085.5297 1.75529.543 2.36913.0103.4811-.129.9113-.3223 1.2666.2418-.0112.4984-.0113.7432.0049.2843.0188.5841.0582.8388.1289.1254.0348.2725.0862.4092.166.1208.0706.3443.2278.4453.5215l.0313.1104c.0519.2529-.0204.4698-.0703.5869-.0631.1476-.1517.2765-.2315.3769-.1625.2045-.3806.4092-.5937.5879-.4184.3506-.9607.7179-1.3399.8799-.4724.2015-.9404.1268-1.292-.0088V19.25c0 .4141-.336.7498-.75.75-.4142 0-.74997-.3358-.74997-.75v-4.2754c-.41886.0824-.9211.0817-1.37891-.165-.26322-.142-.53016-.3729-.75879-.6016-.23963-.2398-.48238-.5226-.69141-.8066-.20579-.2798-.39788-.5865-.52246-.8741-.06173-.1425-.11914-.3084-.14257-.4814-.0217-.1602-.02796-.4247.13086-.6836l.06445-.0928c.15855-.2014.36928-.3055.51367-.3593.17474-.0651.35807-.0963.51855-.1123.32421-.0325.69725-.0158 1.04883.0205.07665.0079.15468.017.2334.0273-.06671-.2306-.10356-.4802-.09375-.7441.02139-.57354.20058-1.51874.42676-2.30668.11392-.39681.25089-.79325.40332-1.10351.07459-.15176.17076-.31942.29199-.45899.09823-.11296.34553-.3623.73733-.3623M8.34473 12.5381c.16909.2298.36427.4579.55078.6445.197.1971.34534.3094.41797.3486.05985.0321.22484.0592.49707-.0351.12148-.0421.23045-.0981.30955-.1504.0179-.0118.0317-.0237.043-.0322.0021-.0132.007-.0298.0088-.0498.0079-.0882.003-.2001-.0196-.3125-.0513-.2547-.15388-.34-.19332-.3574-.24739-.1089-.86301-.2579-1.47753-.3213a5.57 5.57 0 0 0-.33399-.0245c.05655.0905.1225.1885.19727.2901m4.09277.375c-.2217.0153-.3605.0436-.4131.0615-.0084.0029-.0325.0146-.0683.0527-.0371.0396-.0764.0977-.1094.17-.0155.0339-.0286.0672-.0381.0976.0236.0159.0502.0323.0791.0469.0658.0332.1251.0496.168.0547.0398.0047.0556-.001.0556-.001.154-.0659.4561-.257.7608-.4902-.1494-.003-.2984-.0016-.4346.0078m-1.7383-4.6758c-.2093.72941-.3559 1.54629-.3711 1.9522-.0091.2469.1034.5077.2891.7275.0629.0744.1289.1322.1846.1768.0564-.0459.1232-.1058.1875-.1836.1871-.2268.3054-.5027.2998-.7647-.008-.36558-.1902-1.15315-.4541-1.88964-.0259-.07216-.0512-.14279-.0772-.20996-.0191.06164-.0397.12549-.0586.1914M16.5 1.25c.2696 0 .5185.08633.7227.23145l1.7431.69726.9756-.4873.1572-.06641c.7921-.27233 1.6511.31278 1.6514 1.18359V21.5c0 .6904-.5596 1.25-1.25 1.25h-16c-.69036 0-1.25-.5596-1.25-1.25V2.80859c.0003-.92892.97763-1.53252 1.80859-1.11718l.94043.46972 1.66602-.83203.08008-.03418a.7497.7497 0 0 1 .58984.03418L10 2.16113l1.665-.83203.0801-.03418a.7498.7498 0 0 1 .5899.03418L14 2.16113l1.665-.83203.0791-.03418A.75.75 0 0 1 16 1.25zm-2.165 2.4209a.75.75 0 0 1-.67 0L12 2.83789l-1.665.83301a.7499.7499 0 0 1-.66996 0L8 2.83789l-1.66504.83301a.7498.7498 0 0 1-.66992 0L4.75 3.21289V21.25h11.5V2.75h-.0732zm5 0a.7498.7498 0 0 1-.6133.02539l-.9717-.38867V21.25h2.5V3.21289z"/>
</svg>
