<svg xmlns="http://www.w3.org/2000/svg" width="24" height="24" viewBox="0 0 24 24">
  <path fill="currentColor" d="M12.1074.90624c.2781-.01078.5395.13302.6787.37402l1.4268 2.47266 2.376-1.55762a.7493.7493 0 0 1 .7841-.02344c.2448.14069.3906.40746.376.68945v.00391c-.0002.00231-.0008.00608-.001.00977-.0004.00874-.001.02211-.0019.03808-.0019.03302-.0041.08167-.0078.14258a42 42 0 0 1-.0352.51465c-.0017.02288-.004.04655-.0058.07031l.5644 1.97852 2.9639-1.02735c.2687-.0931.5673-.02608.7705.17285.2029.19911.277.49612.1894.76661l-.0009.0039c-.0008.00221-.0027.00588-.0039.00977-.0027.00825-.0068.02103-.0118.03613-.0103.03141-.0264.07779-.0459.13574a41 41 0 0 1-.1669.48828c-.1425.40795-.343.96582-.5772 1.56153-.2336.59423-.5045 1.23572-.7852 1.80859-.2728.55692-.5829 1.10832-.9082 1.47952-1.1387 1.2986-2.7503 1.7719-4.2929 1.6093l-2.3799 7.9063c-.0007.1492-.0453.2877-.1211.4043l-.1172.3906c-.1195.396-.5384.6208-.9346.502-.0996-.0301-.1884-.0799-.2636-.1426-.0805.0663-.174.1198-.2813.1484-.3998.1067-.8107-.1307-.9179-.5302l-2.32817-8.7159c-1.62628.2555-3.36728-.1929-4.57617-1.5713-.32533-.371-.63627-.9224-.90918-1.47944-.28063-.5729-.5515-1.21529-.78516-1.80957-.23411-.59549-.4347-1.15363-.57715-1.56153a41 41 0 0 1-.16699-.48828c-.01946-.05806-.03554-.10432-.0459-.13574-.00504-.0153-.00901-.02784-.01172-.03613a1 1 0 0 0-.00293-.00879l-.00097-.00391c-.08772-.27064-.01468-.56841.18847-.76758.20324-.19907.5017-.26602.77051-.17285l2.8916 1.00196.52344-2.81739.02637-.09961c.07562-.22724.25658-.40725.48925-.47949.26577-.08225.5552-.01017.75196.18652l.02929.0293c.06461-.09912.15191-.18381.25879-.24414.24784-.13968.55353-.12734.78907.03223l2.53319 1.71679L11.46 1.33202l.0507-.08985c.1319-.1999.3533-.32635.5967-.33593M10.7627 11.4131c-.3825.3194-.81378.584-1.27442.789l2.02542 7.5821v-8.2383c-.2521-.0279-.5037-.0706-.751-.1328m2.251 3.9511.9179-3.0527a5.605 5.605 0 0 1-.9179-.4551zM6.13867 6.72557a.7506.7506 0 0 1-.36035.51074c-.18856.10953-.41597.13271-.62207.06153l-2.24707-.7793c.08209.2212.17064.45763.26562.69922.22585.57441.47936 1.17561.73536 1.69824.26362.53813.50374.93737.69043 1.1504.78327.8928 1.95353 1.2351 3.08496 1.1016-.00434-.3353.21603-.644.55468-.7344.32147-.0855.64738.0536.81934.3183.02998-.0152.06025-.0299.08984-.0459-.67269-.4457-1.24876-1.06386-1.64257-1.86226-.21817-.44251-.37569-1.05547-.49512-1.66407-.12278-.62592-.21816-1.31671-.29004-1.95117-.02682-.23678-.04953-.4682-.07031-.68652l-.09082-.09082zm11.86333.57129c-.1948.06751-.4099.05116-.5928-.04394-.0531-.02768-.1023-.06188-.1465-.10059-.0017.00881-.0022.01858-.0039.02734-.1194.60861-.277 1.22156-.4951 1.66407-.3768.76395-.9234 1.36056-1.5606 1.80176a.6.6 0 0 1 .0137.0039c.2624.0793.447.2909.5088.5391 1.0502.0573 2.1062-.2958 2.831-1.1221.1867-.21298.4268-.6122.6905-1.1504.256-.52268.5095-1.12379.7353-1.69824.0952-.24202.1844-.47865.2666-.7002zm-6.7989-1.94531c-.0942.19662-.27.34325-.4804.40039-.2106.05697-.4366.01964-.6172-.10254L8.13672 4.31542c.02204.23486.04696.48626.07617.74414.06949.6133.15849 1.25999.27051 1.83105.11539.5881.24392 1.03606.36914 1.29004.38915.78856 1.05494 1.34045 1.83786 1.63965.09.01278.1774.04241.2588.08789.1957.05914.3972.10401.6026.13281.0965-.30267.3772-.52246.7119-.52246.2778.0001.5179.15244.6474.37695.0466.02374.093.0499.1348.08399 1.0113-.22837 1.8984-.83903 2.3721-1.79883.1252-.25398.2537-.70193.3691-1.29004.112-.57107.201-1.21774.2705-1.83105.0305-.26898.0555-.53087.0781-.77442l-1.7636 1.15821c-.1724.11279-.3846.15008-.585.10253-.2004-.04772-.3724-.17719-.4756-.35546l-1.1123-1.92676z"/>
</svg>
