<svg xmlns="http://www.w3.org/2000/svg" width="24" height="24" viewBox="0 0 24 24">
  <path fill="currentColor" d="M18.3477 2.19433c.1072-.40001.5189-.63743.9189-.53027.4.10731.6375.51893.5303.91895L17.7422 10.25H21.5c.2083 0 .408.0867.5498.2393.1416.1525.2133.3579.1982.5654-.0848 1.1566-.2421 3.0417-1.0078 4.6435-.3889.8134-.9488 1.5851-1.7607 2.1514-.8184.5707-1.8468.9004-3.1123.9004H14.999c.3764.5009.63 1.099.7168 1.75h.5342c.414.0001.7498.336.75.75-.0002.414-.336.7499-.75.75h-8.5c-.414-.0001-.74977-.336-.75-.75.00023-.414.336-.7499.75-.75h.53418c.08683-.651.34043-1.2491.7168-1.75H7.81445c-1.26541 0-2.29389-.3298-3.1123-.9004-.81178-.5663-1.37186-1.3381-1.76074-2.1514-.7656-1.6018-.92301-3.4869-1.00782-4.6435-.01505-.2076.05661-.4129.19825-.5654.14185-.1526.34148-.2393.5498-.2393H16.1895zM12 18.75c-.9791.0001-1.8099.6268-2.11914 1.5h4.23824c-.3092-.8732-1.14-1.4999-2.1191-1.5m-8.50098-7c.10427 1.0463.30164 2.2677.7959 3.3018.30813.6443.71805 1.186 1.26465 1.5673.5405.3769 1.26255.6309 2.25488.6309h8.55275c.9924 0 1.7144-.2539 2.2549-.6309.5466-.3814.9565-.9229 1.2646-1.5673.4943-1.0341.6917-2.2555.7959-3.3018H17c-.137.0477-.2898.0559-.4404.0156-.0163-.0043-.0322-.0102-.0479-.0156zM13.5303 5.91015c.2928-.29279.7676-.2926 1.0605 0 .7233.72372.7236 1.89756 0 2.6211-.2928.29218-.7678.29231-1.0605 0-.2927-.2927-.2923-.76761 0-1.06055.1377-.13775.1375-.36207 0-.5-.2925-.29281-.2925-.76772 0-1.06055M9.49219 4.58984c.29285-.29259.76771-.29263 1.06051 0 .2926.29284.2926.76773 0 1.06055-.3594.35963-.3595.94315 0 1.30273.2926.29289.2927.76775 0 1.06055-.2928.29265-.76764.29255-1.06051 0-.94533-.94537-.94526-2.47841 0-3.42383m2.07131-2c.2928-.2927.7676-.2925 1.0605 0 .9847.98502.9849 2.58249 0 3.56738-.2928.29247-.7677.2925-1.0605 0-.2927-.29279-.2925-.76766 0-1.06054.3991-.39911.3989-1.04706 0-1.44629-.2925-.29288-.2927-.76777 0-1.06055"/>
</svg>
