<svg xmlns="http://www.w3.org/2000/svg" width="24" height="24" viewBox="0 0 24 24">
  <path fill="currentColor" d="M4.99902 18H4l.02637-1h.99902zM17.1035 2.50098c2.3739.00022 4.2685 1.96567 4.2686 4.35254C21.372 15.3119 14.1292 21.499 6.04395 21.499c-2.37378-.0002-4.26842-1.9657-4.26856-4.3525.0001-2.3868 1.89475-4.3523 4.26856-4.3526 4.11445 0 6.78995-3.01513 6.79005-5.94038.0001-2.38691 1.8956-4.35238 4.2695-4.35254m0 1.5c-1.5124.00016-2.7694 1.26063-2.7695 2.85254-.0001 3.83378-3.4296 7.44038-8.29005 7.44038-1.51234.0003-2.76846 1.2607-2.76856 2.8526.00014 1.5918 1.25624 2.8522 2.76856 2.8525 7.37055 0 13.82805-5.6248 13.82815-13.14548-.0001-1.59187-1.2562-2.85232-2.7686-2.85254"/>
</svg>
