<svg xmlns="http://www.w3.org/2000/svg" width="24" height="24" viewBox="0 0 24 24">
  <path fill="currentColor" d="M10.127 2.06641c.2059-.13605.4664-.16179.6953-.06934l2.2802.92188c.196.07958.343.23689.4161.42676l2.1933.52148c.2403.05725.4375.22947.5264.45996.0885.23054.0587.49075-.0811.69434l-2.7343 3.97558c.0229.07438.0387.15331.0371.23536l-.209 10.49217 4.3847-16.36131c.0705-.2627.2773-.46684.5411-.53321.2637-.06625.5431.01572.7295.21387l2.2021 2.34277c.1599.17042.2306.40466.1943.63184l-.0214.09668L16.7441 21.292c-.1163.3885-.5213.6145-.913.5098l-2.2012-.5899c-.1679-.045-.3052-.1457-.4024-.2744l-.0039.2148c-.0084.4138-.3508.7434-.7646.7354l-2.2803-.0449c-.41313-.0086-.74155-.3506-.73436-.7637l.12109-6.4717-.81347 1.1817.22851 5.2539c.00852.2-.06408.3962-.20019.5429a.7505.7505 0 0 1-.5254.2393l-2.27929.0732c-.39441.0126-.73143-.2831-.77051-.6757l-.02539-.253c-.13956.149-.33468.2369-.54199.2383-.24524.0014-.4768-.117-.61817-.3174l-1.49609-2.125c-.18303-.2602-.18171-.6081.00293-.8672l2.58301-3.6171a.756.756 0 0 1-.02344-.1563L4.63965 3.66309c-.00852-.19974.06347-.39527.19922-.54199.13618-.14676.32627-.23375.52637-.24024l2.27929-.07226c.19859-.00621.39217.06622.53711.20215.14451.1359.22984.32418.23633.52246l.1875 5.85254 1.08789-1.52246.09766-5.18555c.00478-.24641.13045-.47528.33598-.61133M6.5 19.0645l.12988 1.3125.81934-.0264-.10937-2.5068zm4.5879-6.6709c.0106.0527.0176.108.0166.164l-.1455 7.7998.7803.0157.1806-9.1915zm3.6543 7.5634.7744.208 4.2031-14.06539-.9834-1.04687zM4.05664 18.3369l.56934.8086L14.3008 5.0752l-.6592-.1582zM6.17188 4.35645l.33886 7.96285.67383-.9433c-.01153-.0483-.01879-.0989-.02051-.1504l-.22168-6.89454zm5.06252 1.34863.8183-1.14551c.0001-.00309 0-.00666 0-.00976l.0078-.4336-.789-.31933z"/>
</svg>
