<svg xmlns="http://www.w3.org/2000/svg" width="24" height="24" viewBox="0 0 24 24">
  <path fill="currentColor" d="M14.3848 4.03711c.3672-.19131.8202-.04873 1.0117.31836.1912.36712.0485.82015-.3184 1.01172-.6229.32484-.8356.8347-.8974 1.32031-.029.22788-.0219.44198-.0049.6084.0441.07261.0848.1498.1142.23535.5884 1.7161.6637 4.36435-1.08 7.38475-1.0676 1.849-2.8645 3.3254-4.3223 4.2285-.73001.4522-1.41655.7856-1.92969.9532-.22845.0745-.53167.1552-.81055.124-.13744-.0154-.44157-.0778-.64355-.3692-.21615-.312-.14892-.6387-.09278-.7968l.05567-.1338c.06846-.1517.17281-.3528.28515-.5615.16439-.3055.38626-.7028.64649-1.1631.52113-.9219 1.20803-2.1108 1.93261-3.3555 1.44977-2.4905 3.05805-5.21483 3.81545-6.49512.128-.21624.3104-.37899.5185-.48145.004-.11692.0122-.23998.0284-.36718.1038-.81636.5089-1.84454 1.6914-2.46094m-1.3252 4.71094c-.8394 1.42065-2.194 3.72085-3.43265 5.84865-.72346 1.2428-1.40649 2.4244-1.92285 3.3379-.0467.0826-.09099.1643-.13476.2422.16725-.0921.34502-.1945.52929-.3086 1.34476-.8332 2.91567-2.1488 3.81247-3.7022 1.2732-2.2054 1.3979-4.0965 1.1485-5.41795M16.5 1.25c.2696 0 .5185.08633.7227.23145l1.7431.69726.9756-.4873.1572-.06641c.7921-.27233 1.6511.31278 1.6514 1.18359V21.5c0 .6904-.5596 1.25-1.25 1.25h-16c-.69036 0-1.25-.5596-1.25-1.25V2.80859c.0003-.92892.97763-1.53252 1.80859-1.11718l.94043.46972 1.66602-.83203.08008-.03418a.7497.7497 0 0 1 .58984.03418L10 2.16113l1.665-.83203.0801-.03418a.7498.7498 0 0 1 .5899.03418L14 2.16113l1.665-.83203.0791-.03418A.75.75 0 0 1 16 1.25zm-2.165 2.4209a.75.75 0 0 1-.67 0L12 2.83789l-1.665.83301a.7499.7499 0 0 1-.66996 0L8 2.83789l-1.66504.83301a.7498.7498 0 0 1-.66992 0L4.75 3.21289V21.25h11.5V2.75h-.0732zm5 0a.7498.7498 0 0 1-.6133.02539l-.9717-.38867V21.25h2.5V3.21289z"/>
</svg>
