<svg xmlns="http://www.w3.org/2000/svg" width="24" height="24" viewBox="0 0 24 24">
  <path fill="currentColor" d="M12.293 13.6728c.4036.0001.6823.2545.8066.3848.151.1584.2818.3544.3916.5459.2233.3896.4387.8963.625 1.416.1359.3791.2644.7908.374 1.1973.5003-.3384 1.057-.6804 1.5752-.9522.4044-.212.8148-.3987 1.17-.5058.1747-.0527.3737-.0976.5703-.1016.1538-.0031.4222.016.6611.1934l.0996.0859c.2869.2839.3069.6618.3037.8418-.004.2188-.0499.4498-.1064.6631-.1152.434-.3178.9457-.5508 1.4463-.349.7498-.814 1.5754-1.249 2.1728H20.25c.4141.0002.75.3359.75.75-.0004.4139-.3361.7499-.75.75H4.18066c-.41397 0-.74961-.3361-.75-.75 0-.4142.33579-.75.75-.75h4.08496c-.43498-.5974-.90004-1.4231-1.24902-2.1728-.23295-.5005-.43565-1.0123-.55078-1.4463-.05656-.2133-.10242-.4443-.10644-.6631-.00323-.18.01664-.5579.30371-.8418l.09375-.081c.22436-.1694.47494-.197.62695-.1983.18825-.0015.37621.036.53906.0811.33097.0918.7113.2574 1.08496.4463.44658.2257.92793.5101 1.38179.8017.0727-.3215.1547-.6442.2422-.9492.1484-.5167.3248-1.0236.5166-1.4141.0943-.1916.21-.3907.3506-.5527.1029-.1184.3192-.3335.6465-.3857zm4.9336 3.7061c-.1461.065-.3082.144-.4825.2354-.6568.3444-1.3928.8187-1.9423 1.2275.0062.0768.0131.1503.0146.2197.0165.7727-.2809 1.446-.6416 1.9444.4379-.0033.9817-.15 1.3301-.5176.3577-.3778.9295-1.3126 1.3672-2.253.1448-.3112.2659-.6038.3545-.8564m-9.22367.001c.08852.2524.20985.5446.35449.8554.43769.9404 1.00947 1.8753 1.36719 2.253.25851.2726.62799.4264.99119.4873-.3677-.5039-.6653-1.183-.6367-1.958.0046-.1222.0159-.2585.0313-.4053-.54429-.3802-1.19384-.7823-1.76177-1.0693-.12322-.0623-.23945-.1159-.3457-.1631m4.35157-1.7383c-.0927.2375-.1887.5225-.2793.8379-.2782.9692-.4762 2.0654-.4971 2.626-.0147.4015.1668.8018.4375 1.122.1327.1568.2711.2744.3819.3467.0162.0106.0331.017.0459.0244.0129-.0076.0293-.0143.0459-.0254.1101-.0734.2466-.1932.3789-.3535.2701-.3272.457-.7417.4482-1.1582-.0113-.5202-.2623-1.5872-.6123-2.5635-.1155-.3223-.2352-.6149-.3496-.8564m3.8476-14.50977c1.3153-.75935 2.9975-.30845 3.7569 1.00684.3943.68328.4593 1.46469.249 2.16504.7119.16809 1.3564.61539 1.751 1.29882.7591 1.31525.3083 2.99749-1.0069 3.75684-1.2487.72073-2.8264.34943-3.6328-.81543-.1869.9428-.6573 1.95816-1.5937 2.89456-1.003 1.0028-2.4719 1.522-3.5908 1.7431-.5662.1119-1.0974.1594-1.4942.1368-.1771-.0102-.4212-.0374-.6318-.1387-.10148-.0489-.31129-.1711-.42775-.4287-.14054-.3115-.05395-.6057.05762-.7842l.06738-.0947c.07709-.1004.17912-.2122.26465-.3047.1386-.15.3223-.3413.5352-.5596.4264-.4374.9867-.9989 1.583-1.59081.3397-.33721.6928-.68443 1.04-1.02637-.4696.12966-.9464.26309-1.4082.38867-.8105.22042-1.577.42456-2.16894.5752-.29534.07515-.55285.13854-.75196.18359-.12303.02784-.27183.06053-.39746.07715l-.11523.01074c-.21027.00737-.50854-.06469-.70801-.34179-.16485-.22946-.16561-.47243-.15722-.58497.01749-.23316.11647-.45869.19628-.61718.17878-.3548.48457-.79047.86426-1.22461.75098-.85853 1.93548-1.87205 3.30568-2.23926 1.2785-.34256 2.393-.24279 3.3027.06641-.6049-1.2806-.137-2.83188 1.1113-3.55274m-3.0566 9.35057c-.4367.4334-.8512.8479-1.206 1.207.9628-.2037 2.0465-.6325 2.7255-1.3115.8841-.88403 1.2-1.82496 1.2481-2.61814-.7602.7424-1.814 1.77612-2.7676 2.72264m7.5147-4.12987c-.3452-.59784-1.1102-.80314-1.7081-.458-.5978.34518-.8022 1.11015-.457 1.708.3453.59755 1.1093.80212 1.707.45704.5977-.34512.8029-1.10924.4581-1.70704m-5.5928-.05664c-.7109-.35497-1.683-.55201-2.8906-.22851-.9277.24856-1.8411.97298-2.49907 1.70508.48837-.12771 1.05477-.27996 1.64847-.44141 1.2964-.35256 2.7182-.74803 3.7412-1.03516m3.5928-3.40722c-.3452-.59785-1.1102-.80315-1.7081-.45801-.5977.34521-.8021 1.11019-.457 1.70801.3453.59738 1.1094.802 1.707.45703.5977-.34508.8028-1.10927.4581-1.70703"/>
</svg>
