<svg xmlns="http://www.w3.org/2000/svg" width="24" height="24" viewBox="0 0 24 24">
  <path fill="currentColor" d="M11.6602 1.87793c.4997.00028.8917.31239 1.1396.56543.2729.27859.5304.6495.7695 1.05566.1291.21934.2578.45892.3858.71387.4304-.11449.8374.02169 1.1318.17285.3208.16481.6418.41413.9473.69629.6149.56805 1.278 1.37191 1.9043 2.23731 1.247 1.72331 2.4511 3.83746 2.915 5.13476.9693 2.7113-.1233 5.6835-2.8017 6.499-1.2715.3869-2.5165.1536-3.542-.498-.0325.1247-.0939.244-.1914.3418-.5301.53-.5301 1.3898 0 1.9199.2924.2928.2923.7677 0 1.0605-.2928.2928-.7677.2926-1.0606 0-.6916-.6916-.9548-1.6497-.789-2.5439-.1421.0158-.287.0263-.4346.0264-.0103 0-.021-.0019-.0313-.002.2927 1.0111.0409 2.1464-.7558 2.9434-.2929.2927-.7677.2928-1.0606 0-.2745-.2747-.2912-.7094-.0508-1.0039l.1534-.17c.3629-.4456.4278-1.0525.1963-1.5566-.213.7993-.88009 1.4374-1.75005 1.5684-.40922.0611-.79079-.2208-.85254-.6299-.06139-.4094.22056-.7918.62989-.8535.34987-.0528.59144-.3796.53906-.7295-.00871-.0583-.00945-.1166-.00488-.1729-.95405.4957-2.06456.6432-3.19629.2988-2.67833-.8155-3.77182-3.7868-2.80274-6.498.46393-1.2973 1.66993-3.41142 2.91699-5.13476.62612-.8652 1.28851-1.66934 1.90332-2.23731.30538-.28202.62661-.53154.94727-.69629.20384-.10463.46198-.20148.74414-.21386.09905-.23202.20072-.45058.30273-.65235.2056-.40658.4342-.78104.6865-1.06348.2308-.25824.6045-.57804 1.1114-.57812m.0166 1.59082c-.1313.14708-.2921.39384-.4717.74902-.3569.7058-.7221 1.70655-1.0537 2.82813-.66493 2.24919-1.15324 4.8303-1.20706 6.2148-.05145 1.3271.30336 2.4785.87695 3.2764.56851.7904 1.33641 1.2227 2.18071 1.2227.8428-.0003 1.5955-.4315 2.1552-1.2315.565-.808.9116-1.9729.8828-3.3125-.029-1.3431-.6582-3.89459-1.4882-6.15135-.4114-1.11845-.8555-2.11928-1.2715-2.82617-.2097-.35615-.3951-.60591-.543-.75683a1.5 1.5 0 0 0-.0371-.03614c-.0069.00728-.0158.01498-.0234.02344M8.80957 6.27637c-.4955.47278-1.06546 1.15789-1.63672 1.94726-1.20726 1.66832-2.32329 3.65537-2.7207 4.76657-.75244 2.1053.15787 4.0173 1.80371 4.5186.77841.2369 1.55691.1216 2.23926-.2822-.72595-1.0942-1.10931-2.5226-1.04981-4.0567.06059-1.5567.5842-4.26869 1.2666-6.57713.03138-.10609.06545-.21151.09766-.3164m6.15043.29687c.8464 2.30127 1.5455 5.04436 1.58 6.64256.033 1.5376-.3461 2.9664-1.0595 4.0547.6642.3689 1.4149.4664 2.165.2383 1.6459-.5012 2.5581-2.4133 1.8057-4.5186-.3973-1.1112-1.5143-3.09808-2.7217-4.76657-.6008-.83022-1.199-1.54571-1.7119-2.01953a4.7 4.7 0 0 0-.2979-.25293c.0806.20464.1629.4119.2403.62207"/>
</svg>
