<svg xmlns="http://www.w3.org/2000/svg" width="24" height="24" viewBox="0 0 24 24">
  <path fill="currentColor" d="M6.41699 8.39941c.98691-.98688 2.59388-1.0233 3.58791-.02929 1.3279 1.32748 3.1095 1.17893 3.9873.30176.9868-.98682 2.5929-1.02402 3.5869-.03028.9938.99404.9566 2.6001-.0303 3.5869-.7394.7393-1.5857 1.2856-2.4863 1.6485-.3409 1.0703.08 2.53 1.5059 3.3535 1.217.7028 1.5977 2.264.9003 3.4726-.6979 1.2085-2.2406 1.6599-3.458.9571-.7712-.4453-1.4514-1.0046-2.0273-1.6436-.576.639-1.257 1.1983-2.02832 1.6436-1.21728.7023-2.75831.2513-3.45606-.9571-.69767-1.2086-.31775-2.7697.89942-3.4726 1.51796-.8766 1.89599-2.4687 1.43457-3.5508-.89185-.4063-1.7253-.9725-2.44532-1.6924-.99388-.9939-.95724-2.60094.0293-3.58789m2.52637 1.03125c-.38488-.38465-1.04112-.39537-1.46582.0293-.42438.42478-.41404 1.08204-.0293 1.46684a6.86 6.86 0 0 0 2.22266 1.4853l.11133.0567c.10501.0657.19315.1566.25487.2656 1.0515 1.8604.3729 4.4901-1.88866 5.7959-.47097.2723-.65083.9038-.35059 1.4238.30044.5197.93705.6791 1.4082.4072.87335-.5042 1.60695-1.185 2.16505-1.9726.1405-.1983.3692-.3163.6123-.3164.2431 0 .4717.1181.6123.3164.5581.7876 1.2917 1.4684 2.165 1.9726.4712.272 1.1077.1124 1.4082-.4072.3004-.5202.1208-1.1527-.3505-1.4248-2.1681-1.252-2.8775-3.7125-2.0127-5.5537.0857-.1822.2415-.3233.4316-.3897.8152-.2839 1.5842-.7513 2.251-1.4179.4247-.4247.4149-1.081.0303-1.46585-.3849-.38459-1.0412-.3944-1.4659.03027-1.5202 1.51958-4.2538 1.55358-6.10934-.30176M12 1.83984c1.7948.0001 3.25 1.45514 3.25 3.25-.0001 1.79475-1.4552 3.2499-3.25 3.25-1.7948-.0001-3.24987-1.45525-3.25-3.25 0-1.79486 1.4552-3.24989 3.25-3.25m0 1.5c-.9664.00011-1.75.78357-1.75 1.75.0001.96633.7837 1.7499 1.75 1.75.9663-.0001 1.7499-.78367 1.75-1.75 0-.96643-.7836-1.7499-1.75-1.75"/>
</svg>
