<svg xmlns="http://www.w3.org/2000/svg" width="24" height="24" viewBox="0 0 24 24">
  <path fill="currentColor" d="M11.9893 1.26463c1.3491-.08748 2.3154.24246 3.0332.86231.509.43972.8526.99709 1.1211 1.50586l.247.48633.0166.03515c.5359 1.2306.984 1.72496 1.3125 1.93457.3005.19158.5959.21078 1.0948.17969.0562-.00351.1133-.00034.1689.00879.3794.06237.9965.14866 1.4844.50488.5669.41414.8338 1.07082.834 1.94434 0 .70719-.1376 1.31105-.4356 1.80175-.3033.4992-.7349.8188-1.206 1.0166-.879.369-1.9861.3385-2.837.3252-.1915-.003-.3749-.0059-.5537-.0059-.4468.0001-.7011.1421-.8652.3155-.0178.0188-.0358.0386-.0527.0595 1.3877.2755 2.4334 1.5011 2.4336 2.9698-.0002.8203-.3269 1.5657-.8575 2.1123.0854.0865.1746.1748.2608.2666.3003.3198.6204.6968.8525 1.1191.2353.4284.4014.944.334 1.5186-.0681.5797-.3621 1.1169-.8545 1.6093-.6071.6071-1.4091.769-2.1611.7266-.7476-.0423-1.5288-.2876-2.2344-.5967-.7124-.3121-1.3901-.7084-1.9424-1.0918-.5363-.3722-1.0112-.7708-1.27342-1.1035-1.50345-1.9078-2.01892-3.4049-2.32227-4.289-.05229-.1525-.09277-.2722-.13086-.3721-.00592-.0155-.01322-.0296-.01855-.043-.79942-.001-1.79576-.0198-2.61328-.3349-.47395-.1828-.92881-.4775-1.25879-.9522-.33022-.4752-.48926-1.0646-.48926-1.7539.00007-.4615.09999-.8801.32813-1.2314.23012-.3542.54913-.5764.87597-.7129.60069-.25079 1.33865-.24983 1.83887-.25687.35792-.00505.62361-.01059.83008-.0459.09564-.01639.14509-.0355.16699-.04492.10368-.15833.18736-.45239.20606-.92969.01888-.48375-.02922-1.02518-.07911-1.57422-.0345-.37973-.07127-.78122-.07128-1.11914.00012-2.66666 2.1542-4.82979 4.81742-4.84473m.0791 1.49707a.77.77 0 0 1-.0518.00196c-1.8473.00021-3.3446 1.49835-3.34472 3.3457.00001.2552.02886.58098.06542.9834.00613.06743.00933.13722.01563.20801 1.10678-.52062 2.46617-.3257 3.38087.58886.2928.29291.2928.7677 0 1.06055-.2747.27448-.7094.29121-1.0039.05078l-.1699-.15332c-.5443-.44348-1.32983-.44361-1.87406 0l-.16992.15332c-.03383.02761-.07036.05047-.10743.07129-.03927.52859-.15879 1.11395-.50195 1.57815-.30547.413-.77173.5485-1.10449.6054-.34517.0591-.73815.0629-1.06153.0674-.58989.0083-1.00377.0254-1.28222.1416-.11219.0469-.1648.0963-.19629.1446-.03335.0513-.08587.1676-.08594.415 0 .4565.10298.7279.22071.8975.11811.1699.29831.3054.56738.4091.5864.226 1.39335.2364 2.30859.2364h.03027c.12009 0 .22799.0196.3252.0507.52988-1.0125 1.61897-1.6731 2.83298-1.5966.4132.0262.7271.3817.7012.7949-.0245.3875-.3389.6876-.7187.7021l-.2295-.0019c-.7015.0271-1.29014.5458-1.40532 1.2383l-.02636.2275c-.01517.0917-.04798.1771-.09278.2539.28874.8245.77286 2.0498 1.99806 3.6045.1225.1555.4493.4538.9492.8008.4838.3358 1.0778.6812 1.6895.9492.6186.271 1.2157.4443 1.7168.4727.4964.028.8144-.087 1.0166-.2891.3165-.3166.4062-.5576.4257-.7236.0201-.1712-.0214-.3703-.1591-.6211-.1411-.2567-.3597-.5257-.6319-.8155-.1339-.1426-.2743-.2832-.4179-.4267-.1407-.1405-.2881-.2879-.4239-.4307-.0728-.0766-.1272-.1668-.1621-.2637-.0891-.0423-.1718-.1011-.2402-.1787l-.1426-.1796c-.4646-.5267-1.2401-.6546-1.8496-.3057l-.1924.123c-.3299.1891-.7563.102-.9824-.2138-.241-.3368-.1628-.8058.1738-1.0469 1.2857-.9202 3.0529-.6731 4.042.5312.2384-.27.3856-.6238.3858-1.0136-.0002-.8431-.6834-1.5274-1.5264-1.5274-.1118 0-.2205.0119-.3242.0342a.7494.7494 0 0 1-.6719-.1875c-.1795-.1694-.2644-.4162-.2266-.6602.0941-.6065.32-1.235.7784-1.7197.1567-.1657.3353-.3046.5312-.4199-.141-.5839-.6273-1.03796-1.2383-1.12207l-.2285-.01953c-.3766-.05162-.6611-.38142-.6475-.76953.0148-.41371.3627-.73705.7764-.72266 1.3649.04801 2.4802 1.00582 2.791 2.26949.183.0004.3681.0041.5479.0069.9523.0148 1.704.0127 2.2324-.209.2323-.0976.3932-.22843.5049-.41212.1168-.19229.2178-.50525.2178-1.02343-.0001-.55762-.1535-.68571-.2188-.7334-.1371-.09994-.3492-.15325-.7734-.22461-.5342.02897-1.2099.02285-1.8965-.41504-.4803-.30643-.9104-.78878-1.3213-1.48926-.1817-.01937-.3559-.10422-.4834-.24902l-.1426-.17871c-.4644-.52658-1.2392-.65526-1.8486-.30664l-.1934.12402c-.3298.18881-.7554.10085-.9814-.21484-.241-.33668-.1637-.80474.1728-1.0459.6421-.4597 1.4043-.62563 2.1299-.5293-.0641-.07143-.1311-.13896-.2031-.20117-.3693-.31894-.9303-.57204-1.9736-.50098"/>
</svg>
