<svg xmlns="http://www.w3.org/2000/svg" width="24" height="24" viewBox="0 0 24 24">
  <path fill="currentColor" d="M17.2148 8.25c.9173.00011 1.6609.74387 1.6612 1.66113 0 .05424-.0027.10827-.0078.16117h.0371c1.1733.0001 2.1248.9517 2.125 2.125 0 .3176-.0723.618-.1973.8886.7939.4027 1.3386 1.2259 1.3389 2.1768-.0001.9512-.5457 1.7729-1.3399 2.1758.1256.2711.1982.5722.1983.8906-.0002 1.1733-.9517 2.1249-2.125 2.125h-.0371c.005.0528.0087.107.0088.1611-.0003.9171-.7442 1.6608-1.6612 1.6612h-.415c-.9172-.0003-1.6609-.744-1.6612-1.6612a1.72 1.72 0 0 1 .0079-.1611h-.0371c-1.1732-.0002-2.1249-.9518-2.125-2.125 0-.3182.0718-.6196.1972-.8906-.7934-.4031-1.3388-1.225-1.3388-2.1758.0002-.9504.5447-1.7729 1.3378-2.1758-.1251-.2707-.1962-.5719-.1962-.8896.0002-1.1732.9518-2.1248 2.125-2.125h.0371c-.0051-.0529-.0088-.10694-.0088-.16117.0002-.917.7442-1.66059 1.6611-1.66113zm-.414 12.2041c-.0888.0003-.1609.0724-.1612.1611.0003.0888.0725.1609.1612.1612h.415c.0886-.0004.1609-.0725.1612-.1612-.0003-.0886-.0726-.1607-.1612-.1611zm-1.6904-2.75c-.3448.0002-.6249.2802-.625.625.0001.3448.2802.6248.625.625h3.7949c.3448-.0001.6248-.2801.625-.625-.0002-.3449-.2801-.6249-.625-.625zm-.8262-3.3818c-.519.0004-.9401.4214-.9404.9404 0 .5193.4212.9409.9404.9414h5.4463c.5196 0 .9413-.4218.9414-.9414-.0004-.5193-.422-.9404-.9414-.9404zm.8262-2.75c-.3448.0002-.6248.2802-.625.625 0 .3448.2802.6247.625.625h3.7949c.3449-.0002.6249-.2801.625-.625-.0002-.3449-.2802-.6249-.625-.625zM16.7998 9.75c-.0885.00053-.1609.07255-.1611.16113.0001.08868.0725.16057.1611.16117h.415c.089-.0001.1611-.0722.1612-.16117-.0003-.08884-.0723-.16102-.1612-.16113zM6.79297 1.72363c.91736.00011 1.661.74378 1.66113 1.66114a1.69 1.69 0 0 1-.00781.16113h.03711c1.17322.00019 2.1248.95178 2.125 2.125-.0001.31806-.0729.61874-.1982.88965.794.40265 1.3395 1.22478 1.3398 2.17578-.0001.95112-.5458 1.77287-1.3398 2.17577.1255.2711.1982.5724.1982.8906-.0003 1.1732-.95178 2.1249-2.125 2.125h-.03711c.00505.0527.00779.1062.00781.1602 0 .9174-.74374 1.661-1.66113 1.6611h-.41504c-.91713-.0005-1.66113-.7439-1.66113-1.6611a1.69 1.69 0 0 1 .00781-.1602h-.03613c-1.1732-.0001-2.12472-.9518-2.125-2.125.00003-.3181.07192-.6196.19726-.8906-.79351-.403-1.33874-1.22495-1.33886-2.17577.00027-.95062.54454-1.77393 1.33789-2.17676-.12491-.27052-.19624-.57119-.19629-.88867.00021-1.17316.95185-2.12472 2.125-2.125h.03711c-.00511-.05296-.00879-.10684-.00879-.16113.00013-.91714.74407-1.66067 1.66113-1.66114zM6.37305 13.9277c-.08619.0031-.15586.0734-.15625.1602 0 .0888.07243.1607.16113.1611h.41504c.08896-.0001.16113-.0721.16113-.1611-.0004-.0872-.06961-.1576-.15625-.1602zm-1.68457-2.75c-.34486.0002-.62487.2802-.625.625.00028.3448.28023.6249.625.625h1.6709c.00609 0 .01244-.0009.01855-.0009h.41504c.00597 0 .01259.0008.01855.0009H8.4834c.3448-.0001.62472-.2802.625-.625-.00013-.3449-.28011-.6248-.625-.625zM3.8623 7.7959c-.51907.0004-.94004.42136-.94042.94043.00018.51925.42123.94101.94042.9414h5.44629c.51954 0 .94121-.42191.94141-.9414-.0004-.51932-.422-.94043-.94141-.94043zm.82618-2.75c-.34472.00028-.62479.28026-.625.625.00018.34476.28026.62472.625.625H8.4834c.34482-.00019.62482-.28018.625-.625-.00022-.34479-.28021-.62481-.625-.625zm1.68945-1.82227c-.08863.00046-.161.07243-.16113.16114.00011.08872.07249.16067.16113.16113h.41504c.08894-.00011.16102-.07219.16113-.16113-.00013-.08893-.0722-.16103-.16113-.16114z"/>
</svg>
