<svg xmlns="http://www.w3.org/2000/svg" width="24" height="24" viewBox="0 0 24 24">
  <path fill="currentColor" d="M13.9375 16.125c1.0697 0 1.9371.42 1.9375.9375 0 .5176-.8675.9375-1.9375.9375C12.8676 17.9999 12 17.5801 12 17.0625c.0004-.5174.8679-.9374 1.9375-.9375M10.75 10.6025c1.2425 0 2.2498.6717 2.25 1.5 0 .8284-1.0074 1.5-2.25 1.5-.2728 0-.5344-.0324-.77637-.0918-.13225.6933-.74188 1.2168-1.47363 1.2168-.82827-.0002-1.5-.6717-1.5-1.5.00035-.828.67194-1.4998 1.5-1.5.02345 0 .04712.0009.07031.002.24877-.6479 1.13042-1.1269 2.17969-1.127m3.6787-6.84958c3.0372-.29045 4.9279.09799 6.0361 1.19433 1.0036.99314 1.1786 2.4092 1.2627 3.68165.1053.18309.1669.39481.167.62109V20.206c0 .6903-.5597 1.2499-1.25 1.25H3.30273c-.69033 0-1.24996-.5596-1.25-1.25V9.24999c.00026-.69014.55981-1.25 1.25-1.25h.19532L14.2266 3.80175c.0646-.02528.133-.04219.2021-.04883M3.55273 19.956h3.00391c-.29681-.2198-.51016-.546-.58203-.9228-.24207.0593-1.12451.0918-1.39746.0918-.44395 0-.77752-.0873-1.02442-.2354zm0-10.36714v7.01464c.41064-.2934.99512-.4784 1.64454-.4785 1.04944 0 1.93188.48 2.18066 1.1279.02299-.001.04609-.0019.06934-.0019.82835 0 1.49988.6716 1.5 1.5-.00002.4945-.2402.9318-.60938 1.205H20.3945v-3.831c-.7316-.0002-1.3404-.5237-1.4726-1.2168-.2421.0593-1.1245.0918-1.3975.0918-1.2424-.0001-1.6298-.6717-1.6299-1.5.0002-.8283 1.0077-1.4999 2.25-1.5 1.0495 0 1.9319.479 2.1807 1.1269.023-.001.0461-.0019.0693-.0019V9.49999H3.78027zm15.85747-3.5752c-.5935-.58695-1.8481-1.03984-4.7383-.77637l-7.0596 2.7627h12.5518c-.105-.89286-.2977-1.53465-.7539-1.98633"/>
</svg>
