<svg xmlns="http://www.w3.org/2000/svg" width="24" height="24" viewBox="0 0 24 24">
  <path fill="currentColor" d="M11 7.30665h-1v-1h1zm-3-1H7v-1h1zm10.3477-4.1123c.1072-.40002.5188-.63747.9189-.53028.4.10729.6375.51891.5303.91895L19.125 5.0879c1.477.42625 2.598 1.58192 2.624 3.16211H22c.4141 0 .7498.33598.75.75-.0002 5.00209-3.417 9.20639-8.0439 10.40629.6457.6735 1.0438 1.5869 1.0439 2.5937-.0002.414-.3359.75-.75.75H9c-.41407 0-.74977-.336-.75-.75.00011-1.0065.39746-1.9202 1.04297-2.5937C4.66652 18.2061 1.25019 14.0018 1.25 9.00001c.00023-.41402.33593-.75.75-.75h.25195c.03808-1.92679 2.01983-5 6.14844-5 3.00931.00011 5.02861 1.24186 5.98731 2.69336.2236-.19215.4759-.35376.7432-.48535.7154-.35215 1.5881-.52223 2.4882-.5459zM12 19.75c-.9792 0-1.8099.6268-2.11914 1.5h4.23824c-.3092-.8732-1.1399-1.5-2.1191-1.5M2.7832 9.75001C3.16529 14.5076 7.14409 18.25 12 18.25s8.8347-3.7424 9.2168-8.49999zm5.61719-5c-3.27539 0-4.60301 2.37138-4.64648 3.5H8v-.94336h1v.94336h4.9824c-.243-.0928-.4279-.3093-.4726-.57813-.175-1.05729-1.6232-2.92173-5.10941-2.92187M17.21 6.43751c-.5583.05471-1.0433.18225-1.417.36621-.5001.24629-.7412.55716-.8076.8916-.0519.26036-.2352.46562-.4717.55469H16v-.94336h.9775zm1.0683 1.8125h1.9688c-.0262-.74409-.5688-1.44272-1.5088-1.71777z"/>
</svg>
