<svg xmlns="http://www.w3.org/2000/svg" width="24" height="24" viewBox="0 0 24 24">
  <path fill="currentColor" d="m8.42676 19.2891-.70703.707-.70703-.707.70703-.7071zM7.2832 18.1465l-.70703.707-.70703-.707.70703-.707zm2.2041-.625-.70703.707-.70703-.707.70703-.707zm-.79003-2.2041-.70704.708-.70703-.708.70703-.707zm2.20413-.624-.7071.707-.707-.707.707-.7071zm2.5078-1.7578-.7071.707-.707-.707.707-.7071zm-2.0596-.6231-.707.707-.70803-.707.70803-.707zm2.0215-1.3154-.707.708-.7071-.708.7071-.707zm2.168-1.60548-.7071.70698-.708-.70698.708-.70703zm-1.71-.26661-.707.70704-.7071-.70704.7071-.70703zm3.9141-2.6455-.7071.70703-.707-.70703.707-.70703zm-1.5557-.56543-.707.70703-.7071-.70703.7071-.70703zm-.4854-4.1045c.4079-.03229.7493.14635.9981.34668l.0557.04493.0546.04394c.3222.25957.643.50468.96.73535l.1094.08008c.3308.24071.6596.48538.9863.73145l.1084.08007c.3152.23744.6358.46969.9609.69434l.1114.07617c.2525.17457.4853.4182.6054.74903.1236.34072.0943.68269-.0175.98535l-.0205.05762-.0215.05664c-.1595.43096-.4005.83155-.711 1.20019l-.0869.10254c-.2723.32329-.557.6374-.8525.94238l-.0469.04883-.0469.04981c-.2385.24624-.4436.51874-.6132.81933l-.0665.11914c-.2343.41535-.5208.79295-.8574 1.12985l-.0957.0957c-.2625.2629-.504.5423-.7226.8379l-.0391.0547-.041.0537a34.5 34.5 0 0 0-.6914.9698l-.0762.1113c-.2362.3435-.4799.6819-.7314 1.0137l-.0821.1074c-.2452.3233-.4917.6464-.7382.9687l-.0401.0537-.042.0537c-.2457.3213-.492.6433-.7373.9649l-.04.0537-.041.0537c-.2596.3403-.5356.6684-.8262.9844l-.0918.0996c-.2662.2894-.5234.5859-.7734.8877l-.044.0518-.043.0527c-.2524.3047-.4993.6141-.7402.9277l-.041.0547-.042.0527c-.2504.326-.505.6492-.76368.9688l-.04199.0517-.04297.0538c-.23657.2923-.45631.5981-.65918.917l-.03808.0576-.03516.0576c-.10869.1709-.18512.2921-.23047.3652-.0026.0042-.00642.008-.00879.0117-.02145.0429-.04581.0871-.07812.1289l-.00879.0118c-.0043.0055-.01196.0142-.02051.0244-.00588.007-.02522.0307-.05273.0576a.75.75 0 0 1-.09082.0762.77.77 0 0 1-.125.0713c-.05022.0226-.17199.072-.33496.0664-.19926-.0071-.4186-.0977-.56934-.295-.00473-.0063-.00821-.0142-.01269-.0205-.04883-.0279-.11398-.0625-.19629-.1054l-.11328-.0606c-.37149-.1939-.73679-.4161-1.09375-.667l-.11036-.0781c-.3718-.2613-.71583-.5581-1.03222-.8887l-.04785-.0488-.04688-.0498a10.57 10.57 0 0 0-.83105-.7793l-.10352-.0869c-.21551-.1813-.41314-.4099-.52832-.6944-.12106-.2994-.13319-.6176-.03906-.9228l.03027-.0957c.11681-.3783.31637-.7572.57324-1.1338l.03809-.0557.03711-.0566c.23877-.3501.49057-.6913.7539-1.0225l.08399-.1054c.27854-.3503.58766-.6762.9248-.9785l.05078-.0469.05079-.0449a5.52 5.52 0 0 0 .72656-.792l.08105-.1075c.24234-.3222.4842-.645.72461-.9687l.04004-.0547.04004-.0537a14.23 14.23 0 0 0 .65137-.9561l.07226-.1152c.22503-.3609.46266-.7129.71289-1.05468l.04004-.05469.04004-.05371c.24591-.33586.49892-.66689.75977-.99121l.04297-.05273.04199-.05274c.26896-.33437.55496-.65624.85646-.96484l.0478-.04883.0469-.04883c.2358-.24134.4353-.51076.5977-.81055l.0332-.06054.0322-.06055c.2277-.42044.5073-.8036.8389-1.14551l.0957-.09765c.2772-.28581.5489-.57636.8144-.8711l.0899-.10058c.2246-.24943.4139-.52805.5664-.83789l.0605-.12305c.207-.42073.4574-.81206.75-1.1709l.043-.05176.042-.05273c.2074-.25429.5168-.49393.9345-.52735M8.74707 21.9336c-.00103.0018-.00293.0039-.00293.0039s.00139-.0046.00391-.0088zM15.8428 3.39357c-.2183.26818-.4063.56125-.5635.88086l-.0615.12305c-.2124.4316-.4782.82577-.7969 1.17968l-.0459.05078-.0449.05079c-.2779.3085-.5625.61211-.8526.91113l-.0468.04785-.0469.0498c-.2356.24287-.4357.51363-.5986.81446l-.0645.12109c-.2282.42138-.5101.80398-.8437 1.14551l-.0948.09766c-.268.27434-.5212.55988-.7597.85644l-.043.05176-.042.05273a26.1 26.1 0 0 0-.7197.93754l-.0791.1084c-.22818.3116-.44596.6324-.6514.9619l-.07226.1152c-.2259.3624-.46526.7153-.71875 1.0567l-.04004.0546-.04102.0537a202 202 0 0 1-.73046.9776l-.08008.1074c-.27321.3633-.58162.699-.92383 1.0059l-.10254.0908c-.27572.2472-.52651.5134-.75195.7969l-.08399.1054c-.24047.3025-.46935.6148-.6875.9346l-.07715.1123c-.19976.293-.31779.5358-.37793.7305l-.01269.042c.01638.0195.04243.0477.08203.081l.05078.043.05274.043c.33097.2783.64766.5755.94921.8906l.04688.0498.04687.0488a5.5 5.5 0 0 0 .8125.6983l.10938.0781c.30618.2151.61546.4034.92578.5654l.00391.0029c.21999-.3399.45587-.6684.70996-.9824l.04297-.0517.04199-.0528c.25062-.3096.49759-.6226.74023-.9384l.042-.0547.04004-.0537c.25221-.3283.51113-.6518.77542-.9707l.0859-.1045c.2666-.3218.5425-.6369.8262-.9454l.0918-.0996c.2596-.2823.5057-.5762.7373-.8798l.041-.0528.04-.0547c.2457-.3221.4922-.644.7383-.9658l.042-.0537.04-.0537c.2454-.3208.4904-.6431.7344-.9649l.042-.0527.0401-.0537c.2375-.3133.4682-.6325.6914-.957l.0771-.1123c.2345-.3411.4749-.6784.7207-1.0108L15.2471 11l.041-.0547c.2629-.3554.5519-.6912.8662-1.00583l.0478-.04883.0479-.04785c.2402-.24053.4446-.50846.6123-.80567l.0342-.05957.0322-.06054c.2323-.41173.5137-.7873.8418-1.12598l.0479-.04883.0478-.0498c.2712-.2799.5317-.56798.7813-.86426l.0869-.10449c.2115-.25119.3583-.50294.4511-.75391l.0215-.05566.0078-.02051c-.0063-.00488-.0133-.01096-.0214-.0166l-.1114-.07715a30.4 30.4 0 0 1-1.0107-.72949l-.1074-.08106c-.32-.241-.6418-.48006-.9659-.71582l-.1103-.08008a26.16 26.16 0 0 1-1.0176-.77929z"/>
</svg>
