<svg xmlns="http://www.w3.org/2000/svg" width="24" height="24" viewBox="0 0 24 24">
  <path fill="currentColor" d="M10.834 2.8252c.4038-.09152.8058.16157.8974.56543.0914.40371-.1617.80574-.5654.89746a1.37 1.37 0 0 0-.1582.0459c2.4663.71891 4.3421 2.82239 4.7285 5.41308l2.3701-2.36914c.293-.29248.7678-.29275 1.0606 0 3.2549 3.25527 3.2551 8.53387 0 11.78907-3.2552 3.2551-8.5338 3.2549-11.78907 0-.29279-.2928-.29259-.7676 0-1.0605l.76758-.7686c-3.21401-.4795-5.67942-3.2512-5.67969-6.5986.0002-3.6593 2.94612-6.6299 6.5957-6.67094C9.45213 3.45959 10.073 2.998 10.834 2.8252m7.2412 6.7041c2.0519 2.3813 1.95 5.9786-.3086 8.2373-2.2589 2.2587-5.856 2.36-8.2373.3076l-.53028.5323c2.68408 2.1554 6.61728 1.99 9.10738-.5 2.4901-2.4902 2.6555-6.4234.5-9.10747zm-4.21 8.4951c.9528-.0799 1.8843-.4588 2.6446-1.1357-.1259-.0322-.2462-.0951-.3448-.1934l-1.9179-1.918zm-3.0351-.832c.4727.3383.9961.5749 1.539.7109l.2998-2.5527zM8.61133 5.59278c-2.60907.26385-4.64532 2.46788-4.64551 5.14652.0003 2.8561 2.31567 5.1726 5.17188 5.1728.15359 0 .306-.0092.45605-.0224l4.69535-4.6954c.013-.1496.0214-.3019.0214-.455-.0001-2.52374-1.8089-4.62386-4.2001-5.07914.003.08318.0131.16782.0322.25195.0913.40371-.16178.80578-.56545.89746-.40364.09141-.80558-.16192-.89746-.56543-.04952-.21822-.06957-.43681-.06836-.65136m6.87987 8.30762 1.7344 1.7344c.0647.0648.1133.14.1494.2187.4218-.6911.6437-1.4696.6641-2.2529zm.1592-1.5293 2.1816-.2568c-.1415-.4517-.3544-.8868-.6396-1.2852z"/>
</svg>
