<svg xmlns="http://www.w3.org/2000/svg" width="24" height="24" viewBox="0 0 24 24">
  <path fill="currentColor" d="M7.44531.74706c.3563.0011.78253.05417 1.2002.12988.8163.14803 1.78599.41939 2.32419.71484.6286.34521.9979.91841 1.1836 1.41602.02.05363.0371.10825.0537.16211.7447-.96815 1.8185-1.69291 3.1026-1.98438.4035-.09139.8054.16207.8974.56543.0917.40384-.1616.80566-.5654.89746-2.1117.47935-3.4377 2.5758-2.9697 4.6875.8151.20496 1.4848.77154 1.8281 1.52149.434-.94802 1.3892-1.60742 2.5-1.60742 1.5187 0 2.7498 1.23139 2.75 2.75-.0001.55391-.1664 1.06841-.4482 1.50001.2816.4315.4481.9464.4482 1.5-.0001.9061-.4409 1.707-1.1172 2.208.0754.2508.1171.5165.1172.791 0 1.5188-1.2312 2.75-2.75 2.75-.2748 0-.5401-.0418-.791-.1172a2.76 2.76 0 0 1-.5762.5762c.0754.2512.1172.5173.1172.792-.0003 1.5186-1.2314 2.75-2.75 2.75S9.25026 21.5186 9.25 20c.00002-.0892.00535-.1777.01367-.2647-.08683.0083-.17467.0147-.26367.0147-1.51865 0-2.74979-1.2314-2.75-2.75.00006-.4653.1163-.904.32031-1.2881C5.25596 15.5053 4.25 14.3714 4.25 12.999c.00019-.5537.1647-1.0697.44629-1.501-.28095-.4311-.44621-.945-.44629-1.49801.00021-1.51861 1.23135-2.75 2.75-2.75 1.11081 0 2.06602.6594 2.5 1.60742.31854-.69586.9172-1.23661 1.6533-1.47461-.1251-.74276-.0911-1.4797.0772-2.17383-.1336.04533-.2748.08398-.4209.11035-.5371.09687-1.23806.06927-1.85843-.32031-.48599-.30531-1.21493-.93362-1.78418-1.52344-.28656-.29694-.5615-.61337-.7539-.90039-.09409-.14043-.19074-.30773-.25098-.48242-.04871-.14155-.14106-.48011.05469-.81934.19262-.33312.53126-.43658.67578-.47167.18237-.04424.37817-.05522.55273-.0547M11.1807 19.0576c-.2643.23-.4306.5667-.4307.9424.0003.6901.5598 1.25 1.25 1.25s1.2497-.5599 1.25-1.25c0-.09-.0124-.1774-.0303-.2617-.0725.0057-.1457.0117-.2197.0117-.6986 0-1.3343-.2633-1.8193-.6924M9 15.75c-.69023 0-1.24979.5598-1.25 1.25.00021.6902.55978 1.25 1.25 1.25s1.2498-.5598 1.25-1.25c-.0002-.6902-.55977-1.25-1.25-1.25m4 0c-.6902 0-1.2498.5598-1.25 1.25.0002.6902.5598 1.25 1.25 1.25s1.2498-.5598 1.25-1.25c-.0002-.6902-.5598-1.25-1.25-1.25m2.2637-.3106c.3061.4433.4862.9811.4863 1.5606 0 .0736-.006.1466-.0117.2187.0845.0179.1715.0303.2617.0303.6903 0 1.25-.5597 1.25-1.25-.0001-.0898-.0133-.1767-.0312-.2607-.0722.0057-.1452.0117-.2188.0117-.5539-.0001-1.0693-.1656-1.501-.4473-.0758.0495-.1545.0948-.2353.1367m-5.37991-3.6845c-.1355.0124-.26438.0474-.38379.0996.15989.3487.24986.7367.25 1.1445 0 .4087-.09205.7959-.25195 1.1445.15372.0675.32332.1064.50195.1065.6901-.0002 1.2498-.56 1.25-1.25 0-.1304-.0214-.2554-.0576-.3721-.518-.159-.9708-.4662-1.30861-.873m4.22951.0019c-.3378.4058-.7894.7125-1.3067.8711A1.253 1.253 0 0 0 12.75 13c.0002.6902.5598 1.25 1.25 1.25s1.2498-.5598 1.25-1.25c-.0001-.2501-.0731-.4815-.1982-.6758-.0777-.1202-.176-.2273-.2891-.3144l-.1182-.0811-.1465-.0762c-.1192-.0519-.2488-.0835-.3847-.0957m4.0312.7403c-.3488.1601-.7355.2529-1.1445.2529-.0893 0-.1775-.0063-.2646-.0147.0083.0871.0146.1756.0146.2647-.0001.4084-.0922.795-.252 1.1435.1538.0678.3232.1064.502.1065.6901-.0002 1.2498-.5599 1.25-1.25-.0001-.1789-.0379-.349-.1055-.5029m-10.00095 0C7.79491 12.657 7.40867 12.75 7 12.75c-.40898 0-.79568-.0928-1.14453-.2529a1.2485 1.2485 0 0 0-.10547.5019c0 .6904.55964 1.25 1.25 1.25s1.25-.5596 1.25-1.25c-.00014-.1791-.03875-.3486-.10645-.5019M7 8.74999c-.69023 0-1.24979.55982-1.25 1.25C5.75021 10.6902 6.30978 11.25 7 11.25s1.24979-.5598 1.25-1.25001c-.00021-.69018-.55977-1.25-1.25-1.25m5 0c-.6902 0-1.2498.55982-1.25 1.25.0002.69021.5598 1.25001 1.25 1.25001s1.2498-.5598 1.25-1.25001c-.0002-.69018-.5598-1.25-1.25-1.25m5 0c-.6902 0-1.2498.55982-1.25 1.25.0002.69021.5598 1.25001 1.25 1.25001s1.2498-.5598 1.25-1.25001c-.0002-.69018-.5598-1.25-1.25-1.25M8.27148 2.44725c.52711.54614 1.16197 1.08185 1.50586 1.29785.20936.13134.49126.16429.77446.11329.0958-.0173.1787-.04532.2451-.07129-.0115-.07172-.0302-.16039-.0655-.25489-.1028-.27521-.2822-.51555-.5117-.6416-.32045-.17589-1.09426-.41209-1.86423-.55176-.07537-.01366-.14959-.02702-.2207-.03808.04376.04733.08915.0972.13671.14648"/>
</svg>
