<svg xmlns="http://www.w3.org/2000/svg" width="24" height="24" viewBox="0 0 24 24">
  <path fill="currentColor" d="M11 10.2783h-1V8.96094h1zM8.40039 6.49023c3.01321.00013 5.02991 1.25733 5.98731 2.72168.2225-.19285.4737-.35555.7402-.48828.7738-.38523 1.7315-.55663 2.709-.55664 1.9846.00018 3.7253 1.235 3.8975 3.12011.1193.0391.2282.1084.3154.2022.1417.1525.2134.3577.1983.5654-.0849 1.1566-.2421 3.0415-1.0079 4.6435-.3889.8135-.9487 1.585-1.7607 2.1514-.7674.5352-1.719.8582-2.8779.8965l-.2344.0039H7.81446l-.23438-.0039c-1.15889-.0382-2.11054-.3614-2.87793-.8965-.81197-.5663-1.37183-1.3379-1.76074-2.1514-.76576-1.602-.923-3.4869-1.00781-4.6435-.01515-.2077.05647-.4128.19824-.5654a.74.74 0 0 1 .12598-.1084c.13822-1.94305 2.11699-4.89064 6.14257-4.89067M3.49903 12.75c.10426 1.0464.30149 2.2675.79589 3.3018.30818.6445.71789 1.1859 1.26465 1.5673.54054.377 1.26239.6309 2.25489.6309h8.55274c.9925 0 1.7143-.2539 2.2549-.6309.5468-.3814.9564-.9228 1.2646-1.5673.4944-1.0343.6917-2.2553.7959-3.3018zM8 8.00391v.95703H7v-.80762C4.95149 8.66067 3.97792 10.2366 3.78809 11.25H8v-.9717h1v.9717h4.6318c-.0598-.0879-.1039-.1882-.122-.2988-.1764-1.07936-1.6298-2.96081-5.10941-2.96097-.13684.00001-.27026.00554-.40039.01368m9.8369 1.66308c-.8223.00001-1.5341.147-2.041.39941-.4986.2484-.742.5636-.8096.9082-.0199.1017-.0618.1939-.1172.2754H16v-.9717h1v.9717h3.2119c-.1826-.8601-1.0421-1.58285-2.375-1.58301"/>
</svg>
