<svg xmlns="http://www.w3.org/2000/svg" width="24" height="24" viewBox="0 0 24 24">
  <path fill="currentColor" d="M20 5.25c1.5188.00001 2.75 1.23122 2.75 2.75v2c0 1.5188-1.2312 2.75-2.75 2.75-.4507 0-.8746-.1115-1.25-.3037V16c0 .4142-.3358.75-.75.75h-3c.3763.5009.6291 1.099.7158 1.75h.5342c.4142 0 .75.3358.75.75s-.3358.75-.75.75h-8.5c-.4142 0-.75-.3358-.75-.75s.3358-.75.75-.75h.53418c.08714-.6539.34167-1.2546.7207-1.7568-1.37099-.033-2.49007-.3398-3.3955-.8584-.95917-.5495-1.63764-1.3091-2.11719-2.1328-.94242-1.6192-1.13576-3.5263-1.23926-4.6856a.75.75 0 0 1 .19336-.57226C2.58836 8.33882 2.7895 8.25 3 8.25h14.25V8c0-1.51878 1.2312-2.74999 2.75-2.75m-8 11.5c-.9793 0-1.81.6266-2.11914 1.5h4.23824c-.3091-.8734-1.1398-1.5-2.1191-1.5m-8.16797-7c.12652 1.0351.36576 2.2324.95703 3.248.36932.6343.87099 1.1877 1.56641 1.586.69605.3986 1.62827.666 2.89453.666h8v-5.5zM20 6.75c-.6903.00001-1.25.55965-1.25 1.25v2c0 .6903.5597 1.25 1.25 1.25s1.25-.5597 1.25-1.25V8c0-.69035-.5597-1.24999-1.25-1.25m-7.3105-1.96094c.2927-.29262.7676-.29244 1.0605 0 .7236.72363.7235 1.8974 0 2.62109-.2929.2926-.7678.29279-1.0605 0-.2927-.2928-.2926-.76767 0-1.06054.1377-.13791.1378-.36216 0-.5-.2925-.29293-.2928-.76779 0-1.06055M8.65137 3.46972c.2929-.29282.76768-.29287 1.06054 0 .29279.29288.29279.76768 0 1.06055-.35962.35963-.35962.94311 0 1.30273.29269.29291.29279.76773 0 1.06055-.29282.29274-.76766.29265-1.06054 0-.94542-.94541-.94542-2.47841 0-3.42383m2.07133-2c.2928-.29283.7676-.29273 1.0605 0 .985.985.985 2.5824 0 3.56739-.2929.29246-.7678.29262-1.0605 0-.2928-.29277-.2926-.76763 0-1.06055.3991-.3992.3991-1.04708 0-1.44629-.2927-.29286-.2928-.7677 0-1.06055"/>
</svg>
