<svg xmlns="http://www.w3.org/2000/svg" width="24" height="24" viewBox="0 0 24 24">
  <path fill="currentColor" d="M20.291 3.0625c.3698.02771.7815.18984 1.0235.6084.2265.39245.1874.82705.1064 1.15039-.0853.34001-.252.70146-.457 1.06347-.4127.72871-1.0619 1.59562-1.8506 2.52442-1.5843 1.86562-3.818 4.08422-6.1074 6.12602-2.2876 2.0399-4.66189 3.9305-6.53129 5.1279-.92314.5912-1.77911 1.0502-2.46484 1.2519-.33369.0982-.72453.1657-1.09375.0772-.19761-.0475-.3985-.1424-.56836-.3067-.17037-.1649-.2744-.3661-.3291-.5703l-.03125-.1425c-.05519-.3337.00194-.6705.09179-.9668.10594-.3493.28139-.7199.49805-1.0967.43389-.7546 1.08589-1.6248 1.86816-2.5449 1.56902-1.8456 3.73765-3.9792 5.96189-5.93559 2.223-1.9552 4.5292-3.7584 6.3799-4.93262.9176-.58213 1.765-1.03727 2.4551-1.2666.3398-.11291.7048-.19261 1.0488-.16699M5.58789 16.3359c-.7559.8892-1.34139 1.6803-1.70996 2.3213-.18429.3206-.30207.5817-.36328.7832-.00595.0197-.01004.0393-.01465.0567.02598-.0065.05504-.0115.08594-.0205.47207-.1389 1.18108-.5004 2.08008-1.0762.33026-.2116.67668-.4506 1.04004-.707-.16726-.1071-.32475-.2358-.46387-.3907-.2888-.3216-.46628-.7043-.53809-1.1006-.03875.0451-.07822.0891-.11621.1338m2.88672-1.0381c-.27675-.308-.7514-.3333-1.05957-.0566-.30779.2767-.33301.7505-.05664 1.0586.27672.3082.75137.3343 1.05957.0576.30811-.2767.33329-.7514.05664-1.0596m.91504-2.9091c-.41599.3936-.82315.7869-1.21582 1.1777.52683.0605 1.03485.3039 1.41699.7295.21562.2402.36858.5145.46288.8027.2275-.1897.4562-.383.6856-.5791-.2871-.1248-.5536-.3095-.77641-.5576-.40286-.4487-.59072-1.0146-.57324-1.5732m2.80565-.4307c-.2767-.3082-.7513-.3343-1.0596-.0576-.3081.2767-.3333.7514-.0566 1.0596.2767.3079.7505.3331 1.0586.0566.3081-.2766.334-.7504.0576-1.0586m.9141-2.86328c-.4381.36218-.8785.7377-1.3194 1.12008.5638.0384 1.1142.2876 1.5215.7413.2218.2471.3764.5306.4697.8281.2178-.206.4331-.4124.6456-.6182-.2747-.1246-.5288-.3061-.7432-.5449-.3916-.4362-.5801-.98299-.5742-1.52638m2.8056-.47753c-.2767-.30794-.7504-.33329-1.0586-.05665-.308.27675-.3333.75043-.0566 1.0586.2767.30802.7504.33406 1.0586.05762.3082-.27672.3333-.75136.0566-1.05957m3.8008-3.96387c-.5132.17052-1.2373.54616-2.125 1.10937-.5296.33604-1.1018.73086-1.7041 1.16895.4273.10301.8287.33188 1.1445.68359.1402.15606.2521.32765.3409.50684.2082-.2332.4085-.46084.5976-.6836.7658-.90178 1.3444-1.68535 1.6885-2.29296.1273-.22487.2123-.40809.2637-.55079-.0585.01422-.1272.03239-.2061.0586m-2.1855 9.87698c.8786-.8786 2.3029-.8784 3.1816 0 .4711.4711.6874 1.0991.6533 1.7158.1225.0814.2387.1762.3467.2842.8786.8787.8787 2.3039 0 3.1826-.8786.8781-2.3031.8783-3.1816 0-.1692-.1692-.3052-.3596-.4092-.5615-.104.2018-.24.3923-.4092.5615-.8786.8781-2.3031.8783-3.1816 0-.8787-.8787-.8787-2.3039 0-3.1826.6345-.6345 1.553-.8083 2.3457-.5264.0279-.536.2449-1.0642.6543-1.4736m-.8789 3.0605c-.2929-.2926-.7678-.2927-1.0606 0-.2927.2928-.2926.7677 0 1.0606.2929.2928.7677.2928 1.0606 0 .2928-.2929.2928-.7677 0-1.0606m4.0605.1221c-.3656.3653-.8259.5764-1.3017.6377.0352.1096.0936.2137.1806.3008.2929.2928.7677.2928 1.0606 0 .2623-.2624.2896-.6701.082-.9629-.0074.0076-.014.0169-.0215.0244m-1.0605-2.1221c-.2929-.2926-.7678-.2927-1.0606 0-.2619.262-.2886.6692-.082.9619.0072-.0073.0142-.0151.0215-.0224.3655-.3655.8258-.5773 1.3017-.6387-.0353-.1095-.0937-.2138-.1806-.3008"/>
</svg>
