<svg xmlns="http://www.w3.org/2000/svg" width="24" height="24" viewBox="0 0 24 24">
  <path fill="currentColor" d="M18 10.25c.4141 0 .7498.336.75.75-.0002 2.7244-1.6153 5.0705-3.9395 6.1367l1.0733 5.0108c.0861.4045-.1718.8027-.5762.8896-.4048.0866-.8037-.1714-.8906-.5762l-.3672-1.7138c-.0165.0011-.033.0029-.0498.0029h-3.8359l-.4307 2.0117c-.08687.4048-.48578.6628-.89063.5762-.4045-.0869-.66233-.4851-.57617-.8897l1.11817-5.2246C6.956 16.2017 5.25016 13.8003 5.25 11c.00021-.414.33592-.75.75-.75zm-4.6221 7.3584A6.777 6.777 0 0 1 12 17.75c-.3998 0-.7912-.0368-1.1719-.1035l-.3427 1.6035h3.2441zM6.80469 11.75c.36417 2.5439 2.55066 4.5 5.19531 4.5 2.6446 0 4.8311-1.9561 5.1953-4.5zm6.27151-5.67285c.2929-.29289.7676-.29289 1.0605 0 .8448.84517.845 2.21547 0 3.06055-.2928.29219-.7678.29236-1.0605 0-.2929-.29283-.2927-.76862 0-1.06152.2591-.2593.259-.67913 0-.93848-.2928-.29273-.2924-.76762 0-1.06055m-3-2.24316c.2929-.29258.7687-.29279 1.0615 0 .2922.29279.2923.7678 0 1.06054-.5435.54368-.5436 1.42515 0 1.96875.2924.29293.2927.7688 0 1.06153-.2927.29253-.7687.29232-1.0615 0-1.12928-1.12927-1.12893-2.96133 0-4.09082m1.5146-2.36426c.2928-.29271.7677-.29256 1.0606 0 1.18 1.1802 1.1801 3.09428 0 4.27441-.2929.29236-.7678.29252-1.0606 0-.2927-.29273-.2924-.76761 0-1.06054.5943-.59435.5942-1.55891 0-2.15332-.2925-.29286-.2926-.76774 0-1.06055"/>
</svg>
