<svg xmlns="http://www.w3.org/2000/svg" width="24" height="24" viewBox="0 0 24 24">
  <path fill="currentColor" d="M6.24219 6.39258c.31902-.1249.65686-.16433.99902-.10547l.12891.02148.12793.02246c.17934.03087.35841.05353.53711.06934l.25683.02344c.23644.02092.47215.05866.70606.11426l.12793.03125.12793.03027c.14962.03556.297.0542.44238.05762l.25683.00586c.13518.00314.27208-.01063.41208-.04297l.128-.0293.1289-.03027c.1909-.04413.382-.09148.5732-.14258l.1289-.03418.1279-.03418c.3243-.08668.6555-.08819.9805-.00391l.1279.03321.129.0332c.1503.03895.2978.06083.4433.06738l.2568.01172c.1688.00758.3379.00531.5069-.00781l.1279-.00977.1279-.01074c.2584-.02005.5168-.00914.7735.03125l.1279.01953.1289.02051c.1394.02191.2772.02689.4151.01465l.2568-.02344c.1539-.0137.3097-.04103.4678-.08398l.1289-.03516.1279-.03516c.2859-.07771.5787-.10285.873-.07226l.128.01367.1279.0127c.1952.02029.3908.03879.5859.05566l.128.01172.1289.01074c.1412.01217.2824.00817.4248-.0127l.1279-.01855.1289-.01953c.1189-.01741.261-.03105.3994-.02051.0689.00525.1741.01914.2881.06445.1001.03979.2514.12253.3672.28614l.0479.07519.0166.0293.1816.33008-.0361.08008c.0012.01744.0029.03498.0029.05273 0 .41421-.3358.75-.75.75h-1.2627l.043-.0957c-.0364-.00195-.0731-.0037-.1094-.00684l-.2559-.02148c-.2038-.01762-.4085-.03741-.6123-.0586l-.1279-.01367-.1279-.01269c-.1046-.01087-.2113-.00333-.3242.02734l-.128.03516-.1289.03515c-.2407.06543-.4837.10908-.7285.13086l-.2568.02344c-.261.02319-.5218.01348-.7813-.02735l-.1279-.01953-.1289-.0205a1.813 1.813 0 0 0-.4238-.01661l-.2559.01954c-.2299.01784-.4604.02205-.6904.01171l-.2569-.01171c-.2532-.0114-.5045-.04986-.7529-.11426l-.1279-.03321-.1289-.0332c-.0738-.01908-.1414-.01889-.2159.00098l-.1289.03418-.1279.03418a18.9 18.9 0 0 1-.623.15527l-.1289.0293-.128.03027c-.2589.05984-.5214.0872-.78513.08106l-.25586-.00586c-.25348-.0059-.50566-.0394-.75488-.09864l-.12793-.03027-.12891-.03027c-.16473-.03914-.32803-.06571-.49023-.08008l-.25684-.02344a8.1 8.1 0 0 1-.66016-.08594l-.12793-.02148-.12793-.02246c-.05677-.00977-.11833-.0059-.19824.02539l-.12793.0498-.1289.05078c-.34866.13638-.71831.15706-1.08203.05079l-.12793-.03711-.12793-.03809s-.02843-.00713-.1045-.00293c-.0777.00433-.18607.02052-.3291.05664l-.22656.05762L4.44336 8H4.25c-.41421 0-.75-.33579-.75-.75s.33579-.75.75-.75h.00586l.13672-.03418c.39746-.10045.8303-.15332 1.22168-.03906l.1289.03711.12793.03808c.03499.01021.0643.01072.11426-.00879l.12891-.0498zM19 4.25c2.0711 0 3.75 1.67893 3.75 3.75v8c0 2.0711-1.6789 3.75-3.75 3.75H5c-2.07107 0-3.75-1.6789-3.75-3.75V8c0-2.07107 1.67893-3.75 3.75-3.75zM5 5.75C3.75736 5.75 2.75 6.75736 2.75 8v8c0 1.2426 1.00736 2.25 2.25 2.25h.25V17h-.42383l.07031-.2012c-.03605.0178-.08076.0423-.13378.0772L4.5752 17H4.25c-.41421 0-.75-.3358-.75-.75 0-.3709.26938-.6779.62305-.7383.32406-.1785.72438-.3073 1.12695-.2217v-1.2871c-.00318-.0012-.00662-.0017-.00977-.0029h-.40625l.0625-.2246-.00488-.0039-.05176.0459L4.62891 14H4.25c-.41421 0-.75-.3358-.75-.75 0-.3365.22302-.617.52832-.7119l.11621-.1016c.13819-.1193.3438-.2639.60742-.3135.17244-.0324.34168-.0158.49805.0391v-1.2285c-.01045-.008-.02026-.0127-.02637-.0176l-.03808-.0312-.00098-.001c-.08235.0504-.1823.0944-.30176.1142-.09218.0154-.17798.0136-.25683.002H4.25c-.41421 0-.75-.3358-.75-.75 0-.31743.19799-.5868.47656-.69629L3.92285 9.5h.13477c.07512-.0481.16565-.0913.27246-.11621.10677-.02487.20744-.02531.30078-.0127.03838-.02148.0797-.04192.125-.05859.17569-.06462.35287-.06529.51269-.02246C5.36848 8.69973 5.88125 8.25 6.5 8.25h6c.6088 0 1.1153.4354 1.2266 1.01172.145-.01004.2851.01854.4091.07422l.0791.04004.0381.02246.0381.02148c.0088.00505.0144.00789.0166.00879l.0381.01172.0391.01074c.0926.0275.1767.06739.2539.11133l.0136-.0127.0381-.03418c.118-.10572.3151-.22873.5801-.23242.2389-.00315.4233.09493.5479.19141.1593-.03272.3145-.02388.458.01562.1739-.13513.4294-.24328.7246-.1914l.1455.03808.0381.0127.0381.01367c.0125.00436.0256.00855.038.0127.1181-.04507.2476-.07357.3848-.07715l.0762-.00195c.0437-.00113.0879-.00299.1318-.00684l.0381-.00391.0391-.00293.0986-.00293c.2234.00604.4033.09874.5234.19434.0108.0086.0201.01945.0303.02832.009 0 .0183.00067.0274.00098.1084-.08433.2743-.17155.4941-.17188a.796.796 0 0 1 .2139.0293c.0576-.02869.1275-.05631.2089-.07129l.0196-.00391.0205-.00293.0928-.01172c.0995-.00639.2197.00449.3457.05567.1732.07061.2935.19154.3671.30859.1241.19734.127.39546.127.45896v.3096l-.0264.0312c-.0728.2848-.3061.5037-.5996.5528-.1203.0976-.3196.2061-.581.1826-.0619-.0056-.119-.0186-.1709-.0352-.189.0741-.3995.0768-.5918.001-.0044-.0018-.0084-.005-.0127-.0068-.1279.0253-.2729.0242-.4287-.0313-.1814-.0646-.3037-.181-.3838-.2783-.2065.0922-.444.1199-.6826.0508l-.0381-.0107-.0147-.0049c-.0847.0543-.1804.1033-.289.1357l-.0381.0117-.0391.0117c-.2277.0678-.4534.0463-.6504-.0341-.1193.0189-.2421.0203-.3642.0019l-.0762-.0117c-.0613-.0093-.1193-.0246-.1738-.043l-.0196.0166c-.1668.1292-.4063.2394-.6963.2168l-.038-.0029-.0391-.0029c-.2447-.0193-.4425-.1243-.5869-.2393l-.0381-.0312-.001-.001c-.0499.0305-.1067.0572-.1699.0791v1.1963c.2975-.0747.6284-.0868.9463.0556l.0986.0489.2881.1611.1524.0859.4775-.3564c.3032-.2266.6806-.3534 1.085-.2783l.1757.0449.2881.0947.2891.0957c.1578.0519.314.0902.4678.1162l.5781.0977c.205.0346.4031.0928.5918.1748h.5615c.4141.0002.75.3359.75.75 0 .0033-.0009.0065-.001.0098l.001.0019v.2793c-.0001.1807-.0691.4768-.3594.6641-.2354.1516-.471.1298-.5556.1181-.1829-.0253-.346-.1078-.4336-.1543l-.2471-.1308-.2481-.1309c-.0907-.048-.1926-.0837-.3095-.1035l-.2891-.0478-.2881-.0489c-.2308-.039-.4607-.0964-.6875-.1709l-.4961-.1631-.2636.1983-.2891.2158c-.1798.1344-.4041.2426-.667.2676-.2678.0253-.515-.0414-.7246-.1582l-.2891-.1611-.2216-.1241c-.0376.0081-.1037.0268-.2012.0723l-.1797.083v1.5225c.382-.0537.7632-.0223 1.1152.1572.0568.029.085.0283.0967.0273.015-.0013.0611-.0091.1436-.0654.4884-.3339 1.0564-.4676 1.6445-.291.3025.0909.604.1588.9033.2051.2496.0385.4971.0998.7422.1777H19.75c.4048.0002.7336.3213.748.7227l.002.0019v.2002c0 .1606-.0432.3403-.1572.5039-.1111.159-.2558.2542-.3799.3086-.2236.0979-.4562.0987-.6084.0898-.3507-.0204-.723-.1286-1.0977-.2841-.2831-.1175-.5606-.1964-.832-.2383-.3701-.0572-.7395-.1407-1.1064-.251-.0817-.0244-.1851-.0311-.3663.0928-.2518.1721-.5405.2944-.8603.3223-.3233.0279-.6311-.0443-.9082-.1856-.0219-.0109-.1411-.0513-.4336.0322V18.25H19c1.2426 0 2.25-1.0074 2.25-2.25V8c0-1.24264-1.0074-2.25-2.25-2.25zm1.75 12.5h5.5v-4.8555c-.0091-.0468-.0146-.095-.0146-.1445 0-.0501.0052-.0991.0146-.1465v-2.709c-.0091-.0468-.0146-.095-.0146-.1445 0-.0479.006-.0944.0146-.1396V9.75h-5.5z"/>
</svg>
