<svg xmlns="http://www.w3.org/2000/svg" width="24" height="24" viewBox="0 0 24 24">
  <path fill="currentColor" d="M11.5 2.25c.4724 0 .9312.06238 1.2979.18457.1793.0598.3789.14838.5488.28223.1614.12731.4033.38623.4033.7832v1.06153c.4272.13071.8168.30346 1.1357.5205.428.29135.8641.76282.8643 1.41797v14c0 .4606-.2211.8366-.4912 1.1104-.267.2705-.6161.4801-.9883.6396-.7472.3202-1.7274.5-2.7705.5s-2.0233-.1798-2.77051-.5c-.3722-.1595-.72132-.3691-.98828-.6396-.2701-.2738-.49121-.6498-.49121-1.1104v-14l.00586-.12597c.05354-.61615.4934-1.05744.91602-1.33106.30635-.19829.67451-.35814 1.07812-.48144V3.5c0-.39697.24194-.65589.40332-.7832.16984-.13385.36948-.22243.54878-.28223.3667-.12219.8255-.18457 1.2979-.18457m2.75 16.8789c-.7446.3148-1.7163.4922-2.75.4922s-2.00539-.1774-2.75-.4922v1.3525c.00555.0112.02032.0364.05859.0752.08719.0884.25078.2026.51172.3145.51955.2227 1.28979.3789 2.17969.3789s1.6601-.1562 2.1797-.3789c.2609-.1119.4245-.2261.5117-.3145.0383-.0388.053-.064.0586-.0752zm0-7.3711c-.7446.3149-1.7162.4922-2.75.4922s-2.00537-.1773-2.75-.4922v5.5938c.00536.0108.01977.0367.05859.0761.08723.0883.25098.2027.51172.3145.51955.2226 1.28989.3789 2.17969.3789s1.6601-.1563 2.1797-.3789c.2607-.1118.4245-.2262.5117-.3145.0388-.0394.0532-.0653.0586-.0761zm0-3.49999c-.7446.3149-1.7162.49219-2.75.49219s-2.00535-.17729-2.75-.49219v1.72364c.00558.01112.02034.03635.05859.07515.08719.0884.25079.2026.51172.3145.51955.2227 1.28979.3789 2.17969.3789s1.6601-.1562 2.1797-.3789c.2609-.1119.4245-.2261.5117-.3145.0383-.0388.053-.06403.0586-.07515zM9.48047 6.06446c-.20066.07404-.36596.15595-.49317.23828-.14118.09141-.20167.15799-.22558.19336.00913.01352.02182.0351.04687.06054.08719.08834.25079.20259.51172.31446.51955.22266 1.28979.3789 2.17969.3789s1.6601-.15624 2.1797-.3789c.2609-.11187.4245-.22612.5117-.31446.0248-.02516.0367-.04704.0459-.06054-.0225-.03292-.0756-.0933-.1953-.17481-.1299-.08841-.3067-.17466-.5254-.25488-.0942.11116-.223.2273-.3975.33008-.3589.21143-.8759.35351-1.6191.35351s-1.2602-.14208-1.61914-.35351c-.17582-.10357-.30602-.22008-.40039-.33203M11.5 3.75c-.3106 0-.5714.03933-.75.08789v1.31153c.1259.04499.3569.10058.75.10058s.6241-.05559.75-.10058V3.83789c-.1786-.04856-.4394-.08789-.75-.08789m4.9697 3.78028c.2929-.29282.7677-.29282 1.0606 0l1.9394 1.93945c.2925.2929.2927.76777 0 1.06057-.2929.2929-.7686.2929-1.0615 0l-1.9385-1.93948c-.2928-.2929-.2928-.76767 0-1.06054M20.25 5.5c.4142 0 .75.33579.75.75s-.3358.75-.75.75h-2.5c-.4142 0-.75-.33578-.75-.75s.3358-.75.75-.75zm-1.8418-4.03027c.2929-.29289.7686-.29289 1.0615 0 .2927.29277.2925.76764 0 1.06055l-1.9394 1.93945c-.2929.29282-.7677.29282-1.0606 0-.2928-.29288-.2928-.76765 0-1.06055z"/>
</svg>
