<svg xmlns="http://www.w3.org/2000/svg" width="24" height="24" viewBox="0 0 24 24">
  <path fill="currentColor" d="M12 4.25c2.252 0 4.3161.2277 5.8389.6084.7555.1889 1.4202.42589 1.914.71777.4437.26224.9971.71888.9971 1.42383v10.9717c-.0001.4873-.3697.7513-.5137.8418-.1895.1191-.4199.2075-.6465.2763-.4641.1411-1.0983.2576-1.8369.3526-1.4882.1913-3.5221.3076-5.7529.3076-2.23077 0-4.26467-.1163-5.75293-.3076-.73858-.095-1.37282-.2115-1.83691-.3526-.22654-.0688-.45697-.1572-.64649-.2763-.144-.0905-.51354-.3545-.51367-.8418V7c0-.70495.55344-1.16159.99707-1.42383.49383-.29188 1.1585-.52887 1.91406-.71777C7.68393 4.4777 9.74801 4.25 12 4.25m7.25 7.4268c-.4094.179-.8882.3341-1.4111.4648-1.5228.3807-3.5869.6084-5.8389.6084s-4.31608-.2277-5.83887-.6084c-.52293-.1307-1.00178-.2858-1.41113-.4648v5.9433c.02878.0099.0603.0231.09668.0342.34541.105.883.2096 1.5918.3008C7.84564 18.136 9.81249 18.25 12 18.25s4.1544-.114 5.5615-.2949c.7088-.0912 1.2464-.1958 1.5918-.3008.0364-.0111.0679-.0243.0967-.0342zm0-3.00004c-.4094.17907-.8882.3341-1.4111.46484C16.3161 9.5223 14.252 9.75 12 9.75s-4.31607-.2277-5.83887-.6084C5.6382 9.01086 5.15935 8.85583 4.75 8.67676v1.25683c.02492.02989.09207.09951.26074.19921.31581.1866.82279.3808 1.51465.5537 1.37262.3431 3.30848.5635 5.47461.5635 2.1661 0 4.102-.2204 5.4746-.5635.6919-.1729 1.1989-.3671 1.5147-.5537.1686-.0997.2358-.16932.2607-.19921zM12 5.75c-2.16613 0-4.10199.22036-5.47461.56348-.69186.17296-1.19884.36711-1.51465.55371-.09075.05364-.15278.0984-.19433.13281.04155.03441.10358.07917.19433.13281.31581.1866.82279.38075 1.51465.55371C7.89801 8.02964 9.83387 8.25 12 8.25c2.1661 0 4.102-.22036 5.4746-.56348.6919-.17296 1.1989-.36711 1.5147-.55371.0903-.05339.1518-.09846.1933-.13281-.0415-.03435-.103-.07942-.1933-.13281-.3158-.1866-.8228-.38075-1.5147-.55371C16.102 5.97036 14.1661 5.75 12 5.75"/>
</svg>
