<svg xmlns="http://www.w3.org/2000/svg" width="24" height="24" viewBox="0 0 24 24">
  <path fill="currentColor" d="M13.2129 1.67285c.5684.04804 1.1939.25234 1.8262.55176 1.2713.60224 2.7281 1.66478 4.0937 3.03027 1.3656 1.36564 2.428 2.82234 3.0303 4.09375.2996.63259.5047 1.25837.5527 1.82717.0465.5516-.0512 1.153-.4785 1.6025l.001.001c-.9576 1.0707-2.2802 2.5715-3.6934 3.7334-.7082.5822-1.4672 1.1039-2.2431 1.4453-.7756.3412-1.618.5239-2.46.3555-1.5077-.302-2.3842-1.1781-2.9248-1.6387-.1389-.1183-.2396-.1973-.3223-.249-.0514-.0322-.083-.0457-.0976-.0508-.0338.0127-.1133.0576-.251.1953l-.0059-.0058-1.89157 1.8916c.19448.2851.35914.6318.43262 1.0302.15005.8146-.09918 1.7114-.9336 2.5459-.98481.9847-2.26672.8767-3.1875.3897-.68695-.3636-1.33122-1.0215-1.57324-1.7998-.75934-.2283-1.39164-.8339-1.73047-1.5108-.45746-.9145-.47425-2.135.48047-3.0898.83448-.8343 1.7314-1.0826 2.5459-.9326.40267.0742.75226.2413 1.03906.4384l1.41602-1.417c-.64572-.8979-.94753-1.873-.97168-2.873-.0303-1.26181.37951-2.51119.98242-3.65039 1.19305-2.25373 3.24317-4.26588 4.76957-5.44629.4484-.41972 1.047-.5139 1.5947-.46777M5.98047 17.0898c-.29292.2926-.76778.2928-1.06055 0l-.00781-.0078c-.01919-.0192-.03672-.0403-.05371-.0615-.14538-.1816-.42667-.3978-.74805-.457-.26769-.0491-.68105-.0132-1.21289.5185-.41199.4121-.42641.9044-.19922 1.3584.25309.5055.71406.7815 1.0332.7803.19969-.0007.39192.0776.53321.2187.14138.1415.21959.3343.21875.5342-.00109.3051.30046.8175.87793 1.1231.53036.2805 1.04341.2572 1.42578-.125.53215-.5323.56781-.9452.51855-1.2129-.05923-.3214-.27537-.6018-.45703-.7471-.16623-.1332-.26839-.3312-.28027-.5439-.01167-.2127.06822-.4206.21875-.5713l1.8623-1.8623-.80664-.8067zM11.1904 4.48242C10.0742 5.5376 8.92048 6.87847 8.17383 8.28906c-.53035 1.00216-.82967 1.99264-.80762 2.91214.0216.8944.34699 1.7736 1.16601 2.5947l1.25782 1.2578c.27906-.1447.58496-.215.92186-.1641.5055.0767.91.4155 1.1777.6436.6128.522 1.1908 1.0981 2.2461 1.3096.4397.088.9579.0067 1.5616-.2588.6034-.2655 1.2441-.6949 1.8955-1.2305.7906-.6501 1.5566-1.4225 2.2558-2.1728-.3575-.098-.7281-.2406-1.1006-.417-1.2713-.6023-2.7281-1.6647-4.0937-3.0303-1.3655-1.36559-2.428-2.82242-3.0303-4.09375-.1858-.39244-.3357-.78213-.4336-1.15723m8.711 3.99121c.0885.5462.0236 1.15112-.4268 1.60157-.4504.4503-1.0554.5152-1.6016.4268.536.3778 1.0481.6852 1.5166.9072.5423.2568.9872.3846 1.3116.4121.3252.0273.4265-.051.4472-.0713.0193-.0193.1009-.1197.0733-.4482-.0274-.3244-.1563-.7683-.4131-1.31059-.222-.46867-.5292-.98143-.9072-1.51758m-3.9707-2.44336c-.4703-.15653-.5829-.03143-.5577-.05664.0257-.02569-.1004.08715.0567.55859.1415.42439.4672.95544.9687 1.45703.5018.50172 1.0336.8272 1.458.96875.4714.15701.5834.03097.5577.05665-.0253.02527.1001-.08691-.0567-.55762-.1415-.42451-.467-.95622-.9687-1.45801-.5018-.50166-1.0336-.82727-1.458-.96875m-2.8438-2.86328c-.3283-.02766-.4287.05281-.4482.07226-.0197.01975-.0998.1199-.0723.44727.0274.32444.1561.76895.4131 1.31152.2218.46835.5276.98086.9053 1.51661-.0883-.54599-.0225-1.15122.4277-1.60157.4503-.45027 1.0556-.51598 1.6016-.42773-.5357-.3776-1.0483-.68342-1.5166-.90528-.5424-.25688-.9862-.38566-1.3106-.41308"/>
</svg>
