<svg xmlns="http://www.w3.org/2000/svg" width="24" height="24" viewBox="0 0 24 24">
  <path fill="currentColor" d="M12 6.25c.5821.00017 1.0354.32764 1.3457.66406.3166.34343.5716.78545.7686 1.22852.3909.87972.6357 1.94752.6357 2.70992-.0002 1.5489-1.1821 2.8972-2.75 2.8975-1.5679-.0003-2.74975-1.3486-2.74999-2.8975 0-.755.2453-1.82242.63574-2.70309.19665-.44355.45055-.88688.76665-1.23144.3095-.33721.7637-.6678 1.3476-.66797m-.0088 1.50195c-.0074.00211-.0224.00726-.043.01856-.0442.02451-.1097.07327-.1904.16113-.1657.18066-.3407.46479-.501.82617-.3236.73022-.5068 1.58989-.5068 2.09469.0002.823.6094 1.3972 1.25 1.3975.6406-.0003 1.2498-.5745 1.25-1.3975 0-.5134-.1836-1.37331-.5068-2.10055-.16-.35992-.3348-.64199-.5-.82129-.0805-.08724-.1462-.13581-.1905-.16015-.0204-.01115-.0353-.01641-.0429-.01856A.08.08 0 0 0 12 7.75h-.0019zM16.4678 1.25c.7208.00025 1.293.60866 1.248 1.32812l-.9375 14.99998c-.0102.1633-.0527.3173-.1191.4571.0577.1438.0908.3004.0908.4648v3c0 .6902-.5598 1.2498-1.25 1.25H8.50001c-.69016-.0002-1.25-.5598-1.25-1.25v-3c0-.1642.0313-.3212.08886-.4648-.0662-.1397-.10697-.294-.11718-.4571l-.9375-14.99998c-.04495-.71946.52723-1.32787 1.24804-1.32812zm-7.71779 20H15.25v-2.5h-.5v.75c0 .6902-.5598 1.2498-1.25 1.25h-3c-.69015-.0002-1.24999-.5598-1.24999-1.25v-.75h-.5zm1.99999-2h2.5v-.5h-2.5zm-2.04491-2h6.59081L15.374 16H8.62696zm-.17188-2.75h6.93459l.5937-9.5H7.93946zm-.6875-11h8.30959l.0469-.75H7.79883z"/>
</svg>
