<svg xmlns="http://www.w3.org/2000/svg" width="24" height="24" viewBox="0 0 24 24">
  <path fill="currentColor" d="M12 2.25c4.8181 0 8.75 3.60271 8.75 8.8193-.0001 2.6137-1.2188 5.2597-2.8604 7.2393C16.2694 20.2624 14.0786 21.75 12 21.75c-2.07862 0-4.26944-1.4876-5.88965-3.4414C4.46879 16.329 3.25012 13.683 3.25 11.0693 3.25 5.85271 7.18189 2.25 12 2.25m5.4824 3.89941c-.318.66467-.8905 1.21317-1.5605 1.61524C14.882 8.3886 13.4933 8.75 12 8.75s-2.88196-.3614-3.92188-.98535c-.67016-.40215-1.2435-.9504-1.56152-1.61524C5.41584 7.40511 4.75 9.09264 4.75 11.0693c.00012 2.1743 1.03139 4.4936 2.51465 6.2823C8.76943 19.1662 10.5786 20.25 12 20.25s3.2306-1.0838 4.7354-2.8984c1.4832-1.7887 2.5145-4.108 2.5146-6.2823 0-1.97691-.6666-3.66414-1.7676-4.91989M12 3.75c-1.5893 0-3.05517.46353-4.24707 1.29297.01908.45214.33727.97931 1.09766 1.43555C9.6203 6.94025 10.732 7.25 12 7.25s2.3797-.30975 3.1494-.77148c.7604-.45622 1.0776-.98342 1.0967-1.43555C15.0543 4.21382 13.589 3.75 12 3.75"/>
</svg>
