<svg xmlns="http://www.w3.org/2000/svg" width="24" height="24" viewBox="0 0 24 24">
  <path fill="currentColor" d="M11.8838 2.25c.4685.00031.8191.29877 1.0185.50781.2264.23734.4359.54829.626.87989.3838.66961.7644 1.56011 1.1006 2.49804.666 1.85772 1.2218 4.08306 1.25 5.39156.0296 1.3814-.5616 2.5892-1.2529 3.4473.3479-.0697.7388-.1182 1.1347-.1455.6342-.0437 1.3362-.0431 2.001.001.6594.0437 1.3139.1323 1.8399.2783.2606.0724.5231.1677.7461.2978.207.1211.4886.3356.6113.6924.1244.3625.0279.7053-.0674.9287-.1014.2375-.2555.4677-.4209.6758-.3337.4198-.8042.8681-1.3017 1.2852-.9874.8275-2.2241 1.6509-3.0157 1.9892-.9784.418-1.9969.1704-2.7295-.1992-.3756-.1895-.7115-.4284-.9775-.6767-.0282-.0263-.055-.055-.083-.083-.1877.1907-.4122.3658-.6416.5175-.392.2592-.8707.4999-1.3867.6787-1.0028.3474-2.31709.5175-3.41898-.0761-.5082-.2739-1.07829-.7557-1.61719-1.2949-.54953-.55-1.10879-1.2026-1.59277-1.8604-.48069-.6533-.90561-1.3363-1.16992-1.9463-.13155-.3037-.23572-.6181-.27637-.918-.03886-.287-.0329-.658.17383-.9951.20954-.3414.55161-.5303.83984-.6377.298-.1109.63828-.1729.97852-.207.68375-.0684 1.51134-.0364 2.33691.0488.76252.0788 1.56588.2101 2.30469.3692-.30502-.6562-.4958-1.4062-.46582-2.2139.04716-1.2681.45785-3.46432.99316-5.3291.26845-.93508.5797-1.82649.9092-2.49707.1631-.33185.3483-.6457.5576-.88672.186-.21408.5203-.52033.9961-.52051M6.38086 14.7822c-.77434-.0799-1.48084-.0999-2.01074-.0468-.26589.0266-.45442.0685-.57226.1123-.00577.0021-.01151.0057-.0166.0078.00093.0104.0002.0231.00195.0361.01745.1285.07075.3144.1748.5547.20718.4782.56658 1.0671 1.01367 1.6748.44402.6034.95775 1.2015 1.45411 1.6982.50687.5072.95742.8692 1.27441 1.0401.54858.2954 1.33669.262 2.14648-.0186.32082-.1112.61722-.2554.86722-.4043l-4.14554-2.2334c-.36459-.1964-.48406-.642-.26757-.9951.2166-.3528.68724-.4804 1.05175-.2842l4.14456 2.2324c.0096-.2716-.0093-.5755-.0703-.8789-.1025-.5087-.2993-.9422-.5782-1.249-.1462-.0999-.294-.213-.4404-.3388-.0203-.0102-.0407-.0212-.0615-.0303-.75996-.3342-2.40346-.7156-3.96584-.877m11.28224 1.544c-.6004-.0398-1.2358-.0398-1.7998-.001-.5775.0398-1.0313.1175-1.2949.208-.4437.1527-.8229.5756-1.0733 1.124-.0376.0825-.0706.1652-.0996.2461l2.4346-.8359c.3916-.1342.8186.0743.9531.4658.1346.3916-.0743.8184-.4658.9531l-2.4287.833c.0672.0413.1374.0821.2109.1192.5224.2635 1.0516.3367 1.4649.1601.6003-.2566 1.7074-.9776 2.6406-1.7597.4625-.3877.8476-.7622 1.0918-1.0694.0435-.0547.0775-.1058.1074-.1494-.0572-.0208-.1247-.0443-.2041-.0664-.3891-.108-.931-.1873-1.5371-.2275M11.9297 3.90234c-.0726.10705-.1579.25213-.25.43946-.2742.55799-.5571 1.35492-.8154 2.25488-.5185 1.80628-.89661 3.87422-.93754 4.97462-.03489.9417.38914 1.8277.95704 2.499.1098.1298.2238.2471.3359.3535.0398.0212.078.0448.1162.0674V7.96387c.0002-.40754.3411-.72162.7608-.70215.4196.0199.7613.36594.7617.77344V14.624c.1825-.1523.3756-.3398.5586-.5615.5596-.6782.9824-1.5789.9619-2.5352-.0228-1.0601-.5101-3.09952-1.1601-4.91304-.3216-.89707-.6679-1.69398-.9883-2.25293-.1129-.19678-.2149-.34834-.3008-.45899"/>
</svg>
