<svg xmlns="http://www.w3.org/2000/svg" width="24" height="24" viewBox="0 0 24 24">
  <path fill="currentColor" d="M19.5 11.25c.6903 0 1.2499.5597 1.25 1.25v3.75H22c.4142 0 .7499.3359.75.75v1c-.0001 2.071-1.679 3.75-3.75 3.75H5c-2.07102 0-3.74992-1.679-3.75-3.75v-1c.00008-.4141.33584-.75.75-.75h1.25V12.5c.00008-.6903.55969-1.25 1.25-1.25zM2.75 18c.00008 1.2426 1.00741 2.25 2.25 2.25h14c1.2426 0 2.2499-1.0074 2.25-2.25v-.25H2.75zm2-1.75h14.5v-3.5H4.75zm.86328-12.19629c.56347-.05638 1.23829-.02982 1.90527.03906 1.32076.13641 2.80395.46233 3.60255.81348.638.28068 1.0512.77278 1.3096 1.2998.2709-.28739.6111-.53337 1.0283-.67676.3794-.13031.8828-.20173 1.3848-.23632.5153-.03549 1.0846-.03571 1.624 0 .5341.03538 1.0704.1076 1.5058.22851.2154.05981.4388.13969.6328.25293.1783.10408.4411.29988.5567.63574.1171.34136.0249.65811-.0576.85157-.0886.20758-.2216.40402-.3584.57617-.2766.3478-.663.71438-1.0655 1.05176-.7971.66815-1.8014 1.33885-2.455 1.61815-.8404.3589-1.7054.1436-2.3135-.1631-.2993-.151-.5685-.3405-.7871-.53904-.1341.12129-.2802.23314-.4268.33004-.3258.2155-.722.4138-1.1484.5616-.82321.2851-1.92887.4351-2.86721-.0703-.42634-.2298-.89587-.6271-1.33105-1.06255-.44596-.44629-.89893-.97592-1.29102-1.50879-.38898-.52867-.7365-1.08645-.9541-1.58887-.10816-.24979-.19658-.51413-.23144-.77148-.03309-.24464-.03051-.57979.16015-.89062l.07715-.11133c.19262-.24474.45854-.38328.67481-.46387.25688-.09569.54493-.1477.82519-.17578m.11719 1.45508c-.1307.01311-.23275.03335-.30957.05175.02032.08086.05335.18703.10937.31641.16051.37045.44172.8337.79688 1.31641.35214.47858.75954.95261 1.15234 1.3457.40339.40366.75298.68173.98828.80859.38513.20744.96442.19397 1.59473-.02441.1547-.05363.3019-.11718.4375-.18457L7.4043 7.4707c-.36452-.19654-.48414-.64209-.26758-.99512.2166-.35289.68719-.47953 1.05176-.2832L11.2822 7.8584c-.0072-.13723-.0239-.28065-.0527-.42383-.1209-.60051-.4038-1.02892-.7842-1.19629-.58864-.25886-1.88902-.56275-3.13475-.69141-.61592-.06359-1.17042-.07909-1.58008-.03808M16.3691 6.78906c-.475-.03145-.9775-.03164-1.4228-.00098-.4588.03164-.807.09296-1 .15918-.2741.09428-.5296.34849-.7178.70801l1.6328-.56055c.3916-.13422.8185.07439.9532.46582.1345.39164-.0743.81842-.4659.95313l-1.6181.55566c.3447.14324.6646.16213.9072.0586.4625-.19775 1.3372-.76507 2.0801-1.3877.3404-.28537.6221-.55868.8105-.78418-.2954-.07708-.7011-.13663-1.1592-.16699"/>
</svg>
