<svg xmlns="http://www.w3.org/2000/svg" width="24" height="24" viewBox="0 0 24 24">
  <path fill="currentColor" d="M11.625 10.3506a.7499.7499 0 0 1 .75 0l2.5977 1.5c.232.134.375.3815.375.6494v3c0 .2679-.143.5154-.375.6494l-2.5977 1.5a.7499.7499 0 0 1-.75 0l-2.59766-1.5c-.23205-.134-.375-.3815-.375-.6494v-3c0-.2679.14295-.5154.375-.6494zm-1.4727 2.582v2.1338L12 16.1338l1.8477-1.0674v-2.1338L12 11.8652zM12 2.25c2.252 0 4.3161.2277 5.8389.6084.7555.1889 1.4202.42589 1.914.71777.4437.26224.9971.71888.9971 1.42383v14.6289c-.0001.4129-.2456.6955-.4307.8506-.192.1609-.4305.2825-.666.3779-.4781.1938-1.1256.3529-1.8701.4805-1.501.2573-3.5453.4121-5.7832.4121-2.23792 0-4.2822-.1548-5.7832-.4121-.74446-.1276-1.39202-.2867-1.87012-.4805-.23549-.0954-.47394-.217-.66602-.3779-.18502-.1551-.43053-.4377-.43066-.8506V5c0-.70495.55344-1.16159.99707-1.42383.49383-.29188 1.1585-.52887 1.91406-.71777C7.68393 2.4777 9.74801 2.25 12 2.25m7.25 16.4268c-.4094.179-.8882.3341-1.4111.4648-1.5228.3807-3.5869.6084-5.8389.6084s-4.31608-.2277-5.83887-.6084c-.52293-.1307-1.00178-.2858-1.41113-.4648v.7158c.04035.0208.09223.0476.16016.0752.33153.1343.85635.271 1.55957.3916 1.39439.239 3.35013.3906 5.53027.3906 2.1801 0 4.1359-.1516 5.5303-.3906.7032-.1206 1.228-.2573 1.5595-.3916.068-.0276.1198-.0544.1602-.0752zm0-10.00004c-.4094.17907-.8882.3341-1.4111.46484C16.3161 9.5223 14.252 9.75 12 9.75s-4.31608-.2277-5.83887-.6084C5.6382 9.01086 5.15935 8.85583 4.75 8.67676v8.25684c.02493.0299.09208.0995.26074.1992.31581.1866.82279.3808 1.51465.5537 1.37262.3431 3.30848.5635 5.47461.5635 2.1661 0 4.102-.2204 5.4746-.5635.6919-.1729 1.1989-.3671 1.5147-.5537.1686-.0997.2358-.1693.2607-.1992zm0-2c-.4094.17907-.8882.3341-1.4111.46484C16.3161 7.5223 14.252 7.75 12 7.75s-4.31607-.2277-5.83887-.6084C5.6382 7.01086 5.15935 6.85583 4.75 6.67676v.25683c.02492.02989.09207.09953.26074.19922.31581.1866.82279.38075 1.51465.55371C7.89801 8.02964 9.83387 8.25 12 8.25c2.1661 0 4.102-.22036 5.4746-.56348.6919-.17296 1.1989-.36711 1.5147-.55371.1686-.09969.2358-.16933.2607-.19922zM12 3.75c-2.16613 0-4.10199.22036-5.47461.56348-.69186.17296-1.19884.36711-1.51465.55371-.09075.05364-.15278.0984-.19433.13281.04155.03441.10358.07917.19433.13281.31581.1866.82279.38075 1.51465.55371C7.89801 6.02964 9.83387 6.25 12 6.25c2.1661 0 4.102-.22036 5.4746-.56348.6919-.17296 1.1989-.36711 1.5147-.55371.0903-.05339.1518-.09846.1933-.13281-.0415-.03435-.103-.07942-.1933-.13281-.3158-.1866-.8228-.38075-1.5147-.55371C16.102 3.97036 14.1661 3.75 12 3.75"/>
</svg>
