<svg xmlns="http://www.w3.org/2000/svg" width="24" height="24" viewBox="0 0 24 24">
  <path fill="currentColor" d="M11 3.75c.4142 0 .75.33579.75.75s-.3358.75-.75.75c-.6169 0-1.19362.26201-1.62012.64453C8.93606 6.2926 8.75 6.72944 8.75 7c0 .41421-.33579.75-.75.75s-.75-.33579-.75-.75c0-.83401.48596-1.64687 1.12793-2.22266C9.03721 4.18606 9.96013 3.75 11 3.75m.5-2.5c3.2217 0 5.8727 2.43781 6.2119 5.56934.5954.12278 1.0771.40564 1.4268.82519.4599.55192.6113 1.24404.6113 1.85547 0 .9982-.7897 1.4293-1.2627 1.5869-.2539.0846-.4973.1234-.6699.1426-.088.0098-.1625.015-.2168.0176-.0273.0013-.0505.0025-.0674.0029h-.498l-3.4737 10.124c-.5219 1.5212-2.6464 1.5924-3.2685.1094L6.00195 11.252l-.04492.0029a4.7 4.7 0 0 1-.26953.0078c-.21612 0-.51971-.0141-.83496-.0772-.30508-.061-.68825-.181-1.00879-.4375C3.49219 10.4667 3.25 10.0448 3.25 9.5c0-.80456.33186-1.55195.8125-2.09668.32115-.3639.7414-.67185 1.21875-.83301C5.6003 3.40478 8.31183 1.25 11.5 1.25m.1758 19.6533c.0888.2118.3921.2016.4668-.0156l3.3076-9.6377H12.75v1.2646c-.0001.0061-.0007.0135-.001.0215a1.5 1.5 0 0 1-.0029.0606c-.0034.0472-.0093.1097-.0215.1826-.0238.1428-.0733.3448-.1787.5557-.107.2139-.2793.4512-.5518.6328-.2771.1847-.6129.2822-.9941.2822s-.717-.0975-.9941-.2822c-.27247-.1816-.44481-.4189-.5518-.6328-.10538-.2109-.15491-.4129-.17871-.5557a1.95 1.95 0 0 1-.02148-.1826 1.5 1.5 0 0 1-.00293-.0606c-.00027-.008-.00088-.0154-.00098-.0215V11.25H7.62793zM11.5 2.75c-2.67976 0-4.75 1.88109-4.75 4.4502-.00011.41412-.33585.75-.75.75-.22759 0-.53704.1341-.8125.44628C4.91819 8.70175 4.75 9.1046 4.75 9.5c0 .05511.00791.05848.03125.07715.05446.04343.17169.09879.36621.13769.18463.03689.38128.04786.54004.04786.07722 0 .14085-.00245.18359-.00489.02128-.00121.03749-.00315.04688-.0039h.00781A.75.75 0 0 1 6 9.75h4c.4142 0 .75.3358.75.75v1.9893c.0005.0074.0024.0234.0059.0439.0074.0445.0206.093.04.1318.0179.0358.0332.0489.042.0547.0041.0028.0433.0303.1621.0303s.158-.0275.1621-.0303c.0088-.0058.0241-.0189.042-.0547.0194-.0388.0326-.0873.04-.1318.0035-.0205.0054-.0365.0059-.0439V10.5c0-.4142.3358-.75.75-.75h5.5l.0283-.00098a1.96 1.96 0 0 0 .1231-.00976c.1086-.01207.2403-.03583.3613-.07617.1268-.04227.1948-.08738.2227-.11524.0094-.00944.0146-.00977.0146-.04785 0-.38845-.0987-.69644-.2637-.89453C17.8413 8.43145 17.5696 8.25 17 8.25c-.4142 0-.75-.33579-.75-.75 0-2.62335-2.1266-4.75-4.75-4.75"/>
</svg>
