<svg xmlns="http://www.w3.org/2000/svg" width="24" height="24" viewBox="0 0 24 24">
  <path fill="currentColor" d="M7.14062 11.1777c.32422-.0324.69723-.0158 1.04883.0205.68948.0713 1.48798.2423 1.94535.4434.2492.1097.4433.2659.5927.4424.0943-.0574.1962-.1088.3086-.1475.2387-.082.5333-.1213.7989-.1396.279-.0192.5852-.0192.875 0 .2843.0188.584.0581.8388.1289.1254.0348.2724.0861.4092.166.1208.0706.3444.2276.4453.5215l.0313.1103c.0518.2529-.0204.4699-.0703.5869-.0631.1477-.1517.2766-.2315.377-.1625.2045-.3806.4092-.5937.5879-.4184.3506-.9607.7169-1.3399.8789-.5658.2415-1.1257.0891-1.4863-.0928-.0845-.0426-.1651-.0912-.2412-.1426-.1935.128-.4245.2444-.6719.3301-.46578.1614-1.15851.2708-1.77148-.0595-.26339-.1421-.53005-.3737-.75879-.6026-.23963-.2398-.48238-.5216-.69141-.8057-.20578-.2797-.39785-.5864-.52246-.874-.0617-.1424-.11912-.3085-.14257-.4814-.02169-.1602-.02785-.4248.13086-.6836l.06445-.0928c.15855-.2014.36928-.3056.51367-.3594.17476-.065.35805-.0962.51855-.1123m.70411 1.7403c.16911.2298.36425.4578.55078.6445.19697.1971.34535.3094.41797.3486.05994.032.2249.0582.49707-.0361.12144-.0421.23044-.0971.30957-.1494.01793-.0119.03166-.0237.04297-.0322.00212-.0132.00697-.0299.00879-.0498.00794-.0882.00308-.2-.01954-.3125-.05128-.2549-.15391-.341-.19336-.3584-.24757-.1089-.86323-.2569-1.47753-.3204a5.65 5.65 0 0 0-.33399-.0244c.05658.0906.12245.1884.19727.2901m4.09277.375c-.2218.0153-.3605.0436-.4131.0615-.0084.0029-.0324.0144-.0683.0527-.037.0395-.0765.0969-.1094.169-.0155.0338-.0286.0672-.0381.0976.0237.016.0501.0332.0791.0479.0658.0332.1251.0496.168.0547.0398.0047.0556-.001.0556-.001.1539-.0659.456-.257.7608-.4902-.1494-.003-.2984-.0016-.4346.0078M17 1.25c.6904 0 1.25.55964 1.25 1.25v1.79102l1.3223 2.2041c.1165.19427.1777.417.1777.64355V21.5c0 .6904-.5596 1.25-1.25 1.25h-13c-.69036 0-1.25-.5596-1.25-1.25V7.13867c0-.22655.06117-.44928.17773-.64355L5.75 4.29102V2.5c0-.69036.55964-1.25 1.25-1.25zm-11.25 20h9.5V19h-9.5zm11-12.80957V21.25h1.5V7.20801l-.4336-.72266zM5.75 17.5h9.5V9h-9.5zm0-10.29199V7.5h9.8047L16.373 6H6.47461zm1.5-2.84668c0 .04653-.00465.09267-.00977.13867h9.51957c-.0051-.046-.0098-.09214-.0098-.13867V2.75h-9.5z"/>
</svg>
