<svg xmlns="http://www.w3.org/2000/svg" width="24" height="24" viewBox="0 0 24 24">
  <path fill="currentColor" d="M8.7998 4.25c2.6587 0 4.4564 1.12454 5.3408 2.45117.1818-.15089.3825-.27996.5938-.38867.7051-.36274 1.5734-.52246 2.4541-.52246 1.6527.00017 3.1045.9666 3.4717 2.45996H22c.4142 0 .75.33579.75.75 0 5.0026-3.4175 9.2057-8.0449 10.4053.6464.6737 1.0449 1.5872 1.0449 2.5947 0 .4142-.3358.75-.75.75H9c-.41421 0-.75-.3358-.75-.75 0-1.0072.39778-1.921 1.04395-2.5947C4.66697 18.2054 1.25 14.0023 1.25 9c0-.41421.33579-.75.75-.75h1.3418c.40498-1.75763 2.16918-3.99991 5.458-4M12 19.75c-.9793 0-1.81.6266-2.11914 1.5h4.23824c-.3091-.8734-1.1398-1.5-2.1191-1.5m-9.2168-10c.38189 4.7578 4.36074 8.5 9.2168 8.5 4.8561 0 8.8349-3.7422 9.2168-8.5zm6.0166-4c-2.29402.00008-3.4988 1.40737-3.89648 2.5h8.31938c-.2611-.98355-1.5453-2.5-4.4229-2.5m8.3887 1.54004c-.7192 0-1.3342.13355-1.7676.35644-.333.17133-.5284.3773-.625.60352h4.2578c-.306-.55437-.9582-.95983-1.8652-.95996"/>
</svg>
