<svg xmlns="http://www.w3.org/2000/svg" width="24" height="24" viewBox="0 0 24 24">
  <path fill="currentColor" d="M12.0322 13.1504c.2929-.2929.7687-.2929 1.0616 0 .2925.2929.2926.7677 0 1.0605l-.5782.5772.6817.6816c.2927.2929.2927.7677 0 1.0606-.2929.2928-.7677.2928-1.0606 0l-.6816-.6817-.5918.5918c-.2929.2928-.7677.2929-1.06057 0-.2927-.2928-.29276-.7677 0-1.0605l.59177-.5918-.57614-.5762c-.2926-.2929-.2928-.7677 0-1.0605.29284-.2927.76764-.2926 1.06054 0l.5762.5761zM11.5 2.25c.4724 0 .9312.06238 1.2979.18457.1793.0598.3789.14838.5488.28223.1614.12731.4033.38623.4033.7832v1.06153c.4272.13071.8168.30346 1.1357.5205.428.29135.8641.76281.8643 1.41797v14c0 .4606-.2211.8366-.4912 1.1104-.267.2705-.6161.4801-.9883.6396-.7472.3202-1.7274.5-2.7705.5s-2.0233-.1798-2.77051-.5c-.3722-.1595-.72132-.3691-.98828-.6396-.2701-.2738-.49121-.6498-.49121-1.1104v-14l.00586-.12597c.05353-.61615.4934-1.05744.91602-1.33106.30635-.19829.67451-.35814 1.07812-.48144V3.5c0-.39697.24194-.65589.40332-.7832.16984-.13385.36948-.22243.54878-.28223.3667-.12219.8255-.18457 1.2979-.18457m2.75 6.00781c-.7446.31489-1.7162.49219-2.75.49219s-2.00535-.1773-2.75-.49219V20.4814c.00555.0112.02032.0364.05859.0752.08719.0884.25078.2026.51172.3145.51955.2227 1.28979.3789 2.17969.3789s1.6601-.1562 2.1797-.3789c.2609-.1119.4245-.2261.5117-.3145.0383-.0388.053-.064.0586-.0752zM9.48047 6.06446c-.20066.07404-.36596.15595-.49317.23828-.1412.09142-.20167.15799-.22558.19336.00913.01352.02182.0351.04687.06054.08719.08834.25078.20259.51172.31446.51955.22266 1.28979.3789 2.17969.3789s1.6601-.15624 2.1797-.3789c.2609-.11187.4245-.22612.5117-.31446.0248-.02516.0367-.04704.0459-.06054-.0225-.03292-.0756-.09329-.1953-.17481-.1299-.08841-.3067-.17465-.5254-.25488-.0942.11116-.223.2273-.3975.33008-.3589.21143-.8759.35351-1.6191.35351s-1.2602-.14208-1.61914-.35351c-.17582-.10357-.30602-.22008-.40039-.33203M11.5 3.75c-.3106 0-.5714.03933-.75.08789v1.31153c.1259.04499.3569.10058.75.10058s.6241-.05559.75-.10058V3.83789c-.1786-.04856-.4394-.08789-.75-.08789m4.9697 3.78028c.2929-.29281.7677-.29281 1.0606 0l1.9394 1.93945c.2925.2929.2927.76777 0 1.06057-.2929.2929-.7686.2929-1.0615 0l-1.9385-1.93948c-.2928-.2929-.2928-.76767 0-1.06054M20.25 5.5c.4142 0 .75.33579.75.75s-.3358.75-.75.75h-2.5c-.4142 0-.75-.33578-.75-.75s.3358-.75.75-.75zm-1.8418-4.03027c.2929-.29289.7686-.29289 1.0615 0 .2927.29277.2925.76764 0 1.06055l-1.9394 1.93945c-.2929.29282-.7677.29282-1.0606 0-.2928-.29288-.2928-.76765 0-1.06055z"/>
</svg>
