<svg xmlns="http://www.w3.org/2000/svg" width="24" height="24" viewBox="0 0 24 24">
  <path fill="currentColor" d="M17.7178 4.24901c.1073-.39983.518-.63726.9179-.53027.4001.1072.6375.51884.5303.91894l-1.2734 4.75c.1259-.0353.2521-.0743.3779-.12402.5338-.21082 1.056-.20447 1.5254-.0127.4474.18288.789.50947 1.041.84274.497.6576.7787 1.5134.8975 2.0889.0836.4054-.1769.8017-.5821.8857-.4056.0838-.8029-.1774-.8867-.583-.0939-.4545-.3125-1.0726-.6259-1.4873-.1532-.2025-.2956-.3121-.4112-.3593-.0935-.0382-.2151-.0554-.4072.0205-.4542.1794-.8986.2877-1.3584.332l-.6006 2.2451c.0484.008.094.0137.1377.0137.5952 0 .8916-.179 1.0381-.3203.1637-.1581.2095-.3349.2139-.3975.0287-.4131.3866-.7248.7998-.6963.4131.0286.7247.3867.6962.7998-.0129.1867-.0624.3979-.1523.6143h1.8135c.2084 0 .4079.0866.5498.2392.1417.1527.2134.3577.1982.5655-.0848 1.1566-.242 3.0415-1.0078 4.6435-.3889.8135-.9487 1.585-1.7607 2.1514-.7674.5351-1.719.8582-2.878.8965l-.2343.0039H7.72363l-.23437-.0039c-1.15893-.0383-2.11053-.3614-2.87793-.8965-.81203-.5664-1.37182-1.3379-1.76074-2.1514-.76581-1.6021-.92301-3.4869-1.00781-4.6435-.01518-.2078.05645-.4128.19824-.5655.14188-.1526.34139-.2392.5498-.2392h1.95801c.35843-.6254.9211-1.3875 1.6709-2.0449C7.15769 10.3827 8.43655 9.68066 10 9.68065c1.9415 0 3.3956 1.05105 4.5049 1.95315.3801.3091.7056.5864 1.0107.8291l.4131-1.542c-.1692-.0283-.3432-.0619-.5224-.1026-1.271-.2883-2.8757-.89949-5.1348-1.78609-1.51475-.59432-2.78443-.18386-3.82228.63184-1.06664.83845-1.83939 2.07905-2.21289 2.96195-.16136.3813-.60101.5596-.98242.3984-.38146-.1614-.55975-.601-.39844-.9824.44245-1.0459 1.3485-2.52019 2.66699-3.55666 1.34758-1.05915 3.17113-1.68427 5.29784-.84961.5726.2247 1.095.42824 1.5742.61133.5908.00693 1.3561-.11075 1.8965-.43262.2713-.16167.4582-.35656.5625-.58789.1025-.22737.1582-.56153.044-1.0625-.0921-.40369.1608-.80616.5644-.89844.4036-.09186.8052.16092.8975.56445.1728.75735.122 1.43404-.1387 2.0127-.2589.5744-.6927.98108-1.1621 1.26074-.028.01669-.0575.03096-.0859.04688.2736.08118.5271.15096.7656.20507.2065.04684.3995.07945.581.10547zM3.40821 14.75c.10426 1.0465.30145 2.2675.79589 3.3017.3082.6446.71784 1.186 1.26465 1.5674.54054.377 1.26235.6309 2.25488.6309h8.55277c.9925 0 1.7143-.2539 2.2549-.6309.5468-.3814.9564-.9228 1.2646-1.5674.4945-1.0342.6916-2.2552.7959-3.3017zM10 11.1806c-1.09166.0001-2.03291.4877-2.79101 1.1524-.33198.2911-.61798.6094-.85645.917h1.21387c.17219-.2794.37506-.5657.60742-.8252.33947-.3792.78469-.7572 1.32031-.9395.57806-.1965 1.21626-.1467 1.80766.2676.4526.3172.8383.8222 1.1757 1.4971h1.6299c-.1858-.1542-.3702-.3079-.5488-.4531-1.0854-.8826-2.1811-1.6162-3.5586-1.6163m.4414 1.8008c-.1786-.1251-.3136-.1272-.46386-.0761-.14895.0506-.32531.1645-.51562.3447h1.25778c-.1031-.1255-.197-.2116-.2783-.2686"/>
</svg>
