<svg xmlns="http://www.w3.org/2000/svg" width="24" height="24" viewBox="0 0 24 24">
  <path fill="currentColor" d="M14.7002 7.25c2.256.00022 4.0498 1.87459 4.0498 4.1426-.0001 1.3236-.6103 2.5064-1.5635 3.2666.2332.533.3632 1.1213.3633 1.7402 0 2.4025-1.9481 4.3506-4.3506 4.3506-2.148-.0004-3.93077-1.5582-4.28416-3.6055C6.83362 17.0496 5.25 15.2302 5.25 13.0996c.00019-2.1884 1.67102-4.0498 3.83594-4.0498.7179.00005 1.38556.20858 1.95506.56543.6475-1.39224 2.0337-2.36515 3.6592-2.36523m-1.501 6.2998c-1.0147.0003-1.9034.5323-2.4082 1.3311.0537-.0245.11-.0453.169-.0606.4037-.412 1.0757-.4119 1.4795 0 .5574.1443.8923.7245.7382 1.2793.1546.5551-.1806 1.136-.7382 1.2803-.4038.4117-1.0758.4118-1.4795 0-.2182-.0565-.402-.1803-.5362-.3428.2897 1.2667 1.4211 2.2125 2.7754 2.2129 1.574 0 2.8506-1.2766 2.8506-2.8506-.0003-1.5737-1.2768-2.8496-2.8506-2.8496m-1.1025 2.7275.0625.0059-.0654-.0068zm-3.01076-5.7275c-.55365 0-1.07758.2168-1.48828.5859.37994-.2175.87667-.168 1.20312.1495.5203.1466.83356.6899.70117 1.2138.13333.5244-.18054 1.0679-.70117 1.2149-.38754.377-1.01503.3774-1.40234 0-.29962-.0848-.52995-.3011-.64649-.5694.0211 1.368 1.00605 2.4024 2.16504 2.4951.21558-1.2226.94143-2.2688 1.95021-2.9111-.1399-.42-.2168-.8693-.2168-1.3359 0-.0605.0014-.1208.0039-.1807-.4207-.4172-.97241-.662-1.56836-.6621M14.7002 8.75c-1.3889.00011-2.5498 1.16364-2.5498 2.6426 0 .2652.0377.5203.1074.7607.3032-.0669.6181-.1034.9414-.1035.0851 0 .17.003.2539.0078a1.03 1.03 0 0 1-.0908-.082c-.555-.1446-.8893-.7235-.7363-1.2764-.1522-.5523.1812-1.1305.7353-1.27537.4025-.40995 1.0727-.40936 1.4756 0 .5551.14421.8888.72257.7363 1.27537.1533.5535-.1812 1.1325-.7373 1.2764-.1168.1186-.2567.2011-.4052.251.7423.2186 1.4014.6307 1.9209 1.1767.5465-.4826.8983-1.2009.8984-2.0107 0-1.47889-1.161-2.64238-2.5498-2.6426m-6.60254 3.749.00097.001.00196.001.00097-.002-.00097-.001h-.00196zM16.5 1.25c1.2426 0 2.25 1.00736 2.25 2.25 0 .38218-.0965.74143-.2646 1.05664C19.8174 5.13202 20.75 6.45673 20.75 8v11c0 2.0711-1.6789 3.75-3.75 3.75H7c-2.07107 0-3.75-1.6789-3.75-3.75V8c0-1.54295.93205-2.86779 2.26367-3.44336C5.3457 4.24153 5.25 3.88201 5.25 3.5c0-1.24264 1.00736-2.25 2.25-2.25zM7 5.75C5.75736 5.75 4.75 6.75736 4.75 8v11c0 1.2426 1.00736 2.25 2.25 2.25h10c1.2426 0 2.25-1.0074 2.25-2.25V8c0-1.24264-1.0074-2.25-2.25-2.25zm.5-3c-.41421 0-.75.33579-.75.75s.33579.75.75.75H8v-1.5zm2 1.5H11v-1.5H9.5zm3 0H14v-1.5h-1.5zm3 0h1c.4142 0 .75-.33579.75-.75s-.3358-.75-.75-.75h-1z"/>
</svg>
