<svg xmlns="http://www.w3.org/2000/svg" width="24" height="24" viewBox="0 0 24 24">
  <path fill="currentColor" d="M13.0918 10.9531c.46-.0129 1.0053.038 1.5811.3252 1.2303.6141 1.5556 1.8465 1.5556 2.8994-.0001.6575-.3038 1.457-.7168 2.0918-.4015.6171-1.0607 1.313-1.9287 1.4356-1.1622.1641-1.7801.1267-2.7764.0019-.7799-.0978-1.44197-.6927-1.87203-1.291-.4465-.6212-.78501-1.4379-.78516-2.2383 0-.9953.26218-2.3636 1.60352-2.9209.91947-.3818 1.82407-.2285 2.29687-.2285.1184 0 .2527-.0123.4356-.0303.1715-.0168.3837-.0386.6064-.0449m-.3096 1.5225c-.0168.1896-.105.3731-.2617.5058-.316.2676-.7889.2279-1.0566-.0878l-.003-.003-.0029-.0039c-.002-.0024-.0045-.0049-.0068-.0078-.0049-.0059-.0104-.0135-.0166-.0215a1.5 1.5 0 0 1-.045-.0615 1.6 1.6 0 0 1-.1171-.1992c-.0136-.0274-.027-.0588-.0411-.0928-.322-.0102-.5782.0027-.9033.1377-.44663.1856-.67869.675-.67869 1.5361.00017.4068.18731.9231.50289 1.3623.3323.4623.6706.6573.8409.6788.9042.1132 1.3836.1416 2.3798.0009.2115-.0298.5532-.2625.8819-.7676.3169-.487.4734-1.0034.4736-1.2744 0-.8037-.2374-1.314-.7256-1.5576-.2836-.1414-.5612-.1766-.8691-.168-.1152.0033-.229.0121-.3516.0235M14 1.25c.9665 0 1.75.7835 1.75 1.75 0 .69772-.4093 1.29804-1 1.5791v2.09668l3.3525 1.03223C19.676 8.19215 20.75 9.6467 20.75 11.293V19c0 2.0711-1.6789 3.75-3.75 3.75H7c-2.07107 0-3.75-1.6789-3.75-3.75v-7.707c0-1.6463 1.07399-3.10085 2.64746-3.58499L9.25 6.67578V4.5791c-.59072-.28106-1-.88138-1-1.5791 0-.9665.7835-1.75 1.75-1.75zm-3.25 5.98047c0 .32918-.2147.6199-.5293.7168L6.33789 9.14258C5.39408 9.43322 4.75 10.3054 4.75 11.293V19c0 1.2426 1.00736 2.25 2.25 2.25h10c1.2426 0 2.25-1.0074 2.25-2.25v-7.707c0-.9876-.6441-1.85978-1.5879-2.15042l-3.8828-1.19531c-.3146-.0969-.5293-.38762-.5293-.7168V4.75h-2.5zM10 2.75c-.13807 0-.25.11193-.25.25s.11193.25.25.25h4c.1381 0 .25-.11193.25-.25s-.1119-.25-.25-.25z"/>
</svg>
