<svg xmlns="http://www.w3.org/2000/svg" width="24" height="24" viewBox="0 0 24 24">
  <path fill="currentColor" d="M14.9824 9.99023c.4197 0 .7607.49857.7608 1.11327 0 .3871-.1362.7273-.3409.9268.5139.072.9842.2769 1.3799.5752-.0047-.2864.1415-.6248.416-.8994.4347-.4345 1.0275-.5456 1.3243-.2491.2967.2968.1854.8895-.2491 1.3242-.2749.275-.6138.4202-.9004.4151.2986.3957.503.8659.5752 1.3799.1995-.2047.5408-.3398.9278-.3399.6147.0001 1.1132.3411 1.1133.7608-.0003.4196-.4987.7597-1.1133.7597-.3871 0-.7284-.1351-.9278-.3398-.0722.514-.2766.9841-.5752 1.3799.2865-.0051.6246.1404.8995.415.4347.4347.5468 1.0284.25 1.3252-.2969.2964-.8897.1845-1.3243-.25-.2747-.2748-.4209-.6129-.416-.8994-.3786.2854-.8253.4848-1.3134.5644.1668.2129.2744.5327.2744.8907-.0001.6408-.3411 1.1601-.7608 1.1601-.4194-.0004-.7596-.5195-.7597-1.1601 0-.3576.1059-.6778.2724-.8907-.4642-.076-.8914-.26-1.2578-.5234-.0321.2689-.1829.5716-.4365.8252-.4532.453-1.0617.5799-1.3584.2832-.2966-.2968-.1697-.9052.2832-1.3584.2533-.2533.5555-.4051.8242-.4375-.2631-.3663-.4485-.7929-.5244-1.2568-.2129.1659-.5318.2724-.8887.2724-.6406-.0002-1.1599-.3402-1.16014-.7597.00005-.4196.51944-.7606 1.16014-.7608.3571 0 .6768.1064.8897.2725.076-.4639.2603-.8906.5234-1.2568-.2686-.0325-.5709-.1833-.8242-.4366-.453-.453-.5796-1.0615-.2832-1.3584.2968-.2968.9051-.1699 1.3584.2832.2534.2535.4042.5555.4365.8243.3839-.276.8344-.4653 1.3242-.5342-.2041-.1996-.3388-.5403-.3388-.9268.0001-.6144.3402-1.11286.7597-1.11327m0 3.51077c-.826.0003-1.496.67-1.4961 1.4961.0003.8259.6702 1.4958 1.4961 1.4961.8262 0 1.4959-.67 1.4961-1.4961-.0001-.8263-.6698-1.4961-1.4961-1.4961M10.7363 1.94629c2.8471 0 5.0927.73087 6.6416 1.99902 1.5604 1.27779 2.3545 3.05554 2.3545 4.99707 0 .29223-.0204.58119-.0566.86621 1.4142 1.28011 2.3027 3.13071 2.3027 5.18851-.0002 3.8637-3.1323 6.9961-6.9961 6.9961-3.6312-.0003-6.61686-2.7673-6.96287-6.3077-1.92035-.3801-3.44604-1.177-4.51855-2.2939-1.17165-1.2203-1.76075-2.777-1.76075-4.44922.00005-1.94149.79417-3.71928 2.3545-4.99707 1.54888-1.26826 3.7945-1.99896 6.64157-1.99902m4.2461 7.55469c-3.0352.00027-5.49598 2.46082-5.49607 5.49612.00023 3.0351 2.46097 5.4958 5.49607 5.4961 3.0353 0 5.4959-2.4609 5.4961-5.4961-.0001-3.0354-2.4607-5.49612-5.4961-5.49612m-4.2461-6.05469c-2.60208.00006-4.47971.66793-5.69138 1.66016-1.19999.98279-1.80464 2.32805-1.80469 3.83593 0 1.30582.4535 2.48392 1.34278 3.41012.77615.8084 1.9173 1.4559 3.45508 1.8047.41483-3.4678 3.36491-6.15597 6.94431-6.15622 1.1717 0 2.2759.28874 3.2461.79785-.0373-1.44971-.6388-2.74088-1.8008-3.69238-1.2117-.99219-3.0892-1.66016-5.6914-1.66016"/>
</svg>
