<svg xmlns="http://www.w3.org/2000/svg" width="24" height="24" viewBox="0 0 24 24">
  <path fill="currentColor" d="M11.6699 15c.4142 0 .7499.3359.75.75-.0001.4141-.3358.75-.75.75h-1.4551c-.41375-.0004-.74984-.3361-.74996-.75.00014-.4138.33622-.7496.74996-.75zm4.1455-13.10642c.4105-.05426.7874.2341.8418.64453.319 2.4125-.2199 4.03922-1.1982 5.04493-.0287.02948-.0597.05675-.0889.08496 1.0367.28247 1.9205.71223 2.6367 1.27148C19.375 10.008 20.082 11.5059 20.082 13.1494c-.0001 1.6436-.707 3.1416-2.0752 4.21-.961.7504-2.2233 1.2682-3.7529 1.5068-.4649.5331-.444 1.3428.0635 1.8506.2928.2929.2929.7687 0 1.0615-.2929.2923-.7678.2925-1.0606 0-.7494-.7494-.9935-1.8117-.7363-2.7666-.0907.0017-.1823.0049-.2744.0049-.1107 0-.2205-.0034-.3291-.0058.4145 1.0691.1929 2.3285-.6699 3.1914-.293.2925-.7688.2927-1.0616 0-.27428-.2745-.29071-.7094-.0507-1.0039l.1533-.17c.3632-.4455.4286-1.0524.1973-1.5566-.2131.7991-.88028 1.4365-1.75005 1.5674-.40931.0612-.79188-.2206-.85351-.6299-.06143-.4092.22091-.7905.62988-.8525.35016-.0527.59161-.3804.53906-.7305-.01088-.0727-.00763-.1445.00195-.2139-1.00681-.2824-1.8671-.7061-2.56738-1.2529-1.36824-1.0684-2.07506-2.5664-2.07519-4.21.00003-1.6435.70708-3.1414 2.07519-4.20992 1.35396-1.05721 3.30463-1.65816 5.76075-1.6582.0253 0 .0509.00084.0762.00097a.756.756 0 0 1 .1435-.00488c.54.03346 1.3317-.13785 1.918-.74023.5645-.58038 1.0648-1.69306.7861-3.80176-.0542-.41039.2353-.78717.6455-.8418m-3.5693 6.8877c-2.2263.00004-3.81975.54486-4.8379 1.33982-.34701.271-.63255.5762-.8584.9072.04736.2455.23391.5288.64258.7793.46341.2839 1.14036.4706 1.917.4434.41387-.0145.76168.3088.77636.7227.01443.4138-.30974.7618-.72363.7763-1.02944.0361-2.00503-.2058-2.75293-.664-.16846-.1033-.3291-.2211-.47754-.3516-.0139.1364-.02148.275-.02148.415.00013 1.1824.49474 2.2438 1.49804 3.0274 1.01814.795 2.6115 1.3398 4.8379 1.3398 2.2262 0 3.8187-.5449 4.8369-1.3398.4985-.3893.8708-.8475 1.1201-1.3545-.6716.3037-1.4703.461-2.3056.4316-.4138-.0146-.7381-.3626-.7237-.7763.0146-.4139.3626-.7381.7764-.7237.7766.0273 1.4535-.1586 1.917-.4423.4578-.2806.6341-.6026.6514-.8663-.1608-.8981-.6358-1.6996-1.4356-2.3242-1.0182-.79481-2.6108-1.3398-4.8369-1.33982"/>
</svg>
