<svg xmlns="http://www.w3.org/2000/svg" width="24" height="24" viewBox="0 0 24 24">
  <path fill="currentColor" d="M12.332 1.99707c.8973.00017 1.7087.37513 2.2832.97461.286-.08472.5891-.12988.9004-.12988 1.7458.00046 3.1619 1.41627 3.1621 3.16211 0 .10644-.0062.21225-.0166.3164.2519.18533.4748.40822.6621.65918.1057-.11169.2114-.21844.3164-.3164.3042-.28364.6834-.57884 1.0918-.69532.6897-.19622 1.1285.3421 1.254.67383.5416 1.43418.9474 4.4964-1.6329 6.5107-.3978.3105-.7955.5478-1.1855.6807.0879.3129.1667.6295.2295.9473.2224 1.1258.2756 2.3141-.043 3.4082-.3258 1.1185-1.0305 2.0989-2.2353 2.7822-1.1826.6704-2.8033 1.0312-4.9395 1.0313-2.136-.0001-3.75594-.361-4.93847-1.0313-1.20513-.6833-1.91044-1.6635-2.23632-2.7822-.31859-1.0941-.26539-2.2824-.04297-3.4082.03111-.1575.06581-.3151.10351-.4717-.44142-.0925-.90521-.3272-1.39258-.6738-2.66758-1.8976-2.3983-4.97461-1.92089-6.43168.11072-.33715.52569-.89528 1.22363-.72949.38002.09054.73674.33124 1.02734.56836.03283.02679.06468.05578.09766.08399.44675-.67441 1.14469-1.16855 1.96094-1.34668.31064-1.42039 1.57467-2.48438 3.08886-2.48438.20048.00006.39767.01956.58887.05567.57022-.81637 1.51942-1.35346 2.59372-1.35352M6.86719 13.4932c-.17907.521-.33072 1.0526-.43457 1.5781-.19617.9931-.21538 1.9182.01172 2.6982.22014.7553.68074 1.412 1.53515 1.8965.76212.432 1.8695.7438 3.44921.8184v-2.2256c-.7338-.2379-1.2519-.8132-1.2519-1.4863.0004-.8852.8965-.8018 2.0019-.8018 1.1053 0 2.0025-.0833 2.0029.8018 0 .6731-.5191 1.2484-1.2529 1.4863v2.2256c1.5797-.0746 2.6871-.3863 3.4492-.8184.8544-.4845 1.316-1.1411 1.5362-1.8965.227-.7799.2069-1.7052.0107-2.6982-.0909-.4598-.2191-.9239-.3691-1.3818-.5508.4672-1.2611.7527-2.0401.7529-.2829 0-.5587-.038-.8213-.1084-.262.0702-.537.1083-.8193.1084-.3569 0-.7015-.0609-1.0234-.1709-.3439.1278-.7156.1991-1.1016.1992-.4623-.0001-.9031-.1005-1.3008-.2803-.3973.1795-.83791.2802-1.29979.2803-.89803 0-1.70662-.3764-2.28222-.9775M12.332 3.49707c-.5679.00006-1.0702.28523-1.3711.72266-.3278.47667-.9216.71776-1.48824.60644-.10379-.02043-.21219-.03119-.32325-.03125-.79937 0-1.46893.56536-1.62695 1.31836-.11753.56158-.56647 1.01102-1.12793 1.12891-.75321.15763-1.31898.82663-1.31934 1.62597 0 .91109.73322 1.65134 1.64161 1.66214.41617.0051.77031.3431.7705.7793.00026.9176.74441 1.6611 1.66211 1.6611.2522-.0001.48998-.0561.70215-.1553l.14453-.0576c.34251-.1157.72101-.0968 1.05181.0576.2122.0992.4499.1552.7021.1553.2117-.0001.4134-.0394.5977-.1103.2725-.1049.5715-.1211.8525-.0489l.251.0762c.1345.0353.2767.0547.4238.0547.1556-.0001.3061-.0213.4473-.0606l.1845-.038c.1246-.017.2515-.017.376 0l.1856.038.1074.0264c.1089.0225.223.0342.3398.0342.9175-.0005 1.6621-.7446 1.6621-1.6621.0002-.4152.2063-.8045.5479-1.0381l.1572-.1221c.349-.30542.5684-.75366.5684-1.25194-.0003-.55546-.273-1.04779-.6944-1.35058-.4197-.30171-.6469-.81375-.5898-1.32715l.0107-.18652c-.0002-.91741-.7447-1.66165-1.6621-1.66211-.1711 0-.3357.02616-.4892.07324-.524.1609-1.106.00732-1.4825-.39356-.304-.32365-.7343-.52424-1.2119-.52441M3.03906 8.19434c-.25196 1.24587-.12241 3.06206 1.50196 4.21776.44152.314.72047.4145.86718.4365.03319.005.05717.0066.07129.0059.00887-.0005.01547-.0023.01856-.0029l.00293-.001s.00214-.0049.0039-.0068c.04492-.1265.09149-.2521.13867-.376.03319-.1802.04731-.394.04102-.6201-1.22842-.434-2.10938-1.6026-2.10938-2.97954.00003-.05627.00393-.11242.00684-.16796-.18859-.19553-.36634-.36391-.52832-.4961-.00448-.00364-.01023-.00622-.01465-.00976m17.62404-.43457c-.2235.20849-.471.48379-.7285.7998.0098.10146.0165.20455.0166.30859 0 1.04011-.5046 1.96184-1.2774 2.53714-.0092.2373-.0487.4673-.1074.6885.0425.1049.0848.2111.126.3183.1509-.0526.3918-.172.7383-.4424 1.5702-1.2264 1.6192-3.04603 1.3125-4.27927-.0248.02191-.0531.04418-.0801.06934"/>
</svg>
