<svg xmlns="http://www.w3.org/2000/svg" width="24" height="24" viewBox="0 0 24 24">
  <path fill="currentColor" d="M21.4092 9.25002a.7515.7515 0 0 1 .5429.23242c.1413.14818.2156.34825.2061.55276-.0851 1.8233-.2395 4.6646-.9678 7.0586-.3645 1.1981-.8917 2.3485-1.6767 3.209-.7552.8274-1.7424 1.3751-2.9854 1.4404l-.2519.0068H7.72363l-.25195-.0068c-1.2431-.0652-2.23012-.6129-2.98535-1.4404-.78514-.8606-1.31217-2.0108-1.67676-3.209-.72828-2.394-.88269-5.2352-.96777-7.0586-.00947-.20445.06491-.40459.20605-.55276.14146-.14809.33817-.23235.54297-.23242zM5.86719 19.5567c.5018.4413 1.1021.6933 1.85644.6933h8.55277c.5204 0 .9678-.1201 1.3603-.3388zm-1.62207-2.9004c.15088.4959.3263.9542.52441 1.3662l14.05757.4248c.0581.0018.1142.0112.168.0254.2542-.4391.4723-.948.6602-1.5098l-15.44534-.4287c.01193.0407.02288.0817.03516.1221m-.45703-3.1758c-.06151.0015-.12115-.007-.17871-.0195.06371.5194.14258 1.045.24121 1.5625l16.20701.4502c.1718-.7947.2917-1.6185.3789-2.419zM3.37988 10.75c.02249.4091.04966.8445.08594 1.2949.087-.0384.18319-.0608.28418-.0634l16.8184-.4307c.019-.2753.0376-.5434.0517-.8008zM13.5303 5.9092c.2928-.29237.7677-.29239 1.0605 0 .7237.72369.7237 1.8984 0 2.62207-.2928.29215-.7678.29228-1.0605 0-.2927-.29271-.2924-.76858 0-1.06152.1373-.13778.1373-.36124 0-.49902-.2925-.29284-.2926-.76871 0-1.06153M9.49121 4.58987c.2929-.29289.76859-.29289 1.06149 0 .2927.29278.2925.76766 0 1.06054-.3593.35965-.3595.9432 0 1.30274.2926.29284.2926.76772 0 1.06054-.2929.29263-.76868.29278-1.06149 0-.94502-.9453-.94494-2.47847 0-3.42382m2.07229-2c.2928-.29267.7677-.29268 1.0605 0 .9849.98497.9849 2.58241 0 3.56738-.2928.29242-.7678.29257-1.0605 0-.2928-.29276-.2925-.76762 0-1.06055.3991-.39918.3991-1.0471 0-1.44629-.2927-.29282-.2926-.76768 0-1.06054"/>
</svg>
