<svg xmlns="http://www.w3.org/2000/svg" width="24" height="24" viewBox="0 0 24 24">
  <path fill="currentColor" d="M9.58496 14.251c.36377.0002.61734.2141.72954.3232.1338.1304.246.288.3359.4336.1833.2969.356.6761.5029 1.0567.2855.7396.5436 1.6721.5576 2.2685.0261 1.1309-.6341 2.4168-1.97555 2.417-1.34673-.0002-2.07584-1.2951-2.0293-2.4639.02222-.553.20827-1.4552.43946-2.2031.11665-.3773.25734-.7566.41504-1.0547.07734-.1461.17712-.308.30273-.4424.09408-.1004.29262-.2813.58887-.3252zm-.00586 2.3056c-.21216.6866-.35803 1.4514-.37305 1.8243-.01229.3107.07596.5488.18262.6904.10113.134.20929.1786.31153.1787.10095 0 .21266-.0434.3184-.1875.1114-.1523.1998-.4053.1923-.7295-.0078-.3296-.188-1.0633-.45602-1.7578-.03349-.0868-.06708-.1704-.10058-.249a8.3 8.3 0 0 0-.0752.2304m3.8496-7.55855c.4496-.19696 1.0171-.09785 1.3447.34082l.0664.09863.1133.20312c.2613.50238.5099 1.19918.7178 1.85158.2447.768.4578 1.5563.5928 2.0791.2055.7981-.4047 1.5498-1.2061 1.5498h-2.1699c-.531-.0002-1.0522-.3466-1.1924-.9248-.1696-.7015-.2775-1.6671-.1006-2.6094.1797-.9555.6704-1.94943 1.7403-2.54295zm.3115 1.58695c-.3628.3179-.5729.7583-.6709 1.2793-.1103.5878-.0684 1.228.0352 1.7568h1.6191c-.1275-.4798-.2952-1.0863-.4824-1.6738-.1688-.53-.3433-1.0076-.501-1.3623M13.1357.45898c.4139.04808.7444.25648.9825.53223.2517.29186.3985.65208.4902.9707.1528.53107.2007 1.1297.2236 1.5586h.0977c1.005.00004 1.8201.81434 1.8203 1.81933-.0001.55565-.2509 1.05191-.6436 1.38575.3961.43411.8182.95315 1.1983 1.52539.684 1.02994 1.2988 2.32442 1.2988 3.64652v7.5029c.0233.5417-.0729 1.3443-.4726 2.0449-.435.7619-1.2225 1.3769-2.4414 1.377H8.30957c-1.21872-.0002-2.00553-.6152-2.44043-1.377-.39742-.6965-.49437-1.4935-.47266-2.0351v-7.5127c0-1.3221.61485-2.61657 1.29883-3.64652.37993-.57204.80134-1.09138 1.19727-1.52539-.39243-.33384-.64245-.83032-.64258-1.38575.00017-1.00501.81527-1.81931 1.82031-1.81933h.09668c.02319-.42891.07282-1.02751.22559-1.5586.09171-.31857.23754-.67891.48926-.9707.23816-.27595.56906-.48435.98336-.53223l.1827-.01074h1.9042zM9.56641 7.16016c-.46731.43864-1.09148 1.12348-1.6211 1.92089-.6202.93395-1.04883 1.92895-1.04883 2.81645v7.5127a.8.8 0 0 1-.00097.039c-.01781.3455.05067.8575.27637 1.2529.19808.3469.51585.62 1.13769.6202h7.37993c.6221-.0001.9405-.2732 1.1386-.6202.2257-.3954.2942-.9074.2764-1.2529a.7.7 0 0 1-.001-.039v-7.5127c0-.8875-.4286-1.8826-1.0488-2.81645-.5296-.7974-1.1538-1.48225-1.6211-1.92089zm-.4961-2.13965c-.17661.00002-.32014.14275-.32031.31933.00023.17653.14374.3203.32031.32032h5.85939c.1765-.00005.3201-.14381.3203-.32032-.0002-.17656-.1437-.31929-.3203-.31933zm3.88179-3.07227h-1.9042c-.0024-.00008 0-.01172-.0303.02344-.0507.05893-.1202.1849-.1836.40527-.0584.20299-.0955.4319-.1221.66211h2.5762c-.0266-.2302-.0637-.45912-.1221-.66211-.0634-.22041-.1329-.34635-.1836-.40527-.0298-.03461-.0281-.02391-.0303-.02344"/>
</svg>
