<svg xmlns="http://www.w3.org/2000/svg" width="24" height="24" viewBox="0 0 24 24">
  <path fill="currentColor" d="M13.7373 2.09081c.3966-.39637 1.1093-.53516 1.6338-.07715l.1514.14062c.6612.64986.9994 1.50031 1.1289 2.4043l1.5547-1.55371c.488-.48808 1.2803-.48793 1.7685 0l.9551.95508c.4878.48806.4877 1.27947 0 1.76757L18.96 7.69627c1.0131.07496 1.9863.39239 2.7119 1.11524l.1494.16016c.4645.52595.3217 1.23973-.0733 1.63473l-.6416.6426c-.4613.4611-1.112.4394-1.5341.2695-.7432-.2986-3.0841-.6677-5.9405 2.2881-.1547.2118-.3094.4128-.4648.5996-.0789.0948-.169.1711-.2637.2344l-4.08006 4.7041c-.00793.0091-.01606.0186-.02441.0274-.6951.7256-1.5418 1.2193-2.39453 1.3818-.49629.0945-1.00743.0763-1.48047-.085-.02828.0115-.05768.0222-.08789.0303-.34791.0935-.55477.4518-.46192.7998.10709.4001-.13023.8118-.53027.919-.39989.1069-.81068-.1305-.91797-.5303-.09509-.3551-.09613-.7134-.01758-1.0479-.27652.0338-.56402.0179-.84961-.0586-.39989-.1073-.63745-.5189-.53027-.9189.09565-.356.43223-.5829.78711-.5527-.20845-.1055-.39962-.2547-.55469-.4493-.25756-.3238-.20443-.7966.11914-1.0547.32372-.2579.79643-.2041 1.05469.1192.06067.0761.17188.0889.24805.0283a.8.8 0 0 1 .02832-.0215c.00819-.1141.02298-.2283.04297-.3418.15436-.8748.64902-1.7385 1.39453-2.4306l.04297-.0371 5.33979-4.2442.0059.0078.0537-.0537c2.8284-2.93295 2.8527-5.71619 2.6211-6.59178-.1012-.38316-.111-1.01228.3369-1.46094zM5.63574 16.293c-.53528.501-.83473 1.0723-.92187 1.5664-.08616.4888.0327.8721.28808 1.1279.25506.2548.63506.3706 1.12989.2764.50127-.0956 1.08109-.4066 1.5996-.9454l3.46676-3.997-1.36519-1.3653zM14.1553 3.79491c-.0001.0038-.0012.00815-.001.01269a.266.266 0 0 0 .0078.04883c.3835 1.45014.1599 4.84159-3.1406 8.16697l1.1553 1.1553c.0188-.0273.0406-.0529.0634-.0781.0752-.0827.1508-.1634.2256-.2422.9612-1.334 1.9026-3.20378 2.3975-5.01857.2857-1.04782.4113-2.0345.332-2.86231-.0661-.68879-.2703-1.22736-.6035-1.62011zm4.5556 5.38672c-.8403-.03819-1.8245.12435-2.8496.43457-.1183.3163-.2468.6301-.3828.9394 2.0099-.99503 3.6975-.80589 4.6348-.4355l.3642-.36425c-.4169-.34283-1.0042-.53946-1.7666-.57422M16.626 6.70604c-.0563.40467-.1363.81358-.2373 1.2207a12 12 0 0 1 .2773-.05859c.0014-.00145.0034-.00247.0049-.00391l3.0205-3.0205-.6016-.60157z"/>
</svg>
