<svg xmlns="http://www.w3.org/2000/svg" width="24" height="24" viewBox="0 0 24 24">
  <path fill="currentColor" d="M12 1.25c.9665 0 1.75.7835 1.75 1.75 0 .69772-.4093 1.29804-1 1.5791V6.75l1.8213.8418c.9957.45955 1.7227 1.32169 2.0244 2.34082l2.5566-2.55469c.293-.2926.7678-.2928 1.0606 0 3.2548 3.25517 3.2547 8.53287 0 11.78807-1.0129 1.0129-2.2222 1.7102-3.5049 2.0928-.18.8516-.9348 1.4912-1.8398 1.4912H7c-2.07107 0-3.75-1.6789-3.75-3.75v-8.0039c.00013-1.46257.85075-2.7914 2.17871-3.4043L7.25 6.75V4.5791c-.59072-.28106-1-.88138-1-1.5791 0-.9665.7835-1.75 1.75-1.75zM8.75 7.23047c0 .29254-.16993.55905-.43555.68164L6.05664 8.95312C5.26004 9.3209 4.75013 10.1187 4.75 10.9961V19c0 1.2426 1.00736 2.25 2.25 2.25h4.8994c-1.2719-.3844-2.47029-1.0787-3.47557-2.084-.29276-.2929-.29285-.7677 0-1.0605l6.88087-6.8799H15.25v-.2295c-.0001-.8774-.51-1.6752-1.3066-2.04298l-2.2579-1.04101c-.2656-.12259-.4355-.3891-.4355-.68164V4.75h-2.5zm10.3711 2.29785c2.0523 2.38128 1.9501 5.97938-.3086 8.23828-2.2589 2.2587-5.856 2.3599-8.2373.3076l-.5313.5322c2.6842 2.1559 6.6182 1.9893 9.1084-.5009 2.4899-2.4903 2.6558-6.4235.5-9.10745zm-4.21 8.49508c.9532-.0799 1.8851-.4582 2.6455-1.1357-.1262-.0321-.2468-.0937-.3457-.1924l-1.9179-1.918zm-3.0361-.832c.4729.3387.9968.5748 1.54.7109l.2998-2.5517zm4.6621-3.291 1.7344 1.7344c.0649.065.1133.1398.1494.2187.4219-.6912.6437-1.4695.6641-2.2529zm.1582-1.5293 2.1826-.2568c-.1415-.452-.3542-.8866-.6396-1.2852zM8 2.75c-.13807 0-.25.11193-.25.25s.11193.25.25.25h4c.1381 0 .25-.11193.25-.25s-.1119-.25-.25-.25z"/>
</svg>
