<svg xmlns="http://www.w3.org/2000/svg" width="24" height="24" viewBox="0 0 24 24">
  <path fill="currentColor" d="M17.1973 2.4697c.2928-.29272.7676-.29266 1.0605 0 4.3599 4.35987 4.3598 11.4282 0 15.7881-4.3599 4.3598-11.42821 4.3598-15.78807 0-.2927-.2929-.29283-.7677 0-1.0606zm-.0694 2.19043c2.9387 3.4771 2.7706 8.68437-.5068 11.96187-3.2776 3.277-8.48407 3.4445-11.96094.5059l-.57618.5772c3.79691 3.2551 9.51782 3.0875 13.11332-.5079 3.5954-3.5955 3.7629-9.31634.5078-13.11324zM5.72461 16.0644c1.14295.9325 2.50104 1.467 3.8916 1.6084a.8.8 0 0 1 .00293-.0322l.72856-6.2002zm5.40139 1.6075c1.4398-.1493 2.8428-.7222 4.0088-1.7198l-3.4063-3.4052zm1.5312-6.3184 3.5137 3.5137c.9419-1.2116 1.4518-2.6491 1.5303-4.1065zm-.8095-1.41407 5.7812-.68066c-.1913-1.2651-.7118-2.49022-1.5644-3.53516z"/>
</svg>
