<svg xmlns="http://www.w3.org/2000/svg" width="24" height="24" viewBox="0 0 24 24">
  <path fill="currentColor" d="M6.80762 2.49514c1.11998-.04686 2.23297.40218 3.19528 1.36426 1.1144 1.11453 1.5196 2.41251 1.3184 3.65039.604.05716 1.1996.2596 1.7637.6123.2065-.78538.6516-1.50792 1.2539-2.11035.8069-.80695 1.8269-1.33349 2.9336-1.37988 1.1201-.04688 2.2328.40291 3.1953 1.36523.9623.96238 1.412 2.07525 1.3652 3.19532-.0464 1.10659-.572 2.12769-1.3789 2.93459-1.3177 1.3173-3.4481 1.7974-5.2686.9482-.2253.7105-.6447 1.3624-1.1962 1.9141-.8069.8067-1.8272 1.3325-2.9336 1.3789-.0371.0015-.0744.0005-.1114.001.1918 1.4008-.4238 2.8056-1.40524 3.7871-.80688.8067-1.82712 1.3315-2.93359 1.3779-1.12017.0469-2.23383-.4019-3.19629-1.3643-.96216-.9623-1.41105-2.0763-1.36426-3.1962.04656-1.1063.57235-2.1259 1.37891-2.9327.85998-.8599 1.96389-1.3944 3.13281-1.3818-.05259-.2817-.07343-.5665-.06152-.8516.00644-.1534.02254-.3053.04687-.455-.93784-.0888-1.86344-.5305-2.68261-1.3496-.96202-.96233-1.41105-2.07545-1.36426-3.19536.04644-1.10636.57228-2.12579 1.3789-2.93262.80696-.80695 1.82693-1.33349 2.9336-1.37988m.44433 11.78616c-.93058-.3097-1.92905-.0173-2.76757.8213-.59609.5964-.91277 1.2758-.94043 1.9345-.02688.6454.21882 1.3652.92578 2.0723.70732.7072 1.42774.9528 2.07324.9258.65877-.0278 1.33912-.3432 1.93555-.9395.8975-.8975 1.2312-2.1012.83203-3.0713-.50689-.2273-.99638-.5667-1.45117-1.0214-.23229-.2324-.43473-.4738-.60743-.7217m3.61815-5.28714c-.659.02771-1.33895.34483-1.93553.94141-.59618.59633-.91266 1.27583-.94043 1.93453-.02692.6454.21893 1.3652.92578 2.0723.70718.7071 1.42688.9536 2.07228.9268.6589-.0276 1.339-.3441 1.9355-.9405.5517-.5516.86-1.1753.9258-1.7871l-.0156-.0156.0195-.0205c.0035-.0375.0101-.0749.0117-.1123.027-.6455-.2195-1.366-.9267-2.07326-.7072-.70695-1.4269-.95279-2.0723-.92578m6.4649-2.8623c-.659.02772-1.339.34387-1.9356.94043-.7089.70912-1.0226 1.53299-.9248 2.31348l-.0078.00097c.4979.64526.7888 1.34096.876 2.05076 1.3124.9187 3.0265.6518 4.0508-.372.5962-.5965.9126-1.27685.9404-1.93559.0269-.64546-.2196-1.36501-.9268-2.07227-.7073-.70722-1.4267-.95279-2.0722-.92578M6.87012 3.99416c-.65897.02771-1.33897.34483-1.93555.94141-.59617.59638-.91266 1.27587-.94043 1.93457-.02692.64532.21893 1.36515.92578 2.07227.73833.73823 1.49426.97752 2.17774.91796.21247-.3538.47531-.68421.77636-.98535.53662-.53662 1.16766-.94889 1.85547-1.17871.30001-.85656.15179-1.83735-.78711-2.77636-.70721-.70696-1.42687-.9528-2.07226-.92579"/>
</svg>
