<svg xmlns="http://www.w3.org/2000/svg" width="24" height="24" viewBox="0 0 24 24">
  <path fill="currentColor" d="M10.666 2.84765c1.7546-.2231 3.5711.15132 5.2676 1.26563.0062-.01324.0122-.02692.0185-.04004.2051-.42659.5311-.89151 1.0528-1.11524.4169-.17842.8101-.04844 1.0654.09082.2633.14366.5088.363.7266.59473.4406.469.8992 1.13356 1.3222 1.83985.8438 1.40863 1.645 3.15676 1.9385 4.25195.4365 1.62905.0627 3.30375-.6924 4.72945-.7556 1.4262-1.925 2.6704-3.1992 3.4815-.0061.0038-.0134.0061-.0195.0098-.2109.2415-.4386.4839-.6758.7187-1.1792 1.1673-2.7327 2.3446-3.7842 2.8525-2.4321 1.1743-5.48865.4416-7.86228-1.1084-2.37363-1.5501-4.33907-4.0965-4.37988-6.8964-.01736-1.2068.32643-3.1769.82422-4.79008.2492-.80745.55449-1.58258.90429-2.15039.1733-.28118.38594-.55866.64551-.75488.26907-.20323.64801-.35847 1.08398-.24512l.18262.0625c.03982.01713.07803.03657.11524.05664 1.52122-1.53886 3.42918-2.59438 5.4658-2.85352M4.63184 7.12793c-.05445.05821-.12664.14941-.21094.28613-.25178.40861-.51179 1.04355-.74609 1.80273-.46951 1.52161-.76906 3.32001-.75489 4.30661.03028 2.0791 1.53809 4.2125 3.67871 5.6104 2.1409 1.398 4.64167 1.8819 6.44627 1.0107.8598-.4153 2.2842-1.478 3.3965-2.5791.555-.5494.9912-1.0688 1.2354-1.4824.0976-.1656.1474-.2862.1699-.3633-.1101-.0949-.2932-.1969-.5811-.2812-.3563-.1043-.795-.1608-1.2666-.1817-.9482-.0418-1.8871.0619-2.376.0967-.2248.0159-.4463-.0764-.6005-.249-.1543-.1729-.2243-.4086-.1905-.6387.1501-1.0177.1242-2.3375-.0312-3.4609-.0775-.5597-.1838-1.0441-.3037-1.40041-.055-.16315-.1089-.28407-.1543-.36719-.046.0149-.1062.03812-.1807.07324-.2898.13675-.6678.3895-1.1103.73146-.8862.6848-1.86613 1.5955-2.7227 2.3408-.18224.1584-.42948.2153-.66211.1504-.23277-.0651-.42254-.2441-.50781-.4775-.449-1.2303-1.00777-2.5081-1.5459-3.4932-.27014-.49451-.52364-.89523-.74414-1.17383-.09356-.11815-.1742-.20243-.2373-.26074M17.4492 4.4541c-.0503.05609-.1145.14631-.1836.29004-.1281.2667-.2327.62674-.3144 1.04004-.1642.83095-.2039 1.69729-.2412 2.15429-.021.25326-.1616.48035-.375.60645-.2136.12606-.4725.13391-.6905.02148-.866-.44658-2.0127-.8228-3.0029-1.02246-.4953-.09983-.9255-.1496-1.2432-.14941-.0414.00004-.0795.00331-.1142.00488.001.00409.0018.00851.0029.0127.04.15293.1025.33445.1836.54004.0206-.01018.0411-.02064.0615-.03028.2162-.1019.4566-.18942.7022-.2207.2474-.0314.5615-.01144.8525.17871.2339.15306.3961.3751.5078.56836.117.20254.2141.43561.2949.67578.162.48098.2864 1.06918.3721 1.68848.1278.9232.1787 1.9788.1231 2.9521.4795-.0313 1.068-.0561 1.6543-.0302.5301.0234 1.0949.0886 1.6064.2383.5006.1465 1.0363.3988 1.4072.8623.0567.0708.1007.146.1387.2207.3387-.4081.6406-.851.8867-1.3155.6276-1.1846.8673-2.4425.5625-3.58-.2429-.90551-.9689-2.51696-1.7724-3.85845-.4006-.66874-.7957-1.22829-1.1299-1.58398-.1204-.12805-.2177-.21159-.2891-.26367m-1.9658 1.18555c-1.514-1.11261-3.1147-1.46732-4.6396-1.27344-1.65874.21118-3.27028 1.07669-4.59282 2.40429.21614.31219.43361.6725.64453 1.0586.43185.79057.86665 1.73533 1.25293 2.6924.64384-.57207 1.35774-1.20303 2.00876-1.70607.0158-.01222.032-.02497.0479-.03711-.1411-.33492-.26082-.65784-.33693-.94922-.05826-.22315-.1032-.47117-.09668-.71289.00644-.23549.06611-.57765.33301-.84473.2087-.20861.4683-.29778.6592-.3418.2051-.04725.429-.06428.6504-.06445.4452-.00026.9751.06743 1.5224.17774.7618.15355 1.6103.40399 2.3946.71484.0345-.34621.0826-.73424.1523-1.11816"/>
</svg>
