<svg xmlns="http://www.w3.org/2000/svg" width="24" height="24" viewBox="0 0 24 24">
  <path fill="currentColor" d="M12.4043 1.68555c1.7198 0 3.3033.41405 4.4727 1.34277 1.1937.94829 1.873 2.36839 1.873 4.18164-.0001.89028-.1443 1.58248-.375 2.1709-.2268.57836-.5292 1.02974-.7852 1.41404-.2627.3946-.4771.7195-.6377 1.1221-.1559.3911-.2695.8829-.2695 1.583-.0001 1.6756-.3751 3.0262-1.1387 3.9717-.2616.3239-.5615.5879-.8896.7978.0013.0022.0026.0047.0039.0069a.98.98 0 0 1 .0361.0683c.005.0102.0097.0201.0137.0293l.0088.0205.001.003.001.0009c-.0059.0032-.0682.0288-.6973.2774l.6973-.2754c.0345.0876.0527.1812.0527.2754v2.1562c-.0002.4024-.2459.6671-.4131.7989-.1756.1381-.3835.2307-.5732.2939-.3878.1291-.8765.1963-1.3809.1963-.5045-.0001-.9932-.0671-1.3809-.1963-.1897-.0633-.3977-.1556-.5732-.2939-.1672-.1319-.4129-.3966-.4131-.7989v-2.1562c0-.0941.0183-.1879.0527-.2754l.6973.2754-.6963-.2774.002-.0039c.0007-.0018.0012-.0048.0019-.0068.0018-.0042.0039-.0092.0059-.0137a.8.8 0 0 1 .0137-.0293c.0099-.0205.0221-.0442.0361-.0683.0013-.0023.0026-.0055.0039-.0078-.32762-.2099-.62729-.4733-.88868-.7969-.76354-.9455-1.13859-2.2962-1.13867-3.9717 0-.7002-.11355-1.1919-.26953-1.583-.16061-.4027-.37577-.7273-.63867-1.1221-.25596-.3843-.55743-.83571-.78418-1.41404-.23071-.58845-.37495-1.28055-.375-2.1709 0-1.81317.67938-3.23335 1.87305-4.18164 1.16919-.92865 2.75208-1.34266 4.47168-1.34277m0 17.20115c-.4703.0001-.7337.0719-.8672.126v1.5c.1992.0601.5035.1083.8672.1084.3635 0 .6679-.0484.8672-.1084v-1.5c-.1337-.0541-.3971-.126-.8672-.126m-.3516-1.5195c.113.0115.2303.0195.3516.0195.1372 0 .269-.0107.3955-.0254l.6914-7.98825c-.5269.61363-1.4868.5697-1.957-.08301zm.3516-14.18165c-1.5018.00011-2.71657.36341-3.53907 1.0166-.79791.63393-1.30566 1.60202-1.30566 3.00781.00005.71859.11476 1.2232.27148 1.62305.16075.40999.37598.73933.63672 1.13086.25377.38103.55532.82863.78223 1.39743.2316.5808.37695 1.2625.37695 2.1387.00008 1.4765.33259 2.4446.80465 3.0293.0226.028.0458.0554.0694.082l-.52444-8.16989c-.07989-1.244 1.49224-1.80475 2.22754-.85743l.0684.09668.2939.45313.2725-.33496.0752-.08496c.7956-.83383 2.2451-.2112 2.1425.97851l-.6796 7.83492c.4717-.5848.8055-1.5516.8056-3.0273 0-.876.1445-1.5579.376-2.1387.2269-.5689.5294-1.0164.7832-1.39743.2607-.39147.476-.72098.6367-1.13086.1567-.39983.2714-.90454.2715-1.62305 0-1.40597-.5076-2.37388-1.3057-3.00781-.8226-.65333-2.0379-1.0166-3.54-1.0166"/>
</svg>
