<svg xmlns="http://www.w3.org/2000/svg" width="24" height="24" viewBox="0 0 24 24">
  <path fill="currentColor" d="M19.5664 8.60547h-1v-.97559h1zM15.7334 2.25c1.9122.00021 3.4379.63433 4.4824 1.73145 1.0377 1.09009 1.5352 2.56778 1.5352 4.13671-.0001 1.57631-.5135 2.99384-1.5117 4.02834-.6297.6524-1.4298 1.1267-2.3623 1.3974l3.6533 3.6534c.2928.2928.2927.7676 0 1.0605-4.3599 4.3599-11.4282 4.3598-15.78811 0-4.35976-4.3599-4.35985-11.42822 0-15.78807.29289-.2927.76771-.29278 1.06054 0L10.123 5.79004c.3205-.8449.8316-1.59892 1.5381-2.19434 1.0223-.86133 2.4012-1.3457 4.0723-1.3457M6.29492 4.08398c-3.25509 3.79689-3.08753 9.51782.50781 13.11332 3.59557 3.5954 9.31737 3.7632 13.11427.5078l-.5781-.5781c-3.4769 2.9384-8.6825 2.772-11.95999-.5049-3.27735-3.2774-3.44605-8.48482-.50782-11.96194zM14.3809 17.6406c.0012.0108.0011.0216.0019.0323 1.3911-.1414 2.7503-.6756 3.8936-1.6084l-4.625-4.625zm-5.51567-1.6885c1.16597.9977 2.56897 1.5705 4.00877 1.7198l-.6025-5.126zm-2.56738-5.1914c.07843 1.4575.58931 2.8949 1.53125 4.1065l3.5127-3.5127zM15.7334 3.75c-1.3748 0-2.3947.39345-3.1055.99219-.6623.55813-1.1009 1.33538-1.2959 2.25683l5.2715 5.27148c1.1099-.1206 1.9618-.5508 2.5557-1.166.6884-.7134 1.0917-1.73674 1.0918-2.98634 0-1.25723-.3967-2.33939-1.1221-3.10156-.7187-.75486-1.8275-1.26639-3.3955-1.2666M7.93457 5.72363C7.08206 6.76855 6.5614 7.99376 6.37012 9.25879l5.78128.68066z"/>
</svg>
