<svg xmlns="http://www.w3.org/2000/svg" width="24" height="24" viewBox="0 0 24 24">
  <path fill="currentColor" d="M11.8506 2c.4139.00025.7498.33611.75.75v1.70508c.2714-.42306.6519-.8199 1.164-1.09082.6775-.35818 1.9184-.79243 3.0147-1.06543.551-.13719 1.1058-.24391 1.5615-.27442.224-.01494.4638-.0149.6817.02735.1831.03559.5491.13837.7568.49804.2035.35335.1221.72835.0693.90821-.0638.21718-.1725.43723-.289.63769-.237.40744-.5852.86985-.9619 1.31446-.741.87439-1.7189 1.82409-2.4082 2.24218-.7776.47132-1.6505.51904-2.334.4043-.3455-.05807-.6691-.16194-.9385-.29492-.0994-.04913-.2086-.11493-.3164-.19238v2.37597c.6725-.66558 1.5972-1.07706 2.6182-1.07715 2.0557.00025 3.7224 1.66694 3.7226 3.72264-.0002 2.0558-1.6669 3.7224-3.7226 3.7227-.1459 0-.2902-.01-.4317-.0264.4745.6249.7568 1.4049.7568 2.25-.0004 2.0555-1.667 3.7224-3.7226 3.7227-2.05569-.0002-3.72221-1.6671-3.72267-3.7227.00004-.8451.28137-1.6252.75586-2.25-.14122.0163-.28509.0264-.43066.0264-2.05586-.0001-3.72246-1.6668-3.72266-3.7227.00017-2.0558 1.66678-3.72254 3.72266-3.72264 1.0509.00013 1.99997.43632 2.67677 1.13674V2.75c.0002-.41392.3361-.74981.75-.75m-.0293 14.3145c-1.2275.0001-2.22257.9951-2.22267 2.2226.00046 1.2272.99537 2.2225 2.22267 2.2227 1.2271-.0003 2.2222-.9956 2.2226-2.2227-.0001-1.2274-.9952-2.2224-2.2226-2.2226m-3.39747-5.9463c-1.22745.0001-2.22249.9952-2.22266 2.2226.0002 1.2274.99522 2.2226 2.22266 2.2227 1.22731-.0003 2.22247-.9954 2.22267-2.2227-.0002-1.2273-.99535-2.2224-2.22267-2.2226m6.79497 0c-1.2274.0001-2.2225.9952-2.2227 2.2226.0002 1.2274.9953 2.2225 2.2227 2.2227 1.2273-.0003 2.2224-.9954 2.2226-2.2227-.0002-1.2273-.9953-2.2224-2.2226-2.2226m2.9199-6.80277c-.2898.03922-.6397.10928-1.0205.2041-1.0373.25829-2.1506.65775-2.6797.9375-.3884.20554-.6646.59389-.8174 1.01856-.0749.2085-.1112.40227-.1191.54687-.0018.03366.0023.06135.0029.08301.0185.01119.0414.0282.0713.04297.1296.06391.3161.12707.5361.16406.4494.07532.939.02617 1.3272-.20898.4769-.2893 1.3265-1.08729 2.0371-1.92579.264-.31159.4923-.60766.6621-.8623"/>
</svg>
