<svg xmlns="http://www.w3.org/2000/svg" width="24" height="24" viewBox="0 0 24 24">
  <path fill="currentColor" d="M16.5889 2.37599c.3576.01163.7274.11939 1.0771.2705.7041.30434 1.4772.85226 2.1797 1.55469.7024.70246 1.2513 1.47563 1.5557 2.17969.1509.34949.2578.71975.2695 1.07715.0096.29924-.0513.63967-.2578.93262l.0156.01562L8.12012 21.7158c-.63551.6353-1.56968.5663-2.2959.3243-.77372-.258-1.59337-.7898-2.31054-1.5069-.71723-.7173-1.2489-1.5377-1.50684-2.3115-.24191-.7261-.31083-1.6596.32422-2.2949l1.06055 1.0605c-.01839.019-.14649.2068.03808.7608.16992.5094.55644 1.1364 1.14453 1.7246.58823.5881 1.2151.9746 1.72461 1.1445.55409.1847.74072.0555.75977.0371l4.0166-4.0176c-.6911-.3082-1.44523-.8466-2.13184-1.5332-.68761-.6876-1.22718-1.4428-1.53515-2.1347l-4.01563 4.0175-.53125-.5293-.5293-.5312L15.6406 2.6172l.0147.01465c.293-.20623.6344-.26551.9336-.25586M8.61817 11.7588c-.00058.0096-.0015.0226-.00098.0391.00345.1056.0407.2841.14746.5312.21211.4906.6363 1.1109 1.23925 1.7139.603.603 1.2232 1.0271 1.7139 1.2392.2471.1068.4256.144.5312.1475.0145.0005.0261-.0025.0352-.0029l6.7588-6.75784c-.6912-.30818-1.4462-.8456-2.1328-1.53223-.6875-.68749-1.2262-1.4429-1.5342-2.13477zm7.97073-7.87891c.0117.10824.0517.27002.1435.48243.2121.4906.6354 1.11092 1.2383 1.71386.6029.60282 1.2233 1.02612 1.7139 1.23828.2116.09144.3732.1297.4814.14161-.0119-.10818-.0503-.26925-.1416-.48047-.2121-.49065-.6363-1.11084-1.2392-1.71387-.6029-.60279-1.2224-1.0271-1.7129-1.23926-.2125-.09181-.3752-.13082-.4834-.14258"/>
</svg>
