<svg xmlns="http://www.w3.org/2000/svg" width="24" height="24" viewBox="0 0 24 24">
  <path fill="currentColor" d="M15.5869 18.9707a4.53 4.53 0 0 1-.5869.0381c-.1986 0-.3946-.013-.5869-.0381l.1289-.9912c.1495.0195.3027.0293.458.0293s.3084-.0098.458-.0293zm-2.7178-1.6846c.2409.1851.507.3392.7911.4571l-.3829.9238c-.3659-.1518-.7081-.3502-1.0175-.5879zm4.8711.793c-.3094.2377-.6516.4361-1.0175.5879l-.3829-.9238c.2841-.1179.5502-.272.7911-.4571zm-5.9746-2.2305c.1179.284.272.5503.4571.791l-.793.6094c-.2377-.3093-.4361-.6517-.5879-1.0176zm7.3926.3828c-.1518.3659-.3502.7083-.5879 1.0176l-.793-.6094c.1851-.2407.3392-.507.4571-.791zm-7.6289-2.1806c-.0195.1494-.0293.3028-.0293.458s.0098.3086.0293.458l-.9912.1289a4.53 4.53 0 0 1-.0381-.5869c0-.1985.0131-.3948.0381-.5869zm7.9326-.1289c.025.1921.0381.3884.0381.5869s-.013.3948-.0381.5869l-.9912-.1289c.0195-.1494.0293-.3028.0293-.458s-.0098-.3086-.0293-.458zm-7.2392-1.544c-.1851.2409-.3393.507-.4571.791l-.9238-.3828c.1518-.3659.3502-.7082.5879-1.0175zm6.3476-.6093c.2377.3093.4361.6516.5879 1.0175l-.9238.3828c-.1178-.284-.272-.5502-.4571-.791zm-4.9101-.4942c-.2841.1179-.5502.272-.7911.457l-.6093-.7929c.3094-.2378.6515-.4361 1.0175-.5879zm3.0625-.9238c.366.1518.7081.3501 1.0175.5879l-.6093.7929c-.2409-.185-.507-.3391-.7911-.457zM15 10.0088c.1987 0 .3946.013.5869.0381l-.1289.9912c-.1496-.0195-.3026-.0293-.458-.0293s-.3084.0098-.458.0293l-.1289-.9912c.1923-.0251.3882-.0381.5869-.0381M9.13574.82422c.4139.04806.74438.25646.98246.53223.2517.29185.3985.65209.4902.9707.1527.53106.2017 1.12972.2246 1.55859h.0967c1.005.00003 1.8201.81433 1.8203 1.81934-.0002.5524-.248 1.04612-.6367 1.37988.2497.26903.5091.57334.7627.90527.6695-.21476 1.3832-.33103 2.124-.33105 3.8368.0001 6.9472 3.11042 6.9473 6.94722-.0004 3.8366-3.1107 6.9472-6.9473 6.9473-.244 0-.4852-.0135-.7227-.0381-.1408.3177-.3374.6345-.6132.9073-.4759.4703-1.135.7646-1.9746.7646H4.30957c-1.21866-.0002-2.00553-.6152-2.44043-1.377-.39739-.6964-.49435-1.4935-.47266-2.0351v-7.5127c0-1.3221.61488-2.61655 1.29883-3.64649.3799-.57199.80137-1.0914 1.19727-1.52539-.39236-.33381-.64242-.8304-.64258-1.38574.00016-1.005.81528-1.8193 1.82031-1.81934h.09766c.02318-.42887.07187-1.02755.22461-1.55859.0917-.31858.23754-.67891.48926-.9707.23822-.27601.56904-.48437.98339-.53223l.18262-.01074h1.9043zM5.56641 7.52539c-.46729.43865-1.09152 1.12354-1.6211 1.9209-.62016.93391-1.04883 1.92901-1.04883 2.81641v7.5127a.8.8 0 0 1-.00097.0391c-.01779.3454.0507.8575.27636 1.2529.19809.3468.51593.6199 1.1377.6201h7.37993c.4615 0 .7366-.1501.9199-.3311.053-.0523.1018-.1117.1465-.1757-2.7352-.9333-4.70285-3.5232-4.70317-6.5743.00007-2.5465 1.37068-4.77285 3.41407-5.98238-.3633-.44355-.7321-.81738-1.0361-1.09863zM15 9.15918c-3.0084.0001-5.44717 2.43882-5.44727 5.44722.0004 3.0082 2.43907 5.4472 5.44727 5.4473 3.0082-.0001 5.4469-2.4391 5.4473-5.4473C20.4472 11.598 18.0084 9.15928 15 9.15918M5.07031 5.38574c-.1766.00004-.32015.14276-.32031.31934.0003.17646.14379.32028.32031.32031h5.85939c.1765-.00002.32-.14384.3203-.32031-.0002-.17658-.1437-.31931-.3203-.31934zm3.88184-3.07226h-1.9043c-.00238 0 .00025-.01194-.03027.02343-.05072.05895-.12017.18492-.1836.40528-.05836.20297-.09548.43192-.12207.66211h2.57618c-.02659-.23017-.06372-.45915-.12207-.66211-.06344-.22037-.13288-.34634-.1836-.40528-.0304-.03523-.02794-.02352-.03027-.02343"/>
</svg>
