<svg xmlns="http://www.w3.org/2000/svg" width="24" height="24" viewBox="0 0 24 24">
  <path fill="currentColor" d="M13.2188 3.32231c.1894.01035.3819.06002.5498.11426.3429.1109.7406.29612 1.123.5.7598.40517 1.6041.95967 2.0498 1.36035.0617.05553.119.1143.1729.17383.476-.71316 1.215-1.25309 2.1171-1.45801.4037-.09138.8057.16183.8975.56543.0915.40371-.1618.80564-.5654.89746-.788.1791-1.3566.80765-1.499 1.55371 1.3747.01266 2.4071.63493 3.0703 1.58301.6478.92673.9198 2.12215.9199 3.28805 0 1.5708-.0819 3.2108-1.3203 4.293-.6117.5344-1.4406.8757-2.5059 1.0625-.6486.1137-1.4032.171-2.2783.1768l.6728.6728c.2924.2927.2923.7677 0 1.0606-3.2552 3.2552-8.53367 3.2549-11.78902 0-3.25501-3.2554-3.25516-8.5329 0-11.78813.29283-.29267.76769-.29261 1.06055 0L8.2959 9.77934c.09135-.39244.24187-.7504.4541-1.07129.37303-.5638.89917-.96088 1.4951-1.2373.8191-.37975 1.8207-.55372 2.8799-.62403-.1375-.2393-.2688-.48319-.3838-.7168-.1967-.39987-.3715-.81473-.4746-1.17187-.0505-.17501-.0949-.37286-.1025-.56543-.0061-.1541.0008-.51147.2705-.79004l.1064-.09375c.2544-.19087.5431-.19382.6778-.18652M5.39355 8.99809c-2.15578 2.68401-1.98904 6.61711.50098 9.10741 2.4903 2.49 6.42347 2.6567 9.10747.501l-.5313-.5313c-2.3812 2.0517-5.97861 1.9498-8.2373-.3086-2.25844-2.2587-2.36135-5.857-.30957-8.23824zm.56739 4.60251c.02932 1.1269.47401 2.2454 1.33398 3.1055.79227.7919 1.80372 1.2302 2.83888 1.3174l-.46876-3.9863zm5.66996 4.3018c.5432-.1361 1.0671-.3723 1.54-.711l-1.8398-1.8398zm2.542-9.59474c-1.3797.01736-2.5118.1595-3.2969.52344-.4046.18765-.6884.4221-.875.7041-.18511.27979-.31056.6607-.31057 1.2041-.00004.1253-.03451.2419-.08887.3457l4.80864 4.8076c1.5403.0839 2.695.0373 3.5595-.1142.9-.1578 1.4395-.4197 1.7774-.7149.6605-.5772.8076-1.5064.8076-3.1631-.0001-.9604-.2275-1.8264-.6485-2.42868-.3996-.57136-.9956-.94314-1.8837-.94336-.0448-.00002-.0893-.00515-.1319-.01269-.0984.10399-.2278.18167-.3779.21582-.0833.01889-.1667.01948-.2471.01074-.1979.1453-.4258.2175-.5937.25391-.2405.05203-.5145.06902-.794.04687-.5354-.04257-1.1891-.23972-1.705-.73535M6.80859 10.8291a4.533 4.533 0 0 0-.64062 1.2852l2.18262.2568zm7.25781-5.37984c.3642.74009.8304 1.46023 1.1055 1.73828.2022.20388.5062.31872.8203.34375.1225.00969.231.00067.3144-.01172.0104-.08265.0177-.18859.0059-.30761-.0307-.3079-.149-.59485-.3516-.77735-.3211-.28855-1.0499-.77786-1.7558-1.15429-.0985-.0525-.1942-.10187-.2852-.14649.0447.10045.0931.20678.1465.31543"/>
</svg>
