<svg xmlns="http://www.w3.org/2000/svg" width="24" height="24" viewBox="0 0 24 24">
  <path fill="currentColor" d="M20.2676 2.64551c.414 0 .7496.33611.75.75 0 1.17898-.4367 2.2552-1.1553 3.0791 1.7653 2.97693 1.0133 7.08799-2.127 10.22849-1.8568 1.8568-4.875 3.1787-7.6474 3.7842-1.39541.3047-2.77275.4386-3.95704.3525-1.15379-.0838-2.26425-.3863-2.96973-1.0918-.72404-.7242-.94879-1.7923-.9248-2.872.02443-1.0988.30744-2.3484.75293-3.6045.88986-2.5089 2.48964-5.20445 4.2998-7.01466C10.926 2.62012 15.866 2.18471 18.8369 5.15527c.0295.02948.0572.06095.0859.09082.3733-.52207.5948-1.16003.5948-1.85058.0004-.41369.3363-.74967.75-.75m-2.4912 3.57031c-2.2125-2.21209-6.1865-2.13844-9.42679 1.10156-1.62848 1.62853-3.11887 4.12322-3.94629 6.45602-.41295 1.1645-.64725 2.2491-.66699 3.1358-.02011.9057.18315 1.4759.48535 1.7783.32081.3208.98348.58 2.01758.6553 1.00421.0729 2.23335-.0383 3.52929-.3213 2.61095-.5703 5.32425-1.797 6.90625-3.3789 2.7031-2.7033 3.201-5.91669 2.0078-8.1924-.6917.40235-1.4957.63378-2.3535.63378-.4137-.00059-.75-.33615-.75-.75.0001-.41374.3364-.74941.75-.75.5262 0 1.0225-.12869 1.46-.35449-.0043-.00436-.0084-.00934-.0127-.01367"/>
</svg>
