<svg xmlns="http://www.w3.org/2000/svg" width="24" height="24" viewBox="0 0 24 24">
  <path fill="currentColor" d="M12.1221 9.83594c.2925.00755.5543.18526.6699.45406l1.1103 2.583 2.6163-1.0722c.2369-.0971.5074-.0664.7168.081.1826.1291.2975.3321.3154.5518l.001.0957v.0088a.7.7 0 0 0-.001.0166c-.0008.0134-.0023.0323-.0039.0547-.0034.0462-.0091.1118-.0176.1924-.0171.162-.0465.3903-.0967.6611-.0999.5391-.2846 1.2705-.6279 2.0098-.3243.6982-.8036 1.4161-1.4854 1.9863.1399.1359.2282.3257.2286.5361.0004.414-.335.7502-.7491.751l-1.9941.0029v1.46c-.0003.414-.336.75-.75.75s-.7497-.336-.75-.75v-1.457l-2.00099.0048c-.41403.0008-.74996-.335-.75098-.749-.0004-.2384.11195-.4492.28516-.5869-.65689-.5638-1.12058-1.2661-1.4375-1.9482-.34331-.7393-.52896-1.4707-.62891-2.0098-.05016-.2708-.07956-.4991-.09668-.6611-.00849-.0805-.01416-.1462-.01757-.1924-.00165-.0224-.0031-.0413-.00391-.0547-.00037-.0062-.00075-.0125-.00098-.0166v-.0088c-.01183-.2587.11097-.5055.32422-.6523a.7493.7493 0 0 1 .72461-.0694l2.43943 1.0654 1.2901-2.6181.0547-.0938c.1422-.20696.3808-.33156.6367-.32516m-.9512 4.34276c-.1772.3589-.6057.5154-.9727.3555l-1.82711-.7988c.09054.3455.2145.7282.38965 1.1054.5416 1.1657 1.50176 2.2275 3.34176 2.2276 1.8398-.0002 2.7993-1.062 3.3409-2.2276.1812-.3903.3073-.7866.3984-1.1416l-2.0518.8418c-.3783.1549-.8117-.0221-.9736-.3974l-.7598-1.7666zM13.1357.82422c.4138.0481.7445.2565.9825.53223.2517.29183.3985.65212.4902.9707.1527.53103.2007 1.12974.2236 1.55859h.0977c.2981.00004.5788.07314.8271.2002.5135-.73956 1.3684-1.2246 2.3369-1.22461 1.5704.00013 2.8437 1.2734 2.8438 2.84375-.0003 1.41715-1.038 2.58898-2.3945 2.80469.3178.3722.6394.82281.9599 1.37793.1901.3295.2964.7901.3633 1.2461.0708.4828.1114 1.061.1211 1.6904.0194 1.2599-.0819 2.7771-.3242 4.2442-.2408 1.4571-.6292 2.9197-1.2139 4.038-.5672 1.0849-1.4525 2.081-2.7597 2.0811H8.30957c-1.29592-.0003-2.16625-1.0136-2.72168-2.0937-.57616-1.1208-.9644-2.5863-1.20801-4.0459-.24518-1.4693-.35194-2.9871-.34082-4.2432.00559-.6275.04047-1.2032.10645-1.6817.06194-.449.16316-.9088.35156-1.2353.74092-1.28325 1.60857-2.00955 2.41992-2.52735.26813-.17108.53814-.32488.78125-.46094-.27857-.31967-.44811-.73715-.44824-1.19433.00016-1.00501.81527-1.81932 1.82031-1.81934h.09668c.02318-.42887.07285-1.02754.22559-1.55859.0917-.31854.23758-.67894.48926-.9707.23816-.27592.56916-.48436.98336-.53223l.1827-.01074h1.9042zM9.53906 7.52539c-.2576.19365-.52972.35731-.78906.50488-.35486.20192-.6792.37384-1.02539.59473-.65903.42055-1.33481.98406-1.92871 2.0127-.03264.0569-.10542.2654-.16406.6904-.05466.3965-.08756.9043-.09278 1.4893-.01037 1.1699.08965 2.601.32031 3.9834.23233 1.392.58837 2.684 1.0625 3.6064.49476.9622.98218 1.28 1.3877 1.2803h7.37993c.4355-.0001.9335-.3276 1.4296-1.2764.4787-.9157.8353-2.1996 1.0645-3.5869.2275-1.3773.3218-2.8049.3037-3.9765-.009-.5858-.0459-1.096-.1045-1.4961-.0625-.426-.1393-.6453-.1787-.7139-.7387-1.27943-1.4188-1.82948-2.0049-2.17286-.3188-.18673-.6031-.3102-.9463-.47851-.2515-.12338-.5239-.26705-.79-.46094zm8.55464-3.16406c-.742.00002-1.3436.60176-1.3437 1.34375.0003.74186.6018 1.34373 1.3437 1.34375.7419-.00013 1.3435-.60195 1.3438-1.34375-.0001-.74193-.6018-1.34362-1.3438-1.34375M9.07031 5.38574c-.17662.00002-.32015.14275-.32031.31934.0003.17647.14378.32029.32031.32031h5.85939c.1764-.00011.32-.1439.3203-.32031-.0002-.17653-.1438-.31923-.3203-.31934zm3.88179-3.07226h-1.9042c-.0024-.00007 0-.01167-.0303.02343-.0507.05897-.1202.18501-.1836.40528-.0584.20296-.0955.43194-.1221.66211h2.5762c-.0266-.23015-.0637-.45916-.1221-.66211-.0634-.22025-.1329-.3463-.1836-.40528-.0293-.03402-.0283-.02423-.0303-.02343"/>
</svg>
