<svg xmlns="http://www.w3.org/2000/svg" width="24" height="24" viewBox="0 0 24 24">
  <path fill="currentColor" d="M11.8828 3.86426c.3969 0 .6681.25037.7852.37304.1437.15067.2671.33584.3691.51368.2074.36184.4057.83028.5772 1.30859.1346.37558.2621.78713.3681 1.19043H19.5c.6903 0 1.2499.55976 1.25 1.25v7.75H22c.4141 0 .7499.3359.75.75v1c-.0001 2.071-1.679 3.75-3.75 3.75H5c-2.07099 0-3.74987-1.679-3.75-3.75v-1c.00013-.4141.33587-.75.75-.75h1.25V8.5c.00013-.69024.55973-1.25 1.25-1.25h5.5137c.0813-.39264.1795-.797.2871-1.17188.1364-.47518.2984-.94388.4765-1.30664.0876-.1781.197-.36707.3311-.52148.097-.11157.3074-.32267.6289-.37402zM2.75 18c.00013 1.2425 1.00744 2.25 2.25 2.25h14c1.2426 0 2.2499-1.0075 2.25-2.25v-.25H2.75zm2-1.75h14.5v-7.5h-4.9971c.0025.04153.007.08208.0078.12109.0154.71742-.1614 1.40721-.5224 1.93851-.3659.538-.9476.9393-1.6856.9394-.737 0-1.3397-.4011-1.7236-.9492-.37887-.5412-.56614-1.24306-.53906-1.97265.00094-.02499.00344-.05096.00488-.07715H4.75zm7.1963-10.35742c-.0675.18543-.1361.39709-.2022.62695-.2546.88694-.4361 1.88794-.455 2.39551-.0168.45252.1035.81564.2627 1.04297.1542.22019.3217.29099.4687.29099.146-.0001.3143-.0701.4707-.29978.1613-.23727.2795-.61342.2695-1.07813-.0102-.4673-.2361-1.43895-.5566-2.333-.085-.237-.1731-.45518-.2578-.64551"/>
</svg>
