<svg xmlns="http://www.w3.org/2000/svg" width="24" height="24" viewBox="0 0 24 24">
  <path fill="currentColor" d="M19.6709 13.3164c.7806.0542 1.3584.5053 1.7559 1.0723.4097.5847.672 1.3438.8496 2.1035.3568 1.5272.4315 3.3333.4726 4.4814.0072.2033-.0678.4015-.209.5479-.1412.1462-.3367.2284-.54.2285H2.58984c-.20321-.0002-.39891-.0823-.54004-.2285-.14103-.1464-.21709-.3448-.20996-.5479.04115-1.148.11681-2.9543.47364-4.4814.17749-.7595.44003-1.5189.8496-2.1035.39726-.5666.97503-1.0176 1.75489-1.0723l.15918-.0059H19.5127zM5.07715 14.8105c-.23221.0004-.45223.1052-.68653.4395-.24859.355-.456.8985-.61621 1.584-.25298 1.0829-.35143 2.355-.40234 3.416h7.55563c-.0509-1.0612-.1493-2.3331-.4023-3.416-.1603-.6859-.3674-1.229-.61622-1.584-.20511-.2926-.39886-.4098-.59961-.4346l-.08691-.0049zm6.31445 0c.2681.5067.4573 1.0937.5947 1.6817.2887 1.2354.3914 2.6533.4424 3.7578h8.7891c-.0509-1.0611-.1494-2.3331-.4024-3.416-.1603-.6859-.3684-1.229-.6172-1.584-.2052-.2928-.3986-.41-.5996-.4346l-.0859-.0049zm-1.1924-9.3603c.4142 0 .7499.33585.75.75v3.19921c-.0001.41413-.3358.74999-.75.74999-.41378-.0004-.74988-.33612-.74998-.74999V6.2002c.00007-.41389.33619-.74958.74998-.75m3.5205 0c.4141.00008.7499.3359.75.75v3.19921c-.0001.41408-.3359.74989-.75.74999-.4139-.0002-.7499-.336-.75-.74999V6.2002c.0001-.41401.3361-.74977.75-.75m-1.7197-4c.8076.00013 1.5117.36545 2.0811.85937.5683.49321 1.0475 1.15062 1.4316 1.8418.7601 1.36803 1.2372 3.03429 1.2373 4.21191-.0002 2.41472-2.2378 4.18632-4.75 4.18652-2.5122-.0002-4.74978-1.7718-4.75-4.18652.0001-1.16543.47812-2.83122 1.2373-4.20117.38374-.69229.86278-1.35246 1.43067-1.84766C10.4867 1.81877 11.1911 1.45033 12 1.4502m0 1.5c-.3334.00012-.7017.14993-1.0967.49414-.3957.34509-.7743.84868-1.10447 1.44433C9.12984 6.09588 8.75011 7.51276 8.75 8.36328c.0002 1.18077.98374 2.30302 2.46 2.60452V4.40039c0-.41407.3359-.74977.75-.75.414.00021.75.33592.75.75v6.58501c1.5206-.2765 2.5398-1.42012 2.54-2.62212-.0001-.86397-.3805-2.2805-1.0488-3.4834-.3301-.59391-.708-1.0943-1.1035-1.4375-.3946-.34231-.7628-.49206-1.0977-.49218"/>
</svg>
