<svg xmlns="http://www.w3.org/2000/svg" width="24" height="24" viewBox="0 0 24 24">
  <path fill="currentColor" d="M15.2002 4.25c1.9436.00009 3.35.9569 4.2471 2.13672.6822.89733 1.0889 1.94758 1.2373 2.86328h.7246c.2062.00002.4032.08542.5449.23535.1416.14998.2158.35166.2041.55765-.0849 1.4894-.2405 3.8483-.9824 5.8437-.3734 1.0042-.9137 1.9691-1.7149 2.6875-.7665.6873-1.7405 1.1196-2.9414 1.1709l-.2431.0049H7.72363l-.24316-.0049c-1.20095-.0513-2.17488-.4835-2.94141-1.1709-.80113-.7184-1.34142-1.6833-1.71484-2.6875-.74194-1.9954-.89748-4.3543-.98242-5.8437-.01175-.20599.06247-.40767.2041-.55765.14164-.14991.33868-.23531.54492-.23535h.72461c.30629-1.75041 1.67415-3.07494 3.49609-3.0752 1.11626.00002 2.26426.33183 3.03711 1.0752.86007-1.57698 2.62077-2.99997 5.35157-3m-11.80958 6.5c.1 1.4122.29495 3.1477.83985 4.6133.32374.8706.75273 1.5935 1.31055 2.0937.54145.4855 1.23777.793 2.18261.793h8.55277c.9449 0 1.6411-.3074 2.1826-.793.5578-.5002.9868-1.2231 1.3105-2.0937.5449-1.4656.7399-3.2011.8399-4.6133zm3.4209-3.0752c-.90988.00024-1.69634.60142-1.96386 1.5752H9.2627c-.00092-.00526-.0031-.01033-.00391-.01562-.14147-.93218-1.02121-1.55955-2.44727-1.55958M15.2002 5.75c-2.9085.00003-4.2751 2.03494-4.4561 3.46582-.0014.01163-.0058.02273-.0078.03418h8.4199c-.1366-.61524-.4281-1.33001-.9033-1.95508-.6695-.88064-1.6634-1.54483-3.0527-1.54492"/>
</svg>
