<svg xmlns="http://www.w3.org/2000/svg" width="24" height="24" viewBox="0 0 24 24">
  <path fill="currentColor" d="M11.3145 19.2715h-1v-.7861h1zm-.8038-2.3096h-.99995v-.7861h.99995zm2.1749-.7861h-1v-.7862h1zm4.2568-.2988h-1v-.7862h1zm-2.4639-.7862h-1v-.7861h1zm-1.5556-.3926h-1v-.7861h1zm5.8798-1.7558h-1v-.7862h1zm1.2305-2.8399h-1v-.78609h1zm-2.0439-.61129h-1v-.78613h1zM12.3242 4.25c2.044.00008 3.3102 1.29574 3.9414 2.58203.8125-.4371 1.8006-.71937 2.7871-.51465 1.2976.26943 2.3216 1.31696 2.8829 3.21192.5512 1.8612.5083 3.6298-.1172 5.1123-.6293 1.4912-1.8237 2.631-3.4502 3.2539-.7461.2857-1.3331.4713-1.8174.6182-.4957.1503-.8394.2478-1.1572.3691-.569.2172-1.0544.5105-1.9434 1.419-1.5113 1.5444-3.61649 1.24-4.98438.2353-1.16766-.8579-1.99911-2.3763-1.55371-3.9805h-.3584l-.19628-.0039c-.96592-.0414-1.75489-.3904-2.37598-.9472-.64621-.5795-1.07619-1.3522-1.37012-2.1426-.58284-1.5676-.70312-3.4133-.76855-4.56056-.01163-.20585.06154-.4087.20312-.55859.14156-.14949.33903-.23428.54492-.23437h.42188c.29717-1.35235 1.38573-2.37305 2.83691-2.37305.8143.00006 1.67159.22532 2.29981.73535.72439-1.19147 2.10268-2.2216 4.17478-2.22168m6.4239 3.53613c-.655-.13592-1.4574.12124-2.1856.62012-.636.43584-1.0375 1.09164-1.4043 1.90035-.1933.4264-.3365.7976-.5342 1.252-.1834.4216-.3917.861-.6572 1.2598-.1295.1945-.343.3178-.5762.333-.7107.0459-1.7071.4812-2.6806 1.1601-.96474.6728-1.76834 1.4875-2.14164 2.1455-.5898 1.0398-.1722 2.1672.78614 2.8711.9609.7058 2.1877.7787 3.0234-.0752.9885-1.0101 1.6496-1.4543 2.4805-1.7715.382-.1457.8025-.2645 1.2568-.4023.4659-.1413 1.0162-.3157 1.7168-.584 1.2675-.4854 2.1432-1.3432 2.6045-2.4365.4651-1.1022.5337-2.5061.0606-4.10352-.4631-1.56309-1.1686-2.04832-1.749-2.16895M3.39356 9.60938c.08084 1.04832.2347 2.28392.62402 3.33102.2442.6566.56215 1.1867.96485 1.5479.38651.3466.88384.5683 1.57128.5683h1.15723c.55341-.709 1.32622-1.4076 2.14063-1.9755.93203-.65 2.02703-1.2053 3.03613-1.378.1232-.2212.2418-.4683.3613-.7431.1592-.366.3538-.8553.543-1.2725.0118-.02614.025-.05184.0371-.07812zm2.45605-2.37305c-.54645 0-1.03922.32018-1.27441.87305h2.94824c-.17161-.50538-.72514-.87296-1.67383-.87305M12.3242 5.75c-2.035.0001-3.03109 1.34225-3.24119 2.35938h5.63279c.099-.12477.2036-.24767.3174-.36524-.4134-1.03517-1.3033-1.99405-2.709-1.99414"/>
</svg>
