<svg xmlns="http://www.w3.org/2000/svg" width="24" height="24" viewBox="0 0 24 24">
  <path fill="currentColor" d="M14.1387 2.25c1.3439 0 2.2499 1.1741 2.25 2.54297-.0001.7154-.2772 1.41454-.6397 1.93262-.1838.2626-.4071.5048-.6601.6875-.0618.04455-.1287.0879-.2002.12793V21.4355c-.0002.4141-.3359.75-.75.75-.4139-.0002-.7499-.336-.75-.75V7.54102a2.08 2.08 0 0 1-.2002-.12793c-.2529-.1827-.4765-.42497-.6602-.6875-.3624-.51805-.6396-1.21736-.6396-1.93262.0001-1.36872.9063-2.5427 2.25-2.54297m0 1.5c-.3128.00028-.7499.28444-.75 1.04297 0 .34832.145.75307.3681 1.07226.1089.15554.2201.26625.3096.33106.0309.02229.0562.034.0723.04199.016-.00798.0412-.01962.0722-.04199.0896-.06476.2007-.17538.3096-.33106.2233-.31923.3681-.72383.3682-1.07226-.0001-.7589-.4373-1.04297-.75-1.04297m5-1.5c1.3439 0 2.2499 1.1741 2.25 2.54297-.0001.7154-.2772 1.41454-.6397 1.93262-.1838.2626-.4071.5048-.6601.6875-.0618.04455-.1287.0879-.2002.12793V21.4355c-.0002.4141-.3359.75-.75.75-.4139-.0002-.7499-.336-.75-.75V7.54102a2.08 2.08 0 0 1-.2002-.12793c-.2529-.1827-.4765-.42498-.6602-.6875-.3624-.51805-.6396-1.21736-.6396-1.93262.0001-1.36872.9063-2.5427 2.25-2.54297m0 1.5c-.3128.00028-.7499.28444-.75 1.04297 0 .34832.145.75307.3681 1.07226.1089.15554.2201.26625.3096.33106.0309.02229.0562.034.0723.04199.016-.00798.0412-.01962.0722-.04199.0896-.06476.2007-.17538.3096-.33106.2233-.31923.3681-.72383.3682-1.07226-.0001-.7589-.4373-1.04297-.75-1.04297m-12.30764.70605c.35443-1.32214 1.53389-2.22185 2.83203-1.87402 1.29791.34802 1.86881 1.7169 1.51461 3.03906-.1852.69098-.6339 1.29459-1.1181 1.70118-.24553.20609-.5238.38216-.81546.49316-.07865.02992-.1633.05592-.25195.07715L4.72071 21.6426c-.123.3953-.54541.6242-.94336.5097-.39792-.1144-.62063-.5284-.49805-.9238L7.54981 7.47852c-.05094-.05106-.099-.10299-.1416-.15528-.19698-.24191-.34948-.53383-.45899-.83496-.216-.59422-.30328-1.34126-.11816-2.03223m2.44336-.4248c-.30213-.08095-.79765.08036-.99414.81348-.09012.33655-.05489.76475.07812 1.13086.06486.17833.1432.31366.21289.39941.02427.02977.04613.04769.05957.05957.01757-.00355.04457-.00799.08008-.02148.10331-.03938.23918-.118.38477-.24024.2982-.25057.54261-.60393.63281-.94043.19624-.73295-.15202-1.12019-.4541-1.20117"/>
</svg>
