<svg xmlns="http://www.w3.org/2000/svg" width="24" height="24" viewBox="0 0 24 24">
  <path fill="currentColor" d="M8.0957 9.18166c.29903-.28616.77308-.27637 1.05957.02246.28642.29886.27608.77291-.02246 1.05958-.64424.6177-1.42316 1.7533-1.64746 3.0967-.216 1.2954.06917 2.8551 1.65918 4.4453.29271.2927.29245.7686 0 1.0615-.29283.2923-.76778.2925-1.06055 0-1.92761-1.9276-2.3749-3.9726-2.07812-5.7529.28898-1.7318 1.26848-3.14512 2.08984-3.93264m6.3633.02246c.2866-.29863.7606-.30884 1.0596-.02246.8214.7875 1.8008 2.20064 2.0898 3.93264.2968 1.7802-.1508 3.8254-2.0781 5.7529-.2929.2924-.7678.2925-1.0606 0-.2927-.2928-.2926-.7686 0-1.0615 1.5898-1.5901 1.8752-3.15 1.6592-4.4453-.2243-1.3435-1.0032-2.479-1.6475-3.0967-.2988-.28658-.3088-.7606-.0224-1.05958m-2.6445.06934c.1889-.04833.3745-.01815.5234.05664.2365.11894.3282.32081.3398.34472.0485.10026.0631.19166.0645.19922.0093.05011.0139.09743.0156.11914.0043.05522.0065.12622.0088.20122.0047.1551.0085.3781.0107.6474.0046.5414.005 1.2951.003 2.1309-.0042 1.6727-.0185 3.6884-.0303 5.0342-.0038.4139-.3429.7466-.7568.7431-.4138-.0039-.7465-.3421-.7432-.7558.0118-1.3441.0262-3.3569.0303-5.0254.002-.8346.0015-1.5813-.003-2.1143-.0022-.2672-.0055-.4763-.0097-.6142-.0015-.0478-.0027-.0826-.0039-.1055-.0425-.23383.0254-.48424.206-.66505l.0557-.04981c.0653-.05342.1611-.11365.2891-.14648m.3496 1.45604c.0071-.0016.0152-.0011.0224-.0029.0188-.0049.0363-.0136.0537-.0195-.0251.0085-.0504.0166-.0761.0224m-.4991-.0596c.0061.003.0134.004.0196.0069a.77.77 0 0 1-.0547-.0283c.0115.0066.0228.0152.0351.0214m-.3379-.3408c.0036.0072.016.0291.0352.0606a.73.73 0 0 1-.04-.0752c.0019.0044.0026.0101.0048.0146m8.2403-8.18357c.2821-.30299.7564-.32011 1.0596-.03809.3029.2821.3199.75639.038 1.05957-.7418.79736-1.4928 1.29816-2.2783 1.56446-.7844.26572-1.5478.279-2.2793.18847-.714-.08843-1.4462-.28418-2.1357-.45312-.4489-.10998-.8966-.20969-1.3535-.28516v1.18262c2.4538.15155 4.3996 1.04781 5.7627 2.47949 1.4924 1.56767 2.2207 3.70423 2.2207 6.00193-.0001 2.2977-.7283 4.4344-2.2207 6.002-1.4994 1.5746-3.7037 2.5049-6.5137 2.5049-2.80993-.0002-5.01444-.9302-6.51368-2.5049-1.49227-1.5676-2.21966-3.7044-2.21973-6.002.00001-2.2975.72756-4.4343 2.21973-6.00193 1.36334-1.43201 3.30999-2.3292 5.76468-2.48047V4.03225c-1.64683-.09875-3.12696-.09471-4.23539-.0625-.6299.01831-1.13927.04562-1.48926.06836a25.5 25.5 0 0 0-.40039.02929c-.04497.00361-.08011.00587-.10254.00782-.01062.00092-.01917.00148-.02441.00195-.0023.00023-.00586.00097-.00586.00097-.41223.03864-.77947-.26455-.81836-.67675-.03852-.41212.26467-.77748.67676-.81641h.00391s.00479-.00069.00781-.00098c.0069-.00063.01767-.00182.03027-.00293.02579-.00225.06397-.00588.11231-.00976.09767-.00783.24058-.01843.42285-.03027.36585-.02377.89397-.0524 1.54394-.07129 1.29941-.03775 3.09661-.03706 5.08496.11425.8788.06693 1.6832.25033 2.4033.42676.7397.18122 1.3607.3462 1.9639.4209.5857.07245 1.1069.05141 1.6133-.12012.5052-.17128 1.0541-.51248 1.6621-1.16601m-6.9492 5.77734c-.0002.41388-.3362.74963-.75.75-.4141-.00011-.7499-.33595-.75-.75V6.86623c-2.08261.14701-3.62671.90777-4.67777 2.01172C5.26031 10.1177 4.6338 11.8597 4.63379 13.8457c.00007 1.9861.62641 3.7281 1.80664 4.9678 1.17339 1.2324 2.96112 2.0389 5.42677 2.0391 2.4658 0 4.2542-.8067 5.4277-2.0391 1.1802-1.2397 1.8066-2.9818 1.8067-4.9678 0-1.9861-.6265-3.728-1.8067-4.96775-1.0508-1.10375-2.5947-1.86448-4.6767-2.01172z"/>
</svg>
