<svg xmlns="http://www.w3.org/2000/svg" width="24" height="24" viewBox="0 0 24 24">
  <path fill="currentColor" d="M17 1.25c.6904 0 1.25.55964 1.25 1.25v1.79102l1.3223 2.2041c.1165.19427.1777.417.1777.64355V21.5c0 .6904-.5596 1.25-1.25 1.25h-13c-.69036 0-1.25-.5596-1.25-1.25V7.13867c0-.22655.06117-.44928.17773-.64355L5.75 4.29102V2.5c0-.69036.55964-1.25 1.25-1.25zM15.25 19c-.6268.4708-1.4057.75-2.25.75H8c-.84426 0-1.62323-.2792-2.25-.75v2.25h9.5zm1.5-10.55957V21.25h1.5V7.20801l-.4336-.72266zM8 11.75c-1.24264 0-2.25 1.0074-2.25 2.25v2c0 1.2426 1.00736 2.25 2.25 2.25h5c1.2426 0 2.25-1.0074 2.25-2.25v-2c0-1.2426-1.0074-2.25-2.25-2.25zm-2.25-.751c.62669-.4706 1.40595-.749 2.25-.749h5c.8441 0 1.6233.2784 2.25.749V9h-9.5zm0-3.79099V7.5h9.8047L16.373 6H6.47461zm1.5-2.84668c0 .04653-.00465.09267-.00977.13867h9.51957c-.0051-.046-.0098-.09214-.0098-.13867V2.75h-9.5z"/>
</svg>
