<svg xmlns="http://www.w3.org/2000/svg" width="24" height="24" viewBox="0 0 24 24">
  <path fill="currentColor" d="M13.3115 19.5586h-1v-.9834h1zm.1963-3.7402h-1v-.9825h1zm-.4834-6.52152h-1v-.98243h1zm.1113-7.62696c.4138.04808.7445.25658.9825.53223.2518.29181.3985.65206.4902.9707.1834.63733.2177 1.37179.2363 1.79395.0082.18595-.0543.36713-.1718.50976.3671.55002.8239 1.34944 1.2138 2.27246.466 1.10324.8602 2.43708.8604 3.76168v8.042c.0176.534-.0405 1.3525-.2998 2.0674-.251.6913-.8133 1.5663-1.9278 1.5664H9.48047c-1.11445-.0001-1.67682-.8751-1.92774-1.5664-.2553-.7039-.31482-1.5077-.2998-2.042v-8.0674c.00019-1.3246.39434-2.65844.86035-3.76168.38972-.9225.84685-1.72149 1.21387-2.27148-.11793-.14272-.18003-.32453-.17188-.51074.01864-.42215.05394-1.15664.23731-1.79395.09173-.31853.23757-.679.48926-.9707.23816-.27579.56926-.48434.98336-.53223l.1827-.01074h1.9042zm1.2227 11.11718c-.5278.0328-1.1536.2823-1.9707.5957-.7412.2843-1.6567.6269-2.542.6026-.36544-.0102-.73523-.0835-1.09277-.2471v1.6992h.95117v.9824h-.95117v2.9766h.95117v.9834h-.90918c.03351.2498.08671.5044.16797.7285.18125.4994.37461.578.51758.5781h5.03903c.143-.0001.3364-.0787.5176-.5781.1725-.4758.2248-1.0874.2109-1.5059-.0002-.0079-.0009-.0164-.0009-.0244v-2.7773h-.5596v-.9824h.5596V13.207c-.1241-.1801-.2434-.2761-.3467-.33-.1327-.0691-.3038-.1046-.542-.0899M10.877 5.75c-.0193.10904-.0613.21605-.1309.31152-.3222.44092-.82821 1.27073-1.25098 2.27149-.42454 1.00508-.742 2.13009-.74219 3.17769v.2813c.04107.0626.08425.1177.125.1689h.47363v.4004c.15821.0771.33264.1184.53516.1241.53708.0147 1.17378-.1999 1.96388-.503.714-.2738 1.601-.6419 2.416-.6924.3174-.0195.6495.006.9756.1104-.0013-.0631-.0024-.1268-.0059-.1904h-.9404v-.9825h.8096c-.1323-.64584-.3462-1.29211-.6006-1.89449-.4228-1.00075-.9288-1.83057-1.251-2.27149-.0696-.09545-.1106-.20251-.1299-.31152zm2.0751-2.59082h-1.9042c-.0021-.00065-.001-.01045-.0303.02344-.0507.05885-.1202.18498-.1836.40527-.0584.20295-.0955.43191-.1221.66211h2.5762c-.0266-.23022-.0637-.45914-.1221-.66211-.0635-.22054-.1329-.34649-.1836-.40527-.0283-.03283-.0285-.02465-.0303-.02344"/>
</svg>
