<svg xmlns="http://www.w3.org/2000/svg" width="24" height="24" viewBox="0 0 24 24">
  <path fill="currentColor" d="M12 10.6787c.7888-.4857 1.8427-.5313 2.6982-.2676 1.047.3232 2.0515 1.193 2.0518 2.6368-.0001.8601-.2073 1.6249-.6045 2.1855-.1963.2769-.4469.5095-.7373.667.0394.218.0621.4413.0713.6562.0238.5573-.0311 1.1621-.1455 1.7207-.1132.552-.2939 1.1064-.5488 1.543-.2127.364-.6089.8629-1.2295.9238l-.127.0059-.165-.0117c-.3693-.0549-.6279-.2891-.7823-.5147-.1627-.2382-.2559-.5242-.3164-.7724-.0993-.4087-.1517-.9114-.1943-1.3867-.0482.4745-.1018.9739-.1934 1.3759-.0551.2417-.1371.5179-.2773.7491-.1248.2054-.3672.4803-.7539.5459l-.1748.0146-.1309-.0078c-.2977-.0346-.53715-.1823-.70603-.332-.19198-.1706-.34407-.3867-.46386-.5987-.24107-.4271-.4256-.9732-.54786-1.5224-.12333-.5545-.19377-1.1576-.18261-1.7159.00439-.2175.02205-.4448.05859-.6679-.29314-.1574-.54632-.392-.74414-.6709-.3972-.5605-.60433-1.3255-.60449-2.1856.00004-1.4441 1.0046-2.3145 2.05176-2.6377.85544-.2637 1.90934-.2179 2.69824.2676m2.2568 1.166c-.6578-.2028-1.3176-.0595-1.6113.2149a.751.751 0 0 1-.5117.2021h-.2676c-.1897-.0002-.373-.0727-.5117-.2021-.2939-.2742-.9537-.4177-1.61134-.2149-.61162.1889-.99291.6-.99316 1.2032.00008.6362.15631 1.0732.3291 1.3173.16632.2345.31372.2607.39941.252.28071-.0287.55419.1036.70699.3408.1526.2376.1594.5415.0166.7852-.0773.132-.1531.4172-.1621.8603-.0084.4216.0452.9048.1465 1.3604.0576.2585.1292.4958.2051.6992.0441-.3083.0819-.6691.1211-1.0615.0564-.5646.1212-1.2052.2451-1.7041.061-.2455.1518-.5254.3057-.7588.1615-.2447.4659-.537.9365-.5371.4755.0001.7796.2984.9385.5498.1492.2367.2336.5193.2881.7636.1106.4967.1607 1.1382.208 1.6973.0415.491.0832.9286.1455 1.2725.1092-.2373.2106-.5501.2842-.9092.0924-.4514.1342-.933.1162-1.3555-.019-.4417-.1002-.7359-.1826-.8769-.1427-.2437-.1361-.5477.0166-.7852.1527-.2373.4262-.3694.707-.3408.0857.0087.233-.0173.3994-.252.1729-.2441.329-.6808.3291-1.3173-.0002-.6031-.3817-1.0142-.9932-1.2032M13.2725.82227c.4181.04208.7674.22755 1.0341.49804.285.28932.4558.65297.5635.98047.1784.54284.2345 1.15345.2608 1.58496h.3711c1.0047.0004 1.8191.81456 1.8193 1.81934-.0002.57071-.2637 1.07942-.6748 1.41308.4313.41918.886.91518 1.2988 1.45899.7775 1.02436 1.4951 2.33315 1.4951 3.68555v7.5127c.0248.5587-.0912 1.3701-.5498 2.0732-.5016.7689-1.371 1.3388-2.6738 1.3389H7.7832c-1.30272-.0001-2.17217-.5701-2.67383-1.3389-.45847-.7031-.57362-1.5145-.54882-2.0732l-.00098-7.5127c0-1.3524.71761-2.66116 1.49512-3.68555.41287-.54389.86748-1.03978 1.29882-1.45899-.41101-.33367-.67463-.84259-.6748-1.41308.00016-1.00495.81535-1.81922 1.82031-1.81934h.3711c.02651-.43159.08323-1.04201.26171-1.58496.10779-.32775.27809-.69106.56348-.98047.26682-.27044.61499-.45604 1.03319-.49804l.1836-.0088h2.1768zM9.14844 7.52539c-.54255.44028-1.27872 1.14126-1.89942 1.95899-.71306.93952-1.18945 1.92112-1.18945 2.77832v7.5127c0 .0145-.00013.0295-.00098.0439-.01932.3278.05538.8232.30762 1.21.2219.3399.61608.6581 1.41699.6582h8.4336c.801-.0001 1.1961-.3182 1.418-.6582.2521-.3867.3259-.8823.3066-1.21a.8.8 0 0 1-.001-.0439v-7.5127c0-.8572-.4764-1.8388-1.1894-2.77832-.6208-.81779-1.357-1.5187-1.8994-1.95899zm-.64942-2.13965c-.17653.00012-.32015.14282-.32031.31934.0003.17641.14386.32019.32031.32031H15.502c.1762-.0004.319-.14407.3193-.32031-.0002-.17635-.1431-.31894-.3193-.31934zm2.41308-3.07226c-.0742 0-.1085.01815-.1494.05957-.0605.06136-.1364.18473-.2061.39648-.0637.194-.104.41298-.1337.63477h3.1562c-.0297-.22164-.0701-.44085-.1338-.63477-.0695-.21124-.1466-.33495-.207-.39648-.0408-.04129-.0757-.05947-.1494-.05957z"/>
</svg>
