<svg xmlns="http://www.w3.org/2000/svg" width="24" height="24" viewBox="0 0 24 24">
  <path fill="currentColor" d="M12 8.84961c.4139.00021.7498.33608.75.75 0 .41409-.336.74979-.75.74999-2.67397.0002-4.84919 2.1822-4.84961 4.8828 0 .4141-.33596.7498-.75.75-.41421 0-.75-.3358-.75-.75C5.65081 11.7117 8.48925 8.84982 12 8.84961M12 6.25c4.8706 0 8.75 4.1585 8.75 9.2002 0 1.2579-.2409 2.2774-.7432 3.0781-.5086.8108-1.24 1.3242-2.082 1.6465-.8272.3166-1.7764.4547-2.7627.5186-.9873.0639-2.0692.0566-3.1621.0566s-2.17481.0073-3.16211-.0566c-.98631-.0639-1.93548-.202-2.76269-.5186-.84198-.3223-1.57337-.8357-2.08204-1.6465-.50229-.8007-.74311-1.8202-.74316-3.0781C3.25 10.4085 7.12938 6.25 12 6.25m0 1.5c-3.96593 0-7.25 3.4085-7.25 7.7002.00005 1.0747.20658 1.7905.51367 2.2803.30097.4797.74195.8121 1.34766 1.0439.62049.2375 1.39538.3618 2.32324.4219.92682.06 1.94933.0537 3.06543.0537s2.1386.0063 3.0654-.0537c.9279-.0601 1.7028-.1844 2.3233-.4219.6057-.2318 1.0467-.5642 1.3476-1.0439.3071-.4898.5137-1.2056.5137-2.2803 0-4.2917-3.2841-7.7002-7.25-7.7002"/>
</svg>
