<svg xmlns="http://www.w3.org/2000/svg" width="24" height="24" viewBox="0 0 24 24">
  <path fill="currentColor" d="M11.1885 6.25c.3847.00027.6434.24198.7461.34961.1295.13585.2373.29968.3242.45117.1773.30927.344.70569.4873 1.10547.2799.78092.5297 1.75536.543 2.36915.0103.481-.1281.9113-.3213 1.2666.2415-.0111.4977-.0113.7422.0049.2842.0188.5841.0582.8388.1289.1253.0348.2726.0863.4092.166.1209.0706.3454.2278.4463.5215l.0303.1103c.0518.2528-.0204.4699-.0703.5869-.0631.1476-.1518.2766-.2315.377-.1624.2043-.3797.4093-.5928.5879-.4181.3504-.9606.7167-1.3398.8789-.4727.2018-.9412.1269-1.293-.0088v4.4844c-.0001.4139-.336.7498-.75.75-.4141 0-.7498-.3359-.75-.75v-4.2754c-.41861.0823-.92035.0813-1.3779-.165-.26343-.142-.53097-.3737-.75977-.6026-.23948-.2397-.4815-.5218-.69043-.8057-.20582-.2797-.39881-.5864-.52343-.874-.06171-.1424-.11912-.3085-.14258-.4814-.02169-.1601-.02775-.4248.13086-.6836l.06543-.0928c.1585-.2011.36839-.3056.51269-.3594.17466-.065.35812-.0962.51856-.1123.32406-.0324.6974-.0157 1.04882.0205a9 9 0 0 1 .23438.0274c-.06678-.2307-.10454-.4801-.09473-.7442.02135-.57342.20153-1.51856.42774-2.3066.11389-.39672.24996-.7933.40236-1.10351.0746-.15174.1708-.31942.292-.45899.0981-.1129.3456-.36217.7373-.3623m-2.34377 6.668c.16904.2297.36433.4579.55078.6445.19691.197.34536.3094.41797.3486.05993.032.22502.0581.49702-.0361.1213-.042.2306-.0972.3096-.1494.0178-.0118.0318-.0237.043-.0322.0021-.0131.007-.0299.0088-.0498.0079-.0882.004-.2001-.0186-.3125-.0511-.2539-.1536-.3405-.1933-.3584-.2473-.1088-.86407-.2569-1.47855-.3204a5.65 5.65 0 0 0-.33399-.0244c.05653.0905.12255.1885.19727.2901m4.09377.375c-.2218.0153-.3613.0436-.4141.0615-.0086.003-.0328.0148-.0683.0527-.0371.0395-.0764.0978-.1094.1699a.84.84 0 0 0-.0371.0967c.0236.016.0501.0332.0791.0479.0654.0329.1243.0496.167.0547.0384.0045.0556-.001.0556-.001.154-.066.4561-.2571.7608-.4902-.1491-.003-.2977-.0016-.4336.0078m-1.7393-4.67581c-.2093.72947-.356 1.54641-.3711 1.95211-.0091.247.1034.5078.2891.7276.0628.0743.1289.1323.1846.1767.0563-.0458.1232-.1058.1875-.1836.1871-.2268.3054-.5026.2998-.7646-.0079-.3654-.1892-1.15315-.4532-1.88966a8.7 8.7 0 0 0-.0781-.20996c-.0191.06152-.0397.12564-.0586.19141M11.5 1.25c.6045.00017 1.1088.42962 1.2246 1h4.6621c.6608.00039 1.2073.51513 1.2471 1.1748l.7031 11.6895c.2076-.073.4306-.1143.6631-.1143 1.1044.0002 2 .8955 2 2 0 .5983-.2643 1.1335-.6807 1.5.4164.3665.6807.9017.6807 1.5 0 1.1045-.8956 1.9998-2 2-.1269 0-.2508-.0145-.3711-.0371-.1836.4587-.6313.787-1.1601.7871H3.53125c-.7197-.0002-1.29125-.6067-1.24805-1.3252l1.08301-18 .0127-.12207c.09527-.60004.61491-1.05236 1.23437-1.05273h4.66211c.11583-.57041.62005-.99983 1.22461-1zm-7.7041 20h14.4082l-.0264-.4297c-.0235-.0523-.0453-.1056-.0644-.1601-.3183.2137-.7011.3397-1.1133.3398-1.1044-.0002-2-.8955-2-2s.8956-1.9998 2-2c.3487.0001.6775.0891.9629.2461L17.1514 3.75H12.75v.75c0 .69024-.5598 1.24981-1.25 1.25h-1c-.69019-.00019-1.25-.55976-1.25-1.25v-.75H4.84863zM20 19.5c-.1577.0001-.2971.0744-.3887.1885l.041.6699c.09.0873.2125.1415.3477.1416.276-.0002.5-.224.5-.5s-.224-.4998-.5-.5m-3-1c-.276.0002-.5.224-.5.5s.224.4998.5.5c.276-.0002.5-.224.5-.5s-.224-.4998-.5-.5m3-2c-.276.0002-.5.224-.5.5s.224.4998.5.5c.276-.0002.5-.224.5-.5s-.224-.4998-.5-.5M10.75 4.25h.5v-.5h-.5z"/>
</svg>
