<svg xmlns="http://www.w3.org/2000/svg" width="24" height="24" viewBox="0 0 24 24">
  <path fill="currentColor" d="M5.83301 10c.55213 0 .99977.4479 1 1-.00023.5521-.44787 1-1 1-.55206-.0001-.99977-.448-1-1 .00023-.552.44794-.9999 1-1M18 9.54102c.5523.00001 1 .44775 1 .99998-.0002.5521-.4479 1-1 1s-.9998-.4479-1-1c0-.55223.4477-.99997 1-.99998M12.1016 8.2666c.5522.00001.9999.44781 1 1-.0003.55208-.4479 1-1 1-.5522 0-.9998-.44791-1-1 .0001-.5522.4477-.99999 1-1m1.4589-4.30957c.5523.00009 1 .44777 1 1-.0003.55189-.448.99991-1 1-.552 0-.9996-.44805-1-1 0-.55228.4478-1 1-1M12.2666.67773c2.7642.00001 5.0755 1.88536 5.8418 4.44532 2.3821.51573 4.1414 2.69397 4.1416 5.26655-.0002 2.0473-1.1172 3.8461-2.7734 4.7549-.1771 1.5719-.4761 3.2236-1.0245 4.5313-.5453 1.3002-1.4483 2.5004-2.9189 2.6455l-.3027.0146H8.9502l-.30176-.0146c-1.47072-.145-2.37359-1.3453-2.91895-2.6455-.54357-1.2963-.84379-2.9306-1.02148-4.4903-1.64839-.9327-2.75473-2.7418-2.75489-4.7959.0002-2.72183 1.94103-5.01118 4.51368-5.40522.80679-2.489 3.08566-4.30655 5.7998-4.30665m-.8535 13.09177c-.6346.8298-1.49788 1.4687-2.49708 1.8096L10.084 20.668c.0128.0561.0185.1127.0185.1679h1.3106zm1.5 7.0664h1.6484c.0001-.0454.0031-.0923.0117-.1386l.9659-5.1494c-1.0568-.3246-1.9685-.984-2.626-1.8536zm-6.61915-5.0722c.1752 1.2382.43351 2.4119.81933 3.332.42078 1.0031.90777 1.5276 1.45703 1.6865l-1.13183-4.9336c-.06096.0022-.1221.0069-.1836.0069-.32872 0-.64958-.0332-.96093-.0918m11.60155-.0655c-.2818.0484-.5713.0752-.8672.0752l-.0049-.0009-.8877 4.7265c.3394-.2766.6513-.7326.9327-1.4033.3926-.9363.6518-2.1353.8271-3.3975M12.2666 2.17773c-2.1542.0001-3.98965 1.54704-4.4834 3.6709-.00953.04089-.02332.08037-.03906.11817.48532.06869.8584.48595.8584.99023-.0004.55194-.44797.99999-1 1-.5519-.00016-.99961-.44815-1-1a.998.998 0 0 1 .13184-.49609c-1.83425.26285-3.28106 1.90182-3.28126 3.92866.00023 2.2154 1.72738 3.9659 3.80176 3.9659 1.4848-.0002 2.78662-.8917 3.41212-2.2159l.0625-.1084c.1652-.2371.4562-.3619.748-.3095.2559.0459.5196.0703.7891.0703.225 0 .4465-.0166.6621-.0488l.1201-.0088c.2792.0035.5382.1632.6641.4199.6218 1.2686 1.8812 2.119 3.3154 2.1191 2.0303 0 3.7215-1.7141 3.7217-3.8838-.0002-2.02651-1.4787-3.65858-3.3271-3.86128-.3215-.03522-.5848-.2727-.6524-.58887-.4617-2.16996-2.3191-3.7617-4.5039-3.76172"/>
</svg>
