<svg xmlns="http://www.w3.org/2000/svg" width="24" height="24" viewBox="0 0 24 24">
  <path fill="currentColor" d="M16.6064 7.35938c.5522.0001 1 .44778 1 1-.0004.55188-.448.99989-1 1-.5518-.00025-.9996-.44821-1-1 0-.55214.448-.99976 1-1M7 6.66016c.55199.00024.99987.44798 1 1-.00023.55193-.44807.99975-1 1-.55193-.00025-.99977-.44807-1-1 .00013-.55202.44801-.99976 1-1m5-4.72754c4.8077.00025 8.7051 3.89824 8.7051 8.70608-.0005.4138-.3361.75-.75.75h-5.2363c-.1259 1.8597-.6212 4.2732-1.1963 6.2968-.3292 1.1581-.6936 2.223-1.0459 3.0098-.1742.3889-.36.7417-.5528 1.0088-.0957.1325-.2133.2721-.3545.3848-.1182.0942-.307.2131-.5517.2412l-.1084.0058H9.09082l-.125-.0088c-.28337-.038-.49964-.2022-.63281-.3886-.12959-.1817-.18545-.3841-.21387-.5313-.05839-.3028-.05731-.6807-.03516-1.0625.0455-.7828.19918-1.8449.37403-2.9785.31039-2.0123.68983-4.274.77441-5.9775H4.04395c-.41371-.0003-.74952-.3364-.75-.75 0-4.80784 3.8983-8.70584 8.70605-8.70608m-1.2656 9.45608c-.085 1.845-.4919 4.248-.79397 6.206-.17682 1.1464-.31774 2.1376-.3584 2.8369-.00937.1615-.01209.2961-.01074.4043h1.12891c.0022-.003.0054-.0065.0078-.0097.1055-.1461.2419-.3926.3994-.7442.3114-.6954.6527-1.6844.9717-2.8066.5532-1.9465 1.0098-4.197 1.1357-5.8867zM12 3.43262c-3.72621.00023-6.79208 2.82891-7.16699 6.45605H19.166c-.2698-2.61022-1.9325-4.80731-4.2324-5.83398.0477.11661.0752.24416.0752.37793-.0002.55194-.4481.99976-1 1-.5519-.00025-.9998-.44807-1-1 0-.35685.1874-.66974.4687-.84668-.4769-.09942-.9711-.15329-1.4775-.15332"/>
</svg>
