<svg xmlns="http://www.w3.org/2000/svg" width="24" height="24" viewBox="0 0 24 24">
  <path fill="currentColor" d="M12 1.93262c4.8077.00025 8.7051 3.89824 8.7051 8.70608-.0005.4138-.3361.75-.75.75h-5.1885c.0846 1.7036.465 3.9652.7754 5.9775.1748 1.1336.3285 2.1957.374 2.9785.0222.3818.0232.7597-.0351 1.0625-.0285.1472-.0844.3497-.2139.5313-.133.1861-.349.3503-.6318.3886l-.126.0088h-1.8184l-.1084-.0058c-.2447-.0281-.4335-.147-.5517-.2412-.1412-.1128-.2588-.2523-.3545-.3848-.1929-.2671-.3785-.6198-.5528-1.0088-.3523-.7868-.7167-1.8517-1.0459-3.0098-.57509-2.0236-1.07135-4.4371-1.19723-6.2968H4.04395c-.41371-.0003-.74952-.3364-.75-.75 0-4.80784 3.8983-8.70584 8.70605-8.70608m-1.2148 9.45608c.1259 1.6897.5825 3.9402 1.1357 5.8867.319 1.1222.6603 2.1112.9717 2.8066.1575.3517.2939.5981.3994.7442.0024.0033.0055.0066.0078.0097h1.1289c.0014-.1082-.0014-.2428-.0107-.4043-.0407-.6993-.1816-1.6905-.3584-2.8369-.3021-1.958-.709-4.361-.794-6.206zM12 3.43262c-3.72621.00023-6.79208 2.82891-7.16699 6.45605H19.166C18.7911 6.26154 15.7262 3.43285 12 3.43262"/>
</svg>
