<svg xmlns="http://www.w3.org/2000/svg" width="24" height="24" viewBox="0 0 24 24">
  <path fill="currentColor" d="M5.70508 2.51269c.4298-.10563.94431-.07912 1.44726.01269.51787.09459 1.08845.27078 1.65821.52051.87125.38204 1.78795.95723 2.53125 1.72559.7236-.64832 1.567-1.13492 2.3916-1.47559.8189-.33825 1.6528-.54669 2.3945-.63086.7184-.08146 1.4364-.0552 1.9785.16016.5422.2157 1.093.69316 1.5704 1.25097.4926.5758.9689 1.30903 1.3427 2.125.7386 1.61289 1.1368 3.69341.2754 5.57324-.7541 1.6455-2.308 4.4135-3.9258 6.6807-.8067 1.1306-1.6535 2.172-2.4462 2.8877-.3946.3561-.8077.6614-1.2227.8476-.4114.1845-.9182.2918-1.4219.0918-.4711-.1872-.8177-.6001-1.0703-1.0039-.2409-.3854-.4532-.8598-.6435-1.3808-.2548.3221-.58835.62-1.02055.7265-.49777.1225-.97543-.0418-1.34668-.25-.3808-.2136-.75705-.5327-1.11524-.8955-.72021-.7296-1.47893-1.755-2.18457-2.8584-1.40558-2.1981-2.70853-4.877-3.14746-6.5068-.4844-1.79993.12133-3.60101.96094-4.94241.42541-.67959.9283-1.27363 1.43164-1.72656.48603-.43731 1.03619-.80207 1.5625-.93164M11.8525 13.1836c-.1669.1946-.41.3924-.7392.458l-.1631.0332-.1309.0244c.0511.5447.1161 1.0923.1944 1.6299.2168 1.4893.5293 2.8778.8955 3.9248.1836.5248.3711.9389.5527 1.2295.1944.3107.3223.3852.3408.3926l.001.0009s.0038.0007.0059.001c.0069.0008.0217.0012.0429-.001.0459-.0048.1204-.0227.2266-.0703.2199-.0986.5041-.293.8438-.5996.6762-.6104 1.451-1.5512 2.2353-2.6504.2271-.3183.4514-.6482.6738-.9824-.1005-.0307-.2079-.0812-.3056-.167-.1601-.1409-.2333-.3149-.2637-.4512-.0471-.2122-.007-.4093.0244-.5263-.2177-.0585-.4525-.1683-.6357-.3809l-.1065-.123-.1064-.124c-.1687-.196-.2565-.4252-.3008-.6426-.2105.0155-.4572-.0245-.6768-.1875-.2188-.1628-.3267-.3836-.3798-.5616l-.0713-.2412-.0157-.0537-.0351.0293-.2002.166c-.1288.1058-.3139.2208-.5508.2579-.2601.0404-.508-.0259-.708-.1622l-.1592-.1093-.1611-.1094c-.0662-.0451-.1353-.0831-.2061-.1133l-.0205-.0088zm-3.415-.1787-.80371.0439c-.19358.0105-.38834.0502-.58496.1211l-.39551.1416-.39453.1426s-.01398.0062-.03711.0215c-.02565.017-.06169.0448-.10645.0869-.09119.0858-.20465.2178-.33789.4092l-.39453.5644c.25286.4415.51423.8816.78418 1.3037.67965 1.0628 1.37157 1.9867 1.9834 2.6065.30733.3112.56855.5174.77246.6318.14044.0787.21321.0916.23535.0938.02632-.0153.14562-.0902.3291-.3692.15767-.2398.31904-.5662.48047-.9687-.16751-.7302-.31088-1.5119-.42675-2.3076-.10084-.6926-.18068-1.4027-.23829-2.1065-.12034-.0948-.21111-.2241-.25585-.3721l-.00489-.0009c-.19364-.0385-.3957-.0532-.60449-.042m4.6865-5.04495c-.2177.14349-.4769.23371-.7627.22754l-.3437-.00879c-.1477-.00331-.2951-.02174-.4414-.0498-.0005.00497.0001.01078-.001.01562l-.001.00196-.1221.53222-.4511.06153c-.0386.00956-.0785.01718-.1192.0205l-.042.00293c-.092.60208-.1433 1.32784-.1494 2.14064-.0021.2861.0021.5806.0108.8799l.0312.0009.044.0069.0615.0098c.0764-.0115.1515-.0078.2236.0039.1084-.1149.2593-.2333.461-.2969.2439-.0768.4854-.0499.6894.0371l.3496.1494c.1625.0693.3187.1541.4649.2539l.0136.0098.167-.1377c.2451-.2015.6397-.3904 1.0948-.2354l.1748.0586.1757.0606.1485.0634c.3244.1675.4953.4675.5742.7325l.0371.125.0469-.0039c.1851-.0189.4509-.0006.6933.1767.1855.136.2878.3133.3409.4756l.038.1563.0723.4218.001.0059.0762.0889.04.0459.1943.0351.2276.042.1689.0459c.1801.0647.3824.1922.5108.4346.0547.1037.0847.208.0976.3056.6131-1.0158 1.1598-2.0056 1.5811-2.8339l-.0098-.0088c-.2011-.0667-.3867-.1843-.5351-.3575l-.1084-.1279-.1084-.1269c-.0578-.0674-.1078-.1404-.1524-.2149l-.3857-.3525.2236-.0117-.0469-.1455-.0029-.0079-.0225-.0088-.1709-.0722c-.2846-.1198-.5161-.3381-.6406-.64064l-.1328-.32422c-.0608-.14798-.1102-.30598-.1504-.46973l-.0498-.20019-.0088-.03614-.1474-.0625c-.0385-.01611-.0817-.02664-.1299-.03125l-.1817-.0166-.1836-.01855c-.1671-.01586-.3321-.04714-.4912-.09668l-.3125-.09668c-.1666-.05202-.3247-.12569-.4726-.2168l-.1211-.07422-.1758.07032c-.2493.09927-.5329.13031-.8203.04785l-.1602-.0459-.1591-.0459c-.2259-.0649-.4236-.18317-.5918-.31641l-.0958-.07617zm-4.20798.56739c-.31622.07528-.63069.11856-.94043.12597l-.38086.00782-.38184.00976c-.13114.00312-.24851.03644-.3623.10156l-.33594.19239-.33692.19238c-.28571.16369-.59067.2874-.91211.37109l-.39062.10157-.38965.10058c-.06853.01797-.26329.11405-.60058.43454l-.417.3955c.26849.7309.66428 1.6099 1.13282 2.5293.3254-.4605.72228-.885 1.20898-1.0605l.79004-.2852c.32962-.1188.6668-.1894 1.00879-.208l.80371-.0429a3.885 3.885 0 0 1 .79297.038c-.00423-.2236-.0065-.445-.00488-.6621.00651-.87291.06252-1.71416.18261-2.45309zM17.582 4.23046c-.2085-.08258-.6419-.13614-1.2656-.06543-.6014.06827-1.3038.24342-2.0029.53223-1.0317.42623-1.9884 1.07174-2.6319 1.92383l.1553.03222c.0774.01611.1495.02393.2149.02539l.1718.00489.1084.00195.1289-.08399.1612-.10742c.1732-.11411.3953-.18873.6455-.16601.1798.01652.3335.08006.456.15625l.1133.0791.3467.27441c.061.04828.0854.05407.0742.05078l.1592.0459.0742.02149.1123-.0459.1758-.06934.1191-.04101c.2428-.06841.506-.05851.753.05468l.1211.06446.1474.09179.1475.08985c.0476.02929.0921.0498.1328.0625l.1553.04785.1562.04883c.0485.01508.1102.02889.1865.03613l.3663.0332a1.939 1.939 0 0 1 .5673.14258l.3321.13867c.3186.13417.5172.38573.6152.66309l.0361.12012.0498.20215.0498.20019c.0254.10346.0523.18897.0801.25684l.0674.16211.0156.03808.0567.02442.1709.07226c.3044.12838.5426.37123.6484.7041l.0537.1689.0528.168c.0068.0212.014.031.0175.0352l.1094.1279.0371.042.082.0137.0245.0029c.3519-1.20791.0995-2.57109-.46-3.79297-.3153-.68824-.7141-1.2994-1.1113-1.76367-.4123-.48168-.7694-.74225-.9776-.8252m-10.67575-.2373c-.40231-.07345-.67564-.06548-.81152-.03223-.1773.04365-.51108.22264-.92676.59668-.39814.35835-.81541.84567-1.17188 1.41504-.56254.8987-.92921 1.92844-.9082 2.92871.33892-.29502.70053-.53814 1.0791-.63672l.39063-.10059.38965-.10253c.19786-.05155.37719-.12505.53906-.21778l.67187-.38476c.33401-.19132.69589-.29177 1.07325-.30078l.38183-.00977.38086-.00879c.19868-.00476.41068-.03187.63379-.08496l.40527-.09766.4043-.09668c.12366-.0294.25892-.05131.39844-.05859.14496-.32613.31876-.63087.51566-.91504-.58299-.63472-1.35373-1.13751-2.12894-1.47754-.47214-.20697-.92851-.34511-1.31641-.41601"/>
</svg>
