<svg xmlns="http://www.w3.org/2000/svg" width="24" height="24" viewBox="0 0 24 24">
  <path fill="currentColor" d="M13.1357.82422c.4139.04807.7444.25647.9825.53223.2517.29185.3985.6521.4902.9707.1527.53103.2007 1.12973.2236 1.55859h.0977c1.005.00005 1.8201.81435 1.8203 1.81934-.0002.5556-.2509 1.05193-.6436 1.38574.3961.43411.8182.95319 1.1983 1.52539.6839 1.02993 1.2988 2.32449 1.2988 3.64649v7.5029c.0233.5418-.0729 1.3444-.4726 2.0449-.435.7619-1.2225 1.377-2.4414 1.377H8.30957c-1.21866-.0002-2.00552-.6152-2.44043-1.377-.39739-.6964-.49435-1.4935-.47266-2.0351v-7.5127c0-1.3221.61487-2.61655 1.29883-3.64649.37991-.57201.80136-1.09139 1.19727-1.52539-.39241-.33381-.64242-.83036-.64258-1.38574.00017-1.00501.81527-1.81931 1.82031-1.81934h.09668c.02318-.42887.07285-1.02754.22559-1.55859.0917-.31855.23758-.67893.48926-.9707.23816-.27595.56916-.48435.98336-.53223l.1827-.01074h1.9042zM6.89648 19.7754a.8.8 0 0 1-.00097.0391c-.01779.3454.0507.8575.27637 1.2529.19809.3468.5159.6199 1.13769.6201h7.37993c.6221 0 .9405-.2732 1.1386-.6201.2257-.3954.2942-.9075.2764-1.2529a.73.73 0 0 1-.001-.0391v-.7744H6.89648zm0-2.2744H17.1035v-4.5H6.89648zm2.66993-9.97561c-.4673.43864-1.0915 1.12352-1.6211 1.9209-.44768.67411-.79529 1.38041-.9541 2.05471H17.0078c-.1588-.6743-.5055-1.3807-.9531-2.05471-.5296-.79737-1.1538-1.48226-1.6211-1.9209zm-.4961-2.13965c-.17661.00003-.32014.14276-.32031.31934.0003.17647.14378.32029.32031.32031h5.85939c.1765-.00005.32-.14386.3203-.32031-.0002-.17657-.1437-.31929-.3203-.31934zm3.88179-3.07226h-1.9042c-.0024-.00009 0-.01171-.0303.02343-.0507.05897-.1202.185-.1836.40528-.0584.20296-.0955.43194-.1221.66211h2.5762c-.0266-.23017-.0637-.45915-.1221-.66211-.0634-.22033-.1329-.34633-.1836-.40528-.0298-.0346-.0281-.02391-.0303-.02343"/>
</svg>
