<svg xmlns="http://www.w3.org/2000/svg" width="24" height="24" viewBox="0 0 24 24">
  <path fill="currentColor" d="M9.92969 1.75293c1.00501 0 1.82011.81431 1.82031 1.81933-.0002 1.00501-.8153 1.82032-1.82031 1.82032h-1.125l.03906 8.02632c.00236.8968.01565 2.9448-.11914 4.7696-.06698.9064-.17322 1.7987-.34766 2.4785-.08591.3347-.20102.6688-.36621.9336-.15435.2472-.4614.599-.97656.6006-.55213.0014-.89158-.3956-1.05469-.667-.16946-.2823-.28195-.6313-.36328-.9707-.16609-.6934-.2608-1.6017-.31933-2.5205-.05826-.9147-.08265-1.9022-.09571-2.7666l-.02832-2.0303v-.0195l-.00097-.0645-.03711-7.76952H4.07031c-1.00505 0-1.82013-.81531-1.82031-1.82032.00016-1.00502.81525-1.81933 1.82031-1.81933zm-2.6211 3.75c-.22513-.06567-.46376-.0715-.6748.0332l.03613 7.70217.00098.0654c.02849.9678.00657 2.9281.12109 4.7266.04538.7123.11074 1.3615.20215 1.8779.10479-.5195.18236-1.1836.23633-1.9141.12982-1.7576.11763-3.7456.11523-4.6543zm-3.23828-2.25c-.17663 0-.32015.14274-.32031.31933.00018.17658.14369.32032.32031.32032h5.85938c.17661 0 .32011-.14374.32031-.32032-.0002-.17659-.1437-.31933-.32031-.31933zm9.34079-.38477c.2322-.97784 1.2135-1.58259 2.1914-1.35058l5.7012 1.35254c.9778.23203 1.5823 1.2126 1.3506 2.19043-.232.97776-1.2126 1.58322-2.1904 1.35156l-1.0948-.25977-1.8154 7.81836c-.2047.873-.6644 2.8689-1.2168 4.6133-.2744.8665-.5835 1.7099-.9101 2.331-.1609.3059-.3494.6047-.5713.8243-.2072.2048-.5872.4766-1.0889.3593-.5378-.1259-.777-.5908-.873-.8925-.0998-.3138-.1281-.6794-.129-1.0284-.0015-.7129.1154-1.6188.2706-2.5263.1544-.9034.359-1.8699.5459-2.7139l.4414-1.9824.0039-.0196.0146-.0625 1.7559-7.56831-1.0342-.24512c-.9779-.232-1.5833-1.21354-1.3516-2.19141m4.4766 3.0459c-.2038-.11583-.4346-.17708-.6641-.12402l-1.7431 7.50386-.0137.0625-.001.001c-.1956.9482-.6698 2.8502-.9736 4.627-.1203.7037-.2051 1.3504-.2354 1.874.2219-.4813.4498-1.1094.6709-1.8076.5321-1.6801.9791-3.6171 1.1866-4.502zm-2.6318-2.93652c-.1717-.04058-.3438.0648-.3848.23633-.0407.17187.0655.34489.2373.38574l5.7012 1.35254c.1718.04075.3448-.06556.3857-.23731.0406-.17185-.0664-.34398-.2383-.38476z"/>
</svg>
