<svg xmlns="http://www.w3.org/2000/svg" width="24" height="24" viewBox="0 0 24 24">
  <path fill="currentColor" d="m12.9746 16.2383.0977.4912c-.2193.0434-.4467.0654-.6778.0654-.2308 0-.4577-.0221-.6767-.0654l.1933-.9815c.1556.0308.3179.0469.4834.0469.1656 0 .3278-.0161.4834-.0469zm-2.6367-1.542c.1806.2694.4141.5022.6836.6826l-.2783.415-.2784.4161c-.3782-.2532-.70465-.5799-.95796-.958zm4.9443.5557c-.2533.3782-.5797.7047-.958.958l-.5556-.8311a2.494 2.494 0 0 0 .6826-.6826zm-5.31345-2.4131c-.03072.1555-.04686.3179-.04687.4834.00006.1654.0161.3278.04687.4834l-.49023.0966L8.98828 14a3.5 3.5 0 0 1-.0664-.6777 3.496 3.496 0 0 1 .0664-.6768zm5.83305-.1934c.0432.219.0654.446.0654.6768-.0001.2309-.0221.4586-.0654.6777l-.4913-.0977-.4902-.0966c.0308-.1556.0468-.318.0469-.4834 0-.1654-.0162-.3279-.0469-.4834zm-5.0586-1.7949.2783.415c-.2698.1807-.503.4138-.6836.6836l-.41505-.2783-.41601-.2783a3.491 3.491 0 0 1 .95796-.958zm3.581-.416c.3782.2533.7048.5797.958.958l-.416.2783-.415.2783c-.1805-.2695-.4132-.503-.6826-.6836zm-1.9297-.58499c.2311.00003.4585.02303.6778.06641l-.0977.49018-.0967.4903c-.1557-.0308-.3178-.0469-.4834-.0469s-.3277.0161-.4834.0469l-.1933-.98048a3.49 3.49 0 0 1 .6767-.06641M9.13575.82422c.41389.04806.74437.25646.98245.53223.2517.29185.3985.65209.4902.9707.1527.53106.2017 1.12972.2246 1.55859h.0967c1.005.00003 1.8201.81433 1.8203 1.81934-.0002.55686-.2513 1.05485-.6455 1.38867.2493.27961.5085.60009.7744.96777 2.1287.19121 3.8973 1.62726 4.5742 3.57518l.8565-3.19822a2.09 2.09 0 0 1-.1602-.17481c-.1969-.24182-.3495-.53395-.459-.83496-.216-.59413-.3031-1.34133-.1181-2.03223.3544-1.32223 1.5338-2.22187 2.832-1.87402 1.2979.34802 1.8689 1.7169 1.5146 3.03906-.1852.69077-.634 1.29469-1.1181 1.70118-.2454.20597-.5239.38221-.8154.49316a2.08 2.08 0 0 1-.2266.07129l-2.3086 8.61325c.059.0574.1129.1175.1611.1768.197.2419.3505.5339.46.8349.2158.5942.3023 1.3415.1172 2.0323-.3545 1.3217-1.5333 2.2214-2.8311 1.874-.4769-.1278-.8551-.3947-1.126-.7451-.0317.0659-.0638.1328-.1005.1972-.435.7619-1.2225 1.377-2.4414 1.377H4.30957c-1.21865-.0002-2.00552-.6152-2.44043-1.377-.39738-.6964-.49435-1.4935-.47265-2.0351v-7.5127c0-1.3221.61487-2.61655 1.29883-3.64649.3799-.572.80136-1.09139 1.19726-1.52539-.39235-.33381-.64241-.8304-.64258-1.38574.00017-1.005.81528-1.8193 1.82032-1.81934h.09765c.02318-.42887.07187-1.02755.22461-1.55859.09171-.31858.23754-.67891.48926-.9707.23822-.27601.56904-.48437.9834-.53223l.18261-.01074h1.9043zM5.56641 7.52539c-.46729.43865-1.09151 1.12353-1.62109 1.9209-.62017.93391-1.04883 1.92901-1.04883 2.81641v7.5127a.8.8 0 0 1-.00098.0391c-.01779.3454.0507.8575.27637 1.2529.19808.3468.51592.6199 1.13769.6201h7.37993c.6221 0 .9405-.2732 1.1386-.6201.2257-.3954.2942-.9075.2764-1.2529a.73.73 0 0 1-.001-.0391v-1.0742c-.2323.0308-.4692.0498-.7099.0498-2.95746-.0003-5.35505-2.3991-5.35551-5.3565.00019-2.5048 1.71991-4.60885 4.04301-5.1943-.2303-.26631-.4503-.48707-.6514-.67481zM16.3086 18.5273c-.1033.0394-.2392.1181-.3848.2403-.2981.2506-.5426.604-.6328.9404-.196.7326.1521 1.1201.4541 1.2012.3021.0808.7976-.0809.9942-.8135.09-.3364.0547-.7648-.0782-1.1309-.0648-.1781-.1432-.3136-.2129-.3994-.024-.0294-.0451-.0477-.0585-.0595-.0176.0035-.0452.0078-.0811.0214m-3.915-8.98824c-2.1292.00033-3.85528 1.72634-3.85551 3.85544.00046 2.129 1.72651 3.8562 3.85551 3.8565.3909 0 .7683-.0598 1.124-.168.0662-.0334.1372-.0587.2129-.0713 1.4704-.5437 2.5191-1.958 2.5195-3.6172-.0002-2.1293-1.7271-3.85541-3.8564-3.85544m7.622-4.56738c-.3021-.08089-.7976.08045-.9941.81348-.09.33647-.0548.76493.0781 1.13086.0648.17813.1433.31372.2129.39941.0242.02963.0462.04772.0596.05957.0175-.00355.0445-.00803.0801-.02148.1032-.03937.2392-.11808.3847-.24024.2982-.25049.5435-.60398.6338-.94043.1962-.73281-.153-1.12013-.4551-1.20117m-14.94528.41406c-.17661.00004-.32015.14276-.32032.31934.0003.17646.14379.32028.32032.32031h5.85938c.1765-.00002.32-.14384.3203-.32031-.0002-.17658-.1437-.31931-.3203-.31934zm3.88183-3.07226h-1.9043c-.00238 0 .00025-.01194-.03027.02343-.05072.05895-.12017.18492-.18359.40528-.05837.20297-.09549.43192-.12207.66211h2.57617c-.02659-.23017-.06371-.45915-.12207-.66211-.06343-.22037-.13288-.34634-.1836-.40528-.0304-.03523-.02794-.02352-.03027-.02343"/>
</svg>
