<svg xmlns="http://www.w3.org/2000/svg" width="24" height="24" viewBox="0 0 24 24">
  <path fill="currentColor" d="M17.2256 4.18457c.6599.06278 1.0524.57863 1.2627.99414.2359.46637.3828 1.06014.4814 1.64453.1747 1.03554.2277 2.23697.2539 3.11817.4916.36889 1.0955.89469 1.6202 1.50589.635.7397 1.2713 1.7383 1.2714 2.8105v5.3965c.02.4521-.088 1.0898-.4941 1.6406-.4503.6104-1.1991 1.0224-2.2656 1.0225h-6.8526c-1.0666 0-1.8153-.4122-2.2656-1.0225-.40625-.5508-.51316-1.1885-.49316-1.6406l-.00097-5.3965c.00009-1.0723.63643-2.0707 1.27153-2.8105.5245-.611 1.1276-1.1371 1.6191-1.50589.0262-.88119.0792-2.08264.2539-3.11817.0986-.58435.2455-1.17817.4814-1.64453.2103-.41548.603-.93132 1.2627-.99414l.1358-.00684h2.3232zM11.2432 19.6543c0 .0166.0001.0342-.001.0508-.0122.1831.0362.474.2021.6992.1376.1864.4155.4131 1.0586.4131h6.8526c.643-.0001.9211-.2267 1.0586-.4131.1657-.2251.2143-.5162.2021-.6992-.0011-.0166-.001-.0342-.001-.0508V16h-9.372zm2.3994-8.5889c-.4302.3115-1.0067.7962-1.4903 1.3594-.5758.6709-.909 1.318-.9091 1.833V14.5h9.372v-.2422c-.0001-.5151-.3342-1.1621-.9101-1.833-.4837-.5634-1.0601-1.0478-1.4903-1.3594zm1.1806-5.38767c-.0225.0241-.063.07475-.1152.17774-.1331.26305-.2501.68008-.3408 1.21777-.1328.78734-.1905 1.70289-.2207 2.49219h3.5644c-.0302-.78932-.0879-1.70484-.2207-2.49219-.0907-.53771-.2067-.95472-.3398-1.21777-.0523-.10341-.0937-.15365-.1162-.17774zm-9.37886-1.5c1.34385.00008 2.24983 1.1742 2.25 2.54297 0 .71534-.27722 1.41454-.63965 1.93262-.18377.26261-.4072.50478-.66016.6875a2.08 2.08 0 0 1-.20019.12793v5.72165L8 15.1914a.7504.7504 0 0 1 .53711.2266c.14098.1447.21804.3409.21289.5429-.02307.8914-.06519 2.2903-.26465 3.4727-.09859.5842-.24562 1.1783-.48144 1.6445-.2103.4155-.60308.9303-1.2627.9932l-.13574.0068H4.28223l-.13477-.0068c-.65992-.0628-1.05243-.5786-1.26269-.9942-.2358-.4663-.38288-1.0603-.48145-1.6445-.19943-1.1825-.24159-2.5815-.26465-3.4726-.00501-.202.07191-.3983.21289-.543.14109-.1445.33515-.2265.53711-.2266h1.80567V9.46875a2.07 2.07 0 0 1-.2002-.12793c-.25302-.18274-.47635-.42484-.66015-.6875-.36247-.51809-.63965-1.21723-.63965-1.93262.00016-1.3688.90611-2.54293 2.25-2.54297M3.66211 16.6904c.03024.7892.08796 1.7049.2207 2.4922.09068.5374.20685.9547.33985 1.2178.0521.103.09358.1535.11621.1777h2.21094c.0226-.0242.06326-.075.11523-.1777.133-.2631.25014-.6803.34082-1.2178.13274-.7872.19046-1.703.2207-2.4922zM5.44434 5.67773c-.31275.00004-.74986.28422-.75 1.04297 0 .34841.14493.75302.36816 1.07227.10897.15575.21997.26626.30957.33105.03115.0225.0562.03399.07227.042.01607-.008.04123-.0196.07226-.042.08957-.0648.20066-.1754.30957-.33105.2232-.31924.36817-.72389.36817-1.07227-.00015-.7587-.43726-1.04288-.75-1.04297"/>
</svg>
