<svg xmlns="http://www.w3.org/2000/svg" width="24" height="24" viewBox="0 0 24 24">
  <path fill="currentColor" d="M9.94824 2.30761c3.78926.08948 6.55396.0881 10.78716-.03613.8521-.02476 1.4711.78759 1.2451 1.5957-.6856 2.4467-1.0082 4.3455-1.003 6.17282.0053 1.825.3371 3.6214 1.0127 5.8633.2206.7329-.2625 1.5122-1.0449 1.6074-1.5333.186-2.8789.3048-4.1269.3692.1565.8408.3762 1.7251.6621 2.6924.261.8838-.4901 1.7488-1.4073 1.6015-4.9081-.7884-7.77279-.9076-12.12984.0205-.65564.1395-1.32199-.2625-1.48047-.9336-.59247-2.5112-.88545-4.552-.87402-6.6142.01148-2.0605.32747-4.1099.91699-6.63772l.05176-.16992c.14913-.38269.48174-.67505.89453-.76562l1.12793-.23438c.77138-.15082 1.50096-.27167 2.2041-.36426.04437-.9592.10742-1.96093.18945-3.05566l.01465-.12305c.10568-.60532.64224-1.04941 1.26563-1.03222zM6.72852 7.99609c-.8669.12221-1.78767.29052-2.79785.50879-.55208 2.39572-.83144 4.28412-.8418 6.15042-.0102 1.8425.24281 3.6948.78027 6.0224 4.35171-.9006 7.35266-.7843 12.07036-.0439-.2704-.9488-.4841-1.8387-.6358-2.7022-2.3991.0391-4.5539-.1347-7.22264-.4463-.59794-.0698-1.05973-.5573-1.10157-1.1543-.23531-3.3591-.31591-5.7897-.25097-8.33491m1.72363-4.22754c-.32359 4.41233-.33096 7.29065.01074 12.24905 4.24151.4886 7.12831.6112 12.00981.0371-.6469-2.203-.9896-4.0741-.9952-6.0108-.0054-1.93108.3242-3.88841.9727-6.26559-4.596.13027-7.4969.11318-11.99805-.00976"/>
</svg>
