<svg xmlns="http://www.w3.org/2000/svg" width="24" height="24" viewBox="0 0 24 24">
  <path fill="currentColor" d="M13.9346 1.44923c.3586-.20674.8173-.08405 1.0244.27442.2067.35851.0838.81725-.2744 1.02441-1.2239.70673-1.8013 2.10301-1.5264 3.41504 1.7468.20319 3.2918.77636 4.4854 1.66992 1.5267 1.14324 2.4618 2.80198 2.4619 4.77638-.0002 1.8512-.5917 4.209-1.92 6.123-1.3457 1.939-3.4705 3.4453-6.4736 3.4453-3.00533 0-5.1034-1.509-6.42088-3.4521-1.29913-1.9164-1.85826-4.2728-1.8584-6.1162.00008-2.81317 1.81131-4.92072 4.50293-5.90528-.32591-.38423-.66292-.82136-.94922-1.23731-.26986-.39209-.51801-.79827-.67578-1.14843-.07717-.17138-.14921-.36503-.17871-.55567-.02343-.1519-.05406-.51328.23046-.8125.27959-.2933.66881-.32027.83301-.32324.20954-.0037.42968.02947.62989.07129.40876.0854.89327.24356 1.36621.42676.91989.35641 1.97249.87651 2.52439 1.31152.286-1.21495 1.0528-2.31402 2.2188-2.98731m-.1494 6.32911c2.1369 2.63816 1.9793 6.51876-.4747 8.97266-.2927.2922-.7677.2922-1.0605 0-.2927-.2927-.2924-.7676 0-1.0606 2.0375-2.0374 2.0373-5.3423 0-7.37984-.0731-.07318-.1285-.15783-.165-.24804-.1537.0759-.31.12461-.4375.15527-.2704.0649-.5826.09502-.9034.08301-.479-.01808-1.0392-.13317-1.54488-.4209-2.701.69352-4.26652 2.4854-4.2666 4.7295.00015 1.5862.49145 3.6397 1.59961 5.2744 1.09028 1.6081 2.75754 2.7939 5.17967 2.7939 2.4245 0 4.1222-1.1885 5.2412-2.8007 1.1361-1.6371 1.6522-3.6892 1.6524-5.2676-.0001-1.4551-.673-2.68699-1.8604-3.57618-.7772-.58187-1.7819-1.01844-2.9599-1.25488M8.31055 4.69045c.50391.7321 1.14241 1.4861 1.51465 1.81933.2596.23214.6327.34549 1.0019.35938.1622.00605.3029-.01199.4063-.03321.0095-.099.008-.23292-.0195-.38476-.0629-.34574-.2337-.69025-.5176-.91699-.3614-.28844-1.24471-.74438-2.12892-1.08692-.19004-.07361-.37205-.13855-.54004-.19336a9.7 9.7 0 0 0 .28321.43653"/>
</svg>
