<svg xmlns="http://www.w3.org/2000/svg" width="24" height="24" viewBox="0 0 24 24">
  <path fill="currentColor" d="M12 10.4336c1.5368.0002 2.8086 1.1665 2.8086 2.8271-.0001.8357-.383 1.6385-.8643 2.2188-.4597.5543-1.1656 1.0867-1.9443 1.0869-.7789-.0002-1.4855-.5325-1.9453-1.0869-.48114-.5803-.86414-1.3832-.86427-2.2188.00003-1.6606 1.27277-2.8269 2.80957-2.8271m1.2656 2.4697c-.3628.2094-.8101.3174-1.2656.3174-.456 0-.9045-.1075-1.2676-.3174a1.533 1.533 0 0 0-.042.3574c.0002.3964.1968.8715.5196 1.2608.344.4149.6679.5446.79.5449.1221-.0003.446-.1301.79-.5449.3227-.3893.5185-.8645.5186-1.2608 0-.1266-.0162-.2456-.043-.3574M16.5 1.25c1.2426 0 2.25 1.00736 2.25 2.25 0 .38218-.0965.74143-.2646 1.05664C19.8174 5.13202 20.75 6.45673 20.75 8v11c0 2.0711-1.6789 3.75-3.75 3.75H7c-2.07107 0-3.75-1.6789-3.75-3.75V8c0-1.54295.93205-2.86779 2.26367-3.44336C5.3457 4.24153 5.25 3.88201 5.25 3.5c0-1.24264 1.00736-2.25 2.25-2.25zM19.25 18c-.6268.4708-1.4057.75-2.25.75H7c-.84426 0-1.62323-.2792-2.25-.75v1c0 1.2426 1.00736 2.25 2.25 2.25h10c1.2426 0 2.25-1.0074 2.25-2.25zM7 9.75c-1.24264 0-2.25 1.0074-2.25 2.25v3c0 1.2426 1.00736 2.25 2.25 2.25h10c1.2426 0 2.25-1.0074 2.25-2.25v-3c0-1.2426-1.0074-2.25-2.25-2.25zm0-4C5.75736 5.75 4.75 6.75736 4.75 8v.99902C5.37669 8.52841 6.15595 8.25 7 8.25h10c.8441 0 1.6233.27841 2.25.74902V8c0-1.24264-1.0074-2.25-2.25-2.25zm.5-3c-.41421 0-.75.33579-.75.75s.33579.75.75.75H8v-1.5zm2 1.5H11v-1.5H9.5zm3 0H14v-1.5h-1.5zm3 0h1c.4142 0 .75-.33579.75-.75s-.3358-.75-.75-.75h-1z"/>
</svg>
