<svg xmlns="http://www.w3.org/2000/svg" width="24" height="24" viewBox="0 0 24 24">
  <path fill="currentColor" d="m6.89355 20.4502-.71679.4726-.55078-.8349.71679-.4727zm3.27445-1.251-.71683.4727-.55078-.834.7168-.4727zm-4.17093-1.165-.7168.4726-.55078-.8349.7168-.4727zm2.39648-1.2471-.71582.4726-.55078-.8349.7168-.4727zm-2.87695-.5-.7168.4726-.55078-.8349.7168-.4727zm8.6113-.0733-.7168.4717-.5498-.834.7168-.4726zm2.3623-1.5947-.7168.4727-.5507-.835.7168-.4726zm-2.2675-1.0449-.7168.4727-.5498-.835.7168-.4727zm-2.1641-.5664-.7168.4726-.5508-.8349.7168-.4727zm2.0703-1.5664-.7168.4726-.5508-.8349.7168-.4727zm.335-9.16994c3.8257-.28072 7.1635 2.35502 7.4677 6.4961.1403 1.91384-.5777 3.87734-1.6298 5.44234-1.0015 1.4894-2.3859 2.7329-3.8077 3.2373-.0346.024-.0691.05-.1045.0733-1.3086.8625-2.8376 1.1303-4.2138.8369-.2724 1.3808-1.1219 2.6818-2.43068 3.5449-2.40465 1.5852-5.63537 1.1783-7.16309-1.1377-1.52741-2.3165-.62896-5.4472 1.77539-7.0332 1.30869-.8628 2.83851-1.1312 4.21485-.8379a5.19 5.19 0 0 1 .12792-.5107c-.36346-.8227-.60919-1.7018-.6748-2.59474-.30371-4.14084 2.61311-7.23533 6.43851-7.5166m2.4502 9.04204c-.9921-1.50424-3.2453-1.92473-5.086-.711-1.0026.6615-1.6198 1.6474-1.7978 2.6475-.13933.7791-.93407 1.3033-1.70511 1.124-.9896-.2303-2.13945-.0511-3.14257.6104-1.83987 1.2138-2.3403 3.45-1.34864 4.9541.99187 1.5039 3.2445 1.9249 5.08496.7119 1.00297-.6614 1.62056-1.6474 1.79886-2.6475.1388-.7797.9347-1.3043 1.706-1.125l.1866.0391c.945.1676 2.0138-.0288 2.9541-.6485 1.8405-1.2137 2.3412-3.4507 1.3496-4.955m2.0888-5.87114c-.2428.47125-.6317.87376-1.0742 1.18555-.7996.56314-1.8874.9307-3.0703 1.01758-1.1828.08669-2.3114-.11826-3.1846-.5586-.4836-.24396-.9282-.58452-1.2373-1.01562-.66723.97719-1.01828 2.21271-.91599 3.60742.02175.29578.07066.59471.1416.89351.36849-.4616.81709-.87774 1.33989-1.22261 2.4048-1.58576 5.6362-1.17873 7.164 1.13771.6344.9621.8496 2.0648.7129 3.1387.0598-.0828.12-.1671.1777-.253.9252-1.3761 1.4879-3.0106 1.3789-4.49607-.1025-1.39492-.6294-2.56528-1.4326-3.43457m-1.2431-.98535c-.9258-.52509-2.0239-.7748-3.1866-.68945-1.162.08551-2.2119.49214-3.0507 1.14648.0659.25789.2991.56813.8261.83399.592.29859 1.4419.47165 2.4004.40136.9583-.0704 1.7734-.36635 2.3155-.74804.4817-.33947.6672-.67971.6953-.94434"/>
</svg>
