<svg xmlns="http://www.w3.org/2000/svg" width="24" height="24" viewBox="0 0 24 24">
  <path fill="currentColor" d="M12.2979 10.1865a.754.754 0 0 1 .1455.0332l.1367.0615c.1485.0859.2382.1984.2812.2598.0467.0666.0784.132.0987.1738.0211.0438.0412.0878.0546.1192.0049.0112.0087.0217.0127.0312.0686-.0067.1603-.0142.253-.0117.1289.0035.3358.0256.542.1445.0866.0501.1622.1175.2226.1973.5684.7509.6349 1.7255.2061 2.7041.5737.6.8964 1.4749.8965 2.5313 0 1.6212-.7613 2.8087-2.001 3.2363-.0428.0148-.2685.1004-.3858.1377-.1607.0511-.375.1054-.6181.1055-.501 0-.9579-.2167-1.1826-.3116-.9326-.3935-1.55718-1.2338-1.75492-2.3642-.06765.0089-.12551.016-.16895.0215-1.061.1323-2.04899-.4394-2.68847-1.5469-.63954-1.1078-.64054-2.2498.00488-3.1026a.75.75 0 0 1 .10156-.1093l.1211-.0869c.14832-.0857.29032-.1067.36523-.1133.08123-.0072.1548-.0025.20117.001.04826.0035.09612.0086.12988.0126.01235.0015.02377.0027.03418.004.02847-.0628.06674-.1456.11524-.2247.06745-.1098.19016-.2772.39648-.3964.08672-.0501.18288-.0833.28223-.0957.49696-.0621.9876.0323 1.43457.2714.0239-.0451.0482-.0906.07422-.1357.6395-1.1077 1.6283-1.6794 2.6895-1.5469m.5263 4.7285v3.2618c.4389-.2246.8233-.7405.8233-1.7461-.0001-.8723-.2899-1.3745-.6455-1.6377-.0447.0328-.1083.0768-.1778.122m-1.584-.0879c-.3355.2714-.6025.7669-.6025 1.6036 0 .9049.3129 1.4102.6865 1.665v-3.2158c-.0302-.0192-.0591-.0356-.084-.0528m-3.86422-.8554c-.0258.255.03621.5814.2705.9873.23374.4048.48568.6205.71875.7265zm1.9707.4131c-.13728-.3002-.20973-.6234-.21582-.961-.17861-.1761-.35396-.2741-.52148-.3164zM11.6406 11.75c-.2375.1028-.4947.3201-.7334.7334-.221.3831-.2876.6959-.2734.9443.0433-.0253.0859-.0521.1308-.0752zm.836 1.5977c.106-.0547.2555-.1135.4355-.1338.1316-.3345.136-.6015.0801-.8096zM17 1.25c.6904 0 1.25.55964 1.25 1.25v1.79102l1.3223 2.2041c.1165.19427.1777.417.1777.64355V21.5c0 .6904-.5596 1.25-1.25 1.25h-13c-.69036 0-1.25-.5596-1.25-1.25V7.13867c0-.22655.06117-.44928.17773-.64355L5.75 4.29102V2.5c0-.69036.55964-1.25 1.25-1.25zm-11.25 20h9.5V9h-9.5zm11-12.80957V21.25h1.5V7.20801l-.4336-.72266zm-11-1.23242V7.5h9.8047L16.373 6H6.47461zm1.5-2.84668c0 .04653-.00465.09267-.00977.13867h9.51957c-.0051-.046-.0098-.09214-.0098-.13867V2.75h-9.5z"/>
</svg>
