<svg xmlns="http://www.w3.org/2000/svg" width="24" height="24" viewBox="0 0 24 24">
  <path fill="currentColor" d="M10.5205 5.18655c1.3071-2.26343 3.2182-3.28454 5.1621-3.042a.757.757 0 0 1 .1455.03321l.1367.06152c.1673.09659.2732.22819.3331.31348.0634.09055.1128.18513.1494.26074.0591.12254.1509.34533.1963.44629.1259.28026.2266.41355.3066.47266a.57.57 0 0 0 .0527.00292c.0992.0007.2179-.01103.4014-.03125.1614-.01778.3822-.0419.5996-.03613.2175.00587.5072.04199.7813.2002a.751.751 0 0 1 .2226.19629c1.1461 1.51447 1.2449 3.59395.0596 5.78222 1.4006 1.1443 2.2499 3.0372 2.25 5.5303-.0001 3.3697-1.5536 5.6366-3.9004 6.4463-.1935.0667-.5762.2171-.8545.3056-.3219.1024-.7029.1953-1.1152.1953-.903-.0002-1.7428-.3915-2.3145-.6328-2.0046-.8459-3.34812-2.808-3.53221-5.6367-.49083.158-.97997.2061-1.32325.249-1.94418.2427-3.85599-.7781-5.16308-3.042-1.30669-2.2637-1.23494-4.4299-.05274-5.99215a.76.76 0 0 1 .10157-.10937l.12109-.08691c.16712-.09649.33464-.12264.43848-.13184.11008-.00969.21708-.00519.30078.00098.13568.01004.37427.0415.48437.05273.30484.03099.47015.01116.56153-.02832.00692-.00978.01827-.02452.03027-.04492.0501-.08546.09869-.19446.17285-.36328.06529-.14864.15494-.35182.26856-.53711.11377-.18535.29056-.41793.56445-.57617.08638-.04978.18234-.08227.28125-.09473 1.23311-.15396 2.47109.20365 3.5459 1.08398.14928-.41027.34528-.82774.58788-1.24804m6.7881 5.38285c-.1205.0653-.253.16-.4287.289-.1579.116-.3659.2716-.5772.3916-.0751.0427-.1633.0851-.2597.125v9.2637l.9023-.2402c1.6026-.5614 2.872-2.1518 2.8721-5.0215-.0001-2.6131-1.0543-4.1608-2.4385-4.8399-.0195.0088-.0438.0179-.0703.0323m-3.8828.0127c-1.3393.7016-2.3476 2.2391-2.3477 4.7949.0001 2.7372 1.1565 4.3064 2.6377 4.9316.2992.1262.5712.2397.8272.3291v-9.2959c0-.014.0011-.0282.0019-.042-.301-.1323-.5534-.3034-.7392-.4375-.1818-.1311-.2774-.2065-.3799-.2802m-9.35256-2.127c-.5736.97029-.63994 2.3577.34082 4.0566 1.0791 1.869 2.46543 2.4551 3.67774 2.3038.17892-.0224.34292-.0449.49414-.0674L4.97949 8.50295c-.24185.01708-.46111.00084-.62304-.01562-.12999-.01322-.21278-.02357-.28321-.03223m2.73828-1.63476c-.04866.08222-.09888.18798-.16601.34082-.06224.14169-.14772.34285-.25196.5205-.02344.03993-.05127.08303-.08203.12793L9.7168 13.7071c.15938-.9087.4524-1.7092.8564-2.3907-.0365-.0484-.0734-.0941-.1064-.1377-.66755-.8821-.98048-1.95695-.8916-3.13278l-.06446.0586c-.8501-.95592-1.80127-1.32361-2.69922-1.28418M15.1611 3.6133c-1.1268-.01128-2.3611.62495-3.3418 2.32325-1.0166 1.76104-.9107 3.18912-.2783 4.16305.4324-.40854.9263-.73799 1.4707-.98337l2.5625-4.69238c-.1361-.20133-.2309-.39998-.2978-.54883-.0538-.11966-.0875-.19623-.1153-.26172m2.7871 1.55372c-.0957-.00113-.2124.009-.3789.02734-.1538.01695-.3711.04342-.5771.04199-.0454-.00034-.0954-.00379-.1484-.00781L14.5039 9.5137c.0676.05046.1315.09707.1797.13183.3376.24348.5726.35406.7559.35747.0132-.00412.0519-.01784.122-.05766.1184-.06727.2477-.16225.4297-.2959.1643-.1206.3775-.27643.6026-.39844.2249-.12189.5269-.24693.8769-.24707.1001 0 .1998.01972.292.05859.0068.00287.0137.0059.0205.00879.8693-1.64016.7565-2.97477.165-3.90429"/>
</svg>
