<svg xmlns="http://www.w3.org/2000/svg" width="24" height="24" viewBox="0 0 24 24">
  <path fill="currentColor" d="M13.3662 1.86328c.69.00024 1.2498.55999 1.25 1.25v1.56934c0 .05418-.005.10779-.0117.16015l2.1777 1.41211c.2129.13818.3416.37516.3418.62891v2.56055c0 .14964-.0289.29279-.0771.42578.0485.13328.077.27678.0771.42678v1.0068c0 .1777-.0386.347-.1054.5.0672.1533.1054.3229.1054.501v1.0068c0 .1778-.0385.3469-.1054.5.067.1531.1053.3222.1054.5v1.0069c0 .1776-.0386.3469-.1054.5.0671.1533.1054.3229.1054.5009v1.0069c0 .1777-.0385.3469-.1054.5.067.1531.1053.3222.1054.5v2.6416c0 .6901-.5599 1.2497-1.25 1.25H8.12695c-.69035 0-1.25-.5597-1.25-1.25v-2.6416c.00011-.1777.03757-.347.1045-.5a1.2465 1.2465 0 0 1-.1045-.5v-1.0069c.00006-.1779.03742-.3477.1045-.5009-.06681-.1531-.1045-.3224-.1045-.5v-1.0069c.00011-.1776.03756-.347.1045-.5a1.246 1.246 0 0 1-.1045-.5v-1.0068c.00006-.178.0374-.3478.1045-.501a1.247 1.247 0 0 1-.1045-.5v-1.0068c.00009-.1499.02772-.2936.07617-.42678-.04821-.13299-.07617-.27615-.07617-.42578V6.88379c.00025-.25382.12885-.49075.3418-.62891l2.17676-1.41211c-.0067-.05237-.01172-.10596-.01172-.16015V3.11328c.00023-.69007.55992-1.24985 1.25001-1.25zM8.37695 20.7178H15.624v-2.1416H8.37695zm0-3.6416H15.624v-.5069H8.37695zm0-2.0078H15.624v-.5069H8.37695zm0-2.0069H15.624v-.5068H8.37695zm0-2.0078H15.624v-.3594H8.37695zm0-3.76171v1.75489H15.624V7.29199l-2.0967-1.35937h-3.0537zm2.50685-2.85937h2.2324V3.36328h-2.2324z"/>
</svg>
