<svg xmlns="http://www.w3.org/2000/svg" width="24" height="24" viewBox="0 0 24 24">
  <path fill="currentColor" d="M7.2334 8.46972c.29292-.2925.76778-.29276 1.06055 0 .29244.29279.29239.76773 0 1.06055C6.80328 11.021 6.11044 12.4549 5.96973 13.6709c-.13845 1.1987.24921 2.2501 1.05371 3.0547.29253.2928.29255.7677 0 1.0605-.29281.2928-.76766.2926-1.06055 0-1.12401-1.1241-1.67485-2.6268-1.4834-4.2861.18984-1.6426 1.09715-3.3735 2.75391-5.03028m5.8604-3.56152c.7007-.70015 1.6445-.66377 2.4355-.37305.7918.29125 1.6025.88378 2.3271 1.6084.7249.72491 1.3183 1.53604 1.6094 2.32812.2906.79105.3264 1.73493-.374 2.43553-.7006.7004-1.6445.6646-2.4355.374-.7921-.2911-1.6043-.8836-2.3292-1.60835-.7247-.72482-1.3162-1.53712-1.6074-2.32911-.2906-.79111-.3265-1.73492.3741-2.43554m1.9169 1.03515c-.5148-.18909-.7413-.08851-.8564.02637-.1149.1151-.2157.34219-.0264.85742.1893.51438.6227 1.14709 1.2608 1.78516.6382.63809 1.2707 1.07168 1.7851 1.26074.515.18916.7424.08854.8575-.02637.1148-.11506.2144-.34265.0253-.85742-.1892-.51439-.6226-1.14701-1.2607-1.78515-.6382-.63812-1.2708-1.07155-1.7852-1.26075m-1.4589-3.73632c2.3742-.27436 4.5164.51174 6.123 2.11816 1.6064 1.60655 2.3925 3.74883 2.1182 6.12301-.2726 2.3572-1.5799 4.8787-4.0235 7.3223-2.4434 2.4433-4.9642 3.7499-7.3213 4.0225-2.37423.2743-4.51642-.5118-6.123-2.1182-1.60639-1.6065-2.39247-3.7488-2.11817-6.123.27256-2.3571 1.58011-4.87789 4.02344-7.32134 2.4435-2.44338 4.96423-3.75091 7.32133-4.02343m5.0625 3.17871c-1.2869-1.28669-2.9763-1.9095-4.8897-1.68848-1.9308.22316-4.15569 1.31684-6.43358 3.59473C5.01346 9.5697 3.92041 11.7939 3.69727 13.7246c-.22102 1.9134.40179 3.6028 1.68847 4.8897 1.28693 1.2867 2.9771 1.9106 4.89066 1.6894 1.9306-.2233 4.155-1.3164 6.4326-3.5937 2.2777-2.2777 3.3714-4.5029 3.5947-6.4336.2211-1.91354-.4027-3.60375-1.6894-4.89066"/>
</svg>
