<svg xmlns="http://www.w3.org/2000/svg" width="24" height="24" viewBox="0 0 24 24">
  <path fill="currentColor" d="M5.08203 14.4844c.29279-.2927.76766-.2926 1.06055 0 .29283.2928.29278.7676 0 1.0605-.73365.7337-1.04133 1.407-1.10254 1.9356-.05906.5111.10301.9483.44336 1.289.29254.2929.29269.7678 0 1.0606-.2928.2927-.76766.2925-1.06055 0-.66006-.6604-.98539-1.5505-.87305-2.5225.11062-.9547.63281-1.9237 1.53223-2.8232m2.0791-1.1983c.46081-.4607 1.05875-.4958 1.54981-.3506.46788.1387.90276.4488 1.25976.8057.3569.3569.6669.792.8057 1.2598.1454.4911.1112 1.0898-.3496 1.5508-.46098.4609-1.05967.495-1.55082.3496-.46787-.1388-.90282-.4488-1.25977-.8057-.35687-.357-.66706-.7919-.80566-1.2598-.14525-.491-.11017-1.089.35058-1.5498m1.08789 1.1241c.04367.1473.17648.3736.42774.625.25143.2514.47855.3839.62597.4277.01695.005.03196.0066.04395.0088-.0022-.0121-.00375-.0279-.00879-.0449-.04396-.1475-.1767-.374-.42774-.625-.25141-.2513-.47767-.3841-.625-.4278-.01731-.0051-.03277-.0065-.04492-.0088.00229.0121.00374.0277.00879.045m8.13378-3.5967c.3752.0002.6238.2356.7168.333.1192.125.2171.2739.293.4062.1553.2711.3009.6144.4238.9571.2392.6673.456 1.5111.4678 2.0517.0116.5425-.1216 1.0746-.4053 1.4922-.2886.4245-.76.7557-1.3672.7559-.6059-.0002-1.0951-.3305-1.3994-.7647-.2993-.4275-.4415-.9726-.4209-1.5273.0187-.5003.1745-1.3148.3682-1.9893.0976-.3398.2159-.684.3496-.956.0652-.1327.1518-.2844.2637-.4131.0888-.1022.3271-.3455.7099-.3457m.0742 2.3349c-.1502.566-.2543 1.1559-.2656 1.4571-.0103.2774.0641.4829.1436.5966.0738.1054.1275.1084.1445.1084.016 0 .0739-.0019.1523-.1171.084-.1237.1586-.342.1524-.6319-.0059-.2677-.1346-.8401-.3272-1.4131m1.2823-11.28512c.6902 0 1.2497.55984 1.25 1.25v1.56934c0 .05419-.0051.10778-.0118.16015l2.1778 1.41211c.2128.13818.3415.37518.3418.62891v2.56055c0 .14969-.0289.29275-.0772.42578.0485.13318.0771.27678.0772.42678v7.0293c0 .1777-.0386.3469-.1055.5.067.1531.1054.3222.1055.5v2.6416c0 .6902-.5598 1.2498-1.25 1.25H12.5c-.6903-.0001-1.25-.5597-1.25-1.25v-2.252c-.2744.3722-.5923.7427-.9561 1.1065-1.30803 1.3079-2.68777 2.0371-4.01363 2.1904-1.34298.1551-2.56389-.2917-3.47461-1.2022-.91038-.9106-1.35824-2.1317-1.20312-3.4746.15336-1.3258.88353-2.7056 2.1914-4.0136 1.30819-1.3082 2.68867-2.0391 4.01465-2.1924 1.32675-.1532 2.53431.2815 3.44141 1.1699v-2.0029c.0001-.1498.0268-.2937.0752-.42678-.0481-.13286-.0752-.27632-.0752-.42578V6.88379c.0002-.25382.1288-.49075.3418-.62891l2.1768-1.41211c-.0067-.05235-.0118-.10598-.0118-.16015V3.11328c.0003-.69007.56-1.24985 1.25-1.25zM12.75 20.7178h7.2471v-2.1416H12.75zm-2.5273-7.3242c-.59102-.5907-1.36018-.8753-2.24223-.7735-.89952.1042-1.98384.6206-3.12598 1.7627-1.14188 1.1421-1.65759 2.2256-1.76172 3.125-.10192.8822.18273 1.6502.77344 2.2412.59099.591 1.35898.8752 2.24121.7735.89953-.104 1.98373-.6187 3.12598-1.7608 1.1422-1.1422 1.6576-2.2264 1.7617-3.126.1019-.8821-.1817-1.6512-.7724-2.2421m2.5273 3.6826h7.2471v-6.3819H12.75zm0-9.78421v1.75489h7.2471V7.29199l-2.0967-1.35937h-3.0537zm2.5068-2.85937h2.2325V3.36328h-2.2325z"/>
</svg>
