<svg xmlns="http://www.w3.org/2000/svg" width="24" height="24" viewBox="0 0 24 24">
  <path fill="currentColor" d="M12 1.4541c.3881.00023.7076.29487.7461.67285l.0039.07715.0107.1416c.0551.34062.3117.74548.8819 1.26368.6402.5817 1.4927 1.14887 2.4375 1.82324.9129.65165 1.8917 1.39041 2.6396 2.25879.757.87893 1.3203 1.94013 1.3203 3.22749 0 3.5003-2.0579 6.162-4.9482 7.2686-.0324.1251-.0935.2448-.1914.3428-.5298.53-.5298 1.3899 0 1.9199.2924.2929.2926.7678 0 1.0605-.2929.2927-.7687.2928-1.0615 0-.7665-.7667-1.0067-1.8615-.7198-2.833-.205.0259-.4126.0452-.622.0567.4192 1.071.1972 2.3349-.668 3.2002-.2929.2925-.7678.2927-1.0605 0-.2744-.2746-.291-.7094-.0508-1.0039l.1533-.17c.3632-.4456.4278-1.0524.1963-1.5566-.213.7994-.88 1.4376-1.75002 1.5684-.40906.0609-.79075-.2209-.85254-.6299-.0615-.4093.22072-.7916.62989-.8535.35013-.0528.59171-.3803.53906-.7305a.755.755 0 0 1-.00781-.1318c-3.26177-.9186-5.66699-3.724-5.667-7.5079 0-1.28727.56444-2.3486 1.32129-3.22749.74781-.8682 1.72585-1.60724 2.63868-2.25879.94483-.67439 1.79719-1.24154 2.43745-1.82324.6516-.592.8935-1.0358.8936-1.40528 0-.41406.336-.74976.75-.75m-.7012 4.17676c-.9495 1.11075-1.88827 2.71606-2.37302 4.50394-.61322 2.2621-.48339 4.7312 1.16012 6.8642.3893.1058.795.1789 1.2129.2178zm1.5 11.57424c.3718-.0396.7333-.1063 1.0821-.1992a.8.8 0 0 1 .038-.045c1.9488-2.1289 2.0927-4.5644 1.377-6.7939-.5169-1.60995-1.4776-3.08004-2.4971-4.17286zM8.74512 6.68555c-.89246.63852-1.72027 1.2784-2.3291 1.98535-.60971.70815-.95704 1.4347-.95704 2.248.00001 2.0368.85443 3.7284 2.21973 4.8497-.78855-2.0193-.71444-4.133-.20117-6.02641.29688-1.09498.74394-2.13183 1.26758-3.05664m6.49708-.00782c.6095.91629 1.1321 1.94316 1.4814 3.03125.587 1.82862.6907 3.85702-.1113 5.80372 1.1939-1.1156 1.9277-2.7063 1.9277-4.5938 0-.8134-.3471-1.53977-.957-2.248-.6115-.70998-1.4439-1.35189-2.3408-1.99317"/>
</svg>
