<svg xmlns="http://www.w3.org/2000/svg" width="24" height="24" viewBox="0 0 24 24">
  <path fill="currentColor" d="M13.3154 9.47461c.1204-.0017.4506.00992.7002.28906.2443.27353.2311.60423.2217.72263-.0125.1571-.0527.3093-.0937.4326-.0844.2537-.2193.5383-.3633.8038-.1122.2066-.2482.4265-.3887.6386.8357.7812 1.3584 1.8929 1.3584 3.127-.0001 2.3637-1.9165 4.2803-4.2803 4.2803-2.36361-.0002-4.28013-1.9167-4.28025-4.2803C6.1895 13.6409 7.36009 12.0664 9 11.4668c-.16067-.1851-.2286-.445-.15625-.6982.11393-.3981.52956-.6285.92773-.5147.33572.096.62662.2725.85842.502.007-.006.0134-.0127.0205-.0186.3268-.2709.9187-.626 1.4404-.87792.2634-.12715.5462-.24558.7959-.31543.1212-.03388.2729-.06706.4287-.06934M9.73633 12.8086c-1.17916.3221-2.04682 1.3985-2.04688 2.6797.00012 1.5352 1.24506 2.7801 2.78025 2.7803 1.5353 0 2.7802-1.245 2.7803-2.7803 0-.8085-.3474-1.534-.8984-2.042-.3169.1685-.6499.237-.9307.248-.2066.0081-.4107-.0122-.5938-.0595-.1509-.0391-.4065-.1257-.5966-.3379-.0179-.0201-.0341-.0416-.0498-.0625-.20996-.0732-.36559-.2323-.44437-.4258m2.40237-1.2627.0029.002c.0014-.0021.0035-.0038.0049-.0059-.0025.0015-.0053.0024-.0078.0039M17 1.25c.6904 0 1.25.55964 1.25 1.25v1.79102l1.3223 2.2041c.1165.19427.1777.417.1777.64355V21.5c0 .6904-.5596 1.25-1.25 1.25h-13c-.69036 0-1.25-.5596-1.25-1.25V7.13867c0-.22655.06117-.44928.17773-.64355L5.75 4.29102V2.5c0-.69036.55964-1.25 1.25-1.25zm-11.25 20h9.5V9h-9.5zm11-12.80957V21.25h1.5V7.20801l-.4336-.72266zm-11-1.23242V7.5h9.8047L16.373 6H6.47461zm1.5-2.84668c0 .04653-.00465.09267-.00977.13867h9.51957c-.0051-.046-.0098-.09214-.0098-.13867V2.75h-9.5z"/>
</svg>
