<svg xmlns="http://www.w3.org/2000/svg" width="24" height="24" viewBox="0 0 24 24">
  <path fill="currentColor" d="M18.9189 1.61427c.1313-.00179.417.01092.6612.20997l.1015.09765c.2562.28717.2482.64135.2364.79004-.015.18756-.0659.37764-.1211.54395-.1129.33944-.2967.72975-.5 1.10449-.1673.30823-.3651.63466-.5703.9414 1.6974 1.20851 2.8085 3.19252 2.8086 5.43753-.0002 3.3057-2.6376 5.9535-5.753 6.5254l.8408.8408c.2926.2929.2927.7687 0 1.0615-3.2551 3.2551-8.53365 3.2547-11.78902 0-3.25519-3.2553-3.25526-8.5338 0-11.78905.29283-.29266.76769-.29261 1.06055 0l2.36914 2.36914c.40529-2.71906 2.45143-4.9014 5.09863-5.50977-.0322-.00988-.0652-.01974-.0986-.02734-.4039-.0917-.6571-.49356-.5655-.89746.0918-.4038.4937-.65703.8975-.56543.5778.13122 1.0745.4298 1.4512.83203.0693-.07552.144-.14939.2265-.21777.4435-.36753 1.2716-.86481 2.0127-1.22266.3734-.18023.7617-.34413 1.0957-.4375.1633-.0456.3521-.08427.5371-.08692M5.39355 8.99806c-2.15577 2.68404-1.989 6.61714.50098 9.10744 2.4903 2.49 6.42337 2.6567 9.10747.501l-.5313-.5313c-2.3812 2.0517-5.97861 1.9498-8.2373-.3086-2.25843-2.2587-2.36135-5.857-.30957-8.23826zm2.44141 7.69724c-.09886.0987-.21942.1613-.3457.1934.75999.6768 1.69207 1.0545 2.64454 1.1348l-.38185-3.2461zm3.79594 1.2071c.5432-.1361 1.0671-.3723 1.54-.711l-1.8398-1.8398zm2.6865-12.30668c-2.6001.27242-4.62678 2.47133-4.62697 5.14358-.00009.1253-.03434.2418-.08887.3457l4.80764 4.8066c.0398-.0065.0813-.0107.123-.0107 2.9148-.0004 5.5028-2.3418 5.503-5.1416-.0001-1.78111-.9015-3.35207-2.2745-4.28323-.5032.40876-1.1031.55969-1.5947.5791-.2701.01058-.5339-.01655-.7646-.07617-.1414-.03663-.3298-.10203-.502-.21973-.0154-.00249-.0314-.00435-.0469-.00781-.4039-.09165-.657-.49356-.5654-.89746.0181-.07963.0266-.15946.0303-.23828M5.96094 13.6006c.02038.7834.24123 1.5627.66308 2.2539.03611-.0793.08524-.1544.15039-.2197l1.7334-1.7344zm.84765-2.7715a4.533 4.533 0 0 0-.64062 1.2852l2.18262.2568zM17.918 3.50881c-.6864.33143-1.3967.76884-1.711 1.02929-.192.15919-.3123.41913-.3525.70606-.0138.09845-.013.18756-.0088.25976.0727.01185.1639.02064.2666.0166.2953-.0117.5814-.10722.7744-.2871.2687-.25088.7375-.91495 1.1123-1.60547a9 9 0 0 0 .1094-.20801c-.0614.02798-.1257.0576-.1904.08887"/>
</svg>
