<svg xmlns="http://www.w3.org/2000/svg" width="24" height="24" viewBox="0 0 24 24">
  <path fill="currentColor" d="M10.9346 1.58691c.6223.01052 1.0758.40887 1.3701.83008.2581.36963.4593.84703.6269 1.37696.2826-.24647.6278-.48948.9883-.70997.8794-.53774 1.9892-1.04119 2.8252-1.25878.8818-.22939 1.7768-.18823 2.5195.12011.7503.31164 1.3684.91318 1.5567 1.76465.1883.85244-.1242 1.63522-.668 2.21192-.5383.57063-1.3238.97153-2.2051 1.14648-.915.18147-2.2126.03776-3.2578-.21582-.4249-.10313-.8392-.2335-1.1982-.38379.1228.89108.2153 1.8667.2793 2.88379.0071.11387.012.22862.0185.34375.0432-.02728.0863-.05534.1299-.08203.8794-.53777 1.9892-1.04117 2.8252-1.25879.8818-.22939 1.7768-.18823 2.5195.12012.7503.31166 1.3685.9132 1.5567 1.76461.1881.8524-.1242 1.6353-.668 2.2119-.5383.5707-1.3238.9706-2.2051 1.1456-.915.1814-2.2126.0387-3.2578-.2149-.275-.0667-.5457-.1453-.7998-.2324.0038.8223-.0049 1.6483-.0263 2.4609.174-.0724.355-.1411.538-.2041.9747-.3354 2.167-.5879 3.0303-.6201.9105-.0338 1.7759.1998 2.4346.6611.6653.4662 1.1385 1.1867 1.1387 2.0586 0 .873-.4736 1.5698-1.1289 2.0157-.6488.441-1.5021.6628-2.4004.6435-.9327-.0202-2.1689-.44-3.1348-.9131-.2197-.1076-.4334-.2242-.6357-.3437-.066.932-.1465 1.8059-.2422 2.5879-.0504.411-.425.7034-.836.6533-.4111-.0504-.7036-.4248-.6533-.8359.0872-.7116.1615-1.5041.2236-2.3497-.1735.0994-.354.1975-.539.2881-.9659.4731-2.20303.8929-3.13576.9131-.89821.0193-1.75066-.2025-2.39942-.6435-.65564-.4459-1.12987-1.1424-1.12988-2.0157.00014-.8721.47413-1.5924 1.13965-2.0586a3.28 3.28 0 0 1 .28027-.1757c-.59422-.3215-1.06637-.8496-1.22754-1.5791-.18787-.8516.11872-1.6572.66797-2.2559.54374-.5924 1.33811-1.0066 2.23438-1.1699.84998-.1548 2.06873-.1662 3.09273-.0488.4007.0459.7972.1158 1.1455.2128-.0149-.3327-.0314-.66134-.0517-.98433-.0627-.99732-.1517-1.93092-.2666-2.76563-.0345.03447-.0676.06642-.0996.09375-.1719.14684-.377.26788-.5811.36816-.4112.20197-.9287.37255-1.46189.50196-1.04512.25358-2.34276.39627-3.25781.21484-.88136-.17491-1.66667-.57485-2.20508-1.14551-.54394-.57663-.8561-1.35942-.66797-2.21191.18825-.85145.80637-1.45301 1.55664-1.76465.74273-.30828 1.63781-.34954 2.51953-.12012.83597.21765 1.94593.72013 2.82518 1.25782.349.21344.6836.44827.961.68652-.0017-.00608-.0023-.01251-.004-.01855-.168-.60749-.3491-1.02463-.5195-1.26856-.1488-.21287-.2121-.19476-.1846-.18945-.4057.01778-.7529-.2899-.7802-.69727-.0276-.41324.285-.7712.6982-.79883zM8.47949 16.2861c-.63291-.0234-1.15814.1436-1.50293.3848-.33771.2365-.48228.5216-.48242.8037.00001.2812.14358.5644.49121.8008.35472.241.89274.4044 1.53809.3906.61125-.0133 1.61386-.3238 2.49996-.7578.4329-.2121.7943-.4334 1.0342-.625.0073-.0058.0146-.0119.0215-.0176-.2323-.1405-.5759-.2941-.9951-.4385-.8773-.3019-1.92398-.5156-2.60451-.541m9.04101 0c-.6804.0254-1.7263.2392-2.6035.541-.4195.1445-.7637.298-.9961.4385.007.0057.0141.0117.0215.0176.24.1917.602.4128 1.0351.625.8861.434 1.8879.7445 2.4991.7578.6455.0139 1.1843-.1495 1.539-.3906.3474-.2364.4912-.5197.4912-.8008-.0001-.2821-.1447-.5672-.4824-.8037-.3448-.2414-.8706-.4083-1.5039-.3848m-5.4502-2.3252c-.4978.3968-1.0934.7943-1.6836 1.0996.4152.0975.8306.2155 1.2119.3467.2634.0907.5224.1921.7627.3018.0188-.665.0285-1.3403.0303-2.0156a9.85 9.85 0 0 1-.3213.2675m-1.0849-2.2441c-.9217-.1056-1.98927-.0888-2.65923.0332-.62328.1136-1.10011.3902-1.38476.7002-.27876.3038-.3586.6131-.29786.8887.0607.2745.26193.5199.65235.6757.39842.159.95955.2027 1.58691.0499.59396-.145 1.50489-.6646 2.27639-1.2793.377-.3006.683-.5941.876-.8331.0059-.0073.0119-.0153.0175-.0224-.2571-.0872-.6265-.1624-1.0673-.2129m7.7197-1.86524c-.3887-.16125-.9377-.21124-1.5508-.05176-.659.17152-1.6343.6058-2.4258 1.0898-.3691.2258-.6665.4445-.8633.629.0002.0074.0008.015.001.0224.0029.0016.0058.0034.0088.0049.2757.1354.6769.273 1.1455.3867.9589.2327 2.0048.3201 2.6045.2012.6332-.1258 1.1236-.4019 1.418-.7139.2882-.3057.3671-.6132.3066-.8877-.061-.2754-.2638-.5225-.6445-.68064M7.40234 4.0625c-.61311-.15954-1.16202-.10944-1.55078.05176-.38075.15807-.58353.40523-.64453.68066-.0605.27452.01832.58198.30664.8877.29436.31193.78476.58718 1.41797.71289.59973.11885 1.64562.03248 2.60449-.2002.46857-.11375.86987-.25133 1.14547-.38672.0085-.00417.0164-.00962.0245-.01367-.1966-.18735-.4995-.4111-.87798-.64258-.79146-.48405-1.76674-.91826-2.42578-1.08984m11.30276-.74121c-.3887-.1612-.9378-.21025-1.5508-.05078-.6589.17152-1.6344.60491-2.4258 1.08887-.3785.23149-.6814.45618-.8779.64355.0079.00403.016.00856.0244.01269.2757.13539.677.27298 1.1455.38672.9589.23267 2.0048.32008 2.6045.20118.6332-.12575 1.1237-.40191 1.418-.71387.2881-.30574.3672-.61319.3066-.8877-.061-.27537-.2639-.5226-.6445-.68066"/>
</svg>
