<svg xmlns="http://www.w3.org/2000/svg" width="24" height="24" viewBox="0 0 24 24">
  <path fill="currentColor" d="M16.6924 5.44434c.4036-.01742.8675.07383 1.2197.42578l.1211.13672c.2532.33033.321.73067.3057 1.08398-.0176.40286-.1438.82722-.3243 1.23633-.3632.82326-1.0157 1.73835-1.8544 2.57715-.9576.9575-2.0261 1.6822-2.9493 2-.3177.9233-1.0422 1.9914-2 2.9492-.8388.8389-1.75382 1.4912-2.57711 1.8545-.40905.1804-.8335.3066-1.23633.3242-.40369.0175-.86835-.0737-1.2207-.4258-.35234-.3523-.44324-.8169-.42578-1.2207.01752-.4029.14373-.8271.32422-1.2363.36323-.8234 1.01555-1.7382 1.85449-2.5771.95792-.9579 2.02583-1.6834 2.94921-2.001.3179-.92315 1.0425-1.99072 2-2.94825.8389-.83881 1.7539-1.49129 2.5772-1.85449.4091-.18043.8334-.30674 1.2363-.32422m.0644 1.49902c-.1522.00672-.3863.06101-.6953.19727-.6144.27102-1.3801.80109-2.122 1.54297-.8742.87419-1.4438 1.7706-1.6543 2.4102-.1375.4169-.4679.7472-.8848.8847-.6396.2106-1.53595.7802-2.41017 1.6543-.74197.742-1.2719 1.5076-1.54296 2.1221-.13651.3095-.19162.544-.19825.6963-.00147.0346.0001.061.00196.0801.01915.0018.04631.0044.08105.0029.15232-.0067.38705-.0619.69629-.1983.61445-.2711 1.38022-.8011 2.12208-1.5429.8741-.8742 1.4437-1.7706 1.6543-2.4102.1375-.4171.4676-.7473.8848-.8848l.2509-.0947c.6119-.262 1.3942-.7946 2.1592-1.55955.7418-.74189 1.2719-1.50764 1.543-2.12207.1364-.30928.1906-.54399.1972-.69629.0015-.03507.001-.06188-.0009-.08105-.0192-.00192-.0467-.0025-.0821-.00098M12.25 3.24707c2.4746-1.77969 5.8354-1.77493 7.9482.33789 2.08 2.08036 2.1179 5.37125.42 7.83394.4599.7636.8445 1.6022.9697 2.4405.135.9042-.0326 1.8268-.7149 2.5996l-.1435.1533-3.9512 3.9512-.1523.1435c-.7729.6824-1.6963.8489-2.6006.7139-.8521-.1274-1.704-.5231-2.4775-.9932-2.4416 1.5771-5.62529 1.4945-7.6563-.5361-2.06365-2.0637-2.11686-5.3182-.45996-7.7744-.34874-.6452-.62504-1.3316-.72754-2.0176-.13503-.90437.03247-1.82672.71485-2.5996l.14257-.15234L7.5127 3.39649l.15332-.14356c.7729-.68233 1.69618-.84992 2.60058-.71484.6739.10078 1.3482.36891 1.9834.70898m6.8877 1.39844c-1.6882-1.68811-4.6889-1.60982-6.708.40918-1.1508 1.15081-1.6794 2.64421-1.5928 4.02148.051.81213-.6429 1.50603-1.45506 1.45513-1.37697-.0865-2.86994.4414-4.02051 1.5917-2.01906 2.0191-2.09731 5.0199-.40918 6.7081 1.68825 1.6877 4.68906 1.6097 6.70805-.4092 1.1505-1.1508 1.6774-2.6444 1.5908-4.0215-.0512-.8121.643-1.5058 1.4551-1.4551l.2607.0088c1.3029.009 2.683-.522 3.7617-1.6006 2.0189-2.01893 2.0969-5.01976.4092-6.70799m.4355 7.97269c-1.379 1.2705-3.1313 1.8962-4.8193 1.8291.0696 1.7466-.6027 3.5623-1.9639 4.9619.5191.2741 1.0116.4617 1.4571.5283.5176.0772.9478-.0056 1.3164-.2969l.1543-.1377 3.9511-3.9511c.402-.4021.5229-.8791.4346-1.4707-.0668-.4471-.2545-.9418-.5303-1.4629m-9.5283-8.59671c-.59172-.08839-1.06853.03349-1.47068.43554L4.62207 8.4082l-.13672.15332c-.29138.3687-.37418.79861-.29687 1.31641.04666.31227.15153.64837.30468.99997 1.38231-1.28427 3.14488-1.91699 4.8418-1.84958-.06503-1.63835.52232-3.33783 1.71874-4.69726-.3549-.15533-.6938-.26245-1.0088-.30957"/>
</svg>
