<svg xmlns="http://www.w3.org/2000/svg" width="24" height="24" viewBox="0 0 24 24">
  <path fill="currentColor" d="M14.2852 2.80179c1.9087-1.90876 5.0041-1.90936 6.913-.00098 1.9089 1.90895 1.909 5.00514 0 6.91406L9.71387 21.1992c-1.90897 1.9084-5.00434 1.9078-6.91309-.0009-1.90818-1.9088-1.90815-5.0033 0-6.9121zM3.86133 15.3467c-1.32236 1.323-1.32239 3.468 0 4.791 1.32302 1.323 3.46882 1.3227 4.79199 0l4.37598-4.376-4.79199-4.7919zm5.4375-5.43749 4.79097 4.79199.6104-.6104-4.79102-4.79194zM20.1377 3.86136c-1.3232-1.3226-3.469-1.32199-4.792.00097l-4.376 4.37598 4.791 4.79099 4.377-4.37497c1.3231-1.32314 1.3231-3.46981 0-4.79297"/>
</svg>
