<svg xmlns="http://www.w3.org/2000/svg" width="24" height="24" viewBox="0 0 24 24">
  <path fill="currentColor" d="M7 1.96387c1.55954 0 2.48552.25569 3.041.62597.2876.19174.4734.41367.583.63282.0534.1068.0853.20615.1035.29101.0091.04216.0143.08075.0176.11426.0017.0167.0032.03261.0039.04687.0004.00706.0008.01408.001.02051v.0166s-.0344.00196-.75.00196h.75v1.25H19c.284 0 .5438.16106.6709.41504l1 2c.1053.21086.1052.45903 0 .66992l-.833 1.66504.833 1.66503a.7501.7501 0 0 1 0 .6699l-.833 1.6651.833 1.665a.7501.7501 0 0 1 0 .6699l-.833 1.6651.833 1.665c.116.2324.1033.5085-.0332.7295-.1367.2209-.3779.3555-.6377.3555h-9.25v1.25H10c.708 0 .75.0019.75.0019v.0166c-.0002.0065-.0006.0135-.001.0205-.0007.0143-.0022.0302-.0039.0469-.0033.0335-.0085.0721-.0176.1143-.0182.0848-.0501.1841-.1035.291-.1096.2192-.2954.441-.583.6328-.55547.3703-1.48135.626-3.041.626s-2.48553-.2557-3.04102-.626c-.28762-.1918-.47341-.4136-.583-.6328-.05335-.1069-.08533-.2062-.10352-.291-.00902-.0422-.01422-.0808-.01758-.1143-.00167-.0167-.00321-.0326-.0039-.0469-.00035-.007-.00083-.014-.00098-.0205v-.0166s.04199-.0019.75-.0019h-.75V3.71387H4c-.71559 0-.75-.00196-.75-.00196v-.0166c.00016-.00643.00064-.01345.00098-.02051.0007-.01426.00223-.03017.0039-.04687.00336-.03351.00855-.0721.01758-.11426.01821-.08486.05016-.18421.10352-.29101.10961-.21915.2954-.44108.583-.63282.5555-.37028 1.48148-.62597 3.04102-.62597m0 1.5c-1.44008 0-2.01436.24433-2.20898.37402-.01741.0116-.02988.02418-.04102.0332V21.5557c.01122.0091.02336.0224.04102.0341.19451.1297.76863.3741 2.20898.3741s2.01447-.2444 2.20898-.3741c.01766-.0117.0298-.025.04102-.0341V3.87109c-.01114-.00902-.02361-.0216-.04102-.0332C9.01436 3.7082 8.44008 3.46387 7 3.46387m3.75 15.50003h8.0361l-.457-.9151a.7501.7501 0 0 1 0-.6699l.832-1.665-.832-1.6651a.7501.7501 0 0 1 0-.6699l.832-1.665-.832-1.6651a.75.75 0 0 1 0-.66989l.832-1.66504-.625-1.25H10.75z"/>
</svg>
