<svg xmlns="http://www.w3.org/2000/svg" width="24" height="24" viewBox="0 0 24 24">
  <path fill="currentColor" d="M13.2256 7.69141c.4086-.0681.7952.20861.8633.61718.0679.4084-.2079.7951-.6162.86329-.6925.11551-1.0384.40576-1.2247.66699.6635.08969 1.2137.32013 1.6495.68163.2718-.1118.5715-.1669.8886-.1406.8503.0704 1.4607.6829 1.8135 1.3662.3594.6961.525 1.5829.459 2.5019-.0622.8655-.1812 2.0337-.5234 2.9825-.1717.4756-.4211.9595-.8028 1.3203-.4051.3829-.9373.6034-1.5732.5508-.2835-.0236-.5404-.0984-.7696-.2149-.0494.0523-.0994.1037-.1513.1524-.4324.4049-.9899.7109-1.6524.7109-.6398-.0001-1.1812-.2855-1.60836-.6699-.03556.0135-.07202.0259-.11035.0342-.62389.1334-1.18184-.0163-1.63477-.3438-.42653-.3086-.73896-.756-.97265-1.2051-.46642-.8964-.73963-2.0399-.917-2.8896-.18819-.902-.14321-1.8015.12012-2.5371.25853-.7221.78293-1.4073 1.61719-1.586.37517-.0802.73679-.0383 1.06738.0801.38132-.3584.86084-.6051 1.43754-.73339.0519-.18949.1315-.40957.2558-.63769.3707-.67961 1.093-1.35487 2.3848-1.57031m-1.6397 3.60349c-.9116.0001-1.3446.2877-1.59176.6397-.01681.0311-.03502.0625-.05664.0918l-.00293.0019c-.25624.4272-.37692 1.0681-.37695 1.9219.00004.8981.2514 2.0495.68848 2.958.2177.4525.4635.8068.7119 1.0381.2443.2273.4528.3036.6279.3037.1733 0 .3818-.0761.627-.3057.249-.2332.4949-.5903.7129-1.0449.4378-.9129.6894-2.0645.6894-2.9492 0-.8998-.1332-1.5644-.4189-1.9902-.2441-.3637-.6764-.6651-1.6104-.6651m3.2461.6289c.2192.639.2832 1.3466.2832 2.0264 0 1.1125-.3035 2.4853-.8369 3.5977-.0088.0184-.0193.0363-.0283.0546.0055.0006.011.0025.0166.003.1835.0152.3092-.0357.4316-.1514.1457-.1378.2955-.3804.4278-.7471.2655-.7363.3755-1.7202.4375-2.583.0493-.6878-.0811-1.2897-.293-1.7002-.1503-.291-.3094-.4345-.4385-.5m-6.53415.1309c-.12991.0653-.29656.2269-.4248.5849-.15536.434-.20437 1.0473-.06348 1.7227.17685.8472.41826 1.8081.78027 2.5039.01489.0286.03199.0551.04688.082-.37086-.9778-.57907-2.0719-.5791-2.998.00001-.6337.05527-1.2916.24023-1.8955M12 1.25c2.257 0 4.3276.25375 5.8574.67871.7597.21102 1.4291.47558 1.9258.80176.4661.30613.9668.79484.9668 1.49219V20.4766c-.0002.3916-.2114.6796-.4014.8564-.1906.1774-.43.3133-.6689.4209-.4831.2175-1.1358.3948-1.8828.5371-1.5065.2869-3.5557.459-5.7969.459-2.24125 0-4.29039-.1721-5.79688-.459-.747-.1423-1.39976-.3196-1.88281-.5371-.23892-.1076-.47832-.2435-.66894-.4209-.18999-.1768-.40122-.4648-.40137-.8564V4.22266l.00586-.12891c.05679-.62927.52403-1.07631.96094-1.36328.49666-.32618 1.16612-.59074 1.92578-.80176C7.67244 1.50375 9.743 1.25 12 1.25m7.25 4.75977c-.406.19474-.8783.36397-1.3926.50683-1.5298.42492-3.6005.67774-5.8574.67774-2.25689 0-4.32758-.25282-5.85742-.67774-.5143-.14286-.9866-.31209-1.39258-.50683V20.2891c.0423.0259.10291.059.18652.0966.32658.1471.84641.2983 1.54688.4317 1.3889.2645 3.33981.4326 5.5166.4326s4.1277-.1681 5.5166-.4326c.7005-.1334 1.2203-.2846 1.5469-.4317.0836-.0376.1442-.0707.1865-.0966zM12 2.75c-2.16116 0-4.0905.24375-5.45605.62305-.68806.19112-1.19093.40578-1.50391.61133-.17561.11537-.24809.19643-.27637.2373.02792.04062.09974.12223.27637.23828.31298.20555.81585.4202 1.50391.61133 1.36555.3793 3.29487.62305 5.45605.62305 2.1612 0 4.0905-.24375 5.4561-.62305.688-.19113 1.1909-.40578 1.5039-.61133.1759-.11562.2472-.1975.2754-.23828-.0285-.04102-.1005-.12236-.2754-.2373-.313-.20555-.8159-.42021-1.5039-.61133C16.0905 2.99375 14.1612 2.75 12 2.75"/>
</svg>
