<svg xmlns="http://www.w3.org/2000/svg" width="24" height="24" viewBox="0 0 24 24">
  <path fill="currentColor" d="M14.4287 5.34276c3.0374-.29046 4.928.09779 6.0361 1.19433 1.0904 1.07901 1.2041 2.65683 1.2842 4.00781.0051.0864-.0088.1693-.0312.2481.1109.1866.1757.4038.1758.6367v5.0722c-.0003.6872-.5559 1.25-1.2491 1.25H11.915a.78.78 0 0 1-.0683-.0029l-2.84475-.2598-2.62988.2588a.77.77 0 0 1-.07422.0039H3.30176c-.68996-.0003-1.24977-.56-1.25-1.25v-1.8105c.00001-.1936.04548-.3854.13183-.5586l.32813-.6563-.37695-.9765c-.05498-.143-.08296-.296-.08301-.4492v-.6211c.00001-.2581.07786-.4982.21191-.6973-.06774-.3485.12061-.7067.46289-.84082l11.50004-4.5c.0646-.02528.133-.0422.2021-.04882M3.55176 12.0049 3.9502 13.04c.12604.3276.1089.6938-.04786 1.0078l-.35058.7012v1.5029h2.71289l2.61426-.2578.11816-.0058.11816.0048 2.83597.2588h5.9541v-4.5722H3.55176zm15.85354 4.247h.9883v-4.5722h-.9883zm.0049-8.6484c-.5934-.58709-1.8477-1.03986-4.7383-.77637L6.10547 10.1797H20.2197c-.0913-1.2082-.2584-2.0306-.8095-2.5762"/>
</svg>
