<svg xmlns="http://www.w3.org/2000/svg" width="24" height="24" viewBox="0 0 24 24">
  <path fill="currentColor" d="M12.1074.90627c.2781-.0108.5395.133.6787.37402l1.4268 2.47266 2.376-1.55762c.2362-.15495.5391-.16395.7842-.02344.2447.1407.3905.40746.3759.68946v.0039c-.0002.00231-.0007.00609-.0009.00977-.0005.00874-.0011.02211-.002.03808-.0019.03302-.0041.08168-.0078.14258a42 42 0 0 1-.0352.51465c-.032.43089-.0822 1.02233-.1543 1.6582-.0718.63447-.1672 1.32524-.29 1.95118-.1194.6086-.2769 1.22155-.4951 1.66406-.7659 1.55283-2.2233 2.42463-3.75 2.66603v9.0576c-.0004.4138-.3362.7498-.75.75-.3983 0-.7236-.311-.7481-.7031-.0176-.0584-.0303-.1199-.0332-.1836-.0591-1.3498-.8641-2.6275-1.92771-3.5938-.10873-.0987-.22059-.192-.33203-.2822-.73947 1.0836-1.98955 1.8778-3.48242 1.7813-.66755-.0433-1.75423-.2975-2.65137-.6065-.45089-.1553-.89851-.3393-1.24218-.541-.16838-.0989-.35112-.2254-.49707-.3818-.13302-.1428-.34783-.4339-.30079-.833l.01563-.0899c.04345-.1996.14432-.3512.22461-.4492.09616-.1172.20906-.2149.31348-.292.20918-.1544.47098-.295.73925-.4189.21843-.101.46163-.1979.71485-.2911-.15878-.1837-.30825-.3657-.43653-.542-.16761-.2303-.32613-.4802-.42675-.7236-.05031-.1218-.09834-.2722-.11426-.4355-.0158-.1643-.00244-.3914.125-.6123l.04687-.0743c.11535-.1629.26454-.2631.38282-.3242.13721-.0706.28041-.1126.40527-.1387.24912-.0518.53388-.0644.81152-.0585.22472.0048.46758.0251.71778.0527-.02216-.1093-.04494-.2203-.0625-.3301-.04916-.3075-.08393-.6598-.05762-.9844.02034-.2498.08953-.64716.37695-.94528l.1377-.12207.12207-.07812c.28726-.15297.58359-.11748.75-.0791.20861.04814.4082.14478.57812.24121.34655.19669.72985.49185 1.08985.80466.71603.6224 1.48025 1.4358 1.85156 1.9922.64231.9632.7477 2.07.49902 3.0703.24128.1783.47998.3722.70998.5811.3325.3021.6541.6426.9502 1.0137v-5.1944c-1.61765-.1786-3.19628-1.0588-4.00686-2.70213-.21817-.4425-.37569-1.05547-.49511-1.66406-.12278-.62593-.21816-1.31672-.29004-1.95118-.07203-.63585-.1213-1.22731-.15332-1.6582a41 41 0 0 1-.03516-.51465c-.00376-.06089-.00692-.10956-.00879-.14258-.0009-.01596-.00149-.02934-.00195-.03808-.0002-.00367-.00078-.00746-.00098-.00977v-.0039c-.01468-.2841.13313-.55257.38086-.69239.24784-.13969.55352-.12734.78906.03223l2.53319 1.7168L11.46 1.33205l.0507-.08984c.1319-.19992.3533-.32637.5967-.33594M5.98829 11.0088c.08469.5296.23682 1.0316.30371 1.3057.06083.2499-.01076.5142-.18945.6992-.17885.1849-.44055.2653-.69239.2129-.55441-.1155-1.12348-.1893-1.56445-.2012.27117.369.67471.8119 1.0957 1.2168.19449.1872.27383.465.20703.7266-.06699.2613-.26898.4672-.52929.5381-.59239.1612-1.19273.3681-1.63867.5732.17253.0755.37437.1539.59668.2305.82981.2858 1.77613.4969 2.25976.5283.8582.0556 1.63486-.3923 2.12891-1.1026-.00688-.0034-.01365-.0073-.02051-.0107-.53373-.2625-.96065-.3659-1.2207-.3633-.41399.0043-.75321-.3282-.75782-.7422-.00402-.4138.32823-.7534.74219-.7578.54989-.0057 1.16799.1773 1.76465.4551.03084-.4933-.08384-.9841-.36719-1.4092-.26904-.4032-.92459-1.1177-1.58691-1.6933-.20333-.1767-.39629-.3264-.56446-.4463.00793.0746.0196.1551.03321.2402m5.21481-5.65722c-.0942.19664-.27.34326-.4804.40039-.2106.05699-.4366.01965-.6172-.10254L8.13673 4.31545c.02204.23486.04696.48626.07617.74414.06948.6133.15849 1.26.27051 1.83105.11539.5881.24392 1.03607.36914 1.29004.51999 1.0537 1.53255 1.68563 2.66115 1.85452V7.45314c.0001-.41412.3358-.74998.75-.75.414.00016.7499.33597.75.75v2.53321c1.0246-.22257 1.9256-.83574 2.4043-1.80567.1252-.25398.2537-.70193.3691-1.29004.112-.57107.201-1.21774.2705-1.83105.0305-.26897.0555-.53087.0781-.77442l-1.7636 1.15821c-.1723.11279-.3846.15008-.585.10254-.2003-.04772-.3724-.1772-.4756-.35547l-1.1123-1.92676zm5.0157 6.42972c.2822.0007.5406.1592.6679.4111l.8604 1.7041 1.6601-.958c.2225-.1281.4953-.1319.7227-.0127.2274.1193.3794.3466.4004.6025l-.001.001.001.001v.0059c.0003.004.0005.0099.001.0166.001.014.0033.0339.0048.0585.0032.0505.0062.1239.0098.2129.0072.1781.0135.428.0078.7168-.0052.264-.0212.5719-.0556.8946.3537-.0363.6932-.0514.9834-.0567.302-.0055.5628-.0009.749.0059.0929.0034.1681.0077.2207.0107.0262.0015.0479.002.0625.003.0069.0004.0125.0016.0166.0019h.0058l.001.001.002-.001c.2641.0197.4984.1778.6162.415.1174.2371.1018.5192-.042.7413l-.001.0009-.001.002s-.0034.0046-.0048.0068c-.0037.0056-.0092.0135-.0157.0235a13 13 0 0 1-.0586.0888c-.0508.0767-.1251.1872-.2158.3203-.1815.2665-.4345.6302-.7187 1.0147-.2834.3832-.6038.7961-.92 1.1582-.3046.3489-.6481.7015-.9755.9199-1.3502.9001-2.9778.7525-4.2012.0449-1.223-.7075-2.1628-2.0445-2.0586-3.6591.0254-.3929.1597-.8664.3096-1.3047.1555-.4548.3527-.939.5429-1.376.1909-.4384.3786-.8396.5186-1.1299.0699-.1451.1289-.2643.1699-.3467.0202-.0406.0367-.0726.0479-.0947l.0175-.0352.668.3409-.667-.3418a.7496.7496 0 0 1 .669-.4082m-.0489 2.6152c-.1816.4172-.3617.8601-.499 1.2617-.143.4183-.2186.7334-.2305.916-.0604.9367.4801 1.7825 1.3116 2.2637.8312.4807 1.8338.528 2.6181.0049.1523-.1016.3871-.3243.6778-.6572.2792-.3199.573-.6974.8437-1.0635.0563-.0761.1106-.1527.1641-.2266-.4363.0257-.8993.0797-1.2969.1846-.2609.0687-.5389-.0082-.7275-.2012-.1883-.193-.2583-.4723-.1836-.7314.1115-.3861.1677-.84.1923-1.2647l-1.2304.709c-.1783.1027-.3917.128-.5889.0694-.1974-.059-.3631-.1981-.456-.3819l-.5235-1.039c-.0228.0514-.0483.1035-.0713.1562"/>
</svg>
