<svg xmlns="http://www.w3.org/2000/svg" width="24" height="24" viewBox="0 0 24 24">
  <path fill="currentColor" d="M11.7275 15.5107h-1v-1h1zm2.1231 0h-1v-1h1zm-2.1231-1.8388h-1v-1h1zm1.8614-.5254h-1v-1h1zm-2.7881-4.16898c.3416-1.15734 1.9411-1.19345 2.3613-.1084l.0371.1084.209.71191.5889-.45215.0937-.0664c.9777-.63108 2.2505.3384 1.8467 1.47562l-.249.6982.7422-.0195.1142.0019c1.1623.0639 1.6225 1.5967.627 2.2793l-.6133.419.6133.4199c1.0277.7045.5043 2.3143-.7412 2.2803l-.7422-.0205.249.6992c.4178 1.1743-.9527 2.1703-1.9404 1.4101l-.5889-.4541-.209.7129c-.3522 1.1957-2.0462 1.1957-2.3984 0l-.21-.7119-.5879.4531c-.98773.76-2.35722-.2358-1.93942-1.4101l.24804-.6992-.74121.0205c-1.24592.0343-1.76949-1.5758-.74121-2.2803l.61133-.4199-.61133-.419c-1.02788-.7045-.50458-2.3156.74121-2.2812l.74121.0195-.24804-.6982c-.40401-1.13727.86793-2.10667 1.8457-1.47562l.09372.0664.5879.45215zm1.126 1.48628c-.2485.8424-1.2649 1.1725-1.96098.6368l-.20508-.1582.08692.2441c.29444.8275-.33493 1.693-1.21289 1.6689l-.25782-.0078.21289.1465c.7245.4964.72421 1.5659 0 2.0625l-.21386.1455.25879-.0068c.87764-.0241 1.50653.8417 1.21289 1.6689l-.08692.2432.20508-.1572.13378-.0908c.6402-.3747 1.4748-.1033 1.7725.5761l.0547.1524.0732.248.0732-.248.0557-.1524c.2978-.6791 1.1314-.9507 1.7715-.5761l.1348.0908.2041.1572-.086-.2432c-.2939-.8274.3341-1.6931 1.2119-1.6689l.2578.0068-.2128-.1455c-.7242-.4966-.7245-1.5661 0-2.0625l.2119-.1465-.2569.0078c-.878.0243-1.5063-.8413-1.2119-1.6689l.086-.2441-.2041.1582c-.6961.5357-1.7136.2057-1.962-.6368L12 10.2148zm2.0078-9.11421c.3584-.20635.8173-.08358 1.0244.27441.2069.35846.0837.81709-.2744 1.02442-1.1793.68087-1.7578 2.00243-1.5528 3.27148 3.9848.55138 7.0542 3.9692 7.0547 8.1055 0 4.5208-3.6657 8.1863-8.1865 8.1865-4.52078-.0002-8.18555-3.6657-8.18555-8.1865.00037-3.1172 1.74302-5.82595 4.30469-7.20804-.38062-.4301-.79124-.95534-1.13184-1.45019-.2699-.39217-.51898-.79725-.67675-1.14746-.07724-.17153-.14925-.36584-.17871-.55665-.02342-.15227-.05384-.51266.23046-.81152.2796-.29339.66879-.32125.83301-.32422.20943-.00369.42977.02951.62989.07129.40874.08541.8933.24357 1.36621.42676.91979.35636 1.97239.8765 2.52439 1.31152.2861-1.21474 1.0529-2.31413 2.2188-2.9873m-.336 6.18359c-.0423.20105-.1637.38523-.3554.4961-.3257.18785-.7336.10297-.961-.18262-.2078.14815-.4514.22838-.6347.27246-.2704.06491-.5826.09503-.9034.08301-.4228-.01596-.90731-.11096-1.36324-.33008l-.00293.00195C6.988 8.89435 5.31485 11.2655 5.31445 14.0254c0 3.6924 2.9932 6.6863 6.68555 6.6865 3.6924-.0002 6.6865-2.9941 6.6865-6.6865-.0004-3.141-2.1677-5.77561-5.0879-6.49222M8.31152 4.5908c.50403.73233 1.14141 1.48712 1.51368 1.82031.2596.23229.6326.34451 1.0019.3584.1623.00606.3029-.01198.4063-.0332.0095-.09912.0081-.23288-.0195-.38477-.0629-.34576-.2336-.69031-.5176-.91699-.3616-.28844-1.24397-.74446-2.12794-1.08692-.19029-.07371-.37284-.13849-.54102-.19335.0835.13648.17878.28335.28418.43652"/>
</svg>
