<svg xmlns="http://www.w3.org/2000/svg" width="24" height="24" viewBox="0 0 24 24">
  <path fill="currentColor" d="M19.1777 2.55275c.3961-.12041.8148.10306.9356.49902.1206.39614-.1029.81579-.499.93653-.8749.26675-1.3331.55323-1.5596.79297-.1929.20432-.2428.39792-.2158.63867.0322.28603.1782.64883.4472 1.1084.2667.45535.6048.92575.9678 1.44824.351.50519.723 1.05588.999 1.61133.2315.46579.42.98579.4541 1.53029.4354.5804.7512 1.2548.9151 1.9863h.2783c.2086 0 .4079.0874.5498.2402.1416.1528.2136.3577.1982.5655-.0892 1.2013-.2549 3.1547-1.0586 4.8134-.408.8421-.9942 1.6385-1.8418 2.2217-.8001.5504-1.7927.8834-3.0029.9229l-.2451.0039h-9l-.24512-.0039c-1.21062-.0395-2.20361-.3722-3.0039-.9229-.84767-.5833-1.43274-1.3796-1.84082-2.2217-.80377-1.6588-.96931-3.612-1.0586-4.8134-.0154-.2078.05665-.4127.19825-.5655.14174-.1526.34053-.24.54882-.2402h.09375c.56119-4.08396 4.07626-7.22647 8.32522-7.22656 2.6669.00026 5.043 1.23985 6.583 3.17188.4457.05103.8745.15738 1.2793.3125a26.3 26.3 0 0 0-.3584-.5293c-.3408-.49051-.7259-1.02695-1.0303-1.54687-.3016-.51521-.575-1.09724-.6426-1.69922-.0725-.64743.0988-1.28817.6162-1.83594.4843-.51245 1.2283-.89809 2.2129-1.19824M2.91699 14.6045c.10895 1.0939.31617 2.3779.84278 3.4649.32547.6716.75964 1.239 1.34179 1.6396.57631.3966 1.34492.663 2.39844.6631h9c1.0532-.0001 1.8222-.2667 2.3984-.6631.5819-.4006 1.0164-.9683 1.3418-1.6396.5266-1.087.7329-2.3711.8418-3.4649zm7.60061-7.22656c-3.42343.00009-6.2605 2.47846-6.80862 5.72656h.51856c.54024-2.9837 3.14977-5.24677 6.28906-5.24706 3.1394.00012 5.7479 2.26336 6.2881 5.24706h.0723c.1495-.0481.2896-.097.4209-.1455-.6071-3.17609-3.4085-5.58067-6.7803-5.58106m-.001 1.9795c-2.30741.00027-4.24082 1.59776-4.75683 3.74706h.65136c.44729-1.7872 2.14743-3.0711 4.10547-3.0713 1.9582 0 3.6581 1.2841 4.1055 3.0713h.6513c-.5158-2.1494-2.4492-3.74694-4.7568-3.74706m0 2.17576c-1.17106.0001-2.12577.6672-2.52246 1.5713H13.04c-.3966-.9043-1.3521-1.5713-2.5234-1.5713m9.4365 1.5713h.1153a4.2 4.2 0 0 0-.0313-.0928c-.0276.0307-.0547.0628-.084.0928m-1.7148-2.1631c.18.4165.3266.8506.4375 1.2988.2777-.2248.4174-.4366.4834-.623-.269-.2695-.5798-.4974-.9209-.6758"/>
</svg>
