<svg xmlns="http://www.w3.org/2000/svg" width="24" height="24" viewBox="0 0 24 24">
  <path fill="currentColor" d="M16.4677 1.25c.7209.00025 1.293.60866 1.2481 1.32812l-.9375 14.99998c-.0102.1633-.0528.3173-.1191.4571.0577.1438.0908.3004.0908.4648v3c0 .6902-.5599 1.2498-1.25 1.25H8.49998c-.69017-.0002-1.25-.5598-1.25-1.25v-3c0-.1642.0313-.3212.08886-.4648-.0662-.1397-.10697-.294-.11718-.4571l-.9375-14.99998C6.2392 1.85865 6.81138 1.25023 7.5322 1.25zm-7.71772 20H15.25v-2.5h-.5v.75c0 .6902-.5599 1.2498-1.25 1.25h-3c-.69019-.0002-1.25002-.5598-1.25002-1.25v-.75h-.5zm2.00002-2h2.5v-.5h-2.5zm-2.04495-2h6.59085L15.374 16H8.62693zm-.17187-2.75h6.93452l.5938-9.5H7.93943zm-.6875-11h8.30952l.0469-.75H7.7988z"/>
</svg>
