<svg xmlns="http://www.w3.org/2000/svg" width="24" height="24" viewBox="0 0 24 24">
  <path fill="currentColor" d="M12.957 10.752c.3672-.0095.8115.0276 1.2842.2441 1.0409.4769 1.3252 1.4547 1.3252 2.2734-.0001.5422-.2656 1.1628-.6006 1.6358-.331.4671-.8815 1.0032-1.6084 1.0976-.9155.1187-1.4062.0909-2.1875.001-.6533-.0753-1.2052-.5314-1.56052-.9853-.36597-.4677-.6601-1.1028-.66016-1.7491.00002-.7627.22762-1.8558 1.37008-2.292.7437-.2836 1.4874-.172 1.8301-.1718.086 0 .1854-.0077.3281-.0205.1326-.012.302-.0286.4795-.0332m-.1172 1.5097c-.0393.109-.1011.2118-.1923.2959-.3045.2808-.7788.2614-1.0596-.043l-.002-.0009-.0009-.002-.003-.0029c-.002-.0023-.0045-.0052-.0068-.0078-.0048-.0054-.0107-.0115-.0166-.0186-.0119-.0141-.0263-.0328-.042-.0537-.0268-.0356-.0592-.0847-.0928-.1435-.1996-.0021-.3626.0149-.5693.0937-.1533.0586-.2372.1468-.2959.2695-.0687.1438-.1094.3521-.1094.6211.0001.2161.1149.5343.3418.8243.2371.3028.4637.4096.5498.4199.6967.0801 1.0603.1008 1.8233.0019.1124-.0146.3403-.1426.5771-.4765.2327-.3284.3251-.6487.3252-.7696 0-.5074-.1543-.7735-.4502-.9091-.1953-.0894-.3903-.1144-.6201-.1084-.0517.0013-.103.0061-.1563.0097M16.5 1.25c1.2426 0 2.25 1.00736 2.25 2.25 0 .38218-.0965.74143-.2646 1.05664C19.8174 5.13202 20.75 6.45673 20.75 8v11c0 2.0711-1.6789 3.75-3.75 3.75H7c-2.07107 0-3.75-1.6789-3.75-3.75V8c0-1.54295.93205-2.86779 2.26367-3.44336C5.3457 4.24153 5.25 3.88201 5.25 3.5c0-1.24264 1.00736-2.25 2.25-2.25zM19.25 18c-.6268.4708-1.4057.75-2.25.75H7c-.84426 0-1.62323-.2792-2.25-.75v1c0 1.2426 1.00736 2.25 2.25 2.25h10c1.2426 0 2.25-1.0074 2.25-2.25zM7 9.75c-1.24264 0-2.25 1.0074-2.25 2.25v3c0 1.2426 1.00736 2.25 2.25 2.25h10c1.2426 0 2.25-1.0074 2.25-2.25v-3c0-1.2426-1.0074-2.25-2.25-2.25zm0-4C5.75736 5.75 4.75 6.75736 4.75 8v.99902C5.37669 8.52841 6.15595 8.25 7 8.25h10c.8441 0 1.6233.27841 2.25.74902V8c0-1.24264-1.0074-2.25-2.25-2.25zm.5-3c-.41421 0-.75.33579-.75.75s.33579.75.75.75H8v-1.5zm2 1.5H11v-1.5H9.5zm3 0H14v-1.5h-1.5zm3 0h1c.4142 0 .75-.33579.75-.75s-.3358-.75-.75-.75h-1z"/>
</svg>
