<svg xmlns="http://www.w3.org/2000/svg" width="24" height="24" viewBox="0 0 24 24">
  <path fill="currentColor" d="M8.5791 1.72365c.20707-.35847.66581-.48116 1.02442-.27442.94948.54834 1.63368 1.37959 2.00978 2.3252.0646-.06327.1335-.12486.207-.18359.548-.43739 1.6121-.96277 2.5401-1.32227.4729-.18319.9564-.34136 1.3652-.42676.2004-.04185.4211-.07504.6308-.07129.1646.00303.5537.02986.8331.32325.2843.29922.2529.66065.2294.8125-.0295.19068-.1015.38427-.1787.55566-.1578.35024-.4058.75625-.6757 1.14844-.4726.68656-1.0813 1.43064-1.5557 1.89941 1.0229.29738 1.9353.74375 2.6982 1.32715 1.5012 1.14819 2.3984 2.80827 2.3985 4.77247-.0002 1.8434-.5593 4.1998-1.8584 6.1162-1.3175 1.9431-3.4156 3.4521-6.4209 3.4521-3.00304 0-5.12789-1.5064-6.47366-3.4453-1.32823-1.914-1.91977-4.2718-1.91992-6.123.00005-1.9744.93506-3.63313 2.46191-4.77638 1.19332-.89341 2.73793-1.46664 4.48437-1.66992.275-1.31202-.3015-2.70825-1.52538-3.41504-.35828-.20718-.48122-.66588-.27442-1.02441m2.8994 5.86133c.0676.25062.0061.52881-.1904.72558-2.03744 2.03754-2.03753 5.34234 0 7.37984.2922.293.2927.7679 0 1.0606-.2927.2923-.7677.2921-1.0606 0-2.45376-2.4538-2.61216-6.3345-.47555-8.97266-1.17766.23648-2.18196.67315-2.95898 1.25488-1.18748.88919-1.8603 2.12108-1.86035 3.57618.00016 1.5784.51628 3.6305 1.65234 5.2676 1.11902 1.6122 2.81675 2.8007 5.24124 2.8007 2.4221 0 4.0894-1.1858 5.1797-2.7939 1.1081-1.6347 1.5994-3.6882 1.5996-5.2744-.0001-1.4652-.6536-2.69682-1.8096-3.58106-1.1701-.89477-2.8816-1.44918-4.9697-1.44922-.1169 0-.233.00242-.3477.00586m4.0459-4.18848c-.1682.05487-.3507.1206-.541.19434-.8841.34248-1.7673.79747-2.1289 1.08593-.2839.22666-.4547.57131-.5176.917-.0276.15199-.028.28666-.0185.38574.1033.02118.2442.03929.4062.0332.3691-.01398.7415-.12728 1.001-.35937.3722-.33315 1.0106-1.08709 1.5146-1.81934a9.77 9.77 0 0 0 .2842-.4375"/>
</svg>
