<svg xmlns="http://www.w3.org/2000/svg" width="24" height="24" viewBox="0 0 24 24">
  <path fill="currentColor" d="m8.24903 19.1895-.78223.7822-.70703-.7071.78223-.7822zm3.81057-2.4268-.7832.7822-.7071-.707.7832-.7822zm-5.56741-.3916-.78223.7832-.70703-.708.78223-.7822zM5.43262 14.291l-.78223.7832-.70703-.708.78223-.7822zm3.76172-.1142-.78223.7822-.70703-.707.78223-.7833zm7.08986-2.21-.7822.7822-.7071-.707.7823-.7822zm2.5683-2.62403-.7822.78223-.707-.70703.7822-.78223zm-3.1318-.73242-.7832.78223-.707-.70703.7822-.78223zm-2.8789-.15332-.7832.78223-.707-.70703.7822-.78223zm2.207-2.51465-.7822.78223-.708-.70703.7832-.78223zM10.918 4.46973c2.5559-2.55565 6.6019-2.84807 9.0312-.41895 2.4291 2.42928 2.1367 6.47532-.4189 9.03122-1.4476 1.4475-3.3497 2.1581-5.1739 2.0791.0791 1.8242-.6315 3.7262-2.0791 5.1739-2.55583 2.5558-6.60184 2.8481-9.0312.4189-2.4292-2.4294-2.13693-6.4754.41894-9.0312 1.44743-1.4474 3.3489-2.15887 5.17285-2.08012-.07867-1.82389.63284-3.72549 2.08011-5.17285m7.9707.6416c-1.7412-1.741-4.8322-1.65878-6.9102.41894-1.1893 1.18947-1.7334 2.73554-1.6387 4.15918.0542.81415-.64086 1.50925-1.45503 1.45505-1.42371-.0948-2.96964.4493-4.15918 1.6387-2.07796 2.078-2.16001 5.1689-.41895 6.9102 1.74123 1.741 4.8322 1.659 6.91016-.419 1.1895-1.1896 1.7326-2.7364 1.6377-4.1601-.0536-.8136.6415-1.5088 1.4551-1.4551 1.4237.0949 2.9705-.4483 4.1601-1.6377 2.0777-2.07798 2.16-5.16901.419-6.91017"/>
</svg>
