<svg xmlns="http://www.w3.org/2000/svg" width="24" height="24" viewBox="0 0 24 24">
  <path fill="currentColor" d="M12.9336 1.4492c.3587-.2071.8183-.0843 1.0254.27442.1939.3361.0979.76003-.21.98242l-.2597.16797c-.381.27487-.6541.65219-.8038 1.07129 1.053.13007 1.9824.59629 2.669 1.44629.8022.99333 1.1992 2.41718 1.1992 4.1914 0 .74911.1221 1.27681.2901 1.69821.1727.4331.4036.7823.6826 1.2012.2721.4086.5902.885.8291 1.4941.2427.6193.3945 1.3496.3945 2.2901-.0001 1.9136-.7158 3.4086-1.9717 4.4062-1.2316.9783-2.903 1.4161-4.7236 1.4161-1.8205-.0001-3.49113-.4379-4.72267-1.4161-1.25594-.9976-1.97155-2.4925-1.97168-4.4062.00003-.9406.1518-1.6707.39453-2.2901.23889-.6092.557-1.0855.8291-1.4941.27901-.4189.50991-.7681.68262-1.2012.16798-.4214.29001-.9491.29004-1.69821.00004-1.77422.397-3.19807 1.19922-4.1914.62013-.76766 1.43804-1.22259 2.36624-1.39942.2002-1.03231.8294-1.97576 1.8115-2.54297m-.1826 4.18262.1406.27442c.1555.34655.0264.76188-.3096.95605-.3586.20699-.8172.084-1.0244-.27441-.196-.33955-.3337-.69714-.415-1.06055-.4972.14385-.9031.41474-1.21975.80664-.51085.63257-.86617 1.67365-.86621 3.24902-.00003.92501-.1529 1.64291-.39648 2.25391-.23897.5992-.55724 1.0713-.82715 1.4766-.27682.4156-.50879.7692-.68164 1.2099-.1689.4309-.29099.974-.29102 1.7432.00013 1.5063.54507 2.5481 1.40527 3.2314.88483.7027 2.18648 1.0908 3.78908 1.0909 1.6028 0 2.9051-.3881 3.79-1.0909.8602-.6833 1.4052-1.7251 1.4053-3.2314 0-.7692-.1221-1.3123-.291-1.7432-.1729-.4407-.4048-.7943-.6817-1.2099-.2699-.4053-.5881-.8774-.8271-1.4766-.2436-.611-.3965-1.3288-.3965-2.25391 0-1.57537-.3553-2.61645-.8662-3.24902-.3753-.46455-.876-.75989-1.5059-.87402a2.28 2.28 0 0 0 .0694.17187"/>
</svg>
