<svg xmlns="http://www.w3.org/2000/svg" width="24" height="24" viewBox="0 0 24 24">
  <path fill="currentColor" d="M21.0117 1.79004c.4139.00022.7498.33614.75.75 0 .38806-.295.70737-.6728.74609l-.3086.01563c-.6338.06456-1.1894.39203-1.5586.87012.4477.62117.667 1.31886.6719 2.06445.0064 1.00917-.3775 2.03595-.96 3.0166-1.1631 1.95787-3.2666 3.98367-5.5108 5.76167-2.2584 1.7893-4.72592 3.3796-6.6855 4.4561-.97686.5366-1.84784.9555-2.51367 1.208-.32723.1241-.64082.2215-.9082.2627-.13097.0201-.29434.0347-.46094.0098-.15992-.0241-.43758-.1038-.62891-.3721l-.05566-.0889c-.11366-.2074-.12061-.4164-.11133-.5459.01128-.1566.05417-.304.09766-.4257.08788-.246.23231-.5236.40332-.8096.34719-.5806.87727-1.3225 1.51953-2.1524 1.28936-1.6658 3.09038-3.761 4.95801-5.7822 1.86669-2.0202 3.81659-3.9847 5.40529-5.38475.7905-.69663 1.5151-1.27461 2.1074-1.64844.2921-.18435.588-.34264.8662-.43164.1493-.04772.3816-.10404.6318-.07227.6885-.88018 1.7599-1.44707 2.9639-1.44726M5.26465 17.4756c-.4911.6345-.89553 1.1913-1.19239 1.6445.52718-.2259 1.18958-.5503 1.94239-.9639.24206-.1329.49186-.2758.74902-.4248-.1893-.113-.36541-.2561-.52051-.4287a2.253 2.253 0 0 1-.37988-.5849c-.21003.2614-.41033.5145-.59863.7578m3.20996-2.1777c-.27671-.3079-.75049-.3331-1.0586-.0567-.30819.2767-.33336.7504-.05664 1.0586.27672.3079.75047.3341 1.0586.0576.30794-.2767.33308-.7514.05664-1.0595m.00976-1.6758c.41282.1072.80012.3327 1.10645.6738.33057.3683.51488.8161.56148 1.2734.4074-.2834.8159-.5776 1.2217-.8789-.5245-.0617-1.0305-.3047-1.41111-.7285-.35087-.3908-.53805-.871-.56934-1.3574-.30796.3398-.61119.6805-.90918 1.0176m3.71093-1.6641c-.2766-.308-.7504-.3338-1.0586-.0576-.3082.2767-.3343.7513-.0576 1.0596.2768.3079.7514.3333 1.0596.0566.3077-.2767.3329-.7505.0566-1.0586m.9619-3.29784a90 90 0 0 0-1.5283 1.55074c.6189-.002 1.2365.2475 1.6826.7442.4417.4921.6236 1.1256.5606 1.7353.5029-.4387.9814-.882 1.4257-1.3252-.5958-.016-1.1845-.2656-1.6142-.7441-.4968-.5535-.6666-1.28459-.5264-1.96094m2.7588-.04297c-.2767-.30815-.7513-.33318-1.0596-.05664-.3078.27673-.3331.75049-.0566 1.05859.2768.30799.7514.33428 1.0596.05762.3078-.27669.333-.75145.0566-1.05957m1.3682-3.56348c-.4826.31342-1.113.81178-1.8496 1.46094-.1389.1224-.2811.25046-.4258.38183.7269-.11337 1.4953.1305 2.0234.71875.268.29863.4397.6499.5205 1.01563.0301-.04848.0622-.09534.0909-.14356.5091-.85711.755-1.61099.7509-2.24218-.0001-.01794-.0024-.03586-.0029-.05371-.1139.06981-.2482.11027-.3916.11035-.414-.00022-.75-.33595-.75-.75 0-.16889.0126-.33505.0342-.49805m.2461 9.47659c.8787-.8785 2.304-.8786 3.1826 0 .4715.4716.6875 1.1012.6533 1.7168.1222.0813.2389.1754.3467.2832.8782.8785.8781 2.303 0 3.1816-.8786.8786-2.3039.8785-3.1826 0a2.249 2.249 0 0 1-.4092-.5605c-.1039.2016-.2393.3915-.4082.5605-.8786.8786-2.3039.8785-3.1826 0-.8782-.8786-.8784-2.3031 0-3.1816.6346-.6345 1.5539-.8085 2.3467-.5264.0278-.5359.244-1.0642.6533-1.4736m-.878 3.0605c-.2927-.2927-.7676-.2924-1.0605 0-.2929.2929-.2929.7677 0 1.0606.2929.2926.7677.2928 1.0605 0 .2924-.2929.2925-.7678 0-1.0606m4 0c-.2927-.2927-.7676-.2924-1.0605 0-.2929.2929-.2929.7677 0 1.0606.2929.2926.7677.2928 1.0605 0 .2924-.2929.2925-.7678 0-1.0606m-1-2c-.2927-.2927-.7676-.2924-1.0605 0-.2619.2619-.2895.6692-.083.9619.0071-.0073.0142-.0151.0215-.0224.3661-.3661.8279-.5777 1.3047-.6387-.0354-.1099-.0957-.2137-.1827-.3008"/>
</svg>
