<svg xmlns="http://www.w3.org/2000/svg" width="24" height="24" viewBox="0 0 24 24">
  <path fill="currentColor" d="M19.6416 4.54885c.4623-.04915 1.0329-.0433 1.4785.21387.4456.25746.7362.74879.9248 1.17383.2043.46051.3589 1.00732.459 1.55371.1003.54764.1499 1.12379.1299 1.64941-.0151.39565-.073.81905-.2158 1.18943-.0166.0609-.0383.1215-.0713.1787l-.0576.0987c-.0023.004-.0036.0087-.0059.0127-.0026.0045-.0061.0091-.0088.0136l-5.0469 8.7432c-.2303.3988-.6139.7558-1.0185 1.0469-.4163.2994-.9107.5689-1.4238.7744-.4702.1882-.9782.3299-1.4747.3857-.1389.0515-.2907.0618-.4384.0254-.4394.0002-.8959-.0795-1.2979-.3115-.4972-.2871-.8363-.7618-1.0635-1.2412-.2307-.4872-.3776-1.0438-.456-1.5889-.07866-.5472-.09219-1.1107-.041-1.6211.0497-.4961.1681-1.0063.3984-1.4052l5.1192-8.86723c.0326-.05657.0733-.10593.1171-.15039.2493-.30971.5882-.57198.9239-.78321.4452-.28012.9697-.52403 1.4941-.71094.5233-.18648 1.0742-.32654 1.5752-.37988M12.0654 19.7481c.0915.1228.1797.2032.2588.249.0741.0427.1787.0777.3164.0967l5.0215-8.6983c-.0952-.0475-.1907-.0964-.2842-.1504-.1015-.0586-.1999-.1223-.2959-.1865zm2.585-.1358c.2489-.1247.4827-.2637.6836-.4082.3226-.2321.5152-.4405.5947-.5781l3.874-6.7129c-.2229.0028-.4503-.0142-.6797-.0488zm-2.9395-3.4218c-.0795.1376-.1643.4085-.2041.8046-.0232.2316-.0277.4847-.0146.7452l4.457-7.7217c-.1369-.17425-.2589-.35487-.3633-.54104zm8.0889-10.14946c-.3559.03792-.7885.14271-1.2295.2998-.44.15682-.8623.35735-1.1992.56934-.3553.22366-.5409.41429-.6045.52441-.155.2684-.1798.66467.0449 1.15039.2238.48337.6728.98871 1.3164 1.36036.6436.37146 1.3055.50776 1.836.45996.533-.0482.8645-.2677 1.0195-.53614.0636-.11019.1363-.36651.1523-.78613.0152-.39767-.0232-.86288-.1074-1.32226-.0844-.46073-.2102-.88848-.3554-1.21582-.0724-.16315-.1439-.28729-.2071-.37403-.0652-.08948-.1008-.11235-.0957-.10937-.0068-.00282-.0488-.0183-.1426-.02832-.1067-.01135-.2502-.01107-.4277.00781m-8.6074-3.38477c.1389-.05148.2908-.06168.4385-.02539.4395-.00015.8967.08034 1.2988.3125.4968.28709.8354.76102 1.0625 1.24024.2308.48735.3777 1.04466.456 1.58984.0787.54723.0932 1.11075.042 1.62109-.0497.49587-.1682 1.00547-.3984 1.4043L8.97168 17.667c-.0331.0573-.07465.1065-.11914.1514-.24904.3087-.58613.5705-.9209.7812-.44522.2802-.96965.525-1.49414.7119-.52338.1866-1.07511.3256-1.57617.379-.46226.0491-1.03196.0431-1.47754-.2139-.44563-.2573-.73618-.7478-.92481-1.1729-.20436-.4606-.3588-1.0081-.45898-1.5547-.10034-.5476-.15088-1.1237-.13086-1.6494.01507-.3952.07233-.8183.21484-1.1884.01663-.0613.03904-.1222.07227-.1797l5.12012-8.86722c.23035-.39893.61381-.75574 1.01855-1.04687.41625-.29934.90985-.56996 1.42285-.77539.47013-.18822.97823-.32988 1.47463-.38575M4.53906 13.835c-.53294.0482-.86456.2668-1.01953.5351-.06355.1102-.13532.3666-.15137.7862-.01514.3975.02233.8629.10645 1.3222.08443.4607.21126.8885.35645 1.2159.07244.1632.14284.2882.20605.375.0579.0793.09311.1056.09668.1084.00726.003.04925.0193.14258.0293.10661.0112.24968.01.42676-.0088.35604-.038.78934-.1426 1.23046-.2998.43982-.1568.86145-.3565 1.19825-.5684.35517-.2235.54169-.4142.60547-.5244.15488-.2683.17958-.6649-.04493-1.1504-.22374-.4835-.6727-.9896-1.3164-1.3613-.64374-.3717-1.30634-.5069-1.83692-.459m4.01367.3838c.13753.1747.25956.3562.36426.5429L12.793 8.04885c.0794-.13782.1644-.409.2041-.80469.0232-.2314.0267-.48485.0136-.74511zm-1.71191-1.376c.09575.0478.19122.0981.28516.1523.10115.0585.19923.1207.29492.1846l5.0166-8.68749c-.0914-.12282-.1787-.20418-.2578-.25-.0741-.04277-.1797-.07669-.3174-.0957zm3.01172-8.21485c-.24877.12468-.48179.26279-.68262.40723-.32304.23239-.51522.44144-.59472.5791L4.69824 12.3262c.22351-.0029.45169.0132.68164.0478z"/>
</svg>
