<svg xmlns="http://www.w3.org/2000/svg" width="24" height="24" viewBox="0 0 24 24">
  <path fill="currentColor" d="M7.60938 15.5342c1.06203-1.062 2.78462-1.0619 3.84672 0 1.0618 1.062 1.0617 2.7836 0 3.8457-1.0621 1.0619-2.78469 1.062-3.84672 0-1.06143-1.062-1.0615-2.7838 0-3.8457m2.78612 1.0605c-.4763-.4761-1.24933-.4762-1.72558 0-.4757.4762-.47564 1.2484 0 1.7246.47625.4762 1.24928.4761 1.72558 0 .4759-.4762.476-1.2483 0-1.7246m2.1484-6.8691c1.0621-1.06199 2.7837-1.0619 3.8457 0 1.0619 1.0621 1.062 2.7837 0 3.8457-1.062 1.0618-2.7836 1.0618-3.8457 0-1.0618-1.062-1.0618-2.7837 0-3.8457m2.7852 1.0605c-.4763-.4761-1.2484-.4762-1.7246 0-.4761.4763-.4761 1.2484 0 1.7247.4763.476 1.2484.476 1.7246 0 .4762-.4763.4761-1.2483 0-1.7247m-4.9336-7.92379c1.062-1.06173 2.7837-1.06166 3.8457 0 1.062 1.06209 1.062 2.7846 0 3.84668-1.062 1.06149-2.7837 1.06157-3.8457 0-1.06184-1.06204-1.06182-2.78462 0-3.84668m2.7852 1.06055c-.4763-.47588-1.2484-.47595-1.7246 0-.4761.47627-.4761 1.24933 0 1.72559.4761.47578 1.2483.47569 1.7246 0 .4762-.4763.4762-1.24929 0-1.72559"/>
</svg>
