<svg xmlns="http://www.w3.org/2000/svg" width="24" height="24" viewBox="0 0 24 24">
  <path fill="currentColor" d="M7.39648 1.89941c.53054.00017.96081.43039.96094.96094v.28027h1.53906c1.24242.00012 2.24992 1.00755 2.25002 2.25-.0001 1.24252-1.0075 2.24989-2.25002 2.25h-.01855c.81397 2.99778 1.91377 7.79238 2.06937 8.47368.0326.143.0429.3007.0136.4668-.0367.2081-.1491.7246-.4228 1.2285.7198.3753 1.2119 1.1273 1.2119 1.9951-.0001 1.2424-1.0076 2.2498-2.25 2.25H4.29297c-1.2424-.0002-2.24994-1.0076-2.25-2.25 0-.8672.4912-1.6195 1.20996-1.9951-.27341-.5038-.3842-1.0205-.4209-1.2285-.02923-.166-.01987-.3239.0127-.4668l.32324-1.4024c.42279-1.814 1.15909-4.90967 1.74609-7.07128h-.01758c-1.2424-.00023-2.24993-1.00755-2.25-2.25.00014-1.24238 1.00764-2.24976 2.25-2.25h1.53907v-.28027c.00013-.53047.43049-.96065.96093-.96094M4.29297 19.0547c-.41402.0002-.75.3359-.75.75.00006.414.33602.7498.75.75H10.5c.414-.0002.7499-.336.75-.75 0-.4141-.336-.7498-.75-.75zM6.47266 7.64062C5.68605 10.4637 4.5343 15.4506 4.32129 16.3818c.03591.1769.1171.4909.27344.7588.17127.2933.35321.4139.58398.4141h4.43555c.23082-.0001.41174-.1209.58304-.4141.156-.2673.2364-.5807.2724-.7578-.2126-.9297-1.36284-5.9184-2.14939-8.74218zm-1.57618-3c-.41393.00024-.74986.33605-.75.75.00007.41402.33603.74977.75.75h5c.41412-.00011.74992-.33591.75002-.75-.0001-.41402-.336-.74988-.75002-.75zM14.5303 16.5303c.8786-.8783 2.303-.8784 3.1816 0 .8787.8787.8787 2.3039 0 3.1826-.8786.8781-2.3031.8781-3.1816 0-.8785-.8786-.8784-2.304 0-3.1826m2.1211 1.0605c-.2928-.2925-.7677-.2925-1.0606 0-.2925.2929-.2925.7677 0 1.0606.2928.2928.7677.2926 1.0606 0 .2926-.2929.2928-.7678 0-1.0606m1.6357-5.4844c.8785-.8784 2.3029-.8781 3.1817 0 .8786.8787.8786 2.304 0 3.1827-.8787.8779-2.3032.8783-3.1817 0-.8784-.8786-.8783-2.304 0-3.1827m2.1211 1.0606c-.2929-.2924-.7678-.2927-1.0605 0-.2925.2927-.2923.7677 0 1.0605.2928.2928.7676.2927 1.0605 0 .2928-.2929.2929-.7676 0-1.0605m-3.7568-6.28614c.8786-.87863 2.3029-.87852 3.1816 0 .8785.87869.8786 2.30301 0 3.18164-.8787.8782-2.3031.8784-3.1816 0-.8784-.87855-.8782-2.30298 0-3.18164m2.1211 1.06055c-.2929-.29274-.7677-.29285-1.0606 0-.2924.29287-.2926.76778 0 1.06054.2928.29261.7677.29241 1.0606 0 .2928-.29284.2927-.76764 0-1.06054"/>
</svg>
