<svg xmlns="http://www.w3.org/2000/svg" width="24" height="24" viewBox="0 0 24 24">
  <path fill="currentColor" d="M11.4932 2.3262c.2506-.22898.6186-.25754.8984-.08594l.1133.08594c.8488.77558 1.5542 1.44197 2.1465 2.25488.5067.69564.9164 1.47817 1.291 2.50488l1.3008-.1748c.2875-.0387.5677.09251.7246.32812l.0595.10742c.432.96017.7188 1.77273.8155 2.61426.065.56634.0393 1.12104-.0606 1.71874h.9854c.3547.0001.6533.247.7304.5801l.0196.1484c.0316 1.0987-.2517 1.888-.6651 2.625-.1966.3506-.4279.6984-.6504 1.0401-.0774.1189-.154.241-.2324.3652l1.0401.3555c.2035.0694.3675.2234.4502.4218.0825.1988.0758.4239-.0186.6172-1.188 2.4301-3.3604 3.5347-5.1504 4.0323-.8987.2497-1.7242.3534-2.3232.3955-.2998.021-.5462.027-.7198.0273a7 7 0 0 1-.205-.0029c-.0165-.0005-.0313-.0015-.043-.002-.0119.0005-.027.0015-.0439.002-.0487.0013-.1186.0031-.2051.0029-.1737-.0003-.4207-.0062-.7207-.0273-.5991-.0422-1.42384-.1458-2.32229-.3955-1.78997-.4977-3.96253-1.6022-5.15039-4.0323-.09431-.1933-.10102-.4185-.01856-.6172a.7513.7513 0 0 1 .4502-.4218l1.04101-.3545c-.07861-.1246-.1557-.2469-.2334-.3662-.22237-.3416-.45381-.6896-.65039-1.0401-.41327-.737-.6967-1.5264-.66503-2.625.0103-.3546.26635-.6463.60156-.7138l.14844-.0147h.98437c-.09986-.5976-.12557-1.1525-.06055-1.71874.09668-.84154.38354-1.65411.81543-2.61426.1191-.26463.37907-.43283.66211-.4414l.12207.00586 1.30274.1748c.37459-1.02657.78336-1.8093 1.29004-2.50488.5922-.81291 1.29684-1.47938 2.14554-2.25488M12 3.90237c-.5942.55791-1.0514 1.02749-1.4404 1.56152-.4846.66525-.88608 1.45866-1.28128 2.67871-.11179.34484-.4542.56106-.81348.5127l-1.34472-.18164c-.26762.65296-.41802 1.16593-.47461 1.65824-.06938.6042-.00569 1.2321.22558 2.1054a.75.75 0 0 1-.13086.6494c-.14193.1843-.36118.2929-.59375.293H5.03125c.073.4098.22014.7576.42285 1.1192.16605.296.36269.5921.59961.956.2319.3562.49112.7609.75098 1.2373.1058.1941.12025.4249.04004.6309-.08026.2058-.24699.366-.45606.4375l-1.0459.3564c.971 1.4015 2.42202 2.1291 3.76661 2.5029.74311.2066 1.43472.2978 1.95412.3379v-1.1992c-.0864-.0323-.1688-.0798-.2412-.1455l-2.6055-2.3672c-.3062-.2785-.32909-.7531-.05078-1.0595.27844-.3064.75301-.329 1.05957-.0508l1.83791 1.6689v-2.958c-.0864-.0324-.1688-.0798-.2412-.1455l-2.6055-2.3672c-.30598-.2784-.32866-.7521-.05078-1.0586.27855-.3065.75301-.3293 1.05957-.0508l1.83791 1.669V9.87698c0-.41415.3359-.7499.75-.75.414.00019.75.3359.75.75v2.65432l1.6592-1.5069c.3065-.2785.781-.2557 1.0595.0508.2783.3065.2555.7801-.0508 1.0586L12.627 14.501c-.0202.0183-.042.0351-.0635.0508v2.8916l1.6592-1.5078c.3065-.2784.781-.2556 1.0595.0508.2786.3065.2557.7809-.0508 1.0595l-2.6044 2.3672c-.0203.0184-.0419.0351-.0635.0508v1.3164c.0903-.0036.1908-.008.2998-.0156.5264-.037 1.2474-.1286 2.0254-.3448 1.3449-.3738 2.7973-1.1009 3.7685-2.5029l-1.0468-.3564c-.209-.0715-.3769-.2317-.4571-.4375-.08-.2059-.0646-.4369.041-.6309.2599-.4764.5191-.8811.751-1.2373.237-.3639.4326-.66.5986-.956.2029-.3618.3508-.7092.4239-1.1192h-1.1153c-.2325-.0002-.4528-.1087-.5947-.293-.1416-.1843-.1903-.4246-.1308-.6494.2313-.8736.2949-1.5011.2255-2.1054-.0566-.49218-.2051-1.0055-.4726-1.65824l-1.3467.18164c-.3589.04776-.7018-.16815-.8135-.5127-.3952-1.21998-.7966-2.01348-1.2812-2.67871-.3889-.53367-.8448-1.00398-1.4385-1.56152"/>
</svg>
