<svg xmlns="http://www.w3.org/2000/svg" width="24" height="24" viewBox="0 0 24 24">
  <path fill="currentColor" d="M10.1641 2.16113c.1989-.36268.6465-.48249 1-.26758 1.1416.69557 1.83 1.88313 1.9775 3.14942.1225-.12091.2581-.23531.4063-.34082.3994-.28438 1.1307-.67633 1.7792-.96289.3269-.14442.6647-.27681.9522-.35645.1402-.03881.3024-.07537.46-.08398.0792-.00429.1847-.00284.2978.02148.1106.02387.2786.08156.4248.22754l.0674.07617c.1422.18257.175.38613.1787.5166.0041.14829-.0258.28095-.0527.37403-.0392.13495-.1021.27191-.167.40136.1864.00962.3804.0284.5498.07032.0913.02261.2158.06057.3359.13183.1112.06601.3215.22261.3975.52149.0708.27919-.0201.51272-.0752.62402-.0605.12176-.1392.221-.2012.29102-.1189.13426-.2713.26376-.4209.37988.073.04985.1457.10271.211.16211.1221.11131.4516.44965.3652.94336l-.0225.10156-.0449.12207c-.076.16961-.1946.28637-.291.36328 1.6385 1.46475 2.4578 3.54645 2.458 5.80955 0 1.9033-.9518 3.8008-2.0166 5.1875-.539.7018-1.1317 1.3053-1.6943 1.7412-.2811.2178-.5673.4041-.8467.5381-.2702.1296-.5842.2343-.9063.2344-.8077 0-1.5347-.2526-2.0927-.4619-.2968-.1113-.5263-.2032-.7461-.2735-.2181-.0696-.3569-.0947-.4473-.0947-.0891 0-.2238.0247-.4365.0938-.2165.0702-.4395.1612-.7354.2734-.5576.2115-1.28292.4629-2.11423.4629-.32405-.0001-.64012-.1031-.91602-.2334-.28375-.1341-.57336-.3198-.85644-.5381-.5665-.4369-1.15819-1.0417-1.69434-1.7441C4.18711 18.2332 3.25 16.3368 3.25 14.4365c.00026-2.3806 1.08829-4.8868 2.94727-6.44724-.03201-.02977-.0656-.05981-.09571-.09375-.07418-.08372-.25235-.30438-.26074-.62793-.0074-.29537.12931-.50413.22852-.61524.09858-.11026.21019-.18363.29199-.22949.11282-.06319.2409-.11142.36719-.15332-.12233-.14296-.24285-.29742-.33204-.44922-.04891-.08333-.11038-.20232-.14746-.3418-.03393-.12796-.08037-.40136.07032-.67675l.05664-.08887c.1391-.19151.32453-.27031.42285-.30274.12446-.04098.24584-.05244.33594-.05566.16937-.00599.35768.01458.53711.04297-.01628-.08365-.0293-.16946-.03516-.25391-.01243-.18025-.01934-.73187.4668-1.00976.17868-.10202.35448-.11153.46484-.10449.1136.00727.21372.03513.28809.06054.14803.05062.29367.12872.41894.2041.25687.15463.54995.37393.83011.60254.5557.45351 1.1655 1.03063 1.4804 1.41309.0397.04822.0768.09812.1133.14746-.0212-.90598-.4735-1.77098-1.2549-2.24707-.3536-.21555-.47903-.6855-.2802-1.04883M7.63086 8.7832C5.8716 9.96776 4.75029 12.2486 4.75 14.4365c0 1.4446.73521 3.025 1.68945 4.2754.4708.6168.97234 1.1231 1.41797 1.4668.22279.1718.41985.294.58106.3701.16784.0793.25606.0887.27539.0889.53919 0 1.04561-.1627 1.58203-.3662.2509-.0952.5412-.2116.8037-.2969.2662-.0864.5773-.167.9004-.167.3219 0 .6356.0802.9043.166.2667.0853.5594.2009.8154.2969.5484.2057 1.0532.3672 1.5664.3672.0035-.0002.0253-.0016.0684-.0137.047-.0132.1101-.0357.1885-.0732.1587-.0762.3547-.1988.5771-.3711.4449-.3447.9487-.8523 1.4229-1.4697.9617-1.2526 1.707-2.8319 1.707-4.2735-.0002-2.2248-.9325-4.1268-2.7246-5.26756a11.8 11.8 0 0 1-.5186.0625c.0304.08612.0589.17152.084.25489.088.292.1626.62767.1592.93257-.0017.1508-.0229.3548-.1172.5538-.106.2234-.3078.4381-.6162.5234-.2982.0823-.603.0088-.7695-.0381-.2085-.0587-.4358-.1488-.6582-.25-.2122-.0965-.4371-.2113-.6621-.335-.0705.1272-.1446.2508-.2227.3643-.1175.1705-.2618.3487-.4316.4912-.1596.1338-.4261.3066-.7735.3067-.3208 0-.5782-.1493-.7353-.2627-.1717-.124-.3275-.2809-.461-.4375-.103-.121-.202-.256-.2978-.3955-.1091.0639-.225.1288-.3408.1894-.22487.1177-.48456.2371-.74418.3164-.23687.0724-.58657.1474-.93652.0508-.30841-.0853-.51015-.3-.61621-.5234-.09429-.199-.11545-.403-.11719-.5538-.00336-.3049.07119-.64057.15918-.93257.05083-.16858.11331-.34524.18359-.52051a14.2 14.2 0 0 1-.46191-.18262m4.48344-.76953c-.0709.00999-.1427.01216-.2149 0-.9497.02102-1.7028.33103-2.00194.7207-.15426.20137-.38408.66228-.5293 1.11426.0324-.01601.06691-.03119.10059-.04883.37922-.19856.70115-.42107.89255-.53906.178-.10954.3945-.14019.5957-.08398.2013.05636.3705.19485.4659.38086.1545.3024.3455.59708.5214.80368.0078.0092.017.0179.0245.0264.1498-.2176.3054-.53172.4277-.85059.0808-.20993.2521-.37296.4658-.44336.2139-.07028.4489-.04103.6387.08008.3647.23326.7667.45767 1.1152.62304-.1457-.43506-.3652-.86875-.5137-1.0625-.299-.38952-1.046-.69765-1.9882-.7207m3.33-2.68164c-.4435.21816-.8492.44985-1.0595.59961-.4112.29302-.5532.62015-.5674.87695.5612.20079 1.0687.51373 1.4316.96094.2463-.00324.5683-.02615.9024-.06738-.2125-.12439-.3507-.35112-.3614-.60645-.0097-.24236.0974-.47345.2803-.62597-.2749.00495-.5291-.14166-.6572-.38868-.1223-.2362-.1074-.52147.0312-.74902m-5.87887.05762c.02712.21497-.03305.43404-.17383.59863-.15159.17705-.3735.26358-.59765.24414.18591.20083.25848.48927.18261.75586-.07206.25244-.26423.44179-.5039.50684.13194.05063.26498.09599.39257.14062.4721-.50537 1.14377-.81687 1.84867-.98047-.0544-.11564-.1301-.23944-.2344-.36621-.1726-.2095-.52479-.55723-.91407-.89941"/>
</svg>
