<svg xmlns="http://www.w3.org/2000/svg" width="24" height="24" viewBox="0 0 24 24">
  <path fill="currentColor" d="M15 18h-1v-1h1zm.9795-7.5h-1v-1h1zM8.70996 18h-1v-1h1zm1.74804-7h-.99999v-1h.99999zm4.5215-4.23535c1.53.00003 2.7705 1.24048 2.7705 2.77051v7.92964c0 1.5301-1.2405 2.7705-2.7705 2.7706-1.53-.0001-2.7705-1.2405-2.7705-2.7706v-3.5253l-1.1006 4.1074c-.396 1.4778-1.91566 2.3549-3.39356 1.959-1.47774-.3962-2.35497-1.9158-1.95898-3.3936l2.05273-7.65918c.39607-1.47787 1.91566-2.35498 3.39351-1.95898.6137.16454 1.1212.5247 1.4795.99316.4978-.73756 1.3412-1.22262 2.2979-1.22265m0 1.5c-.7016.00006-1.2705.56892-1.2705 1.27051V12h.7558v1h-.7558v4.4648c0 .7016.5689 1.2705 1.2705 1.2706.7016-.0001 1.2705-.569 1.2705-1.2706V15h-.8213v-1h.8213V9.53516c0-.70161-.5689-1.27048-1.2705-1.27051m-4.166.17871c-.6777-.1816-1.37406.22073-1.55569.89844L8.00977 14H9v1H8v-.9658l-.79492 2.9668c-.18155.6777.22072 1.374.89844 1.5556s1.37406-.2207 1.55566-.8984L9.83594 17H9v-1h1v.3857L10.9072 13H10v-1h1v.6553l.7119-2.65628c.1815-.67765-.2208-1.374-.8984-1.55566M16.5 1.25c1.2426 0 2.25 1.00736 2.25 2.25 0 .38218-.0965.74143-.2646 1.05664C19.8174 5.13202 20.75 6.45673 20.75 8v11c0 2.0711-1.6789 3.75-3.75 3.75H7c-2.07107 0-3.75-1.6789-3.75-3.75V8c0-1.54295.93205-2.86779 2.26367-3.44336C5.3457 4.24153 5.25 3.88201 5.25 3.5c0-1.24264 1.00736-2.25 2.25-2.25zM7 5.75C5.75736 5.75 4.75 6.75736 4.75 8v11c0 1.2426 1.00736 2.25 2.25 2.25h10c1.2426 0 2.25-1.0074 2.25-2.25V8c0-1.24264-1.0074-2.25-2.25-2.25zm.5-3c-.41421 0-.75.33579-.75.75s.33579.75.75.75H8v-1.5zm2 1.5H11v-1.5H9.5zm3 0H14v-1.5h-1.5zm3 0h1c.4142 0 .75-.33579.75-.75s-.3358-.75-.75-.75h-1z"/>
</svg>
