<svg xmlns="http://www.w3.org/2000/svg" width="24" height="24" viewBox="0 0 24 24">
  <path fill="currentColor" d="M13.2959 12.9492c.0989-.4019.5009-.6272.8965-.5039.3949.1238.6356.5487.5371.9502-.2869 1.1653-.0856 1.9799.2041 2.5508.3069.6046.7259.9794 1.0312 1.294.2956.3047.3082.7867.0284 1.0761-.2804.2892-.748.277-1.044-.0273-.2348-.2419-.8697-.8164-1.3154-1.6943-.463-.9124-.7142-2.1167-.3379-3.6456m-7.53321-1.9277c.28667-.2983.74649-.2929 1.02735.0117.28038.3047.27638.7933-.00977 1.0918-.83094.8657-1.06406 1.6713-1.09863 2.3106-.03658.6773.13891 1.2115.24609 1.6367.10371.4119-.12639.8356-.51367.9463-.38759.1103-.78668-.1349-.89063-.5469-.08255-.3272-.34497-1.1413-.29199-2.124.0552-1.0217.44085-2.1902 1.53125-3.3262M18.418 2.73733c.9765-.14428 1.7776.40951 2.3252 1.19043.5358.76462.9053 1.83112 1.1171 3.03125.4263 2.41597.2612 5.63379-.7675 8.80569-.8433 2.6001-2.2093 4.1028-3.5879 4.7969-.6843.3443-1.3748.4894-1.9942.4589-.6042-.0299-1.2108-.2336-1.6337-.6689-.3848-.3964-1.3128-1.2351-1.9678-2.5254-.1379-.2717-.2628-.5627-.3701-.8721-.1418.1356-.2856.2708-.4327.4033-2.0304 1.8302-3.96488 2.4487-5.50582 2.3604-.76466-.044-1.43495-.2636-1.95605-.5996-.50837-.3281-.93162-.8079-1.08008-1.3965-.13512-.5359-.51946-1.726-.44141-3.1709.08029-1.4832.63745-3.1995 2.26172-4.89159C8.98747 4.86458 12.334 3.75542 14.9844 4.62405c1.0494-1.12669 2.2042-1.70476 3.4336-1.88672m.2851 1.50781c-1.9926.29501-4.233 2.09714-5.8486 8.66016-.4711 1.9137-.1433 3.2884.3555 4.2715.5161 1.0168 1.2271 1.6567 1.6826 2.126.0605.062.249.1783.6113.1963.3479.0169.8005-.0628 1.2969-.3125.984-.4954 2.1376-1.6599 2.8877-3.9727.9592-2.9577 1.0963-5.91916.7187-8.05958-.1902-1.07749-.4999-1.88552-.8457-2.3789-.3338-.47595-.6192-.56541-.8584-.53028M13.96 5.95608c-1.8591-.30244-4.52634.60614-8.55864 4.80662-1.36487 1.4219-1.76757 2.7761-1.82714 3.877-.06152 1.1389.23369 2.0484.39355 2.6826.0213.0838.12658.2788.43164.4756.29281.1886.72472.345 1.2793.3769 1.09982.0631 2.68149-.3675 4.48729-1.9951.3522-.3175.6874-.6469 1.0068-.9814-.0644-.8162.0008-1.7279.25-2.7403.7071-2.8722 1.5637-4.98777 2.5372-6.50192"/>
</svg>
