<svg xmlns="http://www.w3.org/2000/svg" width="24" height="24" viewBox="0 0 24 24">
  <path fill="currentColor" d="M11.9688 1.90625c.2566-.01036.5012.1111.6474.32227l.001.00195.0029.00391c.0021.0031.0053.00759.0088.01269a6 6 0 0 1 .0293.04395c.025.03765.0602.0922.1025.15918.0848.134.2001.32379.3243.54883.0991.17972.2071.38986.3115.61718.2267-.15973.4475-.30247.6426-.41992.23-.13846.4328-.2506.5791-.32812.073-.03871.1329-.06871.1748-.08985.0209-.01056.038-.01956.0498-.02539.0057-.00281.0102-.00517.0136-.00683l.0049-.00196.002-.00097c.2386-.11522.5205-.09584.7412.05078.2204.14659.3475.39871.334.66308v.00293s-.0009.00426-.001.00684c-.0003.00595-.0004.01556-.001.02637-.0012.02202-.0033.05449-.0058.09472a29 29 0 0 1-.0235.33985c-.0211.28421-.0538.67433-.1015 1.09472-.0476.41879-.111.8778-.1934 1.29688-.079.40174-.1875.83105-.3467 1.15332-.0374.07569-.0783.14864-.1201.21973C16.9553 8.78194 18.04 10.9676 18.04 14.4063c-.0001 3.0055-.6131 5.1086-1.7402 6.4677-1.1505 1.387-2.7318 1.876-4.3623 1.876-1.6304-.0001-3.21087-.4891-4.36133-1.876-1.12708-1.3591-1.74013-3.4621-1.74023-6.4677.00004-1.9919.35873-3.5668 1.02929-4.75981.50578-.89953 1.17715-1.55946 1.95899-2.00879-.03045-.05399-.06188-.10849-.08984-.16504-.15914-.32225-.26771-.75162-.34668-1.15332-.08238-.41907-.14582-.87809-.19336-1.29688-.04773-.42039-.0804-.81052-.10157-1.09472a28 28 0 0 1-.02343-.33985c-.00249-.04023-.00461-.0727-.00586-.09472-.00061-.0108-.00068-.02042-.00098-.02637-.00014-.00255-.00098-.00684-.00098-.00684v-.00195c-.01444-.28188.13124-.54881.37598-.68945.24486-.1406.54793-.13218.78418.02246l1.33012.87012.7978-1.38184c.1287-.22224.3626-.36262.6192-.37305m-.7315 19.30465c.2254.0266.4591.0391.7002.0391.2811 0 .5518-.0183.8115-.0547l-.75-.8935zm-2.85351-2.0361c-.02944.0351-.06268.0645-.0957.0918.13717.2457.28578.4616.44238.6504.28571.3444.61304.6141.97656.8184l1.32817-1.5831-1.31645-1.5703zm4.58011-.0225 1.2871 1.5342c.3306-.198.6306-.4514.8945-.7695.173-.2086.3344-.4511.4834-.7295-.0037-.0042-.0081-.0084-.0117-.0127l-1.3369-1.5937zm-2.2813-2.7197L12 18.0029l1.3164-1.5703-1.3174-1.5713zm-3.20018-1.2344c-.03813.0455-.08106.0829-.125.1153.04531.9321.16244 1.722.33203 2.3896l1.06543-1.2705-1.15429-1.376zm7.76268 1.2344.9697 1.1563c.1607-.67.2677-1.4593.3067-2.3867l-.125-.1426zm-6.68065-2.5254 1.1543 1.376 1.31645-1.5713-1.15336-1.375zm4.39845-.1953 1.3183 1.5713 1.1319-1.3496-1.3457-1.5391zm-4.79005-3.3301c-.36362.647-.63573 1.4987-.76074 2.6016l1.50586-1.7959-.7168-.8545c-.00935.0162-.0191.0324-.02832.0488m6.85935.8633 1.418 1.6231c-.1264-1.0205-.3818-1.8218-.7266-2.4463zm-4.1865-.0576 1.1533 1.375 1.085-1.2939-1.1768-1.34575zm3.2217-2.37402c-.2569.16571-.5329.29478-.8184.39062l.7989.915.7207-.85738c-.2223-.1807-.4566-.32989-.7012-.44824m-4.18556-.03516c-.24824.11316-.48347.25233-.70313.4209l.70313.83988.74026-.88089c-.2585-.09739-.5075-.22395-.74026-.37989m1.57026-3.67968a.75.75 0 0 1-.4755.35351c-.2004.04761-.4117.01109-.584-.10156l-.70315-.46094c.04451.38641.10054.78764.16993 1.14063.07491.38096.15382.64486.21972.77832.3489.70573 1.0998 1.09975 1.9199 1.10058.8198.00065 1.5714-.39155 1.9219-1.10058.0659-.13343.1448-.39726.2197-.77832.0716-.36404.1297-.77924.1748-1.17676.002-.01744.004-.03541.0059-.05274-.2658.18353-.5279.38501-.7383.59375-.1915.18982-.4708.26209-.7305.18946-.2597-.07288-.4604-.28021-.5254-.54199-.0705-.28546-.1946-.59168-.332-.88086z"/>
</svg>
