<svg xmlns="http://www.w3.org/2000/svg" width="24" height="24" viewBox="0 0 24 24">
  <path fill="currentColor" d="M8.24805 7.52441c.88592-.88592 2.32305-.88592 3.20895 0 .8856.88582.8855 2.32214 0 3.20799-.8858.8858-2.32303.8857-3.20895 0-.88547-.88588-.88563-2.32218 0-3.20799m2.14845 1.06055c-.3-.30001-.78676-.29975-1.08693 0-.30008.30015-.30012.78679 0 1.08692.30014.29985.78683.29999 1.08693 0 .2996-.30009.2997-.78689 0-1.08692M12 1.96875c2.5254.00007 4.646.59477 6.1338 1.1875.7442.29657 1.3344.59453 1.7412.82031.203.11269.3614.20802.4707.27637.0544.03404.098.06232.1279.08203.0145.00953.0267.01772.0352.02344.004.00268.0081.00508.0107.00683l.003.00293h.0019c-.0031.00498-.039.05833-.4258.61817l.4268-.61719c.3064.21201.411.61747.2451.95117L12.6709 21.6152l-.0527.0909c-.1385.2015-.3693.325-.6182.3251-.2844-.0001-.5451-.1614-.6719-.416L3.22949 5.32031c-.14506-.29205-.08346-.63925.13965-.86328l.10547-.08789.00195-.00098.00391-.00293c.00251-.00171.00594-.00424.00977-.00683.00856-.00579.02132-.01369.03613-.02344.0299-.0197.07242-.04792.12695-.08203.10938-.0684.26828-.16346.47168-.27637.40684-.22582.99672-.52366 1.74121-.82031C7.35399 2.56349 9.47446 1.96882 12 1.96875M12.793 18c-.485.2141-1.0283.2508-1.5332.1084L12 19.5967zm-.3721-2.6162c-.3001-.3001-.7868-.3002-1.0869 0-.3.3001-.3001.7868 0 1.0869.3001.2996.7869.2998 1.0869 0 .3-.3.2997-.7867 0-1.0869M12 5.94922c-1.7761.00006-3.27236.41846-4.32519.83789-.52546.20936-.93786.41755-1.21485.57129-.13833.07679-.24292.14033-.31054.18262a3.8 3.8 0 0 0-.07325.04687c-.00743.0049-.0129.00794-.01562.00977l-.00098.00097-.01855.01075 3.72363 7.49022c.1106-.2829.28035-.5478.50875-.7764.886-.8859 2.3221-.8859 3.208 0 .3087.3089.5072.6852.6006 1.0811l1.2803-2.5742c-.719.1441-1.4943-.0619-2.0518-.6192-.8858-.8859-.8858-2.32204 0-3.20797.886-.88593 2.3221-.88593 3.2081 0 .1854.18551.3297.39646.4375.62012l1.0019-2.01563-.0332-.01953a4 4 0 0 0-.0732-.04687c-.0676-.04224-.1725-.10595-.3106-.18262-.2769-.1537-.6895-.36196-1.2148-.57129-1.0529-.41947-2.5499-.83783-4.3262-.83789m3.458 4.11428c-.3001-.30016-.7868-.30016-1.0869 0-.3001.3001-.3001.7868 0 1.0869.3001.2998.7869.2999 1.0869 0 .3-.3.2998-.7868 0-1.0869M12 3.46875c-2.29158.00007-4.222.54035-5.5791 1.08105-.66021.26309-1.18186.52614-1.54004.72364l.48926.98535c.08725-.05425.20841-.12703.36133-.21191.32501-.18041.79512-.41722 1.38769-.65333C8.30269 4.92201 9.98963 4.44928 12 4.44922c2.0105.00006 3.6983.47277 4.8818.94433.5921.23593 1.0619.47301 1.3868.65333.1519.08436.2732.15684.3603.21093l.4902-.98437c-.3582-.19755-.8804-.46045-1.541-.72364C16.221 4.00915 14.2914 3.46882 12 3.46875"/>
</svg>
