<svg xmlns="http://www.w3.org/2000/svg" width="24" height="24" viewBox="0 0 24 24">
  <path fill="currentColor" d="M10.915 1.51169c1.1992-.14886 2.8598-.17615 4.6983.31641 1.8384.49265 3.2625 1.34672 4.2265 2.07519.4825.36463.8532.70062 1.1055.94825.1258.12346.223.22571.2901.29882.0333.03634.0605.0657.0791.08692.0091.01042.0169.01993.0224.02636l.0088.01075.002.00195c.2358.28253.2314.69478-.0098.97266l-3.4629 3.9795c2.4452 1.5348 4.0887 4.0112 4.0889 6.8642 0 1.2019-.2955 2.1817-.9014 2.9415-.6008.7531-1.442 1.2092-2.3818 1.4921-1.8313.5513-4.3163.5166-6.8545.5166-2.53833 0-5.02417.0348-6.8555-.5166-.93961-.283-1.78118-.7391-2.38183-1.4921-.60576-.7598-.90137-1.7397-.90137-2.9415.00028-4.2599 3.3077-7.58354 7.9248-8.30171l-1.16796-5.9961c-.07015-.36136.13291-.72086.47851-.84765l.25781.7041-.25683-.70508.01465-.00488c.00797-.00283.01903-.00722.03222-.01172.02667-.0091.06422-.02129.11133-.03613.09454-.02978.22966-.0692.40039-.11328.34229-.08834.83218-.19398 1.43258-.26856M9.89941 10.2636c-4.07553.6076-6.71163 3.4472-6.71191 6.8291 0 .9516.23025 1.5744.57422 2.0059.34926.4379.88288.7627 1.6416.9912 1.5665.4716 3.77628.4531 6.42288.4531 2.6464 0 4.8554.0185 6.4218-.4531.7591-.2285 1.2933-.5532 1.6426-.9912.344-.4315.5733-1.0543.5733-2.0059-.0002-2.3076-1.3746-4.4102-3.5879-5.7158l-4.5147 5.1905-.0752.0752a.7498.7498 0 0 1-.6845.1572c-.2767-.0743-.4872-.2999-.542-.5811l-.67-3.4345c-1.02571.1207-2.04401.5377-2.84175 1.1718-.95046.7557-1.5438 1.7792-1.54394 2.9375-.00028.414-.33596.75-.75.75-.41388-.0002-.74973-.3361-.75-.75.00014-1.7129.88551-3.1385 2.11035-4.1123.9866-.7842 2.22341-1.3031 3.48824-1.4726zm2.33789 4.1612.333-.3838c-.1452-.0133-.2881-.043-.4258-.0899zm.8467-2.4697c-.105-.1845-.3385-.2465-.5215-.1387-.1825.108-.2455.3454-.1416.5303.1047.1846.3375.2471.5205.1396.1833-.108.2473-.3461.1426-.5312m1.6562-6.87114c-1.2397-.33209-2.3652-.31623-3.1816-.21485-.4071.05058-.734.12263-.9551.17969-.0726.01876-.1339.0365-.1826.05078l.3398 1.74707c-.0059-.66525.3324-1.31743.9414-1.67676.8968-.52848 2.0401-.22304 2.5528.68262.5124.90621.2004 2.06991-.6963 2.59863-.8969.52833-2.0393.22161-2.5518-.68457-.0446-.07902-.082-.16083-.1142-.24316l.625 3.20999c.0926-.0832.1957-.1572.3066-.2227.8967-.52847 2.04-.223 2.5528.6826.097.1716.1635.3532.2031.5371l.9004-1.0341c-.4651-.1226-.883-.4261-1.1407-.88187-.5117-.90605-.2-2.06908.6963-2.59766.8967-.52848 2.0401-.22208 2.5528.68359.0445.07877.0801.16109.1123.24317l.7715-.88672c-.0349-.03654-.0788-.08266-.1319-.13477-.1629-.15993-.4103-.38568-.7373-.63281-.6564-.49603-1.6236-1.07309-2.8633-1.40527m1.5557 3.57715a.3779.3779 0 0 0-.5215-.13868c-.1827.10798-.2456.34535-.1416.53028.1046.18481.3374.24797.5205.14062.1833-.10802.2473-.34703.1426-.53222m-3.333-2.04688c-.105-.18455-.3395-.24653-.5225-.13867-.1823.10809-.2455.34549-.1416.53027a.3777.3777 0 0 0 .5215.13965c.183-.10807.2471-.3462.1426-.53125m2.2617-3.33691c-1.6083-.43089-3.0672-.40868-4.125-.27735-.4214.05234-.7777.12279-1.0508.18653l.084.43554c.0302-.00824.0621-.01768.0957-.02636.2748-.07092.6659-.15527 1.1455-.21485.9578-.11893 2.2849-.1399 3.7549.25391 1.4698.39386 2.6079 1.07635 3.3779 1.6582.3853.29113.6823.55904.8848.75781.0245.02403.0466.0493.0684.07129l.2929-.33593c-.2046-.19174-.4776-.4305-.8164-.68653-.8505-.64267-2.1035-1.3913-3.7119-1.82226"/>
</svg>
