<svg xmlns="http://www.w3.org/2000/svg" width="24" height="24" viewBox="0 0 24 24">
  <path fill="currentColor" d="M16.3291 10.665c.1853-.37.6356-.5206 1.0059-.3359.3701.1852.5205.6356.3359 1.0059l-.0039.0078c-.0015.0028-.0038.0068-.0059.0107-.0046.009-.0109.022-.0185.0361-.0156.029-.0383.069-.0664.1172-.0567.0972-.1394.2317-.2491.3897-.2193.3158-.5516.7349-1.0058 1.1543-.9131.8427-2.3369 1.6992-4.3213 1.6992s-3.40823-.8565-4.32129-1.6992c-.45421-.4194-.78651-.8385-1.00586-1.1543-.10969-.158-.19235-.2925-.24902-.3897-.02815-.0482-.05081-.0882-.06641-.1172-.00763-.0141-.01391-.0271-.01855-.0361-.00206-.0039-.0044-.0079-.00586-.0107l-.00293-.0059c.00284-.0019.04609-.025.66992-.3369l-.6709.335c-.18462-.3703-.03415-.8207.33594-1.0059.37025-.1847.81962-.0341 1.00488.3359.00142.0026.00473.0071.00781.0127.00802.0149.02188.0405.04102.0733.03895.0667.10152.1676.18652.29.17118.2464.43344.5781.79102.9082C9.40824 12.6063 10.4849 13.25 12 13.25s2.5918-.6437 3.3037-1.3008c.3576-.3301.6199-.6618.791-.9082.085-.1224.1476-.2233.1865-.29.0192-.0328.033-.0584.0411-.0733.0029-.0053.0054-.0101.0068-.0127M9.08496.80664c.39482-.12355.81623.09655.94044.49121.1238.39492-.09645.81619-.49122.94043-.43434.13643-.62815.51143-.64063 1.15918.38393-.32531.95304-.64986 1.74905-.47266.3785.08437.7101.23361 1 .42872.7541-.68511 1.7572-1.10345 2.8574-1.10352 2.3469.00014 4.2497 1.9031 4.25 4.25 0 .12315-.0063.24554-.0166.36621l.124.10156.667-.54785c.224-.18352.534-.22133.7959-.09765.2619.12397.4295.38802.4297.67773v15c-.0003.414-.3359.75-.75.75H4c-.41406 0-.74974-.336-.75-.75V7c.00018-.28971.16782-.55376.42969-.67773.26186-.12368.57187-.08587.7959.09765l.08789.07227c.03363-.69749.25758-1.39899.84863-1.95215.08052-.07533.16397-.14023.24902-.19531-.23077-.30321-.3825-.65838-.4375-1.03028l-.00781-.11914c.00395-.27706.16212-.5346.41602-.66113.57094-.28433 1.25928-.3165 1.88378-.05469.18475-.68225.62037-1.37482 1.56934-1.67285m.84668 7.76563c-.29319.18417-.67487.14395-.92285-.09766l-.48145-.46973-.62304.5127c-.27638.22647-.67475.22638-.95118 0l-.66796-.54785-.667.54785c-.25032.20495-.59911.22204-.86816.05566V21.25h14.5V8.57324c-.2691.16638-.6178.14929-.8682-.05566l-.1748-.14356c-.2011.1502-.471.19983-.7216.10157-.0838-.0329-.156-.08234-.2198-.13868l-.2187.18067c-.2764.22638-.6748.22647-.9512 0l-.667-.54785-.667.54785c-.2764.2266-.6757.2266-.9521 0l-.667-.54785-.667.54785c-.2936.24053-.7212.22372-.9951-.03906l-.5537-.53223zm.38476-4.1836c-.1737-.03862-.2905-.00403-.5371.22852-.06448.06082-.12809.12789-.2041.20605-.07189.07391-.15813.16187-.24708.24512-.17154.16052-.42348.37044-.75781.47559-.02587.00812-.05212.01431-.07812.01953-.27966.07316-.55502.0712-.77051.05664-.19354-.0131-.52642-.05516-.66211-.06739-.41961-.03777-.54941.01425-.62305.08301-.16974.1591-.28399.37137-.33984.63867.22633-.0589.47468-.01052.66504.14551l.66699.54785.66699-.54785.11621-.07812c.28386-.1552.64341-.11197.88282.12109l.53906.52637.99121-.62403.1123-.05859c.2712-.11216.5893-.05623.8066.15234l.3653.35157c-.0084-.24378-.035-.44091-.0772-.5752-.3341-1.06351-.8442-1.69704-1.5156-1.84668M14.5 3.75c-.7039.00007-1.3469.26333-1.834.69922.2624.42261.4554.88716.5967 1.33691.049.15598.084.32509.1084.50098.0877.02808.1723.07156.2471.13281l.667.54785.6679-.54785.1084-.07422c.2652-.14883.6008-.12405.8428.07422l.667.54785.667-.54785.0068-.00586C17.1997 4.93519 15.9899 3.75014 14.5 3.75"/>
</svg>
