<svg xmlns="http://www.w3.org/2000/svg" width="24" height="24" viewBox="0 0 24 24">
  <path fill="currentColor" d="M8.06055 2.06056c.18718.00258.37718.04127.54101.08497.33525.08945.72408.24585 1.09766.41796.74178.3418 1.57118.81638 2.01558 1.16797.3021.23898.5119.53047.6553.82813.6935-.86432 1.7813-1.41204 2.9815-1.41211.4142 0 .75.33578.75.75-.0002.41406-.3359.75-.75.75-1.0009.0001-1.8158.59927-2.126 1.4043.1776-.02023.358-.03028.54-.03028 1.9043.0003 3.5448 1.13115 4.6768 2.64649 1.1358 1.52081 1.8379 3.52241 1.8379 5.48441-.0002 1.9619-.702 3.9637-1.8379 5.4843-1.132 1.5152-2.7727 2.6452-4.6768 2.6455-.5202 0-1.0237-.0869-1.5029-.2421-.4766.1539-.977.2421-1.4981.2421-1.90414 0-3.54466-1.1303-4.67671-2.6455-1.13594-1.5206-1.83768-3.5224-1.83789-5.4843 0-1.9621.702-3.9636 1.83789-5.48441.73492-.98382 1.68475-1.80426 2.78125-2.25977-.40783-.43415-.86752-1.10305-1.20605-1.69824-.20356-.35791-.38772-.73158-.50098-1.05664-.0554-.15908-.10593-.34169-.12109-.52246-.01191-.14246-.02201-.48843.24121-.76953.26837-.28643.6281-.30281.77832-.30079M10.7646 7.5215c-1.27918.00009-2.52123.76643-3.47554 2.04395C6.33897 10.8376 5.75 12.5269 5.75 14.1524c.00021 1.6252.58906 3.3139 1.53906 4.5859.95428 1.2773 2.19647 2.0439 3.47554 2.0439 1.2792 0 2.5213-.7665 3.4756-2.0439.9501-1.272 1.5389-2.9606 1.5391-4.5859 0-1.6256-.5889-3.3148-1.5391-4.58695-.9543-1.2776-2.1962-2.04395-3.4756-2.04395m3.7247.08106c.3477.32219.6666.68187.9531 1.06543 1.1358 1.52081 1.8369 3.52241 1.8369 5.48441-.0002 1.9619-.701 3.9637-1.8369 5.4843-.2859.3828-.6053.74-.9522 1.0616 1.0166-.229 1.9786-.926 2.751-1.96.95-1.272 1.5389-2.9607 1.5391-4.5859 0-1.6254-.5891-3.3148-1.5391-4.58695-.7728-1.03454-1.7348-1.73425-2.7519-1.96289M8.99219 3.9883c.37477.65892.84219 1.29235 1.10941 1.53027.1902.16928.473.25951.7656.27051.094.00352.1775-.00505.2461-.01465.0028-.06433.0027-.1415-.0098-.22656-.0398-.27078-.158-.5156-.3467-.66504-.313-.24765-1.02291-.66438-1.70895-.98047-.0465-.02142-.0929-.04172-.13769-.06152a8.6 8.6 0 0 0 .08203.14746"/>
</svg>
