<svg xmlns="http://www.w3.org/2000/svg" width="24" height="24" viewBox="0 0 24 24">
  <path fill="currentColor" d="M17.8525 9.87305c1.099-.36804 2.2888.22445 2.6573 1.32325.1054.3148.1305.6385.0888.9473.1451.1845.2633.3954.3418.6298.0531.1585.0853.3194.0996.4795h.3692c.2084.0001.4079.0866.5498.2393.1417.1526.2135.3577.1982.5654-.0848 1.1562-.242 3.0402-1.0078 4.6416-.3889.8133-.9487 1.5843-1.7607 2.1504-.7674.535-1.719.8583-2.878.8965l-.2343.0039H7.72364l-.23438-.0039c-1.15895-.0382-2.11051-.3615-2.87793-.8965-.81205-.5662-1.37179-1.3371-1.76074-2.1504-.7658-1.6015-.923-3.4853-1.00781-4.6416-.01523-.2077.05658-.4128.19824-.5654.14186-.1526.34144-.2392.5498-.2393h6.46973c.1017-.2777.2629-.5392.48535-.7617.24185-.2418.5297-.4087.834-.5078.0662-.4236.2619-.8322.5889-1.1592.8196-.8191 2.1481-.8191 2.9677 0 .2349.2349.4026.5135.503.8086.0704.0334.1388.0718.206.1133.2426-.4624.6564-.8356 1.1904-1.0146.3243-.1086.6571-.13.9737-.0831.2481-.3496.6046-.6284 1.0429-.77535M3.40821 14.7529c.10428 1.046.30158 2.2662.79589 3.2998.30816.6443.71788 1.1851 1.26465 1.5664.54054.3769 1.26233.6309 2.25489.6309h8.55276c.9925 0 1.7143-.254 2.2549-.6309.5467-.3812.9565-.9222 1.2646-1.5664.4943-1.0336.6916-2.2538.7959-3.2998zm9.46779-2.8672c-.234-.2335-.6128-.2337-.8467 0-.1529.1531-.2079.3686-.1592.5674.0574.2342-.0008.4816-.1572.6651l-.0039.0049h2.2705c-.0053-.0058-.0101-.013-.0156-.0186-.0885-.0884-.1958-.1432-.3086-.165-.3311-.0641-.579-.3407-.6055-.6768-.0107-.1377-.0686-.2715-.1738-.377m6.2119-.2128c-.1053-.3135-.4452-.482-.7588-.377-.2048.0688-.3493.2371-.3945.4365-.053.2352-.2158.4309-.4375.5254-.222.0944-.4764.0771-.6826-.0478-.147-.0891-.3284-.1148-.502-.0567-.3135.1053-.482.4452-.377.7588.0136.0403.0324.0774.0528.1123l1.04-.001c.19-.2265.4969-.3223.7842-.2382.146.0428.2712.1278.3643.2392h1.2041c-.0207-.0214-.043-.0416-.0664-.0595-.2679-.2052-.3658-.5642-.2393-.877.0518-.1281.0601-.2736.0127-.415M4.96778 7.76368c.81959-.81954 2.14897-.82024 2.96875-.00098.23466.23467.40159.51279.50195.80762.21219.10046.41204.23724.58691.41211.81944.81976.81863 2.14907-.00097 2.96877-.66282.6625-1.65903.7898-2.44922.3808-.02021.0221-.03924.0461-.06055.0674-.81968.8193-2.14908.8194-2.96875 0-.81963-.8196-.81941-2.149 0-2.96873.24183-.24179.5297-.40968.83399-.50879.06619-.42342.26126-.83134.58789-1.1582m1.9082 1.05957c-.23399-.23347-.61384-.23278-.84766.00098-.15246.15284-.20563.36788-.15722.5664.05742.23421-.00175.48253-.15821.66597-.1565.1834-.39163.2805-.63183.2608-.17122-.0142-.3451.0444-.47461.1738-.23363.234-.23288.6138.00097.8477.23377.2329.61193.2329.84571 0 .09356-.0936.14988-.2097.16894-.3301.04995-.3153.29417-.5647.6084-.6211.31447-.0562.6309.0924.78711.3711a.604.604 0 0 0 .09961.1318c.23389.2336.61279.2336.84668 0 .2339-.2339.23392-.6137 0-.8476-.08839-.08832-.19593-.14224-.30859-.16409-.3312-.06419-.57925-.34234-.60547-.67871-.0108-.13772-.06843-.27155-.17383-.37695M17.2813 1.8418c1.1041-.6371 2.5157-.25824 3.1533.84571.2009.34805.2965.72731.3047 1.10254.4591.18629.8634.52032 1.1308.98339.6374 1.1041.2591 2.51557-.8447 3.15332-.331.19108-.6911.28939-1.0488.30567-.1731.2132-.3867.39992-.6377.54492-1.1043.6373-2.5168.25851-3.1543-.8457-.5307-.91946-.3559-2.05106.3545-2.77246a2.35 2.35 0 0 1-.1036-.16309c-.6373-1.10429-.2585-2.51676.8458-3.1543m1.8544 1.59571c-.2234-.38662-.7177-.51906-1.1044-.2959-.3868.22332-.5191.71764-.2959 1.10449.0892.15449.2196.26807.3701.33496.2918.1297.4701.42983.4433.74805-.027.31822-.253.58523-.5625.66406a.818.818 0 0 0-.207.08399c-.3863.22344-.5188.71786-.2959 1.10449.2233.38677.7186.51996 1.1055.29687.1459-.08429.2543-.20609.3222-.3457.1477-.30355.4807-.47099.8125-.40918.1832.03399.3777.00481.5518-.0957.3864-.22351.519-.71782.2959-1.1045-.1462-.25321-.409-.39827-.6846-.40429-.241-.00516-.4658-.12568-.6025-.32422-.1367-.1988-.1694-.4526-.0879-.67969.0779-.21758.0629-.46373-.0606-.67773M9.4834 2.43165c.7073-.70685 1.8543-.70701 2.5615 0 .1852.18525.3201.40207.4082.63183.3301.07027.6455.23054.9024.48731.7073.70731.7072 1.85418 0 2.56152-.1851.18506-.4018.31994-.6319.4082a1.81 1.81 0 0 1-.3271.44727c-.7073.70713-1.8542.70798-2.56154.00098-.54196-.54211-.66673-1.34224-.37793-2.00489-.67935-.70931-.67156-1.83429.02637-2.53222m1.501 1.06054c-.1215-.12122-.3189-.12106-.4405 0-.1215.12156-.1215.31985 0 .44141.0489.04867.1087.07708.1709.08691.3153.04995.5647.29418.6211.6084.0562.31445-.0934.63096-.372.78711a.317.317 0 0 0-.0684.05176c-.1211.12154-.1212.319 0 .44043.1216.12122.319.12036.4404-.00098.0463-.0463.0747-.10181.086-.16015.0642-.33112.3414-.57821.6777-.60449.0717-.00562.1404-.03597.1953-.09083.1215-.12155.1215-.3189 0-.44042-.0791-.07896-.1906-.10751-.2949-.08204-.2343.0574-.4825-.00066-.666-.15722-.1835-.15664-.2797-.39337-.2598-.63379.0072-.08948-.0229-.1791-.0898-.2461"/>
</svg>
