<svg xmlns="http://www.w3.org/2000/svg" width="24" height="24" viewBox="0 0 24 24">
  <path fill="currentColor" d="M11.1201 14.9648c.2642.0003.4785.2153.4785.4795-.0001.2642-.2143.4782-.4785.4785-.2644 0-.4793-.2141-.4795-.4785.0001-.2644.2151-.4795.4795-.4795m1.8828 0c.2644.0001.4785.2151.4785.4795-.0001.2644-.2141.4785-.4785.4785s-.4784-.2141-.4785-.4785c0-.2644.2141-.4795.4785-.4795m-.1982-2.0908c1.4188.0003 2.5689 1.1506 2.5693 2.5694 0 1.419-1.1503 2.57-2.5693 2.5703h-1.4551c-1.41893-.0004-2.56932-1.1513-2.56932-2.5703.00042-1.4187 1.15065-2.569 2.56932-2.5694zm-1.4551 1.5c-.5902.0004-1.0689.4791-1.0693 1.0694 0 .5906.4788 1.0699 1.0693 1.0703h1.4551c.5906-.0003 1.0693-.4797 1.0693-1.0703-.0004-.5903-.479-1.0691-1.0693-1.0694zM9.30664 10c.55223 0 .99996.4478.99996 1s-.44773 1-.99996 1c-.55219-.0001-.99996-.4478-1-1 .00004-.5522.44781-.9999 1-1m4.99806 0c.552.0002 1 .4479 1 1s-.448.9998-1 1c-.5523 0-1-.4477-1-1s.4477-1 1-1m-2.4981-5.74805c.6132-.01449 1.6866.13774 2.71.70703.7715-.35945 1.9953-.61664 3.2549-.28711 1.4519.38003 2.8291 1.50684 3.6064 3.82227.459 1.36745.6403 2.39016.544 3.13086-.0503.3858-.1827.7468-.4405 1.0293-.2635.2886-.5965.428-.916.4775-.545.0844-1.1309-.0817-1.5781-.2431.0823.3846.1454.7707.1816 1.1533.146 1.544-.1203 3.1579-1.3232 4.374-1.1897 1.2026-3.1495 1.8652-6.04 1.8652-2.89052 0-4.85029-.6627-6.04007-1.8652-1.20297-1.2161-1.46828-2.83-1.32227-4.374a9 9 0 0 1 .03321-.2998c-.0225.0044-.04479.0106-.06739.0146-.45651.0813-1.03477.0876-1.54785-.1972-.55777-.3099-.88125-.8735-.96289-1.5977-.07812-.6938.05592-1.5763.41211-2.67968.73329-2.27149 1.92209-3.53634 3.21289-4.12109 1.26622-.57354 2.52588-.44384 3.3291-.12793l-.03711.09277c1.1033-.70802 2.32237-.89024 2.99117-.87402m-.1699 1.49902c-.7763.02336-2.27586.39997-3.06052 1.71094-.65722 1.09819-2.38903 4.07199-2.63965 6.72169-.12291 1.2998.12191 2.3958.89551 3.1777.78699.7954 2.27054 1.4199 4.97366 1.4199 2.703 0 4.1866-.6245 4.9736-1.4199.7735-.7819 1.0184-1.878.8955-3.1777-.2506-2.6496-1.9824-5.62338-2.6396-6.72169-.7847-1.31096-2.2842-1.68757-3.0606-1.71094zm-4.06638.52246c-.42289-.03015-.92276.02521-1.42774.25391-.82395.37324-1.77141 1.25227-2.40527 3.21582-.32729 1.01394-.39245 1.66154-.34863 2.05074.04035.358.15982.4312.20117.4541.08619.0479.26467.0833.55664.0313.23775-.0424.48454-.1336.69238-.2363.6747-2.35691 1.95516-4.52441 2.4502-5.3516a4.77 4.77 0 0 1 .28125-.41797m9.82128-.15039c-.5295-.13846-1.0559-.12021-1.499-.03515.1533.18364.2982.38389.4297.60351.424.70854 1.4239 2.40025 2.1269 4.3516.118.0503.2431.1032.3614.1552.2005.0883.4052.1765.6093.253.4447.1666.7514.2227.916.1972.0216-.0033.0339-.0073.0401-.0097.01-.0152.0408-.0714.0586-.208.0501-.3857-.035-1.1346-.4795-2.45902-.6387-1.90269-1.6654-2.61348-2.5635-2.84864"/>
</svg>
