<svg xmlns="http://www.w3.org/2000/svg" width="24" height="24" viewBox="0 0 24 24">
  <path fill="currentColor" d="M19 4.25c.4142 0 .75.33579.75.75v2.32422c1.7118.34739 3 1.86151 3 3.67578 0 1.8142-1.2883 3.3273-3 3.6748V17c0 2.0711-1.6789 3.75-3.75 3.75H8c-2.07107 0-3.75-1.6789-3.75-3.75v-2.3252c-1.71166-.3475-3-1.8606-3-3.6748 0-1.81427 1.28824-3.32839 3-3.67578V5c0-.41421.33579-.75.75-.75zM5.75 17c0 1.2426 1.00736 2.25 2.25 2.25h8c1.2426 0 2.25-1.0074 2.25-2.25V5.75H5.75zm-1.5-8.11914C3.37657 9.18999 2.75 10.0207 2.75 11s.62657 1.81 1.5 2.1191zm15.5 4.23824c.8734-.3091 1.5-1.1398 1.5-2.1191s-.6266-1.81001-1.5-2.11914z"/>
</svg>
