<svg xmlns="http://www.w3.org/2000/svg" width="24" height="24" viewBox="0 0 24 24">
  <path fill="currentColor" d="M7.19824 18.8457h-1v-1.0342h1zm-1.05762-3.0381h-1v-1.0342h1zM9 14.7734H8v-1.0341h1zm5.5996-.3925h-1v-1.0342h1zm-3.2412-1.0342h-1v-1.0342h1zm-2.0459-.5166h-1v-1.0342h1zm7.7334-2.3086h-1V9.4873h1zm1.6172-3.7344h-1V5.75292h1zm-2.6865-.80371h-1V4.94921h1zm-2.544-2.85937c1.1453-.78474 2.6893-1.39897 4.208-1.08399 1.5934.33091 2.8906 1.61988 3.6133 4.05957.7126 2.40593.6526 4.6749-.1445 6.5645-.8011 1.8983-2.3221 3.3528-4.4043 4.1503-.974.373-1.741.6154-2.375.8077-.6451.1956-1.1091.3279-1.5371.4912-.7895.3013-1.456.7103-2.6407 1.9209-1.88082 1.922-4.51027 1.559-6.24508.2851-1.7374-1.2762-2.85533-3.6733-1.5166-6.0332.66517-1.1722 1.94639-2.421 3.33399-3.3886 1.24997-.8716 2.70264-1.59489 4.00781-1.79009.18972-.32705.36508-.69413.54098-1.09863.2154-.49519.4635-1.12077.7129-1.6709.5189-1.1442 1.2089-2.36581 2.4463-3.21386m3.9033.38476c-.9508-.19717-2.0725.17895-3.0556.85254-.8909.6106-1.4405 1.52218-1.9278 2.59668-.2534.55904-.4503 1.06598-.7041 1.64941-.2395.55073-.5074 1.11348-.8447 1.62009-.1295.1944-.3432.3168-.5762.3321-.99821.0645-2.35183.6653-3.64547 1.5673-1.28474.896-2.37199 1.9924-2.88672 2.8995-.85228 1.5024-.22566 3.1105 1.09961 4.0839 1.32782.9751 3.08069 1.1069 4.28613-.125 1.28405-1.3121 2.12535-1.8731 3.17675-2.2744.4921-.1877 1.0329-.3412 1.6367-.5244.6155-.1867 1.346-.4179 2.2744-.7734 1.723-.6601 2.9255-1.8318 3.5586-3.3321.6368-1.5093.7224-3.41342.0879-5.55562-.6244-2.10795-1.6032-2.83453-2.4795-3.0166"/>
</svg>
