<svg xmlns="http://www.w3.org/2000/svg" width="24" height="24" viewBox="0 0 24 24">
  <path fill="currentColor" d="M11.4727 9.52539c.7561.00018 1.4427.46551 1.957.95601.5416.5167 1.0312 1.1932 1.4004 1.8741.3649.673.6465 1.4152.7148 2.0703.034.3267.0216.6909-.1123 1.0263-.1448.3627-.4235.6646-.8359.8106-1.6859.5962-3.7426.6968-6.05764.0127-.42138-.1247-.77055-.3674-1.00097-.7256-.22302-.347-.29452-.7391-.28809-1.1035.01261-.7091.31819-1.4803.70801-2.1494.39858-.6841.93713-1.3493 1.51562-1.8526.54957-.47792 1.26097-.91877 1.99907-.91891m0 1.50001c-.1815.0002-.5421.1398-1.0147.5508-.4438.3861-.87955.9203-1.20312 1.4756-.33229.5703-.49881 1.0798-.50488 1.4209-.00284.1602.03077.2359.0498.2656.01173.0182.04335.0616.16504.0976 2.01196.5945 3.72456.4963 5.08006.0293.0104-.046.0243-.1357.0088-.2841-.0402-.3855-.2278-.9313-.542-1.5108-.3097-.5712-.7097-1.1141-1.1172-1.5029-.4345-.4145-.7586-.5418-.9218-.542M12 1.75c.6045.00016 1.1088.42962 1.2246 1h4.6621c.6608.00039 1.2073.51513 1.2471 1.1748l1.083 18c.0432.7185-.5284 1.325-1.248 1.3252H4.03125c-.7197-.0002-1.29125-.6067-1.24805-1.3252l1.08301-18 .0127-.12207c.09527-.60004.61491-1.05236 1.23437-1.05273h4.66211c.11582-.57041.62001-.99984 1.22461-1zm-7.7041 20h14.4082l-1.0527-17.5H13.25V5c0 .69024-.5598 1.24981-1.25 1.25h-1c-.6902-.00019-1.25-.55976-1.25-1.25v-.75H5.34863zm6.9541-17h.5v-.5h-.5z"/>
</svg>
