<svg xmlns="http://www.w3.org/2000/svg" width="24" height="24" viewBox="0 0 24 24">
  <path fill="currentColor" d="M7.85546 3.12501c1.16617-.01189 2.24894.39269 3.19434.98047.4047.25163.7894.54299 1.1543.85645.8462-.6613 2.1187-1.35466 3.5469-1.53907 1.6796-.21673 3.5266.28353 5.0332 2.21387 1.5383 1.97118 1.4964 4.3205.914 6.33597-.5171 1.7895-1.4839 3.4133-2.3154 4.4961.1426.2351.2703.5179.3262.8271.0508.282.0465.6138-.0889.9453-.138.3375-.3875.6139-.7226.8194-.7874.482-1.5372.2027-1.9678-.0762-.0557-.0361-.1088-.0729-.1582-.1104-1.7204.8996-5.5098 1.9274-9.35549.0645-.22267.1924-.54307.3557-.93848.3682-.52191.0161-1.03262-.228-1.48437-.7071-.49581-.526-.65411-1.1175-.56153-1.6631.02224-.1306.05861-.2535.10352-.3672-.95094-1.2379-2.03928-3.1593-2.44434-5.2451-.44269-2.28005-.07046-4.82262 2.24805-6.78122 1.1459-.96785 2.33732-1.40581 3.5166-1.41797m.66016 14.66209c2.85358 1.1943 5.62318.6108 7.12398-.0342-.1292-.1306-.2746-.2775-.4326-.4375-.0637-.0645-.1295-.1315-.1972-.2002-.8665.5297-1.8069.6984-2.6807.6856v.4619h-1v-.5508c-.8482-.1358-1.60609-.4034-2.1504-.6289zm6.82228-3.3994h-.9014c.6801.6957 1.3258 1.3553 1.8379 1.874.3262.3304.5975.6046.7871.7959.0946.0955.1691.1707.2197.2217l.0733.0733.0029.0039.001.0009.0381.0371.0283.0381c.0019.0024.0068.0094.0137.0176.0139.0166.0371.0429.0674.0742.0631.0654.1467.1412.2392.2012.1892.1225.2799.1097.3682.0557.0982-.0602.116-.102.1181-.1075.0037-.0092.0137-.0405.001-.1113-.0135-.0749-.0481-.1702-.1055-.2734-.0564-.1016-.1234-.1905-.1787-.252l-2.6103-2.8056zm-7.21486.3027v.9991H7.208l-1.11621 1.2177-.02637.0293-.03027.0264c-.04435.0397-.10906.1318-.125.2256-.00643.0383-.0063.0805.00976.1308.01656.0518.0584.1379.16504.251.12199.1294.21406.1889.26856.2149.04765.0226.07273.0226.07715.0224.00233-.0001.00586-.0019.00586-.0019l.00195-.002.01367-.0146 3.07422-3.2608h-.00879v-1h.95113l.5176-.5488c-.2324-.2439-.4545-.4752-.6572-.6914l-.0029-.0029zm2.16606 1.2139c.4645.1605 1.0108.3066 1.581.3682.7101.0765 1.4154.0174 2.0469-.2715-.3608-.3677-.7423-.7536-1.1231-1.1445-.2574-.2643-.5147-.5315-.7685-.794zM7.87109 4.62501c-.79019.00812-1.65278.29345-2.56446 1.06348-.36115.30508-.66028.62886-.9082.96386h.0957v1h-.66894c-.45506 1.07477-.48515 2.23615-.26172 3.38675.31812 1.6376 1.14328 3.2019 1.92773 4.3017l.59571-.6513c-.76352-1.1414-1.24185-2.1874-1.49024-3.1368h-.40039v-1h.21875c-.06878-.67934-.01562-1.29943.13867-1.85835.43867-1.58849 1.6366-2.53509 2.63282-2.81836.41672-.11842.82051-.13132 1.19433-.08008V4.8379h.74903c-.41741-.14137-.83808-.21717-1.25879-.21289M19.4101 11.5527c-.3619 1.206-1.0807 2.2774-1.6923 3.0352l.6631.7119c.6939-.9566 1.4589-2.3005 1.8759-3.7431l.001-.004zm-9.1289-2.75777c-.0775.09231-.1227.22763-.1269.43262-.0058.2852.0796.59586.165.79785.008.0109.0207.0284.0401.0527.0532.0671.1314.16.2343.2774.1218.1387.2718.3044.4444.4922H12v1h-.0205c.1718.1804.3496.3694.5342.5615.0074.0065.0152.0127.0224.0195.0261.0246.0496.051.0713.0781.4057.4216.8343.8639 1.2617 1.3028.1564.1605.3141.3192.4688.4775v-.8994h.2148zM8.76074 7.46095c-.38489-.17941-.78403-.24957-1.16407-.1416-.51967.14787-1.30478.71755-1.59668 1.77441-.26065.94444-.15596 2.40694 1.13379 4.45414L9.3164 11.167c-.04791-.0568-.09363-.1081-.13184-.1562-.05517-.0696-.15794-.1989-.21777-.3311-.15692-.3467-.32347-.90235-.31152-1.4834.00981-.47187.14477-1.02965.56347-1.46289-.13342-.09628-.28783-.19312-.458-.27246m8.38086.37695c-.4248-.40886-1.038-.52395-1.5996-.39551-.4206.09631-.6785.2896-.8086.4668.1731.26871.3286.52868.4639.77344.2835.46468.3903 1.04165.1904 1.61817-.1336.3849-.3878.717-.7324.9941l2.0283 2.1807c.5241-.6766 1.0643-1.5373 1.3164-2.4414.2996-1.07502.1962-2.1806-.8584-3.1963m1.3789-2.32031c-.858-.59143-1.7487-.71449-2.5781-.60742-1.0172.13142-1.9715.61763-2.6514 1.11328.1923.21242.3752.4288.5488.64551.3021-.2707.6706-.46969 1.045-.59668V5.3379h1v.55762c.7871-.02159 1.6327.22181 2.2978.8623 1.2343 1.18884 1.5694 2.53401 1.4336 3.79488h.6797v.8575c.4662-1.71681.4045-3.44364-.6934-4.85062-.1056-.13537-.2143-.25949-.3222-.37598v.33399h-1v-1zm-9.13965.32031h-.77051c.28446.06021.549.15309.78418.2627.59123.27565 1.06318.67078 1.33398.97265l2.9014 3.11915c.2264-.1567.3114-.29906.3408-.3838.0351-.10142.0285-.21987-.0606-.35839l-.0136-.02051-.0127-.02149c-.7275-1.31634-2.0501-3.04841-3.626-4.02832-.28931-.17987-.58197-.33218-.87695-.45117z"/>
</svg>
