<svg xmlns="http://www.w3.org/2000/svg" width="24" height="24" viewBox="0 0 24 24">
  <path fill="currentColor" d="M19.3252 3.11423c.8395-.08254 1.7381.07125 2.2803.8252.5389.75025.4053 1.70035.0947 2.52636-.3233.85948-.9206 1.81846-1.6729 2.80274-1.5118 1.97797-3.7674 4.20817-6.1464 6.17967-2.3766 1.9695-4.92514 3.7212-7.0352 4.7168-1.04522.4931-2.04952.8335-2.90234.8818-.87422.0494-1.76485-.2158-2.19922-1.123-.38448-.8033-.2412-1.7349.09375-2.6006.34268-.8854.94101-1.8481 1.68848-2.8242 1.49898-1.9574 3.69765-4.0965 6.01855-5.97657 2.31948-1.87884 4.80628-3.53485 6.89748-4.50488 1.039-.48192 2.0313-.81945 2.8828-.90332m.1475 1.49316c-.6076.05987-1.4235.31786-2.3995.77051-.2199.10204-.4463.21323-.6767.33203.467.74127.836 1.41928 1.0439 1.9834.1204.32685.213.68053.2022 1.01465-.0121.3595-.1576.79469-.5977 1.03711-.3988.21901-.8354.15269-1.1377.06543-.3271-.09459-.6779-.26681-1.0312-.47656-.5828-.34603-1.2596-.8503-1.9922-1.45606-.2734.19245-.5485.39039-.8233.59375.0959.13913.1897.27548.2784.41016.5943.90257 1.0633 1.73249 1.3095 2.40039.1205.327.2122.6814.2012 1.0156-.0121.3594-.1568.7938-.5967 1.0362-.3988.219-.8354.1526-1.1377.0654-.3271-.0946-.6779-.2668-1.0312-.4766-.6739-.4001-1.47429-1.0106-2.33986-1.747-.22759.2039-.4527.4084-.67285.6142.10842.157.21386.3107.31348.4619.59429.9025 1.06233 1.7325 1.30859 2.4004.12046.327.2131.6814.20215 1.0156-.01214.3595-.15764.7938-.59766 1.0362-.3987.2189-.83446.1526-1.13672.0654-.32723-.0946-.67877-.2667-1.03222-.4766-.57696-.3425-1.24653-.8398-1.97071-1.4375-.1536.1871-.3012.3726-.4414.5557-.70417.9196-1.20881 1.7538-1.4795 2.4531-.2781.7188-.25913 1.1625-.13964 1.4121.06987.1457.21764.3041.76074.2735.5653-.0321 1.36244-.2764 2.34765-.7412 1.95168-.921 4.39015-2.5866 6.71685-4.5147 2.3245-1.9263 4.4914-4.0766 5.913-5.93651.7138-.93395 1.2113-1.75858 1.46-2.41992.2612-.6947.1766-1.00488.0918-1.12304-.0821-.11398-.2964-.26775-.915-.20704M6.98047 12.8545c-.28925.2922-.57019.5823-.83692.872.67729.557 1.27049.9921 1.75098 1.2774.15588.0925.29254.1639.4082.2178-.00557-.016-.01034-.0338-.0166-.0508-.18557-.5033-.57762-1.217-1.15429-2.0928-.04874-.074-.10019-.1481-.15137-.2236m3.50783-3.16507c-.2005.16238-.3991.32757-.5967.49317.7641.6404 1.4289 1.137 1.958 1.4512.156.0925.2925.1639.4082.2177-.0056-.016-.0113-.0337-.0176-.0507-.1856-.5033-.5767-1.2172-1.1533-2.09282-.0696-.10572-.1432-.21235-.2178-.32129-.1266.10045-.2548.20062-.3808.30274m4.5947-3.24805c-.296.17658-.5951.36674-.8994.5625.556.44475 1.048.79758 1.458 1.04101.156.09259.2925.16393.4082.21778-.0056-.01602-.0113-.03375-.0176-.05078-.1624-.44046-.4853-1.04016-.9492-1.77051"/>
</svg>
