<svg xmlns="http://www.w3.org/2000/svg" width="24" height="24" viewBox="0 0 24 24">
  <path fill="currentColor" d="M16.3457 1.90237c.9848-.98477 2.2667-.87663 3.1875-.38964.6872.36351 1.3312 1.02216 1.5732 1.80078.7595.22819 1.3916.83285 1.7305 1.50976.4577.91458.4746 2.13482-.4805 3.08985-.8345.83435-1.7313 1.08364-2.5459.93359-.4025-.07424-.7523-.24134-1.039-.43848l-1.416 1.41504c.6462.89823.9475 1.87373.9717 2.87403.0303 1.2619-.3786 2.5111-.9815 3.6504-1.1954 2.2583-3.2519 4.2736-4.7793 5.4531-.4475.4132-1.0406.5078-1.585.4619-.5685-.048-1.19472-.2522-1.8271-.5517-1.27142-.6023-2.72811-1.6656-4.09375-3.0313-1.3656-1.3656-2.42802-2.8223-3.03027-4.0937-.29955-.6325-.50476-1.2585-.55274-1.8272-.04636-.5515.05034-1.1541.47754-1.6035.95759-1.0707 2.28022-2.57144 3.69336-3.73339.70817-.58223 1.46727-1.1039 2.24316-1.44532.77569-.34126 1.61885-.52399 2.4609-.35547 1.5073.30192 2.3832 1.17802 2.9239 1.63868.139.11843.2395.19821.3222.25.0512.03198.0829.04464.0977.0498.0335-.01256.1132-.05665.251-.19434l.0058.00489 1.8916-1.8916c-.1944-.28512-.3582-.63182-.4316-1.03028-.1501-.81454.0983-1.71135.9326-2.5459M8.48438 15.2686c-.00962.2373-.03917.5109-.12598.7783.07797.0882.16836.1927.2666.3125.33206.4051.7632.9889 1.16211 1.7109.49309.747.72259 1.2375.82719 1.7012l.038.2012.003.0166.0019.0166c.0229.2079.0324.4521.0205.6797.1602.0425.3031.0713.4287.082.3281.0277.4286-.0526.4483-.0723.0194-.0194.0999-.1188.0723-.4472-.0274-.3245-.1551-.7689-.4122-1.3115-.5102-1.0772-1.45659-2.393-2.73042-3.668m-1.4961 1.791c-.32937.0592-.69674.0894-1.02734.1104-.09092.0057-.17707.0101-.25879.0146.13561.1448.27479.2904.41895.4346 1.02054 1.0205 2.06979 1.8279 3 2.373-.06765-.2215-.22015-.5476-.6084-1.1318l-.0166-.0264-.01563-.0273c-.3458-.628-.72355-1.1398-1.01562-1.4961-.09581-.1169-.18317-.2164-.25586-.2979-.07759.0184-.152.0345-.22071.0469m3.06932-9.96777c-.43965-.08784-.95797-.00674-1.5615.25879-.60332.26548-1.24325.69501-1.89454 1.23047-.7907.65015-1.55847 1.42151-2.25781 2.17191.35788.0979.72865.2413 1.10157.4179 1.27138.6023 2.72811 1.6647 4.09375 3.0303 1.36573 1.3657 2.42893 2.8223 3.03123 4.0938.1858.3922.3337.7822.4317 1.1572 1.1162-1.0552 2.2707-2.395 3.0175-3.8057.5306-1.0024.8298-1.9934.8077-2.9131-.0215-.8883-.3426-1.7608-1.1495-2.5771l-1.2754-1.27541c-.2789.14438-.5842.21508-.9209.16406-.5052-.07673-.909-.41457-1.1767-.64258-.6129-.52214-1.1914-1.09907-2.2471-1.31054M3.49219 12.1133c-.32796-.0275-.42785.0529-.44727.0723-.01961.0197-.09992.1202-.07226.4482.02743.3244.15528.7683.41211 1.3106.26493.5593.64911 1.182 1.13379 1.831.00837-.0014.01672-.0026.02441-.0039.12677-.0205.26881-.0343.40723-.0449.26189-.02.62272-.0352.91601-.0537.31974-.0203.6159-.0466.85645-.0899.09948-.0179.17252-.0375.22461-.0527.02364-.0984.04492-.2494.04492-.4707-.00003-.1667-.00939-.3403-.02051-.5234-.01045-.1721-.02439-.3703-.02441-.544 0-.0299.00147-.0598.00488-.0888-.76262-.6015-1.49842-1.0701-2.14844-1.378-.54241-.2569-.98715-.3847-1.31152-.4121M18.832 2.83792c-.5303-.28036-1.0435-.25729-1.4257.125-.5319.532-.5677.94523-.5186 1.21289.0592.32139.2754.60268.457.74805.1664.13326.2685.33112.2803.54394.0116.21275-.0681.42061-.2187.57129L15.5439 7.9014l.8067.80566 1.8623-1.8623c.2928-.2925.7677-.29246 1.0605 0l.0079.00781c.0193.01937.0375.04015.0546.06152.1454.18163.4258.39777.7471.45703.2677.04922.6807.01345 1.2129-.51855.4122-.41216.4275-.90433.2002-1.3584-.2531-.50545-.7141-.78144-1.0332-.78027-.1999.00078-.3928-.07738-.5342-.21875-.1411-.14128-.2194-.33351-.2187-.53321.0011-.30513-.3002-.81836-.878-1.12402"/>
</svg>
