<svg xmlns="http://www.w3.org/2000/svg" width="24" height="24" viewBox="0 0 24 24">
  <path fill="currentColor" d="M15.9785 2.10059c.4084-.06771.7952.20884.8633.61719.0678.40825-.209.795-.6172.86328-1.9746.32929-2.8869 1.28779-3.333 2.10547-.1661.30462-.2724.60076-.3408.85449 1.6508.11519 2.907.57002 3.8183 1.3291.6037-.29374 1.2701-.44224 1.96-.39746 2.6403.17217 4.2446 2.95164 3.9824 5.82224-.1301 1.4239-.3761 3.3079-1.0713 4.8223-.3512.7651-.8395 1.4859-1.5302 1.999-.7067.5248-1.5761.7942-2.6026.7276-.7158-.0466-1.3278-.2488-1.8398-.5772-.9634.9671-2.1678 1.6424-3.5869 1.6426-1.2649-.0001-2.35952-.534-3.26566-1.332-.09962.1473-.25862.2554-.45703.289-1.01195.1702-1.92388-.0108-2.71484-.4599-.77213-.4388-1.37736-1.1036-1.85449-1.8243-.94507-1.4276-1.50967-3.2665-1.88086-4.664-.3828-1.4418-.2802-2.8512.22851-3.9678.50924-1.11697 1.44929-1.97721 2.74024-2.19433.82749-.13892 1.54125-.02081 2.27539.3291.96064-.92183 2.35704-1.45553 4.26174-1.55469.0802-.41371.2406-.97314.5615-1.56152.6592-1.2084 1.9578-2.46052 4.4033-2.86817m-4.2978 5.91114c-2.22602.00008-3.42928.58978-4.10062 1.37597-.69164.8102-.96088 1.9902-.96094 3.4707.00003 1.5156.53601 3.4567 1.48438 5.0059.95943 1.567 2.21358 2.5447 3.57718 2.5449 1.361-.0004 2.6161-.985 3.5771-2.5596.9494-1.5557 1.4853-3.4973 1.4854-4.9912-.0001-1.4803-.2705-2.6605-.9619-3.4707-.6714-.78612-1.8749-1.37585-4.1006-1.37597M5.86231 9.26661c-.32691-.10702-.63531-.12193-1.00098-.06055-.73427.1235-1.35083.62339-1.71777 1.42874-.36709.8059-.46183 1.883-.15625 3.0342.36964 1.3917.8834 3.0105 1.6709 4.2001.38903.5875.81504 1.0229 1.27636 1.2852.39645.2252.86088.3459 1.4336.2881-.19465-.2562-.37702-.5223-.54395-.7949-1.08341-1.7698-1.70505-3.9798-1.70508-5.7891.00005-1.2577.17332-2.52.74317-3.59179M18.1934 8.9668c-.2726-.01772-.5445.01565-.8096.09571.6618 1.11369.8593 2.45739.8594 3.79589-.0001 1.7894-.6228 3.9989-1.7051 5.7725-.0935.1531-.1937.3034-.2959.4521.2685.1428.5952.2411 1.0019.2676.6867.0445 1.1915-.1323 1.5879-.4268.4123-.3063.7595-.7798 1.044-1.3994.5763-1.2556.8089-2.9089.9385-4.3262.2204-2.4119-1.132-4.13384-2.6211-4.2314"/>
</svg>
