<svg xmlns="http://www.w3.org/2000/svg" width="24" height="24" viewBox="0 0 24 24">
  <path fill="currentColor" d="M2.47265 2.32322c.7489-.7488 1.96403-.74886 2.71289 0l3.34473 3.34473.26074-.25977c.48816-.48805 1.27949-.48812 1.76759 0l1.2392 1.23926.9102-.91016c.4882-.48791 1.2795-.48802 1.7676 0l5.8174 5.81742c.4874.4881.4877 1.2796 0 1.7675l-.2549.2539c.4176.136.7647.339 1.0449.6163.7276.7202.7883 1.7595.833 2.5136.0019.0313.001.0623-.001.0928.0543.14.085.292.085.4512v3.5c-.0001.6901-.56 1.2497-1.25 1.25h-9.5537c-.6902-.0002-1.24996-.5598-1.25002-1.25v-2.3662l-4.05859-4.0586c-.48805-.4881-.48798-1.2795 0-1.7676l.91016-.9102-1.23926-1.2392c-.48815-.48817-.48814-1.27944 0-1.7676l.25976-.26074-3.34472-3.34473c-.74877-.74877-.74951-1.96299-.00098-2.71191M11.4463 20.5H20.5v-3h-9.0537zm-4.32131-7.0586 3.00101 3.001c.0775-.1726.2201-.3162.4101-.3907l6.6172-2.5888c.0646-.0253.1332-.0422.2022-.0489.2923-.0279.5703-.0442.833-.0507l-.0293-.0293.8965-.8955-5.4639-5.46391zm12.90331 1.8164c-.2329-.2302-.8183-.5005-2.4297-.3594L14.7851 16h5.5557c-.0593-.3588-.1524-.5837-.3125-.7422M6.79589 9.52439l1.0625 1.06251 2.87891-2.87891-1.0625-1.0625zM4.12402 3.38377c-.16309-.16292-.42776-.16297-.59082 0-.16269.16308-.16185.42684.00097.58984l3.34473 3.3457.59082-.59082z"/>
</svg>
