<svg xmlns="http://www.w3.org/2000/svg" width="24" height="24" viewBox="0 0 24 24">
  <path fill="currentColor" d="M9.8164.7373c.8402.00015 1.7058.45289 2.1094 1.2627.3734.74977.2749 1.63177-.2949 2.48047.1782.02073.368.05796.5449.12695.2311.09024.4788.24634.6631.51074.1848.26551.2606.57629.2607.89649 0 .50952-.1181.97878-.4551 1.32226-.3263.3324-.7354.41709-.9912.45215-.0041.00055-.0086.00044-.0127.00098.1219.04961.2574.1077.3838.17578.1266.0682.2238.1692.291.28516.1117.0343.2152.07799.3067.125.3049.15678.6012.40657.791.56054-.0393-.08361-.0893-.18542-.1299-.28418-.1069-.25993-.2459-.67816-.1211-1.14746.1304-.48872.4936-.84997.9717-1.12597.2967-.17132.6216-.26346.9599-.23145.3356.03194.6065.17882.8096.34375.193.15687.3544.35716.4844.54688.4736-1.06339 1.2606-1.66296 2.1855-1.71192.9656-.05086 1.8464.52309 2.2979 1.30469.4512.78174.5072 1.83088-.0195 2.6416-.5051.77694-1.4178 1.15804-2.5762 1.03614.0995.2075.1929.4475.2324.6934.0413.2583.0325.5655-.1074.872-.1414.3094-.3837.5454-.6807.7168-.4779.2759-.9716.4098-1.4599.2783-.4691-.1266-.762-.4562-.9336-.6787-.0654-.0848-.1289-.1789-.1817-.2549.0384.2412.1075.6229.0908.9659-.0194.3983-.1627.9247-.7041 1.2373-.3379.1949-.7061.249-1.0468.2461-.0716-.0007-.1445-.0054-.2178-.0108.6176 1.4912.5685 3.2337-.3672 4.8545-.4766.8253-1.2284 1.2878-2.0088 1.5606-.7673.2681-1.62187.3726-2.38377.4463-.80093.0773-1.47485.1199-2.0332.2412-.57303.1245-.77873.2863-.85156.4121-.20714.3586-.66573.4815-1.02442.2744-.33582-.1943-.46514-.6096-.30957-.9561l.03516-.0683.02539-.0537c.05319-.1414.06164-.401-.09473-.8897-.17419-.5439-.47334-1.1489-.80664-1.8808-.31716-.6966-.65421-1.4897-.80566-2.2881-.15384-.812-.12862-1.6943.34766-2.5196 1.01282-1.7541 2.66739-2.6806 4.41699-2.7832-.13491-.1672-.25996-.3387-.36133-.5146-.15779-.27396-.28505-.59904-.28516-.96681.00018-.59356.35843-.96481.67286-1.17188.17622-.11602.38376-.2077.56152-.28027-.00496-.00062-.01071-.00031-.01563-.00098-.25577-.0351-.66513-.11999-.99121-.45215-.3367-.34345-.45504-.81291-.45508-1.32226.00007-.32016.07596-.631.26075-.89649.18421-.26448.43192-.42048.66308-.51074.17722-.06917.36738-.10622.5459-.12695C7.43203 3.63172 7.33357 2.74982 7.70703 2 8.11071 1.1902 8.9762.73738 9.8164.7373m-.87207 11.6504c-1.78463-.5245-3.64938.1254-4.65625 1.8691-.23939.415-.28477.8996-.17285 1.4903.11464.6043.38099 1.2528.69629 1.9453.29911.6569.66145 1.3918.8711 2.0469.03761.1175.07215.2412.10253.3681.12483-.037.24877-.0695.36915-.0957.67206-.146 1.4895-.2001 2.208-.2695.75776-.0732 1.45323-.1661 2.0342-.3692.5674-.1983.9634-.4798 1.2031-.8945.8932-1.5472.7026-3.2484-.292-4.5088-.0203-.0052-.0411-.0103-.0615-.0156-.424-.109-.8796-.2247-1.37403-.3301a.7512.7512 0 0 1-.49317-.3584.752.752 0 0 1-.08984-.501c-.01174-.0116-.02405-.0235-.03516-.0361-.10395-.1179-.20833-.2307-.30957-.3408m2.96777-2.68946c-.0338.03112-.0851.0864-.1445.19141-.0911.16115-.1822.38975-.2842.70705-.1015.3158-.2011.6803-.3213 1.1113-.0076.0275-.0166.0552-.0244.083.3649.2489.6958.5312.9893.8399.2227.0567.4267.1066.6162.1474.3252.0702.5679.1047.7529.1065.1207.001.1944-.0156.2383-.0293.0006-.0077.0014-.0174.0019-.0274.008-.1656-.0284-.3654-.0801-.6992-.0389-.2514-.1105-.6992.0108-1.0957.0347-.1132.086-.2285.1582-.3359a1.27 1.27 0 0 1-.3691-.0293c-.4045-.0934-.7571-.3799-.9551-.5391-.2631-.21153-.4171-.34309-.5645-.41894-.0089-.00455-.0175-.00847-.0244-.01172m2.9717-2.02051c-.1946.11238-.2549.18947-.2705.21485.0014.01858.0091.07386.0566.18945.0369.08971.0786.17287.1367.29785.052.11172.1177.25662.167.41114.09.28201.1502.67667-.0371 1.08105l-.0967.17283-.082.1143c.047-.0059.0943-.0113.1406-.0137l.1983.0039c.4437.04.7558.289.9551.5078.1091.12.2006.2498.2714.3506.0793.1129.1313.1898.1905.2666.0747.0969.1184.1321.1347.1436.0288-.0006.1251-.0128.3213-.126.0295-.0171.0473-.0335.0586-.043-.0004-.0028-.0014-.0064-.0019-.0097-.0232-.1429-.1241-.3383-.3037-.6495-.0731-.1265-.1725-.2972-.2413-.456-.0355-.0821-.0769-.19133-.0996-.31446-.0222-.12135-.0357-.30651.0362-.50782.0195-.05442.0425-.10501.0683-.15039-.0519-.00033-.1065-.0034-.1631-.01367-.2107-.03842-.365-.14363-.4589-.22363-.0953-.08118-.1694-.17138-.2227-.24317-.103-.13888-.2005-.31011-.2734-.43652-.1798-.3114-.2979-.49752-.4102-.58887-.0032-.00258-.0071-.00484-.0098-.00683-.0138.00512-.0358.01276-.0644.02929m-5.0674.70508c-.03825.05914-.07996.11465-.125.16407-.26672.29236-.66408.44546-.87304.52832-.2725.10804-.42905.16666-.54297.2373.01166.03474.0316.08355.06836.14746.08071.14006.21342.31291.41211.53711.19774.22313.43362.46743.71387.75973.09904.1034.20173.2129.30859.3262.09335-.3357.18366-.658.27638-.9463.1124-.34951.2408-.69221.4072-.98631.0337-.05949.0713-.11838.1104-.17676-.0862-.03888-.1748-.08213-.2578-.13086-.1505-.08841-.3514-.23327-.4981-.45996m8.8359-1.55859c-.2493.01333-.6952.18112-1.0039 1.10351-.0981.29326-.2093.56032-.3496.76368.2464-.01997.5346.01935.8379.08105.9534.19393 1.321-.10811 1.457-.31738.1759-.27081.1897-.70809-.0214-1.07422-.2115-.36596-.5975-.5735-.92-.55664M9.79785 5.58301c-.13479.16235-.29861.24289-.41211.28418-.11467.04169-.22535.06049-.30859.07031-.16025.01886-.34214.01758-.47071.01758-.2944 0-.46676.01025-.57226.04101-.00019.00546-.00188.01202-.00195.01856.00001.1451.01745.22414.02929.26172.021.00631.05848.01777.1211.02636.08311.01139.16196.01698.28711.02832.11012.00999.25638.02469.40429.05762.30325.06761.70302.23531.94238.67774.2393-.44217.6382-.61009.9414-.67774.1478-.03293.2942-.04762.4043-.05762.1251-.01134.2041-.01696.2871-.02832.0634-.00868.1012-.02003.1221-.02636.0118-.03762.0283-.11674.0283-.26172 0-.00653-.0008-.01311-.001-.01856-.1054-.03084-.2776-.041-.5722-.04101-.1287 0-.3113.00133-.4717-.01758-.0833-.00983-.194-.02863-.3086-.07031-.1135-.04134-.2775-.12205-.41212-.28418-.00631-.00769-.01158-.01672-.01758-.02442-.00617.00793-.01202.01652-.01855.02442M9.8164 2.2373c-.3435.00009-.64827.19244-.76757.43165-.08929.17938-.16544.58594.39746 1.23632.14318.16542.27311.3327.37011.49805.09707-.16542.2269-.33257.3701-.49805.5632-.65058.4858-1.05698.3965-1.23632-.1193-.23909-.4232-.4315-.7666-.43165"/>
</svg>
