<svg xmlns="http://www.w3.org/2000/svg" width="24" height="24" viewBox="0 0 24 24">
  <path fill="currentColor" d="M12 1.61328c1.5248.00006 2.8081 1.02833 3.1982 2.42871.5533-1.06451 1.6657-1.79185 2.9483-1.79199 1.8342 0 3.321 1.48715 3.3213 3.32129-.0001.63449-.1786 1.22727-.4873 1.73144.4795.57537.7693 1.31688.7695 2.125 0 1.15057-.5858 2.16377-1.4746 2.75977.1206.3442.1884.7142.1885 1.0986-.0005 1.834-1.4872 3.3213-3.3213 3.3213-.3846 0-.7535-.0688-1.0977-.1894a3.337 3.337 0 0 1-.9101.9111c.1206.3443.1864.7148.1865 1.0996C15.321 20.2628 13.8342 21.7499 12 21.75c-1.8342-.0001-3.32104-1.4872-3.32129-3.3213.00002-.2012.01846-.3985.05274-.5898-.19115.0342-.38788.0537-.58887.0537-1.83413-.0002-3.32109-1.4872-3.32129-3.3213.0001-.6756.20224-1.3047.54883-1.8291-1.74043-.1041-3.11987-1.547-3.12012-3.31349.00009-.80778.28951-1.54953.76855-2.125-.30894-.5043-.48723-1.09768-.4873-1.73242C2.53152 3.73719 4.0184 2.25008 5.85254 2.25c1.28271 0 2.39493.72744 2.94824 1.79199C9.1909 2.64152 10.4752 1.61334 12 1.61328M10.9551 16.9355c-.4699.3297-.7763.8767-.7764 1.4932.0003 1.0057.8156 1.8212 1.8213 1.8213 1.0057-.0001 1.821-.8156 1.8213-1.8213-.0001-.1984-.0334-.389-.0918-.5674-.1453.0194-.2938.0313-.4443.0313-.9083-.0002-1.7306-.3661-2.3301-.9571M8.14258 12.75c-1.00565.0001-1.82102.8157-1.82129 1.8213.0002 1.0057.81559 1.8211 1.82129 1.8213 1.00582 0 1.82109-.8155 1.82129-1.8213-.00028-1.0057-.81551-1.8213-1.82129-1.8213m5.14262 0c-1.0056.0003-1.8211.8158-1.8213 1.8213.0002 1.0056.8157 1.821 1.8213 1.8213 1.0058 0 1.821-.8155 1.8212-1.8213-.0002-1.0057-.8155-1.8213-1.8212-1.8213m3.2148-.6191c-.1954.1396-.4061.2593-.6299.3545.4606.57.7362 1.296.7363 2.0859 0 .151-.0117.2997-.0312.4453.1783.0586.3688.0908.5674.0908 1.0056 0 1.8208-.8157 1.8213-1.8213-.0001-.1983-.0327-.3891-.0909-.5673-.1453.0194-.2936.0302-.4443.0302-.7194 0-1.3851-.2298-1.9287-.6181M4.08301 8.38086c-.20938.2966-.33293.65762-.33301 1.04785.00026 1.00569.81556 1.82119 1.82129 1.82129.33934 0 .65576-.0941.92773-.2559-.24985-.4665-.3916-1.00014-.3916-1.56637a3.35 3.35 0 0 1 .0459-.55078c-.09912.0089-.19934.01563-.30078.01563-.65069-.00003-1.25713-.18837-1.76953-.51172m5.3457-.77441c-1.00559.00007-1.82082.81578-1.82129 1.82128 0 1.00587.81541 1.82117 1.82129 1.82127 1.00579-.0001 1.82129-.8154 1.82129-1.82127-.0005-1.00545-.8158-1.82114-1.82129-1.82128m5.14259 0c-1.0056.00007-1.8208.81578-1.8213 1.82128 0 1.00587.8154 1.82117 1.8213 1.82127 1.0059 0 1.8213-.8153 1.8213-1.82127-.0005-1.00554-.8157-1.82128-1.8213-1.82128m5.3447.77441c-.5124.32328-1.1189.51172-1.7695.51172-.1014-.00001-.2017-.00574-.3008-.01465.0298.1788.0468.36255.0469.5498 0 .56619-.1418 1.09997-.3916 1.56637.2721.1614.5886.2549.9277.2549 1.0058-.0001 1.8213-.8154 1.8213-1.82127-.0002-.39023-.1246-.75029-.334-1.04687M5.85254 3.75c-1.00572.00008-1.82102.81562-1.82129 1.82129.0002 1.00573.81553 1.82121 1.82129 1.82129 1.00582 0 1.82109-.81551 1.82129-1.82129C7.67356 4.56557 6.85832 3.75 5.85254 3.75m12.29396 0c-1.0056.0002-1.821.8157-1.8213 1.82129.0002 1.00566.8156 1.82109 1.8213 1.82129 1.0058 0 1.8211-.81551 1.8213-1.82129C19.9675 4.56557 19.1523 3.75 18.1465 3.75M12 3.11328c-1.0057.00008-1.821.81562-1.8213 1.82129 0 1.0059.8154 1.82121 1.8213 1.82129 1.0059-.00007 1.8213-.81539 1.8213-1.82129C13.821 3.9289 13.0057 3.11336 12 3.11328"/>
</svg>
