<svg xmlns="http://www.w3.org/2000/svg" width="24" height="24" viewBox="0 0 24 24">
  <path fill="currentColor" d="M18.1104 1.88281c.69.00041 1.25.5599 1.25 1.25v3.94922c0 .69011-.56 1.24959-1.25 1.25H15.75V10.085c0 .6902-.5598 1.2498-1.25 1.25h-.3682v9.0078c0 1.0588-.8582 1.9176-1.917 1.9179-1.059 0-1.9179-.8589-1.9179-1.9179V11.335h-.36819c-.69025-.0002-1.25-.5598-1.25-1.25V8.33203H6.31934c-.69036 0-1.25-.55964-1.25-1.25V3.13281c0-.69035.55964-1.25 1.25-1.25zM11.7969 20.3428c0 .2306.1873.4179.4179.4179.2304-.0003.417-.1875.417-.4179V11.335h-.8349zM10.1787 9.83496H14.25V8.33203h-4.0713zM6.56934 6.83203H17.8604V6.1416H6.56934zm0-2.19043H17.8604V3.38281H6.56934z"/>
</svg>
