<svg xmlns="http://www.w3.org/2000/svg" width="24" height="24" viewBox="0 0 24 24">
  <path fill="currentColor" d="M7.93945 13.5361c.29276-.2927.76763-.2924 1.06055 0l1.4648 1.4649c.2928.2929.2929.7677 0 1.0605-.2928.2926-.7677.2927-1.06051 0l-.18554-.1855-2.2959 2.2959.18554.1855c.29278.2929.29286.7677 0 1.0606-.29289.2923-.76782.2926-1.06054 0l-1.46387-1.4649c-.29276-.2928-.29258-.7676 0-1.0605.2929-.2926.76774-.2928 1.06055 0l.21777.2187 2.2959-2.2959-.21875-.2187c-.29238-.2928-.29246-.7678 0-1.0606m2.62405-3.4082c.4881-.48811 1.2804-.48811 1.7685 0l1.541 1.542c.4878.4882.4881 1.2796 0 1.7676l-1.081 1.0801c-.4882.4878-1.2795.4879-1.7676 0l-1.54101-1.541c-.48805-.4881-.48785-1.2794 0-1.7676zm.1572 1.9649 1.1875 1.1875.7275-.7266-1.1875-1.1885zm5.4805-6.8174c.2929-.29277.7677-.29282 1.0605 0l1.4649 1.46485c.2924.29289.2926.76778 0 1.06055-.2928.29246-.7678.29239-1.0606 0l-.1865-.18653-2.2949 2.2959.1855.18553c.2927.2928.2927.7677 0 1.0606-.2929.2925-.7677.2926-1.0605 0l-1.4649-1.4639c-.2926-.29271-.2923-.76762 0-1.06055.2929-.29288.7677-.29286 1.0606 0l.2177.21777 2.2959-2.2959-.2177-.21777c-.2928-.2928-.2926-.76764 0-1.06055m-5.0196-2.52539c.8664-.86627 2.2712-.86602 3.1377 0l.1201.12012c.2142.214.5622.21379.7764 0 .8-.79979 2.0974-.79965 2.8975 0l2.8711 2.87207c.7999.80005.8 2.09746 0 2.89746-.2134.21418-.2136.56136 0 .77539l.1933.19336c.9067.90689.9068 2.37739 0 3.28419l-8.6904 8.6914c-.9068.9064-2.3774.9065-3.28418 0l-.19336-.1934c-.21423-.2142-.5621-.2141-.77637 0-.80004.7995-2.09661.7988-2.89648-.0009l-2.87207-2.8711c-.79951-.7999-.79937-2.0965 0-2.8965.21414-.2142.21408-.5621 0-.7764l-.12012-.1201c-.8663-.8663-.86602-2.2712 0-3.1377zm2.0772 1.06153c-.2807-.28068-.7359-.2807-1.0166 0L3.40527 12.6485c-.28024.2807-.28052.736 0 1.0166l.12012.1201c.79986.8.79992 2.0974 0 2.8974-.21371.2143-.2131.5613.00097.7754l2.8711 2.8711c.21408.214.56113.2147.77539.001.80004-.8 2.09744-.8 2.89745 0l.1934.1934c.321.3206.842.3206 1.1631 0l8.6904-8.6915c.3209-.3209.3208-.841 0-1.1621l-.1934-.1933c-.7998-.79981-.7992-2.09738 0-2.89748.2142-.21422.2142-.56211 0-.77637l-2.8711-2.8711c-.2142-.21425-.5621-.21425-.7763 0-.8001.79921-2.0977.79963-2.8975 0z"/>
</svg>
