<svg xmlns="http://www.w3.org/2000/svg" width="24" height="24" viewBox="0 0 24 24">
  <path fill="currentColor" d="M18 1.8623c.4141 0 .7498.33599.75.75 0 2.1598-.4464 4.17845-1.2197 5.83887-.2191.51641-.5012 1.06268-.8584 1.58403-.6663.9722-1.6237 1.9075-2.9219 2.3877V19c0 .6376-.342 1.1941-.8516 1.5h5.0313c.4142 0 .75.3358.75.75s-.3358.75-.75.75H6.07031c-.41421 0-.75-.3358-.75-.75s.33579-.75.75-.75h5.03129c-.5097-.3059-.8516-.8624-.8516-1.5v-6.5371c-1.1993-.4465-2.12575-1.3516-2.80859-2.3486-.10888-.14924-.21541-.30198-.31641-.46C5.95123 7.81773 5.25 5.32561 5.25 2.6123c.00023-.41401.33593-.74999.75-.75zM12.1484 12.75c-.1352.0067-.268.0077-.3984.0039V19c0 .1381.1119.25.25.25s.25-.1119.25-.25v-6.25zM6.77148 3.3623c.02826.5312.08641 1.04747.1709 1.54493.00422.00514.00957.00937.01367.01465.53188.68401 1.18784.9302 1.98829.94628.8501.01697 1.81216-.22746 2.87986-.52539 1.015-.28319 2.1531-.62455 3.1826-.67089.6958-.03127 1.3947.07153 2.0147.42578.103-.55584.1751-1.13589.207-1.73536z"/>
</svg>
