<svg xmlns="http://www.w3.org/2000/svg" width="24" height="24" viewBox="0 0 24 24">
  <path fill="currentColor" d="M15.7012 2.68553c1.3298-.96551 3.1962-1.05742 4.3808.12695 1.1842 1.18459 1.0914 3.05009.126 4.37989.0016.00673.0044.0147.0068.01953.474.90513.3384 2.01345-.2343 2.877-.0001.0048.0011.012.0029.0195.0018.0074.0036.0143.0059.0185.5719 1.0924.2612 2.474-.6553 3.3907-.8987.8987-2.2853 1.2249-3.3653.6699-.0334.0365-.0662.075-.1015.1103-.9166.9164-2.2993 1.2261-3.3916.6543-.0049-.0025-.0127-.0061-.0196-.0078-.7167.5209-1.5649.7807-2.3867.7383-.81693.8213-2.31623 2.3194-3.7656 3.5693-.79698.6873-1.60834 1.3273-2.2998 1.7364-.34123.2018-.69884.3742-1.03516.4521-.31596.073-.80677.1017-1.18847-.2773l-.07129-.0782c-.3315-.3953-.29312-.8947-.21387-1.2128.08781-.3518.27394-.7172.4834-1.0586.42672-.6957 1.08804-1.5127 1.79297-2.3135.70212-.7976 1.48949-1.6254 2.18652-2.3438l1.25586-1.292c-.05297-.8343.20672-1.6993.73633-2.4277-.0016-.0062-.00537-.012-.00781-.0166-.57225-1.09241-.26127-2.47486.65527-3.3916.03525-.03524.07197-.06919.1084-.10254-.55453-1.07983-.22762-2.46671.6709-3.36523.91685-.91669 2.29915-1.22669 3.39155-.6543.0044.00211.0115.00417.0186.00586.0069.0015.014.00098.0186.00098.8635-.57261 1.9719-.70745 2.8769-.2334.0047.00239.0112.00524.0176.00684zM8.67284 13.5137l-.03906.039c-.75727.8052-2.40539 2.4142-3.79785 3.9961-.69328.7876-1.2816 1.5233-1.63574 2.1006-.01427.0233-.02692.0472-.04004.0693.04238-.0233.08818-.0476.13476-.0752.57735-.3415 1.30954-.912 2.08985-1.5849 1.55218-1.3387 3.17613-2.9818 3.91894-3.7285l6.4639-6.52445c-.1481-.31081-.3955-.59436-.7588-.68848zM19.0215 3.87303c-.5436-.54333-1.571-.61781-2.46.04199-.5011.37177-1.1339.3238-1.5752.09278-.344-.17999-.8729-.16632-1.3613.1621-.4919.33052-1.1039.29921-1.5527.06446-.4132-.21628-1.0986-.14938-1.6348.38672-.6546.65458-.60085 1.47923-.2256 1.85449.38.38113.315 1.04051-.1748 1.32226-.13226.07603-.26077.1729-.3789.29102-.536.53619-.60307 1.22166-.38672 1.63477.13213.25253.20228.56768.16992.88478l4.666-4.709c.2186-.22056.5467-.38456.9229-.3418 1.3181.15109 1.9622 1.24067 2.1933 1.92676.1702.50629-.0178.99631-.3047 1.28613l-4.6396 4.68261c.3195-.034.6372.0377.8916.1709.4131.2161 1.0997.1491 1.6357-.3867.1181-.1181.2141-.2477.2901-.3799.2644-.4596.8616-.5454 1.249-.2402l.1494.1328c.4022.3124 1.1648.3206 1.7783-.293.5358-.5359.6036-1.2206.3877-1.6338-.2352-.4489-.2663-1.06144.0645-1.55369.3282-.4883.341-1.01734.1611-1.36132-.2312-.4413-.278-1.07301.0938-1.57422.6598-.88888.5842-1.9173.041-2.46094"/>
</svg>
