<svg xmlns="http://www.w3.org/2000/svg" width="24" height="24" viewBox="0 0 24 24">
  <path fill="currentColor" d="M12.3877 7.75491c.6601-.06574 1.1559.36205 1.4648.73828.3316.404.6219.95277.8721 1.55371.5049 1.2126.9228 2.8158 1.1914 4.3955.268 1.5767.3974 3.1924.2949 4.4277-.0504.6069-.1618 1.1957-.3906 1.6495-.2386.4729-.6978.943-1.417.8877l-.1113-.0127c-.5498-.0835-.9737-.4544-1.2764-.8301-.3359-.4172-.6264-.9651-.875-1.5635-.4996-1.2029-.8909-2.7586-1.1338-4.29-.2425-1.5299-.3453-3.0921-.2363-4.3106.0539-.60222.1643-1.17654.3701-1.63084.2009-.44318.582-.94808 1.2471-1.01465m.1182 1.63379c-.1046.23108-.1945.6127-.2422 1.1455-.0942 1.0528-.0077 2.4824.2236 3.9414.2311 1.4575.5988 2.8904 1.0391 3.9502.2212.5325.4465.9355.6572 1.1973.1253.1555.2188.2275.2744.2607.0064-.0113.0146-.0245.0225-.04.0992-.1968.1904-.5578.2353-1.0987.088-1.0609-.0211-2.5388-.2783-4.0517-.2567-1.5096-.65-2.9951-1.0977-4.0703-.2258-.5423-.4482-.93831-.6455-1.17874-.0571-.06962-.1052-.11443-.1396-.14453-.0134.02308-.0319.05141-.0488.08887m1.5078-5.95411c.5772-.32688 1.203-.13627 1.6377.08301.4665.23552.9541.61979 1.4257 1.06836.9519.90534 1.9823 2.20434 2.8663 3.54102.882 1.33382 1.6532 2.75842 2.0586 3.92972.1991.5755.3345 1.1593.3085 1.667-.0272.529-.257 1.1449-.9375 1.3847l-.1064.0342c-.5367.1458-1.0742-.0237-1.5029-.2451-.4758-.2459-.9635-.6293-1.4326-1.0762-.943-.8985-1.9297-2.1631-2.7706-3.4658-.8399-1.30136-1.5644-2.68909-1.957-3.84766-.194-.57262-.326-1.14292-.3213-1.6416.0048-.48652.1501-1.10205.7315-1.43165m.7685 1.44629c-.0023.25364.0696.6388.2412 1.14551.3392 1.00114.9958 2.27438 1.7969 3.51563.8003 1.23988 1.715 2.40178 2.5459 3.19338.4177.3979.7873.6757 1.0859.8301.1773.0915.2912.119.3555.1269.0013-.0128.004-.0277.0049-.0449.0113-.22-.0511-.5878-.2285-1.1006-.3482-1.0061-1.0461-2.3137-1.8926-3.59375-.8446-1.2771-1.8046-2.47662-2.6484-3.2793-.4258-.40493-.7888-.67817-1.0664-.81836-.0804-.04057-.1419-.06254-.1856-.07617-.0029.02658-.0084.06025-.0088.10156m-3.5771-2.71289c.4843-.04757 1.1128.03048 1.5029.57325.3868.53875.2641 1.18208.0928 1.63769-.1841.48925-.5138 1.01494-.9092 1.53223-.7978 1.04371-1.97789 2.20686-3.21191 3.22949-1.23146 1.02045-2.56542 1.94075-3.68653 2.46975-.55069.2598-1.11664.4565-1.62402.4853-.52889.0298-1.16589-.1326-1.47754-.7832l-.04492-.1025c-.20269-.518-.09209-1.0705.08203-1.52052.19335-.49953.52206-1.02459.91602-1.53907.79203-1.0343 1.94341-2.15176 3.14844-3.12792 1.20354-.97491 2.50464-1.84464 3.61425-2.35938.54848-.25443 1.10128-.44623 1.59768-.49512m.1465 1.49219c-.2524.02492-.6272.1383-1.1123.36328-.95897.44481-2.1547 1.23405-3.30278 2.16406-1.14674.92895-2.2026 1.96381-2.90039 2.875-.35075.45805-.5876.85448-.70898 1.16798-.07213.1864-.08696.3033-.08789.3682.01277-.0001.02789.0009.04492 0 .22004-.0125.57857-.1142 1.06934-.3457.96292-.4544 2.18832-1.28829 3.37011-2.26762 1.17914-.97721 2.26827-2.06096 2.97557-2.98633.3569-.46693.5888-.85736.6983-1.14844.0316-.08427.0468-.14757.0556-.19238-.0266-.00002-.0606-.00205-.1015.00195"/>
</svg>
