<svg xmlns="http://www.w3.org/2000/svg" width="24" height="24" viewBox="0 0 24 24">
  <path fill="currentColor" d="M7.05664 20.8965h-1v-1.0342h1zm7.40136-.5166h-1v-1.0342h1zM6 17.8584H5v-1.0342h1zm12.5225 0h-1v-1.0342h1zm-9.66312-1.0342h-1V15.79h1zm5.59862-.3926h-1v-1.0341h1zm-3.2402-1.0332h-1v-1.0341h1zm-2.04592-.5175h-1v-1.0342h1zm-.23633-1.4873h-1v-1.0342h1zm7.96875-.8204h-1v-1.0341h1zM15.4512 11h-1V9.96582h1zm-4.0694-1.46484h-1V8.50098h1zM13 5.7998h-1V4.76562h1zm-2.6875-.80371h-1V3.96191h1zM17.1465 2.25c1.4395 0 2.6241 1.08548 2.7832 2.48242l.0156-.00097L21.709 20.5859c.0553.4973-.2024 1.0488-.7656 1.2481-.8729.3084-3.3019.916-8.9434.916s-8.07044-.6076-8.94336-.916c-.56319-.1993-.8209-.7508-.76562-1.2481L4.05469 4.73145l.01367.00097C4.22737 3.3358 5.41255 2.25059 6.85156 2.25zm1.583 5.11523a2.787 2.787 0 0 1-1.0498.43848h.8428v1.03418h-1V7.82715c-.1229.01647-.2486.02832-.376.02832H6.85156c-.58667-.00024-1.13097-.18186-1.58105-.49024l-.44043 3.96097h.86426v1.0342h-.97852L3.81055 20.5c.8934.2654 3.20888.75 8.18945.75 4.9822 0 7.2977-.4847 8.1904-.75zM6.85156 3.75c-.71894.00063-1.30273.58365-1.30273 1.30273 0 .71909.58379 1.3021 1.30273 1.30274H17.1465c.7195 0 1.3027-.58326 1.3027-1.30274S17.866 3.75 17.1465 3.75z"/>
</svg>
