<svg xmlns="http://www.w3.org/2000/svg" width="24" height="24" viewBox="0 0 24 24">
  <path fill="currentColor" d="M12.7646 10.3301c1.1992.1854 1.8346 1.265 2.1446 2.3125.3249 1.0985.3958 2.4655.2666 3.7763-.1291 1.309-.4652 2.6417-1.0166 3.6641-.5347.9909-1.4129 1.9201-2.6748 1.8633-1.314-.0595-1.98673-1.17-2.29202-2.2383-.31895-1.1164-.35731-2.5275-.19922-3.8731.15819-1.3458.52288-2.7138 1.07914-3.7412.5226-.9651 1.4166-1.9604 2.6923-1.7636m-.2656 1.4726c-.228-.0351-.6284.1024-1.0986.9707-.4364.8061-.764 1.9733-.9082 3.2002-.1443 1.2279-.0953 2.4306.1533 3.3008.2624.9179.6384 1.1689.9414 1.1826.3549.0159.7992-.2289 1.2432-1.0517.4267-.7914.727-1.9138.8437-3.0977.1166-1.1828.0429-2.3498-.2138-3.2178-.2718-.9183-.6567-1.24-.961-1.2871M7.74414 3.63475c.55772-.14425 1.16171-.11838 1.70117.21387 1.04409.64356 1.14789 1.90226.97949 2.97363-.1784 1.13488-.70445 2.42086-1.38965 3.58005-.68476 1.1583-1.56761 2.2573-2.50976 2.9873-.90366.7001-2.10879 1.2338-3.25781.6924-1.20951-.5701-1.33132-1.8764-1.1504-2.9619.19157-1.1485.76635-2.46298 1.49317-3.64355.72748-1.18152 1.65249-2.30203 2.60156-3.03516.47305-.36537.99315-.66709 1.53223-.80664m.85644 1.44434c-.09935-.06108-.2346-.09376-.46875-.03321-.25331.06564-.57989.23288-.95996.52637-.75809.58562-1.57042 1.54914-2.23828 2.63379-.66825 1.08548-1.1477 2.22196-1.29883 3.12796-.16157.9691.08584 1.3218.32715 1.4355.30219.1422.81885.0948 1.60059-.5107.7433-.5759 1.51166-1.5078 2.13574-2.5635.62344-1.05474 1.06446-2.16773 1.20703-3.07422.15244-.97013-.07048-1.39764-.30469-1.54199m3.02152-2.28418c.7852-.91065 2.0945-.89447 3.1855-.63672 1.1521.27229 2.4179.88403 3.5332 1.63183 1.1143.74719 2.1446 1.67481 2.7871 2.625.6181.91422 1.0228 2.09253.3282 3.11328-.7292 1.0705-2.0881 1.067-3.1934.7959-1.1649-.2858-2.4546-.94481-3.5869-1.7334-1.133-.78911-2.1803-1.75812-2.8252-2.71484-.5997-.88976-1.061-2.11509-.2285-3.08105m2.8144.78125c-.9754-.23045-1.4448-.06513-1.625.14355-.1322.15361-.2213.5451.334 1.36914.5108.75762 1.4028 1.60222 2.4395 2.32422 1.0375.72259 2.1498 1.27315 3.0625 1.49707.972.23837 1.3681.04367 1.5175-.17578.183-.26964.1941-.75121-.332-1.5293-.5023-.74272-1.368-1.54319-2.3799-2.22168-1.0107-.67762-2.1023-1.19106-3.0166-1.40722"/>
</svg>
