<svg xmlns="http://www.w3.org/2000/svg" width="24" height="24" viewBox="0 0 24 24">
  <path fill="currentColor" d="M17.6826 2.00391c.2693-.3151.7364-.34722 1.044-.07129.5735.51479.6409 1.25794.5273 1.91504-.1138.65718-.4289 1.39574-.8516 2.16113-.6957 1.25971-1.7677 2.73454-3.038 4.28221.0786-.0658.171-.1177.2754-.1465l5.5605-1.52829c.3947-.10804.8004.13237.9062.53711.1058.40496-.1287.82092-.5234.92968l-5.5605 1.5293c-.3946.1079-.8004-.1325-.9063-.5371a.7742.7742 0 0 1 .0693-.5674c-.2298.2772-.4639.5584-.705.8389-.6632.7714-1.3714 1.5568-2.1035 2.3418l5.2978-1.4561c.3947-.1083.8012.1314.9072.5362.1058.405-.1296.8219-.5244.9306l-5.5596 1.5283c-.3948.1083-.8003-.1322-.9062-.5371-.0127-.0485-.0212-.0971-.0244-.1455-.83.8674-1.68308 1.7262-2.53419 2.5537l4.99809-1.373c.3947-.1082.8003.1322.9062.5371.1056.4049-.1287.821-.5234.9297l-5.5596 1.5283c-.39481.1083-.80135-.1322-.90723-.5371-.0032-.0123-.00524-.0248-.00781-.0371-1.56502 1.4761-3.08623 2.8145-4.40625 3.873-.32211.2583-.78719.1995-1.03907-.1308-.25149-.3304-.19484-.8072.12696-1.0655 1.25825-1.0089 2.70901-2.2848 4.20703-3.6933-.29918-.1616-.46113-.5181-.37012-.8672l1.49024-5.7031c.10599-.4049.51145-.64554.90625-.5371.39465.1087.62915.5257.52343.9306L8.0752 15.9375c.78156-.7612 1.5639-1.5497 2.3281-2.3457-.2537-.1765-.3853-.5015-.3017-.8223l1.4902-5.70309c.1058-.40493.5114-.64536.9062-.53711.3946.10872.6299.52488.5245.92968l-1.211 4.63282c.5386-.5877 1.0622-1.1725 1.5586-1.75.1412-.1642.2786-.3291.4151-.49121-.157-.18419-.2244-.44228-.1582-.69629l1.4902-5.70313c.1059-.40508.5113-.64566.9062-.53711.3946.1088.6291.52481.5235.92969l-.9873 3.77539c.6359-.85832 1.1649-1.65449 1.5537-2.3584.3913-.70855.6121-1.27144.6826-1.67871.07-.40481-.0278-.49237-.0439-.50683-.3077-.27617-.3386-.75563-.0694-1.07129"/>
</svg>
