<svg xmlns="http://www.w3.org/2000/svg" width="24" height="24" viewBox="0 0 24 24">
  <path fill="currentColor" d="M14 1.25c.9665 0 1.75.7835 1.75 1.75 0 .69772-.4093 1.29804-1 1.5791V6.75l1.8213.8418c1.328.6129 2.1786 1.94173 2.1787 3.4043V19c0 2.0711-1.6789 3.75-3.75 3.75H9c-2.07107 0-3.75-1.6789-3.75-3.75v-8.0039c.00013-1.46257.85075-2.7914 2.17871-3.4043L9.25 6.75V4.5791c-.59072-.28106-1-.88138-1-1.5791 0-.9665.7835-1.75 1.75-1.75zm1.1904 10.5742c-.8397.0279-1.8001.2374-2.8759.459-1.0379.2138-2.1783.4367-3.24614.4209-.79677-.0119-1.59952-.1588-2.31836-.5664V19c0 1.2426 1.00736 2.25 2.25 2.25h6c1.2426 0 2.25-1.0074 2.25-2.25v-6.5078c-.1077-.0341-.2103-.0898-.2969-.1738-.3741-.3639-.9316-.5217-1.7627-.4942M10.75 7.23047c0 .29254-.1699.55905-.4355.68164L8.05664 8.95312c-.60036.27718-1.03859.7984-1.21777 1.41408.07232.0335.14215.0768.20312.1348.51129.4853 1.1862.6893 2.04883.7021.8791.013 1.86358-.1727 2.92188-.3906 1.0202-.2101 2.1296-.4551 3.1279-.4883.7091-.0235 1.4395.0566 2.0889.3769-.0999-.75818-.5796-1.42279-1.2861-1.74898l-2.2579-1.04101c-.2656-.12259-.4355-.3891-.4355-.68164V4.75h-2.5zM10 2.75c-.13807 0-.25.11193-.25.25s.11193.25.25.25h4c.1381 0 .25-.11193.25-.25s-.1119-.25-.25-.25z"/>
</svg>
