<svg xmlns="http://www.w3.org/2000/svg" width="24" height="24" viewBox="0 0 24 24">
  <path fill="currentColor" d="M10.0254 3.33204c1.5697-.43598 3.2807-.26143 4.8613.37305l.0039-.00293.1309-.11621c.3312-.25295.7069-.25184.9941-.17872.2756.07027.5339.2186.7539.37598.4454.31868.9167.80397 1.3496 1.32129.8641 1.03251 1.729 2.37877 2.0948 3.28613.2539.63007.4029 1.19653.414 1.85937h.7813c.2062 0 .4033.0855.5449.2354.1415.1499.2158.3518.2041.5576-.0849 1.4894-.2406 3.8485-.9824 5.8437-.3734 1.0041-.9138 1.9691-1.7149 2.6875-.7665.6873-1.7405 1.1196-2.9414 1.1709l-.2431.0049H7.72363l-.24316-.0049c-1.20087-.0513-2.17491-.4836-2.94141-1.1709-.80097-.7183-1.34145-1.6835-1.71484-2.6875-.74181-1.9952-.89748-4.3543-.98242-5.8437-.01165-.2058.06257-.4077.2041-.5576.14164-.1499.3387-.2354.54492-.2354h1.0625c.02853-.85104.11982-1.79573.27344-2.59765.09805-.51166.2287-1.0092.4043-1.39453.08703-.19083.20398-.39489.36328-.56055.1412-.1467.35761-.30354.64746-.33886l.1289-.00782.18555.01368c.36528.04982.67509.23566.91895.43164.90684-1.28437 2.11242-2.09216 3.4502-2.46387M3.39063 11.75c.09999 1.4121.29506 3.1479.83984 4.6133.3237.8704.75286 1.5936 1.31055 2.0937.54143.4855 1.23785.793 2.18261.793h8.55277c.9449 0 1.6411-.3075 2.1826-.793.5578-.5002.9868-1.2232 1.3105-2.0937.5448-1.4655.7399-3.2012.8399-4.6133zm2.28222-4.78808c-.10016.22904-.20182.58114-.28808 1.03125-.13133.68555-.21434 1.50637-.24414 2.25683h4.59863c-.04321-.2765-.06349-.53653-.05859-.77734.00922-.44883.10323-.89223.33693-1.23828.2269-.33587.575-.4767.873-.53808.0022-.1785.0015-.33628-.0078-.47071-.2028.09598-.4526.23816-.7275.42481-.6525.443-1.36261 1.06148-1.84768 1.64062-.1575.18801-.40073.28068-.64649.24707-.24557-.03373-.46378-.18863-.58105-.41406-.17092-.32897-.45762-.93644-.8252-1.48242-.18279-.27147-.36187-.48944-.52246-.63184-.02099-.01857-.04165-.03373-.05957-.04785M15.8398 5.06934c-.0721.25859-.1335.61851-.1787 1.05762-.0898.87388-.1057 1.96945-.0566 2.99903.0117.24809-.094.48558-.2832.63574-.1894.15006-.4395.19564-.669.12011-.8117-.26761-1.7276-.52607-2.4746-.64453-.3772-.0598-.6732-.07805-.8759-.05957-.0423.00386-.075.00994-.0997.01465-.0193.06253-.0434.16796-.0468.33106-.0039.19014.0188.43301.081.72655h7.917c-.0084-.43449-.1065-.80887-.2988-1.28612-.2835-.70335-1.0429-1.90986-1.8457-2.86915-.4002-.47814-.7742-.84974-1.0674-1.05957-.0264-.01884-.0527-.03334-.0752-.04785-.008.02521-.0181.05229-.0264.08203m-1.5224.02344c-1.3085-.5112-2.6681-.62567-3.8692-.29199-1.11009.30852-2.12001 1.00784-2.86031 2.20117.10892.17232.21305.34601.30664.5127.44796-.42255.94226-.81712 1.40723-1.13282.37032-.25141.74564-.46892 1.08304-.61035.1675-.0702.3473-.13114.5263-.16211.144-.02483.3533-.04228.5743.02344l.0957.0332c.3311.13535.5044.41067.5898.59961.0878.1945.1343.406.1611.59375.0371.2595.0478.55824.0459.86914l.0059.00098c.5432.08616 1.1427.23394 1.7226.39941-.0051-.76031.0208-1.51904.0889-2.18164.0308-.2991.0713-.58828.1221-.85449"/>
</svg>
