<svg xmlns="http://www.w3.org/2000/svg" width="24" height="24" viewBox="0 0 24 24">
  <path fill="currentColor" d="m17.4785 19.2237.0977.4902c-.1726.0341-.3515.0517-.5332.0517-.1816 0-.3598-.0176-.5323-.0517l.1934-.9815c.109.0216.2226.0332.3389.0332.1162 0 .2298-.0116.3388-.0332zm-1.876-1.2286c.1266.189.2896.353.4786.4795l-.5567.8301a2.747 2.747 0 0 1-.7529-.7529l.415-.2783zm3.712.5567c-.1993.2974-.4556.5538-.753.7529l-.5566-.8301c.1889-.1265.3529-.2906.4795-.4795zm-3.9707-1.8574a1.75 1.75 0 0 0-.0333.3388c.0001.1161.0117.23.0333.3389l-.4903.0967-.4912.0976c-.0341-.1724-.0517-.3516-.0518-.5332 0-.1814.0178-.3599.0518-.5322zm4.3798-.1934c.0341.1723.0518.3508.0518.5322-.0001.1816-.0176.3608-.0518.5332l-.4902-.0976-.4912-.0967a1.76 1.76 0 0 0 .0332-.3389c0-.1161-.0117-.2299-.0332-.3388zm-3.9209-1.3242.2784.416c-.189.1266-.352.2895-.4786.4785l-.416-.2783-.415-.2783c.1992-.2975.4555-.5537.7529-.753zm2.7588-.4151c.2975.1993.5537.4554.753.753l-.8301.5566c-.1266-.1891-.2905-.3519-.4795-.4785l.2783-.416zm-1.5185-.4609c.1818 0 .3605.0176.5332.0518l-.0977.4912-.0967.4902a1.744 1.744 0 0 0-.3388-.0332c-.1163 0-.2298.0116-.3389.0332l-.1934-.9814c.1725-.0341.3507-.0518.5323-.0518m.6211-12.30956c.2572-.0667.5308.00737.7187.19531l3.7813 3.78027c.1878.18819.2614.46239.1943.71973-.0673.25727-.2656.46093-.5215.5332l-2.749.77344c.7932 1.36531.653 3.12251-.4209 4.34861 1.9796.6756 3.4042 2.5505 3.4043 4.7588-.0004 2.7762-2.2512 5.0268-5.0274 5.0274-2.2266-.0001-4.1153-1.4479-4.7763-3.4532-1.2659.8933-2.95995.912-4.24221.0528l-.74805 3.0322c-.06489.2626-.26674.4703-.52734.543-.26037.0723-.54024-.0005-.73145-.1914l-3.78027-3.7803c-.19129-.1913-.2649-.4718-.19238-.7324.07269-.2605.28141-.4615.54394-.5264l3.03223-.749c-.97613-1.4574-.82139-3.448.46582-4.7354l5.73531-5.73436c1.227-1.22694 3.0922-1.42568 4.5264-.59668l.7813-2.74512c.0727-.2555.2761-.45354.5332-.5205m-.6202 11.58106c-1.9482.0001-3.5282 1.5801-3.5283 3.5283.0004 1.948 1.5803 3.5273 3.5283 3.5274 1.9477-.0006 3.527-1.5797 3.5274-3.5274-.0001-1.948-1.5795-3.5278-3.5274-3.5283M4.23828 18.21l1.90039 1.9004.5918-2.3946-.09668-.0966zm6.56932-.7383c0 .1048-.0227.2044-.0615.2949.3492-.1027.6795-.2909.9551-.5664l.3193-.3203c.0292-.6752.1919-1.3159.4619-1.8965h-1.6748zm-4.18944-2.4883c.10812.3091.28331.6006.53028.8477l1.37011 1.3691c.24426.2443.53175.4189.83692.5274-.02912-.08-.04782-.1658-.04785-.2559v-2.4883zm.53028-2.3349c-.24366.2437-.41792.5305-.52637.8349h2.68555v-2.6123h-.21387a.752.752 0 0 1-.15332-.0156zm3.65916.8349h2.6123v-2.6123h-2.6123zm6.9385-2.6123h-2.8262v1.6709c.5824-.2718 1.2255-.4356 1.9033-.4648l.6123-.6114c.1813-.1812.3223-.3874.4288-.6054-.0386.0061-.078.0107-.1182.0107m-2.874-4.58006c.0288.07957.0478.16445.0478.25391v2.82617h2.8262c.109.00003.2122.02456.3057.0664-.0834-.42263-.2888-.8258-.6163-1.15332l-1.3701-1.37011c-.3377-.33767-.7562-.54496-1.1933-.62305m-1.4512.22461c-.1932.10243-.3744.23576-.5371.39844l-2.0762 2.07519v.38184h2.6123V6.54495c0-.00973.0006-.01966.001-.0293m4.2471-.41113.4668.59961 2.0634-.58106-1.9736-1.97363z"/>
</svg>
