<svg xmlns="http://www.w3.org/2000/svg" width="24" height="24" viewBox="0 0 24 24">
  <path fill="currentColor" d="M13.8701 9.24902c.2901-.22168.614-.215.8408-.15722.2152.05489.4047.16693.5508.27148.2976.21292.5991.52574.8653.84372.5307.6342 1.0717 1.4704 1.3076 2.0557.1699.4217.2687.8116.2695 1.2744.1612.0262.3111.1043.4248.2246.1415.1499.2157.3519.2041.5576-.0507.8893-.1454 2.3486-.6084 3.5938-.2339.6289-.5802 1.2559-1.1094 1.7305-.4775.4281-1.0756.7058-1.7949.7685l-.3154.0137H9.375l-.31641-.0137c-.71899-.0628-1.31754-.3405-1.79492-.7685-.52901-.4746-.87548-1.1016-1.10937-1.7305-.463-1.2452-.55671-2.7045-.60742-3.5938-.01161-.2058.06156-.4077.20312-.5576.12054-.1276.28162-.2074.4541-.2285.00558-.5931.06542-1.303.17969-1.8945.0613-.3172.1456-.6434.26562-.9073.0593-.1303.14543-.2868.27247-.4199.11288-.1181.29921-.2585.55664-.291l.11523-.0068.14844.0097c.33467.0449.59904.2293.77343.3848.20854.186.38399.4154.52051.6201.02603.0391.04926.0804.07422.1201.20226-.1739.4099-.3358.60938-.4726.23027-.158.47117-.3007.69627-.3965.1119-.0476.2422-.0921.3779-.1162.1212-.0215.3342-.0431.5616.0498.301.1232.4506.3715.5175.5215.0694.1555.1016.3157.1192.4424.0195.1404.0266.2944.0283.4511.1622.0067.3273.0248.4854.0498.2235.0355.4607.0887.6982.1485.0064-.3319.0234-.6561.0537-.9512.0307-.2986.0778-.5917.1475-.8418.0349-.12512.0806-.25915.1435-.38379.0444-.08791.1111-.19917.21-.30175zM7.09961 15.0273c.06607.766.18776 1.6276.46094 2.3623.18425.4955.41917.8814.70507 1.1377.26952.2416.61651.3985 1.10938.3985h5.1299c.4929-.0001.8398-.1568 1.1094-.3985.2859-.2564.5208-.6421.705-1.1377.2732-.7347.3939-1.5963.46-2.3623zm.73535-3.0517c-.09078.4699-.14109 1.0559-.14941 1.5517h2.90035c-.0275-.1789-.0404-.3507-.0371-.5127.0044-.2088.0368-.4304.1162-.6376a.791.791 0 0 1-.1289-.4073c-.3646.2544-.75675.5981-1.02048.9151-.15753.1893-.39869.2839-.64355.2509-.24464-.0329-.461-.1881-.57715-.414-.10298-.2005-.25222-.5177-.44336-.8135-.00459.0221-.01207.0441-.0166.0674m4.19044 1.1777c.0056.0965.0261.2207.0644.374h1.542c-.4518-.1452-.9379-.2793-1.332-.3418-.1076-.017-.1991-.0272-.2744-.0322m2.6992-2.0986c-.0519.5048-.0621 1.1457-.0332 1.7519.0118.2483-.0938.4856-.2832.6358-.043.0341-.0895.0619-.1377.0849h1.9609c.0005-.2303-.0478-.4233-.1562-.6923-.1536-.3811-.5883-1.077-1.0576-1.6377a5.58 5.58 0 0 0-.2715-.3018c-.0065.0503-.0157.1031-.0215.1592M14 1.25c.9665 0 1.75.7835 1.75 1.75 0 .69772-.4093 1.29804-1 1.5791v2.09668l3.3525 1.03223C19.676 8.19215 20.75 9.6467 20.75 11.293V19c0 2.0711-1.6789 3.75-3.75 3.75H7c-2.07107 0-3.75-1.6789-3.75-3.75v-7.707c0-1.6463 1.07399-3.10085 2.64746-3.58499L9.25 6.67578V4.5791c-.59072-.28106-1-.88138-1-1.5791 0-.9665.7835-1.75 1.75-1.75zm-3.25 5.98047c0 .32918-.2147.6199-.5293.7168L6.33789 9.14258C5.39408 9.43322 4.75 10.3054 4.75 11.293V19c0 1.2426 1.00736 2.25 2.25 2.25h10c1.2426 0 2.25-1.0074 2.25-2.25v-7.707c0-.9876-.6441-1.85978-1.5879-2.15042l-3.8828-1.19531c-.3146-.0969-.5293-.38762-.5293-.7168V4.75h-2.5zM10 2.75c-.13807 0-.25.11193-.25.25s.11193.25.25.25h4c.1381 0 .25-.11193.25-.25s-.1119-.25-.25-.25z"/>
</svg>
