<svg xmlns="http://www.w3.org/2000/svg" width="24" height="24" viewBox="0 0 24 24">
  <path fill="currentColor" d="M12.2988 1.91211c3.3421.00018 6.8921 2.03982 7.9004 5.11621.6012 1.83522.8013 5.52078.1338 8.74418-.3354 1.6195-.9053 3.1997-1.8154 4.3916-.9284 1.2157-2.227 2.0389-3.9375 2.039-.3798-.0004-.6994-.285-.7442-.6621l-.0009-.001s.0003-.0038 0-.0068c-.0008-.0061-.0022-.0163-.0039-.0293-.0036-.027-.0098-.0692-.0176-.1221-.0157-.1063-.0404-.2608-.0752-.4463-.0703-.3742-.1804-.866-.3399-1.3525-.1624-.4954-.3618-.9408-.5908-1.251-.2118-.2866-.3831-.3721-.5078-.3886-.1248.016-.297.1006-.5098.3886-.229.3103-.4283.7554-.5908 1.251-.1594.4866-.2696.9783-.3398 1.3525-.0349.1856-.0595.34-.0752.4463-.0078.053-.0131.0951-.0166.1221-.0017.0131-.0032.0232-.0039.0293a.3.3 0 0 1-.001.0068c-.0444.3776-.365.6629-.7451.6631-1.7104-.0002-3.00916-.8234-3.93752-2.039-.90988-1.1918-1.47905-2.7724-1.81446-4.3916-.66748-3.2235-.46838-6.90902.13282-8.74418 1.00814-3.07647 4.55829-5.11593 7.90036-5.11621M6.9707 18.8145c.09623.154.19645.3015.30176.4394.56826.744 1.25878 1.2336 2.11524 1.3926.05423-.2875.13213-.6444.23632-1.0254-.96644-.2113-1.86504-.4979-2.65332-.8066m10.4902.2529c-.7978.3536-1.617.5935-2.4375.7383.0798.3111.1422.6003.1875.8408.8564-.1591 1.5471-.6485 2.1153-1.3926.046-.0603.0905-.1231.1347-.1865m1.5664-4.5332c-2.0102 1.1233-4.0686 1.5674-6.0107 1.6015v.3672c0 .0317-.003.0632-.0068.0938.4262.1859.7584.5111 1.0048.8447.2064.2795.3784.5983.5225.9229 1.3996-.2141 2.7729-.7241 4.0059-1.668.0034-.0027.0072-.0053.0107-.0078.1183-.3904.2231-.7987.3106-1.2207.0637-.3078.1161-.6203.163-.9336m-13.47847-.1426c.05122.3613.11214.7217.18554 1.0762.09239.446.20515.8767.33204 1.2871.96903.5187 2.41689 1.1028 4.07229 1.4424.1275-.2661.2743-.5244.4453-.7559.2342-.3171.546-.6268.9424-.8164a.756.756 0 0 1-.0098-.1221v-.4189c-2.35134-.2045-4.45056-.946-5.96777-1.6924M19 8.95996c-2.5242-2.05458-5.2979-2.50985-7.7695-2.2373-2.37947.26258-4.45585 1.20014-5.6846 2.00879-.16628 1.05887-.24244 2.42865-.16797 3.87015 1.39118.8103 3.60981 1.7337 6.13867 1.9736v-.7969c0-.0383.0032-.0764.0088-.1133-1.3142-.3964-2.17357-1.7794-2.17384-3.2363.00003-1.72662 1.20664-3.34917 2.94724-3.3496 1.7408.00027 2.9473 1.6229 2.9473 3.3496-.0003 1.4804-.8873 2.8826-2.2373 3.2529.004.0316.0078.0641.0078.0967v.8535c2.0202-.0429 4.1649-.5812 6.2012-1.9804.0717-1.3291.0164-2.5998-.1211-3.62503A.765.765 0 0 1 19 8.95996m-6.7012-.38086c-.686.00047-1.4472.70539-1.4472 1.8496.0003 1.1439.7613 1.8492 1.4472 1.8496.686-.0003 1.447-.7056 1.4473-1.8496 0-1.14435-.7612-1.8493-1.4473-1.8496m0-5.16699C9.79596 3.41236 7.30605 4.7627 6.20996 6.6416c1.32412-.63841 3.00643-1.20506 4.85644-1.40918 2.3144-.25519 4.9106.05662 7.3818 1.51758-1.0627-1.93464-3.599-3.33773-6.1494-3.33789"/>
</svg>
