<svg xmlns="http://www.w3.org/2000/svg" width="24" height="24" viewBox="0 0 24 24">
  <path fill="currentColor" d="M12 13.7139h-1v-.9825h1zm1.9443-.3965h-1v-.9824h1zm-1.8769-4.9297c.7562.00018 1.4427.46545 1.957.95605.5416.5167 1.0312 1.19305 1.4004 1.87405.3649.673.6465 1.4152.7148 2.0703.0341.3267.0216.6909-.1123 1.0264-.1448.3626-.4235.6645-.8359.8105-1.6859.5963-3.7425.6968-6.05761.0127-.42152-.1246-.77049-.3673-1.00098-.7256-.22309-.347-.29451-.739-.28808-1.1035.01261-.7092.31815-1.4802.70801-2.1494.39863-.6842.93706-1.34927 1.51566-1.85256.5496-.47803 1.2608-.91894 1.999-.91894m0 1.5c-.1788 0-.5311.1362-.9942.5342h.5997v.9824h-1v-.5967c-.3061.3278-.5932.7116-.82329 1.1065-.33235.5704-.49881 1.0798-.50488 1.4209-.00285.1605.03079.236.0498.2656.01174.0182.0431.0616.16504.0976 2.01213.5946 3.72453.4964 5.08003.0293.0104-.046.0243-.1357.0088-.2841-.0402-.3855-.2278-.9313-.542-1.5108-.3097-.5712-.7096-1.114-1.1171-1.5029-.4347-.4146-.7587-.54177-.9219-.542M12.5 1.25c.6045.00017 1.1088.42962 1.2246 1h4.6621c.6608.00039 1.2073.51513 1.2471 1.1748l1.083 18c.0432.7185-.5284 1.325-1.248 1.3252H4.53125c-.7197-.0002-1.29125-.6067-1.24805-1.3252l1.08301-18 .0127-.12207c.09527-.60004.61491-1.05236 1.23437-1.05273h4.66212c.1158-.57041.62-.99983 1.2246-1zm-7.7041 20h14.4082l-1.0527-17.5H13.75v.75c0 .69024-.5598 1.24981-1.25 1.25h-1c-.6902-.00019-1.25-.55976-1.25-1.25v-.75H5.84863zm6.9541-17h.5v-.5h-.5z"/>
</svg>
