<svg xmlns="http://www.w3.org/2000/svg" width="24" height="24" viewBox="0 0 24 24">
  <path fill="currentColor" d="M16.5713 1.79295c.2188-.15235.5022-.1766.7441-.06445l1.4014.65039.7412-.38965.0684-.03125c.1629-.06577.3451-.07352.5136-.01856.1927.06298.3524.20269.4414.38477l.4454.90918 1.1503-.09473c.3056-.02486.5958.13865.7325.41309.1365.27477.0912.60527-.1133.83398l-1.5166 1.69434c.3613.5836.5702 1.27084.5703 2.00781 0 7.33853-6.4715 12.66193-13.63867 12.66213-1.35355-.0001-2.54759-.6941-3.23731-1.7461l-2.01855.4629c-.28827.0658-.58875-.0441-.7666-.2803-.17784-.2365-.20015-.5566-.05664-.8154l.44042-.793-.66699-.7266c-.14669-.16-.21594-.376-.1914-.5918.0216-.1887.11321-.3618.25586-.4843l.06445-.0498.53223-.3643-.10645-1.2998c-.0225-.2756.10853-.5414.34082-.6914.23239-.1498.52872-.1605.77051-.0264l1.78027.9883c.70722-.7739 1.72781-1.2587 2.85938-1.2588 3.61697-.0001 5.91597-2.5635 5.91597-4.98533.0002-1.60646.9917-2.97741 2.3946-3.55078l-.169-2.06738c-.0217-.266.0995-.52407.3184-.67676m1.3174 3.95703c-1.309.00018-2.3612 1.052-2.3614 2.33789 0 3.37223-3.0981 6.48523-7.41597 6.48533C6.80215 14.5733 5.75 15.626 5.75 16.9121c.00019 1.286 1.05227 2.3378 2.36133 2.3379C14.6092 19.2498 20.25 14.4473 20.25 8.08787c-.0002-1.28596-1.0523-2.33782-2.3613-2.33789M3.99707 15.6738c.02172.268-.10246.5267-.32422.6787l-.17773.1211.44824.4883c.16984.1852.23018.4384.17578.6748l.19238-.0439c-.03976-.2209-.0615-.4483-.06152-.6807 0-.4551.07969-.8913.22558-1.2959l-.50683-.2803zM17.9033 4.24998c.8388.0031 1.6151.27369 2.2481.72949l.1982-.2207c-.2333-.04035-.4395-.18696-.5469-.40625l-.33-.67578-.3848.20312c-.2069.10868-.4541.11494-.666.0166l-.5694-.26562z"/>
</svg>
