<svg xmlns="http://www.w3.org/2000/svg" width="24" height="24" viewBox="0 0 24 24">
  <path fill="currentColor" d="M12 8.25c.5821.00016 1.0354.32764 1.3457.66406.3166.34344.5716.78544.7686 1.22854.391.8797.6357 1.9475.6357 2.7099-.0002 1.5489-1.1821 2.8973-2.75 2.8975-1.5679-.0002-2.74975-1.3486-2.74999-2.8975 0-.755.2453-1.8224.63574-2.7031.19665-.44355.45055-.88687.76655-1.23143.3096-.33721.7638-.66781 1.3477-.66797m-.0088 1.50195c-.0074.0021-.0224.00725-.043.01856-.0442.02451-.1097.07326-.1904.16113-.1657.18066-.3407.46476-.501.82616-.3236.7302-.5068 1.5899-.5068 2.0947.0002.823.6094 1.3972 1.25 1.3975.6406-.0003 1.2498-.5745 1.25-1.3975 0-.5134-.1836-1.3733-.5068-2.1005-.16-.36-.3348-.642-.5-.82134-.0806-.08726-.1462-.13581-.1905-.16015-.0204-.01117-.0353-.0164-.0429-.01856A.08.08 0 0 0 12 9.75h-.0019zM19.4473 2.25c.7392.00024 1.3174.63848 1.2441 1.37402l-1.5 14.99998c-.0154.1542-.0596.2989-.125.4307.0529.1385.084.2882.084.4453v1c0 .6902-.5599 1.2497-1.25 1.25H6.10059c-.69035 0-1.25-.5596-1.25-1.25v-1c0-.1573.02903-.3077.08203-.4463-.06503-.1314-.10865-.2761-.12402-.4297l-1.5-14.99998c-.07332-.73554.50495-1.37377 1.24414-1.37402zm-13.09671 18H17.6504v-.5H6.35059zm-.07226-2H17.7217L18.9473 6H5.05274zM4.90333 4.5H19.0967l.0752-.75H4.82813z"/>
</svg>
