<svg xmlns="http://www.w3.org/2000/svg" width="24" height="24" viewBox="0 0 24 24">
  <path fill="currentColor" d="M9.78808 12.2793h-1V11.5h1zm.02832-2.68653c1.7376.00023 2.9498.76063 3.6182 1.69433.0603-.0422.1226-.0824.1865-.1191.5224-.3008 1.1553-.4268 1.7803-.4268 1.3352.0003 2.4128.9213 2.5918 2.2051.0451.0309.088.0666.1259.1074a.752.752 0 0 1 .1983.5654c-.0499.6806-.1448 1.8508-.626 2.8575-.2466.5158-.608 1.0196-1.1426 1.3925-.4734.3302-1.0468.5326-1.7217.5782l-.2959.0097H9.46972l-.2959-.0097c-.67488-.0455-1.24823-.2481-1.72168-.5782-.53459-.3728-.89592-.8767-1.14258-1.3925-.48121-1.0067-.57607-2.1769-.62597-2.8575a.751.751 0 0 1 .19824-.5654l.00195-.0029c.06867-.6664.38169-1.449.93067-2.0957.6481-.7633 1.64881-1.36233 3.00195-1.36233M7.25878 14.3145c.0677.5122.18264 1.0519.4043 1.5156.16593.3468.37797.6206.64746.8086.26315.1833.62788.3183 1.15918.3183h5.06148c.5314 0 .8961-.1349 1.1592-.3183.2695-.188.4816-.4618.6475-.8086.2216-.4637.3366-1.0034.4043-1.5156zm2.55762-3.2217c-.86563 0-1.46335.3678-1.8584.833-.24522.2889-.40383.608-.49414.8887h3.06734v-.7041h1v.7041h.9873c-.1472-.6717-.9243-1.7214-2.7021-1.7217m5.585 1.1484c-.44 0-.7957.091-1.0313.2266-.1728.0995-.2725.2149-.3223.3467h.6641v-.2696h1v.2696h.6924c-.1765-.3465-.5381-.5731-1.0029-.5733M12.5 1.25c.6045.00017 1.1088.42962 1.2246 1h4.6621c.6608.00039 1.2073.51513 1.2471 1.1748l1.083 18c.0432.7184-.5284 1.325-1.2481 1.3252H4.53124c-.71969-.0002-1.29125-.6067-1.24804-1.3252l1.083-18 .0127-.12207c.09528-.60004.61491-1.05236 1.23438-1.05273h4.66212c.1158-.57041.62-.99983 1.2246-1zm-7.70411 20H19.2041l-1.0527-17.5H13.75v.75c0 .69024-.5598 1.24981-1.25 1.25h-1c-.6902-.00019-1.25-.55976-1.25-1.25v-.75H5.84863zm6.95411-17h.5v-.5h-.5z"/>
</svg>
