<svg xmlns="http://www.w3.org/2000/svg" width="24" height="24" viewBox="0 0 24 24">
  <path fill="currentColor" d="M12 10.25c.5823 0 1.0353.3276 1.3457.6641.3166.3434.5716.7854.7686 1.2285.3909.8796.6356 1.9475.6357 2.7099-.0004 1.5489-1.182 2.8975-2.75 2.8975s-2.74961-1.3486-2.75-2.8975c.00007-.755.24538-1.8226.63574-2.7031.19666-.4436.45056-.8869.76656-1.2314.3096-.3373.7636-.668 1.3477-.668m-.0088 1.502c-.0073.002-.0219.0069-.043.0185-.0442.0245-.1095.0731-.1904.1611-.1657.1807-.3407.4648-.501.8262-.3235.7301-.5067 1.5899-.5068 2.0947.0004.823.6094 1.3975 1.25 1.3975s1.2496-.5745 1.25-1.3975c-.0001-.5134-.1837-1.3735-.5068-2.1005-.16-.3599-.3348-.6421-.5-.8213-.0807-.0874-.1462-.1359-.1905-.1602-.0207-.0113-.0354-.0164-.0429-.0185-.0064-.0018-.0098-.002-.0098-.002h-.002s-.0033.001-.0068.002m4.4649-10.2686c.3012.00002.5685.1796.6865.44824l.041.12012.001.00097.0039.01563c.0026.01051.0059.02625.0107.0459.0097.04005.0242.09922.042.1748.0357.1515.086.37199.1465.64942.1212.55538.2831 1.34233.4443 2.26953.3215 1.84855.6475 4.28426.6475 6.57419 0 2.29-.326 4.7257-.6475 6.5742-.1613.9274-.3231 1.7142-.4443 2.2696-.0605.2774-.1108.4979-.1465.6494-.0178.0756-.0323.1348-.042.1748-.0048.0197-.0081.0354-.0107.0459-.0013.0052-.0023.0099-.003.0127l-.0009.0029-.001.001c-.0837.3335-.3836.5683-.7275.5684H7.54395c-.34405 0-.64397-.2347-.72754-.5684l-.00098-.001v-.0029c-.0007-.0028-.00261-.0075-.00391-.0127-.00259-.0105-.00596-.0262-.01074-.0459-.00972-.04-.0242-.0992-.04199-.1748-.03565-.1515-.08595-.372-.14649-.6494-.12117-.5554-.28305-1.3422-.44433-2.2696-.32148-1.8485-.64743-4.2842-.64746-6.5742.00002-2.28994.32598-4.72564.64746-6.57419.16126-.92722.32316-1.71414.44433-2.26953.06054-.27746.11084-.49792.14649-.64942.01779-.07561.03226-.13474.04199-.1748.00478-.01968.00816-.03539.01074-.0459.00123-.00497.00316-.00892.00391-.01172v-.00391l.00098-.00097c.08346-.33388.38338-.56836.72754-.56836zM8.07812 20.3066c.02169.0994.0428.1912.06153.2745h7.72075c.0187-.0834.0407-.175.0625-.2745.0445-.2044.0928-.4421.1464-.707H7.93066c.05384.2649.10286.5026.14746.707M7.63379 5.54004c-.3106 1.80104-.61326 4.1059-.61328 6.24216.00003 2.166.31089 4.5057.62597 6.3174v.0049a.75.75 0 0 1 .08497-.0049h8.62205c.3151-1.8117.626-4.1514.626-6.3174 0-2.12477-.3006-4.41614-.6094-6.21286-.0835.03209-.1738.05271-.2685.05273H14.25V8c-.0002.41406-.3359.74997-.75.75h-3c-.4141-.00003-.74984-.33594-.75-.75V5.62207H7.96582c-.1198-.00007-.2316-.03201-.33203-.08203M11.25 7.25h1.5v-1.5h-1.5zM8.07812 3.25879a51.3 51.3 0 0 0-.18066.86523c.02249-.00204.04535-.00194.06836-.00195h8.13578c-.0656-.32851-.1255-.61942-.1787-.86328-.0218-.09973-.0438-.19184-.0625-.27539H8.13965c-.01879.08355-.03977.17566-.06153.27539"/>
</svg>
