<svg xmlns="http://www.w3.org/2000/svg" width="24" height="24" viewBox="0 0 24 24">
  <path fill="currentColor" d="M11.5088 4.25098c.6902.00021 1.25.55978 1.25 1.25v2.7041c-.0003.69-.56 1.24978-1.25 1.25h-1.4522v.99802c-.0003.6768-.53905 1.2263-1.2109 1.2471v6.5566c-.00033.8966-.72741 1.624-1.62402 1.6241-.89662-.0001-1.62369-.7275-1.62402-1.6241v-6.5566c-.6721-.0206-1.21055-.5701-1.21094-1.2471v-.99802H2.93457c-.69011-.0001-1.24974-.55993-1.25-1.25v-2.7041c0-.6903.55973-1.24991 1.25-1.25zM7.09766 18.2568c.00032.0682.05582.124.12402.1241.06818-.0001.12369-.0559.12402-.1241v-6.5537h-.24804zm-1.21094-8.0537h2.66992v-.74802H5.88672zM3.18457 7.95508h8.07423v-.32813H3.18457zm0-1.82813h8.07423v-.37597H3.18457zM16.7197 4.89062c.3372-.08035.6858.08067.8428.38965l.001.00196.0019.00488c.002.00383.0053.00967.0088.0166a15 15 0 0 1 .0342.06738c.0297.05864.0731.14507.127.25196.108.21439.2602.51638.4345.86621.3486.69956.7901 1.59629 1.1582 2.37304.3043.64251.375 1.3372.2315 1.9854.5214.0014 1.0064.1237 1.4394.3554.7084.3793 1.2101 1.013 1.5088 1.7237.5887 1.4013.4579 3.2606-.5976 4.6367-.8837 1.1517-1.8778 1.8347-2.9356 2.1172-1.0529.2809-2.0898.1444-3.0264-.1983-1.8434-.6747-3.4283-2.1926-4.3505-3.3095-.0666-.0806-.1139-.1714-.1416-.2657-.0484-.0544-.096-.1097-.1407-.167-.4456-.5726-.689-1.2825-.6074-2.0879.0801-.7881.4646-1.5988 1.1367-2.4179.3747-.4565.7879-.7404 1.1114-.9102.1421-.0746.269-.1278.3691-.165.0921-.88779.5438-1.77436 1.3809-2.3633.7487-.52681 1.1017-1.10384 1.2724-1.52539.0864-.21357.1287-.39341.1485-.51172.0096-.05833.0137-.1024.0156-.12695l.001-.01465c.0013-.34566.2398-.64595.5761-.72657m3.1992 7.49808c.2577.6778.3706 1.3125.334 1.9013-.0521.8355-.3969 1.5231-.9297 2.0411-.9886.9607-2.5462 1.2828-3.9619 1.2021.3563.2174.7263.4033 1.1026.541.7241.2649 1.4389.3397 2.123.1572.6795-.1814 1.4099-.6388 2.1328-1.581.7052-.9193.8002-2.2025.4053-3.1426-.1933-.4596-.4867-.7965-.834-.9824-.1107-.0592-.2346-.1055-.3721-.1367m-6.3691-.6778c-.1653.1-.3624.2511-.5459.4746-.55.6702-.7623 1.2113-.8037 1.6182-.0394.3895.07.7206.2988 1.0147.4935.6338 1.5686 1.1101 2.8135 1.2099 1.2448.0997 2.3744-.1998 2.9648-.7734.2758-.2682.4504-.6091.4786-1.0576.0245-.3954-.0648-.9121-.3584-1.5664-.602.4492-1.3924.7127-2.3125.7129-1.2736-.0001-2.1413-.7115-2.5352-1.6329m3.46-4.18258c-.3099.49389-.7665 1.02033-1.4414 1.49512-.6165.43401-.8525 1.17326-.7315 1.79886.114.587.5199 1.0214 1.2481 1.0215.9184-.0002 1.4951-.3703 1.7871-.7989.297-.4366.3531-1.0076.1006-1.54099-.3004-.63374-.6535-1.35154-.9629-1.97559"/>
</svg>
