<svg xmlns="http://www.w3.org/2000/svg" width="24" height="24" viewBox="0 0 24 24">
  <path fill="currentColor" d="M12 10.25c.5823 0 1.0353.3275 1.3457.6641.3166.3434.5716.7854.7686 1.2285.3909.8796.6356 1.9475.6357 2.7099-.0004 1.5489-1.182 2.8975-2.75 2.8975s-2.74964-1.3486-2.75-2.8975c.00005-.755.24535-1.8225.63574-2.7031.19666-.4436.45056-.8869.76656-1.2314.3096-.3374.7635-.668 1.3477-.668m-.0088 1.502c-.0073.002-.0219.0069-.043.0185-.0442.0245-.1095.073-.1904.1611-.1657.1807-.3407.4648-.501.8262-.3236.7301-.5067 1.5899-.5068 2.0947.0004.823.6094 1.3975 1.25 1.3975s1.2496-.5745 1.25-1.3975c-.0001-.5134-.1837-1.3734-.5068-2.1005-.1601-.36-.3348-.6421-.5-.8213-.0807-.0875-.1462-.1359-.1905-.1602-.0208-.0114-.0354-.0164-.0429-.0185-.0063-.0018-.0098-.002-.0098-.002h-.002s-.0035.001-.0068.002m5.8193-10.05083c.4142.00003.75.33581.75.75V21.5488c-.0001.4141-.3358.75-.75.75H6.16895c-.41414 0-.74987-.3359-.75-.75V2.45117c0-.41421.33578-.75.75-.75zM6.91895 20.7988H17.0605v-.9814H6.91895zm0-2.4814H17.0605V5.83984h-2.3613v2.37793c-.0001.41401-.336.74984-.75.75h-3.9189c-.41416 0-.74989-.3359-.75003-.75V5.83984H6.91895zM10.7803 7.46777h2.4189v-1.5h-2.4189zM6.91895 4.33984H17.0605V3.20117H6.91895z"/>
</svg>
