<svg xmlns="http://www.w3.org/2000/svg" width="24" height="24" viewBox="0 0 24 24">
  <path fill="currentColor" d="M7.58496 12.6416c.3454.0001.63372.2349.7207.5527.00327.0092.00857.0184.01172.0284a.767.767 0 0 1 .03223.1699c.00517.0701.00122.1578-.02441.2529a.76.76 0 0 1-.05469.1426c-.02369.047-.05184.0916-.08399.1318-.06487.0811-.13905.1387-.20703.1787a.765.765 0 0 1-.17871.0762.77.77 0 0 1-.12597.0244c-.03358.0036-.06343.005-.08692.0049a.82.82 0 0 1-.0625-.0029c-.32286-.0262-.57879-.2537-.66016-.5489-.00528-.0148-.01272-.0305-.01757-.0478-.01167-.0417-.02246-.0956-.02637-.1582-.00391-.0634-.00087-.1396.01855-.2217a.759.759 0 0 1 .10547-.2432.759.759 0 0 1 .17188-.1835c.05988-.0456.11907-.077.16894-.0977a.77.77 0 0 1 .13184-.041.79.79 0 0 1 .09668-.0147.8.8 0 0 1 .07031-.0029m0 1.5a.74.74 0 0 0 .0625-.0029l.00195-.001c-.02105.0018-.04293.0039-.06445.0039m0-1.4365c.02013 0 .04112-.0007.06152.001-.01395-.0012-.03277-.0019-.05371-.002-.00243 0-.0052.0009-.00781.001m-.09961-4.20803c.8624 0 1.62432.01293 2.27149.08301.64296.06965 1.23836.20174 1.73826.47851 1.114.61705 1.4462 1.75921 1.4463 3.27251 0 .7949-.2614 1.4277-.8135 1.7753-.1781.1121-.3635.1771-.5429.2129-.0363.1093-.0855.2164-.1514.3164l-.1406.1963c-.1456.1858-.3108.3416-.5215.4678-.2523.1509-.5405.2389-.84474.3223-.0427.0117-.08773.0229-.13379.0351.02061.0788.04321.1336.06641.1709.04023.0646.11688.1482.35352.2188.3964.1185.6228.536.5049.9326-.1183.3968-.5368.6229-.93362.5049-.27928-.0833-.53628-.2074-.75879-.3799.07823.1621.10028.3519.04492.5381-.05141.1724-.16157.3095-.2998.4033.06911-.0306.13609-.0607.20117-.085.10067-.0375.22008-.0757.34277-.0966.09624-.0164.32475-.0476.56348.0576.13897.0613.27917.1686.37697.332.0942.1578.1187.3186.1181.4404-.0012.2176-.0823.4007-.1347.5049-.116.2302-.31731.5022-.57619.8086-.1327.1571-.1623.2434-.16797.2715.00586.0142.02904.0594.1084.1553.02674.0323.05439.0647.08887.1045.03218.0371.07204.0836.11035.1308.07063.0872.18037.2308.25194.4121.0807.2048.1158.4666.0176.7442-.09008.2537-.26322.4386-.42774.5713-.78907.6357-1.7456.2973-2.31348-.0948-.27754-.1916-.54198-.4451-.76172-.7373l-.00977.0049c-.91787.3683-1.87109.1088-2.66796-.4287-.79963-.5395-1.5098-1.3988-2.01075-2.3975-.99722-1.9888-1.25934-4.7802.5752-6.8847 1.56831-1.7986 3.55388-1.7261 5.16113-1.168 1.6026.5566 2.98539 1.637 3.58689 2.1504.0047.004.0091.0086.0137.0127.0615.0009.1-.0099.1123-.0176.0025-.0015.0216-.0145.0449-.0664.0287-.0643.0674-.1978.0674-.4394-.0001-1.3504-.2965-1.7515-.6728-1.96-.2453-.1358-.6116-.2389-1.17387-.2998-.55838-.0604-1.24766-.07423-2.10938-.07423-.41414-.00009-.75-.33584-.75-.75.00038-.41384.3361-.74991.75-.75M7.7793 20.332a55 55 0 0 0-.15918.1016c.11912.2298.31906.4667.5625.6348.01821.0125.03709.0231.05469.0341-.10962-.1787-.21243-.4092-.23829-.6865-.0068-.0737-.00601-.1474-.00195-.2197-.07429.0465-.14827.0916-.21777.1357m-3.21778-1.3506c-.09543.0511-.19342.0953-.29492.129-.11154.0369-.22248.0596-.33008.0742.21205.2296.43467.4253.66114.5781.45983.3102.88809.4191 1.2539.3623l.0127-.0293c-.34024-.2207-.68952-.4822-.99219-.7773-.1049-.1023-.2097-.2154-.31055-.337m1.97461-2.33c-.70407.2506-1.02456.5004-1.15039.6601-.05204.0663-.05963.1033-.06054.1084-.00083.0049-.00329.0267.01171.0762.03991.1309.16876.3424.4375.6045.25602.2496.58192.4899.917.6953.11184.0685.21187.1572.29785.2598.38476-.2444.88459-.5517 1.32715-.7881.07542-.0403.15257-.0796.22851-.1172-.12974.0349-.2701.0382-.4082-.0029-.49096-.1466-.91735-.4121-1.19824-.8633-.13107-.2109-.21675-.4404-.26953-.6797-.04366.0154-.08814.031-.13282.0469m-3.99902-1.6641c-.1055.7644.00293 1.5589.27148 2.3066.00644.0037.01317.007.01954.0108.28983.175.48291.3265.73144.3838.09677.0223.16829.0182.22949-.002.03495-.0116.08502-.0371.14942-.0888-.01339-.1574-.0085-.3216.0205-.4893.02776-.1601.07518-.3126.13965-.4551-.50835-.3232-.9143-.7513-1.23242-1.1787-.11952-.1606-.22872-.3256-.3291-.4873m5.57324 1.1406c.02155.1923.06294.301.10156.3633.04017.0646.11692.1481.35352.2188.03905.0116.07672.0268.1123.0439-.03182-.0425-.06294-.0865-.09179-.1328-.10985-.1766-.18686-.3669-.24024-.5645-.07584.0227-.1544.0465-.23535.0713M5.1416 11.9893c-.61593.1113-1.19419.4195-1.70117 1.0009-.075.0861-.14552.1742-.21094.2637.1782.3607.39164.7807.69434 1.1875.35253.4737.78639.8681 1.33887 1.0488-.32621-.8476-.36063-1.7049-.29297-2.4355.03546-.3825.10139-.7464.17187-1.0654m1.52539.0722c-.08325.3341-.16536.714-.2041 1.1319-.05389.5822-.01555 1.1819.19727 1.7431 1.51653-.5178 2.40398-.7214 2.94336-.8691.27286-.0748.40788-.1248.49218-.169-.632-.5072-1.70421-1.2663-2.88281-1.6757-.18235-.0634-.36471-.1176-.5459-.1612m9.49321-7.41697a.79.79 0 0 1 .0966.01465.77.77 0 0 1 .1319.04102c.0499.02072.109.05204.1689.09765a.758.758 0 0 1 .1719.1836.76.76 0 0 1 .1055.24316c.0194.08211.0224.15832.0185.22168-.0039.0626-.0147.11653-.0264.1582-.0048.01723-.0122.03301-.0175.04785-.0814.29508-.3374.52261-.6602.54883-.0173.0014-.0389.00284-.0625.00293-.0235.00007-.0533-.00125-.0869-.00488a.77.77 0 0 1-.126-.02442.762.762 0 0 1-.1787-.07617c-.068-.04007-.1421-.09749-.207-.17871-.0322-.0403-.0603-.08478-.084-.13183a.752.752 0 0 1-.0547-.14258c-.0256-.09518-.0296-.18278-.0244-.25293a.773.773 0 0 1 .0322-.16992c.0032-.00993.0085-.01923.0117-.02832.0871-.31784.3753-.5527.7207-.55274a.8.8 0 0 1 .0704.00293m-.1329 1.49414a.73.73 0 0 0 .0625.00293c-.0215 0-.0433-.00212-.0644-.0039zm.001-1.43262c.0204-.00163.0414-.00097.0615-.00097-.0026-.00004-.0053-.00095-.0078-.00098-.0209.00008-.0397.00083-.0537.00195m-.6074-3.68261c.414.00009.7498.33601.75.75-.0002.41396-.336.74991-.75.75-1.6631.00005-2.4236.31559-2.7715.61718-.3103.26964-.4169.63995-.417 1.19043.0001.2424.0397.37642.0684.44043.0235.05216.0449.06543.0449.06543.0123.0077.0511.01812.1123.01758.0046-.00405.009-.00874.0137-.01269.6016-.5135 1.9844-1.59386 3.5869-2.15039 1.6072-.55803 3.5929-.63069 5.1611 1.16797 1.8345 2.10451 1.5724 4.89593.5752 6.88472-.5009.9986-1.2112 1.858-2.0107 2.3975-.7969.5375-1.7501.797-2.668.4287l-.0107-.0049c-.2196.2919-.4835.5458-.7608.7373-.5679.3921-1.5244.7305-2.3134.0948-.1646-.1327-.3377-.3176-.4278-.5713-.0982-.2776-.0631-.5394.0176-.7442.0716-.1812.1813-.3249.2519-.4121.0383-.0472.0783-.0937.1104-.1308.0344-.0398.0622-.0723.0889-.1045.0792-.0957.1025-.1411.1084-.1553-.0057-.028-.0352-.1143-.168-.2715-.2589-.3065-.4601-.5784-.5762-.8086-.0524-.1042-.1335-.2872-.1347-.5049-.0006-.1218.0239-.2826.1181-.4404.0978-.1634.2381-.27076.377-.33202.2388-.10511.4674-.074.5635-.05762.1227.02098.242.05909.3427.09668.0649.02423.1313.05446.2002.08496-.138-.09377-.2475-.23111-.2988-.40332-.0554-.18602-.0342-.37601.0439-.53809-.2223.17224-.4788.29666-.7578.37989-.3968.11807-.8152-.10809-.9336-.50489-.118-.39665.1084-.81412.5049-.93261.2365-.07057.3133-.1542.3535-.21876.0232-.0373.0449-.0924.0655-.17089-.0458-.01219-.0904-.02353-.1329-.03516-.3042-.08335-.5923-.1713-.8447-.32227-.2108-.12622-.3759-.28188-.5215-.46777l-.1406-.19629c-.066-.10019-.1161-.20695-.1523-.3164-.1795-.036-.365-.10088-.543-.21289-.5519-.34768-.8134-.98066-.8135-1.7754.0001-.72399.1396-1.63323.9346-2.32324.7589-.65825 1.9688-.98433 3.7539-.98437m.2568 11.17286c.0041.0723.0049.146-.0019.2197-.0259.2772-.1287.5078-.2383.6865.0175-.011.0366-.0216.0547-.0341.2433-.1681.4434-.405.5625-.6348a54 54 0 0 0-.1592-.1016c-.0696-.0442-.1434-.0892-.2178-.1357m3.4346-1.2149c-.1007.1214-.2049.2348-.3096.337-.3026.295-.652.5567-.9922.7773l.0127.0293c.3658.0567.7942-.0521 1.2539-.3623.2263-.1527.4484-.3488.6602-.5781-.1073-.0146-.2178-.0374-.3291-.0742-.1019-.0338-.2001-.0777-.2959-.129m-2.1074-2.37691c-.0528.23916-.1376.46896-.2686.67969-.2808.45112-.7074.71672-1.1982.86332-.1384.0412-.2792.0381-.4092.0029.0763.0378.1537.0767.2295.1172.4424.2363.9415.5438 1.3262.7881.086-.1027.1868-.1912.2988-.2598.335-.2053.661-.4457.917-.6953.2686-.26202.3976-.4736.4375-.60451.015-.04946.0125-.07126.0117-.07617-.0009-.00495-.0083-.04188-.0605-.1084-.1258-.15972-.4461-.40941-1.1504-.66015-.0451-.01604-.0898-.03136-.1338-.04688m4.1318-1.61719c-.1003.16146-.2087.32689-.3281.48731-.3183.42761-.7246.85644-1.2334 1.17969.0644.14236.1129.29416.1406.4541.029.16773.0329.33188.0196.48926.0648.05216.1153.07725.1503.08886.0612.02016.1328.02425.2295.00196.2485-.05733.4417-.20886.7315-.38379a.7.7 0 0 1 .0185-.01074c.2687-.74786.3771-1.54217.2715-2.30665m-5.8086 1.06934c-.0533.19745-.1295.38794-.2392.56445-.029.04644-.0609.09025-.0928.13282a.766.766 0 0 1 .1133-.04395c.2364-.07063.3133-.1542.3535-.21875.0386-.06233.079-.17119.1006-.36328a31 31 0 0 0-.2354-.07129m3.2041-4.06738c.0705.31909.1374.68284.1729 1.06543.0676.73062.0323 1.58788-.294 2.43554.5528-.18063.9872-.575 1.3399-1.04882.3025-.40663.5152-.82695.6933-1.1875-.0653-.08945-.135-.17773-.2099-.26368-.5073-.58178-1.0859-.88977-1.7022-1.00097m-1.5254.07226c-.1808.04349-.3629.09795-.5449.16114-1.1785.40938-2.2508 1.16851-2.8828 1.67578.0843.04418.2192.09415.4922.16894.5393.14769 1.4263.35152 2.9424.86914.2129-.56127.2521-1.16081.1982-1.74316-.0387-.41792-.1218-.79765-.2051-1.13184"/>
</svg>
