<svg xmlns="http://www.w3.org/2000/svg" width="24" height="24" viewBox="0 0 24 24">
  <path fill="currentColor" d="M10.041 11.541c.4531-.5263 1.2781-.5261 1.7315 0 .6829.129 1.0957.844.8662 1.5.2292.6559-.1834 1.3711-.8662 1.5-.4533.5257-1.2784.526-1.7315 0-.6823-.1294-1.0943-.8444-.86522-1.5-.22942-.6556.18285-1.3705.86522-1.5m.8652 1.2578c-.0652.0474-.1353.0874-.2089.1201.0086.0808.0085.1624 0 .2432.0738.0328.1436.0736.2089.1211.0656-.0478.1359-.0891.21-.1221a1.15 1.15 0 0 1 0-.2412 1.15 1.15 0 0 1-.21-.1211M11.5 9.25c2.3472 0 4.25 1.9028 4.25 4.25s-1.9028 4.25-4.25 4.25c-2.34714-.0001-4.25001-1.9028-4.25001-4.25S9.15286 9.25009 11.5 9.25m0 1.5c-1.51871.0001-2.75001 1.2313-2.75001 2.75s1.2313 2.7499 2.75001 2.75c1.5188 0 2.75-1.2312 2.75-2.75s-1.2312-2.75-2.75-2.75m8.9404-8.5c.7457 0 1.3255.64866 1.2422 1.38965L19.9951 18.6396c-.0169.1508-.0612.2921-.126.4209.0516.1369.0811.2846.0811.4395v1c0 .6902-.5598 1.2498-1.25 1.25H5.2998c-.69019-.0002-1.25-.5598-1.25-1.25v-1c0-.1548.02961-.3026.08105-.4395-.0647-.1287-.10902-.2702-.12597-.4209L2.31738 3.63965c-.0833-.74093.4966-1.38955 1.24218-1.38965zm-14.8906 18h12.9004v-.5H5.5498zM16.8496 6.78906c-1.3308.03943-2.8416.33456-4.4648.63282-1.5898.2921-3.27957.58521-4.84867.56445-1.15158-.01526-2.28696-.20187-3.30078-.71094L5.46972 18.25H18.5303l1.2119-10.77832c-.6781-.52197-1.6348-.71985-2.8926-.68262M4.01757 5.3457a.754.754 0 0 1 .11817.08203c.87625.74242 2.02779 1.04011 3.41992 1.0586 1.4004.01853 2.95034-.24471 4.55764-.54004 1.5736-.28915 3.2187-.61257 4.6914-.65625 1.0948-.03242 2.1819.08497 3.1221.54199L20.1611 3.75H3.83886z"/>
</svg>
