<svg xmlns="http://www.w3.org/2000/svg" width="24" height="24" viewBox="0 0 24 24">
  <path fill="currentColor" d="M10.3262 7.85639c.5011-.07812.9611.09544 1.3134.33886.3551.24546.654.59445.8721.98145.4288.76098.6314 1.8358.1348 2.8086-.5074.9934-1.6193 1.6426-3.31349 1.8144-.09734.155-.20351.3066-.32031.4502H22c.4141 0 .7498.336.75.75-.0002 3.6664-2.9723 6.6386-6.6387 6.6387H7.88867c-3.66634-.0001-6.63849-2.9723-6.63867-6.6387.00017-.414.33589-.75.75-.75h1.81738c-.19301-.2582-.34007-.5451-.4375-.8515-.31812-1.0018-.09874-2.1303.48633-2.9219l.06934-.084c.30764-.3456.74455-.42378 1.09668-.3701l.15527.0332.3418.0859c.39271.0871.92612.166 1.47558.1319.67281-.0419 1.29726-.2473 1.75489-.74319.08887-.3009.20158-.56571.33984-.79199.28712-.46953.70492-.8003 1.22659-.88183M2.80566 15.7499c.36325 2.4823 2.49992 4.3886 5.08301 4.3887h8.22263c2.5831-.0001 4.7198-1.9064 5.083-4.3887zm5.84961-4.3418c-.51878.2286-1.05929.3314-1.55664.3623-.85721.0534-1.64927-.1004-2.13769-.2255-.22479.408-.29708.9432-.15235 1.3994.1477.4645.54627.9287 1.48047 1.041.8527.1022 1.48917-.3816 1.93848-1.2734.20601-.4092.34434-.8653.42773-1.3038m1.85933-2.04878c-.0269.01989-.0763.06562-.1347.16113-.0543.0888-.1103.21232-.1631.37695.0788.6519.0169 1.4629-.1924 2.2598.7922-.2141 1.1401-.5685 1.2861-.8545.2049-.4019.1529-.9312-.1054-1.38967-.1254-.22236-.2794-.38749-.418-.4834-.1398-.09661-.2167-.09361-.2295-.0918-.0052.00083-.019.00389-.043.02149m3.9356-6.21192c.461-.04057.8323.20186 1.0518.48242l.0898.13086.1904.29688c.226.33269.5603.75638.9834 1.1084.5177.43044 1.1121.70927 1.7842.66308.2718-.15862.5365-.27377.793-.34375.5309-.14474 1.0615-.09916 1.497.19922.4184.28686.6343.72957.7237 1.14844.0899.42196.0675.88048-.0391 1.31152-.2099.84791-.7994 1.76949-1.8281 2.13673-1.0507.3748-2.3055.085-3.6563-.95216-1.1648.30246-2.5079.18753-3.4931-.99316-.9526-1.14201-1.0468-2.37747-.5635-3.38281.4556-.9472 1.3897-1.61726 2.3584-1.792zm5.2871 3.78613c-.1003.02742-.2259.07772-.3769.16114-.39.5287-.9911 1.07715-1.6905 1.51367.7234.38766 1.22.36867 1.5225.26074.4248-.15178.7493-.57317.876-1.08398.0613-.24784.0624-.47375.0273-.63867-.0359-.16809-.0949-.21807-.1045-.22461-.0047-.00319-.0164-.01015-.0449-.01368-.0333-.00401-.1009-.00407-.209.02539m-5.3311-2.24511c-.4436.14268-.8636.4836-1.0712.91504-.211.43922-.2389 1.04939.3632 1.77148.5504.65938 1.3455.74509 2.2842.4043.4306-.15639.8436-.39337 1.2051-.65528-.5344-.18961-.9986-.48601-1.3818-.80468-.6601-.54913-1.1299-1.2049-1.3995-1.63086"/>
</svg>
