<svg xmlns="http://www.w3.org/2000/svg" width="24" height="24" viewBox="0 0 24 24">
  <path fill="currentColor" d="M6.27539 10.7128c.29481-.2907.77266-.2908 1.06738 0 .29458.291.29459.7628 0 1.0537l-1.00195.9893c-.88415.8729-.88432 2.2883 0 3.1611l.05566.0547c.29443.2909.29432.7628 0 1.0537-.29477.2907-.77363.2908-1.06836 0l-.05566-.0547c-1.47363-1.4547-1.47356-3.8137 0-5.2685zm3.98141-1.93942c1.3601-1.34232 3.5647-1.34216 4.9248 0 1.3599 1.34252 1.361 3.51892.001 4.86132l-1.5312 1.5108c-1.3602 1.3418-3.5658 1.342-4.92582 0-1.35964-1.3424-1.35945-3.5189 0-4.8614zm3.8575 1.05274c-.7706-.75992-2.0197-.76015-2.7901 0L9.79297 11.3378c-.76975.7605-.76999 1.9936 0 2.7539.77043.7603 2.02043.76 2.79103 0l1.5312-1.5107c.7704-.7605.7694-1.9944-.0009-2.75488M11.71 2.94819c1.474-1.45443 3.864-1.45461 5.3378 0l4.0352 3.9834c1.4738 1.45485 1.4739 3.81371 0 5.26851l-8.8848 8.7696c-1.4739 1.4543-3.86399 1.4544-5.33785 0l-4.03516-3.9834c-1.47386-1.4548-1.47373-3.8137 0-5.2686zm4.2705 1.05371c-.8843-.87279-2.3187-.87261-3.2032 0l-8.88473 8.7695c-.88408.8729-.88416 2.2883 0 3.1612l4.03516 3.9834c.88429.8726 2.31877.8724 3.20317 0l8.8847-8.7696c.8842-.8728.8841-2.28822 0-3.1611z"/>
</svg>
