<svg xmlns="http://www.w3.org/2000/svg" width="24" height="24" viewBox="0 0 24 24">
  <path fill="currentColor" d="M21.0459 11.3858c.2083.0001.408.0867.5498.2393.1415.1525.2134.3578.1982.5654-.0815 1.1116-.2328 2.929-.9716 4.4746-.3755.7852-.9165 1.5311-1.7022 2.0791-.7427.518-1.6632.8302-2.7822.8672l-.2266.0039H7.88965l-.22656-.0039c-1.11897-.0369-2.03952-.3494-2.78223-.8672-.78562-.5479-1.3267-1.2939-1.70215-2.0791-.73884-1.5456-.89017-3.363-.97168-4.4746-.01516-.2078.05642-.4128.19824-.5654.14189-.1527.34139-.2393.54981-.2393zm-17.27344 1.5c.10097.9975.2915 2.1533.75977 3.1328.29466.6161.68573 1.1321 1.20605 1.4951.51422.3585 1.20277.6016 2.15137.6016h8.22165c.9487-.0001 1.6372-.243 2.1514-.6016.5203-.3631.9114-.8789 1.2061-1.4951.4682-.9795.6587-2.1353.7597-3.1328zM14.4053 7.92486c.2928-.2924.7677-.29247 1.0605 0 .7231.72358.7231 1.89754 0 2.62114-.2927.2924-.7677.2923-1.0605 0-.2928-.2928-.2926-.76767 0-1.06059.1373-.13777.1372-.36221 0-.5-.2926-.29292-.2928-.76775 0-1.06055m-4.0391-1.31933c.2929-.29287.7687-.29289 1.0615 0 .2921.29285.2924.76786 0 1.06054-.3596.35963-.3596.94311 0 1.30274.292.29291.2925.76792 0 1.06059-.2927.2927-.7686.2924-1.0615 0-.94525-.94539-.94516-2.47847 0-3.42387m2.0723-2c.2928-.29274.7677-.29271 1.0605 0 .9843.98504.9848 2.58261 0 3.56738-.2926.29246-.7676.29205-1.0605 0-.2929-.29284-.2927-.76764 0-1.06055.3989-.39898.3985-1.04703 0-1.44629-.2928-.2929-.2929-.7677 0-1.06054"/>
</svg>
