<svg xmlns="http://www.w3.org/2000/svg" width="24" height="24" viewBox="0 0 24 24">
  <path fill="currentColor" d="M11.9531 7.42383c1.9109-.02498 3.4607 1.5031 3.461 3.41407v2.1514c-.0003 1.9109-1.5502 3.4808-3.461 3.5058-1.9102.0244-3.45867-1.5045-3.45897-3.415v-2.1514c.00007-1.91068 1.54857-3.47926 3.45897-3.50487m0 1.5c-1.082.01478-1.9589.90309-1.95897 1.98537v2.1513c.00034 1.0821.87717 1.9481 1.95897 1.9346 1.0825-.0141 1.9607-.9038 1.961-1.9863v-2.1514c-.0003-1.08247-.8785-1.94772-1.961-1.93357M17.4609 2.25c.7271.00019 1.3015.61872 1.2471 1.34375L17.583 18.5938c-.0121.1605-.0548.3119-.1211.4492.0557.1416.0869.2955.0869.457v1c0 .6904-.5596 1.25-1.25 1.25H7.69921c-.69-.0004-1.25-.5599-1.25-1.25v-1c0-.1616.03108-.3162.08692-.458-.06592-.1369-.10711-.2883-.11914-.4482l-1.125-15.00005c-.05437-.72503.52004-1.34356 1.24707-1.34375zm-9.51169 18h8.09959v-.5H7.94921zm-.05371-2h8.209L17.0225 6H6.97753zM6.86523 4.5H17.1348l.0566-.75H6.80859z"/>
</svg>
