<svg xmlns="http://www.w3.org/2000/svg" width="24" height="24" viewBox="0 0 24 24">
  <path fill="currentColor" d="M13.5557 1.66699c.4409.03483.8235.1897 1.1357.44239.3439.27848.5614.64153.7031.98535.2757.66938.3269 1.43614.3535 1.85742.0131.20648-.0597.40959-.2011.56055-.1417.15086-.3399.23723-.5469.2373h-.3887c.0109.88195.131 1.48503.2881 1.92285.1625.45252.3771.76662.6143 1.0625.2145.26761.5599.64137.7978 1.05078.2684.46207.4354 1.00287.4356 1.72457v8.042c.0176.534-.0405 1.3525-.2998 2.0674-.251.6913-.8133 1.5663-1.9278 1.5664H9.48047c-1.11449-.0001-1.67681-.8751-1.92774-1.5664-.2553-.7039-.31482-1.5077-.2998-2.042v-8.0674c.00032-1.4942.73996-2.19259 1.22852-2.81636.24087-.30762.45707-.62795.62011-1.07715.15677-.43217.27592-1.01897.28711-1.86719H9c-.20703-.00007-.40516-.08636-.54687-.2373-.14152-.15096-.21422-.35403-.20118-.56055.02662-.42126.07784-1.18806.35352-1.85742.14168-.34376.35929-.7069.70312-.98535.31221-.25265.69481-.40756 1.13571-.44239l.1924-.00781h2.7266zM8.80664 20.4668c.034.2214.08439.4434.15625.6416.18128.4994.37461.578.51758.5781h5.03903c.143 0 .3363-.0787.5176-.5781.0719-.1982.1223-.4202.1563-.6416zm-.05371-1.5h6.49417V18H8.75293zM10.8887 5.75c-.0113.9918-.1509 1.75576-.377 2.37891-.2375.65441-.55639 1.11581-.84959 1.49023-.58011.74066-.90894 1.01436-.90918 1.89156V16.5h6.49417v-4.9893c-.0002-.4636-.1002-.744-.2325-.9716-.1627-.2798-.3516-.4671-.6708-.86527-.2971-.37062-.6183-.83088-.8565-1.49414-.2263-.63033-.365-1.4098-.376-2.42969zm-.252-2.59082c-.1965.00005-.3073.05444-.3838.11621-.0889.07207-.1802.19546-.26071.39063-.07314.17758-.12247.3784-.15821.58398H14.166c-.0357-.20562-.085-.40637-.1582-.58398-.0805-.19532-.1717-.31857-.2607-.39063-.0765-.06181-.1872-.11617-.3838-.11621z"/>
</svg>
