<svg xmlns="http://www.w3.org/2000/svg" width="24" height="24" viewBox="0 0 24 24">
  <path fill="currentColor" d="M12.2148 2.25c1.0587.00035 1.9168.85926 1.917 1.91797V20.3428c-.0002 1.0587-.8583 1.9176-1.917 1.9179-.7851 0-1.4601-.4727-1.7568-1.1484-.2627.4706-.71959.829-1.28905.9453-1.03756.2116-2.05086-.4575-2.2627-1.4951L3.6709 4.71484c-.21161-1.03743.45777-2.05068 1.49512-2.26269 1.03739-.21164 2.05059.45785 2.26269 1.49512L10.2969 17.9961V4.16797c.0002-1.05889.859-1.91791 1.9179-1.91797m0 1.5c-.2305.00006-.4177.18751-.4179.41797V20.3428c.0002.2304.1874.4179.4179.4179.2303-.0003.4168-.1876.417-.4179V4.16797c-.0002-.23028-.1867-.41762-.417-.41797m-6.748.17188c-.22586.04613-.37208.2673-.32617.49316L8.37598 20.2627c.04618.2258.26731.3721.49316.3262.22575-.0463.37118-.2674.3252-.4932L5.95898 4.24805c-.04626-.22558-.26653-.37189-.49218-.32617M16.833 2.25c1.0586.00041 1.9168.8593 1.917 1.91797V20.3428c-.0002 1.0586-.8584 1.9175-1.917 1.9179-1.0589 0-1.9178-.859-1.918-1.9179V4.16797c.0002-1.05889.8591-1.91791 1.918-1.91797m0 1.5c-.2305.00006-.4178.18751-.418.41797V20.3428c.0002.2304.1875.4179.418.4179.2302-.0004.4168-.1877.417-.4179V4.16797c-.0002-.23024-.1868-.41756-.417-.41797"/>
</svg>
