<svg xmlns="http://www.w3.org/2000/svg" width="24" height="24" viewBox="0 0 24 24">
  <path fill="currentColor" d="M14.2998 10h-1V9h1zm-2.8613-.21973h-1v-1h1zm1.8613-1.47363h-1v-1h1zM10.4385 5H9.43848V4h1.00002zM18 1.8623c.4141 0 .7498.33599.75.75 0 2.71331-.7012 5.20543-1.875 7.042-.8101 1.2674-1.8791 2.2639-3.125 2.7568V19c0 .6376-.342 1.1941-.8516 1.5h5.0313c.4142 0 .75.3358.75.75s-.3358.75-.75.75H6.07031c-.41421 0-.75-.3358-.75-.75s.33579-.75.75-.75h5.03129c-.5097-.3059-.8516-.8624-.8516-1.5v-6.5889c-1.24587-.4929-2.31492-1.4894-3.125-2.7568C5.95123 7.81773 5.25 5.32561 5.25 2.6123c.00023-.41401.33593-.74999.75-.75zM11.75 19c0 .1381.1119.25.25.25s.25-.1119.25-.25v-6.25h-.5zm3.3242-12.83008c-.8165.03678-1.7566.31302-2.8467.61719-1.0373.28944-2.2082.6022-3.31344.58008-.46841-.00941-.93118-.08059-1.37402-.23438.23911.6305.52513 1.20621.84961 1.71387C9.39276 10.416 10.687 11.25 12 11.25s2.6072-.834 3.6104-2.40332c.4019-.62882.7443-1.3622 1.0117-2.1748-.3761-.39166-.8674-.53252-1.5479-.50196M6.77148 3.3623c.02823.53053.08658 1.04611.1709 1.54297.00438.00533.00942.01015.01367.01563.53195.6844 1.18764.9302 1.98829.94629.85011.01696 1.81216-.22747 2.87986-.52539 1.0149-.28318 2.1532-.62456 3.1826-.6709.6958-.03126 1.3947.07155 2.0147.42578.1029-.55555.1751-1.13525.207-1.73438z"/>
</svg>
