<svg xmlns="http://www.w3.org/2000/svg" width="24" height="24" viewBox="0 0 24 24">
  <path fill="currentColor" d="M13.1221 2.18852c2.209-.33182 4.6997.04877 6.7509 2.09961 2.0515 2.05141 2.4325 4.54266 2.1006 6.75197-.3283 2.1853-1.3555 4.1457-2.209 5.2998a.74.74 0 0 1-.0234.0303l-.0029.0029c-.0016.002-.0032.0055-.0059.0088-.0057.0068-.014.0169-.0244.0293-.0211.0252-.0525.0616-.0918.1074a18.7 18.7 0 0 1-.3369.3818c-.2871.3166-.6956.747-1.1807 1.2051-.9482.8956-2.2762 1.9787-3.6123 2.4414-.712.2464-1.6629.3234-2.625.3184-.9809-.0052-2.05071-.0969-3.04294-.2276-.99227-.1307-1.92524-.3027-2.63379-.4756-.33395-.0814-.6335-.1682-.8711-.2539l-1.58203 1.5831c-.29287.2926-.76773.2926-1.06054 0-.29255-.2929-.29256-.7678 0-1.0606l1.65527-1.6562c-.0043-.0173-.00933-.035-.01367-.0528-.05971-.2446-.12813-.5625-.2002-.9287-.1444-.7337-.30682-1.6845-.44043-2.6816-.13337-.9955-.23982-2.0515-.27148-2.9903-.0306-.9086.00387-1.8089.21094-2.43551.71087-2.15045 1.9771-3.63778 4.20996-5.28907 1.15406-.85345 3.11561-1.87961 5.30081-2.208m5.6904 3.16015c-1.6318-1.63134-3.5999-1.95734-5.4678-1.67676-1.8919.28436-3.62793 1.18908-4.63084 1.93067-2.08088 1.53887-3.0971 2.79425-3.67871 4.55372-.11589.3507-.1661 1.0141-.13574 1.915.02938.871.13008 1.8729.25977 2.8408.12945.9661.28515 1.8873.42383 2.5918.00074.0039.00121.008.00195.0118l2.42578-2.4268.37598-4.3584c.03577-.4124.40006-.77574.8125-.81152.41236-.03536.71804.27022.68261.68262l-.24804 2.8643 3.49411-3.49223c.2928-.2928.7677-.29262 1.0606 0 .2928.29293.2928.76773 0 1.06053l-1.6709 1.6699 2.2763-.1953c.4126-.0355.7182.2701.6827.6826-.0357.4126-.399.7759-.8116.8116l-3.5.3017c-.0815.007-.159.0003-.2304-.0176l-4.41214 4.4122c.00572.0014.01181.0034.01758.0048.64631.1577 1.5242.3222 2.47363.4473.94968.1251 1.95503.2091 2.85643.2139.9201.0048 1.6619-.0748 2.126-.2354 1.0158-.3519 2.1483-1.2416 3.0723-2.1142.4504-.4255.8316-.8276 1.0996-1.1231.1335-.1473.2386-.268.3095-.3506.0352-.0409.0625-.0727.0801-.0937.0035-.0041.007-.0085.0098-.0117.74-1.0047 1.6396-2.7343 1.9228-4.6192.2806-1.86809-.0459-3.83688-1.6777-5.46873"/>
</svg>
