<svg xmlns="http://www.w3.org/2000/svg" width="24" height="24" viewBox="0 0 24 24">
  <path fill="currentColor" d="m11.3662 18.7539-.707.707-.83498-.8359.70708-.707zm-.1953-2.7568-.707.707-.83499-.8359.70699-.7071zm-2.98242-.4219-.70703.707-.83594-.8349.70703-.7071zm7.48732-1.9658-.707.707-.836-.8359.707-.7071zm-2.4658-.9356-.7071.7071-.8359-.836.707-.707zm-1.1309-2.6611-.707.707-.835-.83493.707-.70704zm3.8008-.0098-.707.708-.836-.8359.707-.70703zm4.5264-.41696-.7071.70706-.8359-.83597.707-.70703zM15.708 6.78418 15 7.49121l-.835-.83594.7071-.70703zm-2.125-3.67481c1.1716-1.17155 3.0716-1.17154 4.2432 0l4.1123 4.11231.1064.1123c1.0287 1.13965 1.0293 2.87922 0 4.01852l-.1064.1123-11.3516 11.3516-.1123.1065c-1.1393 1.0292-2.8789 1.0287-4.01854 0l-.11231-.1065-4.1123-4.1123c-1.17155-1.1716-1.17156-3.0716 0-4.2432zm3.1826 1.06055c-.5858-.58575-1.5363-.58577-2.122 0L3.292 15.5215c-.58578.5858-.58576 1.5363 0 2.1221l4.1123 4.1123c.58571.5848 1.53554.5851 2.12109 0L20.8779 10.4033c.5851-.58553.5849-1.53537 0-2.12107z"/>
</svg>
