<svg xmlns="http://www.w3.org/2000/svg" width="24" height="24" viewBox="0 0 24 24">
  <path fill="currentColor" d="M8.58008 2.07714c.5107-.46707 1.20298-.3265 1.58982.08008l.6924.72852c.4377.46047.4273 1.10609.3272 1.5-.2321.91121-.2124 3.82647 2.6044 6.89646l.0489.0518.0068-.0078 5.293 4.4257.042.0391c.4076.3983.6358.8661.6904 1.3672.0314.289.001.5616-.0596.8076.1119.0518.2148.1308.293.2412.0616.0868.1785.1051.2617.0401.3235-.2535.7813-.183 1.0225.1572.2411.3406.1741.8226-.1494 1.0762-.2631.206-.5654.3159-.8702.3379.0518.0108.1052.0177.1602.0175.4141-.0018.7512.332.7529.7461.0017.4142-.3328.7521-.747.7539-.3183.0014-.6213-.0642-.8965-.1816-.0035.358-.0899.7182-.2696 1.0488-.1978.3638-.646.486-1.0009.2725-.3544-.2136-.4815-.6813-.2842-1.0449.1779-.3274.0646-.7475-.252-.9414-.0958.0599-.1962.1184-.3027.1689-.3216.1525-.7244.2672-1.168.2119-.4575-.0571-.8946-.287-1.2763-.706a.8.8 0 0 1-.0244-.0284l-4.043-4.9013c-.0921-.0647-.1792-.1435-.2559-.2403-.155-.1956-.3105-.4057-.4648-.6279-2.84345-3.0983-5.17447-2.7057-5.91017-2.3916-.41248.1759-1.04577.1971-1.49512-.2754l-.64648-.6806c-.38522-.4054-.52328-1.13702-.07325-1.67583l.14746-.16504c.70764-.74571 1.6556-1.07926 2.64649-1.16309L3.04102 5.92187c-.46293-.50252-.45669-1.30298.01367-1.79785l.96387-1.01465c.47533-.49975 1.24604-.50048 1.72168-.00098l1.56445 1.64356c.13532-1.02168.51391-1.97795 1.27539-2.67481M12.6836 14.9053l3.4424 4.1758c.1693.1842.3076.2325.4082.2451.1149.0142.2542-.0103.418-.0879.3454-.1639.6368-.4789.7197-.5762.0362-.0425.0732-.0813.1142-.1201.0964-.091.4058-.408.5674-.7774.0766-.1753.0985-.3155.0869-.4228-.0095-.0872-.0481-.2182-.2158-.3867l-4.1728-3.4903zM9.33692 3.45507c-.3372.41255-.54384.97904-.61036 1.70411-.07941.86606.0462 1.8981.33008 2.99316.4915 1.89546 1.42556 3.84896 2.37986 5.24126.0736.0815.1489.1636.2227.249.0256.0296.0479.0613.0683.0937l1.1661-1.2265C9.61053 9.03534 9.3954 5.49188 9.77832 3.98828a.275.275 0 0 0 .00782-.04981c.00017-.00418-.00101-.00816-.00098-.01172zM5.24219 9.53418c-.75807.03827-1.34344.24557-1.75781.60942l.37695.3974c.92839-.3891 2.61389-.59047 4.62305.4678-.14078-.3351-.27362-.6755-.39551-1.01857-1.0243-.32672-2.00783-.49829-2.84668-.45605m-.98535-4.50196 2.84668 3.08887a.77.77 0 0 1 .03613.04199c.14464.02834.2895.06026.43457.09473-.1036-.43593-.18627-.8736-.24316-1.30664-.00665-.00648-.01404-.01275-.02051-.01953L4.87989 4.37793z"/>
</svg>
