<svg xmlns="http://www.w3.org/2000/svg" width="24" height="24" viewBox="0 0 24 24">
  <path fill="currentColor" d="M15.1387 8.13577c1.2326.00006 2.7284.32069 3.9404 1.10547 1.241.80366 2.1923 2.10776 2.1924 3.98046l-.0039 1.3809c-.0082.5163-.0289 1.0757-.0821 1.6377-.1056 1.1155-.3431 2.3358-.9121 3.3193-1.1329 1.9575-3.4302 2.6902-5.1347 2.6904-1.7195 0-2.7744-.4401-3.583-1.0322-.3795-.2779-.6985-.587-.9619-.8301-.2762-.2548-.5065-.4533-.76763-.6064-.85557-.5013-1.75636-.4229-3.20996-.4229-1.80367-.0001-3.88944-1.8257-3.88965-4.5595v-2.7168c-.00011-.0143-.00097-.0287-.00097-.043.00008-1.4914.77814-2.46378 1.69336-3.04688.88202-.5618 1.90594-.77931 2.56347-.85156l.08203-.00489zM4.4082 15.9395c.4265 1.2579 1.50825 1.9189 2.20801 1.9189 1.23717 0 2.67065-.131 3.96779.6289.4111.241.7421.5356 1.0264.7979.297.2741.5389.508.832.7226.5368.3931 1.277.7422 2.6963.7422 1.3939-.0002 3.0683-.6136 3.8369-1.9414.1616-.2795.2904-.6008.3955-.9511-1.0729 1.0203-2.5377 1.6327-4.2324 1.6328-1.7198 0-2.7743-.4392-3.583-1.0313-.3796-.278-.6994-.5869-.9629-.8301-.2762-.2548-.5064-.4533-.7676-.6064-.37209-.218-.77764-.2792-1.33887-.2979-.52571-.0174-1.26285.0078-2.01367-.1386-.49576-.0968-1.04993-.303-1.57715-.627-.16091.0277-.33007.0211-.48731-.0195m7.4609.8252c.1901.1752.3682.3349.5723.4844.4644.34 1.0814.6451 2.1582.7216l-2.168-1.5976zm5.3897-1.2295c-.557.5035-1.3215.8026-2.1201.8027-.1323 0-.2639-.0114-.3936-.0273l1.9483 1.4355c.7395-.2437 1.3773-.6622 1.8779-1.2168-.034-.0188-.0674-.0395-.0986-.0635zm-10.85353-.5166c.12035.0388.23879.0721.3545.0947.59443.116 1.11371.0893 1.77636.1113.62704.0209 1.34368.0914 2.04787.5039.0505.0296.0983.0627.1465.0938l.4902-.3408-2.6748-1.9707zM17.9111 12.584c.1403.3132.2207.66.2207 1.0322 0 .227-.0313.4442-.0859.6504l1.3203 1.0127c.2614-.6135.4053-1.3074.4053-2.0576 0-.6433-.1567-1.1814-.4248-1.6309zm-2.7724-.1885c-.9181.0002-1.492.6347-1.4922 1.2207.0002.5861.5741 1.2216 1.4922 1.2217.9178-.0003 1.4929-.6357 1.4931-1.2217-.0001-.586-.5752-1.2204-1.4931-1.2207m-5.36526.251 2.53706 1.8692c-.1056-.2776-.164-.5791-.164-.8995 0-.63.2262-1.1869.5947-1.6308l-.9512-.7578zm-5.06153-1.9609c-.29821.3342-.48627.7687-.48632 1.3535l.00097.043c.01059.9283.36333 1.629.85156 2.1259l2.25782-1.5898zm2.39844-1.04983c-.31365.03682-.70008.11408-1.08691.24707l2.54004 1.87206 2.06542-1.4531-.83593-.66603zm6.85845 0c-.0426.06783-.1027.13156-.1807.18653l-.7295.5127.9551.7607c.3533-.1306.7356-.2001 1.125-.2002.68.0002 1.3365.2152 1.8603.5899l1.3438-.9307c-.0263-.0178-.0524-.0364-.0791-.0537-.9185-.59476-2.1149-.86517-3.125-.86523zm.4355-4.84668c.2927-.29253.7677-.29224 1.0605 0 .7235.72364.7235 1.89746 0 2.6211-.2928.29247-.7677.2926-1.0605 0-.2924-.2928-.2924-.76774 0-1.06055.1377-.13785.1377-.36214 0-.5-.2923-.29291-.2926-.76785 0-1.06055m-4.0381-1.31933c.2929-.29268.7677-.29269 1.0606 0 .2926.29285.2926.76769 0 1.06054-.3595.35964-.3596.94316 0 1.30274.2926.29285.2926.7677 0 1.06054-.2929.29255-.7678.29262-1.0606 0-.94534-.94536-.94525-2.4784 0-3.42382m2.0713-2c.2929-.29269.7687-.29269 1.0615 0 .9845.98496.9846 2.58253 0 3.56738-.2928.29268-.7686.29267-1.0615 0-.2926-.2927-.2923-.76763 0-1.06055.399-.39916.399-1.04712 0-1.44629-.2924-.2928-.2924-.76774 0-1.06054"/>
</svg>
