<svg xmlns="http://www.w3.org/2000/svg" width="24" height="24" viewBox="0 0 24 24">
  <path fill="currentColor" d="M11.9326 17.5947c.4141.0001.7498.336.75.75v.582c-.0001.4141-.3359.75-.75.75-.4141-.0001-.7499-.3359-.75-.75v-.582c.0002-.414.336-.7499.75-.75m2.1875-3.1221c.4142.0001.75.3359.75.75v.5821c-.0002.4139-.336.7499-.75.75-.4139-.0003-.7497-.3362-.75-.75v-.5821c0-.414.336-.7498.75-.75m-4.53514-.1152c.41415.0001.75004.3358.75004.75v.582c-.0002.414-.336.75-.75004.75-.4141 0-.74981-.3359-.75-.75v-.582c.00001-.4142.33579-.75.75-.75m2.34764-1.6299c.414.0001.7498.3361.75.75v.582c-.0001.4141-.3359.75-.75.75s-.7499-.3359-.75-.75v-.582c.0003-.4139.336-.7499.75-.75m-4.31053-1.1787c.41415.0001.74999.3358.75.75v.582c-.00025.414-.336.75-.75.75-.41398-.0001-.74975-.336-.75-.75v-.582c.00001-.4141.33587-.7499.75-.75m8.63283 0c.4141.0001.75.3358.75.75v.582c-.0003.414-.336.75-.75.75-.4141 0-.7498-.336-.75-.75v-.582c0-.4142.3358-.75.75-.75m-3.6631-9.73828c.3599-.20485.821-.08103 1.0303.27637a.7384.7384 0 0 1-.2725 1.01758c-.5421.30874-.9143.79212-1.0928 1.33398.8439.03887 1.6835.161 2.4463.37305.9293.25842 1.8127.66739 2.4346 1.28027.3632.35803.7533.90663 1.0752 1.47949.036.02.0712.04282.1045.06934.7369.58765 1.1927 1.28535 1.459 2.1582.969 3.1785-.1173 6.2685-1.8018 8.5166-.8456 1.1285-1.8604 2.073-2.8906 2.7402-1.0169.6586-2.1134 1.0879-3.1133 1.0879-.9997-.0001-2.09565-.4294-3.1123-1.0879-1.03016-.6672-2.04506-1.6118-2.89063-2.7402-1.68442-2.2481-2.77175-5.3381-1.80273-8.5166.22623-.74172.69129-1.39407.95996-1.72461.29743-.74089.75645-1.51991 1.19141-1.98242.57509-.61131 1.42768-1.01977 2.33691-1.27832.63461-.18041 1.32932-.29647 2.04008-.35156.2028-1.07726.8641-2.06239 1.8984-2.65137m1.6094 7.9707c-.1523.34658-.3239.71988-.5 1.04008-.1535.2789-.3376.5696-.5567.7978-.2078.2164-.5465.4794-1.0107.4795-.3536-.0001-.7145-.1509-.9883-.293-.3012-.1563-.6197-.3679-.9258-.6005-.41833-.318-.8499-.7083-1.20798-1.1084-.2817.1365-.63111.2979-.99707.4384-.33912.1303-.71379.2518-1.08594.3252-.36346.0717-.77941.108-1.17773.0225-.10281-.0221-.20005-.0576-.29102-.1035-.5223 2.3999.31484 4.7773 1.70801 6.6367.74568.9951 1.6327 1.8153 2.50586 2.3808.88617.574 1.69637.8465 2.29687.8467.6006 0 1.4113-.2725 2.2979-.8467.8731-.5655 1.7591-1.3857 2.5048-2.3808 1.408-1.8791 2.2493-4.2871 1.6924-6.7129-.1191.0852-.2568.1466-.4082.1797l-.1211.0205c-.288.0346-.6057-.0165-.8652-.0732-.3295-.0722-.7064-.1869-1.0967-.3243-.5592-.1968-1.176-.4526-1.7734-.72458M12.2607 5.9365c.0505.14771.1164.29266.1983.43261.2091.35737.0873.81362-.2725 1.01856-.3599.20489-.8219.08091-1.0312-.27637-.2141-.36569-.3607-.75124-.4444-1.14258-.5679.05214-1.11135.14857-1.59859.28711-.78192.22239-1.35562.53439-1.6836.88282-.32228.3426-.75645 1.08232-.99316 1.76367-.07427.21385-.11501.39111-.13575.52539.08219-.0061.17809-.01776.28614-.03906.26107-.05155.55134-.14184.8457-.25489.59402-.22817 1.1241-.51114 1.41504-.65429.33366-.16381.74723-.04927.96484.2666.27028.3923.76698.88218 1.28808 1.27833.2564.1948.499.3521.6992.456.1034.0537.1772.0833.2237.0997.0059-.0057.0135-.0114.0205-.0186.0923-.0962.2054-.261.3359-.498.2663-.48408.4951-1.06368.7432-1.61235.0813-.17979.2335-.31783.4209-.38184.1871-.06376.3951-.04847.5771.04102.7531.37073 1.5933.73334 2.3067.98437.3574.12577.6691.21789.914.27148.0172.00375.0341.00658.0498.00977-.0326-.1269-.0859-.28592-.165-.47363-.287-.68117-.7745-1.42096-1.1221-1.76367-.3554-.35015-.954-.66263-1.7529-.88477-.6328-.17591-1.3509-.28236-2.0899-.31738"/>
</svg>
