<svg xmlns="http://www.w3.org/2000/svg" width="24" height="24" viewBox="0 0 24 24">
  <path fill="currentColor" d="M10.5 13.2266h-1v-.9825h1zm1.9443-1.378v.9825l-1-.001v-.9824zm-1.8769-3.94723c.7562.00018 1.4427.46545 1.957.95605.5415.51667 1.0312 1.19318 1.4004 1.87398.3648.673.6466 1.4154.7148 2.0704.034.3266.0216.691-.1123 1.0263-.1448.3626-.4235.6646-.8359.8106-1.6859.5963-3.74251.6967-6.05761.0127-.42139-.1246-.77049-.3675-1.00098-.7256-.22299-.3469-.29444-.7392-.28808-1.1035.01261-.7091.3182-1.4803.708-2.1494.39864-.68423.93703-1.34926 1.51563-1.85259.54963-.4781 1.26078-.91894 1.99904-.91894m0 1.5c-.1787 0-.5305.1358-.99318.5332h.59868v.98243H9.17285v-.5967c-.30621.3279-.59303.7124-.82324 1.1074-.33228.5704-.49882 1.0799-.50488 1.4209-.00278.1602.03081.2361.0498.2657.01191.0184.04386.0618.16504.0976 2.01203.5945 3.72453.4964 5.08003.0293.0104-.0459.0242-.1359.0088-.2842-.0401-.3853-.2279-.9313-.542-1.5107-.3096-.5711-.7097-1.1141-1.1171-1.50294-.4347-.41462-.7587-.54176-.9219-.54199M16.5 1.25c.2696 0 .5185.08633.7227.23145l1.7431.69726.9756-.4873.1572-.06641c.7921-.27233 1.6511.31278 1.6514 1.18359V21.5c0 .6904-.5596 1.25-1.25 1.25h-16c-.69036 0-1.25-.5596-1.25-1.25V2.80859c.0003-.92892.97763-1.53252 1.80859-1.11718l.94043.46972 1.66602-.83203.08008-.03418a.7497.7497 0 0 1 .58984.03418L10 2.16113l1.665-.83203.0801-.03418a.7498.7498 0 0 1 .5899.03418L14 2.16113l1.665-.83203.0791-.03418A.75.75 0 0 1 16 1.25zm-2.165 2.4209a.75.75 0 0 1-.67 0L12 2.83789l-1.665.83301a.7499.7499 0 0 1-.66996 0L8 2.83789l-1.66504.83301a.7498.7498 0 0 1-.66992 0L4.75 3.21289V21.25h11.5V2.75h-.0732zm5 0a.7498.7498 0 0 1-.6133.02539l-.9717-.38867V21.25h2.5V3.21289z"/>
</svg>
