<svg xmlns="http://www.w3.org/2000/svg" width="24" height="24" viewBox="0 0 24 24">
  <path fill="currentColor" d="M12 7.25c1.5186.00024 2.75 1.23136 2.75 2.75 0 1.5186-1.2314 2.7498-2.75 2.75-1.5186-.0002-2.74999-1.2314-2.74999-2.75 0-1.51864 1.23139-2.74976 2.74999-2.75m0 1.5c-.6901.00024-1.25.55979-1.25 1.25s.5599 1.2498 1.25 1.25c.6902-.0002 1.25-.5598 1.25-1.25S12.6902 8.75024 12 8.75m4.4678-7.5c.7208.00025 1.293.60866 1.248 1.32812l-.9375 14.99998c-.0102.1633-.0527.3173-.1191.4571.0577.1438.0908.3004.0908.4648v3c0 .6902-.5598 1.2498-1.25 1.25H8.50001c-.69016-.0002-1.25-.5598-1.25-1.25v-3c0-.1642.0313-.3212.08886-.4648-.0662-.1397-.10697-.294-.11718-.4571l-.9375-14.99998c-.04495-.71946.52723-1.32787 1.24804-1.32812zm-7.71779 20H15.25v-2.5h-.5v.75c0 .6902-.5598 1.2498-1.25 1.25h-3c-.69015-.0002-1.24999-.5598-1.24999-1.25v-.75h-.5zm1.99999-2h2.5v-.5h-2.5zm-2.04491-2h6.59081L15.374 16H8.62696zm-.17188-2.75h6.93459l.5937-9.5H7.93946zm-.6875-11h8.30959l.0469-.75H7.79883z"/>
</svg>
