<svg xmlns="http://www.w3.org/2000/svg" width="24" height="24" viewBox="0 0 24 24">
  <path fill="currentColor" d="M5.59766 16.6875c.22129-.3496.6974-.4771 1.06348-.2842L7.79102 17c.36567.1934.48317.6335.2627.9834-.22111.3501-.69721.4772-1.06348.2842l-1.12988-.5957c-.36614-.1934-.48385-.6343-.2627-.9844M14.8555 2.15724c1.2117-.26888 2.4228-.23536 3.4482.30567 1.0198.53826 1.7699 1.58074 2.2637 2.77246.5008 1.20871.7775 2.6607.7851 4.14453.0131 2.5724-.7938 5.4287-2.8906 7.2666-.3094.4082-.7299.6874-1.2012.8604-2.3679 1.4706-4.6928 2.9106-6.83 3.7812-2.2123.901-4.4272 1.2767-6.36038.2568-.93487-.4933-1.59397-1.1613-1.97071-1.9892-.37278-.8194-.44493-1.743-.30859-2.7178.26951-1.9262 1.37417-4.197 2.91211-6.6318 1.58689-2.51208 3.99578-4.88926 6.44627-6.42874 1.2259-.77004 2.4957-1.35144 3.7061-1.62012m2.6474 1.57325c-.5947-.31373-1.3798-.37902-2.3447-.16504-.9669.21462-2.0584.69898-3.1797 1.40332-1.4887.93521-2.97458 2.22302-4.23435 3.66015-.01401.08311-.0412.16691-.08789.2461-.16403.27787-.1812.70517.1289 1.23828.30601.5257.89142 1.0657 1.70508 1.4531.37344.1782.50618.6124.2959.9688-.21054.3563-.68474.5006-1.0586.3232-1.03583-.4932-1.85268-1.213-2.31738-2.0117-.05493-.0944-.10568-.1912-.15137-.29-.0777.1162-.15464.2326-.22851.3496-1.51386 2.3967-2.47714 4.4494-2.70313 6.0644-.11122.7954-.0385 1.4475.20118 1.9746.23601.5187.6572.9693 1.34277 1.3311 1.30781.69 2.93315.5245 4.98828-.3125 1.42152-.5791 2.95182-1.4406 4.58792-2.4297-.5621-.1505-1.1278-.3827-1.6651-.6953-.3576-.2084-.4608-.6557-.2295-.999.2315-.3431.7096-.4531 1.0674-.2452.8216.4781 1.6707.6932 2.3535.6856.2592-.003.4776-.0368.6582-.0908.0201-.0125.0415-.0247.0616-.0371.2134-.1327.415-.2797.6054-.4375.0493-.0571.107-.1055.169-.1455 1.6019-1.4386 2.3389-3.756 2.333-6.0977-.4773.22369-1.0223.32588-1.5615.33203-1.0146.01136-2.1411-.30007-3.1661-.89649-.3574-.20853-.4598-.65575-.2285-.99902.2316-.3429.7097-.45208 1.0674-.24414.8215.47791 1.6708.69222 2.3535.68457.6954-.00807 1.0951-.23431 1.2696-.49316.0337-.04992.0741-.09402.1171-.13379-.1164-.69331-.2955-1.34433-.5332-1.91797-.4341-1.04775-1.0155-1.75616-1.6162-2.07324"/>
</svg>
