<svg xmlns="http://www.w3.org/2000/svg" width="24" height="24" viewBox="0 0 24 24">
  <path fill="currentColor" d="M15.7217 13.6885c.2761 0 .5.2238.5.5-.0001.276-.224.5-.5.5-.9566.0002-1.7324.7758-1.7324 1.7324-.0002.276-.224.5-.5.5-.2759-.0002-.4999-.2241-.5-.5 0-1.5089 1.2235-2.7322 2.7324-2.7324m1-10.9717c2.7768 0 5.0283 2.25152 5.0283 5.02832-.0001 1.28641-.3806 2.31468-1.1836 3.18748.1188.4285.1836.8795.1836 1.3457-.0001.7508-.1666 1.4641-.4629 2.1055.2958.6405.4628 1.3528.4629 2.1045-.0003 2.7764-2.2509 5.0271-5.0273 5.0273-2.7767 0-5.0281-2.2507-5.0284-5.0273.0001-.7519.166-1.4649.4619-2.1055-.2959-.6411-.4618-1.3545-.4619-2.1045 0-1.2049.4241-2.31069 1.1309-3.17674-.1607-.5159-.1309-.89991-.1309-1.35644 0-2.77664 2.2508-5.02806 5.0274-5.02832m-.999 10.2432c-1.9483 0-3.5282 1.5801-3.5284 3.5283.0003 1.9481 1.5801 3.5273 3.5284 3.5273 1.9479-.0002 3.527-1.5793 3.5273-3.5273-.0002-1.948-1.5793-3.5281-3.5273-3.5283m0-4.21c-1.9484 0-3.5284 1.58-3.5284 3.5283.0001.1985.0165.3929.0479.5821.2309-.2216.4831-.4211.7529-.5958-.0019-.0179-.0058-.0362-.0058-.0546.0002-1.5088 1.2237-2.7322 2.7324-2.73246.276 0 .4998.22404.5.5 0 .27616-.2239.49996-.5.49996-.7949.0003-1.4633.5366-1.667 1.2666.522-.1835 1.0833-.2841 1.668-.2841 1.35.0001 2.5744.5342 3.4775 1.4004.0314-.1893.0498-.3835.0498-.5821 0-1.9482-1.5792-3.52803-3.5273-3.5283m.999-4.5332c-1.9482.00026-3.5274 1.5801-3.5274 3.52832 0 .06836-.0007.13053-.0009.1875.2541-.14827.5217-.27649.8017-.37891.0646-1.45163 1.2591-2.60912 2.7266-2.60937.276 0 .4998.22398.5.5 0 .27614-.2239.5-.5.5-.8263.00022-1.5165.57934-1.6895 1.35351.2258-.03101.4562-.04785.6905-.04785 1.7079.00016 3.2154.85321 4.124 2.15527.2723-.46218.4032-.99224.4033-1.66015 0-1.94838-1.5799-3.52832-3.5283-3.52832m-8.7676-.9795a.7503.7503 0 0 1 .64942.375.7503.7503 0 0 1 0 .75L6.53027 7.95117c1.81983.25763 3.2196 1.821 3.21973 3.71193v1.167c-.00006 1.8002-1.26901 3.3025-2.96094 3.665l1.81446 3.1426a.7503.7503 0 0 1 0 .75.7505.7505 0 0 1-.64942.375H3.6377a.75002.75002 0 0 1-.64942-1.125l1.81348-3.1426c-1.69147-.3629-2.95991-1.8652-2.95996-3.665v-1.167c.00013-1.8906 1.39939-3.45389 3.21875-3.71193L2.98828 4.3623a.75.75 0 0 1 0-.75c.134-.23195.38153-.375.64942-.375zM4.93652 19.2627h1.71875l-.85937-1.4893zm.65528-9.84961c-1.24255 0-2.24986 1.00751-2.25 2.25001v1.167c.00006 1.2426 1.0074 2.25 2.25 2.25H6c1.2426 0 2.24993-1.0074 2.25-2.25v-1.167C8.24985 10.4206 7.24255 9.41309 6 9.41309zm.2041-3.18653.85937-1.48926H4.93652z"/>
</svg>
