<svg xmlns="http://www.w3.org/2000/svg" width="24" height="24" viewBox="0 0 24 24">
  <path fill="currentColor" d="M17.792 1.91111c1.1996-.16273 2.4228.12502 3.2978 1 .8747.87508 1.1619 2.0974.9991 3.29688-.1629 1.19886-.7755 2.42189-1.7666 3.41308l-9.1836 9.18263c-.2279.2279-.5767.2852-.8653.1416-1.15397-.5752-2.02637-1.149-2.76461-1.8399-1.01705.5836-1.51318 1.1367-1.7041 1.6075-.17559.4335-.14012.9172.21191 1.5185.00274.0047.00618.01.00879.0147.06015.1075.28248.3422.82227.5468.52181.1977 1.27652.3418 2.27343.3233 1.99281-.0372 4.89951-.7221 8.69731-2.8037.3631-.1984.8221-.0675 1.0253.2929.2032.3606.073.8136-.29 1.0127-3.9487 2.1643-7.0943 2.9464-9.3955 2.9893-1.14919.0213-2.10305-.1421-2.84179-.4219-.71313-.2702-1.30043-.6811-1.60254-1.2129-.52541-.8976-.69661-1.8661-.3086-2.8232.34002-.8383 1.0666-1.554 2.08301-2.1797-.49001-.6388-.93512-1.3621-1.41406-2.209-.16571-.2933-.11614-.6612.12207-.8994l9.18361-9.18359c.991-.99088 2.2134-1.60372 3.4121-1.7666m2.7363 2.96875c-.2035 1.14272-.8084 2.2897-1.7324 3.21387L9.87402 17.0146c.18498.1133.38218.2271.59278.3408l8.7949-8.79487c.78-.78011 1.2259-1.70848 1.3408-2.55372.0554-.40809.0329-.78667-.0576-1.12207-.0054-.00144-.0111-.00345-.0166-.00488m-1.5429.03711c-.7113.18551-1.4575.5944-2.1143 1.25098L7.81152 15.2265c.14868.1846.29947.359.45801.5235.12132.1258.24885.2472.38184.3662l9.08403-9.08302c.6569-.65712 1.0645-1.40458 1.25-2.11621m-.1133-1.51465c-.271-.04388-.5662-.04618-.878-.0039-.8452.11485-1.7735.55986-2.5537 1.33984L6.66406 13.5156c.09394.16.18877.3115.2793.458l8.86714-8.8662c.8834-.8831 1.9695-1.47653 3.0616-1.70508"/>
</svg>
