<svg xmlns="http://www.w3.org/2000/svg" width="24" height="24" viewBox="0 0 24 24">
  <path fill="currentColor" d="M17.0713 9.51079c.2034.00001.3987.08322.54.2295.1409.1463.2171.34381.21.54691-.007.1951-.0177.402-.0264.6181.7186.0318 1.5543.0957 2.2656.2871.4529.1219.928.3142 1.2998.6397.3981.3488.6532.8331.6534 1.4365v.4492c0 .1601.0213.8816-.0371 2.3799-.0281.712-.3973 1.2273-.9043 1.5547-.4682.3021-1.05.4466-1.5928.5244-.8573.1229-1.9049.1071-2.6563.1094-.2512.8191-.5755 1.5823-1.0058 2.2002-.5743.8243-1.3779 1.4426-2.4473 1.5166l-.2168.0078H6.62304l-.21679-.0078c-1.06922-.0742-1.87308-.6924-2.44727-1.5166-.5984-.8593-.99498-1.9987-1.26953-3.1807-.55098-2.3725-.66937-5.1937-.73438-7.0185-.00709-.203.06914-.40063.20997-.54691.14123-.14636.33666-.22937.54003-.2295zM3.4873 11.0108c.07405 1.7697.21812 4.0389.66309 5.9551.25758 1.1089.6013 2.033 1.04004 2.6631.37176.5336.77293.8087 1.23242.8691l.20019.0127h6.53026c.545-.0001 1.0078-.2721 1.4326-.8818.4389-.6301.7824-1.554 1.0401-2.6631.0321-.1384.0617-.2792.0908-.4209l.335-2.2071c.1284-1.1659.1954-2.3263.2373-3.3271zm14.0635 3.4463c-.0855.7792-.1981 1.569-.3506 2.3252.6875.0007 1.4029.0043 2.0664-.0908.4662-.0669.7943-.1722.9922-.2998.1563-.101.2103-.1956.2178-.3458v-.4267c0-.0035.0009-.0078.0009-.0117v-.0157l.0362-2.3251c-.0005-.1357-.0424-.2197-.1416-.3067-.1266-.1107-.3518-.2252-.7012-.3193-.5227-.1407-1.1649-.1975-1.8086-.2295zm-5.8614-8.54787c.2928-.29247.7677-.29229 1.0606 0 .7235.7237.7236 1.89844 0 2.62207-.2928.29211-.7678.29228-1.0606 0-.2927-.29274-.2924-.76859 0-1.06152.1375-.13778.1374-.36119 0-.49902-.2925-.29287-.2926-.76872 0-1.06153M7.65136 4.5899c.29289-.29266.76772-.29276 1.06055 0 .29266.29283.29263.76769 0 1.06054-.35947.35964-.35958.94316 0 1.30274.29263.29289.29275.76772 0 1.06054-.29283.29267-.76768.29261-1.06055 0-.94536-.94536-.94526-2.4784 0-3.42382m2.07129-2c.29285-.2928.76765-.29264 1.06055 0 .9848.985.9849 2.58244 0 3.56738-.2929.29244-.7678.2926-1.06055 0-.29276-.29276-.2925-.76762 0-1.06055.39915-.39915.39905-1.04707 0-1.44629-.29258-.29286-.29265-.76772 0-1.06054"/>
</svg>
