<svg xmlns="http://www.w3.org/2000/svg" width="24" height="24" viewBox="0 0 24 24">
  <path fill="currentColor" d="M10.9502 4.67193c.5696-1.29213 1.9667-1.69608 3.127-.87207.4862.3455 1.0421.96544 1.4511 1.56543-.0015-.23052-.0145-.41036-.04-.54102-.004-.02059-.009-.03863-.0127-.05371-.2617-.15259-.4175-.45406-.3643-.7705.069-.40802.4562-.68267.8643-.61426.3461.0582.5878.26924.7353.49316.1371.20802.2086.44537.25.65723.0448.2288.0636.49035.0674.77344.0917-.05062.185-.09821.2774-.14356.663-.32538 1.4787-.59489 2.0869-.65234 1.4169-.13355 2.4242.91448 2.2715 2.31836-.1541 1.41426-1.3844 2.44994-2.7315 2.46972-.3717.00535-.753-.09722-1.083-.22656-.3406-.13357-.6814-.3176-.9824-.52148-.0597-.04046-.1178-.08382-.1758-.12696-.1118.63207-.247 1.30463-.3994 1.99899.5575-.2299 1.1606-.4051 1.6367-.45016 1.4169-.13355 2.4252.91446 2.2725 2.31836-.1541 1.4144-1.3852 2.4501-2.7324 2.4697-.3718.0054-.753-.0971-1.0831-.2265-.3388-.1329-.6767-.316-.9765-.5186-.1305.4869-.2646.9733-.4014 1.4541.6363-.1055 1.3608-.123 1.8955-.0098 1.3823.293 2.1357 1.6764 1.7735 3.0284-.366 1.3643-1.6768 2.0711-2.9707 1.6816-.3557-.1072-.7008-.3271-.9903-.5576-.2652-.2112-.5219-.4633-.751-.7246-.2032.6202-.4007 1.2027-.5917 1.7304-.141.3893-.5707.5918-.96.4512-.3892-.141-.5918-.5716-.4512-.9609.1711-.4727.3472-.9923.5293-1.544-.2928.093-.5971.1687-.8916.2129-.3657.0549-.7742.0732-1.1357-.0117-1.31544-.3096-2.09777-1.5777-1.73245-2.9424.30414-1.135 1.30035-1.8927 2.40725-1.8486-.9835-.55-1.60136-1.7112-1.44534-2.875.1901-1.41632 1.40424-2.07494 2.68754-1.65723.3543.11549.7151.34475 1.0273.58593.322.2488.6425.5488.9248.8574.0848.0927.1667.1897.2471.2871.0773-.3268.1544-.6495.2246-.9668.1412-.63776.2645-1.24867.3691-1.8193-.2855.09149-.6096.14876-.9306.17188-.3625.02604-.7488.01457-1.1104-.04004-.3504-.053-.7316-.15429-1.0508-.34473-1.1567-.69051-1.7053-2.20303-1.1318-3.50488m5.6855 12.27147c-.3314-.0701-.9339-.0631-1.4853.0459-.252.0499-.4549.1149-.5928.1797.0046.0099.0083.0212.0137.0322.086.1745.2333.3957.4258.625.1906.2271.4087.4416.6181.6084.219.1743.386.2621.4786.2901.4988.1502.9944-.0998 1.1464-.666.1554-.5797-.1531-1.0196-.6045-1.1153m-5.3632-1.4375c-.4386-.1425-.9258.0847-1.0811.6641-.1513.5662.1533 1.03.6602 1.1494.094.0221.2827.0297.5595-.0117.2648-.0397.5603-.1165.8389-.2178.2815-.1024.5199-.22.6816-.3281.0104-.007.0194-.0152.0284-.0215-.087-.1251-.2306-.2821-.4239-.4512-.4231-.3702-.9415-.6782-1.2636-.7832m2.5205-1.2558c-.4639.0834-.9994.1113-1.4785.0683.424.2162.8641.5173 1.2246.8301.085-.2977.171-.5973.2539-.8984m4.0957-2.7901c-.3544.0335-.9703.2221-1.5147.4893-.2097.1029-.3818.2058-.5088.2969-.0061.0247-.0124.0494-.0185.0742.1165.1317.2912.2851.5088.4326.231.1565.4879.293.7295.3877.252.0988.4406.1333.5459.1318.5611-.0082 1.0103-.4075 1.0703-.957.0608-.5602-.3042-.9034-.8125-.8555m-5.7071-.5283c-.5478-.1783-.9895.0934-1.0625.6348-.0739.5517.2629 1.0328.7627 1.1523.343.0819.9403.089 1.4707-.0088.2327-.0429.4196-.1017.5479-.1621-.0015-.0025-.0034-.0052-.0049-.0078-.107-.1807-.2813-.4101-.501-.6504-.2173-.2376-.4599-.4633-.6894-.6406-.239-.1846-.42-.2836-.5235-.3174m7.17-4.9336c-.3545.03361-.9696.22225-1.5137.48926-.2394.11753-.4303.23518-.5606.33496.0022.00261.0047.00514.0069.00781.1157.13812.3014.30257.5351.46094.231.15646.4871.293.7286.3877.2522.09887.4415.13332.5468.13183.561-.00832 1.0104-.40764 1.0703-.95703.0609-.56023-.3051-.90344-.8134-.85547m-5.9815-.89257c-.4163-.29568-.9044-.18078-1.1318.33496-.2226.50573-.0325 1.07566.4492 1.36328.0905.0539.2706.11871.5381.15918.2564.03874.5469.04832.8252.02832.2813-.02027.5241-.06917.6933-.13086.0035-.00126.0075-.00266.0108-.00391-.0629-.15154-.1688-.34881-.3174-.57031-.3379-.50364-.7772-.9745-1.0674-1.18066M3.80665 12.6114c.69488-1.3943 2.37902-1.8222 3.73144-1.0567 1.36409.7725 1.75716 2.3735.98047 3.6524-.21173.3484-.54491.6584-.88086.9111-.34618.2604-.74687.4974-1.14551.6875-.39557.1886-.8165.3451-1.20605.4258-.33923.0702-.85057.1268-1.27149-.1113l-.15527-.1045c-.33206-.2652-.46495-.6647-.52637-.9453-.07901-.3615-.09152-.7756-.06836-1.1729.04581-.784.24292-1.6856.542-2.2861m2.95312.2256c-.65661-.3717-1.31642-.1383-1.58691.4043-.18328.3681-.35313 1.06-.3916 1.7177-.01886.3236-.00191.5948.03906.7823.00575.0262.01215.0484.01758.0674.03819-.0039.08911-.0112.15332-.0245.23225-.0481.53214-.1528.85058-.3047.31538-.1504.62379-.3362.87793-.5273.26425-.1988.42418-.3709.49317-.4844.3455-.569.19159-1.2655-.45313-1.6308M3.21973 4.62896c.68289-1.396 2.3144-1.9947 3.67578-1.2373.58609.3263 1.25833.9574 1.73926 1.57812.24381.31473.46721.66385.60645 1.00684.10796.26615.22361.6707.09961 1.07715l-.06836.17383c-.21254.43464-.66669.67667-.98633.81054-.36701.15362-.80242.26399-1.23535.33203-.43629.06854-.90126.09916-1.33399.08008-.41986-.01857-.86973-.08622-1.24121-.2539-1.36362-.61586-1.94432-2.15906-1.25586-3.56739m2.9043.05371c-.52974-.29448-1.20555-.11402-1.53711.56348-.3255.6659-.05885 1.32836.54785 1.60254.12109.05458.35054.10651.68067.12109.3177.014.67725-.00829 1.02246-.0625.34836-.05474.65427-.13794.87304-.22949.06054-.02535.10691-.04699.14063-.06543-.00628-.01879-.01332-.04144-.02344-.06641-.07217-.17778-.21168-.41073-.41016-.66699-.40368-.52095-.93465-.99633-1.29394-1.19629"/>
</svg>
