<svg xmlns="http://www.w3.org/2000/svg" width="24" height="24" viewBox="0 0 24 24">
  <path fill="currentColor" d="M9.53028 1.97749c2.06042.0115 4.11002.3275 6.63772.917l.1699.05175c.3826.14917.6751.48182.7656.89454l.2344 1.12793c.1508.77128.2707 1.50104.3633 2.2041.9594.04437 1.9616.10739 3.0566.18945l.1231.01465c.6052.10574 1.0494.64229 1.0322 1.26562l-.044 1.69437c-.0894 3.7891-.0881 6.5539.0362 10.7871.0246.852-.7877 1.471-1.5957 1.2451-2.4467-.6855-4.3456-1.0082-6.1729-1.0029-1.8249.0052-3.6214.3371-5.86326 1.0127-.73285.2205-1.51214-.2627-1.60742-1.045-.18596-1.5332-.30576-2.8789-.37012-4.1269-.84048.1565-1.72459.3763-2.6914.6621-.88381.261-1.7488-.4901-1.60157-1.4072.78845-4.9081.9076-7.77294-.0205-12.12991-.13945-.65563.26256-1.32198.93359-1.48047 2.51113-.59246 4.55213-.88545 6.61426-.87403M20.4082 8.84078c-4.4123-.32359-7.2908-.33095-12.24902.01074-.48863 4.24138-.61123 7.12838-.0371 12.00978 2.20292-.6468 4.07412-.9896 6.01072-.9951 1.9311-.0055 3.8885.3241 6.2656.9726-.1302-4.5959-.1131-7.4969.0098-11.99802M9.52149 3.47749c-1.84251-.01019-3.69489.24284-6.02246.78028.90058 4.35163.7843 7.35263.04394 12.07033.94844-.2702 1.83806-.4841 2.70118-.6358-.03911-2.399.13568-4.5539.44726-7.22262.06982-.59792.55732-1.05971 1.1543-1.10156 3.35859-.23527 5.78919-.31587 8.33399-.25098-.1222-.86681-.2896-1.78778-.5078-2.79785-2.3956-.55205-4.2842-.83142-6.15041-.8418"/>
</svg>
