<svg xmlns="http://www.w3.org/2000/svg" width="24" height="24" viewBox="0 0 24 24">
  <path fill="currentColor" d="M15.6914 11h-1v-1h1zM8.5 10.5h-1v-1h1zm3-1h-1v-1h1zm6.542-.75195h-1v-1h1zM6.79785 8.5h-1v-1h1zm7.69535 0h-1v-1h1zM19.5 5.25c.6904 0 1.25.55964 1.25 1.25v4.8613H22c.4142 0 .75.3358.75.75-.0001 3.6664-2.9723 6.6386-6.6387 6.6387H7.88867c-3.66638-.0001-6.63855-2.9723-6.63867-6.6387 0-.4142.33579-.75.75-.75h1.25V6.5c0-.69036.55964-1.25 1.25-1.25zM2.80566 12.8613c.3632 2.4824 2.49987 4.3886 5.08301 4.3887h8.22263c2.5832-.0001 4.7198-1.9063 5.083-4.3887zm1.94434-1.5h14.5V6.75H4.75z"/>
</svg>
