<svg xmlns="http://www.w3.org/2000/svg" width="24" height="24" viewBox="0 0 24 24">
  <path fill="currentColor" d="M14 12.1943c.5824 0 1.0353.3275 1.3457.6641.3166.3434.5716.7854.7686 1.2285.3909.8797.6357 1.9476.6357 2.71-.0004 1.5488-1.182 2.8974-2.75 2.8974s-2.7496-1.3486-2.75-2.8974c0-.755.2454-1.8226.6357-2.7031.1967-.4436.4506-.8869.7666-1.2315.3096-.3373.7635-.668 1.3477-.668m-.0088 1.502c-.0073.0021-.022.007-.043.0185-.0442.0245-.1095.0731-.1904.1612-.1657.1806-.3407.4647-.501.8261-.3236.7302-.5068 1.5899-.5068 2.0948.0004.8229.6094 1.3974 1.25 1.3974s1.2496-.5745 1.25-1.3974c0-.5134-.1837-1.3735-.5068-2.1006-.1601-.36-.3348-.642-.5-.8213-.0807-.0875-.1462-.1358-.1905-.1602-.0208-.0114-.0354-.0164-.0429-.0185-.0066-.0018-.0098-.002-.0098-.002h-.002s-.0037.0011-.0068.002M12.6523 1.77051c2.1487.00002 3.4495.86134 4.1885 2.02929.6958 1.10021.8334 2.38673.9053 3.12793.0203.21039-.0484.42063-.1904.57715-.1021.11234-.2358.18801-.3809.22266.6187 1.29179 1.2096 2.93406 1.6856 4.64746.6285 2.2629 1.0797 4.7222 1.125 6.7588.0423 1.9186-1.6364 3.1083-3.3311 3.0889l-6.2598-.0723c-2.05387-.0237-3.7068-1.696-3.707-3.75v-2.2139c.00019-1.4306.84329-2.6437 2.1084-3.2246.59011-.271 1.19063-.589 1.6592-.9492.4842-.3724.721-.7092.7773-.9863.1572-.7756.1622-1.74372.1192-2.55081-.0145-.27097-.0353-.51819-.0547-.72559h-.6221c-.3475 1.71166-1.86059 3-3.6748 3-.41409 0-.7498-.336-.75-.75.0002-.41405.33591-.75.75-.75.97933 0 1.81001-.62657 2.11914-1.5H6.56641c-.4141 0-.74981-.33595-.75-.75V2.52051c0-.41422.33578-.75.75-.75zm.1963 6.625c.0451.84506.05 1.96529-.1455 2.92969-.164.808-.7487 1.4269-1.334 1.8769-.6011.4622-1.3207.8354-1.94722 1.1231-.76793.3526-1.23419 1.0549-1.23438 1.8613v2.2139c.0002 1.2322.99151 2.2356 2.2236 2.25l6.2608.0723c1.0791.0122 1.8322-.701 1.8135-1.5557-.0416-1.8705-.4619-4.199-1.0704-6.3897-.5526-1.9894-1.2459-3.80685-1.9121-5.0273h-2.7002c.0166.19269.0334.41081.0459.64551M7.31641 6.25h8.83109c-.0944-.55634-.2548-1.14339-.5743-1.64844-.442-.69863-1.2439-1.33103-2.9209-1.33105H7.31641z"/>
</svg>
