<svg xmlns="http://www.w3.org/2000/svg" width="24" height="24" viewBox="0 0 24 24">
  <path fill="currentColor" d="M7.7168 8.08402c.37332.00003.73669.03755 1.02832.11035.13999.03497.30654.08855.45605.17676.09917.05855.4627.29141.46289.76172 0 .47055-.3637.70412-.46289.76269-.1495.08819-.31608.14176-.45605.17676-.29163.0728-.65499.1103-1.02832.1104-.37349-.0001-.7376-.0375-1.0293-.1104-.13999-.035-.30663-.08855-.45605-.17676-.09953-.05879-.4629-.2925-.4629-.76269.00019-.46995.3634-.70294.4629-.76172.14943-.08824.31604-.14176.45605-.17676.2917-.07285.65581-.11033 1.0293-.11035m10.8584-3.93164c.9528-.01772 1.8814.32818 2.707 1.12207.2594.24941.3056.64758.1094.94922l-.4551.69922 1.4346 1.29004c.1833.16503.2731.40972.2412.65429-.0321.24461-.1817.45892-.4014.57129l-.9306.47461 1.0849.95708c.1698.1497.2626.3685.253.5947-.0099.2259-.121.4357-.3028.5703l-1.0781.7969 1.0645.7509c.2016.1424.3203.3753.3173.6221-.0031.2467-.128.4769-.333.6143l-1.6093 1.0771c-.2043.3542-.6543.4807-1.0127.2813-.9298-.5177-2.0225-.2547-3.2002.584-1.1595.8257-2.1946 2.078-2.8155 3.038-.0481.0744-.1092.1347-.1757.1856-.1115.1595-.2442.3-.3838.4189-.3619.3082-.8422.5514-1.3692.7412-1.0604.382-2.47566.6045-4.0029.6045-1.52744 0-2.94346-.2225-4.00391-.6045-.5268-.1898-1.00638-.4331-1.36816-.7412-.35882-.3056-.68064-.7471-.68067-1.3144V9.43558h.03418c-.00659-.03128-.01495-.06252-.01953-.09472l-.01465-.20704.01465-.20703c.06643-.46861.35209-.83998.66602-1.10742.36182-.30812.84125-.55236 1.36816-.74219 1.06044-.38197 2.4765-.60349 4.00391-.60351 1.52712.00003 2.9426.22167 4.0029.60351.5099.1837.9756.41872 1.333.7129.7577-.97994 1.7872-2.05432 2.9405-2.77735.7739-.4851 1.6558-.84298 2.582-.86035M12.2686 10.961a6.11 6.11 0 0 1-.5489.2285c-1.0603.3819-2.47575.6045-4.0029.6045-1.52736 0-2.94348-.2226-4.00391-.6045a6.1 6.1 0 0 1-.54883-.2285v8.1191c.00297.0119.02615.0743.15332.1826.17476.1487.47232.3161.9043.4717.85856.3092 2.09439.5156 3.49512.5156s2.6366-.2064 3.4951-.5156c.4321-.1557.7296-.3229.9043-.4717.1204-.1025.1472-.1644.1524-.1806zm6.3349-5.3096c-.5607.01058-1.1757.2331-1.8135.63282-1.2302.77131-2.3575 2.0855-3.0507 3.12304-.0018.00952-.0039.01889-.0059.02832h.0352v7.76072c.5382-.5959 1.1566-1.1801 1.8252-1.6562 1.2071-.8597 2.7505-1.4806 4.2822-.9121l.6689-.4483-1.0195-.7187c-.1963-.1387-.3145-.3641-.3174-.6045-.0027-.2404.1107-.4681.3037-.6113l1.1651-.8633-1.2149-1.0713c-.1859-.164-.2788-.41026-.248-.65627.0309-.24587.1819-.46107.4023-.57422l.9404-.48144-1.0996-.98926c-.2742-.24683-.3288-.65735-.1279-.9668l.4316-.66406c-.3913-.24292-.7778-.33413-1.1572-.32715M7.7168 7.97367c-1.40061.00002-2.63657.20548-3.49512.51465-.43205.15566-.72957.32395-.9043.47265-.10499.08948-.13998.14783-.15039.17188.00991.02345.04382.08206.15039.17285.17474.14873.47211.31696.9043.47266.85855.30914 2.09449.51564 3.49512.51564 1.40065 0 2.6366-.2064 3.4951-.51564.4321-.15566.7296-.32395.9043-.47266.1056-.09001.1383-.14906.1484-.17285-.0107-.02441-.0442-.08311-.1484-.17188-.1747-.14875-.472-.31693-.9043-.47265-.8585-.30922-2.09438-.51462-3.4951-.51465"/>
</svg>
