<svg xmlns="http://www.w3.org/2000/svg" width="24" height="24" viewBox="0 0 24 24">
  <path fill="currentColor" d="M9.5039 10.8428c.48292-.4829 1.3553-1.10385 2.3965-.6739.6722.2778 1.0866.8444 1.2676 1.0254.0453.0453.1038.0955.1992.1739.0869.0713.2043.1666.3193.2754.2403.2272.5026.5404.6553.997.3334.9976-.1679 1.825-.6914 2.3487-.3544.3543-.9238.6036-1.4443.7138-.4997.1057-1.2286.1401-1.7823-.2763-.64462-.4852-.93219-.8115-1.35056-1.3497-.38312-.4933-.40666-1.1686-.32324-1.6787.08811-.5381.33156-1.1333.7539-1.5556m1.8232.7129c-.0925-.0381-.1766-.0382-.29.0058-.1331.0519-.2947.1639-.4726.3418-.1441.144-.2811.4203-.3331.7373-.0246.1509-.0255.2841-.0107.3848.0128.0868.0333.1249.0371.1318.3614.465.5575.6869 1.0684 1.0713.0262.0187.2029.0844.5693.0069.3483-.0738.6133-.2257.6943-.3067.3472-.3473.3986-.6017.3282-.8125-.0493-.147-.1321-.2602-.2618-.3828-.0111-.0105-.0237-.0199-.0351-.0303-.107.0449-.2249.0688-.3486.0586-.4126-.0343-.7206-.3969-.6866-.8096l.252.0206-.001-.001-.25-.0205.001-.003v-.0146c.0007-.0069.0018-.0149.0029-.0234.0023-.0175.0053-.0393.0098-.0635.0051-.0279.0154-.0606.0254-.0977-.086-.0813-.1693-.1398-.2989-.1933m7.2403-9.07426c.4881-.4877 1.2805-.48788 1.7685 0l1.5157 1.51563c.4877.48801.4875 1.27946 0 1.76758l-1.1719 1.1709c.214.34546.252.77933.083 1.16211l-.9717 2.20114c-.1304.2952-.3557.5071-.6182.628-.04.1245-.0979.2458-.1787.3564l-6.292 8.6094c-.021.0287-.0445.0556-.0673.082.116.4198.0104.8879-.3194 1.2178l-1.4931 1.4931c-.4881.4878-1.27953.4879-1.76761 0l-7.40723-7.4072c-.48793-.4881-.48783-1.2794 0-1.7676l1.49316-1.4931c.32965-.3295.79738-.4359 1.2168-.3203.02642-.0229.0542-.0454.08301-.0664l8.60937-6.29203c.111-.08107.2314-.14163.3564-.18164.1211-.26141.3337-.48523.628-.61524l2.2011-.97265c.3821-.16858.815-.13003 1.1602.083zM2.88476 14.3945l7.05371 7.0537 1.13963-1.1396-7.05369-7.0537zm2.67578-1.7246 6.10256 6.1026 5.9941-8.2012-3.8955-3.89552zm9.41306-6.90428 3.5928 3.59278.7559-1.70996-2.6387-2.63868zm3.5098-1.07812 1.1621 1.16211.9688-.96875-1.1622-1.16211z"/>
</svg>
