<svg xmlns="http://www.w3.org/2000/svg" width="24" height="24" viewBox="0 0 24 24">
  <path fill="currentColor" d="M12.2373 7.34277c.3541-.21453.8031-.09401 1.0029.26856.1934.35132.0817.80036-.247 1.02344.2107.0343.4175.07997.6172.13574.6189.00545 1.312.12124 2.0322.53906 1.6644.96603 2.1074 2.86893 2.1074 4.58693-.0001.9861-.4038 2.2762-1 3.3418-.3029.5413-.6747 1.0598-1.1045 1.4707-.4255.4067-.953.7501-1.5644.8506-1.7369.2852-2.6508.22-4.14848.0019-.55128-.0803-1.05054-.373-1.4668-.7324-.42224-.3647-.80426-.8366-1.125-1.3555-.63593-1.0289-1.09075-2.3421-1.09082-3.5771.00004-1.6581.36304-3.7474 2.1582-4.61427.51254-.24744 1.01751-.35953 1.48926-.4043.08448-.03124.16964-.06014.25484-.08594.3349-.10131.695-.17022 1.0625-.20801.1901-.50167.5354-.94598 1.0225-1.24121M7.90137 12.3545c-.10264.4514-.15136.97-.15137 1.542.00007.8989.3434 1.942.86621 2.7881.25868.4185.54697.7642.83008 1.0088.28916.2497.53117.3588.70211.3837 1.3915.2027 2.1445.2557 3.6895.002.2089-.0343.4722-.1691.7705-.4541.2938-.2809.5801-.6689.832-1.1191.5136-.918.8095-1.9547.8096-2.6094 0-.5067-.0449-.9724-.1357-1.3897-.1247.2149-.3287.3736-.587.4336l-.0986.0176c-.2306.03-.4612-.0148-.6074-.0488-.2024-.0472-.4259-.1208-.6484-.2041-.2156-.0808-.4449-.1772-.6749-.2813-.0488.1101-.0999.219-.1513.3184-.0884.1708-.2033.3671-.3496.5293-.1317.1458-.4004.3896-.8067.3896-.2927 0-.5603-.1297-.7197-.2177-.1892-.1045-.3825-.241-.5615-.3858-.1746-.1412-.356-.3069-.5235-.4834-.1028.049-.2132.0994-.3261.1455-.19725.0806-.42465.1602-.65726.209-.19565.0411-.43977.0703-.69336.0322l-.10937-.0205-.10059-.0283c-.22806-.0775-.41397-.2329-.53515-.4336-.0248-.0411-.04456-.083-.0625-.124m5.52733-2.083c-.2289.0075-.4533.0319-.6963.0596.0002.2667-.131.5283-.3711.6738-.3542.2144-.8032.0941-1.0029-.2686-.0619-.1126-.1119-.2295-.1553-.3476-.3354-.0162-.6276-.0361-.9062-.0332-.2077.094-.35301.1953-.43948.2929-.10994.1244-.26578.388-.38769.6729.29916-.124.56197-.2727.72947-.3604.3429-.1793.7766-.0592.9932.2754.1242.1918.3691.4535.6367.6699.0605.049.1181.092.1709.129.0028-.0053.006-.0112.0088-.0166.1397-.2704.2555-.5852.3994-.9239.0798-.1873.2354-.3316.4287-.3974.1931-.0655.4075-.0471.5928.0498.3507.1837.7356.3612 1.0762.497-.1337-.2543-.2868-.4826-.3946-.5957-.1229-.1288-.347-.2646-.6797-.3779zM16.5 1.25c1.2426 0 2.25 1.00736 2.25 2.25 0 .38218-.0965.74143-.2646 1.05664C19.8174 5.13202 20.75 6.45673 20.75 8v11c0 2.0711-1.6789 3.75-3.75 3.75H7c-2.07107 0-3.75-1.6789-3.75-3.75V8c0-1.54295.93205-2.86779 2.26367-3.44336C5.3457 4.24153 5.25 3.88201 5.25 3.5c0-1.24264 1.00736-2.25 2.25-2.25zM7 5.75C5.75736 5.75 4.75 6.75736 4.75 8v11c0 1.2426 1.00736 2.25 2.25 2.25h10c1.2426 0 2.25-1.0074 2.25-2.25V8c0-1.24264-1.0074-2.25-2.25-2.25zm.5-3c-.41421 0-.75.33579-.75.75s.33579.75.75.75H8v-1.5zm2 1.5H11v-1.5H9.5zm3 0H14v-1.5h-1.5zm3 0h1c.4142 0 .75-.33579.75-.75s-.3358-.75-.75-.75h-1z"/>
</svg>
