<svg xmlns="http://www.w3.org/2000/svg" width="24" height="24" viewBox="0 0 24 24">
  <path fill="currentColor" d="M12.6992 2.05767c.3599-.20487.8219-.08079 1.0313.27636.209.35741.0864.8127-.2735 1.01758-.5396.30738-.8939.80557-1.0322 1.35547.1607-.01501.3289-.02994.5049-.04883.479-.05142 1.0155-.11077 1.5742-.12793 1.1349-.03479 2.403.1039 3.7315.82813 2.7159 1.481 3.5116 4.44863 3.5117 7.31935-.0002 1.5641-.6907 3.6645-1.7334 5.416-.5271.8854-1.1644 1.7163-1.8858 2.3643-.7181.645-1.5594 1.1427-2.4883 1.2861-3.0428.4695-4.619.3646-7.26851.0019-1.62642-.223-3.15492-1.6306-4.23535-3.2734-1.10289-1.6772-1.8836-3.8111-1.88379-5.7949.00005-2.81146.6727-6.03285 3.56055-7.34377 1.87968-.85306 3.62218-.67506 5.0713-.60254.1484-1.08268.7855-2.08723 1.8154-2.67382m3.7735 4.18554c.4077.44651.833 1.13117 1.0898 1.74024.1389.32962.2653.72012.2734 1.08105.0041.18341-.0205.42322-.1484.64844-.1428.25113-.379.42106-.6641.48336-.2878.0628-.6133.0092-.8515-.0429-.2714-.0594-.5789-.15393-.8936-.26468-.4079-.14357-.8534-.32653-1.29-.52148-.1071.23977-.2238.48998-.3438.70796-.1247.2268-.2792.4707-.4668.6661-.1763.1836-.482.4276-.9121.4277l-.1201-.0059c-.2781-.0278-.5442-.1449-.7393-.2461-.2505-.13-.5144-.3037-.7636-.4931-.3089-.2349-.6293-.5202-.90627-.81741-.20707.09828-.45032.20758-.70313.30469-.27518.10572-.58333.20682-.8916.26762-.29927.0589-.6536.0919-1 .0175-.28946-.0623-.53791-.23235-.69922-.48336-.14455-.22521-.18774-.46504-.19726-.64844-.0186-.36093.07885-.75143.19336-1.08105.18966-.54566.50992-1.15214.84375-1.59375-.27528.07683-.5577.17711-.84961.30957-2.00343.90947-2.68062 3.23994-2.68067 5.97853.0002 1.6252.65539 3.4769 1.6377 4.9707 1.0049 1.5278 2.21287 2.4779 3.18555 2.6113 2.5493.3489 3.9737.4437 6.8359.002.5475-.0845 1.1295-.395 1.7139-.92.5812-.522 1.1282-1.2237 1.5996-2.0156.9543-1.603 1.5222-3.4375 1.5225-4.6484-.0001-2.67953-.7441-4.92029-2.7295-6.00295-.3527-.19228-.7011-.33202-1.0449-.43164m-3.8213.06153c.209.35741.0864.81269-.2735 1.01757-.3598.2046-.821.08175-1.0302-.27539-.1426-.24352-.2525-.4974-.3331-.75488-.3972.04311-.7763.11277-1.11812.20996-.61113.17383-1.04172.41353-1.27832.66504-.23982.25522-.57591.82542-.75976 1.35449-.02349.06763-.04318.12978-.0586.18555.19691-.03892.42031-.10891.6504-.19727.46568-.17889.87944-.40009 1.11621-.5166.33347-.16388.74709-.04885.96479.2666.203.29448.5859.67474.9932.98438.1991.15124.3849.2701.5342.34766.024.01244.0474.02049.0664.02929.0537-.06856.1226-.16721.1982-.30468.2088-.37961.385-.82957.587-1.27637.0812-.17937.2329-.31587.4199-.37988.1871-.06389.395-.04937.5771.04003.5963.29357 1.2613.57955 1.8233.77735.1831.06445.3508.11491.4961.15527a3.4 3.4 0 0 0-.045-.11133c-.223-.52907-.6007-1.09943-.8593-1.35449-.2566-.2527-.7052-.49348-1.3291-.66699-.4145-.11518-.8784-.1923-1.3604-.23047.0064.0113.012.0239.0186.03516"/>
</svg>
