<svg xmlns="http://www.w3.org/2000/svg" width="24" height="24" viewBox="0 0 24 24">
  <path fill="currentColor" d="M13.1357 1.66992c.4138.04806.7444.25656.9825.53223.2518.29181.3985.65206.4902.9707.1834.63733.2177 1.37179.2363 1.79395.0082.18595-.0543.36713-.1719.50976.3672.55003.824 1.34946 1.2139 2.27246.466 1.10325.8602 2.43708.8604 3.76168v8.042c.0176.534-.0405 1.3525-.2998 2.0674-.251.6913-.8133 1.5663-1.9278 1.5664H9.48046c-1.11449-.0001-1.67681-.8751-1.92773-1.5664-.25533-.7039-.31483-1.5077-.29981-2.042v-8.0674c.00018-1.3246.39434-2.65843.86035-3.76168.38962-.92226.84592-1.72149 1.21289-2.27148a.7516.7516 0 0 1-.17089-.51074c.01863-.42215.05392-1.15664.2373-1.79395.09173-.31855.23755-.67899.48926-.9707.23817-.27583.56927-.48435.98337-.53223l.1826-.01074h1.9043zM8.75292 19.5781c0 .008-.00069.0165-.00097.0244-.01381.4185.03839 1.0301.21093 1.5059.18128.4994.37461.578.51758.5781h5.03904c.143 0 .3363-.0786.5176-.5781.1725-.4758.2247-1.0874.2109-1.5059-.0002-.0079-.0009-.0164-.0009-.0244V19H8.75292zm0-2.0781h6.49418V13H8.75292zM10.8769 5.75c-.0192.10904-.0612.21605-.1308.31152-.3222.44093-.82821 1.27071-1.25099 2.27149-.42309 1.00167-.73985 2.12239-.74219 3.16699h6.49418c-.0024-1.0446-.3191-2.16532-.7422-3.16699-.4228-1.00078-.9288-1.83056-1.251-2.27149-.0696-.09544-.1106-.20252-.1299-.31152zm2.0752-2.59082h-1.9043c-.0021-.00045-.0006-.01085-.0302.02344-.0507.05883-.1202.18492-.1836.40527-.0584.20296-.0955.4319-.1221.66211h2.5762c-.0266-.23022-.0637-.45914-.1221-.66211-.0635-.22054-.1329-.34649-.1836-.40527-.0287-.03329-.0284-.02447-.0303-.02344"/>
</svg>
