<svg xmlns="http://www.w3.org/2000/svg" width="24" height="24" viewBox="0 0 24 24">
  <path fill="currentColor" d="M12 3.31347c1.3667-1.12652 3.4576-1.3202 5.1875-.75683 1.8962.61761 3.5623 2.21091 3.5625 4.7666 0 1.68438-.3857 3.10966-1.0605 4.11526-.4515.6723-1.0544 1.177-1.753 1.4033.1621.5926.2463 1.2566.2735 1.9258.0445 1.0984-.0585 2.3021-.2754 3.4199-.2157 1.111-.553 2.1832-1.0039 2.998-.4175.7543-1.091 1.5643-2.0733 1.5645-.6119 0-1.0313-.3705-1.2861-.7637-.2449-.3781-.4021-.8634-.5147-1.3515-.2268-.9847-.3328-2.2721-.4296-3.4815-.0999-1.2467-.1903-2.4169-.3721-3.2783-.0823-.3896-.1749-.6589-.2617-.8262-.0951.1689-.1979.4441-.292.8438-.2022.8594-.3191 2.0299-.4366 3.2715-.1142 1.2072-.2301 2.4872-.4404 3.4609-.1041.4819-.2441.9568-.457 1.3271-.2105.3659-.59818.7979-1.22462.7979-.48973-.0001-.89217-.2411-1.19043-.5205-.29911-.2803-.55308-.6518-.76758-1.0527-.4308-.8054-.77604-1.869-1.00977-2.9776-.2348-1.1139-.36561-2.3166-.34472-3.416.01279-.6712.08206-1.3406.23828-1.9395-.70072-.2255-1.30531-.7313-1.75781-1.4052-.67488-1.0056-1.0605-2.43089-1.06055-4.11526.00022-2.55569 1.66626-4.14899 3.5625-4.7666 1.72992-.56337 3.8208-.36969 5.1875.75683m4.7227.66993c-1.4749-.48027-3.0878-.19834-3.9288.63085-.1403.13839-.3302.2168-.5273.2168h-.5332c-.1971 0-.387-.07841-.5273-.2168-.841-.82919-2.45386-1.11112-3.92876-.63085C5.85513 4.44661 4.75021 5.55618 4.75 7.32324c.00005 1.47619.34123 2.58597.80664 3.27926.46077.6862.99468.9162 1.47266.8643.27821-.0301.55005.0971.70508.3301.15479.2333.1671.5344.03124.7793-.25856.4656-.41662 1.2437-.43554 2.2353-.01843.97.09761 2.0586.3125 3.0781.21611 1.0251.52367 1.9406.86523 2.5791.17143.3204.3335.5383.46973.6661.03392.0317.06319.0555.08691.0722l.00196-.0029c.09544-.1662.19755-.4583.29199-.8955.18695-.8659.29524-2.0399.41308-3.2852.1146-1.2109.23902-2.4944.46972-3.4746.1143-.4853.269-.9639.502-1.3369.2365-.3784.6416-.7744 1.2568-.7744.6207 0 1.023.4018 1.2529.7861.2248.376.3675.8574.4698 1.3418.2064.9782.3038 2.2629.4003 3.4688.0996 1.2427.1986 2.4088.3956 3.2636.0994.4313.2099.7147.3125.8731.0243.0375.0428.0613.0556.0752.1137-.0207.3851-.1615.7315-.7871.3479-.6289.6453-1.5346.8437-2.5567.1971-1.0156.2884-2.1033.249-3.0742-.0402-.9908-.2131-1.7776-.4765-2.2519-.1359-.2449-.1236-.546.0312-.7793.155-.233.4269-.3602.7051-.3301.478.0519 1.0119-.1781 1.4727-.8643.4654-.69329.8066-1.80307.8066-3.27926-.0002-1.76706-1.1051-2.87663-2.5273-3.33984"/>
</svg>
