<svg xmlns="http://www.w3.org/2000/svg" width="24" height="24" viewBox="0 0 24 24">
  <path fill="currentColor" d="M5 1.91504c.27189 0 .5228.14733.65527.38476l1 1.79297a.752.752 0 0 1 .09473.36524V20.4102c-.00019.1657-.05578.3268-.15723.458l-1 1.2929c-.14204.1834-.36083.291-.59277.291a.7503.7503 0 0 1-.53613-.2255l-.05664-.0655-1-1.2929c-.10145-.1312-.15704-.2923-.15723-.458V4.45801a.752.752 0 0 1 .09473-.36524l1-1.79297c.13247-.23743.38338-.38476.65527-.38476M4.75 4.6543v15.501l.25.3222.25-.3222V4.6543L5 4.20605zM9.5 1.91504c.27189 0 .5228.14733.6553.38476l1 1.79297a.752.752 0 0 1 .0947.36524V20.4102c-.0002.1657-.0558.3268-.1572.458l-1 1.2929c-.14207.1834-.36086.291-.5928.291a.7503.7503 0 0 1-.53613-.2255l-.05664-.0655-1-1.2929c-.10145-.1312-.15704-.2923-.15723-.458V4.45801a.752.752 0 0 1 .09473-.36524l1-1.79297c.13247-.23743.38338-.38476.65527-.38476M9.25 4.6543v15.501l.25.3222.25-.3222V4.6543l-.25-.44825zm8.6777-2.1211c.1894-.19507.4698-.27252.7325-.20215.2625.07045.4667.27747.5332.54102l.5019 1.98926c.0312.12379.0301.25461-.0029.37793l-1.3799 5.14744c.7133-.1993 1.509-.1704 2.1934.0381 1.146.3493 2.2439 1.2869 2.2441 2.8506-.0001.9451-.2315 1.7781-.666 2.3838-.2273.3165-.5178.5765-.8535.7431.0502.2554.0787.5188.0898.7745.0266.6126-.0345 1.2779-.1621 1.8935-.1264.6091-.3273 1.2172-.6084 1.6924-.2381.4022-.6621.9173-1.3096.9805l-.1328.0068-.1699-.0127c-.3806-.0557-.6509-.2933-.8164-.5322-.1749-.2528-.2765-.5599-.3438-.833-.136-.5528-.1972-1.2632-.2509-1.8907-.0163-.1901-.0355-.3739-.0518-.5488-.0202.1787-.0429.3665-.0625.5606-.0632.6249-.1301 1.327-.2549 1.8681-.0615.2664-.1517.5638-.3027.8096-.1351.2196-.3874.4983-.7832.5645l-.1787.0146-.1358-.0078c-.3081-.0354-.5578-.1868-.7392-.3457-.0276-.0242-.053-.0513-.0791-.0772l-.9463.7207c-.1846.1402-.4236.1879-.6475.128-.1957-.0525-.3606-.1821-.459-.3565l-.038-.0781-.6319-1.5078c-.0641-.1531-.0751-.3241-.0322-.4844l1.0059-3.7588c-.0991-.0986-.1904-.2076-.2735-.3232-.4345-.6057-.6659-1.4387-.666-2.3838.0002-1.5637 1.0981-2.5013 2.2441-2.8506.0654-.0199.132-.0381.1993-.0547l1.6181-6.03709c.0331-.12325.0977-.23653.1865-.32813zm-4.2295 17.3506.1573.3769.3213-.2461c-.107-.2913-.1973-.6024-.2686-.916zm6.3702-8.0244c-.7643-.2328-1.5467-.0737-1.9092.2607-.1385.1278-.3204.1992-.5088.1992h-.3008c-.1884 0-.3703-.0714-.5088-.1992-.3625-.3344-1.1449-.4935-1.9092-.2607-.7204.2195-1.1814.7048-1.1816 1.416.0001.7181.1779 1.2204.3848 1.5088.2002.2789.3967.3328.539.3183.2816-.0285.5557.1044.708.3428.1519.2385.157.5429.0127.7861-.0972.1641-.1832.4965-.1933.9932-.0096.4753.0518 1.018.167 1.5293.0963.4272.2259.8038.3623 1.0879.0765-.4057.1312-.9245.1894-1.5.0636-.6289.1357-1.3349.2735-1.8828.0679-.2701.1685-.5706.3339-.8184.1741-.2603.4909-.5556.9727-.5556.487 0 .8037.3011.9746.5683.1606.2514.2527.555.3135.8242.1231.5459.1791 1.2526.2324 1.876.0567.663.1116 1.2449.2139 1.6602.0013.0053.0026.0114.0039.0166.0063-.0102.0139-.0212.0205-.0323.1682-.2846.3241-.719.4307-1.2324.105-.5068.1533-1.0474.1328-1.5234-.0216-.4959-.1142-.8377-.2168-1.0108-.1443-.2432-.1392-.5476.0127-.7861.1523-.2384.4264-.3713.708-.3428.1423.0145.3388-.0394.539-.3183.2069-.2884.3847-.7907.3848-1.5088-.0002-.7112-.4612-1.1965-1.1816-1.416M17.71 4.91211l-1.4434 5.38379c.1655.0253.3285.0624.4873.1103l1.4385-5.36518-.125-.49707z"/>
</svg>
