<svg xmlns="http://www.w3.org/2000/svg" width="24" height="24" viewBox="0 0 24 24">
  <path fill="currentColor" d="M18.5674 2.48144c.4881-.4877 1.2805-.48788 1.7685 0l1.5157 1.51563c.4877.488.4875 1.27946 0 1.76758l-1.1719 1.1709c.214.34546.252.77933.083 1.16211l-.9639 2.18164c.2431.0281.4813.0767.7071.1455 1.146.3493 2.2439 1.2868 2.2441 2.8506 0 .9452-.2314 1.778-.666 2.3838-.2273.3166-.5177.5765-.8535.7431.0502.2555.0787.5187.0898.7745.0266.6127-.0344 1.2779-.1621 1.8935-.1264.6092-.3273 1.2171-.6084 1.6924-.2381.4022-.6621.9173-1.3096.9805l-.1328.0068-.1699-.0127c-.3807-.0557-.6509-.2932-.8164-.5322-.175-.2529-.2764-.5599-.3438-.833-.1361-.5529-.1972-1.2631-.2509-1.8907-.0163-.1902-.0355-.3738-.0518-.5488-.0202.1788-.0429.3665-.0625.5606-.0632.625-.13 1.3269-.2549 1.8681-.0615.2665-.1516.5637-.3027.8096-.1351.2196-.3873.4983-.7832.5645l-.1787.0146-.1358-.0078c-.3081-.0354-.5578-.1868-.7392-.3457-.2066-.1811-.3724-.4119-.5049-.6436-.2662-.4656-.4718-1.0637-.6084-1.6699-.0492-.2186-.0886-.4446-.1211-.6719l-1.0811 1.4815c-.021.0287-.0445.0556-.0673.082.116.4198.0104.8879-.3194 1.2178l-1.4931 1.4931c-.4881.4878-1.27953.4879-1.76761 0l-7.40723-7.4072c-.48793-.4881-.48783-1.2794 0-1.7676l1.49317-1.4931c.32965-.3295.79737-.4359 1.21679-.3203.02642-.0229.05421-.0454.08301-.0664l8.60937-6.29203c.111-.08107.2314-.14163.3564-.18164.1211-.26141.3337-.48523.628-.61524l2.2012-.97265c.382-.16858.8149-.13003 1.1601.083zM2.88477 14.3945l7.05371 7.0537 1.13962-1.1396-7.05369-7.0537zm17.18363-2.5351c-.7643-.2328-1.5468-.0737-1.9092.2607-.1385.1278-.3204.1992-.5088.1992h-.3008c-.1884 0-.3703-.0714-.5088-.1992-.3624-.3344-1.1449-.4935-1.9092-.2607-.7204.2195-1.1814.7047-1.1816 1.416 0 .7182.1779 1.2204.3848 1.5088.2002.279.3967.3328.539.3183.2816-.0285.5557.1043.708.3428.152.2386.1571.5429.0127.7861-.0972.164-.1832.4963-.1933.9932-.0097.4753.0518 1.0179.167 1.5293.0963.4273.2259.8038.3623 1.0879.0766-.4058.1312-.9244.1894-1.5.0636-.629.1356-1.3348.2735-1.8828.0679-.2702.1685-.5705.3339-.8184.174-.2603.4908-.5556.9727-.5556.487 0 .8037.3011.9746.5683.1606.2514.2527.555.3135.8242.1231.546.1791 1.2525.2324 1.876.0568.6631.1116 1.2449.2139 1.6602.0013.0054.0026.0113.0039.0166.0063-.0103.0139-.0211.0205-.0323.1683-.2846.3241-.7189.4307-1.2324.1051-.5069.1533-1.0473.1328-1.5234-.0216-.496-.1142-.8377-.2168-1.0108-.1443-.2432-.1393-.5475.0127-.7861.1523-.2385.4264-.3713.708-.3428.1423.0145.3388-.0393.539-.3183.2069-.2884.3848-.7906.3848-1.5088-.0002-.7113-.4612-1.1965-1.1816-1.416m-14.50785.8105 6.10255 6.1026 1.8457-2.5264c-.2263-.1563-.4269-.3558-.5928-.5869-.4346-.6058-.666-1.4386-.666-2.3838.0002-1.5638 1.098-2.5013 2.2441-2.8506.9612-.2929 2.1423-.2338 3.0059.3184.0301-.0193.061-.0377.0918-.0557l-.0137-.0098.0781-.1074-3.8945-3.89452zm9.41305-6.90428 3.5928 3.59278.7559-1.70996-2.6387-2.63868zm3.5098-1.07812 1.1621 1.16211.9688-.96875-1.1622-1.16211z"/>
</svg>
