<svg xmlns="http://www.w3.org/2000/svg" width="24" height="24" viewBox="0 0 24 24">
  <path fill="currentColor" d="M9.69629 2.03709c1.90541-.52874 4.23701-.62073 6.88081-.00781.4296.09961.8165.29752 1.0899.63086.2771.33814.3737.73897.3652 1.11816-.0163.71228-.4008 1.45117-.8525 2.05957-.4023.54163-.9207 1.06343-1.4785 1.48731.7419.19004 1.4518.49092 2.1367.89062.7925.46274 1.3199 1.44351 1.6846 2.4297.3818 1.033.6546 2.2692.83 3.4726.1759 1.2061.2578 2.4102.2461 3.3897-.0058.4883-.0343.9372-.0918 1.3096-.0448.2903-.1201.637-.2802.9121l-.0743.1133-.1152.1435c-.5881.6804-1.3872.7839-2.1807.8477-.8816.0708-1.9988.0975-3.6347.4414-1.6997.3573-3.981.7823-5.98244.8369-.9978.0272-1.97633-.0363-2.79688-.2725-.81674-.2352-1.59069-.6778-1.97949-1.4922-.3707-.777-.31286-1.8665-.10058-2.9228.22184-1.1037.65072-2.352 1.20996-3.5615.55966-1.2104 1.26195-2.4082 2.04296-3.4073.77141-.98666 1.66647-1.8398 2.62989-2.27633.64113-.29047 1.25918-.52149 1.85648-.69434-.6186-.46617-1.18528-1.07904-1.61722-1.7041-.4259-.61643-.77197-1.3189-.85743-1.96191-.04316-.3257-.02816-.70357.14844-1.05078.1901-.37328.52023-.62014.9209-.73145m3.30861 6.58984c-.0233.01717-.0474.03412-.0733.04883-1.054.6002-1.4076 1.92454-.8056 2.95314.2089.3573.0862.8126-.2735 1.0176-.3598.2048-.8209.0817-1.0302-.2754-.5785-.9883-.6365-2.1299-.2598-3.11721-.2277.08853-.461.18451-.69824.29199-.6449.29221-1.36055.92992-2.06738 1.83402-.69709.8917-1.3423 1.9865-1.86329 3.1132-.52141 1.1278-.9077 2.2623-1.10156 3.2266-.20325 1.0113-.16152 1.6766-.01562 1.9824.1282.2682.43003.5204 1.04101.6963.60759.1749 1.41134.2402 2.3418.2149 1.85548-.0507 4.02168-.451 5.71388-.8067 1.7554-.369 3.0016-.4018 3.8232-.4678.7492-.0602.9909-.145 1.1455-.3095l.0567-.0694c-.0007-.0052.0445-.1027.0859-.3711.043-.2787.0699-.6517.0752-1.0986.0107-.8914-.0655-2.0166-.2314-3.1553-.1665-1.1413-.4196-2.2671-.753-3.1689-.3505-.9482-.728-1.47695-1.0332-1.65528-.3887-.22683-.7892-.41518-1.2041-.5625.7245 1.25838.7746 2.85278-.0146 4.20118-.2093.3574-.6703.4813-1.0303.2764-.3599-.205-.4817-.6612-.2725-1.0186.7611-1.301.3124-2.97267-1.0175-3.73046-.0428-.02435-.0823-.05314-.1182-.08399-.1381.00681-.278.01891-.4199.03418m3.2334-5.13672c-2.4163-.56012-4.4881-.46332-6.1299-.00976-.0026.02773-.0041.07376.0049.1416.0408.30683.2414.77966.6055 1.30664.3545.51301.8169 1.00885 1.2968 1.36817.4962.37131.926.53408 1.2266.53418.3151-.00019.7879-.16933 1.331-.54004.5254-.35859 1.0315-.84818 1.4024-1.34766.3882-.52287.5519-.95278.5576-1.19922.0021-.09831-.0213-.12671-.0264-.13281-.0096-.01157-.0679-.07457-.2685-.1211"/>
</svg>
