<svg xmlns="http://www.w3.org/2000/svg" width="24" height="24" viewBox="0 0 24 24">
  <path fill="currentColor" d="M8.78809 13h-1v-.5966h1zm-.23926-3.74995c.6203.00016 1.16908.3615 1.56157.71777.4168.37858.7902.87098 1.0712 1.36428.2758.4842.4993 1.0355.5547 1.54.0277.2523.0206.5542-.0996.8408-.1321.3151-.3844.5682-.7383.6875-1.27386.4289-2.81957.4974-4.54977.0108-.34148-.0963-.64316-.2887-.84668-.5899-.19735-.2926-.25739-.6202-.25195-.9121.01058-.5599.26089-1.1423.55566-1.624.30498-.4982.71566-.9823 1.15918-1.3496.41707-.34526.98129-.68528 1.58399-.68555m0 1.49995c-.06387.0004-.24438.0509-.5127.25H8.5v.5967h-1v-.0918c-.15294.1751-.29526.3669-.41504.5625-.23518.3843-.33166.6964-.33496.8701-.0002.0114.0015.0213.00195.0293l.00293.001c1.37778.3875 2.55292.3424 3.49022.0655-.0087-.0777-.0322-.17-.0644-.2745H9.5v-.5966h.42383c-.0154-.0286-.02936-.0589-.0459-.0879-.21724-.3813-.49677-.7412-.77637-.9951-.30353-.2756-.49775-.3289-.55273-.3292M18.7715 2.15239l2.3144.6211c.2533.06798.4523.26381.5254.51562.073.25193.0097.52386-.1679.7168l-1.377 1.49121c.0796.49913.0544 1.03314-.0342 1.5664-.1164.70025-.3476 1.45249-.6474 2.21583-.3779.96195-.877 1.97285-1.4248 2.96675v7.4815c-.0002.6901-.5599 1.2498-1.25 1.25h-4.208c-.1179.2283-.2455.4558-.377.6435-.0919.1312-.2149.2867-.3662.4082-.1251.1004-.469.3339-.9033.1846-.3677-.1268-.5253-.4403-.584-.5801-.071-.1692-.1092-.3537-.1319-.5107-.0067-.0471-.0104-.0962-.0156-.1455H6.94727c-.00631 0-.01328-.0008-.01954-.001H4.28906c-.69016-.0002-1.25-.5598-1.25-1.25V5.57427c.00017-.86656.85199-1.45235 1.64258-1.1875l.15723.06445.52832.25879 1.25-.61133.08008-.0332a.751.751 0 0 1 .5791.0332l1.24902.61133 1.25-.61133.0791-.0332a.7516.7516 0 0 1 .58011.0332l1.249.61133 1.249-.61133.0791-.0332c.0802-.02848.1655-.04292.251-.04297h.2891c.0201 0 .0406.00196.0605.00293.1052-.00642.2138.00799.3184.04883l1.666.65234.9023-.44141.128-.05273c.1326-.04442.268-.05837.3984-.04785.1088-.12423.2189-.23865.3301-.33496l.5302-1.2627c.145-.34586.5235-.53141.8858-.43457M13.2031 19.4209c-.0077.0101-.0156.0195-.0224.0284-.0015.0038-.0024.0086-.0039.0127-.002.005-.0038.0103-.0059.0156h.1318v-.1875c-.0388.051-.072.095-.0996.1308m3.2569-4.6591c-.5791.9101-1.1529 1.7555-1.6573 2.4736v2.2422H16.46zm-4.4463-8.543a.7508.7508 0 0 1-.6592 0l-1.25-.61133-1.24903.61133c-.20792.10163-.45129.10173-.65918 0l-1.25-.61133-1.24902.61133c-.20788.10151-.45138.1017-.65918 0l-.49903-.24414V19.4766h5.57714c.0072-.1226.0149-.2365.0225-.3359.0095-.125.0185-.2293.0254-.3028.0028-.0301.0059-.0559.0078-.0752-.0036-.1765.0195-.3602.0508-.5263.0395-.2101.0996-.4482.1748-.7031.1506-.5109.3722-1.1334.6406-1.8204.5376-1.3761 1.2821-3.0556 2.0781-4.7099.061-.1267.124-.2525.1856-.3789V5.58794zm6.6504-1.60938c-.0587.13997-.1576.25969-.2852.3418-.0614.03962-.2239.19859-.4844.54785-.0417.09416-.1022.17709-.1767.2461-.2648.37938-.5691.85971-.8965 1.41894-.7341 1.25404-1.5689 2.85869-2.3535 4.48929-.7845 1.6303-1.512 3.274-2.0323 4.6054-.2603.6664-.4649 1.2441-.5986 1.6973-.0669.2269-.1135.4137-.1406.5576-.0277.147-.0265.2107-.0264.2168.0043.0482.0031.0974-.0019.1455l-.001.0049c-.0004.0041-.0001.0111-.001.0195-.0017.0171-.0047.0432-.0078.0762-.0062.0665-.0156.1626-.0244.2783-.0005.007-.0014.0144-.002.0215.0118-.0283.0253-.0554.0362-.082.0472-.1152.0851-.2123.1113-.2793.013-.0334.0236-.0598.0303-.0772.0032-.0084.0052-.0153.0068-.0195.0007-.0019.002-.0049.002-.0049.0267-.0708.0656-.1376.1123-.1972v-.002s.0022-.0027.0039-.0049c.0034-.0044.0095-.0114.0166-.0205.0142-.0183.0357-.046.0634-.082.0561-.0729.1383-.1822.2432-.3213.2104-.2789.5115-.6818.8682-1.1777.7143-.9935 1.653-2.3537 2.5537-3.8252.9034-1.476 1.7549-3.0427 2.3086-4.45218.2767-.70448.4709-1.3511.5644-1.91407.0946-.56925.0782-1.005-.0185-1.3164-.079-.25533-.0161-.53391.165-.73047l.8008-.86914-.4854-.12988zm-3.8623 3.09082c.2483-.45721.4905-.89244.7255-1.29394.0221-.0377.0445-.07512.0665-.11231a.757.757 0 0 1-.2364-.05078l-.5556-.21777z"/>
</svg>
