<svg xmlns="http://www.w3.org/2000/svg" width="24" height="24" viewBox="0 0 24 24">
  <path fill="currentColor" d="M14 1.25c.9664.00014 1.75.78359 1.75 1.75 0 .69772-.4093 1.29804-1 1.5791v2.09668l3.3525 1.03223c1.5734.48422 2.6475 1.93877 2.6475 3.58499V19c0 2.071-1.6791 3.7499-3.75 3.75H7c-2.07095-.0001-3.75-1.679-3.75-3.75v-7.707c0-1.64622 1.07412-3.10077 2.64746-3.58499L9.25 6.67578V4.5791c-.5906-.28111-1-.88147-1-1.5791 0-.96641.78362-1.74986 1.75-1.75zm2.6562 12.1084c-1.2451.0514-2.6664.4355-4.2324.8359-1.5179.3882-3.16562.7891-4.70505.7608-1.04045-.0192-2.05572-.2372-2.96875-.7842V19c0 1.2426 1.00748 2.2499 2.25 2.25h10c1.2425-.0001 2.25-1.0074 2.25-2.25v-4.8203c-.6365-.6424-1.4858-.8669-2.5938-.8213M10.75 7.23047c0 .32909-.2149.61983-.5293.7168L6.33789 9.14258C5.39421 9.43329 4.75 10.3055 4.75 11.293v.9736c.81239.8456 1.81599 1.1667 2.99609 1.1885 1.30552.024 2.76161-.3188 4.30661-.7139 1.497-.3828 3.1011-.8224 4.542-.8818.9255-.0381 1.8403.0787 2.6553.4873V11.293c0-.9875-.6442-1.85971-1.5879-2.15042l-3.8828-1.19531c-.3144-.09697-.5293-.38771-.5293-.7168V4.75h-2.5zM10 2.75c-.13795.00014-.25.11202-.25.25s.11205.24986.25.25h4c.138-.00014.25-.11202.25-.25s-.112-.24986-.25-.25z"/>
</svg>
