<svg xmlns="http://www.w3.org/2000/svg" width="24" height="24" viewBox="0 0 24 24">
  <path fill="currentColor" d="M16.4678 2.25c.7208.00025 1.293.60866 1.248 1.32812l-.9375 14.99998c-.0102.1633-.0528.3173-.1191.4571.0577.1438.0908.3004.0908.4648v1c0 .6902-.5599 1.2498-1.25 1.25h-7c-.69015-.0002-1.25-.5598-1.25-1.25v-1c0-.1642.0313-.3212.08887-.4648-.06621-.1397-.10698-.294-.11719-.4571l-.9375-14.99998c-.04495-.71945.52724-1.32787 1.24805-1.32812zm-7.7178 18h6.5v-.5h-6.5zm5.9082-11.42578c-.6681.02678-1.4391.228-2.3428.45215-.8571.21259-1.8323.44412-2.75388.42773-.47617-.00855-.95459-.08398-1.40722-.26367L8.70508 18.25h6.59082l.5684-9.09766c-.2731-.24651-.6481-.35037-1.2061-.32812M8.03711 7.57129c.39809.44354.90074.62108 1.55078.63281.69471.01236 1.48411-.16475 2.36721-.38379.8365-.2075 1.7846-.46066 2.6426-.49511.4567-.01824.9264.02421 1.3691.17968L16.2021 3.75H7.79883z"/>
</svg>
