<svg xmlns="http://www.w3.org/2000/svg" width="24" height="24" viewBox="0 0 24 24">
  <path fill="currentColor" d="M15.9082 11.9727c.413-.0282.7714.2842.7998.6972.0597.8685-.0736 2.8218-.3535 4.1201-.0874.4048-.4859.6623-.8906.5752-.4047-.0873-.6622-.4859-.5752-.8906.2537-1.1768.3712-2.9894.3222-3.7021-.0281-.413.2844-.7712.6973-.7998m-2.1289-5.09868c.0696-.40808.4571-.68256.8652-.61328.4083.06961.6828.45698.6133.86524-.2023 1.1867-.241 3.00192-.1611 3.71192.0463.4116-.2506.7837-.6621.8301-.4112.0457-.7828-.2509-.8291-.6621-.0974-.8652-.0494-2.8226.1738-4.13188M9.6709 15.2539c.4128-.028.7703.2834.7988.6963.0458.6661-.055 2.1375-.2666 3.1191-.0873.4048-.48578.6624-.8906.5752-.40469-.0873-.66225-.4859-.5752-.8906.18539-.8599.27036-2.1897.23536-2.7002-.02843-.4132.28511-.7713.69824-.7998M7.71289 8.73145c.41324.02842.7257.38754.69727.80078-.04889.71287.06861 2.52447.32226 3.70117.08718.4047-.16964.8031-.57422.8906-.40467.0871-.80413-.1696-.8916-.5742-.2799-1.2984-.41317-3.2525-.35351-4.12109.02855-.41281.38702-.72519.7998-.69726M12 1.85352c.3532.00009.6509.24475.7295.57617l.0195.14648c.0027.07402.0335.24257.1221.40137.0813.14555.1935.25515.3603.30957.0558.01814.174.04163.4141.08203.216.03634.4971.08117.8047.14551.6171.12912 1.3833.34281 2.1299.76074.7539.42207 1.4857 1.05169 2.0234 2 .5361.94562.8545 2.16353.8545 3.72461 0 2.9047-.1493 5.8107-1.1426 7.998-.5065 1.1154-1.243 2.0696-2.3047 2.7383C14.9513 21.4036 13.6256 21.75 12 21.75c-.0609 0-.1216-.002-.1816-.0029-.0339.0011-.0682.0026-.1026-.001-1.4966-.0384-2.72954-.3818-3.72654-1.0098-1.06168-.6687-1.79817-1.6229-2.30469-2.7383C4.69128 15.8107 4.542 12.9047 4.54199 10c.00002-1.56096.31747-2.77902.85352-3.72461.53763-.94827 1.26963-1.5779 2.02344-2 .74658-.41799 1.51278-.6316 2.12988-.76074.30783-.06441.58947-.10915.80567-.14551.2395-.0403.3571-.06391.4131-.08203.167-.05435.279-.16398.3603-.30957.0887-.15885.1194-.3273.1221-.40137.0147-.40323.3465-.72254.75-.72265m.7051 2.83496c-.3128.70925-.6851 1.76277-.9199 2.93652-.2797 1.39824-.3492 2.8915.0371 4.1562.46 1.5065.7293 3.3668.8398 5.0665.0804 1.2366.0776 2.432-.0078 3.3759 1.0832-.0786 1.9128-.3514 2.5566-.7568.7655-.4821 1.3272-1.1838 1.7383-2.0889.842-1.8542 1.0088-4.4491 1.0088-7.3779 0-1.35547-.2752-2.30698-.6592-2.98438-.3825-.67464-.8981-1.122-1.4511-1.43164-.5601-.31353-1.1611-.48694-1.7041-.60058-.2722-.05694-.5199-.09751-.7471-.13574-.2032-.03419-.4446-.07481-.6289-.13477-.0214-.00697-.0417-.01691-.0625-.02441m-2.1016.15918c-.2272.03822-.475.07881-.74705.13574-.54299.11363-1.14405.28711-1.70411.60058-.55297.30963-1.06873.75709-1.45117 1.43164-.384.6774-.65916 1.62891-.65918 2.98438.00001 2.9288.16679 5.5237 1.00879 7.3779.41102.905.97211 1.6068 1.73731 2.0889.60438.3807 1.37311.644 2.36131.7402.0849-.8331.0982-1.9917.0156-3.2617-.1061-1.6323-.3626-3.3689-.7773-4.7265-.48845-1.5994-.3767-3.37054-.0732-4.88775.1917-.95825.4654-1.84629.7402-2.57031-.1472.03486-.3085.06291-.4512.08692"/>
</svg>
