<svg xmlns="http://www.w3.org/2000/svg" width="24" height="24" viewBox="0 0 24 24">
  <path fill="currentColor" d="M13.1357 1.66992c.4138.04802.7444.25659.9825.53223.2518.29179.3985.65207.4902.9707.1834.63732.2177 1.37179.2363 1.79395.0082.18599-.0542.36712-.1719.50976.3672.55002.824 1.34949 1.2139 2.27246.466 1.10325.8602 2.43708.8604 3.76168v8.042c.0176.534-.0405 1.3525-.2998 2.0674-.251.6914-.8131 1.5664-1.9278 1.5664H9.48046c-1.11447-.0001-1.67681-.8751-1.92773-1.5664-.25531-.7039-.31483-1.5077-.29981-2.042v-8.0674c.00018-1.3246.39434-2.65843.86035-3.76168.38963-.92229.84591-1.72147 1.21289-2.27148a.752.752 0 0 1-.17089-.51074c.01863-.42215.05392-1.15663.2373-1.79395.09173-.31856.23753-.67897.48926-.9707.23817-.27588.56917-.48435.98337-.53223l.1826-.01074h1.9043zm1.2227 11.11718c-.5279.0328-1.1535.2823-1.9707.5957-.7413.2843-1.6566.627-2.542.6026-.36547-.0102-.73522-.0835-1.09278-.2471v5.8398c0 .008-.00069.0165-.00097.0244-.01381.4185.03841 1.0301.21093 1.5059.18127.4994.37461.578.51758.5781h5.03904c.143 0 .3362-.0784.5176-.5781.1726-.4758.2247-1.0874.2109-1.5059-.0002-.0079-.0009-.0164-.0009-.0244V13.208c-.1243-.1805-.2433-.2771-.3467-.331-.1327-.0691-.3038-.1046-.542-.0899M10.8769 5.75c-.0192.10908-.0611.21602-.1308.31152-.3222.44094-.8282 1.27067-1.25099 2.27149-.42454 1.0051-.74201 2.13009-.74219 3.17769v.2813c.17183.2621.342.4199.49805.5166.18366.1135.38987.1699.63574.1768.53709.0148 1.17359-.1999 1.96389-.503.714-.2738 1.6009-.6419 2.416-.6924.3174-.0196.6494.006.9756.1104-.0214-1.0159-.3277-2.09752-.7373-3.06739-.4228-1.00074-.9288-1.83057-1.251-2.27149-.0696-.09541-.1106-.20256-.1299-.31152zm2.0752-2.59082h-1.9043c-.0018-.00101-.0014-.0099-.0302.02344-.0507.05884-.1202.18489-.1836.40527-.0584.20297-.0955.4319-.1221.66211h2.5762c-.0266-.23022-.0637-.45914-.1221-.66211-.0635-.2205-.1329-.3465-.1836-.40527-.0302-.03501-.0279-.02344-.0303-.02344"/>
</svg>
