<svg xmlns="http://www.w3.org/2000/svg" width="24" height="24" viewBox="0 0 24 24">
  <path fill="currentColor" d="M7.61816 14.5215c.41375.0003.74971.3362.75.75v.582c0 .414-.33606.7497-.75.75-.41421 0-.75-.3358-.75-.75v-.582c.0003-.414.33597-.75.75-.75m8.63284 0c.4137.0004.7497.3363.75.75v.582c0 .414-.3362.7496-.75.75-.4142 0-.75-.3358-.75-.75v-.582c.0003-.414.3359-.75.75-.75m-4.3106-1.1797c.4138.0004.7499.3371.75.751v.582c-.0002.4137-.3363.7486-.75.749-.4142 0-.75-.3358-.75-.75v-.582c.0005-.4139.3361-.75.75-.75m2.3477-1.6289c.4138.0003.7498.3362.75.75v.582c0 .414-.3361.7497-.75.75-.4142 0-.75-.3358-.75-.75v-.582c.0002-.414.3359-.75.75-.75m-4.53615-.1152c.41385.0002.74975.3361.75005.75v.582c0 .4141-.336.7498-.75005.75-.41401-.0002-.75-.3359-.75-.75v-.582c.0003-.4139.33617-.7498.75-.75m2.18845-3.12211c.4138.0004.7499.33617.75.75v.58203c-.0002.41378-.3362.74958-.75.74998-.4141 0-.7498-.3359-.75-.74998v-.58203c.0002-.41408.3359-.75.75-.75M12 1.96875c.2844.00017.5452.16135.6719.41602l8.0986 16.29493c.1451.2921.0835.6392-.1396.8633l-.1055.0879-.002.0009-.0039.003c-.0024.0017-.006.0043-.0097.0068-.0086.0058-.0215.0138-.0362.0234-.0299.0197-.0725.0481-.1269.0821-.1094.0684-.2685.1635-.4717.2763-.4068.2258-.9969.5238-1.7412.8204-1.4878.5927-3.6084 1.1874-6.1338 1.1874-2.52536-.0001-4.64605-.5947-6.13379-1.1874-.74425-.2966-1.33444-.5946-1.74121-.8204-.20302-.1127-.36139-.208-.4707-.2763a6.2 6.2 0 0 1-.12793-.0821c-.0145-.0095-.02667-.0177-.03516-.0234-.00401-.0027-.00811-.0051-.01074-.0068l-.00293-.003h-.00195c.00294-.0047.03795-.0568.42578-.6181l-.42676.6172c-.30635-.212-.41088-.6175-.24512-.9512L11.3291 2.38477l.0527-.09082c.1385-.20148.3693-.32498.6182-.3252M4.88086 18.7266c.35826.1975.88048.4604 1.54102.7236 1.35704.5406 3.2868 1.0809 5.57812 1.081 2.2915 0 4.222-.5403 5.5791-1.081.6601-.263 1.1819-.5262 1.54-.7236l-.4902-.9854c-.0871.0541-.2074.1276-.3594.2119-.3249.1804-.7953.4173-1.3877.6533-1.1834.4716-2.8706.9442-4.8808.9444-2.01044 0-3.69826-.4728-4.88186-.9444-.59202-.2359-1.06179-.4729-1.38672-.6533a8.4 8.4 0 0 1-.3623-.2129zm1.16016-2.336c.00603.0039.0126.0076.01855.0117.00281.0019.00947.0051.0166.0098.015.0099.0399.026.07324.0469.0676.0423.17246.1059.31055.1826.27696.1537.68954.362 1.21485.5713 1.05289.4194 2.54989.8379 4.32619.8379 1.776-.0002 3.2724-.4185 4.3252-.8379.5253-.2093.9379-.4176 1.2148-.5713.1382-.0767.243-.1404.3106-.1826.0334-.0209.0583-.037.0732-.0469.0073-.0047.013-.008.0156-.0098l.001-.0009.0166-.0108L12 4.40332z"/>
</svg>
