<svg xmlns="http://www.w3.org/2000/svg" width="24" height="24" viewBox="0 0 24 24">
  <path fill="currentColor" d="M14.2813 12.6182c.4155-.5511 1.1988-.6614 1.75-.2461l1.6015 1.208c.5509.4157.6607 1.1999.2451 1.751l-1.2568 1.6679c-.4156.551-1.1998.6604-1.751.2451l-1.6015-1.208c-.5512-.4157-.6609-1.1998-.2452-1.7509zm.0898 2.3711 1.2021.9062.9571-1.2685-1.2022-.9063zm-4.84766-4.21c.66656-.1784 1.35246.2173 1.53126.8838l.541 2.0185c.1783.6665-.2176 1.3514-.8838 1.5303l-1.93748.5195c-.66676.1787-1.35248-.2171-1.53125-.8837l-.54102-2.0176c-.17864-.6667.2172-1.3524.88379-1.5313zm-1.30762 1.9033.41114 1.5352 1.45504-.3897-.4111-1.5351zM20.4404 2.25c.7457 0 1.3255.64866 1.2422 1.38965L19.9951 18.6396c-.0169.1508-.0612.2921-.126.4209.0516.1369.0811.2846.0811.4395v1c0 .6902-.5598 1.2498-1.25 1.25H5.29981c-.69019-.0002-1.25-.5598-1.25-1.25v-1c0-.1548.0296-.3026.08105-.4395-.0647-.1287-.10903-.2702-.12598-.4209L2.31738 3.63965c-.08329-.74093.4966-1.38955 1.24219-1.38965zm-14.89059 18H18.4502v-.5H5.54981zM16.8496 8.44531c-1.3308.03943-2.8416.33456-4.4648.63281-1.5898.29211-3.27957.58522-4.84867.56446-1.07752-.01427-2.14155-.17735-3.10449-.61524L5.46973 18.25H18.5303l1.039-9.24512c-.6644-.43052-1.5655-.59373-2.7197-.55957M4.2207 7.15137c.86539.69196 1.98677.97331 3.33497.99121 1.4004.01853 2.95033-.24471 4.55763-.54004 1.5736-.28915 3.2187-.61257 4.6914-.65625 1.0267-.0304 2.046.07223 2.9443.46191l.4121-3.6582H3.83887z"/>
</svg>
