<svg xmlns="http://www.w3.org/2000/svg" width="24" height="24" viewBox="0 0 24 24">
  <path fill="currentColor" d="M3.02344 19.792c.41395.0002.7499.336.75.75v.582c-.00013.414-.33607.7498-.75.75-.41413 0-.74987-.3359-.75-.75v-.582c.0001-.4141.33585-.75.75-.75M6.25 17.918c.41395.0002.7499.336.75.75v.582c0 .4141-.33599.7498-.75.75-.41401-.0002-.75-.3359-.75-.75v-.582c.0001-.414.33605-.7498.75-.75M20 4.25c.6902.00023 1.25.55979 1.25 1.25v13c0 .6902-.5598 1.2498-1.25 1.25H8.99219c-.00312 0-.00666-.0009-.00977-.001-.03406-.0008-.06779-.0045-.10058-.0097-.34276-.0511-.61309-.3321-.6377-.6875-.07842-1.1384-.92954-2.0676-2.03223-2.2637-.20598-.0368-.38821-.1577-.50097-.334-.11272-.1766-.14619-.3931-.09278-.5957a2.483 2.483 0 0 0 .08204-.6338c-.00013-1.295-.99676-2.3585-2.26368-2.4658-.38792-.0332-.68645-.3577-.68652-.7471V5c0-.41407.33599-.74977.75-.75zM4.25 11.3838c1.69835.4524 2.95008 2.0002 2.9502 3.8408 0 .0964-.00494.1923-.01172.2871 1.20003.4571 2.12112 1.4763 2.43945 2.7383H15.75V5.75H4.25zm13 6.8662h2.5V5.75h-2.5zm-14-3.291c.41395.0002.7499.336.75.75v.582c-.00007.414-.33603.7498-.75.75-.41397-.0002-.74993-.336-.75-.75v-.582c.0001-.414.33605-.7498.75-.75"/>
</svg>
