<svg xmlns="http://www.w3.org/2000/svg" width="24" height="24" viewBox="0 0 24 24">
  <path fill="currentColor" d="M12 9.25c1.5188.00002 2.75 1.2312 2.75 2.75s-1.2312 2.75-2.75 2.75S9.25 13.5188 9.25 12 10.4812 9.25 12 9.25m0 1.5c-.6904 0-1.25.5596-1.25 1.25s.5596 1.25 1.25 1.25c.6903 0 1.25-.5597 1.25-1.25s-.5597-1.25-1.25-1.25m6.4541-8.5c.7333.00002 1.309.62882 1.2451 1.35938L18.3867 18.6094c-.0138.1567-.0566.3044-.1221.4385.0546.1403.086.2925.086.4521v1c0 .6901-.5599 1.2497-1.25 1.25H6.90039c-.69035 0-1.25-.5596-1.25-1.25v-1c0-.1595.02955-.3119.08399-.4521-.06535-.134-.10734-.2819-.1211-.4385L4.30078 3.60938C4.23686 2.87881 4.81254 2.25 5.5459 2.25zm-11.30371 18h9.70021v-.5H7.15039zm-.0625-2h9.82421L17.9844 6H6.01563zM5.88379 4.5H18.1162l.0654-.75H5.81836z"/>
</svg>
