<svg xmlns="http://www.w3.org/2000/svg" width="24" height="24" viewBox="0 0 24 24">
  <path fill="currentColor" d="M13.3135 13.5918c.1282-.3935.5543-.6176.9511-.5.3966.118.615.5332.4874.9268-1.2478 3.8384-5.35869 6.4186-9.46977 5.1992-.3968-.118-.61517-.533-.48731-.9268.12833-.3933.55441-.6175.95117-.5 3.22085.9554 6.54361-1.0499 7.56741-4.1992m3.5283-11.36426c.3142-.23512.7533-.20259 1.0166.06445l.0498.05664.8672 1.08204 2.4668.04003c.2972.00503.5622.17651.6767.43946.1145.26321.058.57076-.1435.78613l-2.166 2.30957c-.0016 3.59604-1.324 7.40744-3.585 10.32914-2.2658 2.9274-5.53 5.0261-9.416 5.0263-1.06938 0-2.30937-.4104-3.29102-1.208-.99994-.8126-1.75168-2.0475-1.75195-3.666.00013-1.0446.42897-2.2264 1.09082-3.1465.65392-.9086 1.66238-1.7285 2.90234-1.7285 1.30204-.0003 3.27745-.7521 4.94821-2.0332C12.1826 9.29399 13.3357 7.64643 13.3359 6c.0001-.06177.0094-.12226.0235-.17969l-.9961-2.52441c-.1098-.27913-.0307-.59872.1982-.80664.2291-.20749.564-.26345.8447-.13965l2.0626.91016zm-2.1826 5.11621c-.4615 1.76749-1.774 3.30135-3.2403 4.42575-1.83171 1.4044-4.12058 2.3425-5.86031 2.3428-.5506 0-1.1649.3825-1.68457 1.1045-.51111.7106-.80845 1.5921-.80859 2.2705.00026 1.1074.49988 1.9345 1.19824 2.502.71692.5824 1.6234.872 2.34473.872 3.30505-.0002 6.1677-1.7805 8.2295-4.4443 1.895-2.4488 3.0649-5.5924 3.2451-8.60938-.6316.18538-1.2467.25961-1.8564.16992-.5675-.08369-1.082-.30226-1.5674-.63379m1.3594-2.64941c-.227.17042-.531.20696-.7881.09375l-.7676-.33985.4463 1.13282c.5997.61001 1.0979.86893 1.5762.93945.4896.07205 1.0818-.03398 1.9091-.3916l1.1358-1.21094-1.1709-.01855c-.228-.00368-.4408-.10669-.5791-.2793l-.6241-.78027z"/>
</svg>
